M48
METRIC,TZ
T1C1.500
T2C1.800
T3C3.000
T4C3.048
T5C3.988
%
G90
G05
T1
X205041Y-56550
X212041Y-56550
T2
X328295Y-80962
X338455Y-80962
X290195Y-61913
X300355Y-61913
X316389Y-119063
X326549Y-119063
X252095Y-80962
X262255Y-80962
X290195Y-42863
X300355Y-42863
X292576Y-119063
X302736Y-119063
X290195Y-100012
X300355Y-100012
X356870Y-100012
X367030Y-100012
X252095Y-23813
X262255Y-23813
X337820Y-119063
X347980Y-119063
X271145Y-61913
X281305Y-61913
X328295Y-23813
X338455Y-23813
X233045Y-23813
X243205Y-23813
X233045Y-42863
X243205Y-42863
X239010Y-126414
X242485Y-135961
X347345Y-61913
X357505Y-61913
X356870Y-119063
X367030Y-119063
X290195Y-23813
X300355Y-23813
X233045Y-61913
X243205Y-61913
X271145Y-80962
X281305Y-80962
X309245Y-100012
X319405Y-100012
X359326Y-80962
X369486Y-80962
X375920Y-100012
X386080Y-100012
X271145Y-23813
X281305Y-23813
X309245Y-42863
X319405Y-42863
X371158Y-61913
X381318Y-61913
X371158Y-42863
X381318Y-42863
X221109Y-132929
X224584Y-142477
X252095Y-42863
X262255Y-42863
X375920Y-119063
X386080Y-119063
X328295Y-61913
X338455Y-61913
X252095Y-100012
X262255Y-100012
X290195Y-80962
X300355Y-80962
X268764Y-119063
X278924Y-119063
X347345Y-23813
X357505Y-23813
X271145Y-42863
X281305Y-42863
X233045Y-80962
X243205Y-80962
X252095Y-61913
X262255Y-61913
X309245Y-23813
X319405Y-23813
X271145Y-100012
X281305Y-100012
X309245Y-80962
X319405Y-80962
X333058Y-100012
X343218Y-100012
X328295Y-42863
X338455Y-42863
X233045Y-100012
X243205Y-100012
X347345Y-42863
X357505Y-42863
X309245Y-61913
X319405Y-61913
T3
X330835Y-86043
X337185Y-83503
X292735Y-66993
X299085Y-64453
X318929Y-124143
X325279Y-121602
X254635Y-86043
X260985Y-83503
X292735Y-47943
X299085Y-45403
X295116Y-124143
X301466Y-121602
X292735Y-105093
X299085Y-102552
X359410Y-105093
X365760Y-102552
X254635Y-28892
X260985Y-26353
X340360Y-124143
X346710Y-121602
X273685Y-66993
X280035Y-64453
X330835Y-28892
X337185Y-26353
X235585Y-28892
X241935Y-26353
X235585Y-47943
X241935Y-45403
X235105Y-130538
X239664Y-135636
X349885Y-66993
X356235Y-64453
X359410Y-124143
X365760Y-121602
X292735Y-28892
X299085Y-26353
X235585Y-66993
X241935Y-64453
X273685Y-86043
X280035Y-83503
X311785Y-105093
X318135Y-102552
X361866Y-86043
X368216Y-83503
X378460Y-105093
X384810Y-102552
X273685Y-28892
X280035Y-26353
X311785Y-47943
X318135Y-45403
X373698Y-66993
X380048Y-64453
X373698Y-47943
X380048Y-45403
X223930Y-133254
X228489Y-138352
X254635Y-47943
X260985Y-45403
X378460Y-124143
X384810Y-121602
X330835Y-66993
X337185Y-64453
X254635Y-105093
X260985Y-102552
X292735Y-86043
X299085Y-83503
X271304Y-124143
X277654Y-121602
X349885Y-28892
X356235Y-26353
X273685Y-47943
X280035Y-45403
X235585Y-86043
X241935Y-83503
X254635Y-66993
X260985Y-64453
X311785Y-28892
X318135Y-26353
X273685Y-105093
X280035Y-102552
X311785Y-86043
X318135Y-83503
X335598Y-105093
X341948Y-102552
X330835Y-47943
X337185Y-45403
X235585Y-105093
X241935Y-102552
X349885Y-47943
X356235Y-45403
X311785Y-66993
X318135Y-64453
T4
X230101Y-122358
X238267Y-144795
X352468Y-87948
X376344Y-87948
X225327Y-124096
X233493Y-146532
T5
X238125Y-23813
X238125Y-42863
X240748Y-131187
X244422Y-117146
X252588Y-139582
X352425Y-61913
X361950Y-119063
X295275Y-23813
X238125Y-61913
X276225Y-80962
X314325Y-100012
X352468Y-72707
X364406Y-80962
X376344Y-72707
X381000Y-100012
X276225Y-23813
X314325Y-42863
X376238Y-61913
X376238Y-42863
X211006Y-129308
X219172Y-151744
X222846Y-137703
X257175Y-42863
X381000Y-119063
X333375Y-61913
X257175Y-100012
X295275Y-80962
X273844Y-119063
X352425Y-23813
X276225Y-42863
X238125Y-80962
X257175Y-61913
X314325Y-23813
X276225Y-100012
X314325Y-80962
X338138Y-100012
X333375Y-42863
X238125Y-100012
X352425Y-42863
X314325Y-61913
X333375Y-80962
X295275Y-61913
X321469Y-119063
X257175Y-80962
X295275Y-42863
X297656Y-119063
X295275Y-100012
X361950Y-100012
X257175Y-23813
X342900Y-119063
X276225Y-61913
X333375Y-23813
T0
M30
