G04 #@! TF.GenerationSoftware,KiCad,Pcbnew,(5.1.6)-1*
G04 #@! TF.CreationDate,2020-11-25T22:12:28-08:00*
G04 #@! TF.ProjectId,ortho_right,6f727468-6f5f-4726-9967-68742e6b6963,rev?*
G04 #@! TF.SameCoordinates,Original*
G04 #@! TF.FileFunction,Other,ECO2*
%FSLAX46Y46*%
G04 Gerber Fmt 4.6, Leading zero omitted, Abs format (unit mm)*
G04 Created by KiCad (PCBNEW (5.1.6)-1) date 2020-11-25 22:12:28*
%MOMM*%
%LPD*%
G01*
G04 APERTURE LIST*
%ADD10C,0.152400*%
G04 APERTURE END LIST*
D10*
X373016200Y-74358500D02*
X374057600Y-74358500D01*
X374057600Y-74358500D02*
X374057600Y-73190100D01*
X348276600Y-80454500D02*
X349140200Y-80454500D01*
X373016200Y-85839300D02*
X371390600Y-85839300D01*
X374057600Y-73190100D02*
X378629600Y-73190100D01*
X357420600Y-87947500D02*
X357420600Y-85839300D01*
X354753600Y-73190100D02*
X354753600Y-74358500D01*
X379671000Y-74358500D02*
X379671000Y-80454500D01*
X357420600Y-85839300D02*
X355795000Y-85839300D01*
X355795000Y-85839300D02*
X355795000Y-86652100D01*
X355795000Y-86652100D02*
X349140200Y-86652100D01*
X349140200Y-74358500D02*
X350181600Y-74358500D01*
X349140200Y-80454500D02*
X349140200Y-74358500D01*
X355795000Y-74358500D02*
X355795000Y-75145900D01*
X380534600Y-83248500D02*
X379671000Y-83248500D01*
X354753600Y-74358500D02*
X355795000Y-74358500D01*
X357420600Y-75145900D02*
X357420600Y-73977500D01*
X373016200Y-86652100D02*
X373016200Y-85839300D01*
X379671000Y-80454500D02*
X380534600Y-80454500D01*
X348276600Y-83248500D02*
X348276600Y-80454500D01*
X371390600Y-85839300D02*
X371390600Y-87947500D01*
X379671000Y-83248500D02*
X379671000Y-86652100D01*
X371390600Y-87947500D02*
X357420600Y-87947500D01*
X373016200Y-75145900D02*
X373016200Y-74358500D01*
X357420600Y-73977500D02*
X371390600Y-73977500D01*
X378629600Y-74358500D02*
X379671000Y-74358500D01*
X371390600Y-75145900D02*
X373016200Y-75145900D01*
X379671000Y-86652100D02*
X373016200Y-86652100D01*
X371390600Y-73977500D02*
X371390600Y-75145900D01*
X378629600Y-73190100D02*
X378629600Y-74358500D01*
X350181600Y-74358500D02*
X350181600Y-73190100D01*
X380534600Y-80454500D02*
X380534600Y-83248500D01*
X349140200Y-86652100D02*
X349140200Y-83248500D01*
X349140200Y-83248500D02*
X348276600Y-83248500D01*
X350181600Y-73190100D02*
X354753600Y-73190100D01*
X355795000Y-75145900D02*
X357420600Y-75145900D01*
X243268347Y-121106766D02*
X243824335Y-122634331D01*
X243186302Y-115162973D02*
X244750019Y-119459247D01*
X233378318Y-117624552D02*
X233082950Y-116813034D01*
X230179981Y-118788652D02*
X233378318Y-117624552D01*
X246741337Y-146170034D02*
X244115836Y-147125638D01*
X242088366Y-115562589D02*
X243186302Y-115162973D01*
X252916091Y-141895348D02*
X251818155Y-142294965D01*
X249700294Y-135362220D02*
X248602357Y-135761837D01*
X240622129Y-147478220D02*
X238346054Y-141224753D01*
X248602357Y-135761837D02*
X249158345Y-137289401D01*
X251818155Y-142294965D02*
X252174334Y-143273561D01*
X244922272Y-122234714D02*
X249700294Y-135362220D01*
X249158345Y-137289401D02*
X249898259Y-137020094D01*
X236572788Y-140140242D02*
X231794766Y-127012736D01*
X243820467Y-146314120D02*
X240622129Y-147478220D01*
X238553848Y-139419195D02*
X236572788Y-140140242D01*
X233082950Y-116813034D02*
X235708451Y-115857429D01*
X246445968Y-145358516D02*
X246741337Y-146170034D01*
X238346054Y-141224753D02*
X239109836Y-140946759D01*
X243824335Y-122634331D02*
X244922272Y-122234714D01*
X243652082Y-119858864D02*
X244008261Y-120837460D01*
X244115836Y-147125638D02*
X243820467Y-146314120D01*
X244008261Y-120837460D02*
X243268347Y-121106766D01*
X236003820Y-116668948D02*
X241732186Y-114583993D01*
X241732186Y-114583993D02*
X242088366Y-115562589D01*
X232456056Y-125042119D02*
X230179981Y-118788652D01*
X233219838Y-124764125D02*
X232456056Y-125042119D01*
X233775826Y-126291689D02*
X233219838Y-124764125D01*
X252174334Y-143273561D02*
X246445968Y-145358516D01*
X244750019Y-119459247D02*
X243652082Y-119858864D01*
X231794766Y-127012736D02*
X233775826Y-126291689D01*
X251352375Y-137599074D02*
X252916091Y-141895348D01*
X239109836Y-140946759D02*
X238553848Y-139419195D01*
X235708451Y-115857429D02*
X236003820Y-116668948D01*
X250254438Y-137998690D02*
X251352375Y-137599074D01*
X249898259Y-137020094D02*
X250254438Y-137998690D01*
X220325569Y-147783674D02*
X219769581Y-146256109D01*
X220407614Y-153727467D02*
X218843897Y-149431193D01*
X230215598Y-151265888D02*
X230510966Y-152077406D01*
X233413935Y-150101788D02*
X230215598Y-151265888D01*
X216852579Y-122720406D02*
X219478080Y-121764802D01*
X221505550Y-153327851D02*
X220407614Y-153727467D01*
X210677825Y-126995092D02*
X211775761Y-126595475D01*
X213893622Y-133528220D02*
X214991559Y-133128603D01*
X222971787Y-121412220D02*
X225247862Y-127665687D01*
X214991559Y-133128603D02*
X214435571Y-131601039D01*
X211775761Y-126595475D02*
X211419582Y-125616879D01*
X218671644Y-146655726D02*
X213893622Y-133528220D01*
X214435571Y-131601039D02*
X213695657Y-131870346D01*
X227021128Y-128750198D02*
X231799150Y-141877704D01*
X219773449Y-122576320D02*
X222971787Y-121412220D01*
X225040068Y-129471245D02*
X227021128Y-128750198D01*
X230510966Y-152077406D02*
X227885465Y-153033011D01*
X217147948Y-123531924D02*
X216852579Y-122720406D01*
X225247862Y-127665687D02*
X224484080Y-127943681D01*
X219769581Y-146256109D02*
X218671644Y-146655726D01*
X219941834Y-149031576D02*
X219585655Y-148052980D01*
X219478080Y-121764802D02*
X219773449Y-122576320D01*
X219585655Y-148052980D02*
X220325569Y-147783674D01*
X227590096Y-152221492D02*
X221861730Y-154306447D01*
X221861730Y-154306447D02*
X221505550Y-153327851D01*
X231137860Y-143848321D02*
X233413935Y-150101788D01*
X230374078Y-144126315D02*
X231137860Y-143848321D01*
X229818090Y-142598751D02*
X230374078Y-144126315D01*
X211419582Y-125616879D02*
X217147948Y-123531924D01*
X218843897Y-149431193D02*
X219941834Y-149031576D01*
X231799150Y-141877704D02*
X229818090Y-142598751D01*
X212241541Y-131291366D02*
X210677825Y-126995092D01*
X224484080Y-127943681D02*
X225040068Y-129471245D01*
X227885465Y-153033011D02*
X227590096Y-152221492D01*
X213339478Y-130891750D02*
X212241541Y-131291366D01*
X213695657Y-131870346D02*
X213339478Y-130891750D01*
X387985000Y-93027500D02*
X387985000Y-106997500D01*
X374015000Y-93027500D02*
X387985000Y-93027500D01*
X374015000Y-106997500D02*
X374015000Y-93027500D01*
X387985000Y-106997500D02*
X374015000Y-106997500D01*
X368935000Y-93027500D02*
X368935000Y-106997500D01*
X354965000Y-93027500D02*
X368935000Y-93027500D01*
X354965000Y-106997500D02*
X354965000Y-93027500D01*
X368935000Y-106997500D02*
X354965000Y-106997500D01*
X345123000Y-93027500D02*
X345123000Y-106997500D01*
X331153000Y-93027500D02*
X345123000Y-93027500D01*
X331153000Y-106997500D02*
X331153000Y-93027500D01*
X345123000Y-106997500D02*
X331153000Y-106997500D01*
X359410000Y-16827500D02*
X359410000Y-30797500D01*
X345440000Y-16827500D02*
X359410000Y-16827500D01*
X345440000Y-30797500D02*
X345440000Y-16827500D01*
X359410000Y-30797500D02*
X345440000Y-30797500D01*
X387985000Y-112077500D02*
X387985000Y-126047500D01*
X374015000Y-112077500D02*
X387985000Y-112077500D01*
X374015000Y-126047500D02*
X374015000Y-112077500D01*
X387985000Y-126047500D02*
X374015000Y-126047500D01*
X368935000Y-112077500D02*
X368935000Y-126047500D01*
X354965000Y-112077500D02*
X368935000Y-112077500D01*
X354965000Y-126047500D02*
X354965000Y-112077500D01*
X368935000Y-126047500D02*
X354965000Y-126047500D01*
X349885000Y-112077500D02*
X349885000Y-126047500D01*
X335915000Y-112077500D02*
X349885000Y-112077500D01*
X335915000Y-126047500D02*
X335915000Y-112077500D01*
X349885000Y-126047500D02*
X335915000Y-126047500D01*
X328453500Y-126047500D02*
X314483500Y-126047500D01*
X314483500Y-126047500D02*
X314483500Y-112077500D01*
X314483500Y-112077500D02*
X328453500Y-112077500D01*
X328453500Y-112077500D02*
X328453500Y-126047500D01*
X245110000Y-93027500D02*
X245110000Y-106997500D01*
X231140000Y-93027500D02*
X245110000Y-93027500D01*
X231140000Y-106997500D02*
X231140000Y-93027500D01*
X245110000Y-106997500D02*
X231140000Y-106997500D01*
X245110000Y-73977500D02*
X245110000Y-87947500D01*
X231140000Y-73977500D02*
X245110000Y-73977500D01*
X231140000Y-87947500D02*
X231140000Y-73977500D01*
X245110000Y-87947500D02*
X231140000Y-87947500D01*
X383223000Y-54927500D02*
X383223000Y-68897500D01*
X369253000Y-54927500D02*
X383223000Y-54927500D01*
X369253000Y-68897500D02*
X369253000Y-54927500D01*
X383223000Y-68897500D02*
X369253000Y-68897500D01*
X245110000Y-54927500D02*
X245110000Y-68897500D01*
X231140000Y-54927500D02*
X245110000Y-54927500D01*
X231140000Y-68897500D02*
X231140000Y-54927500D01*
X245110000Y-68897500D02*
X231140000Y-68897500D01*
X383223000Y-35877500D02*
X383223000Y-49847500D01*
X369253000Y-35877500D02*
X383223000Y-35877500D01*
X369253000Y-49847500D02*
X369253000Y-35877500D01*
X383223000Y-49847500D02*
X369253000Y-49847500D01*
X245110000Y-35877500D02*
X245110000Y-49847500D01*
X231140000Y-35877500D02*
X245110000Y-35877500D01*
X231140000Y-49847500D02*
X231140000Y-35877500D01*
X245110000Y-49847500D02*
X231140000Y-49847500D01*
X245110000Y-16827500D02*
X245110000Y-30797500D01*
X231140000Y-16827500D02*
X245110000Y-16827500D01*
X231140000Y-30797500D02*
X231140000Y-16827500D01*
X245110000Y-30797500D02*
X231140000Y-30797500D01*
X304641000Y-126047500D02*
X290671000Y-126047500D01*
X290671000Y-126047500D02*
X290671000Y-112077500D01*
X290671000Y-112077500D02*
X304641000Y-112077500D01*
X304641000Y-112077500D02*
X304641000Y-126047500D01*
X280828500Y-126047500D02*
X266858500Y-126047500D01*
X266858500Y-126047500D02*
X266858500Y-112077500D01*
X266858500Y-112077500D02*
X280828500Y-112077500D01*
X280828500Y-112077500D02*
X280828500Y-126047500D01*
X321310000Y-93027500D02*
X321310000Y-106997500D01*
X307340000Y-93027500D02*
X321310000Y-93027500D01*
X307340000Y-106997500D02*
X307340000Y-93027500D01*
X321310000Y-106997500D02*
X307340000Y-106997500D01*
X302260000Y-93027500D02*
X302260000Y-106997500D01*
X288290000Y-93027500D02*
X302260000Y-93027500D01*
X288290000Y-106997500D02*
X288290000Y-93027500D01*
X302260000Y-106997500D02*
X288290000Y-106997500D01*
X283210000Y-93027500D02*
X283210000Y-106997500D01*
X269240000Y-93027500D02*
X283210000Y-93027500D01*
X269240000Y-106997500D02*
X269240000Y-93027500D01*
X283210000Y-106997500D02*
X269240000Y-106997500D01*
X264160000Y-93027500D02*
X264160000Y-106997500D01*
X250190000Y-93027500D02*
X264160000Y-93027500D01*
X250190000Y-106997500D02*
X250190000Y-93027500D01*
X264160000Y-106997500D02*
X250190000Y-106997500D01*
X340360000Y-73977500D02*
X340360000Y-87947500D01*
X326390000Y-73977500D02*
X340360000Y-73977500D01*
X326390000Y-87947500D02*
X326390000Y-73977500D01*
X340360000Y-87947500D02*
X326390000Y-87947500D01*
X321310000Y-73977500D02*
X321310000Y-87947500D01*
X307340000Y-73977500D02*
X321310000Y-73977500D01*
X307340000Y-87947500D02*
X307340000Y-73977500D01*
X321310000Y-87947500D02*
X307340000Y-87947500D01*
X302260000Y-73977500D02*
X302260000Y-87947500D01*
X288290000Y-73977500D02*
X302260000Y-73977500D01*
X288290000Y-87947500D02*
X288290000Y-73977500D01*
X302260000Y-87947500D02*
X288290000Y-87947500D01*
X283210000Y-73977500D02*
X283210000Y-87947500D01*
X269240000Y-73977500D02*
X283210000Y-73977500D01*
X269240000Y-87947500D02*
X269240000Y-73977500D01*
X283210000Y-87947500D02*
X269240000Y-87947500D01*
X264160000Y-73977500D02*
X264160000Y-87947500D01*
X250190000Y-73977500D02*
X264160000Y-73977500D01*
X250190000Y-87947500D02*
X250190000Y-73977500D01*
X264160000Y-87947500D02*
X250190000Y-87947500D01*
X359410000Y-54927500D02*
X359410000Y-68897500D01*
X345440000Y-54927500D02*
X359410000Y-54927500D01*
X345440000Y-68897500D02*
X345440000Y-54927500D01*
X359410000Y-68897500D02*
X345440000Y-68897500D01*
X340360000Y-54927500D02*
X340360000Y-68897500D01*
X326390000Y-54927500D02*
X340360000Y-54927500D01*
X326390000Y-68897500D02*
X326390000Y-54927500D01*
X340360000Y-68897500D02*
X326390000Y-68897500D01*
X321310000Y-54927500D02*
X321310000Y-68897500D01*
X307340000Y-54927500D02*
X321310000Y-54927500D01*
X307340000Y-68897500D02*
X307340000Y-54927500D01*
X321310000Y-68897500D02*
X307340000Y-68897500D01*
X302260000Y-54927500D02*
X302260000Y-68897500D01*
X288290000Y-54927500D02*
X302260000Y-54927500D01*
X288290000Y-68897500D02*
X288290000Y-54927500D01*
X302260000Y-68897500D02*
X288290000Y-68897500D01*
X283210000Y-54927500D02*
X283210000Y-68897500D01*
X269240000Y-54927500D02*
X283210000Y-54927500D01*
X269240000Y-68897500D02*
X269240000Y-54927500D01*
X283210000Y-68897500D02*
X269240000Y-68897500D01*
X264160000Y-54927500D02*
X264160000Y-68897500D01*
X250190000Y-54927500D02*
X264160000Y-54927500D01*
X250190000Y-68897500D02*
X250190000Y-54927500D01*
X264160000Y-68897500D02*
X250190000Y-68897500D01*
X359410000Y-35877500D02*
X359410000Y-49847500D01*
X345440000Y-35877500D02*
X359410000Y-35877500D01*
X345440000Y-49847500D02*
X345440000Y-35877500D01*
X359410000Y-49847500D02*
X345440000Y-49847500D01*
X340360000Y-35877500D02*
X340360000Y-49847500D01*
X326390000Y-35877500D02*
X340360000Y-35877500D01*
X326390000Y-49847500D02*
X326390000Y-35877500D01*
X340360000Y-49847500D02*
X326390000Y-49847500D01*
X321310000Y-35877500D02*
X321310000Y-49847500D01*
X307340000Y-35877500D02*
X321310000Y-35877500D01*
X307340000Y-49847500D02*
X307340000Y-35877500D01*
X321310000Y-49847500D02*
X307340000Y-49847500D01*
X302260000Y-35877500D02*
X302260000Y-49847500D01*
X288290000Y-35877500D02*
X302260000Y-35877500D01*
X288290000Y-49847500D02*
X288290000Y-35877500D01*
X302260000Y-49847500D02*
X288290000Y-49847500D01*
X283210000Y-35877500D02*
X283210000Y-49847500D01*
X269240000Y-35877500D02*
X283210000Y-35877500D01*
X269240000Y-49847500D02*
X269240000Y-35877500D01*
X283210000Y-49847500D02*
X269240000Y-49847500D01*
X264160000Y-35877500D02*
X264160000Y-49847500D01*
X250190000Y-35877500D02*
X264160000Y-35877500D01*
X250190000Y-49847500D02*
X250190000Y-35877500D01*
X264160000Y-49847500D02*
X250190000Y-49847500D01*
X340360000Y-16827500D02*
X340360000Y-30797500D01*
X326390000Y-16827500D02*
X340360000Y-16827500D01*
X326390000Y-30797500D02*
X326390000Y-16827500D01*
X340360000Y-30797500D02*
X326390000Y-30797500D01*
X321310000Y-16827500D02*
X321310000Y-30797500D01*
X307340000Y-16827500D02*
X321310000Y-16827500D01*
X307340000Y-30797500D02*
X307340000Y-16827500D01*
X321310000Y-30797500D02*
X307340000Y-30797500D01*
X302260000Y-16827500D02*
X302260000Y-30797500D01*
X288290000Y-16827500D02*
X302260000Y-16827500D01*
X288290000Y-30797500D02*
X288290000Y-16827500D01*
X302260000Y-30797500D02*
X288290000Y-30797500D01*
X283210000Y-16827500D02*
X283210000Y-30797500D01*
X269240000Y-16827500D02*
X283210000Y-16827500D01*
X269240000Y-30797500D02*
X269240000Y-16827500D01*
X283210000Y-30797500D02*
X269240000Y-30797500D01*
X264160000Y-16827500D02*
X264160000Y-30797500D01*
X250190000Y-16827500D02*
X264160000Y-16827500D01*
X250190000Y-30797500D02*
X250190000Y-16827500D01*
X264160000Y-30797500D02*
X250190000Y-30797500D01*
M02*
