G04 #@! TF.GenerationSoftware,KiCad,Pcbnew,(5.1.6)-1*
G04 #@! TF.CreationDate,2020-11-25T22:12:28-08:00*
G04 #@! TF.ProjectId,ortho_right,6f727468-6f5f-4726-9967-68742e6b6963,rev?*
G04 #@! TF.SameCoordinates,Original*
G04 #@! TF.FileFunction,Other,Fab,Top*
%FSLAX46Y46*%
G04 Gerber Fmt 4.6, Leading zero omitted, Abs format (unit mm)*
G04 Created by KiCad (PCBNEW (5.1.6)-1) date 2020-11-25 22:12:28*
%MOMM*%
%LPD*%
G01*
G04 APERTURE LIST*
%ADD10C,0.100000*%
%ADD11C,0.150000*%
%ADD12C,0.060000*%
%ADD13C,0.080000*%
G04 APERTURE END LIST*
D10*
X208902400Y-83775600D02*
X210502400Y-83775600D01*
X208902400Y-84575600D02*
X208902400Y-83775600D01*
X210502400Y-84575600D02*
X208902400Y-84575600D01*
X210502400Y-83775600D02*
X210502400Y-84575600D01*
X208902400Y-85274200D02*
X210502400Y-85274200D01*
X208902400Y-86074200D02*
X208902400Y-85274200D01*
X210502400Y-86074200D02*
X208902400Y-86074200D01*
X210502400Y-85274200D02*
X210502400Y-86074200D01*
X208902400Y-82277000D02*
X210502400Y-82277000D01*
X208902400Y-83077000D02*
X208902400Y-82277000D01*
X210502400Y-83077000D02*
X208902400Y-83077000D01*
X210502400Y-82277000D02*
X210502400Y-83077000D01*
X208902400Y-80778400D02*
X210502400Y-80778400D01*
X208902400Y-81578400D02*
X208902400Y-80778400D01*
X210502400Y-81578400D02*
X208902400Y-81578400D01*
X210502400Y-80778400D02*
X210502400Y-81578400D01*
X219903600Y-79797400D02*
X219903600Y-81797400D01*
X218703600Y-79797400D02*
X219903600Y-79797400D01*
X218703600Y-81797400D02*
X218703600Y-79797400D01*
X219903600Y-81797400D02*
X218703600Y-81797400D01*
X218703600Y-85556600D02*
X218703600Y-83556600D01*
X219903600Y-85556600D02*
X218703600Y-85556600D01*
X219903600Y-83556600D02*
X219903600Y-85556600D01*
X218703600Y-83556600D02*
X219903600Y-83556600D01*
X216061800Y-82438800D02*
X214061800Y-82438800D01*
X216061800Y-81238800D02*
X216061800Y-82438800D01*
X214061800Y-81238800D02*
X216061800Y-81238800D01*
X214061800Y-82438800D02*
X214061800Y-81238800D01*
X216061800Y-84445400D02*
X214061800Y-84445400D01*
X216061800Y-83245400D02*
X216061800Y-84445400D01*
X214061800Y-83245400D02*
X216061800Y-83245400D01*
X214061800Y-84445400D02*
X214061800Y-83245400D01*
X216061800Y-80457600D02*
X214061800Y-80457600D01*
X216061800Y-79257600D02*
X216061800Y-80457600D01*
X214061800Y-79257600D02*
X216061800Y-79257600D01*
X214061800Y-80457600D02*
X214061800Y-79257600D01*
X216061800Y-86401200D02*
X214061800Y-86401200D01*
X216061800Y-85201200D02*
X216061800Y-86401200D01*
X214061800Y-85201200D02*
X216061800Y-85201200D01*
X214061800Y-86401200D02*
X214061800Y-85201200D01*
D11*
X211285604Y-104676574D02*
X211237985Y-104724193D01*
X211095128Y-104771812D01*
X210999890Y-104771812D01*
X210857033Y-104724193D01*
X210761795Y-104628955D01*
X210714176Y-104533717D01*
X210666557Y-104343241D01*
X210666557Y-104200384D01*
X210714176Y-104009908D01*
X210761795Y-103914670D01*
X210857033Y-103819432D01*
X210999890Y-103771812D01*
X211095128Y-103771812D01*
X211237985Y-103819432D01*
X211285604Y-103867051D01*
X211857033Y-104771812D02*
X211761795Y-104724193D01*
X211714176Y-104676574D01*
X211666557Y-104581336D01*
X211666557Y-104295622D01*
X211714176Y-104200384D01*
X211761795Y-104152765D01*
X211857033Y-104105146D01*
X211999890Y-104105146D01*
X212095128Y-104152765D01*
X212142747Y-104200384D01*
X212190366Y-104295622D01*
X212190366Y-104581336D01*
X212142747Y-104676574D01*
X212095128Y-104724193D01*
X211999890Y-104771812D01*
X211857033Y-104771812D01*
X212618938Y-104105146D02*
X212618938Y-104771812D01*
X212618938Y-104200384D02*
X212666557Y-104152765D01*
X212761795Y-104105146D01*
X212904652Y-104105146D01*
X212999890Y-104152765D01*
X213047509Y-104248003D01*
X213047509Y-104771812D01*
X213523700Y-104105146D02*
X213523700Y-104771812D01*
X213523700Y-104200384D02*
X213571319Y-104152765D01*
X213666557Y-104105146D01*
X213809414Y-104105146D01*
X213904652Y-104152765D01*
X213952271Y-104248003D01*
X213952271Y-104771812D01*
X214190366Y-104867051D02*
X214952271Y-104867051D01*
X215380842Y-103771812D02*
X215476080Y-103771812D01*
X215571319Y-103819432D01*
X215618938Y-103867051D01*
X215666557Y-103962289D01*
X215714176Y-104152765D01*
X215714176Y-104390860D01*
X215666557Y-104581336D01*
X215618938Y-104676574D01*
X215571319Y-104724193D01*
X215476080Y-104771812D01*
X215380842Y-104771812D01*
X215285604Y-104724193D01*
X215237985Y-104676574D01*
X215190366Y-104581336D01*
X215142747Y-104390860D01*
X215142747Y-104152765D01*
X215190366Y-103962289D01*
X215237985Y-103867051D01*
X215285604Y-103819432D01*
X215380842Y-103771812D01*
X216666557Y-104771812D02*
X216095128Y-104771812D01*
X216380842Y-104771812D02*
X216380842Y-103771812D01*
X216285604Y-103914670D01*
X216190366Y-104009908D01*
X216095128Y-104057527D01*
X216999890Y-104771812D02*
X217523700Y-104105146D01*
X216999890Y-104105146D02*
X217523700Y-104771812D01*
X218095128Y-103771812D02*
X218190366Y-103771812D01*
X218285604Y-103819432D01*
X218333223Y-103867051D01*
X218380842Y-103962289D01*
X218428461Y-104152765D01*
X218428461Y-104390860D01*
X218380842Y-104581336D01*
X218333223Y-104676574D01*
X218285604Y-104724193D01*
X218190366Y-104771812D01*
X218095128Y-104771812D01*
X217999890Y-104724193D01*
X217952271Y-104676574D01*
X217904652Y-104581336D01*
X217857033Y-104390860D01*
X217857033Y-104152765D01*
X217904652Y-103962289D01*
X217952271Y-103867051D01*
X217999890Y-103819432D01*
X218095128Y-103771812D01*
X219380842Y-104771812D02*
X218809414Y-104771812D01*
X219095128Y-104771812D02*
X219095128Y-103771812D01*
X218999890Y-103914670D01*
X218904652Y-104009908D01*
X218809414Y-104057527D01*
X214214176Y-100371812D02*
X214214176Y-101086098D01*
X214166557Y-101228955D01*
X214071319Y-101324193D01*
X213928461Y-101371812D01*
X213833223Y-101371812D01*
X215214176Y-101371812D02*
X214642747Y-101371812D01*
X214928461Y-101371812D02*
X214928461Y-100371812D01*
X214833223Y-100514670D01*
X214737985Y-100609908D01*
X214642747Y-100657527D01*
X215547509Y-100371812D02*
X216166557Y-100371812D01*
X215833223Y-100752765D01*
X215976080Y-100752765D01*
X216071319Y-100800384D01*
X216118938Y-100848003D01*
X216166557Y-100943241D01*
X216166557Y-101181336D01*
X216118938Y-101276574D01*
X216071319Y-101324193D01*
X215976080Y-101371812D01*
X215690366Y-101371812D01*
X215595128Y-101324193D01*
X215547509Y-101276574D01*
X211285604Y-101099408D02*
X211237985Y-101147027D01*
X211095128Y-101194646D01*
X210999890Y-101194646D01*
X210857033Y-101147027D01*
X210761795Y-101051789D01*
X210714176Y-100956551D01*
X210666557Y-100766075D01*
X210666557Y-100623218D01*
X210714176Y-100432742D01*
X210761795Y-100337504D01*
X210857033Y-100242266D01*
X210999890Y-100194646D01*
X211095128Y-100194646D01*
X211237985Y-100242266D01*
X211285604Y-100289885D01*
X211857033Y-101194646D02*
X211761795Y-101147027D01*
X211714176Y-101099408D01*
X211666557Y-101004170D01*
X211666557Y-100718456D01*
X211714176Y-100623218D01*
X211761795Y-100575599D01*
X211857033Y-100527980D01*
X211999890Y-100527980D01*
X212095128Y-100575599D01*
X212142747Y-100623218D01*
X212190366Y-100718456D01*
X212190366Y-101004170D01*
X212142747Y-101099408D01*
X212095128Y-101147027D01*
X211999890Y-101194646D01*
X211857033Y-101194646D01*
X212618938Y-100527980D02*
X212618938Y-101194646D01*
X212618938Y-100623218D02*
X212666557Y-100575599D01*
X212761795Y-100527980D01*
X212904652Y-100527980D01*
X212999890Y-100575599D01*
X213047509Y-100670837D01*
X213047509Y-101194646D01*
X213523700Y-100527980D02*
X213523700Y-101194646D01*
X213523700Y-100623218D02*
X213571319Y-100575599D01*
X213666557Y-100527980D01*
X213809414Y-100527980D01*
X213904652Y-100575599D01*
X213952271Y-100670837D01*
X213952271Y-101194646D01*
X214190366Y-101289885D02*
X214952271Y-101289885D01*
X215380842Y-100194646D02*
X215476080Y-100194646D01*
X215571319Y-100242266D01*
X215618938Y-100289885D01*
X215666557Y-100385123D01*
X215714176Y-100575599D01*
X215714176Y-100813694D01*
X215666557Y-101004170D01*
X215618938Y-101099408D01*
X215571319Y-101147027D01*
X215476080Y-101194646D01*
X215380842Y-101194646D01*
X215285604Y-101147027D01*
X215237985Y-101099408D01*
X215190366Y-101004170D01*
X215142747Y-100813694D01*
X215142747Y-100575599D01*
X215190366Y-100385123D01*
X215237985Y-100289885D01*
X215285604Y-100242266D01*
X215380842Y-100194646D01*
X216666557Y-101194646D02*
X216095128Y-101194646D01*
X216380842Y-101194646D02*
X216380842Y-100194646D01*
X216285604Y-100337504D01*
X216190366Y-100432742D01*
X216095128Y-100480361D01*
X216999890Y-101194646D02*
X217523700Y-100527980D01*
X216999890Y-100527980D02*
X217523700Y-101194646D01*
X218095128Y-100194646D02*
X218190366Y-100194646D01*
X218285604Y-100242266D01*
X218333223Y-100289885D01*
X218380842Y-100385123D01*
X218428461Y-100575599D01*
X218428461Y-100813694D01*
X218380842Y-101004170D01*
X218333223Y-101099408D01*
X218285604Y-101147027D01*
X218190366Y-101194646D01*
X218095128Y-101194646D01*
X217999890Y-101147027D01*
X217952271Y-101099408D01*
X217904652Y-101004170D01*
X217857033Y-100813694D01*
X217857033Y-100575599D01*
X217904652Y-100385123D01*
X217952271Y-100289885D01*
X217999890Y-100242266D01*
X218095128Y-100194646D01*
X219380842Y-101194646D02*
X218809414Y-101194646D01*
X219095128Y-101194646D02*
X219095128Y-100194646D01*
X218999890Y-100337504D01*
X218904652Y-100432742D01*
X218809414Y-100480361D01*
X214214176Y-96794646D02*
X214214176Y-97508932D01*
X214166557Y-97651789D01*
X214071319Y-97747027D01*
X213928461Y-97794646D01*
X213833223Y-97794646D01*
X215214176Y-97794646D02*
X214642747Y-97794646D01*
X214928461Y-97794646D02*
X214928461Y-96794646D01*
X214833223Y-96937504D01*
X214737985Y-97032742D01*
X214642747Y-97080361D01*
X215595128Y-96889885D02*
X215642747Y-96842266D01*
X215737985Y-96794646D01*
X215976080Y-96794646D01*
X216071319Y-96842266D01*
X216118938Y-96889885D01*
X216166557Y-96985123D01*
X216166557Y-97080361D01*
X216118938Y-97223218D01*
X215547509Y-97794646D01*
X216166557Y-97794646D01*
X211285604Y-108253742D02*
X211237985Y-108301361D01*
X211095128Y-108348980D01*
X210999890Y-108348980D01*
X210857033Y-108301361D01*
X210761795Y-108206123D01*
X210714176Y-108110885D01*
X210666557Y-107920409D01*
X210666557Y-107777552D01*
X210714176Y-107587076D01*
X210761795Y-107491838D01*
X210857033Y-107396600D01*
X210999890Y-107348980D01*
X211095128Y-107348980D01*
X211237985Y-107396600D01*
X211285604Y-107444219D01*
X211857033Y-108348980D02*
X211761795Y-108301361D01*
X211714176Y-108253742D01*
X211666557Y-108158504D01*
X211666557Y-107872790D01*
X211714176Y-107777552D01*
X211761795Y-107729933D01*
X211857033Y-107682314D01*
X211999890Y-107682314D01*
X212095128Y-107729933D01*
X212142747Y-107777552D01*
X212190366Y-107872790D01*
X212190366Y-108158504D01*
X212142747Y-108253742D01*
X212095128Y-108301361D01*
X211999890Y-108348980D01*
X211857033Y-108348980D01*
X212618938Y-107682314D02*
X212618938Y-108348980D01*
X212618938Y-107777552D02*
X212666557Y-107729933D01*
X212761795Y-107682314D01*
X212904652Y-107682314D01*
X212999890Y-107729933D01*
X213047509Y-107825171D01*
X213047509Y-108348980D01*
X213523700Y-107682314D02*
X213523700Y-108348980D01*
X213523700Y-107777552D02*
X213571319Y-107729933D01*
X213666557Y-107682314D01*
X213809414Y-107682314D01*
X213904652Y-107729933D01*
X213952271Y-107825171D01*
X213952271Y-108348980D01*
X214190366Y-108444219D02*
X214952271Y-108444219D01*
X215380842Y-107348980D02*
X215476080Y-107348980D01*
X215571319Y-107396600D01*
X215618938Y-107444219D01*
X215666557Y-107539457D01*
X215714176Y-107729933D01*
X215714176Y-107968028D01*
X215666557Y-108158504D01*
X215618938Y-108253742D01*
X215571319Y-108301361D01*
X215476080Y-108348980D01*
X215380842Y-108348980D01*
X215285604Y-108301361D01*
X215237985Y-108253742D01*
X215190366Y-108158504D01*
X215142747Y-107968028D01*
X215142747Y-107729933D01*
X215190366Y-107539457D01*
X215237985Y-107444219D01*
X215285604Y-107396600D01*
X215380842Y-107348980D01*
X216666557Y-108348980D02*
X216095128Y-108348980D01*
X216380842Y-108348980D02*
X216380842Y-107348980D01*
X216285604Y-107491838D01*
X216190366Y-107587076D01*
X216095128Y-107634695D01*
X216999890Y-108348980D02*
X217523700Y-107682314D01*
X216999890Y-107682314D02*
X217523700Y-108348980D01*
X218095128Y-107348980D02*
X218190366Y-107348980D01*
X218285604Y-107396600D01*
X218333223Y-107444219D01*
X218380842Y-107539457D01*
X218428461Y-107729933D01*
X218428461Y-107968028D01*
X218380842Y-108158504D01*
X218333223Y-108253742D01*
X218285604Y-108301361D01*
X218190366Y-108348980D01*
X218095128Y-108348980D01*
X217999890Y-108301361D01*
X217952271Y-108253742D01*
X217904652Y-108158504D01*
X217857033Y-107968028D01*
X217857033Y-107729933D01*
X217904652Y-107539457D01*
X217952271Y-107444219D01*
X217999890Y-107396600D01*
X218095128Y-107348980D01*
X219380842Y-108348980D02*
X218809414Y-108348980D01*
X219095128Y-108348980D02*
X219095128Y-107348980D01*
X218999890Y-107491838D01*
X218904652Y-107587076D01*
X218809414Y-107634695D01*
X214214176Y-103948980D02*
X214214176Y-104663266D01*
X214166557Y-104806123D01*
X214071319Y-104901361D01*
X213928461Y-104948980D01*
X213833223Y-104948980D01*
X215214176Y-104948980D02*
X214642747Y-104948980D01*
X214928461Y-104948980D02*
X214928461Y-103948980D01*
X214833223Y-104091838D01*
X214737985Y-104187076D01*
X214642747Y-104234695D01*
X216166557Y-104948980D02*
X215595128Y-104948980D01*
X215880842Y-104948980D02*
X215880842Y-103948980D01*
X215785604Y-104091838D01*
X215690366Y-104187076D01*
X215595128Y-104234695D01*
X211285604Y-97522242D02*
X211237985Y-97569861D01*
X211095128Y-97617480D01*
X210999890Y-97617480D01*
X210857033Y-97569861D01*
X210761795Y-97474623D01*
X210714176Y-97379385D01*
X210666557Y-97188909D01*
X210666557Y-97046052D01*
X210714176Y-96855576D01*
X210761795Y-96760338D01*
X210857033Y-96665100D01*
X210999890Y-96617480D01*
X211095128Y-96617480D01*
X211237985Y-96665100D01*
X211285604Y-96712719D01*
X211857033Y-97617480D02*
X211761795Y-97569861D01*
X211714176Y-97522242D01*
X211666557Y-97427004D01*
X211666557Y-97141290D01*
X211714176Y-97046052D01*
X211761795Y-96998433D01*
X211857033Y-96950814D01*
X211999890Y-96950814D01*
X212095128Y-96998433D01*
X212142747Y-97046052D01*
X212190366Y-97141290D01*
X212190366Y-97427004D01*
X212142747Y-97522242D01*
X212095128Y-97569861D01*
X211999890Y-97617480D01*
X211857033Y-97617480D01*
X212618938Y-96950814D02*
X212618938Y-97617480D01*
X212618938Y-97046052D02*
X212666557Y-96998433D01*
X212761795Y-96950814D01*
X212904652Y-96950814D01*
X212999890Y-96998433D01*
X213047509Y-97093671D01*
X213047509Y-97617480D01*
X213523700Y-96950814D02*
X213523700Y-97617480D01*
X213523700Y-97046052D02*
X213571319Y-96998433D01*
X213666557Y-96950814D01*
X213809414Y-96950814D01*
X213904652Y-96998433D01*
X213952271Y-97093671D01*
X213952271Y-97617480D01*
X214190366Y-97712719D02*
X214952271Y-97712719D01*
X215380842Y-96617480D02*
X215476080Y-96617480D01*
X215571319Y-96665100D01*
X215618938Y-96712719D01*
X215666557Y-96807957D01*
X215714176Y-96998433D01*
X215714176Y-97236528D01*
X215666557Y-97427004D01*
X215618938Y-97522242D01*
X215571319Y-97569861D01*
X215476080Y-97617480D01*
X215380842Y-97617480D01*
X215285604Y-97569861D01*
X215237985Y-97522242D01*
X215190366Y-97427004D01*
X215142747Y-97236528D01*
X215142747Y-96998433D01*
X215190366Y-96807957D01*
X215237985Y-96712719D01*
X215285604Y-96665100D01*
X215380842Y-96617480D01*
X216666557Y-97617480D02*
X216095128Y-97617480D01*
X216380842Y-97617480D02*
X216380842Y-96617480D01*
X216285604Y-96760338D01*
X216190366Y-96855576D01*
X216095128Y-96903195D01*
X216999890Y-97617480D02*
X217523700Y-96950814D01*
X216999890Y-96950814D02*
X217523700Y-97617480D01*
X218095128Y-96617480D02*
X218190366Y-96617480D01*
X218285604Y-96665100D01*
X218333223Y-96712719D01*
X218380842Y-96807957D01*
X218428461Y-96998433D01*
X218428461Y-97236528D01*
X218380842Y-97427004D01*
X218333223Y-97522242D01*
X218285604Y-97569861D01*
X218190366Y-97617480D01*
X218095128Y-97617480D01*
X217999890Y-97569861D01*
X217952271Y-97522242D01*
X217904652Y-97427004D01*
X217857033Y-97236528D01*
X217857033Y-96998433D01*
X217904652Y-96807957D01*
X217952271Y-96712719D01*
X217999890Y-96665100D01*
X218095128Y-96617480D01*
X219380842Y-97617480D02*
X218809414Y-97617480D01*
X219095128Y-97617480D02*
X219095128Y-96617480D01*
X218999890Y-96760338D01*
X218904652Y-96855576D01*
X218809414Y-96903195D01*
X214214176Y-93217480D02*
X214214176Y-93931766D01*
X214166557Y-94074623D01*
X214071319Y-94169861D01*
X213928461Y-94217480D01*
X213833223Y-94217480D01*
X215214176Y-94217480D02*
X214642747Y-94217480D01*
X214928461Y-94217480D02*
X214928461Y-93217480D01*
X214833223Y-93360338D01*
X214737985Y-93455576D01*
X214642747Y-93503195D01*
X215833223Y-93217480D02*
X215928461Y-93217480D01*
X216023700Y-93265100D01*
X216071319Y-93312719D01*
X216118938Y-93407957D01*
X216166557Y-93598433D01*
X216166557Y-93836528D01*
X216118938Y-94027004D01*
X216071319Y-94122242D01*
X216023700Y-94169861D01*
X215928461Y-94217480D01*
X215833223Y-94217480D01*
X215737985Y-94169861D01*
X215690366Y-94122242D01*
X215642747Y-94027004D01*
X215595128Y-93836528D01*
X215595128Y-93598433D01*
X215642747Y-93407957D01*
X215690366Y-93312719D01*
X215737985Y-93265100D01*
X215833223Y-93217480D01*
X209130971Y-83197980D02*
X208797638Y-82721790D01*
X208559542Y-83197980D02*
X208559542Y-82197980D01*
X208940495Y-82197980D01*
X209035733Y-82245600D01*
X209083352Y-82293219D01*
X209130971Y-82388457D01*
X209130971Y-82531314D01*
X209083352Y-82626552D01*
X209035733Y-82674171D01*
X208940495Y-82721790D01*
X208559542Y-82721790D01*
X210083352Y-83197980D02*
X209511923Y-83197980D01*
X209797638Y-83197980D02*
X209797638Y-82197980D01*
X209702400Y-82340838D01*
X209607161Y-82436076D01*
X209511923Y-82483695D01*
X210511923Y-83197980D02*
X210511923Y-82197980D01*
X210607161Y-82817028D02*
X210892876Y-83197980D01*
X210892876Y-82531314D02*
X210511923Y-82912266D01*
D12*
X209635733Y-84356552D02*
X209502400Y-84166076D01*
X209407161Y-84356552D02*
X209407161Y-83956552D01*
X209559542Y-83956552D01*
X209597638Y-83975600D01*
X209616685Y-83994647D01*
X209635733Y-84032742D01*
X209635733Y-84089885D01*
X209616685Y-84127980D01*
X209597638Y-84147028D01*
X209559542Y-84166076D01*
X209407161Y-84166076D01*
X209997638Y-83956552D02*
X209807161Y-83956552D01*
X209788114Y-84147028D01*
X209807161Y-84127980D01*
X209845257Y-84108933D01*
X209940495Y-84108933D01*
X209978590Y-84127980D01*
X209997638Y-84147028D01*
X210016685Y-84185123D01*
X210016685Y-84280361D01*
X209997638Y-84318457D01*
X209978590Y-84337504D01*
X209940495Y-84356552D01*
X209845257Y-84356552D01*
X209807161Y-84337504D01*
X209788114Y-84318457D01*
D11*
X209130971Y-84696580D02*
X208797638Y-84220390D01*
X208559542Y-84696580D02*
X208559542Y-83696580D01*
X208940495Y-83696580D01*
X209035733Y-83744200D01*
X209083352Y-83791819D01*
X209130971Y-83887057D01*
X209130971Y-84029914D01*
X209083352Y-84125152D01*
X209035733Y-84172771D01*
X208940495Y-84220390D01*
X208559542Y-84220390D01*
X210083352Y-84696580D02*
X209511923Y-84696580D01*
X209797638Y-84696580D02*
X209797638Y-83696580D01*
X209702400Y-83839438D01*
X209607161Y-83934676D01*
X209511923Y-83982295D01*
X210511923Y-84696580D02*
X210511923Y-83696580D01*
X210607161Y-84315628D02*
X210892876Y-84696580D01*
X210892876Y-84029914D02*
X210511923Y-84410866D01*
D12*
X209635733Y-85855152D02*
X209502400Y-85664676D01*
X209407161Y-85855152D02*
X209407161Y-85455152D01*
X209559542Y-85455152D01*
X209597638Y-85474200D01*
X209616685Y-85493247D01*
X209635733Y-85531342D01*
X209635733Y-85588485D01*
X209616685Y-85626580D01*
X209597638Y-85645628D01*
X209559542Y-85664676D01*
X209407161Y-85664676D01*
X209769066Y-85455152D02*
X210016685Y-85455152D01*
X209883352Y-85607533D01*
X209940495Y-85607533D01*
X209978590Y-85626580D01*
X209997638Y-85645628D01*
X210016685Y-85683723D01*
X210016685Y-85778961D01*
X209997638Y-85817057D01*
X209978590Y-85836104D01*
X209940495Y-85855152D01*
X209826209Y-85855152D01*
X209788114Y-85836104D01*
X209769066Y-85817057D01*
D11*
X208178590Y-81699380D02*
X207845257Y-81223190D01*
X207607161Y-81699380D02*
X207607161Y-80699380D01*
X207988114Y-80699380D01*
X208083352Y-80747000D01*
X208130971Y-80794619D01*
X208178590Y-80889857D01*
X208178590Y-81032714D01*
X208130971Y-81127952D01*
X208083352Y-81175571D01*
X207988114Y-81223190D01*
X207607161Y-81223190D01*
X209130971Y-81699380D02*
X208559542Y-81699380D01*
X208845257Y-81699380D02*
X208845257Y-80699380D01*
X208750019Y-80842238D01*
X208654780Y-80937476D01*
X208559542Y-80985095D01*
X209750019Y-80699380D02*
X209845257Y-80699380D01*
X209940495Y-80747000D01*
X209988114Y-80794619D01*
X210035733Y-80889857D01*
X210083352Y-81080333D01*
X210083352Y-81318428D01*
X210035733Y-81508904D01*
X209988114Y-81604142D01*
X209940495Y-81651761D01*
X209845257Y-81699380D01*
X209750019Y-81699380D01*
X209654780Y-81651761D01*
X209607161Y-81604142D01*
X209559542Y-81508904D01*
X209511923Y-81318428D01*
X209511923Y-81080333D01*
X209559542Y-80889857D01*
X209607161Y-80794619D01*
X209654780Y-80747000D01*
X209750019Y-80699380D01*
X210702400Y-80699380D02*
X210797638Y-80699380D01*
X210892876Y-80747000D01*
X210940495Y-80794619D01*
X210988114Y-80889857D01*
X211035733Y-81080333D01*
X211035733Y-81318428D01*
X210988114Y-81508904D01*
X210940495Y-81604142D01*
X210892876Y-81651761D01*
X210797638Y-81699380D01*
X210702400Y-81699380D01*
X210607161Y-81651761D01*
X210559542Y-81604142D01*
X210511923Y-81508904D01*
X210464304Y-81318428D01*
X210464304Y-81080333D01*
X210511923Y-80889857D01*
X210559542Y-80794619D01*
X210607161Y-80747000D01*
X210702400Y-80699380D01*
X211464304Y-81699380D02*
X211464304Y-80699380D01*
X211559542Y-81318428D02*
X211845257Y-81699380D01*
X211845257Y-81032714D02*
X211464304Y-81413666D01*
D12*
X209635733Y-82857952D02*
X209502400Y-82667476D01*
X209407161Y-82857952D02*
X209407161Y-82457952D01*
X209559542Y-82457952D01*
X209597638Y-82477000D01*
X209616685Y-82496047D01*
X209635733Y-82534142D01*
X209635733Y-82591285D01*
X209616685Y-82629380D01*
X209597638Y-82648428D01*
X209559542Y-82667476D01*
X209407161Y-82667476D01*
X209788114Y-82496047D02*
X209807161Y-82477000D01*
X209845257Y-82457952D01*
X209940495Y-82457952D01*
X209978590Y-82477000D01*
X209997638Y-82496047D01*
X210016685Y-82534142D01*
X210016685Y-82572238D01*
X209997638Y-82629380D01*
X209769066Y-82857952D01*
X210016685Y-82857952D01*
D11*
X208178590Y-80200780D02*
X207845257Y-79724590D01*
X207607161Y-80200780D02*
X207607161Y-79200780D01*
X207988114Y-79200780D01*
X208083352Y-79248400D01*
X208130971Y-79296019D01*
X208178590Y-79391257D01*
X208178590Y-79534114D01*
X208130971Y-79629352D01*
X208083352Y-79676971D01*
X207988114Y-79724590D01*
X207607161Y-79724590D01*
X209130971Y-80200780D02*
X208559542Y-80200780D01*
X208845257Y-80200780D02*
X208845257Y-79200780D01*
X208750019Y-79343638D01*
X208654780Y-79438876D01*
X208559542Y-79486495D01*
X209750019Y-79200780D02*
X209845257Y-79200780D01*
X209940495Y-79248400D01*
X209988114Y-79296019D01*
X210035733Y-79391257D01*
X210083352Y-79581733D01*
X210083352Y-79819828D01*
X210035733Y-80010304D01*
X209988114Y-80105542D01*
X209940495Y-80153161D01*
X209845257Y-80200780D01*
X209750019Y-80200780D01*
X209654780Y-80153161D01*
X209607161Y-80105542D01*
X209559542Y-80010304D01*
X209511923Y-79819828D01*
X209511923Y-79581733D01*
X209559542Y-79391257D01*
X209607161Y-79296019D01*
X209654780Y-79248400D01*
X209750019Y-79200780D01*
X210702400Y-79200780D02*
X210797638Y-79200780D01*
X210892876Y-79248400D01*
X210940495Y-79296019D01*
X210988114Y-79391257D01*
X211035733Y-79581733D01*
X211035733Y-79819828D01*
X210988114Y-80010304D01*
X210940495Y-80105542D01*
X210892876Y-80153161D01*
X210797638Y-80200780D01*
X210702400Y-80200780D01*
X210607161Y-80153161D01*
X210559542Y-80105542D01*
X210511923Y-80010304D01*
X210464304Y-79819828D01*
X210464304Y-79581733D01*
X210511923Y-79391257D01*
X210559542Y-79296019D01*
X210607161Y-79248400D01*
X210702400Y-79200780D01*
X211464304Y-80200780D02*
X211464304Y-79200780D01*
X211559542Y-79819828D02*
X211845257Y-80200780D01*
X211845257Y-79534114D02*
X211464304Y-79915066D01*
D12*
X209635733Y-81359352D02*
X209502400Y-81168876D01*
X209407161Y-81359352D02*
X209407161Y-80959352D01*
X209559542Y-80959352D01*
X209597638Y-80978400D01*
X209616685Y-80997447D01*
X209635733Y-81035542D01*
X209635733Y-81092685D01*
X209616685Y-81130780D01*
X209597638Y-81149828D01*
X209559542Y-81168876D01*
X209407161Y-81168876D01*
X210016685Y-81359352D02*
X209788114Y-81359352D01*
X209902400Y-81359352D02*
X209902400Y-80959352D01*
X209864304Y-81016495D01*
X209826209Y-81054590D01*
X209788114Y-81073638D01*
D11*
X220596457Y-80606923D02*
X220548838Y-80559304D01*
X220501219Y-80416447D01*
X220501219Y-80321209D01*
X220548838Y-80178352D01*
X220644076Y-80083114D01*
X220739314Y-80035495D01*
X220929790Y-79987876D01*
X221072647Y-79987876D01*
X221263123Y-80035495D01*
X221358361Y-80083114D01*
X221453600Y-80178352D01*
X221501219Y-80321209D01*
X221501219Y-80416447D01*
X221453600Y-80559304D01*
X221405980Y-80606923D01*
X220501219Y-81035495D02*
X221501219Y-81035495D01*
X221501219Y-81416447D01*
X221453600Y-81511685D01*
X221405980Y-81559304D01*
X221310742Y-81606923D01*
X221167885Y-81606923D01*
X221072647Y-81559304D01*
X221025028Y-81511685D01*
X220977409Y-81416447D01*
X220977409Y-81035495D01*
D13*
X219125028Y-80714066D02*
X219101219Y-80690257D01*
X219077409Y-80618828D01*
X219077409Y-80571209D01*
X219101219Y-80499780D01*
X219148838Y-80452161D01*
X219196457Y-80428352D01*
X219291695Y-80404542D01*
X219363123Y-80404542D01*
X219458361Y-80428352D01*
X219505980Y-80452161D01*
X219553600Y-80499780D01*
X219577409Y-80571209D01*
X219577409Y-80618828D01*
X219553600Y-80690257D01*
X219529790Y-80714066D01*
X219577409Y-81142638D02*
X219577409Y-81047400D01*
X219553600Y-80999780D01*
X219529790Y-80975971D01*
X219458361Y-80928352D01*
X219363123Y-80904542D01*
X219172647Y-80904542D01*
X219125028Y-80928352D01*
X219101219Y-80952161D01*
X219077409Y-80999780D01*
X219077409Y-81095019D01*
X219101219Y-81142638D01*
X219125028Y-81166447D01*
X219172647Y-81190257D01*
X219291695Y-81190257D01*
X219339314Y-81166447D01*
X219363123Y-81142638D01*
X219386933Y-81095019D01*
X219386933Y-80999780D01*
X219363123Y-80952161D01*
X219339314Y-80928352D01*
X219291695Y-80904542D01*
D11*
X218010742Y-84747076D02*
X218058361Y-84794695D01*
X218105980Y-84937552D01*
X218105980Y-85032790D01*
X218058361Y-85175647D01*
X217963123Y-85270885D01*
X217867885Y-85318504D01*
X217677409Y-85366123D01*
X217534552Y-85366123D01*
X217344076Y-85318504D01*
X217248838Y-85270885D01*
X217153600Y-85175647D01*
X217105980Y-85032790D01*
X217105980Y-84937552D01*
X217153600Y-84794695D01*
X217201219Y-84747076D01*
X218105980Y-84318504D02*
X217105980Y-84318504D01*
X217105980Y-83937552D01*
X217153600Y-83842314D01*
X217201219Y-83794695D01*
X217296457Y-83747076D01*
X217439314Y-83747076D01*
X217534552Y-83794695D01*
X217582171Y-83842314D01*
X217629790Y-83937552D01*
X217629790Y-84318504D01*
D13*
X219482171Y-84639933D02*
X219505980Y-84663742D01*
X219529790Y-84735171D01*
X219529790Y-84782790D01*
X219505980Y-84854219D01*
X219458361Y-84901838D01*
X219410742Y-84925647D01*
X219315504Y-84949457D01*
X219244076Y-84949457D01*
X219148838Y-84925647D01*
X219101219Y-84901838D01*
X219053600Y-84854219D01*
X219029790Y-84782790D01*
X219029790Y-84735171D01*
X219053600Y-84663742D01*
X219077409Y-84639933D01*
X219029790Y-84187552D02*
X219029790Y-84425647D01*
X219267885Y-84449457D01*
X219244076Y-84425647D01*
X219220266Y-84378028D01*
X219220266Y-84258980D01*
X219244076Y-84211361D01*
X219267885Y-84187552D01*
X219315504Y-84163742D01*
X219434552Y-84163742D01*
X219482171Y-84187552D01*
X219505980Y-84211361D01*
X219529790Y-84258980D01*
X219529790Y-84378028D01*
X219505980Y-84425647D01*
X219482171Y-84449457D01*
D11*
X214871323Y-83845942D02*
X214823704Y-83893561D01*
X214680847Y-83941180D01*
X214585609Y-83941180D01*
X214442752Y-83893561D01*
X214347514Y-83798323D01*
X214299895Y-83703085D01*
X214252276Y-83512609D01*
X214252276Y-83369752D01*
X214299895Y-83179276D01*
X214347514Y-83084038D01*
X214442752Y-82988800D01*
X214585609Y-82941180D01*
X214680847Y-82941180D01*
X214823704Y-82988800D01*
X214871323Y-83036419D01*
X215299895Y-83941180D02*
X215299895Y-82941180D01*
X215680847Y-82941180D01*
X215776085Y-82988800D01*
X215823704Y-83036419D01*
X215871323Y-83131657D01*
X215871323Y-83274514D01*
X215823704Y-83369752D01*
X215776085Y-83417371D01*
X215680847Y-83464990D01*
X215299895Y-83464990D01*
D13*
X214978466Y-82017371D02*
X214954657Y-82041180D01*
X214883228Y-82064990D01*
X214835609Y-82064990D01*
X214764180Y-82041180D01*
X214716561Y-81993561D01*
X214692752Y-81945942D01*
X214668942Y-81850704D01*
X214668942Y-81779276D01*
X214692752Y-81684038D01*
X214716561Y-81636419D01*
X214764180Y-81588800D01*
X214835609Y-81564990D01*
X214883228Y-81564990D01*
X214954657Y-81588800D01*
X214978466Y-81612609D01*
X215407038Y-81731657D02*
X215407038Y-82064990D01*
X215287990Y-81541180D02*
X215168942Y-81898323D01*
X215478466Y-81898323D01*
D11*
X214871323Y-85852542D02*
X214823704Y-85900161D01*
X214680847Y-85947780D01*
X214585609Y-85947780D01*
X214442752Y-85900161D01*
X214347514Y-85804923D01*
X214299895Y-85709685D01*
X214252276Y-85519209D01*
X214252276Y-85376352D01*
X214299895Y-85185876D01*
X214347514Y-85090638D01*
X214442752Y-84995400D01*
X214585609Y-84947780D01*
X214680847Y-84947780D01*
X214823704Y-84995400D01*
X214871323Y-85043019D01*
X215299895Y-85947780D02*
X215299895Y-84947780D01*
X215680847Y-84947780D01*
X215776085Y-84995400D01*
X215823704Y-85043019D01*
X215871323Y-85138257D01*
X215871323Y-85281114D01*
X215823704Y-85376352D01*
X215776085Y-85423971D01*
X215680847Y-85471590D01*
X215299895Y-85471590D01*
D13*
X214978466Y-84023971D02*
X214954657Y-84047780D01*
X214883228Y-84071590D01*
X214835609Y-84071590D01*
X214764180Y-84047780D01*
X214716561Y-84000161D01*
X214692752Y-83952542D01*
X214668942Y-83857304D01*
X214668942Y-83785876D01*
X214692752Y-83690638D01*
X214716561Y-83643019D01*
X214764180Y-83595400D01*
X214835609Y-83571590D01*
X214883228Y-83571590D01*
X214954657Y-83595400D01*
X214978466Y-83619209D01*
X215145133Y-83571590D02*
X215454657Y-83571590D01*
X215287990Y-83762066D01*
X215359419Y-83762066D01*
X215407038Y-83785876D01*
X215430847Y-83809685D01*
X215454657Y-83857304D01*
X215454657Y-83976352D01*
X215430847Y-84023971D01*
X215407038Y-84047780D01*
X215359419Y-84071590D01*
X215216561Y-84071590D01*
X215168942Y-84047780D01*
X215145133Y-84023971D01*
D11*
X214871323Y-81864742D02*
X214823704Y-81912361D01*
X214680847Y-81959980D01*
X214585609Y-81959980D01*
X214442752Y-81912361D01*
X214347514Y-81817123D01*
X214299895Y-81721885D01*
X214252276Y-81531409D01*
X214252276Y-81388552D01*
X214299895Y-81198076D01*
X214347514Y-81102838D01*
X214442752Y-81007600D01*
X214585609Y-80959980D01*
X214680847Y-80959980D01*
X214823704Y-81007600D01*
X214871323Y-81055219D01*
X215299895Y-81959980D02*
X215299895Y-80959980D01*
X215680847Y-80959980D01*
X215776085Y-81007600D01*
X215823704Y-81055219D01*
X215871323Y-81150457D01*
X215871323Y-81293314D01*
X215823704Y-81388552D01*
X215776085Y-81436171D01*
X215680847Y-81483790D01*
X215299895Y-81483790D01*
D13*
X214978466Y-80036171D02*
X214954657Y-80059980D01*
X214883228Y-80083790D01*
X214835609Y-80083790D01*
X214764180Y-80059980D01*
X214716561Y-80012361D01*
X214692752Y-79964742D01*
X214668942Y-79869504D01*
X214668942Y-79798076D01*
X214692752Y-79702838D01*
X214716561Y-79655219D01*
X214764180Y-79607600D01*
X214835609Y-79583790D01*
X214883228Y-79583790D01*
X214954657Y-79607600D01*
X214978466Y-79631409D01*
X215168942Y-79631409D02*
X215192752Y-79607600D01*
X215240371Y-79583790D01*
X215359419Y-79583790D01*
X215407038Y-79607600D01*
X215430847Y-79631409D01*
X215454657Y-79679028D01*
X215454657Y-79726647D01*
X215430847Y-79798076D01*
X215145133Y-80083790D01*
X215454657Y-80083790D01*
D11*
X214871323Y-87808342D02*
X214823704Y-87855961D01*
X214680847Y-87903580D01*
X214585609Y-87903580D01*
X214442752Y-87855961D01*
X214347514Y-87760723D01*
X214299895Y-87665485D01*
X214252276Y-87475009D01*
X214252276Y-87332152D01*
X214299895Y-87141676D01*
X214347514Y-87046438D01*
X214442752Y-86951200D01*
X214585609Y-86903580D01*
X214680847Y-86903580D01*
X214823704Y-86951200D01*
X214871323Y-86998819D01*
X215299895Y-87903580D02*
X215299895Y-86903580D01*
X215680847Y-86903580D01*
X215776085Y-86951200D01*
X215823704Y-86998819D01*
X215871323Y-87094057D01*
X215871323Y-87236914D01*
X215823704Y-87332152D01*
X215776085Y-87379771D01*
X215680847Y-87427390D01*
X215299895Y-87427390D01*
D13*
X214978466Y-85979771D02*
X214954657Y-86003580D01*
X214883228Y-86027390D01*
X214835609Y-86027390D01*
X214764180Y-86003580D01*
X214716561Y-85955961D01*
X214692752Y-85908342D01*
X214668942Y-85813104D01*
X214668942Y-85741676D01*
X214692752Y-85646438D01*
X214716561Y-85598819D01*
X214764180Y-85551200D01*
X214835609Y-85527390D01*
X214883228Y-85527390D01*
X214954657Y-85551200D01*
X214978466Y-85575009D01*
X215454657Y-86027390D02*
X215168942Y-86027390D01*
X215311800Y-86027390D02*
X215311800Y-85527390D01*
X215264180Y-85598819D01*
X215216561Y-85646438D01*
X215168942Y-85670247D01*
D11*
X201083904Y-63957142D02*
X201036285Y-64004761D01*
X200893428Y-64052380D01*
X200798190Y-64052380D01*
X200655333Y-64004761D01*
X200560095Y-63909523D01*
X200512476Y-63814285D01*
X200464857Y-63623809D01*
X200464857Y-63480952D01*
X200512476Y-63290476D01*
X200560095Y-63195238D01*
X200655333Y-63100000D01*
X200798190Y-63052380D01*
X200893428Y-63052380D01*
X201036285Y-63100000D01*
X201083904Y-63147619D01*
X201655333Y-64052380D02*
X201560095Y-64004761D01*
X201512476Y-63957142D01*
X201464857Y-63861904D01*
X201464857Y-63576190D01*
X201512476Y-63480952D01*
X201560095Y-63433333D01*
X201655333Y-63385714D01*
X201798190Y-63385714D01*
X201893428Y-63433333D01*
X201941047Y-63480952D01*
X201988666Y-63576190D01*
X201988666Y-63861904D01*
X201941047Y-63957142D01*
X201893428Y-64004761D01*
X201798190Y-64052380D01*
X201655333Y-64052380D01*
X202417238Y-63385714D02*
X202417238Y-64052380D01*
X202417238Y-63480952D02*
X202464857Y-63433333D01*
X202560095Y-63385714D01*
X202702952Y-63385714D01*
X202798190Y-63433333D01*
X202845809Y-63528571D01*
X202845809Y-64052380D01*
X203322000Y-63385714D02*
X203322000Y-64052380D01*
X203322000Y-63480952D02*
X203369619Y-63433333D01*
X203464857Y-63385714D01*
X203607714Y-63385714D01*
X203702952Y-63433333D01*
X203750571Y-63528571D01*
X203750571Y-64052380D01*
X203988666Y-64147619D02*
X204750571Y-64147619D01*
X205179142Y-63052380D02*
X205274380Y-63052380D01*
X205369619Y-63100000D01*
X205417238Y-63147619D01*
X205464857Y-63242857D01*
X205512476Y-63433333D01*
X205512476Y-63671428D01*
X205464857Y-63861904D01*
X205417238Y-63957142D01*
X205369619Y-64004761D01*
X205274380Y-64052380D01*
X205179142Y-64052380D01*
X205083904Y-64004761D01*
X205036285Y-63957142D01*
X204988666Y-63861904D01*
X204941047Y-63671428D01*
X204941047Y-63433333D01*
X204988666Y-63242857D01*
X205036285Y-63147619D01*
X205083904Y-63100000D01*
X205179142Y-63052380D01*
X206464857Y-64052380D02*
X205893428Y-64052380D01*
X206179142Y-64052380D02*
X206179142Y-63052380D01*
X206083904Y-63195238D01*
X205988666Y-63290476D01*
X205893428Y-63338095D01*
X206798190Y-64052380D02*
X207322000Y-63385714D01*
X206798190Y-63385714D02*
X207322000Y-64052380D01*
X207893428Y-63052380D02*
X207988666Y-63052380D01*
X208083904Y-63100000D01*
X208131523Y-63147619D01*
X208179142Y-63242857D01*
X208226761Y-63433333D01*
X208226761Y-63671428D01*
X208179142Y-63861904D01*
X208131523Y-63957142D01*
X208083904Y-64004761D01*
X207988666Y-64052380D01*
X207893428Y-64052380D01*
X207798190Y-64004761D01*
X207750571Y-63957142D01*
X207702952Y-63861904D01*
X207655333Y-63671428D01*
X207655333Y-63433333D01*
X207702952Y-63242857D01*
X207750571Y-63147619D01*
X207798190Y-63100000D01*
X207893428Y-63052380D01*
X209179142Y-64052380D02*
X208607714Y-64052380D01*
X208893428Y-64052380D02*
X208893428Y-63052380D01*
X208798190Y-63195238D01*
X208702952Y-63290476D01*
X208607714Y-63338095D01*
X221474904Y-63957142D02*
X221427285Y-64004761D01*
X221284428Y-64052380D01*
X221189190Y-64052380D01*
X221046333Y-64004761D01*
X220951095Y-63909523D01*
X220903476Y-63814285D01*
X220855857Y-63623809D01*
X220855857Y-63480952D01*
X220903476Y-63290476D01*
X220951095Y-63195238D01*
X221046333Y-63100000D01*
X221189190Y-63052380D01*
X221284428Y-63052380D01*
X221427285Y-63100000D01*
X221474904Y-63147619D01*
X222046333Y-64052380D02*
X221951095Y-64004761D01*
X221903476Y-63957142D01*
X221855857Y-63861904D01*
X221855857Y-63576190D01*
X221903476Y-63480952D01*
X221951095Y-63433333D01*
X222046333Y-63385714D01*
X222189190Y-63385714D01*
X222284428Y-63433333D01*
X222332047Y-63480952D01*
X222379666Y-63576190D01*
X222379666Y-63861904D01*
X222332047Y-63957142D01*
X222284428Y-64004761D01*
X222189190Y-64052380D01*
X222046333Y-64052380D01*
X222808238Y-63385714D02*
X222808238Y-64052380D01*
X222808238Y-63480952D02*
X222855857Y-63433333D01*
X222951095Y-63385714D01*
X223093952Y-63385714D01*
X223189190Y-63433333D01*
X223236809Y-63528571D01*
X223236809Y-64052380D01*
X223713000Y-63385714D02*
X223713000Y-64052380D01*
X223713000Y-63480952D02*
X223760619Y-63433333D01*
X223855857Y-63385714D01*
X223998714Y-63385714D01*
X224093952Y-63433333D01*
X224141571Y-63528571D01*
X224141571Y-64052380D01*
X224379666Y-64147619D02*
X225141571Y-64147619D01*
X225570142Y-63052380D02*
X225665380Y-63052380D01*
X225760619Y-63100000D01*
X225808238Y-63147619D01*
X225855857Y-63242857D01*
X225903476Y-63433333D01*
X225903476Y-63671428D01*
X225855857Y-63861904D01*
X225808238Y-63957142D01*
X225760619Y-64004761D01*
X225665380Y-64052380D01*
X225570142Y-64052380D01*
X225474904Y-64004761D01*
X225427285Y-63957142D01*
X225379666Y-63861904D01*
X225332047Y-63671428D01*
X225332047Y-63433333D01*
X225379666Y-63242857D01*
X225427285Y-63147619D01*
X225474904Y-63100000D01*
X225570142Y-63052380D01*
X226855857Y-64052380D02*
X226284428Y-64052380D01*
X226570142Y-64052380D02*
X226570142Y-63052380D01*
X226474904Y-63195238D01*
X226379666Y-63290476D01*
X226284428Y-63338095D01*
X227189190Y-64052380D02*
X227713000Y-63385714D01*
X227189190Y-63385714D02*
X227713000Y-64052380D01*
X228284428Y-63052380D02*
X228379666Y-63052380D01*
X228474904Y-63100000D01*
X228522523Y-63147619D01*
X228570142Y-63242857D01*
X228617761Y-63433333D01*
X228617761Y-63671428D01*
X228570142Y-63861904D01*
X228522523Y-63957142D01*
X228474904Y-64004761D01*
X228379666Y-64052380D01*
X228284428Y-64052380D01*
X228189190Y-64004761D01*
X228141571Y-63957142D01*
X228093952Y-63861904D01*
X228046333Y-63671428D01*
X228046333Y-63433333D01*
X228093952Y-63242857D01*
X228141571Y-63147619D01*
X228189190Y-63100000D01*
X228284428Y-63052380D01*
X229570142Y-64052380D02*
X228998714Y-64052380D01*
X229284428Y-64052380D02*
X229284428Y-63052380D01*
X229189190Y-63195238D01*
X229093952Y-63290476D01*
X228998714Y-63338095D01*
X201083904Y-116291142D02*
X201036285Y-116338761D01*
X200893428Y-116386380D01*
X200798190Y-116386380D01*
X200655333Y-116338761D01*
X200560095Y-116243523D01*
X200512476Y-116148285D01*
X200464857Y-115957809D01*
X200464857Y-115814952D01*
X200512476Y-115624476D01*
X200560095Y-115529238D01*
X200655333Y-115434000D01*
X200798190Y-115386380D01*
X200893428Y-115386380D01*
X201036285Y-115434000D01*
X201083904Y-115481619D01*
X201655333Y-116386380D02*
X201560095Y-116338761D01*
X201512476Y-116291142D01*
X201464857Y-116195904D01*
X201464857Y-115910190D01*
X201512476Y-115814952D01*
X201560095Y-115767333D01*
X201655333Y-115719714D01*
X201798190Y-115719714D01*
X201893428Y-115767333D01*
X201941047Y-115814952D01*
X201988666Y-115910190D01*
X201988666Y-116195904D01*
X201941047Y-116291142D01*
X201893428Y-116338761D01*
X201798190Y-116386380D01*
X201655333Y-116386380D01*
X202417238Y-115719714D02*
X202417238Y-116386380D01*
X202417238Y-115814952D02*
X202464857Y-115767333D01*
X202560095Y-115719714D01*
X202702952Y-115719714D01*
X202798190Y-115767333D01*
X202845809Y-115862571D01*
X202845809Y-116386380D01*
X203322000Y-115719714D02*
X203322000Y-116386380D01*
X203322000Y-115814952D02*
X203369619Y-115767333D01*
X203464857Y-115719714D01*
X203607714Y-115719714D01*
X203702952Y-115767333D01*
X203750571Y-115862571D01*
X203750571Y-116386380D01*
X203988666Y-116481619D02*
X204750571Y-116481619D01*
X205179142Y-115386380D02*
X205274380Y-115386380D01*
X205369619Y-115434000D01*
X205417238Y-115481619D01*
X205464857Y-115576857D01*
X205512476Y-115767333D01*
X205512476Y-116005428D01*
X205464857Y-116195904D01*
X205417238Y-116291142D01*
X205369619Y-116338761D01*
X205274380Y-116386380D01*
X205179142Y-116386380D01*
X205083904Y-116338761D01*
X205036285Y-116291142D01*
X204988666Y-116195904D01*
X204941047Y-116005428D01*
X204941047Y-115767333D01*
X204988666Y-115576857D01*
X205036285Y-115481619D01*
X205083904Y-115434000D01*
X205179142Y-115386380D01*
X206464857Y-116386380D02*
X205893428Y-116386380D01*
X206179142Y-116386380D02*
X206179142Y-115386380D01*
X206083904Y-115529238D01*
X205988666Y-115624476D01*
X205893428Y-115672095D01*
X206798190Y-116386380D02*
X207322000Y-115719714D01*
X206798190Y-115719714D02*
X207322000Y-116386380D01*
X207893428Y-115386380D02*
X207988666Y-115386380D01*
X208083904Y-115434000D01*
X208131523Y-115481619D01*
X208179142Y-115576857D01*
X208226761Y-115767333D01*
X208226761Y-116005428D01*
X208179142Y-116195904D01*
X208131523Y-116291142D01*
X208083904Y-116338761D01*
X207988666Y-116386380D01*
X207893428Y-116386380D01*
X207798190Y-116338761D01*
X207750571Y-116291142D01*
X207702952Y-116195904D01*
X207655333Y-116005428D01*
X207655333Y-115767333D01*
X207702952Y-115576857D01*
X207750571Y-115481619D01*
X207798190Y-115434000D01*
X207893428Y-115386380D01*
X209179142Y-116386380D02*
X208607714Y-116386380D01*
X208893428Y-116386380D02*
X208893428Y-115386380D01*
X208798190Y-115529238D01*
X208702952Y-115624476D01*
X208607714Y-115672095D01*
X362250504Y-42681542D02*
X362202885Y-42729161D01*
X362060028Y-42776780D01*
X361964790Y-42776780D01*
X361821933Y-42729161D01*
X361726695Y-42633923D01*
X361679076Y-42538685D01*
X361631457Y-42348209D01*
X361631457Y-42205352D01*
X361679076Y-42014876D01*
X361726695Y-41919638D01*
X361821933Y-41824400D01*
X361964790Y-41776780D01*
X362060028Y-41776780D01*
X362202885Y-41824400D01*
X362250504Y-41872019D01*
X362821933Y-42776780D02*
X362726695Y-42729161D01*
X362679076Y-42681542D01*
X362631457Y-42586304D01*
X362631457Y-42300590D01*
X362679076Y-42205352D01*
X362726695Y-42157733D01*
X362821933Y-42110114D01*
X362964790Y-42110114D01*
X363060028Y-42157733D01*
X363107647Y-42205352D01*
X363155266Y-42300590D01*
X363155266Y-42586304D01*
X363107647Y-42681542D01*
X363060028Y-42729161D01*
X362964790Y-42776780D01*
X362821933Y-42776780D01*
X363583838Y-42110114D02*
X363583838Y-42776780D01*
X363583838Y-42205352D02*
X363631457Y-42157733D01*
X363726695Y-42110114D01*
X363869552Y-42110114D01*
X363964790Y-42157733D01*
X364012409Y-42252971D01*
X364012409Y-42776780D01*
X364488600Y-42110114D02*
X364488600Y-42776780D01*
X364488600Y-42205352D02*
X364536219Y-42157733D01*
X364631457Y-42110114D01*
X364774314Y-42110114D01*
X364869552Y-42157733D01*
X364917171Y-42252971D01*
X364917171Y-42776780D01*
X365155266Y-42872019D02*
X365917171Y-42872019D01*
X366345742Y-41776780D02*
X366440980Y-41776780D01*
X366536219Y-41824400D01*
X366583838Y-41872019D01*
X366631457Y-41967257D01*
X366679076Y-42157733D01*
X366679076Y-42395828D01*
X366631457Y-42586304D01*
X366583838Y-42681542D01*
X366536219Y-42729161D01*
X366440980Y-42776780D01*
X366345742Y-42776780D01*
X366250504Y-42729161D01*
X366202885Y-42681542D01*
X366155266Y-42586304D01*
X366107647Y-42395828D01*
X366107647Y-42157733D01*
X366155266Y-41967257D01*
X366202885Y-41872019D01*
X366250504Y-41824400D01*
X366345742Y-41776780D01*
X367631457Y-42776780D02*
X367060028Y-42776780D01*
X367345742Y-42776780D02*
X367345742Y-41776780D01*
X367250504Y-41919638D01*
X367155266Y-42014876D01*
X367060028Y-42062495D01*
X367964790Y-42776780D02*
X368488600Y-42110114D01*
X367964790Y-42110114D02*
X368488600Y-42776780D01*
X369060028Y-41776780D02*
X369155266Y-41776780D01*
X369250504Y-41824400D01*
X369298123Y-41872019D01*
X369345742Y-41967257D01*
X369393361Y-42157733D01*
X369393361Y-42395828D01*
X369345742Y-42586304D01*
X369298123Y-42681542D01*
X369250504Y-42729161D01*
X369155266Y-42776780D01*
X369060028Y-42776780D01*
X368964790Y-42729161D01*
X368917171Y-42681542D01*
X368869552Y-42586304D01*
X368821933Y-42395828D01*
X368821933Y-42157733D01*
X368869552Y-41967257D01*
X368917171Y-41872019D01*
X368964790Y-41824400D01*
X369060028Y-41776780D01*
X370345742Y-42776780D02*
X369774314Y-42776780D01*
X370060028Y-42776780D02*
X370060028Y-41776780D01*
X369964790Y-41919638D01*
X369869552Y-42014876D01*
X369774314Y-42062495D01*
X305837104Y-118919642D02*
X305789485Y-118967261D01*
X305646628Y-119014880D01*
X305551390Y-119014880D01*
X305408533Y-118967261D01*
X305313295Y-118872023D01*
X305265676Y-118776785D01*
X305218057Y-118586309D01*
X305218057Y-118443452D01*
X305265676Y-118252976D01*
X305313295Y-118157738D01*
X305408533Y-118062500D01*
X305551390Y-118014880D01*
X305646628Y-118014880D01*
X305789485Y-118062500D01*
X305837104Y-118110119D01*
X306408533Y-119014880D02*
X306313295Y-118967261D01*
X306265676Y-118919642D01*
X306218057Y-118824404D01*
X306218057Y-118538690D01*
X306265676Y-118443452D01*
X306313295Y-118395833D01*
X306408533Y-118348214D01*
X306551390Y-118348214D01*
X306646628Y-118395833D01*
X306694247Y-118443452D01*
X306741866Y-118538690D01*
X306741866Y-118824404D01*
X306694247Y-118919642D01*
X306646628Y-118967261D01*
X306551390Y-119014880D01*
X306408533Y-119014880D01*
X307170438Y-118348214D02*
X307170438Y-119014880D01*
X307170438Y-118443452D02*
X307218057Y-118395833D01*
X307313295Y-118348214D01*
X307456152Y-118348214D01*
X307551390Y-118395833D01*
X307599009Y-118491071D01*
X307599009Y-119014880D01*
X308075200Y-118348214D02*
X308075200Y-119014880D01*
X308075200Y-118443452D02*
X308122819Y-118395833D01*
X308218057Y-118348214D01*
X308360914Y-118348214D01*
X308456152Y-118395833D01*
X308503771Y-118491071D01*
X308503771Y-119014880D01*
X308741866Y-119110119D02*
X309503771Y-119110119D01*
X309932342Y-118014880D02*
X310027580Y-118014880D01*
X310122819Y-118062500D01*
X310170438Y-118110119D01*
X310218057Y-118205357D01*
X310265676Y-118395833D01*
X310265676Y-118633928D01*
X310218057Y-118824404D01*
X310170438Y-118919642D01*
X310122819Y-118967261D01*
X310027580Y-119014880D01*
X309932342Y-119014880D01*
X309837104Y-118967261D01*
X309789485Y-118919642D01*
X309741866Y-118824404D01*
X309694247Y-118633928D01*
X309694247Y-118395833D01*
X309741866Y-118205357D01*
X309789485Y-118110119D01*
X309837104Y-118062500D01*
X309932342Y-118014880D01*
X311218057Y-119014880D02*
X310646628Y-119014880D01*
X310932342Y-119014880D02*
X310932342Y-118014880D01*
X310837104Y-118157738D01*
X310741866Y-118252976D01*
X310646628Y-118300595D01*
X311551390Y-119014880D02*
X312075200Y-118348214D01*
X311551390Y-118348214D02*
X312075200Y-119014880D01*
X312646628Y-118014880D02*
X312741866Y-118014880D01*
X312837104Y-118062500D01*
X312884723Y-118110119D01*
X312932342Y-118205357D01*
X312979961Y-118395833D01*
X312979961Y-118633928D01*
X312932342Y-118824404D01*
X312884723Y-118919642D01*
X312837104Y-118967261D01*
X312741866Y-119014880D01*
X312646628Y-119014880D01*
X312551390Y-118967261D01*
X312503771Y-118919642D01*
X312456152Y-118824404D01*
X312408533Y-118633928D01*
X312408533Y-118395833D01*
X312456152Y-118205357D01*
X312503771Y-118110119D01*
X312551390Y-118062500D01*
X312646628Y-118014880D01*
X313932342Y-119014880D02*
X313360914Y-119014880D01*
X313646628Y-119014880D02*
X313646628Y-118014880D01*
X313551390Y-118157738D01*
X313456152Y-118252976D01*
X313360914Y-118300595D01*
X341498704Y-80819642D02*
X341451085Y-80867261D01*
X341308228Y-80914880D01*
X341212990Y-80914880D01*
X341070133Y-80867261D01*
X340974895Y-80772023D01*
X340927276Y-80676785D01*
X340879657Y-80486309D01*
X340879657Y-80343452D01*
X340927276Y-80152976D01*
X340974895Y-80057738D01*
X341070133Y-79962500D01*
X341212990Y-79914880D01*
X341308228Y-79914880D01*
X341451085Y-79962500D01*
X341498704Y-80010119D01*
X342070133Y-80914880D02*
X341974895Y-80867261D01*
X341927276Y-80819642D01*
X341879657Y-80724404D01*
X341879657Y-80438690D01*
X341927276Y-80343452D01*
X341974895Y-80295833D01*
X342070133Y-80248214D01*
X342212990Y-80248214D01*
X342308228Y-80295833D01*
X342355847Y-80343452D01*
X342403466Y-80438690D01*
X342403466Y-80724404D01*
X342355847Y-80819642D01*
X342308228Y-80867261D01*
X342212990Y-80914880D01*
X342070133Y-80914880D01*
X342832038Y-80248214D02*
X342832038Y-80914880D01*
X342832038Y-80343452D02*
X342879657Y-80295833D01*
X342974895Y-80248214D01*
X343117752Y-80248214D01*
X343212990Y-80295833D01*
X343260609Y-80391071D01*
X343260609Y-80914880D01*
X343736800Y-80248214D02*
X343736800Y-80914880D01*
X343736800Y-80343452D02*
X343784419Y-80295833D01*
X343879657Y-80248214D01*
X344022514Y-80248214D01*
X344117752Y-80295833D01*
X344165371Y-80391071D01*
X344165371Y-80914880D01*
X344403466Y-81010119D02*
X345165371Y-81010119D01*
X345593942Y-79914880D02*
X345689180Y-79914880D01*
X345784419Y-79962500D01*
X345832038Y-80010119D01*
X345879657Y-80105357D01*
X345927276Y-80295833D01*
X345927276Y-80533928D01*
X345879657Y-80724404D01*
X345832038Y-80819642D01*
X345784419Y-80867261D01*
X345689180Y-80914880D01*
X345593942Y-80914880D01*
X345498704Y-80867261D01*
X345451085Y-80819642D01*
X345403466Y-80724404D01*
X345355847Y-80533928D01*
X345355847Y-80295833D01*
X345403466Y-80105357D01*
X345451085Y-80010119D01*
X345498704Y-79962500D01*
X345593942Y-79914880D01*
X346879657Y-80914880D02*
X346308228Y-80914880D01*
X346593942Y-80914880D02*
X346593942Y-79914880D01*
X346498704Y-80057738D01*
X346403466Y-80152976D01*
X346308228Y-80200595D01*
X347212990Y-80914880D02*
X347736800Y-80248214D01*
X347212990Y-80248214D02*
X347736800Y-80914880D01*
X348308228Y-79914880D02*
X348403466Y-79914880D01*
X348498704Y-79962500D01*
X348546323Y-80010119D01*
X348593942Y-80105357D01*
X348641561Y-80295833D01*
X348641561Y-80533928D01*
X348593942Y-80724404D01*
X348546323Y-80819642D01*
X348498704Y-80867261D01*
X348403466Y-80914880D01*
X348308228Y-80914880D01*
X348212990Y-80867261D01*
X348165371Y-80819642D01*
X348117752Y-80724404D01*
X348070133Y-80533928D01*
X348070133Y-80295833D01*
X348117752Y-80105357D01*
X348165371Y-80010119D01*
X348212990Y-79962500D01*
X348308228Y-79914880D01*
X349593942Y-80914880D02*
X349022514Y-80914880D01*
X349308228Y-80914880D02*
X349308228Y-79914880D01*
X349212990Y-80057738D01*
X349117752Y-80152976D01*
X349022514Y-80200595D01*
X221474904Y-108869142D02*
X221427285Y-108916761D01*
X221284428Y-108964380D01*
X221189190Y-108964380D01*
X221046333Y-108916761D01*
X220951095Y-108821523D01*
X220903476Y-108726285D01*
X220855857Y-108535809D01*
X220855857Y-108392952D01*
X220903476Y-108202476D01*
X220951095Y-108107238D01*
X221046333Y-108012000D01*
X221189190Y-107964380D01*
X221284428Y-107964380D01*
X221427285Y-108012000D01*
X221474904Y-108059619D01*
X222046333Y-108964380D02*
X221951095Y-108916761D01*
X221903476Y-108869142D01*
X221855857Y-108773904D01*
X221855857Y-108488190D01*
X221903476Y-108392952D01*
X221951095Y-108345333D01*
X222046333Y-108297714D01*
X222189190Y-108297714D01*
X222284428Y-108345333D01*
X222332047Y-108392952D01*
X222379666Y-108488190D01*
X222379666Y-108773904D01*
X222332047Y-108869142D01*
X222284428Y-108916761D01*
X222189190Y-108964380D01*
X222046333Y-108964380D01*
X222808238Y-108297714D02*
X222808238Y-108964380D01*
X222808238Y-108392952D02*
X222855857Y-108345333D01*
X222951095Y-108297714D01*
X223093952Y-108297714D01*
X223189190Y-108345333D01*
X223236809Y-108440571D01*
X223236809Y-108964380D01*
X223713000Y-108297714D02*
X223713000Y-108964380D01*
X223713000Y-108392952D02*
X223760619Y-108345333D01*
X223855857Y-108297714D01*
X223998714Y-108297714D01*
X224093952Y-108345333D01*
X224141571Y-108440571D01*
X224141571Y-108964380D01*
X224379666Y-109059619D02*
X225141571Y-109059619D01*
X225570142Y-107964380D02*
X225665380Y-107964380D01*
X225760619Y-108012000D01*
X225808238Y-108059619D01*
X225855857Y-108154857D01*
X225903476Y-108345333D01*
X225903476Y-108583428D01*
X225855857Y-108773904D01*
X225808238Y-108869142D01*
X225760619Y-108916761D01*
X225665380Y-108964380D01*
X225570142Y-108964380D01*
X225474904Y-108916761D01*
X225427285Y-108869142D01*
X225379666Y-108773904D01*
X225332047Y-108583428D01*
X225332047Y-108345333D01*
X225379666Y-108154857D01*
X225427285Y-108059619D01*
X225474904Y-108012000D01*
X225570142Y-107964380D01*
X226855857Y-108964380D02*
X226284428Y-108964380D01*
X226570142Y-108964380D02*
X226570142Y-107964380D01*
X226474904Y-108107238D01*
X226379666Y-108202476D01*
X226284428Y-108250095D01*
X227189190Y-108964380D02*
X227713000Y-108297714D01*
X227189190Y-108297714D02*
X227713000Y-108964380D01*
X228284428Y-107964380D02*
X228379666Y-107964380D01*
X228474904Y-108012000D01*
X228522523Y-108059619D01*
X228570142Y-108154857D01*
X228617761Y-108345333D01*
X228617761Y-108583428D01*
X228570142Y-108773904D01*
X228522523Y-108869142D01*
X228474904Y-108916761D01*
X228379666Y-108964380D01*
X228284428Y-108964380D01*
X228189190Y-108916761D01*
X228141571Y-108869142D01*
X228093952Y-108773904D01*
X228046333Y-108583428D01*
X228046333Y-108345333D01*
X228093952Y-108154857D01*
X228141571Y-108059619D01*
X228189190Y-108012000D01*
X228284428Y-107964380D01*
X229570142Y-108964380D02*
X228998714Y-108964380D01*
X229284428Y-108964380D02*
X229284428Y-107964380D01*
X229189190Y-108107238D01*
X229093952Y-108202476D01*
X228998714Y-108250095D01*
X229599004Y-111439342D02*
X229551385Y-111486961D01*
X229408528Y-111534580D01*
X229313290Y-111534580D01*
X229170433Y-111486961D01*
X229075195Y-111391723D01*
X229027576Y-111296485D01*
X228979957Y-111106009D01*
X228979957Y-110963152D01*
X229027576Y-110772676D01*
X229075195Y-110677438D01*
X229170433Y-110582200D01*
X229313290Y-110534580D01*
X229408528Y-110534580D01*
X229551385Y-110582200D01*
X229599004Y-110629819D01*
X230170433Y-111534580D02*
X230075195Y-111486961D01*
X230027576Y-111439342D01*
X229979957Y-111344104D01*
X229979957Y-111058390D01*
X230027576Y-110963152D01*
X230075195Y-110915533D01*
X230170433Y-110867914D01*
X230313290Y-110867914D01*
X230408528Y-110915533D01*
X230456147Y-110963152D01*
X230503766Y-111058390D01*
X230503766Y-111344104D01*
X230456147Y-111439342D01*
X230408528Y-111486961D01*
X230313290Y-111534580D01*
X230170433Y-111534580D01*
X230932338Y-110867914D02*
X230932338Y-111534580D01*
X230932338Y-110963152D02*
X230979957Y-110915533D01*
X231075195Y-110867914D01*
X231218052Y-110867914D01*
X231313290Y-110915533D01*
X231360909Y-111010771D01*
X231360909Y-111534580D01*
X231837100Y-110867914D02*
X231837100Y-111534580D01*
X231837100Y-110963152D02*
X231884719Y-110915533D01*
X231979957Y-110867914D01*
X232122814Y-110867914D01*
X232218052Y-110915533D01*
X232265671Y-111010771D01*
X232265671Y-111534580D01*
X232503766Y-111629819D02*
X233265671Y-111629819D01*
X233694242Y-110534580D02*
X233789480Y-110534580D01*
X233884719Y-110582200D01*
X233932338Y-110629819D01*
X233979957Y-110725057D01*
X234027576Y-110915533D01*
X234027576Y-111153628D01*
X233979957Y-111344104D01*
X233932338Y-111439342D01*
X233884719Y-111486961D01*
X233789480Y-111534580D01*
X233694242Y-111534580D01*
X233599004Y-111486961D01*
X233551385Y-111439342D01*
X233503766Y-111344104D01*
X233456147Y-111153628D01*
X233456147Y-110915533D01*
X233503766Y-110725057D01*
X233551385Y-110629819D01*
X233599004Y-110582200D01*
X233694242Y-110534580D01*
X234979957Y-111534580D02*
X234408528Y-111534580D01*
X234694242Y-111534580D02*
X234694242Y-110534580D01*
X234599004Y-110677438D01*
X234503766Y-110772676D01*
X234408528Y-110820295D01*
X235313290Y-111534580D02*
X235837100Y-110867914D01*
X235313290Y-110867914D02*
X235837100Y-111534580D01*
X236408528Y-110534580D02*
X236503766Y-110534580D01*
X236599004Y-110582200D01*
X236646623Y-110629819D01*
X236694242Y-110725057D01*
X236741861Y-110915533D01*
X236741861Y-111153628D01*
X236694242Y-111344104D01*
X236646623Y-111439342D01*
X236599004Y-111486961D01*
X236503766Y-111534580D01*
X236408528Y-111534580D01*
X236313290Y-111486961D01*
X236265671Y-111439342D01*
X236218052Y-111344104D01*
X236170433Y-111153628D01*
X236170433Y-110915533D01*
X236218052Y-110725057D01*
X236265671Y-110629819D01*
X236313290Y-110582200D01*
X236408528Y-110534580D01*
X237694242Y-111534580D02*
X237122814Y-111534580D01*
X237408528Y-111534580D02*
X237408528Y-110534580D01*
X237313290Y-110677438D01*
X237218052Y-110772676D01*
X237122814Y-110820295D01*
X198007966Y-60526190D02*
X198007966Y-60050000D01*
X198293680Y-60621428D02*
X197293680Y-60288095D01*
X198293680Y-59954761D01*
X197627014Y-59192857D02*
X198293680Y-59192857D01*
X197627014Y-59621428D02*
X198150823Y-59621428D01*
X198246061Y-59573809D01*
X198293680Y-59478571D01*
X198293680Y-59335714D01*
X198246061Y-59240476D01*
X198198442Y-59192857D01*
X198293680Y-58288095D02*
X197293680Y-58288095D01*
X198246061Y-58288095D02*
X198293680Y-58383333D01*
X198293680Y-58573809D01*
X198246061Y-58669047D01*
X198198442Y-58716666D01*
X198103204Y-58764285D01*
X197817490Y-58764285D01*
X197722252Y-58716666D01*
X197674633Y-58669047D01*
X197627014Y-58573809D01*
X197627014Y-58383333D01*
X197674633Y-58288095D01*
X198293680Y-57811904D02*
X197627014Y-57811904D01*
X197293680Y-57811904D02*
X197341300Y-57859523D01*
X197388919Y-57811904D01*
X197341300Y-57764285D01*
X197293680Y-57811904D01*
X197388919Y-57811904D01*
X198293680Y-57192857D02*
X198246061Y-57288095D01*
X198198442Y-57335714D01*
X198103204Y-57383333D01*
X197817490Y-57383333D01*
X197722252Y-57335714D01*
X197674633Y-57288095D01*
X197627014Y-57192857D01*
X197627014Y-57050000D01*
X197674633Y-56954761D01*
X197722252Y-56907142D01*
X197817490Y-56859523D01*
X198103204Y-56859523D01*
X198198442Y-56907142D01*
X198246061Y-56954761D01*
X198293680Y-57050000D01*
X198293680Y-57192857D01*
X197293680Y-56145238D02*
X198007966Y-56145238D01*
X198150823Y-56192857D01*
X198246061Y-56288095D01*
X198293680Y-56430952D01*
X198293680Y-56526190D01*
X198293680Y-55240476D02*
X197769871Y-55240476D01*
X197674633Y-55288095D01*
X197627014Y-55383333D01*
X197627014Y-55573809D01*
X197674633Y-55669047D01*
X198246061Y-55240476D02*
X198293680Y-55335714D01*
X198293680Y-55573809D01*
X198246061Y-55669047D01*
X198150823Y-55716666D01*
X198055585Y-55716666D01*
X197960347Y-55669047D01*
X197912728Y-55573809D01*
X197912728Y-55335714D01*
X197865109Y-55240476D01*
X198246061Y-54335714D02*
X198293680Y-54430952D01*
X198293680Y-54621428D01*
X198246061Y-54716666D01*
X198198442Y-54764285D01*
X198103204Y-54811904D01*
X197817490Y-54811904D01*
X197722252Y-54764285D01*
X197674633Y-54716666D01*
X197627014Y-54621428D01*
X197627014Y-54430952D01*
X197674633Y-54335714D01*
X198293680Y-53907142D02*
X197293680Y-53907142D01*
X197912728Y-53811904D02*
X198293680Y-53526190D01*
X197627014Y-53526190D02*
X198007966Y-53907142D01*
X197627014Y-52669047D02*
X198293680Y-52669047D01*
X197246061Y-52907142D02*
X197960347Y-53145238D01*
X197960347Y-52526190D01*
D10*
X215124633Y-57850000D02*
X215157966Y-57750000D01*
X215157966Y-57583333D01*
X215124633Y-57516666D01*
X215091300Y-57483333D01*
X215024633Y-57450000D01*
X214957966Y-57450000D01*
X214891300Y-57483333D01*
X214857966Y-57516666D01*
X214824633Y-57583333D01*
X214791300Y-57716666D01*
X214757966Y-57783333D01*
X214724633Y-57816666D01*
X214657966Y-57850000D01*
X214591300Y-57850000D01*
X214524633Y-57816666D01*
X214491300Y-57783333D01*
X214457966Y-57716666D01*
X214457966Y-57550000D01*
X214491300Y-57450000D01*
X215157966Y-57050000D02*
X215124633Y-57116666D01*
X215057966Y-57150000D01*
X214457966Y-57150000D01*
X215124633Y-56516666D02*
X215157966Y-56583333D01*
X215157966Y-56716666D01*
X215124633Y-56783333D01*
X215057966Y-56816666D01*
X214791300Y-56816666D01*
X214724633Y-56783333D01*
X214691300Y-56716666D01*
X214691300Y-56583333D01*
X214724633Y-56516666D01*
X214791300Y-56483333D01*
X214857966Y-56483333D01*
X214924633Y-56816666D01*
X215124633Y-55916666D02*
X215157966Y-55983333D01*
X215157966Y-56116666D01*
X215124633Y-56183333D01*
X215057966Y-56216666D01*
X214791300Y-56216666D01*
X214724633Y-56183333D01*
X214691300Y-56116666D01*
X214691300Y-55983333D01*
X214724633Y-55916666D01*
X214791300Y-55883333D01*
X214857966Y-55883333D01*
X214924633Y-56216666D01*
X214691300Y-55650000D02*
X215157966Y-55483333D01*
X214691300Y-55316666D01*
X215124633Y-54783333D02*
X215157966Y-54850000D01*
X215157966Y-54983333D01*
X215124633Y-55050000D01*
X215057966Y-55083333D01*
X214791300Y-55083333D01*
X214724633Y-55050000D01*
X214691300Y-54983333D01*
X214691300Y-54850000D01*
X214724633Y-54783333D01*
X214791300Y-54750000D01*
X214857966Y-54750000D01*
X214924633Y-55083333D01*
X213057966Y-57233333D02*
X213057966Y-56833333D01*
X213757966Y-57033333D02*
X213057966Y-57033333D01*
X213757966Y-56600000D02*
X213291300Y-56600000D01*
X213057966Y-56600000D02*
X213091300Y-56633333D01*
X213124633Y-56600000D01*
X213091300Y-56566666D01*
X213057966Y-56600000D01*
X213124633Y-56600000D01*
X213291300Y-56266666D02*
X213991300Y-56266666D01*
X213324633Y-56266666D02*
X213291300Y-56200000D01*
X213291300Y-56066666D01*
X213324633Y-56000000D01*
X213357966Y-55966666D01*
X213424633Y-55933333D01*
X213624633Y-55933333D01*
X213691300Y-55966666D01*
X213724633Y-56000000D01*
X213757966Y-56066666D01*
X213757966Y-56200000D01*
X213724633Y-56266666D01*
X210007966Y-57466666D02*
X209674633Y-57700000D01*
X210007966Y-57866666D02*
X209307966Y-57866666D01*
X209307966Y-57600000D01*
X209341300Y-57533333D01*
X209374633Y-57500000D01*
X209441300Y-57466666D01*
X209541300Y-57466666D01*
X209607966Y-57500000D01*
X209641300Y-57533333D01*
X209674633Y-57600000D01*
X209674633Y-57866666D01*
X210007966Y-57166666D02*
X209541300Y-57166666D01*
X209307966Y-57166666D02*
X209341300Y-57200000D01*
X209374633Y-57166666D01*
X209341300Y-57133333D01*
X209307966Y-57166666D01*
X209374633Y-57166666D01*
X209541300Y-56833333D02*
X210007966Y-56833333D01*
X209607966Y-56833333D02*
X209574633Y-56800000D01*
X209541300Y-56733333D01*
X209541300Y-56633333D01*
X209574633Y-56566666D01*
X209641300Y-56533333D01*
X210007966Y-56533333D01*
X209541300Y-55900000D02*
X210107966Y-55900000D01*
X210174633Y-55933333D01*
X210207966Y-55966666D01*
X210241300Y-56033333D01*
X210241300Y-56133333D01*
X210207966Y-56200000D01*
X209974633Y-55900000D02*
X210007966Y-55966666D01*
X210007966Y-56100000D01*
X209974633Y-56166666D01*
X209941300Y-56200000D01*
X209874633Y-56233333D01*
X209674633Y-56233333D01*
X209607966Y-56200000D01*
X209574633Y-56166666D01*
X209541300Y-56100000D01*
X209541300Y-55966666D01*
X209574633Y-55900000D01*
X210007966Y-55200000D02*
X210007966Y-55600000D01*
X210007966Y-55400000D02*
X209307966Y-55400000D01*
X209407966Y-55466666D01*
X209474633Y-55533333D01*
X209507966Y-55600000D01*
X207007966Y-57466666D02*
X206674633Y-57700000D01*
X207007966Y-57866666D02*
X206307966Y-57866666D01*
X206307966Y-57600000D01*
X206341300Y-57533333D01*
X206374633Y-57500000D01*
X206441300Y-57466666D01*
X206541300Y-57466666D01*
X206607966Y-57500000D01*
X206641300Y-57533333D01*
X206674633Y-57600000D01*
X206674633Y-57866666D01*
X207007966Y-57166666D02*
X206541300Y-57166666D01*
X206307966Y-57166666D02*
X206341300Y-57200000D01*
X206374633Y-57166666D01*
X206341300Y-57133333D01*
X206307966Y-57166666D01*
X206374633Y-57166666D01*
X206541300Y-56833333D02*
X207007966Y-56833333D01*
X206607966Y-56833333D02*
X206574633Y-56800000D01*
X206541300Y-56733333D01*
X206541300Y-56633333D01*
X206574633Y-56566666D01*
X206641300Y-56533333D01*
X207007966Y-56533333D01*
X206541300Y-55900000D02*
X207107966Y-55900000D01*
X207174633Y-55933333D01*
X207207966Y-55966666D01*
X207241300Y-56033333D01*
X207241300Y-56133333D01*
X207207966Y-56200000D01*
X206974633Y-55900000D02*
X207007966Y-55966666D01*
X207007966Y-56100000D01*
X206974633Y-56166666D01*
X206941300Y-56200000D01*
X206874633Y-56233333D01*
X206674633Y-56233333D01*
X206607966Y-56200000D01*
X206574633Y-56166666D01*
X206541300Y-56100000D01*
X206541300Y-55966666D01*
X206574633Y-55900000D01*
X206374633Y-55600000D02*
X206341300Y-55566666D01*
X206307966Y-55500000D01*
X206307966Y-55333333D01*
X206341300Y-55266666D01*
X206374633Y-55233333D01*
X206441300Y-55200000D01*
X206507966Y-55200000D01*
X206607966Y-55233333D01*
X207007966Y-55633333D01*
X207007966Y-55200000D01*
M02*
