M48
METRIC,TZ
T1C0.400
T2C0.900
T3C1.092
T4C2.500
%
G90
G05
T1
X207493Y-84074
X207493Y-85700
X207518Y-82677
X207620Y-81001
X209296Y-32004
X210109Y-75463
X210933Y-74270
X211296Y-78505
X212665Y-86446
X213563Y-39345
X215024Y-98992
X215024Y-106147
X215026Y-102567
X216230Y-80112
X216230Y-81102
X216230Y-82093
X216230Y-83083
X216230Y-84074
X216230Y-85065
X216891Y-70790
X217018Y-80620
X217018Y-81610
X217018Y-82601
X217018Y-83591
X217018Y-84582
X217195Y-39548
X217856Y-80162
X217856Y-81153
X217856Y-82144
X217856Y-83134
X217856Y-84125
X217856Y-85115
X218338Y-89408
X221234Y-25121
X221234Y-93040
X221261Y-135079
X221285Y-65380
X221361Y-78308
X222751Y-83477
X224164Y-78588
X224199Y-101981
X224588Y-99909
X224889Y-77648
X225578Y-103631
X225728Y-78489
X226429Y-75080
X226493Y-76178
X227406Y-88572
X227457Y-85852
X227762Y-29362
X227937Y-75739
X228168Y-24079
X228168Y-33223
X228194Y-70053
X228321Y-31674
X228397Y-72339
X228448Y-93040
X228473Y-22733
X228575Y-84836
X228575Y-89687
X228575Y-87757
X228727Y-70917
X228905Y-91389
X229006Y-129718
X229489Y-76479
X229523Y-107576
X229573Y-88933
X229596Y-33381
X229845Y-90449
X229870Y-92304
X229895Y-28473
X230248Y-108459
X230251Y-77927
X230810Y-82169
X230900Y-76094
X231292Y-109118
X231600Y-78932
X231677Y-91589
X232181Y-77241
X232359Y-96114
X233231Y-78290
X233401Y-59131
X233578Y-39700
X233705Y-94158
X233909Y-83083
X234772Y-101879
X235458Y-15392
X236195Y-51816
X236931Y-35226
X237063Y-68484
X237788Y-73336
X238037Y-87282
X240436Y-87725
X240792Y-15686
X240792Y-35546
X240792Y-53264
X241097Y-69190
X241275Y-98679
X241427Y-79223
X242017Y-35546
X242164Y-16434
X242291Y-53594
X242519Y-88175
X242773Y-69724
X243078Y-133706
X243423Y-17206
X243423Y-36576
X243423Y-55383
X243423Y-74462
X245313Y-94158
X248158Y-22479
X250740Y-91186
X250870Y-34196
X252273Y-97053
X252374Y-59309
X252476Y-40081
X252476Y-78105
X254508Y-15011
X255880Y-51562
X256057Y-68580
X256921Y-72579
X257835Y-34341
X258877Y-87274
X259817Y-87999
X259842Y-35175
X259842Y-53035
X259994Y-15838
X260274Y-78715
X260528Y-69274
X261188Y-35625
X261188Y-54077
X261252Y-107668
X261264Y-16288
X261823Y-88449
X262382Y-69724
X262473Y-17257
X262473Y-36307
X262473Y-55433
X262473Y-93102
X262712Y-72542
X262788Y-110947
X264490Y-108839
X266114Y-112118
X266903Y-22631
X269888Y-33866
X270594Y-91149
X271247Y-78181
X271348Y-97053
X271704Y-39268
X271704Y-58852
X273583Y-15291
X274828Y-108077
X274853Y-51206
X275343Y-68281
X275514Y-87903
X275920Y-34452
X276581Y-72325
X277063Y-108915
X277800Y-110947
X278892Y-15889
X278892Y-34863
X278892Y-52553
X279070Y-88353
X279142Y-112518
X279417Y-69274
X280137Y-53848
X280162Y-16339
X280162Y-35313
X280848Y-69724
X281229Y-88468
X281523Y-17333
X281523Y-36337
X281523Y-55285
X281523Y-74737
X281523Y-93229
X288970Y-33876
X290093Y-77292
X290215Y-91067
X290246Y-97231
X290474Y-58471
X290601Y-39726
X292608Y-15113
X293446Y-34417
X294157Y-51486
X294284Y-68656
X294989Y-108084
X295326Y-87852
X295478Y-71894
X297942Y-34710
X297942Y-52883
X297967Y-16016
X298323Y-88302
X298450Y-69622
X299161Y-35160
X299288Y-54000
X299314Y-16466
X299949Y-70072
X300323Y-109862
X300406Y-89060
X300573Y-17211
X300573Y-36129
X300573Y-55717
X300573Y-93918
X301422Y-72390
X301650Y-110998
X302954Y-112251
X308020Y-33426
X309143Y-39395
X309448Y-58750
X309601Y-96418
X309905Y-77953
X310947Y-91364
X311760Y-15342
X312555Y-68946
X312776Y-51714
X312811Y-33572
X313614Y-88163
X313893Y-71563
X316992Y-15723
X316992Y-34112
X316992Y-52857
X317221Y-69356
X317348Y-88835
X318389Y-34581
X318389Y-54178
X318440Y-16129
X318795Y-70081
X318802Y-107842
X319608Y-88976
X319623Y-17333
X319623Y-36337
X319623Y-55565
X319623Y-93918
X319659Y-72009
X324135Y-109519
X325361Y-111137
X326767Y-112501
X327070Y-32925
X328574Y-39853
X328879Y-58598
X329108Y-72822
X329565Y-96495
X330733Y-15265
X331597Y-32995
X332080Y-51283
X332892Y-68631
X332969Y-91008
X334543Y-70293
X335991Y-88214
X336042Y-15838
X336042Y-53010
X336169Y-33445
X337221Y-69303
X337267Y-54057
X337439Y-16288
X337469Y-33975
X338607Y-69952
X338673Y-16738
X338673Y-36155
X338673Y-55484
X340233Y-109017
X340360Y-71323
X341300Y-88785
X343256Y-90279
X343436Y-93918
X345567Y-109830
X346304Y-32526
X346862Y-111125
X347218Y-38989
X347574Y-58776
X348198Y-112029
X349961Y-15062
X350063Y-33223
X351434Y-51384
X353873Y-28626
X354279Y-66319
X354863Y-47676
X355092Y-34131
X355092Y-53035
X355371Y-15773
X356317Y-34581
X356362Y-54077
X356514Y-16129
X356718Y-93193
X356921Y-97333
X357723Y-17210
X357723Y-36282
X357723Y-55463
X358843Y-92092
X360832Y-108382
X361264Y-68859
X361544Y-15213
X362001Y-16713
X362788Y-18339
X363728Y-89383
X364439Y-51359
X364617Y-110312
X364633Y-89953
X365696Y-52845
X365842Y-111156
X366827Y-72653
X366928Y-31191
X366928Y-90703
X367081Y-54153
X367248Y-93461
X367248Y-112431
X367716Y-78994
X367944Y-86563
X368452Y-73254
X369704Y-74517
X369722Y-96901
X370154Y-108610
X371272Y-110312
X372706Y-111342
X373571Y-33478
X375601Y-51268
X376479Y-97231
X376555Y-92151
X377241Y-80340
X377266Y-29870
X377520Y-92507
X378905Y-33928
X378905Y-52845
X379324Y-89433
X379476Y-108610
X380213Y-34378
X380340Y-54153
X381229Y-67513
X381381Y-50546
X381536Y-35989
X381536Y-55319
X383235Y-87757
X383667Y-110617
X383769Y-90576
X385013Y-111201
X385191Y-91973
X385369Y-33401
X386298Y-93233
X386298Y-112486
X386537Y-35001
X387782Y-36119
X387883Y-108560
T3
X207480Y-19685
X207480Y-22225
X207480Y-24765
X207480Y-27305
X207480Y-29845
X207480Y-32385
X207480Y-34925
X207480Y-37465
X207480Y-40005
X207480Y-42545
X207480Y-45085
X207709Y-47625
X222720Y-17435
X222720Y-19685
X222720Y-22225
X222720Y-24765
X222720Y-27305
X222720Y-29845
X222720Y-32385
X222720Y-34925
X222720Y-37465
X222720Y-40005
X222720Y-42545
X222720Y-45085
X222720Y-47625
T4
X309575Y-119063
X204822Y-116434
X233337Y-111582
X365989Y-42824
X225213Y-109012
X345237Y-80962
X225213Y-64100
X204822Y-64100
T2
G00X206441Y-54250
M15
G01X206841Y-54250
M16
G05
G00X209441Y-54250
M15
G01X209841Y-54250
M16
G05
G00X213441Y-54250
M15
G01X213841Y-54250
M16
G05
G00X214541Y-58850
M15
G01X214941Y-58850
M16
G05
T0
M30
