G04 #@! TF.GenerationSoftware,KiCad,Pcbnew,(5.1.6)-1*
G04 #@! TF.CreationDate,2020-11-25T22:12:27-08:00*
G04 #@! TF.ProjectId,ortho_right,6f727468-6f5f-4726-9967-68742e6b6963,rev?*
G04 #@! TF.SameCoordinates,Original*
G04 #@! TF.FileFunction,Paste,Bot*
G04 #@! TF.FilePolarity,Positive*
%FSLAX46Y46*%
G04 Gerber Fmt 4.6, Leading zero omitted, Abs format (unit mm)*
G04 Created by KiCad (PCBNEW (5.1.6)-1) date 2020-11-25 22:12:27*
%MOMM*%
%LPD*%
G01*
G04 APERTURE LIST*
%ADD10R,1.800000X0.700000*%
%ADD11R,2.800000X1.700000*%
%ADD12R,1.200000X1.600000*%
%ADD13C,0.150000*%
%ADD14R,0.900000X1.000000*%
G04 APERTURE END LIST*
G36*
G01*
X218447100Y-84047000D02*
X218957100Y-84047000D01*
G75*
G02*
X219207100Y-84297000I0J-250000D01*
G01*
X219207100Y-84807000D01*
G75*
G02*
X218957100Y-85057000I-250000J0D01*
G01*
X218447100Y-85057000D01*
G75*
G02*
X218197100Y-84807000I0J250000D01*
G01*
X218197100Y-84297000D01*
G75*
G02*
X218447100Y-84047000I250000J0D01*
G01*
G37*
G36*
G01*
X217197100Y-84047000D02*
X217707100Y-84047000D01*
G75*
G02*
X217957100Y-84297000I0J-250000D01*
G01*
X217957100Y-84807000D01*
G75*
G02*
X217707100Y-85057000I-250000J0D01*
G01*
X217197100Y-85057000D01*
G75*
G02*
X216947100Y-84807000I0J250000D01*
G01*
X216947100Y-84297000D01*
G75*
G02*
X217197100Y-84047000I250000J0D01*
G01*
G37*
G36*
G01*
X215947100Y-84047000D02*
X216457100Y-84047000D01*
G75*
G02*
X216707100Y-84297000I0J-250000D01*
G01*
X216707100Y-84807000D01*
G75*
G02*
X216457100Y-85057000I-250000J0D01*
G01*
X215947100Y-85057000D01*
G75*
G02*
X215697100Y-84807000I0J250000D01*
G01*
X215697100Y-84297000D01*
G75*
G02*
X215947100Y-84047000I250000J0D01*
G01*
G37*
G36*
G01*
X214697100Y-84047000D02*
X215207100Y-84047000D01*
G75*
G02*
X215457100Y-84297000I0J-250000D01*
G01*
X215457100Y-84807000D01*
G75*
G02*
X215207100Y-85057000I-250000J0D01*
G01*
X214697100Y-85057000D01*
G75*
G02*
X214447100Y-84807000I0J250000D01*
G01*
X214447100Y-84297000D01*
G75*
G02*
X214697100Y-84047000I250000J0D01*
G01*
G37*
G36*
G01*
X218447100Y-82797000D02*
X218957100Y-82797000D01*
G75*
G02*
X219207100Y-83047000I0J-250000D01*
G01*
X219207100Y-83557000D01*
G75*
G02*
X218957100Y-83807000I-250000J0D01*
G01*
X218447100Y-83807000D01*
G75*
G02*
X218197100Y-83557000I0J250000D01*
G01*
X218197100Y-83047000D01*
G75*
G02*
X218447100Y-82797000I250000J0D01*
G01*
G37*
G36*
G01*
X217197100Y-82797000D02*
X217707100Y-82797000D01*
G75*
G02*
X217957100Y-83047000I0J-250000D01*
G01*
X217957100Y-83557000D01*
G75*
G02*
X217707100Y-83807000I-250000J0D01*
G01*
X217197100Y-83807000D01*
G75*
G02*
X216947100Y-83557000I0J250000D01*
G01*
X216947100Y-83047000D01*
G75*
G02*
X217197100Y-82797000I250000J0D01*
G01*
G37*
G36*
G01*
X215947100Y-82797000D02*
X216457100Y-82797000D01*
G75*
G02*
X216707100Y-83047000I0J-250000D01*
G01*
X216707100Y-83557000D01*
G75*
G02*
X216457100Y-83807000I-250000J0D01*
G01*
X215947100Y-83807000D01*
G75*
G02*
X215697100Y-83557000I0J250000D01*
G01*
X215697100Y-83047000D01*
G75*
G02*
X215947100Y-82797000I250000J0D01*
G01*
G37*
G36*
G01*
X214697100Y-82797000D02*
X215207100Y-82797000D01*
G75*
G02*
X215457100Y-83047000I0J-250000D01*
G01*
X215457100Y-83557000D01*
G75*
G02*
X215207100Y-83807000I-250000J0D01*
G01*
X214697100Y-83807000D01*
G75*
G02*
X214447100Y-83557000I0J250000D01*
G01*
X214447100Y-83047000D01*
G75*
G02*
X214697100Y-82797000I250000J0D01*
G01*
G37*
G36*
G01*
X218447100Y-81547000D02*
X218957100Y-81547000D01*
G75*
G02*
X219207100Y-81797000I0J-250000D01*
G01*
X219207100Y-82307000D01*
G75*
G02*
X218957100Y-82557000I-250000J0D01*
G01*
X218447100Y-82557000D01*
G75*
G02*
X218197100Y-82307000I0J250000D01*
G01*
X218197100Y-81797000D01*
G75*
G02*
X218447100Y-81547000I250000J0D01*
G01*
G37*
G36*
G01*
X217197100Y-81547000D02*
X217707100Y-81547000D01*
G75*
G02*
X217957100Y-81797000I0J-250000D01*
G01*
X217957100Y-82307000D01*
G75*
G02*
X217707100Y-82557000I-250000J0D01*
G01*
X217197100Y-82557000D01*
G75*
G02*
X216947100Y-82307000I0J250000D01*
G01*
X216947100Y-81797000D01*
G75*
G02*
X217197100Y-81547000I250000J0D01*
G01*
G37*
G36*
G01*
X215947100Y-81547000D02*
X216457100Y-81547000D01*
G75*
G02*
X216707100Y-81797000I0J-250000D01*
G01*
X216707100Y-82307000D01*
G75*
G02*
X216457100Y-82557000I-250000J0D01*
G01*
X215947100Y-82557000D01*
G75*
G02*
X215697100Y-82307000I0J250000D01*
G01*
X215697100Y-81797000D01*
G75*
G02*
X215947100Y-81547000I250000J0D01*
G01*
G37*
G36*
G01*
X214697100Y-81547000D02*
X215207100Y-81547000D01*
G75*
G02*
X215457100Y-81797000I0J-250000D01*
G01*
X215457100Y-82307000D01*
G75*
G02*
X215207100Y-82557000I-250000J0D01*
G01*
X214697100Y-82557000D01*
G75*
G02*
X214447100Y-82307000I0J250000D01*
G01*
X214447100Y-81797000D01*
G75*
G02*
X214697100Y-81547000I250000J0D01*
G01*
G37*
G36*
G01*
X218447100Y-80297000D02*
X218957100Y-80297000D01*
G75*
G02*
X219207100Y-80547000I0J-250000D01*
G01*
X219207100Y-81057000D01*
G75*
G02*
X218957100Y-81307000I-250000J0D01*
G01*
X218447100Y-81307000D01*
G75*
G02*
X218197100Y-81057000I0J250000D01*
G01*
X218197100Y-80547000D01*
G75*
G02*
X218447100Y-80297000I250000J0D01*
G01*
G37*
G36*
G01*
X217197100Y-80297000D02*
X217707100Y-80297000D01*
G75*
G02*
X217957100Y-80547000I0J-250000D01*
G01*
X217957100Y-81057000D01*
G75*
G02*
X217707100Y-81307000I-250000J0D01*
G01*
X217197100Y-81307000D01*
G75*
G02*
X216947100Y-81057000I0J250000D01*
G01*
X216947100Y-80547000D01*
G75*
G02*
X217197100Y-80297000I250000J0D01*
G01*
G37*
G36*
G01*
X215947100Y-80297000D02*
X216457100Y-80297000D01*
G75*
G02*
X216707100Y-80547000I0J-250000D01*
G01*
X216707100Y-81057000D01*
G75*
G02*
X216457100Y-81307000I-250000J0D01*
G01*
X215947100Y-81307000D01*
G75*
G02*
X215697100Y-81057000I0J250000D01*
G01*
X215697100Y-80547000D01*
G75*
G02*
X215947100Y-80297000I250000J0D01*
G01*
G37*
G36*
G01*
X214697100Y-80297000D02*
X215207100Y-80297000D01*
G75*
G02*
X215457100Y-80547000I0J-250000D01*
G01*
X215457100Y-81057000D01*
G75*
G02*
X215207100Y-81307000I-250000J0D01*
G01*
X214697100Y-81307000D01*
G75*
G02*
X214447100Y-81057000I0J250000D01*
G01*
X214447100Y-80547000D01*
G75*
G02*
X214697100Y-80297000I250000J0D01*
G01*
G37*
G36*
G01*
X212002100Y-79777000D02*
X213327100Y-79777000D01*
G75*
G02*
X213402100Y-79852000I0J-75000D01*
G01*
X213402100Y-80002000D01*
G75*
G02*
X213327100Y-80077000I-75000J0D01*
G01*
X212002100Y-80077000D01*
G75*
G02*
X211927100Y-80002000I0J75000D01*
G01*
X211927100Y-79852000D01*
G75*
G02*
X212002100Y-79777000I75000J0D01*
G01*
G37*
G36*
G01*
X212002100Y-80277000D02*
X213327100Y-80277000D01*
G75*
G02*
X213402100Y-80352000I0J-75000D01*
G01*
X213402100Y-80502000D01*
G75*
G02*
X213327100Y-80577000I-75000J0D01*
G01*
X212002100Y-80577000D01*
G75*
G02*
X211927100Y-80502000I0J75000D01*
G01*
X211927100Y-80352000D01*
G75*
G02*
X212002100Y-80277000I75000J0D01*
G01*
G37*
G36*
G01*
X212002100Y-80777000D02*
X213327100Y-80777000D01*
G75*
G02*
X213402100Y-80852000I0J-75000D01*
G01*
X213402100Y-81002000D01*
G75*
G02*
X213327100Y-81077000I-75000J0D01*
G01*
X212002100Y-81077000D01*
G75*
G02*
X211927100Y-81002000I0J75000D01*
G01*
X211927100Y-80852000D01*
G75*
G02*
X212002100Y-80777000I75000J0D01*
G01*
G37*
G36*
G01*
X212002100Y-81277000D02*
X213327100Y-81277000D01*
G75*
G02*
X213402100Y-81352000I0J-75000D01*
G01*
X213402100Y-81502000D01*
G75*
G02*
X213327100Y-81577000I-75000J0D01*
G01*
X212002100Y-81577000D01*
G75*
G02*
X211927100Y-81502000I0J75000D01*
G01*
X211927100Y-81352000D01*
G75*
G02*
X212002100Y-81277000I75000J0D01*
G01*
G37*
G36*
G01*
X212002100Y-81777000D02*
X213327100Y-81777000D01*
G75*
G02*
X213402100Y-81852000I0J-75000D01*
G01*
X213402100Y-82002000D01*
G75*
G02*
X213327100Y-82077000I-75000J0D01*
G01*
X212002100Y-82077000D01*
G75*
G02*
X211927100Y-82002000I0J75000D01*
G01*
X211927100Y-81852000D01*
G75*
G02*
X212002100Y-81777000I75000J0D01*
G01*
G37*
G36*
G01*
X212002100Y-82277000D02*
X213327100Y-82277000D01*
G75*
G02*
X213402100Y-82352000I0J-75000D01*
G01*
X213402100Y-82502000D01*
G75*
G02*
X213327100Y-82577000I-75000J0D01*
G01*
X212002100Y-82577000D01*
G75*
G02*
X211927100Y-82502000I0J75000D01*
G01*
X211927100Y-82352000D01*
G75*
G02*
X212002100Y-82277000I75000J0D01*
G01*
G37*
G36*
G01*
X212002100Y-82777000D02*
X213327100Y-82777000D01*
G75*
G02*
X213402100Y-82852000I0J-75000D01*
G01*
X213402100Y-83002000D01*
G75*
G02*
X213327100Y-83077000I-75000J0D01*
G01*
X212002100Y-83077000D01*
G75*
G02*
X211927100Y-83002000I0J75000D01*
G01*
X211927100Y-82852000D01*
G75*
G02*
X212002100Y-82777000I75000J0D01*
G01*
G37*
G36*
G01*
X212002100Y-83277000D02*
X213327100Y-83277000D01*
G75*
G02*
X213402100Y-83352000I0J-75000D01*
G01*
X213402100Y-83502000D01*
G75*
G02*
X213327100Y-83577000I-75000J0D01*
G01*
X212002100Y-83577000D01*
G75*
G02*
X211927100Y-83502000I0J75000D01*
G01*
X211927100Y-83352000D01*
G75*
G02*
X212002100Y-83277000I75000J0D01*
G01*
G37*
G36*
G01*
X212002100Y-83777000D02*
X213327100Y-83777000D01*
G75*
G02*
X213402100Y-83852000I0J-75000D01*
G01*
X213402100Y-84002000D01*
G75*
G02*
X213327100Y-84077000I-75000J0D01*
G01*
X212002100Y-84077000D01*
G75*
G02*
X211927100Y-84002000I0J75000D01*
G01*
X211927100Y-83852000D01*
G75*
G02*
X212002100Y-83777000I75000J0D01*
G01*
G37*
G36*
G01*
X212002100Y-84277000D02*
X213327100Y-84277000D01*
G75*
G02*
X213402100Y-84352000I0J-75000D01*
G01*
X213402100Y-84502000D01*
G75*
G02*
X213327100Y-84577000I-75000J0D01*
G01*
X212002100Y-84577000D01*
G75*
G02*
X211927100Y-84502000I0J75000D01*
G01*
X211927100Y-84352000D01*
G75*
G02*
X212002100Y-84277000I75000J0D01*
G01*
G37*
G36*
G01*
X212002100Y-84777000D02*
X213327100Y-84777000D01*
G75*
G02*
X213402100Y-84852000I0J-75000D01*
G01*
X213402100Y-85002000D01*
G75*
G02*
X213327100Y-85077000I-75000J0D01*
G01*
X212002100Y-85077000D01*
G75*
G02*
X211927100Y-85002000I0J75000D01*
G01*
X211927100Y-84852000D01*
G75*
G02*
X212002100Y-84777000I75000J0D01*
G01*
G37*
G36*
G01*
X212002100Y-85277000D02*
X213327100Y-85277000D01*
G75*
G02*
X213402100Y-85352000I0J-75000D01*
G01*
X213402100Y-85502000D01*
G75*
G02*
X213327100Y-85577000I-75000J0D01*
G01*
X212002100Y-85577000D01*
G75*
G02*
X211927100Y-85502000I0J75000D01*
G01*
X211927100Y-85352000D01*
G75*
G02*
X212002100Y-85277000I75000J0D01*
G01*
G37*
G36*
G01*
X214002100Y-86102000D02*
X214152100Y-86102000D01*
G75*
G02*
X214227100Y-86177000I0J-75000D01*
G01*
X214227100Y-87502000D01*
G75*
G02*
X214152100Y-87577000I-75000J0D01*
G01*
X214002100Y-87577000D01*
G75*
G02*
X213927100Y-87502000I0J75000D01*
G01*
X213927100Y-86177000D01*
G75*
G02*
X214002100Y-86102000I75000J0D01*
G01*
G37*
G36*
G01*
X214502100Y-86102000D02*
X214652100Y-86102000D01*
G75*
G02*
X214727100Y-86177000I0J-75000D01*
G01*
X214727100Y-87502000D01*
G75*
G02*
X214652100Y-87577000I-75000J0D01*
G01*
X214502100Y-87577000D01*
G75*
G02*
X214427100Y-87502000I0J75000D01*
G01*
X214427100Y-86177000D01*
G75*
G02*
X214502100Y-86102000I75000J0D01*
G01*
G37*
G36*
G01*
X215002100Y-86102000D02*
X215152100Y-86102000D01*
G75*
G02*
X215227100Y-86177000I0J-75000D01*
G01*
X215227100Y-87502000D01*
G75*
G02*
X215152100Y-87577000I-75000J0D01*
G01*
X215002100Y-87577000D01*
G75*
G02*
X214927100Y-87502000I0J75000D01*
G01*
X214927100Y-86177000D01*
G75*
G02*
X215002100Y-86102000I75000J0D01*
G01*
G37*
G36*
G01*
X215502100Y-86102000D02*
X215652100Y-86102000D01*
G75*
G02*
X215727100Y-86177000I0J-75000D01*
G01*
X215727100Y-87502000D01*
G75*
G02*
X215652100Y-87577000I-75000J0D01*
G01*
X215502100Y-87577000D01*
G75*
G02*
X215427100Y-87502000I0J75000D01*
G01*
X215427100Y-86177000D01*
G75*
G02*
X215502100Y-86102000I75000J0D01*
G01*
G37*
G36*
G01*
X216002100Y-86102000D02*
X216152100Y-86102000D01*
G75*
G02*
X216227100Y-86177000I0J-75000D01*
G01*
X216227100Y-87502000D01*
G75*
G02*
X216152100Y-87577000I-75000J0D01*
G01*
X216002100Y-87577000D01*
G75*
G02*
X215927100Y-87502000I0J75000D01*
G01*
X215927100Y-86177000D01*
G75*
G02*
X216002100Y-86102000I75000J0D01*
G01*
G37*
G36*
G01*
X216502100Y-86102000D02*
X216652100Y-86102000D01*
G75*
G02*
X216727100Y-86177000I0J-75000D01*
G01*
X216727100Y-87502000D01*
G75*
G02*
X216652100Y-87577000I-75000J0D01*
G01*
X216502100Y-87577000D01*
G75*
G02*
X216427100Y-87502000I0J75000D01*
G01*
X216427100Y-86177000D01*
G75*
G02*
X216502100Y-86102000I75000J0D01*
G01*
G37*
G36*
G01*
X217002100Y-86102000D02*
X217152100Y-86102000D01*
G75*
G02*
X217227100Y-86177000I0J-75000D01*
G01*
X217227100Y-87502000D01*
G75*
G02*
X217152100Y-87577000I-75000J0D01*
G01*
X217002100Y-87577000D01*
G75*
G02*
X216927100Y-87502000I0J75000D01*
G01*
X216927100Y-86177000D01*
G75*
G02*
X217002100Y-86102000I75000J0D01*
G01*
G37*
G36*
G01*
X217502100Y-86102000D02*
X217652100Y-86102000D01*
G75*
G02*
X217727100Y-86177000I0J-75000D01*
G01*
X217727100Y-87502000D01*
G75*
G02*
X217652100Y-87577000I-75000J0D01*
G01*
X217502100Y-87577000D01*
G75*
G02*
X217427100Y-87502000I0J75000D01*
G01*
X217427100Y-86177000D01*
G75*
G02*
X217502100Y-86102000I75000J0D01*
G01*
G37*
G36*
G01*
X218002100Y-86102000D02*
X218152100Y-86102000D01*
G75*
G02*
X218227100Y-86177000I0J-75000D01*
G01*
X218227100Y-87502000D01*
G75*
G02*
X218152100Y-87577000I-75000J0D01*
G01*
X218002100Y-87577000D01*
G75*
G02*
X217927100Y-87502000I0J75000D01*
G01*
X217927100Y-86177000D01*
G75*
G02*
X218002100Y-86102000I75000J0D01*
G01*
G37*
G36*
G01*
X218502100Y-86102000D02*
X218652100Y-86102000D01*
G75*
G02*
X218727100Y-86177000I0J-75000D01*
G01*
X218727100Y-87502000D01*
G75*
G02*
X218652100Y-87577000I-75000J0D01*
G01*
X218502100Y-87577000D01*
G75*
G02*
X218427100Y-87502000I0J75000D01*
G01*
X218427100Y-86177000D01*
G75*
G02*
X218502100Y-86102000I75000J0D01*
G01*
G37*
G36*
G01*
X219002100Y-86102000D02*
X219152100Y-86102000D01*
G75*
G02*
X219227100Y-86177000I0J-75000D01*
G01*
X219227100Y-87502000D01*
G75*
G02*
X219152100Y-87577000I-75000J0D01*
G01*
X219002100Y-87577000D01*
G75*
G02*
X218927100Y-87502000I0J75000D01*
G01*
X218927100Y-86177000D01*
G75*
G02*
X219002100Y-86102000I75000J0D01*
G01*
G37*
G36*
G01*
X219502100Y-86102000D02*
X219652100Y-86102000D01*
G75*
G02*
X219727100Y-86177000I0J-75000D01*
G01*
X219727100Y-87502000D01*
G75*
G02*
X219652100Y-87577000I-75000J0D01*
G01*
X219502100Y-87577000D01*
G75*
G02*
X219427100Y-87502000I0J75000D01*
G01*
X219427100Y-86177000D01*
G75*
G02*
X219502100Y-86102000I75000J0D01*
G01*
G37*
G36*
G01*
X220327100Y-85277000D02*
X221652100Y-85277000D01*
G75*
G02*
X221727100Y-85352000I0J-75000D01*
G01*
X221727100Y-85502000D01*
G75*
G02*
X221652100Y-85577000I-75000J0D01*
G01*
X220327100Y-85577000D01*
G75*
G02*
X220252100Y-85502000I0J75000D01*
G01*
X220252100Y-85352000D01*
G75*
G02*
X220327100Y-85277000I75000J0D01*
G01*
G37*
G36*
G01*
X220327100Y-84777000D02*
X221652100Y-84777000D01*
G75*
G02*
X221727100Y-84852000I0J-75000D01*
G01*
X221727100Y-85002000D01*
G75*
G02*
X221652100Y-85077000I-75000J0D01*
G01*
X220327100Y-85077000D01*
G75*
G02*
X220252100Y-85002000I0J75000D01*
G01*
X220252100Y-84852000D01*
G75*
G02*
X220327100Y-84777000I75000J0D01*
G01*
G37*
G36*
G01*
X220327100Y-84277000D02*
X221652100Y-84277000D01*
G75*
G02*
X221727100Y-84352000I0J-75000D01*
G01*
X221727100Y-84502000D01*
G75*
G02*
X221652100Y-84577000I-75000J0D01*
G01*
X220327100Y-84577000D01*
G75*
G02*
X220252100Y-84502000I0J75000D01*
G01*
X220252100Y-84352000D01*
G75*
G02*
X220327100Y-84277000I75000J0D01*
G01*
G37*
G36*
G01*
X220327100Y-83777000D02*
X221652100Y-83777000D01*
G75*
G02*
X221727100Y-83852000I0J-75000D01*
G01*
X221727100Y-84002000D01*
G75*
G02*
X221652100Y-84077000I-75000J0D01*
G01*
X220327100Y-84077000D01*
G75*
G02*
X220252100Y-84002000I0J75000D01*
G01*
X220252100Y-83852000D01*
G75*
G02*
X220327100Y-83777000I75000J0D01*
G01*
G37*
G36*
G01*
X220327100Y-83277000D02*
X221652100Y-83277000D01*
G75*
G02*
X221727100Y-83352000I0J-75000D01*
G01*
X221727100Y-83502000D01*
G75*
G02*
X221652100Y-83577000I-75000J0D01*
G01*
X220327100Y-83577000D01*
G75*
G02*
X220252100Y-83502000I0J75000D01*
G01*
X220252100Y-83352000D01*
G75*
G02*
X220327100Y-83277000I75000J0D01*
G01*
G37*
G36*
G01*
X220327100Y-82777000D02*
X221652100Y-82777000D01*
G75*
G02*
X221727100Y-82852000I0J-75000D01*
G01*
X221727100Y-83002000D01*
G75*
G02*
X221652100Y-83077000I-75000J0D01*
G01*
X220327100Y-83077000D01*
G75*
G02*
X220252100Y-83002000I0J75000D01*
G01*
X220252100Y-82852000D01*
G75*
G02*
X220327100Y-82777000I75000J0D01*
G01*
G37*
G36*
G01*
X220327100Y-82277000D02*
X221652100Y-82277000D01*
G75*
G02*
X221727100Y-82352000I0J-75000D01*
G01*
X221727100Y-82502000D01*
G75*
G02*
X221652100Y-82577000I-75000J0D01*
G01*
X220327100Y-82577000D01*
G75*
G02*
X220252100Y-82502000I0J75000D01*
G01*
X220252100Y-82352000D01*
G75*
G02*
X220327100Y-82277000I75000J0D01*
G01*
G37*
G36*
G01*
X220327100Y-81777000D02*
X221652100Y-81777000D01*
G75*
G02*
X221727100Y-81852000I0J-75000D01*
G01*
X221727100Y-82002000D01*
G75*
G02*
X221652100Y-82077000I-75000J0D01*
G01*
X220327100Y-82077000D01*
G75*
G02*
X220252100Y-82002000I0J75000D01*
G01*
X220252100Y-81852000D01*
G75*
G02*
X220327100Y-81777000I75000J0D01*
G01*
G37*
G36*
G01*
X220327100Y-81277000D02*
X221652100Y-81277000D01*
G75*
G02*
X221727100Y-81352000I0J-75000D01*
G01*
X221727100Y-81502000D01*
G75*
G02*
X221652100Y-81577000I-75000J0D01*
G01*
X220327100Y-81577000D01*
G75*
G02*
X220252100Y-81502000I0J75000D01*
G01*
X220252100Y-81352000D01*
G75*
G02*
X220327100Y-81277000I75000J0D01*
G01*
G37*
G36*
G01*
X220327100Y-80777000D02*
X221652100Y-80777000D01*
G75*
G02*
X221727100Y-80852000I0J-75000D01*
G01*
X221727100Y-81002000D01*
G75*
G02*
X221652100Y-81077000I-75000J0D01*
G01*
X220327100Y-81077000D01*
G75*
G02*
X220252100Y-81002000I0J75000D01*
G01*
X220252100Y-80852000D01*
G75*
G02*
X220327100Y-80777000I75000J0D01*
G01*
G37*
G36*
G01*
X220327100Y-80277000D02*
X221652100Y-80277000D01*
G75*
G02*
X221727100Y-80352000I0J-75000D01*
G01*
X221727100Y-80502000D01*
G75*
G02*
X221652100Y-80577000I-75000J0D01*
G01*
X220327100Y-80577000D01*
G75*
G02*
X220252100Y-80502000I0J75000D01*
G01*
X220252100Y-80352000D01*
G75*
G02*
X220327100Y-80277000I75000J0D01*
G01*
G37*
G36*
G01*
X220327100Y-79777000D02*
X221652100Y-79777000D01*
G75*
G02*
X221727100Y-79852000I0J-75000D01*
G01*
X221727100Y-80002000D01*
G75*
G02*
X221652100Y-80077000I-75000J0D01*
G01*
X220327100Y-80077000D01*
G75*
G02*
X220252100Y-80002000I0J75000D01*
G01*
X220252100Y-79852000D01*
G75*
G02*
X220327100Y-79777000I75000J0D01*
G01*
G37*
G36*
G01*
X219502100Y-77777000D02*
X219652100Y-77777000D01*
G75*
G02*
X219727100Y-77852000I0J-75000D01*
G01*
X219727100Y-79177000D01*
G75*
G02*
X219652100Y-79252000I-75000J0D01*
G01*
X219502100Y-79252000D01*
G75*
G02*
X219427100Y-79177000I0J75000D01*
G01*
X219427100Y-77852000D01*
G75*
G02*
X219502100Y-77777000I75000J0D01*
G01*
G37*
G36*
G01*
X219002100Y-77777000D02*
X219152100Y-77777000D01*
G75*
G02*
X219227100Y-77852000I0J-75000D01*
G01*
X219227100Y-79177000D01*
G75*
G02*
X219152100Y-79252000I-75000J0D01*
G01*
X219002100Y-79252000D01*
G75*
G02*
X218927100Y-79177000I0J75000D01*
G01*
X218927100Y-77852000D01*
G75*
G02*
X219002100Y-77777000I75000J0D01*
G01*
G37*
G36*
G01*
X218502100Y-77777000D02*
X218652100Y-77777000D01*
G75*
G02*
X218727100Y-77852000I0J-75000D01*
G01*
X218727100Y-79177000D01*
G75*
G02*
X218652100Y-79252000I-75000J0D01*
G01*
X218502100Y-79252000D01*
G75*
G02*
X218427100Y-79177000I0J75000D01*
G01*
X218427100Y-77852000D01*
G75*
G02*
X218502100Y-77777000I75000J0D01*
G01*
G37*
G36*
G01*
X218002100Y-77777000D02*
X218152100Y-77777000D01*
G75*
G02*
X218227100Y-77852000I0J-75000D01*
G01*
X218227100Y-79177000D01*
G75*
G02*
X218152100Y-79252000I-75000J0D01*
G01*
X218002100Y-79252000D01*
G75*
G02*
X217927100Y-79177000I0J75000D01*
G01*
X217927100Y-77852000D01*
G75*
G02*
X218002100Y-77777000I75000J0D01*
G01*
G37*
G36*
G01*
X217502100Y-77777000D02*
X217652100Y-77777000D01*
G75*
G02*
X217727100Y-77852000I0J-75000D01*
G01*
X217727100Y-79177000D01*
G75*
G02*
X217652100Y-79252000I-75000J0D01*
G01*
X217502100Y-79252000D01*
G75*
G02*
X217427100Y-79177000I0J75000D01*
G01*
X217427100Y-77852000D01*
G75*
G02*
X217502100Y-77777000I75000J0D01*
G01*
G37*
G36*
G01*
X217002100Y-77777000D02*
X217152100Y-77777000D01*
G75*
G02*
X217227100Y-77852000I0J-75000D01*
G01*
X217227100Y-79177000D01*
G75*
G02*
X217152100Y-79252000I-75000J0D01*
G01*
X217002100Y-79252000D01*
G75*
G02*
X216927100Y-79177000I0J75000D01*
G01*
X216927100Y-77852000D01*
G75*
G02*
X217002100Y-77777000I75000J0D01*
G01*
G37*
G36*
G01*
X216502100Y-77777000D02*
X216652100Y-77777000D01*
G75*
G02*
X216727100Y-77852000I0J-75000D01*
G01*
X216727100Y-79177000D01*
G75*
G02*
X216652100Y-79252000I-75000J0D01*
G01*
X216502100Y-79252000D01*
G75*
G02*
X216427100Y-79177000I0J75000D01*
G01*
X216427100Y-77852000D01*
G75*
G02*
X216502100Y-77777000I75000J0D01*
G01*
G37*
G36*
G01*
X216002100Y-77777000D02*
X216152100Y-77777000D01*
G75*
G02*
X216227100Y-77852000I0J-75000D01*
G01*
X216227100Y-79177000D01*
G75*
G02*
X216152100Y-79252000I-75000J0D01*
G01*
X216002100Y-79252000D01*
G75*
G02*
X215927100Y-79177000I0J75000D01*
G01*
X215927100Y-77852000D01*
G75*
G02*
X216002100Y-77777000I75000J0D01*
G01*
G37*
G36*
G01*
X215502100Y-77777000D02*
X215652100Y-77777000D01*
G75*
G02*
X215727100Y-77852000I0J-75000D01*
G01*
X215727100Y-79177000D01*
G75*
G02*
X215652100Y-79252000I-75000J0D01*
G01*
X215502100Y-79252000D01*
G75*
G02*
X215427100Y-79177000I0J75000D01*
G01*
X215427100Y-77852000D01*
G75*
G02*
X215502100Y-77777000I75000J0D01*
G01*
G37*
G36*
G01*
X215002100Y-77777000D02*
X215152100Y-77777000D01*
G75*
G02*
X215227100Y-77852000I0J-75000D01*
G01*
X215227100Y-79177000D01*
G75*
G02*
X215152100Y-79252000I-75000J0D01*
G01*
X215002100Y-79252000D01*
G75*
G02*
X214927100Y-79177000I0J75000D01*
G01*
X214927100Y-77852000D01*
G75*
G02*
X215002100Y-77777000I75000J0D01*
G01*
G37*
G36*
G01*
X214502100Y-77777000D02*
X214652100Y-77777000D01*
G75*
G02*
X214727100Y-77852000I0J-75000D01*
G01*
X214727100Y-79177000D01*
G75*
G02*
X214652100Y-79252000I-75000J0D01*
G01*
X214502100Y-79252000D01*
G75*
G02*
X214427100Y-79177000I0J75000D01*
G01*
X214427100Y-77852000D01*
G75*
G02*
X214502100Y-77777000I75000J0D01*
G01*
G37*
G36*
G01*
X214002100Y-77777000D02*
X214152100Y-77777000D01*
G75*
G02*
X214227100Y-77852000I0J-75000D01*
G01*
X214227100Y-79177000D01*
G75*
G02*
X214152100Y-79252000I-75000J0D01*
G01*
X214002100Y-79252000D01*
G75*
G02*
X213927100Y-79177000I0J75000D01*
G01*
X213927100Y-77852000D01*
G75*
G02*
X214002100Y-77777000I75000J0D01*
G01*
G37*
G36*
G01*
X211003400Y-88459300D02*
X211003400Y-88934300D01*
G75*
G02*
X210765900Y-89171800I-237500J0D01*
G01*
X210190900Y-89171800D01*
G75*
G02*
X209953400Y-88934300I0J237500D01*
G01*
X209953400Y-88459300D01*
G75*
G02*
X210190900Y-88221800I237500J0D01*
G01*
X210765900Y-88221800D01*
G75*
G02*
X211003400Y-88459300I0J-237500D01*
G01*
G37*
G36*
G01*
X212753400Y-88459300D02*
X212753400Y-88934300D01*
G75*
G02*
X212515900Y-89171800I-237500J0D01*
G01*
X211940900Y-89171800D01*
G75*
G02*
X211703400Y-88934300I0J237500D01*
G01*
X211703400Y-88459300D01*
G75*
G02*
X211940900Y-88221800I237500J0D01*
G01*
X212515900Y-88221800D01*
G75*
G02*
X212753400Y-88459300I0J-237500D01*
G01*
G37*
G36*
G01*
X209352400Y-79442300D02*
X209352400Y-79917300D01*
G75*
G02*
X209114900Y-80154800I-237500J0D01*
G01*
X208539900Y-80154800D01*
G75*
G02*
X208302400Y-79917300I0J237500D01*
G01*
X208302400Y-79442300D01*
G75*
G02*
X208539900Y-79204800I237500J0D01*
G01*
X209114900Y-79204800D01*
G75*
G02*
X209352400Y-79442300I0J-237500D01*
G01*
G37*
G36*
G01*
X211102400Y-79442300D02*
X211102400Y-79917300D01*
G75*
G02*
X210864900Y-80154800I-237500J0D01*
G01*
X210289900Y-80154800D01*
G75*
G02*
X210052400Y-79917300I0J237500D01*
G01*
X210052400Y-79442300D01*
G75*
G02*
X210289900Y-79204800I237500J0D01*
G01*
X210864900Y-79204800D01*
G75*
G02*
X211102400Y-79442300I0J-237500D01*
G01*
G37*
D10*
X361738600Y-76962500D03*
X367072600Y-76962500D03*
X361738600Y-75362500D03*
X367072600Y-75362500D03*
D11*
X358765600Y-86042500D03*
X371315600Y-83502500D03*
D12*
X369703693Y-76007340D03*
X369703693Y-78807340D03*
D13*
G36*
X244038230Y-136266381D02*
G01*
X243627806Y-135138750D01*
X245131314Y-134591517D01*
X245541738Y-135719148D01*
X244038230Y-136266381D01*
G37*
G36*
X246669370Y-135308724D02*
G01*
X246258946Y-134181093D01*
X247762454Y-133633860D01*
X248172878Y-134761491D01*
X246669370Y-135308724D01*
G37*
G36*
X242001637Y-139574338D02*
G01*
X240404159Y-140155772D01*
X239446503Y-137524632D01*
X241043981Y-136943198D01*
X242001637Y-139574338D01*
G37*
G36*
X235322465Y-128649927D02*
G01*
X233724987Y-129231361D01*
X232767331Y-126600221D01*
X234364809Y-126018787D01*
X235322465Y-128649927D01*
G37*
G36*
X247558687Y-132504341D02*
G01*
X246900902Y-132743755D01*
X246285265Y-131052309D01*
X246943050Y-130812895D01*
X247558687Y-132504341D01*
G37*
G36*
X245734352Y-127492021D02*
G01*
X245076567Y-127731435D01*
X244460930Y-126039989D01*
X245118715Y-125800575D01*
X245734352Y-127492021D01*
G37*
G36*
X246055179Y-133051574D02*
G01*
X245397394Y-133290988D01*
X244781757Y-131599542D01*
X245439542Y-131360128D01*
X246055179Y-133051574D01*
G37*
G36*
X244230844Y-128039253D02*
G01*
X243573059Y-128278667D01*
X242957422Y-126587221D01*
X243615207Y-126347807D01*
X244230844Y-128039253D01*
G37*
G36*
X219555686Y-132624059D02*
G01*
X219966110Y-133751690D01*
X218462602Y-134298923D01*
X218052178Y-133171292D01*
X219555686Y-132624059D01*
G37*
G36*
X216924546Y-133581716D02*
G01*
X217334970Y-134709347D01*
X215831462Y-135256580D01*
X215421038Y-134128949D01*
X216924546Y-133581716D01*
G37*
G36*
X221592279Y-129316102D02*
G01*
X223189757Y-128734668D01*
X224147413Y-131365808D01*
X222549935Y-131947242D01*
X221592279Y-129316102D01*
G37*
G36*
X228271451Y-140240513D02*
G01*
X229868929Y-139659079D01*
X230826585Y-142290219D01*
X229229107Y-142871653D01*
X228271451Y-140240513D01*
G37*
G36*
X216035229Y-136386099D02*
G01*
X216693014Y-136146685D01*
X217308651Y-137838131D01*
X216650866Y-138077545D01*
X216035229Y-136386099D01*
G37*
G36*
X217859564Y-141398419D02*
G01*
X218517349Y-141159005D01*
X219132986Y-142850451D01*
X218475201Y-143089865D01*
X217859564Y-141398419D01*
G37*
G36*
X217538737Y-135838866D02*
G01*
X218196522Y-135599452D01*
X218812159Y-137290898D01*
X218154374Y-137530312D01*
X217538737Y-135838866D01*
G37*
G36*
X219363072Y-140851187D02*
G01*
X220020857Y-140611773D01*
X220636494Y-142303219D01*
X219978709Y-142542633D01*
X219363072Y-140851187D01*
G37*
D10*
X378333000Y-96012500D03*
X383667000Y-96012500D03*
X378333000Y-94412500D03*
X383667000Y-94412500D03*
D11*
X375360000Y-105092500D03*
X387910000Y-102552500D03*
D12*
X386298093Y-95057340D03*
X386298093Y-97857340D03*
D10*
X359283000Y-96012500D03*
X364617000Y-96012500D03*
X359283000Y-94412500D03*
X364617000Y-94412500D03*
D11*
X356310000Y-105092500D03*
X368860000Y-102552500D03*
D12*
X367248093Y-95057340D03*
X367248093Y-97857340D03*
X343436093Y-97857340D03*
X343436093Y-95057340D03*
D11*
X345048000Y-102552500D03*
X332498000Y-105092500D03*
D10*
X340805000Y-94412500D03*
X335471000Y-94412500D03*
X340805000Y-96012500D03*
X335471000Y-96012500D03*
X349758000Y-19812500D03*
X355092000Y-19812500D03*
X349758000Y-18212500D03*
X355092000Y-18212500D03*
D11*
X346785000Y-28892500D03*
X359335000Y-26352500D03*
D12*
X357723093Y-18857340D03*
X357723093Y-21657340D03*
D10*
X378333000Y-115062500D03*
X383667000Y-115062500D03*
X378333000Y-113462500D03*
X383667000Y-113462500D03*
D11*
X375360000Y-124142500D03*
X387910000Y-121602500D03*
D12*
X386298093Y-114107340D03*
X386298093Y-116907340D03*
D10*
X359283000Y-115062500D03*
X364617000Y-115062500D03*
X359283000Y-113462500D03*
X364617000Y-113462500D03*
D11*
X356310000Y-124142500D03*
X368860000Y-121602500D03*
D12*
X367248093Y-114107340D03*
X367248093Y-116907340D03*
D10*
X340233000Y-115062500D03*
X345567000Y-115062500D03*
X340233000Y-113462500D03*
X345567000Y-113462500D03*
D11*
X337260000Y-124142500D03*
X349810000Y-121602500D03*
D12*
X348198093Y-114107340D03*
X348198093Y-116907340D03*
D10*
X318801500Y-115062500D03*
X324135500Y-115062500D03*
X318801500Y-113462500D03*
X324135500Y-113462500D03*
D11*
X315828500Y-124142500D03*
X328378500Y-121602500D03*
D12*
X326766593Y-114107340D03*
X326766593Y-116907340D03*
D10*
X235458000Y-96012500D03*
X240792000Y-96012500D03*
X235458000Y-94412500D03*
X240792000Y-94412500D03*
D11*
X232485000Y-105092500D03*
X245035000Y-102552500D03*
D12*
X243423093Y-95057340D03*
X243423093Y-97857340D03*
D10*
X235458000Y-76962500D03*
X240792000Y-76962500D03*
X235458000Y-75362500D03*
X240792000Y-75362500D03*
D11*
X232485000Y-86042500D03*
X245035000Y-83502500D03*
D12*
X243423093Y-76007340D03*
X243423093Y-78807340D03*
X381536093Y-59757340D03*
X381536093Y-56957340D03*
D11*
X383148000Y-64452500D03*
X370598000Y-66992500D03*
D10*
X378905000Y-56312500D03*
X373571000Y-56312500D03*
X378905000Y-57912500D03*
X373571000Y-57912500D03*
X235458000Y-57912500D03*
X240792000Y-57912500D03*
X235458000Y-56312500D03*
X240792000Y-56312500D03*
D11*
X232485000Y-66992500D03*
X245035000Y-64452500D03*
D12*
X243423093Y-56957340D03*
X243423093Y-59757340D03*
X381536093Y-40707340D03*
X381536093Y-37907340D03*
D11*
X383148000Y-45402500D03*
X370598000Y-47942500D03*
D10*
X378905000Y-37262500D03*
X373571000Y-37262500D03*
X378905000Y-38862500D03*
X373571000Y-38862500D03*
X235458000Y-38862500D03*
X240792000Y-38862500D03*
X235458000Y-37262500D03*
X240792000Y-37262500D03*
D11*
X232485000Y-47942500D03*
X245035000Y-45402500D03*
D12*
X243423093Y-37907340D03*
X243423093Y-40707340D03*
D10*
X235458000Y-19812500D03*
X240792000Y-19812500D03*
X235458000Y-18212500D03*
X240792000Y-18212500D03*
D11*
X232485000Y-28892500D03*
X245035000Y-26352500D03*
D12*
X243423093Y-18857340D03*
X243423093Y-21657340D03*
D14*
X217226100Y-27165400D03*
X217226100Y-28765400D03*
X213126100Y-27165400D03*
X213126100Y-28765400D03*
D10*
X294989000Y-115062500D03*
X300323000Y-115062500D03*
X294989000Y-113462500D03*
X300323000Y-113462500D03*
D11*
X292016000Y-124142500D03*
X304566000Y-121602500D03*
D12*
X302954093Y-114107340D03*
X302954093Y-116907340D03*
D10*
X271176500Y-115062500D03*
X276510500Y-115062500D03*
X271176500Y-113462500D03*
X276510500Y-113462500D03*
D11*
X268203500Y-124142500D03*
X280753500Y-121602500D03*
D12*
X279141593Y-114107340D03*
X279141593Y-116907340D03*
D10*
X311658000Y-96012500D03*
X316992000Y-96012500D03*
X311658000Y-94412500D03*
X316992000Y-94412500D03*
D11*
X308685000Y-105092500D03*
X321235000Y-102552500D03*
D12*
X319623093Y-95057340D03*
X319623093Y-97857340D03*
D10*
X292608000Y-96012500D03*
X297942000Y-96012500D03*
X292608000Y-94412500D03*
X297942000Y-94412500D03*
D11*
X289635000Y-105092500D03*
X302185000Y-102552500D03*
D12*
X300573093Y-95057340D03*
X300573093Y-97857340D03*
D10*
X273558000Y-96012500D03*
X278892000Y-96012500D03*
X273558000Y-94412500D03*
X278892000Y-94412500D03*
D11*
X270585000Y-105092500D03*
X283135000Y-102552500D03*
D12*
X281523093Y-95057340D03*
X281523093Y-97857340D03*
D10*
X254508000Y-96012500D03*
X259842000Y-96012500D03*
X254508000Y-94412500D03*
X259842000Y-94412500D03*
D11*
X251535000Y-105092500D03*
X264085000Y-102552500D03*
D12*
X262473093Y-95057340D03*
X262473093Y-97857340D03*
D10*
X330708000Y-76962500D03*
X336042000Y-76962500D03*
X330708000Y-75362500D03*
X336042000Y-75362500D03*
D11*
X327735000Y-86042500D03*
X340285000Y-83502500D03*
D12*
X338673093Y-76007340D03*
X338673093Y-78807340D03*
D10*
X311658000Y-76962500D03*
X316992000Y-76962500D03*
X311658000Y-75362500D03*
X316992000Y-75362500D03*
D11*
X308685000Y-86042500D03*
X321235000Y-83502500D03*
D12*
X319623093Y-76007340D03*
X319623093Y-78807340D03*
D10*
X292608000Y-76962500D03*
X297942000Y-76962500D03*
X292608000Y-75362500D03*
X297942000Y-75362500D03*
D11*
X289635000Y-86042500D03*
X302185000Y-83502500D03*
D12*
X300573093Y-76007340D03*
X300573093Y-78807340D03*
D10*
X273558000Y-76962500D03*
X278892000Y-76962500D03*
X273558000Y-75362500D03*
X278892000Y-75362500D03*
D11*
X270585000Y-86042500D03*
X283135000Y-83502500D03*
D12*
X281523093Y-76007340D03*
X281523093Y-78807340D03*
D10*
X254508000Y-76962500D03*
X259842000Y-76962500D03*
X254508000Y-75362500D03*
X259842000Y-75362500D03*
D11*
X251535000Y-86042500D03*
X264085000Y-83502500D03*
D12*
X262473093Y-76007340D03*
X262473093Y-78807340D03*
D10*
X349758000Y-57912500D03*
X355092000Y-57912500D03*
X349758000Y-56312500D03*
X355092000Y-56312500D03*
D11*
X346785000Y-66992500D03*
X359335000Y-64452500D03*
D12*
X357723093Y-56957340D03*
X357723093Y-59757340D03*
D10*
X330708000Y-57912500D03*
X336042000Y-57912500D03*
X330708000Y-56312500D03*
X336042000Y-56312500D03*
D11*
X327735000Y-66992500D03*
X340285000Y-64452500D03*
D12*
X338673093Y-56957340D03*
X338673093Y-59757340D03*
D10*
X311658000Y-57912500D03*
X316992000Y-57912500D03*
X311658000Y-56312500D03*
X316992000Y-56312500D03*
D11*
X308685000Y-66992500D03*
X321235000Y-64452500D03*
D12*
X319623093Y-56957340D03*
X319623093Y-59757340D03*
D10*
X292608000Y-57912500D03*
X297942000Y-57912500D03*
X292608000Y-56312500D03*
X297942000Y-56312500D03*
D11*
X289635000Y-66992500D03*
X302185000Y-64452500D03*
D12*
X300573093Y-56957340D03*
X300573093Y-59757340D03*
D10*
X273558000Y-57912500D03*
X278892000Y-57912500D03*
X273558000Y-56312500D03*
X278892000Y-56312500D03*
D11*
X270585000Y-66992500D03*
X283135000Y-64452500D03*
D12*
X281523093Y-56957340D03*
X281523093Y-59757340D03*
D10*
X254508000Y-57912500D03*
X259842000Y-57912500D03*
X254508000Y-56312500D03*
X259842000Y-56312500D03*
D11*
X251535000Y-66992500D03*
X264085000Y-64452500D03*
D12*
X262473093Y-56957340D03*
X262473093Y-59757340D03*
D10*
X349758000Y-38862500D03*
X355092000Y-38862500D03*
X349758000Y-37262500D03*
X355092000Y-37262500D03*
D11*
X346785000Y-47942500D03*
X359335000Y-45402500D03*
D12*
X357723093Y-37907340D03*
X357723093Y-40707340D03*
D10*
X330708000Y-38862500D03*
X336042000Y-38862500D03*
X330708000Y-37262500D03*
X336042000Y-37262500D03*
D11*
X327735000Y-47942500D03*
X340285000Y-45402500D03*
D12*
X338673093Y-37907340D03*
X338673093Y-40707340D03*
D10*
X311658000Y-38862500D03*
X316992000Y-38862500D03*
X311658000Y-37262500D03*
X316992000Y-37262500D03*
D11*
X308685000Y-47942500D03*
X321235000Y-45402500D03*
D12*
X319623093Y-37907340D03*
X319623093Y-40707340D03*
D10*
X292608000Y-38862500D03*
X297942000Y-38862500D03*
X292608000Y-37262500D03*
X297942000Y-37262500D03*
D11*
X289635000Y-47942500D03*
X302185000Y-45402500D03*
D12*
X300573093Y-37907340D03*
X300573093Y-40707340D03*
D10*
X273558000Y-38862500D03*
X278892000Y-38862500D03*
X273558000Y-37262500D03*
X278892000Y-37262500D03*
D11*
X270585000Y-47942500D03*
X283135000Y-45402500D03*
D12*
X281523093Y-37907340D03*
X281523093Y-40707340D03*
D10*
X254508000Y-38862500D03*
X259842000Y-38862500D03*
X254508000Y-37262500D03*
X259842000Y-37262500D03*
D11*
X251535000Y-47942500D03*
X264085000Y-45402500D03*
D12*
X262473093Y-37907340D03*
X262473093Y-40707340D03*
D10*
X330708000Y-19812500D03*
X336042000Y-19812500D03*
X330708000Y-18212500D03*
X336042000Y-18212500D03*
D11*
X327735000Y-28892500D03*
X340285000Y-26352500D03*
D12*
X338673093Y-18857340D03*
X338673093Y-21657340D03*
D10*
X311658000Y-19812500D03*
X316992000Y-19812500D03*
X311658000Y-18212500D03*
X316992000Y-18212500D03*
D11*
X308685000Y-28892500D03*
X321235000Y-26352500D03*
D12*
X319623093Y-18857340D03*
X319623093Y-21657340D03*
D10*
X292608000Y-19812500D03*
X297942000Y-19812500D03*
X292608000Y-18212500D03*
X297942000Y-18212500D03*
D11*
X289635000Y-28892500D03*
X302185000Y-26352500D03*
D12*
X300573093Y-18857340D03*
X300573093Y-21657340D03*
D10*
X273558000Y-19812500D03*
X278892000Y-19812500D03*
X273558000Y-18212500D03*
X278892000Y-18212500D03*
D11*
X270585000Y-28892500D03*
X283135000Y-26352500D03*
D12*
X281523093Y-18857340D03*
X281523093Y-21657340D03*
D10*
X254508000Y-19812500D03*
X259842000Y-19812500D03*
X254508000Y-18212500D03*
X259842000Y-18212500D03*
D11*
X251535000Y-28892500D03*
X264085000Y-26352500D03*
D12*
X262473093Y-18857340D03*
X262473093Y-21657340D03*
M02*
