  0
SECTION
  2
HEADER
  9
$ANGBASE
  50
0.0
  9
$ANGDIR
  70
1
  9
$MEASUREMENT
  70
1
  0
ENDSEC
  0
SECTION
  2
TABLES
  0
TABLE
  2
LTYPE
  70
4
  0
LTYPE
  5
40F
  2
CONTINUOUS
  70
0
  3
Solid line
  72
65
  73
0
  40
0.0
  0
LTYPE
  5
410
  2
DASHDOT
 70
0
  3
Dash Dot ____ _ ____ _
 72
65
 73
4
 40
2.0
 49
1.25
 49
-0.25
 49
0.25
 49
-0.25
  0
LTYPE
  5
411
  2
DASHED
 70
0
  3
Dashed __ __ __ __ __
 72
65
 73
2
 40
0.75
 49
0.5
 49
-0.25
  0
LTYPE
  5
43B
  2
DOTTED
 70
0
  3
Dotted .  .  .  .
 72
65
 73
2
 40
0.2
 49
0.0
 49
-0.2
  0
ENDTAB
  0
TABLE
  2
STYLE
  70
4
  0
STYLE
  2
KICAD
  70
0
  40
0
  41
1
  42
1
  50
0
  71
0
  3
isocp.shx
  0
STYLE
  2
KICADB
  70
0
  40
0
  41
1
  42
1
  50
0
  71
0
  3
isocp.shx
  0
STYLE
  2
KICADI
  70
0
  40
0
  41
1
  42
1
  50
15
  71
0
  3
isocp.shx
  0
STYLE
  2
KICADBI
  70
0
  40
0
  41
1
  42
1
  50
15
  71
0
  3
isocp.shx
  0
ENDTAB
  0
TABLE
  2
LAYER
  70
1
  0
LAYER
  2
BLACK
  70
0
  62
7
  6
CONTINUOUS
  0
ENDTAB
  0
ENDSEC
  0
SECTION
  2
ENTITIES
0
LINE
8
BLACK
6
CONTINUOUS
10
259.544
20
-145.248
11
253.48
21
-128.588
0
LINE
8
BLACK
6
CONTINUOUS
10
201.375
20
-14.4
11
201.375
21
-117.04
0
LINE
8
BLACK
6
CONTINUOUS
10
253.48
20
-128.588
11
390.55
21
-128.588
0
LINE
8
BLACK
6
CONTINUOUS
10
390.55
20
-14.4
11
201.375
21
-14.4
0
LINE
8
BLACK
6
CONTINUOUS
10
390.55
20
-128.588
11
390.55
21
-14.4
0
LINE
8
BLACK
6
CONTINUOUS
10
217.213
20
-160.545
11
259.544
21
-145.248
0
LINE
8
BLACK
6
CONTINUOUS
10
201.375
20
-117.04
11
217.213
21
-160.545
0
LINE
8
BLACK
6
CONTINUOUS
10
207.293
20
-83.874
11
207.693
21
-84.274
0
LINE
8
BLACK
6
CONTINUOUS
10
207.693
20
-83.874
11
207.293
21
-84.274
0
LINE
8
BLACK
6
CONTINUOUS
10
207.293
20
-85.4996
11
207.693
21
-85.8996
0
LINE
8
BLACK
6
CONTINUOUS
10
207.693
20
-85.4996
11
207.293
21
-85.8996
0
LINE
8
BLACK
6
CONTINUOUS
10
207.318
20
-82.477
11
207.718
21
-82.877
0
LINE
8
BLACK
6
CONTINUOUS
10
207.718
20
-82.477
11
207.318
21
-82.877
0
LINE
8
BLACK
6
CONTINUOUS
10
207.42
20
-80.8006
11
207.82
21
-81.2006
0
LINE
8
BLACK
6
CONTINUOUS
10
207.82
20
-80.8006
11
207.42
21
-81.2006
0
LINE
8
BLACK
6
CONTINUOUS
10
209.096
20
-31.804
11
209.496
21
-32.204
0
LINE
8
BLACK
6
CONTINUOUS
10
209.496
20
-31.804
11
209.096
21
-32.204
0
LINE
8
BLACK
6
CONTINUOUS
10
209.909
20
-75.2634
11
210.309
21
-75.6634
0
LINE
8
BLACK
6
CONTINUOUS
10
210.309
20
-75.2634
11
209.909
21
-75.6634
0
LINE
8
BLACK
6
CONTINUOUS
10
210.733
20
-74.0696
11
211.133
21
-74.4696
0
LINE
8
BLACK
6
CONTINUOUS
10
211.133
20
-74.0696
11
210.733
21
-74.4696
0
LINE
8
BLACK
6
CONTINUOUS
10
211.096
20
-78.3048
11
211.496
21
-78.7048
0
LINE
8
BLACK
6
CONTINUOUS
10
211.496
20
-78.3048
11
211.096
21
-78.7048
0
LINE
8
BLACK
6
CONTINUOUS
10
212.465
20
-86.2458
11
212.865
21
-86.6458
0
LINE
8
BLACK
6
CONTINUOUS
10
212.865
20
-86.2458
11
212.465
21
-86.6458
0
LINE
8
BLACK
6
CONTINUOUS
10
213.363
20
-39.1446
11
213.763
21
-39.5446
0
LINE
8
BLACK
6
CONTINUOUS
10
213.763
20
-39.1446
11
213.363
21
-39.5446
0
LINE
8
BLACK
6
CONTINUOUS
10
214.824
20
-98.7923
11
215.224
21
-99.1923
0
LINE
8
BLACK
6
CONTINUOUS
10
215.224
20
-98.7923
11
214.824
21
-99.1923
0
LINE
8
BLACK
6
CONTINUOUS
10
214.824
20
-105.947
11
215.224
21
-106.347
0
LINE
8
BLACK
6
CONTINUOUS
10
215.224
20
-105.947
11
214.824
21
-106.347
0
LINE
8
BLACK
6
CONTINUOUS
10
214.826
20
-102.367
11
215.226
21
-102.767
0
LINE
8
BLACK
6
CONTINUOUS
10
215.226
20
-102.367
11
214.826
21
-102.767
0
LINE
8
BLACK
6
CONTINUOUS
10
216.03
20
-79.9116
11
216.43
21
-80.3116
0
LINE
8
BLACK
6
CONTINUOUS
10
216.43
20
-79.9116
11
216.03
21
-80.3116
0
LINE
8
BLACK
6
CONTINUOUS
10
216.03
20
-80.9022
11
216.43
21
-81.3022
0
LINE
8
BLACK
6
CONTINUOUS
10
216.43
20
-80.9022
11
216.03
21
-81.3022
0
LINE
8
BLACK
6
CONTINUOUS
10
216.03
20
-81.8928
11
216.43
21
-82.2928
0
LINE
8
BLACK
6
CONTINUOUS
10
216.43
20
-81.8928
11
216.03
21
-82.2928
0
LINE
8
BLACK
6
CONTINUOUS
10
216.03
20
-82.8834
11
216.43
21
-83.2834
0
LINE
8
BLACK
6
CONTINUOUS
10
216.43
20
-82.8834
11
216.03
21
-83.2834
0
LINE
8
BLACK
6
CONTINUOUS
10
216.03
20
-83.874
11
216.43
21
-84.274
0
LINE
8
BLACK
6
CONTINUOUS
10
216.43
20
-83.874
11
216.03
21
-84.274
0
LINE
8
BLACK
6
CONTINUOUS
10
216.03
20
-84.8646
11
216.43
21
-85.2646
0
LINE
8
BLACK
6
CONTINUOUS
10
216.43
20
-84.8646
11
216.03
21
-85.2646
0
LINE
8
BLACK
6
CONTINUOUS
10
216.691
20
-70.5898
11
217.091
21
-70.9898
0
LINE
8
BLACK
6
CONTINUOUS
10
217.091
20
-70.5898
11
216.691
21
-70.9898
0
LINE
8
BLACK
6
CONTINUOUS
10
216.818
20
-80.4196
11
217.218
21
-80.8196
0
LINE
8
BLACK
6
CONTINUOUS
10
217.218
20
-80.4196
11
216.818
21
-80.8196
0
LINE
8
BLACK
6
CONTINUOUS
10
216.818
20
-81.4102
11
217.218
21
-81.8102
0
LINE
8
BLACK
6
CONTINUOUS
10
217.218
20
-81.4102
11
216.818
21
-81.8102
0
LINE
8
BLACK
6
CONTINUOUS
10
216.818
20
-82.4008
11
217.218
21
-82.8008
0
LINE
8
BLACK
6
CONTINUOUS
10
217.218
20
-82.4008
11
216.818
21
-82.8008
0
LINE
8
BLACK
6
CONTINUOUS
10
216.818
20
-83.3914
11
217.218
21
-83.7914
0
LINE
8
BLACK
6
CONTINUOUS
10
217.218
20
-83.3914
11
216.818
21
-83.7914
0
LINE
8
BLACK
6
CONTINUOUS
10
216.818
20
-84.382
11
217.218
21
-84.782
0
LINE
8
BLACK
6
CONTINUOUS
10
217.218
20
-84.382
11
216.818
21
-84.782
0
LINE
8
BLACK
6
CONTINUOUS
10
216.995
20
-39.3478
11
217.395
21
-39.7478
0
LINE
8
BLACK
6
CONTINUOUS
10
217.395
20
-39.3478
11
216.995
21
-39.7478
0
LINE
8
BLACK
6
CONTINUOUS
10
217.656
20
-79.9624
11
218.056
21
-80.3624
0
LINE
8
BLACK
6
CONTINUOUS
10
218.056
20
-79.9624
11
217.656
21
-80.3624
0
LINE
8
BLACK
6
CONTINUOUS
10
217.656
20
-80.953
11
218.056
21
-81.353
0
LINE
8
BLACK
6
CONTINUOUS
10
218.056
20
-80.953
11
217.656
21
-81.353
0
LINE
8
BLACK
6
CONTINUOUS
10
217.656
20
-81.9436
11
218.056
21
-82.3436
0
LINE
8
BLACK
6
CONTINUOUS
10
218.056
20
-81.9436
11
217.656
21
-82.3436
0
LINE
8
BLACK
6
CONTINUOUS
10
217.656
20
-82.9342
11
218.056
21
-83.3342
0
LINE
8
BLACK
6
CONTINUOUS
10
218.056
20
-82.9342
11
217.656
21
-83.3342
0
LINE
8
BLACK
6
CONTINUOUS
10
217.656
20
-83.9248
11
218.056
21
-84.3248
0
LINE
8
BLACK
6
CONTINUOUS
10
218.056
20
-83.9248
11
217.656
21
-84.3248
0
LINE
8
BLACK
6
CONTINUOUS
10
217.656
20
-84.9154
11
218.056
21
-85.3154
0
LINE
8
BLACK
6
CONTINUOUS
10
218.056
20
-84.9154
11
217.656
21
-85.3154
0
LINE
8
BLACK
6
CONTINUOUS
10
218.138
20
-89.208
11
218.538
21
-89.608
0
LINE
8
BLACK
6
CONTINUOUS
10
218.538
20
-89.208
11
218.138
21
-89.608
0
LINE
8
BLACK
6
CONTINUOUS
10
221.034
20
-24.9206
11
221.434
21
-25.3206
0
LINE
8
BLACK
6
CONTINUOUS
10
221.434
20
-24.9206
11
221.034
21
-25.3206
0
LINE
8
BLACK
6
CONTINUOUS
10
221.034
20
-92.8402
11
221.434
21
-93.2402
0
LINE
8
BLACK
6
CONTINUOUS
10
221.434
20
-92.8402
11
221.034
21
-93.2402
0
LINE
8
BLACK
6
CONTINUOUS
10
221.061
20
-134.879
11
221.461
21
-135.279
0
LINE
8
BLACK
6
CONTINUOUS
10
221.461
20
-134.879
11
221.061
21
-135.279
0
LINE
8
BLACK
6
CONTINUOUS
10
221.085
20
-65.1796
11
221.485
21
-65.5796
0
LINE
8
BLACK
6
CONTINUOUS
10
221.485
20
-65.1796
11
221.085
21
-65.5796
0
LINE
8
BLACK
6
CONTINUOUS
10
221.161
20
-78.1082
11
221.561
21
-78.5082
0
LINE
8
BLACK
6
CONTINUOUS
10
221.561
20
-78.1082
11
221.161
21
-78.5082
0
LINE
8
BLACK
6
CONTINUOUS
10
222.551
20
-83.2771
11
222.951
21
-83.6771
0
LINE
8
BLACK
6
CONTINUOUS
10
222.951
20
-83.2771
11
222.551
21
-83.6771
0
LINE
8
BLACK
6
CONTINUOUS
10
223.964
20
-78.3876
11
224.364
21
-78.7876
0
LINE
8
BLACK
6
CONTINUOUS
10
224.364
20
-78.3876
11
223.964
21
-78.7876
0
LINE
8
BLACK
6
CONTINUOUS
10
223.999
20
-101.781
11
224.399
21
-102.181
0
LINE
8
BLACK
6
CONTINUOUS
10
224.399
20
-101.781
11
223.999
21
-102.181
0
LINE
8
BLACK
6
CONTINUOUS
10
224.388
20
-99.7087
11
224.788
21
-100.109
0
LINE
8
BLACK
6
CONTINUOUS
10
224.788
20
-99.7087
11
224.388
21
-100.109
0
LINE
8
BLACK
6
CONTINUOUS
10
224.689
20
-77.4478
11
225.089
21
-77.8478
0
LINE
8
BLACK
6
CONTINUOUS
10
225.089
20
-77.4478
11
224.689
21
-77.8478
0
LINE
8
BLACK
6
CONTINUOUS
10
225.378
20
-103.431
11
225.778
21
-103.831
0
LINE
8
BLACK
6
CONTINUOUS
10
225.778
20
-103.431
11
225.378
21
-103.831
0
LINE
8
BLACK
6
CONTINUOUS
10
225.528
20
-78.2892
11
225.928
21
-78.6892
0
LINE
8
BLACK
6
CONTINUOUS
10
225.928
20
-78.2892
11
225.528
21
-78.6892
0
LINE
8
BLACK
6
CONTINUOUS
10
226.229
20
-74.8795
11
226.629
21
-75.2795
0
LINE
8
BLACK
6
CONTINUOUS
10
226.629
20
-74.8795
11
226.229
21
-75.2795
0
LINE
8
BLACK
6
CONTINUOUS
10
226.293
20
-75.9776
11
226.693
21
-76.3776
0
LINE
8
BLACK
6
CONTINUOUS
10
226.693
20
-75.9776
11
226.293
21
-76.3776
0
LINE
8
BLACK
6
CONTINUOUS
10
227.206
20
-88.372
11
227.606
21
-88.772
0
LINE
8
BLACK
6
CONTINUOUS
10
227.606
20
-88.372
11
227.206
21
-88.772
0
LINE
8
BLACK
6
CONTINUOUS
10
227.257
20
-85.652
11
227.657
21
-86.052
0
LINE
8
BLACK
6
CONTINUOUS
10
227.657
20
-85.652
11
227.257
21
-86.052
0
LINE
8
BLACK
6
CONTINUOUS
10
227.562
20
-29.1624
11
227.962
21
-29.5624
0
LINE
8
BLACK
6
CONTINUOUS
10
227.962
20
-29.1624
11
227.562
21
-29.5624
0
LINE
8
BLACK
6
CONTINUOUS
10
227.737
20
-75.5391
11
228.137
21
-75.9391
0
LINE
8
BLACK
6
CONTINUOUS
10
228.137
20
-75.5391
11
227.737
21
-75.9391
0
LINE
8
BLACK
6
CONTINUOUS
10
227.968
20
-23.8792
11
228.368
21
-24.2792
0
LINE
8
BLACK
6
CONTINUOUS
10
228.368
20
-23.8792
11
227.968
21
-24.2792
0
LINE
8
BLACK
6
CONTINUOUS
10
227.968
20
-33.0232
11
228.368
21
-33.4232
0
LINE
8
BLACK
6
CONTINUOUS
10
228.368
20
-33.0232
11
227.968
21
-33.4232
0
LINE
8
BLACK
6
CONTINUOUS
10
227.994
20
-69.8532
11
228.394
21
-70.2532
0
LINE
8
BLACK
6
CONTINUOUS
10
228.394
20
-69.8532
11
227.994
21
-70.2532
0
LINE
8
BLACK
6
CONTINUOUS
10
228.121
20
-31.4738
11
228.521
21
-31.8738
0
LINE
8
BLACK
6
CONTINUOUS
10
228.521
20
-31.4738
11
228.121
21
-31.8738
0
LINE
8
BLACK
6
CONTINUOUS
10
228.197
20
-72.1392
11
228.597
21
-72.5392
0
LINE
8
BLACK
6
CONTINUOUS
10
228.597
20
-72.1392
11
228.197
21
-72.5392
0
LINE
8
BLACK
6
CONTINUOUS
10
228.248
20
-92.8402
11
228.648
21
-93.2402
0
LINE
8
BLACK
6
CONTINUOUS
10
228.648
20
-92.8402
11
228.248
21
-93.2402
0
LINE
8
BLACK
6
CONTINUOUS
10
228.273
20
-22.533
11
228.673
21
-22.933
0
LINE
8
BLACK
6
CONTINUOUS
10
228.673
20
-22.533
11
228.273
21
-22.933
0
LINE
8
BLACK
6
CONTINUOUS
10
228.375
20
-84.636
11
228.775
21
-85.036
0
LINE
8
BLACK
6
CONTINUOUS
10
228.775
20
-84.636
11
228.375
21
-85.036
0
LINE
8
BLACK
6
CONTINUOUS
10
228.375
20
-89.4874
11
228.775
21
-89.8874
0
LINE
8
BLACK
6
CONTINUOUS
10
228.775
20
-89.4874
11
228.375
21
-89.8874
0
LINE
8
BLACK
6
CONTINUOUS
10
228.375
20
-87.557
11
228.775
21
-87.957
0
LINE
8
BLACK
6
CONTINUOUS
10
228.775
20
-87.557
11
228.375
21
-87.957
0
LINE
8
BLACK
6
CONTINUOUS
10
228.527
20
-70.7168
11
228.927
21
-71.1168
0
LINE
8
BLACK
6
CONTINUOUS
10
228.927
20
-70.7168
11
228.527
21
-71.1168
0
LINE
8
BLACK
6
CONTINUOUS
10
228.705
20
-91.1892
11
229.105
21
-91.5892
0
LINE
8
BLACK
6
CONTINUOUS
10
229.105
20
-91.1892
11
228.705
21
-91.5892
0
LINE
8
BLACK
6
CONTINUOUS
10
228.806
20
-129.518
11
229.206
21
-129.918
0
LINE
8
BLACK
6
CONTINUOUS
10
229.206
20
-129.518
11
228.806
21
-129.918
0
LINE
8
BLACK
6
CONTINUOUS
10
229.289
20
-76.2794
11
229.689
21
-76.6794
0
LINE
8
BLACK
6
CONTINUOUS
10
229.689
20
-76.2794
11
229.289
21
-76.6794
0
LINE
8
BLACK
6
CONTINUOUS
10
229.323
20
-107.376
11
229.723
21
-107.776
0
LINE
8
BLACK
6
CONTINUOUS
10
229.723
20
-107.376
11
229.323
21
-107.776
0
LINE
8
BLACK
6
CONTINUOUS
10
229.373
20
-88.7332
11
229.773
21
-89.1332
0
LINE
8
BLACK
6
CONTINUOUS
10
229.773
20
-88.7332
11
229.373
21
-89.1332
0
LINE
8
BLACK
6
CONTINUOUS
10
229.396
20
-33.1814
11
229.796
21
-33.5814
0
LINE
8
BLACK
6
CONTINUOUS
10
229.796
20
-33.1814
11
229.396
21
-33.5814
0
LINE
8
BLACK
6
CONTINUOUS
10
229.645
20
-90.2494
11
230.045
21
-90.6494
0
LINE
8
BLACK
6
CONTINUOUS
10
230.045
20
-90.2494
11
229.645
21
-90.6494
0
LINE
8
BLACK
6
CONTINUOUS
10
229.67
20
-92.1036
11
230.07
21
-92.5036
0
LINE
8
BLACK
6
CONTINUOUS
10
230.07
20
-92.1036
11
229.67
21
-92.5036
0
LINE
8
BLACK
6
CONTINUOUS
10
229.695
20
-28.2734
11
230.095
21
-28.6734
0
LINE
8
BLACK
6
CONTINUOUS
10
230.095
20
-28.2734
11
229.695
21
-28.6734
0
LINE
8
BLACK
6
CONTINUOUS
10
230.048
20
-108.259
11
230.448
21
-108.659
0
LINE
8
BLACK
6
CONTINUOUS
10
230.448
20
-108.259
11
230.048
21
-108.659
0
LINE
8
BLACK
6
CONTINUOUS
10
230.051
20
-77.7272
11
230.451
21
-78.1272
0
LINE
8
BLACK
6
CONTINUOUS
10
230.451
20
-77.7272
11
230.051
21
-78.1272
0
LINE
8
BLACK
6
CONTINUOUS
10
230.61
20
-81.969
11
231.01
21
-82.369
0
LINE
8
BLACK
6
CONTINUOUS
10
231.01
20
-81.969
11
230.61
21
-82.369
0
LINE
8
BLACK
6
CONTINUOUS
10
230.7
20
-75.8945
11
231.1
21
-76.2945
0
LINE
8
BLACK
6
CONTINUOUS
10
231.1
20
-75.8945
11
230.7
21
-76.2945
0
LINE
8
BLACK
6
CONTINUOUS
10
231.092
20
-108.918
11
231.492
21
-109.318
0
LINE
8
BLACK
6
CONTINUOUS
10
231.492
20
-108.918
11
231.092
21
-109.318
0
LINE
8
BLACK
6
CONTINUOUS
10
231.4
20
-78.7323
11
231.8
21
-79.1323
0
LINE
8
BLACK
6
CONTINUOUS
10
231.8
20
-78.7323
11
231.4
21
-79.1323
0
LINE
8
BLACK
6
CONTINUOUS
10
231.477
20
-91.3887
11
231.877
21
-91.7887
0
LINE
8
BLACK
6
CONTINUOUS
10
231.877
20
-91.3887
11
231.477
21
-91.7887
0
LINE
8
BLACK
6
CONTINUOUS
10
231.981
20
-77.0414
11
232.381
21
-77.4414
0
LINE
8
BLACK
6
CONTINUOUS
10
232.381
20
-77.0414
11
231.981
21
-77.4414
0
LINE
8
BLACK
6
CONTINUOUS
10
232.159
20
-95.9136
11
232.559
21
-96.3136
0
LINE
8
BLACK
6
CONTINUOUS
10
232.559
20
-95.9136
11
232.159
21
-96.3136
0
LINE
8
BLACK
6
CONTINUOUS
10
233.031
20
-78.0898
11
233.431
21
-78.4898
0
LINE
8
BLACK
6
CONTINUOUS
10
233.431
20
-78.0898
11
233.031
21
-78.4898
0
LINE
8
BLACK
6
CONTINUOUS
10
233.201
20
-58.9312
11
233.601
21
-59.3312
0
LINE
8
BLACK
6
CONTINUOUS
10
233.601
20
-58.9312
11
233.201
21
-59.3312
0
LINE
8
BLACK
6
CONTINUOUS
10
233.378
20
-39.5002
11
233.778
21
-39.9002
0
LINE
8
BLACK
6
CONTINUOUS
10
233.778
20
-39.5002
11
233.378
21
-39.9002
0
LINE
8
BLACK
6
CONTINUOUS
10
233.505
20
-93.9578
11
233.905
21
-94.3578
0
LINE
8
BLACK
6
CONTINUOUS
10
233.905
20
-93.9578
11
233.505
21
-94.3578
0
LINE
8
BLACK
6
CONTINUOUS
10
233.709
20
-82.8834
11
234.109
21
-83.2834
0
LINE
8
BLACK
6
CONTINUOUS
10
234.109
20
-82.8834
11
233.709
21
-83.2834
0
LINE
8
BLACK
6
CONTINUOUS
10
234.572
20
-101.679
11
234.972
21
-102.079
0
LINE
8
BLACK
6
CONTINUOUS
10
234.972
20
-101.679
11
234.572
21
-102.079
0
LINE
8
BLACK
6
CONTINUOUS
10
235.258
20
-15.1924
11
235.658
21
-15.5924
0
LINE
8
BLACK
6
CONTINUOUS
10
235.658
20
-15.1924
11
235.258
21
-15.5924
0
LINE
8
BLACK
6
CONTINUOUS
10
235.995
20
-51.616
11
236.395
21
-52.016
0
LINE
8
BLACK
6
CONTINUOUS
10
236.395
20
-51.616
11
235.995
21
-52.016
0
LINE
8
BLACK
6
CONTINUOUS
10
236.731
20
-35.0259
11
237.131
21
-35.4259
0
LINE
8
BLACK
6
CONTINUOUS
10
237.131
20
-35.0259
11
236.731
21
-35.4259
0
LINE
8
BLACK
6
CONTINUOUS
10
236.863
20
-68.284
11
237.263
21
-68.684
0
LINE
8
BLACK
6
CONTINUOUS
10
237.263
20
-68.284
11
236.863
21
-68.684
0
LINE
8
BLACK
6
CONTINUOUS
10
237.588
20
-73.1363
11
237.988
21
-73.5363
0
LINE
8
BLACK
6
CONTINUOUS
10
237.988
20
-73.1363
11
237.588
21
-73.5363
0
LINE
8
BLACK
6
CONTINUOUS
10
237.837
20
-87.0824
11
238.237
21
-87.4824
0
LINE
8
BLACK
6
CONTINUOUS
10
238.237
20
-87.0824
11
237.837
21
-87.4824
0
LINE
8
BLACK
6
CONTINUOUS
10
240.236
20
-87.5245
11
240.636
21
-87.9245
0
LINE
8
BLACK
6
CONTINUOUS
10
240.636
20
-87.5245
11
240.236
21
-87.9245
0
LINE
8
BLACK
6
CONTINUOUS
10
240.592
20
-15.4856
11
240.992
21
-15.8856
0
LINE
8
BLACK
6
CONTINUOUS
10
240.992
20
-15.4856
11
240.592
21
-15.8856
0
LINE
8
BLACK
6
CONTINUOUS
10
240.592
20
-35.3462
11
240.992
21
-35.7462
0
LINE
8
BLACK
6
CONTINUOUS
10
240.992
20
-35.3462
11
240.592
21
-35.7462
0
LINE
8
BLACK
6
CONTINUOUS
10
240.592
20
-53.0638
11
240.992
21
-53.4638
0
LINE
8
BLACK
6
CONTINUOUS
10
240.992
20
-53.0638
11
240.592
21
-53.4638
0
LINE
8
BLACK
6
CONTINUOUS
10
240.897
20
-68.9896
11
241.297
21
-69.3896
0
LINE
8
BLACK
6
CONTINUOUS
10
241.297
20
-68.9896
11
240.897
21
-69.3896
0
LINE
8
BLACK
6
CONTINUOUS
10
241.075
20
-98.479
11
241.475
21
-98.879
0
LINE
8
BLACK
6
CONTINUOUS
10
241.475
20
-98.479
11
241.075
21
-98.879
0
LINE
8
BLACK
6
CONTINUOUS
10
241.227
20
-79.0226
11
241.627
21
-79.4226
0
LINE
8
BLACK
6
CONTINUOUS
10
241.627
20
-79.0226
11
241.227
21
-79.4226
0
LINE
8
BLACK
6
CONTINUOUS
10
241.817
20
-35.3462
11
242.217
21
-35.7462
0
LINE
8
BLACK
6
CONTINUOUS
10
242.217
20
-35.3462
11
241.817
21
-35.7462
0
LINE
8
BLACK
6
CONTINUOUS
10
241.964
20
-16.2338
11
242.364
21
-16.6338
0
LINE
8
BLACK
6
CONTINUOUS
10
242.364
20
-16.2338
11
241.964
21
-16.6338
0
LINE
8
BLACK
6
CONTINUOUS
10
242.091
20
-53.394
11
242.491
21
-53.794
0
LINE
8
BLACK
6
CONTINUOUS
10
242.491
20
-53.394
11
242.091
21
-53.794
0
LINE
8
BLACK
6
CONTINUOUS
10
242.319
20
-87.9745
11
242.719
21
-88.3745
0
LINE
8
BLACK
6
CONTINUOUS
10
242.719
20
-87.9745
11
242.319
21
-88.3745
0
LINE
8
BLACK
6
CONTINUOUS
10
242.573
20
-69.5236
11
242.973
21
-69.9236
0
LINE
8
BLACK
6
CONTINUOUS
10
242.973
20
-69.5236
11
242.573
21
-69.9236
0
LINE
8
BLACK
6
CONTINUOUS
10
242.878
20
-133.506
11
243.278
21
-133.906
0
LINE
8
BLACK
6
CONTINUOUS
10
243.278
20
-133.506
11
242.878
21
-133.906
0
LINE
8
BLACK
6
CONTINUOUS
10
243.223
20
-17.0063
11
243.623
21
-17.4063
0
LINE
8
BLACK
6
CONTINUOUS
10
243.623
20
-17.0063
11
243.223
21
-17.4063
0
LINE
8
BLACK
6
CONTINUOUS
10
243.223
20
-36.3759
11
243.623
21
-36.7759
0
LINE
8
BLACK
6
CONTINUOUS
10
243.623
20
-36.3759
11
243.223
21
-36.7759
0
LINE
8
BLACK
6
CONTINUOUS
10
243.223
20
-55.1825
11
243.623
21
-55.5825
0
LINE
8
BLACK
6
CONTINUOUS
10
243.623
20
-55.1825
11
243.223
21
-55.5825
0
LINE
8
BLACK
6
CONTINUOUS
10
243.223
20
-74.2623
11
243.623
21
-74.6623
0
LINE
8
BLACK
6
CONTINUOUS
10
243.623
20
-74.2623
11
243.223
21
-74.6623
0
LINE
8
BLACK
6
CONTINUOUS
10
245.113
20
-93.9578
11
245.513
21
-94.3578
0
LINE
8
BLACK
6
CONTINUOUS
10
245.513
20
-93.9578
11
245.113
21
-94.3578
0
LINE
8
BLACK
6
CONTINUOUS
10
247.958
20
-22.279
11
248.358
21
-22.679
0
LINE
8
BLACK
6
CONTINUOUS
10
248.358
20
-22.279
11
247.958
21
-22.679
0
LINE
8
BLACK
6
CONTINUOUS
10
250.54
20
-90.986
11
250.94
21
-91.386
0
LINE
8
BLACK
6
CONTINUOUS
10
250.94
20
-90.986
11
250.54
21
-91.386
0
LINE
8
BLACK
6
CONTINUOUS
10
250.67
20
-33.9962
11
251.07
21
-34.3962
0
LINE
8
BLACK
6
CONTINUOUS
10
251.07
20
-33.9962
11
250.67
21
-34.3962
0
LINE
8
BLACK
6
CONTINUOUS
10
252.073
20
-96.8534
11
252.473
21
-97.2534
0
LINE
8
BLACK
6
CONTINUOUS
10
252.473
20
-96.8534
11
252.073
21
-97.2534
0
LINE
8
BLACK
6
CONTINUOUS
10
252.174
20
-59.109
11
252.574
21
-59.509
0
LINE
8
BLACK
6
CONTINUOUS
10
252.574
20
-59.109
11
252.174
21
-59.509
0
LINE
8
BLACK
6
CONTINUOUS
10
252.276
20
-39.8812
11
252.676
21
-40.2812
0
LINE
8
BLACK
6
CONTINUOUS
10
252.676
20
-39.8812
11
252.276
21
-40.2812
0
LINE
8
BLACK
6
CONTINUOUS
10
252.276
20
-77.905
11
252.676
21
-78.305
0
LINE
8
BLACK
6
CONTINUOUS
10
252.676
20
-77.905
11
252.276
21
-78.305
0
LINE
8
BLACK
6
CONTINUOUS
10
254.308
20
-14.8114
11
254.708
21
-15.2114
0
LINE
8
BLACK
6
CONTINUOUS
10
254.708
20
-14.8114
11
254.308
21
-15.2114
0
LINE
8
BLACK
6
CONTINUOUS
10
255.68
20
-51.362
11
256.08
21
-51.762
0
LINE
8
BLACK
6
CONTINUOUS
10
256.08
20
-51.362
11
255.68
21
-51.762
0
LINE
8
BLACK
6
CONTINUOUS
10
255.857
20
-68.38
11
256.257
21
-68.78
0
LINE
8
BLACK
6
CONTINUOUS
10
256.257
20
-68.38
11
255.857
21
-68.78
0
LINE
8
BLACK
6
CONTINUOUS
10
256.721
20
-72.3794
11
257.121
21
-72.7794
0
LINE
8
BLACK
6
CONTINUOUS
10
257.121
20
-72.3794
11
256.721
21
-72.7794
0
LINE
8
BLACK
6
CONTINUOUS
10
257.635
20
-34.1414
11
258.035
21
-34.5414
0
LINE
8
BLACK
6
CONTINUOUS
10
258.035
20
-34.1414
11
257.635
21
-34.5414
0
LINE
8
BLACK
6
CONTINUOUS
10
258.677
20
-87.0744
11
259.077
21
-87.4744
0
LINE
8
BLACK
6
CONTINUOUS
10
259.077
20
-87.0744
11
258.677
21
-87.4744
0
LINE
8
BLACK
6
CONTINUOUS
10
259.617
20
-87.7994
11
260.017
21
-88.1994
0
LINE
8
BLACK
6
CONTINUOUS
10
260.017
20
-87.7994
11
259.617
21
-88.1994
0
LINE
8
BLACK
6
CONTINUOUS
10
259.642
20
-34.9751
11
260.042
21
-35.3751
0
LINE
8
BLACK
6
CONTINUOUS
10
260.042
20
-34.9751
11
259.642
21
-35.3751
0
LINE
8
BLACK
6
CONTINUOUS
10
259.642
20
-52.8352
11
260.042
21
-53.2352
0
LINE
8
BLACK
6
CONTINUOUS
10
260.042
20
-52.8352
11
259.642
21
-53.2352
0
LINE
8
BLACK
6
CONTINUOUS
10
259.794
20
-15.638
11
260.194
21
-16.038
0
LINE
8
BLACK
6
CONTINUOUS
10
260.194
20
-15.638
11
259.794
21
-16.038
0
LINE
8
BLACK
6
CONTINUOUS
10
260.074
20
-78.5146
11
260.474
21
-78.9146
0
LINE
8
BLACK
6
CONTINUOUS
10
260.474
20
-78.5146
11
260.074
21
-78.9146
0
LINE
8
BLACK
6
CONTINUOUS
10
260.328
20
-69.0736
11
260.728
21
-69.4736
0
LINE
8
BLACK
6
CONTINUOUS
10
260.728
20
-69.0736
11
260.328
21
-69.4736
0
LINE
8
BLACK
6
CONTINUOUS
10
260.988
20
-35.4251
11
261.388
21
-35.8251
0
LINE
8
BLACK
6
CONTINUOUS
10
261.388
20
-35.4251
11
260.988
21
-35.8251
0
LINE
8
BLACK
6
CONTINUOUS
10
260.988
20
-53.8766
11
261.388
21
-54.2766
0
LINE
8
BLACK
6
CONTINUOUS
10
261.388
20
-53.8766
11
260.988
21
-54.2766
0
LINE
8
BLACK
6
CONTINUOUS
10
261.052
20
-107.468
11
261.452
21
-107.868
0
LINE
8
BLACK
6
CONTINUOUS
10
261.452
20
-107.468
11
261.052
21
-107.868
0
LINE
8
BLACK
6
CONTINUOUS
10
261.064
20
-16.088
11
261.464
21
-16.488
0
LINE
8
BLACK
6
CONTINUOUS
10
261.464
20
-16.088
11
261.064
21
-16.488
0
LINE
8
BLACK
6
CONTINUOUS
10
261.623
20
-88.2494
11
262.023
21
-88.6494
0
LINE
8
BLACK
6
CONTINUOUS
10
262.023
20
-88.2494
11
261.623
21
-88.6494
0
LINE
8
BLACK
6
CONTINUOUS
10
262.182
20
-69.5236
11
262.582
21
-69.9236
0
LINE
8
BLACK
6
CONTINUOUS
10
262.582
20
-69.5236
11
262.182
21
-69.9236
0
LINE
8
BLACK
6
CONTINUOUS
10
262.273
20
-17.0571
11
262.673
21
-17.4571
0
LINE
8
BLACK
6
CONTINUOUS
10
262.673
20
-17.0571
11
262.273
21
-17.4571
0
LINE
8
BLACK
6
CONTINUOUS
10
262.273
20
-36.1071
11
262.673
21
-36.5071
0
LINE
8
BLACK
6
CONTINUOUS
10
262.673
20
-36.1071
11
262.273
21
-36.5071
0
LINE
8
BLACK
6
CONTINUOUS
10
262.273
20
-55.2333
11
262.673
21
-55.6333
0
LINE
8
BLACK
6
CONTINUOUS
10
262.673
20
-55.2333
11
262.273
21
-55.6333
0
LINE
8
BLACK
6
CONTINUOUS
10
262.273
20
-92.9015
11
262.673
21
-93.3015
0
LINE
8
BLACK
6
CONTINUOUS
10
262.673
20
-92.9015
11
262.273
21
-93.3015
0
LINE
8
BLACK
6
CONTINUOUS
10
262.512
20
-72.3424
11
262.912
21
-72.7424
0
LINE
8
BLACK
6
CONTINUOUS
10
262.912
20
-72.3424
11
262.512
21
-72.7424
0
LINE
8
BLACK
6
CONTINUOUS
10
262.588
20
-110.747
11
262.988
21
-111.147
0
LINE
8
BLACK
6
CONTINUOUS
10
262.988
20
-110.747
11
262.588
21
-111.147
0
LINE
8
BLACK
6
CONTINUOUS
10
264.29
20
-108.639
11
264.69
21
-109.039
0
LINE
8
BLACK
6
CONTINUOUS
10
264.69
20
-108.639
11
264.29
21
-109.039
0
LINE
8
BLACK
6
CONTINUOUS
10
265.914
20
-111.918
11
266.314
21
-112.318
0
LINE
8
BLACK
6
CONTINUOUS
10
266.314
20
-111.918
11
265.914
21
-112.318
0
LINE
8
BLACK
6
CONTINUOUS
10
266.703
20
-22.4314
11
267.103
21
-22.8314
0
LINE
8
BLACK
6
CONTINUOUS
10
267.103
20
-22.4314
11
266.703
21
-22.8314
0
LINE
8
BLACK
6
CONTINUOUS
10
269.688
20
-33.666
11
270.088
21
-34.066
0
LINE
8
BLACK
6
CONTINUOUS
10
270.088
20
-33.666
11
269.688
21
-34.066
0
LINE
8
BLACK
6
CONTINUOUS
10
270.394
20
-90.9495
11
270.794
21
-91.3495
0
LINE
8
BLACK
6
CONTINUOUS
10
270.794
20
-90.9495
11
270.394
21
-91.3495
0
LINE
8
BLACK
6
CONTINUOUS
10
271.047
20
-77.9812
11
271.447
21
-78.3812
0
LINE
8
BLACK
6
CONTINUOUS
10
271.447
20
-77.9812
11
271.047
21
-78.3812
0
LINE
8
BLACK
6
CONTINUOUS
10
271.148
20
-96.8534
11
271.548
21
-97.2534
0
LINE
8
BLACK
6
CONTINUOUS
10
271.548
20
-96.8534
11
271.148
21
-97.2534
0
LINE
8
BLACK
6
CONTINUOUS
10
271.504
20
-39.0684
11
271.904
21
-39.4684
0
LINE
8
BLACK
6
CONTINUOUS
10
271.904
20
-39.0684
11
271.504
21
-39.4684
0
LINE
8
BLACK
6
CONTINUOUS
10
271.504
20
-58.6518
11
271.904
21
-59.0518
0
LINE
8
BLACK
6
CONTINUOUS
10
271.904
20
-58.6518
11
271.504
21
-59.0518
0
LINE
8
BLACK
6
CONTINUOUS
10
273.383
20
-15.0908
11
273.783
21
-15.4908
0
LINE
8
BLACK
6
CONTINUOUS
10
273.783
20
-15.0908
11
273.383
21
-15.4908
0
LINE
8
BLACK
6
CONTINUOUS
10
274.628
20
-107.877
11
275.028
21
-108.277
0
LINE
8
BLACK
6
CONTINUOUS
10
275.028
20
-107.877
11
274.628
21
-108.277
0
LINE
8
BLACK
6
CONTINUOUS
10
274.653
20
-51.0064
11
275.053
21
-51.4064
0
LINE
8
BLACK
6
CONTINUOUS
10
275.053
20
-51.0064
11
274.653
21
-51.4064
0
LINE
8
BLACK
6
CONTINUOUS
10
275.143
20
-68.0809
11
275.543
21
-68.4809
0
LINE
8
BLACK
6
CONTINUOUS
10
275.543
20
-68.0809
11
275.143
21
-68.4809
0
LINE
8
BLACK
6
CONTINUOUS
10
275.314
20
-87.7028
11
275.714
21
-88.1028
0
LINE
8
BLACK
6
CONTINUOUS
10
275.714
20
-87.7028
11
275.314
21
-88.1028
0
LINE
8
BLACK
6
CONTINUOUS
10
275.72
20
-34.2525
11
276.12
21
-34.6525
0
LINE
8
BLACK
6
CONTINUOUS
10
276.12
20
-34.2525
11
275.72
21
-34.6525
0
LINE
8
BLACK
6
CONTINUOUS
10
276.381
20
-72.1254
11
276.781
21
-72.5254
0
LINE
8
BLACK
6
CONTINUOUS
10
276.781
20
-72.1254
11
276.381
21
-72.5254
0
LINE
8
BLACK
6
CONTINUOUS
10
276.863
20
-108.715
11
277.263
21
-109.115
0
LINE
8
BLACK
6
CONTINUOUS
10
277.263
20
-108.715
11
276.863
21
-109.115
0
LINE
8
BLACK
6
CONTINUOUS
10
277.6
20
-110.747
11
278
21
-111.147
0
LINE
8
BLACK
6
CONTINUOUS
10
278
20
-110.747
11
277.6
21
-111.147
0
LINE
8
BLACK
6
CONTINUOUS
10
278.692
20
-15.6888
11
279.092
21
-16.0888
0
LINE
8
BLACK
6
CONTINUOUS
10
279.092
20
-15.6888
11
278.692
21
-16.0888
0
LINE
8
BLACK
6
CONTINUOUS
10
278.692
20
-34.6626
11
279.092
21
-35.0626
0
LINE
8
BLACK
6
CONTINUOUS
10
279.092
20
-34.6626
11
278.692
21
-35.0626
0
LINE
8
BLACK
6
CONTINUOUS
10
278.692
20
-52.3526
11
279.092
21
-52.7526
0
LINE
8
BLACK
6
CONTINUOUS
10
279.092
20
-52.3526
11
278.692
21
-52.7526
0
LINE
8
BLACK
6
CONTINUOUS
10
278.87
20
-88.1528
11
279.27
21
-88.5528
0
LINE
8
BLACK
6
CONTINUOUS
10
279.27
20
-88.1528
11
278.87
21
-88.5528
0
LINE
8
BLACK
6
CONTINUOUS
10
278.942
20
-112.318
11
279.342
21
-112.718
0
LINE
8
BLACK
6
CONTINUOUS
10
279.342
20
-112.318
11
278.942
21
-112.718
0
LINE
8
BLACK
6
CONTINUOUS
10
279.217
20
-69.0736
11
279.617
21
-69.4736
0
LINE
8
BLACK
6
CONTINUOUS
10
279.617
20
-69.0736
11
279.217
21
-69.4736
0
LINE
8
BLACK
6
CONTINUOUS
10
279.937
20
-53.648
11
280.337
21
-54.048
0
LINE
8
BLACK
6
CONTINUOUS
10
280.337
20
-53.648
11
279.937
21
-54.048
0
LINE
8
BLACK
6
CONTINUOUS
10
279.962
20
-16.1388
11
280.362
21
-16.5388
0
LINE
8
BLACK
6
CONTINUOUS
10
280.362
20
-16.1388
11
279.962
21
-16.5388
0
LINE
8
BLACK
6
CONTINUOUS
10
279.962
20
-35.1126
11
280.362
21
-35.5126
0
LINE
8
BLACK
6
CONTINUOUS
10
280.362
20
-35.1126
11
279.962
21
-35.5126
0
LINE
8
BLACK
6
CONTINUOUS
10
280.648
20
-69.5236
11
281.048
21
-69.9236
0
LINE
8
BLACK
6
CONTINUOUS
10
281.048
20
-69.5236
11
280.648
21
-69.9236
0
LINE
8
BLACK
6
CONTINUOUS
10
281.029
20
-88.2682
11
281.429
21
-88.6682
0
LINE
8
BLACK
6
CONTINUOUS
10
281.429
20
-88.2682
11
281.029
21
-88.6682
0
LINE
8
BLACK
6
CONTINUOUS
10
281.323
20
-17.1333
11
281.723
21
-17.5333
0
LINE
8
BLACK
6
CONTINUOUS
10
281.723
20
-17.1333
11
281.323
21
-17.5333
0
LINE
8
BLACK
6
CONTINUOUS
10
281.323
20
-36.1369
11
281.723
21
-36.5369
0
LINE
8
BLACK
6
CONTINUOUS
10
281.723
20
-36.1369
11
281.323
21
-36.5369
0
LINE
8
BLACK
6
CONTINUOUS
10
281.323
20
-55.0853
11
281.723
21
-55.4853
0
LINE
8
BLACK
6
CONTINUOUS
10
281.723
20
-55.0853
11
281.323
21
-55.4853
0
LINE
8
BLACK
6
CONTINUOUS
10
281.323
20
-74.5373
11
281.723
21
-74.9373
0
LINE
8
BLACK
6
CONTINUOUS
10
281.723
20
-74.5373
11
281.323
21
-74.9373
0
LINE
8
BLACK
6
CONTINUOUS
10
281.323
20
-93.0285
11
281.723
21
-93.4285
0
LINE
8
BLACK
6
CONTINUOUS
10
281.723
20
-93.0285
11
281.323
21
-93.4285
0
LINE
8
BLACK
6
CONTINUOUS
10
288.77
20
-33.6758
11
289.17
21
-34.0758
0
LINE
8
BLACK
6
CONTINUOUS
10
289.17
20
-33.6758
11
288.77
21
-34.0758
0
LINE
8
BLACK
6
CONTINUOUS
10
289.893
20
-77.0922
11
290.293
21
-77.4922
0
LINE
8
BLACK
6
CONTINUOUS
10
290.293
20
-77.0922
11
289.893
21
-77.4922
0
LINE
8
BLACK
6
CONTINUOUS
10
290.015
20
-90.867
11
290.415
21
-91.267
0
LINE
8
BLACK
6
CONTINUOUS
10
290.415
20
-90.867
11
290.015
21
-91.267
0
LINE
8
BLACK
6
CONTINUOUS
10
290.046
20
-97.0312
11
290.446
21
-97.4312
0
LINE
8
BLACK
6
CONTINUOUS
10
290.446
20
-97.0312
11
290.046
21
-97.4312
0
LINE
8
BLACK
6
CONTINUOUS
10
290.274
20
-58.2708
11
290.674
21
-58.6708
0
LINE
8
BLACK
6
CONTINUOUS
10
290.674
20
-58.2708
11
290.274
21
-58.6708
0
LINE
8
BLACK
6
CONTINUOUS
10
290.401
20
-39.5256
11
290.801
21
-39.9256
0
LINE
8
BLACK
6
CONTINUOUS
10
290.801
20
-39.5256
11
290.401
21
-39.9256
0
LINE
8
BLACK
6
CONTINUOUS
10
292.408
20
-14.913
11
292.808
21
-15.313
0
LINE
8
BLACK
6
CONTINUOUS
10
292.808
20
-14.913
11
292.408
21
-15.313
0
LINE
8
BLACK
6
CONTINUOUS
10
293.246
20
-34.217
11
293.646
21
-34.617
0
LINE
8
BLACK
6
CONTINUOUS
10
293.646
20
-34.217
11
293.246
21
-34.617
0
LINE
8
BLACK
6
CONTINUOUS
10
293.957
20
-51.2858
11
294.357
21
-51.6858
0
LINE
8
BLACK
6
CONTINUOUS
10
294.357
20
-51.2858
11
293.957
21
-51.6858
0
LINE
8
BLACK
6
CONTINUOUS
10
294.084
20
-68.4562
11
294.484
21
-68.8562
0
LINE
8
BLACK
6
CONTINUOUS
10
294.484
20
-68.4562
11
294.084
21
-68.8562
0
LINE
8
BLACK
6
CONTINUOUS
10
294.789
20
-107.884
11
295.189
21
-108.284
0
LINE
8
BLACK
6
CONTINUOUS
10
295.189
20
-107.884
11
294.789
21
-108.284
0
LINE
8
BLACK
6
CONTINUOUS
10
295.126
20
-87.652
11
295.526
21
-88.052
0
LINE
8
BLACK
6
CONTINUOUS
10
295.526
20
-87.652
11
295.126
21
-88.052
0
LINE
8
BLACK
6
CONTINUOUS
10
295.278
20
-71.6936
11
295.678
21
-72.0936
0
LINE
8
BLACK
6
CONTINUOUS
10
295.678
20
-71.6936
11
295.278
21
-72.0936
0
LINE
8
BLACK
6
CONTINUOUS
10
297.742
20
-34.5102
11
298.142
21
-34.9102
0
LINE
8
BLACK
6
CONTINUOUS
10
298.142
20
-34.5102
11
297.742
21
-34.9102
0
LINE
8
BLACK
6
CONTINUOUS
10
297.742
20
-52.6828
11
298.142
21
-53.0828
0
LINE
8
BLACK
6
CONTINUOUS
10
298.142
20
-52.6828
11
297.742
21
-53.0828
0
LINE
8
BLACK
6
CONTINUOUS
10
297.767
20
-15.8158
11
298.167
21
-16.2158
0
LINE
8
BLACK
6
CONTINUOUS
10
298.167
20
-15.8158
11
297.767
21
-16.2158
0
LINE
8
BLACK
6
CONTINUOUS
10
298.123
20
-88.102
11
298.523
21
-88.502
0
LINE
8
BLACK
6
CONTINUOUS
10
298.523
20
-88.102
11
298.123
21
-88.502
0
LINE
8
BLACK
6
CONTINUOUS
10
298.25
20
-69.422
11
298.65
21
-69.822
0
LINE
8
BLACK
6
CONTINUOUS
10
298.65
20
-69.422
11
298.25
21
-69.822
0
LINE
8
BLACK
6
CONTINUOUS
10
298.961
20
-34.9602
11
299.361
21
-35.3602
0
LINE
8
BLACK
6
CONTINUOUS
10
299.361
20
-34.9602
11
298.961
21
-35.3602
0
LINE
8
BLACK
6
CONTINUOUS
10
299.088
20
-53.8004
11
299.488
21
-54.2004
0
LINE
8
BLACK
6
CONTINUOUS
10
299.488
20
-53.8004
11
299.088
21
-54.2004
0
LINE
8
BLACK
6
CONTINUOUS
10
299.114
20
-16.2658
11
299.514
21
-16.6658
0
LINE
8
BLACK
6
CONTINUOUS
10
299.514
20
-16.2658
11
299.114
21
-16.6658
0
LINE
8
BLACK
6
CONTINUOUS
10
299.749
20
-69.872
11
300.149
21
-70.272
0
LINE
8
BLACK
6
CONTINUOUS
10
300.149
20
-69.872
11
299.749
21
-70.272
0
LINE
8
BLACK
6
CONTINUOUS
10
300.123
20
-109.662
11
300.523
21
-110.062
0
LINE
8
BLACK
6
CONTINUOUS
10
300.523
20
-109.662
11
300.123
21
-110.062
0
LINE
8
BLACK
6
CONTINUOUS
10
300.206
20
-88.8602
11
300.606
21
-89.2602
0
LINE
8
BLACK
6
CONTINUOUS
10
300.606
20
-88.8602
11
300.206
21
-89.2602
0
LINE
8
BLACK
6
CONTINUOUS
10
300.373
20
-17.0107
11
300.773
21
-17.4107
0
LINE
8
BLACK
6
CONTINUOUS
10
300.773
20
-17.0107
11
300.373
21
-17.4107
0
LINE
8
BLACK
6
CONTINUOUS
10
300.373
20
-35.9293
11
300.773
21
-36.3293
0
LINE
8
BLACK
6
CONTINUOUS
10
300.773
20
-35.9293
11
300.373
21
-36.3293
0
LINE
8
BLACK
6
CONTINUOUS
10
300.373
20
-55.5171
11
300.773
21
-55.9171
0
LINE
8
BLACK
6
CONTINUOUS
10
300.773
20
-55.5171
11
300.373
21
-55.9171
0
LINE
8
BLACK
6
CONTINUOUS
10
300.373
20
-93.7176
11
300.773
21
-94.1176
0
LINE
8
BLACK
6
CONTINUOUS
10
300.773
20
-93.7176
11
300.373
21
-94.1176
0
LINE
8
BLACK
6
CONTINUOUS
10
301.222
20
-72.19
11
301.622
21
-72.59
0
LINE
8
BLACK
6
CONTINUOUS
10
301.622
20
-72.19
11
301.222
21
-72.59
0
LINE
8
BLACK
6
CONTINUOUS
10
301.45
20
-110.798
11
301.85
21
-111.198
0
LINE
8
BLACK
6
CONTINUOUS
10
301.85
20
-110.798
11
301.45
21
-111.198
0
LINE
8
BLACK
6
CONTINUOUS
10
302.754
20
-112.051
11
303.154
21
-112.451
0
LINE
8
BLACK
6
CONTINUOUS
10
303.154
20
-112.051
11
302.754
21
-112.451
0
LINE
8
BLACK
6
CONTINUOUS
10
307.82
20
-33.2258
11
308.22
21
-33.6258
0
LINE
8
BLACK
6
CONTINUOUS
10
308.22
20
-33.2258
11
307.82
21
-33.6258
0
LINE
8
BLACK
6
CONTINUOUS
10
308.943
20
-39.1954
11
309.343
21
-39.5954
0
LINE
8
BLACK
6
CONTINUOUS
10
309.343
20
-39.1954
11
308.943
21
-39.5954
0
LINE
8
BLACK
6
CONTINUOUS
10
309.248
20
-58.5502
11
309.648
21
-58.9502
0
LINE
8
BLACK
6
CONTINUOUS
10
309.648
20
-58.5502
11
309.248
21
-58.9502
0
LINE
8
BLACK
6
CONTINUOUS
10
309.401
20
-96.2184
11
309.801
21
-96.6184
0
LINE
8
BLACK
6
CONTINUOUS
10
309.801
20
-96.2184
11
309.401
21
-96.6184
0
LINE
8
BLACK
6
CONTINUOUS
10
309.705
20
-77.7526
11
310.105
21
-78.1526
0
LINE
8
BLACK
6
CONTINUOUS
10
310.105
20
-77.7526
11
309.705
21
-78.1526
0
LINE
8
BLACK
6
CONTINUOUS
10
310.747
20
-91.1638
11
311.147
21
-91.5638
0
LINE
8
BLACK
6
CONTINUOUS
10
311.147
20
-91.1638
11
310.747
21
-91.5638
0
LINE
8
BLACK
6
CONTINUOUS
10
311.56
20
-15.1416
11
311.96
21
-15.5416
0
LINE
8
BLACK
6
CONTINUOUS
10
311.96
20
-15.1416
11
311.56
21
-15.5416
0
LINE
8
BLACK
6
CONTINUOUS
10
312.355
20
-68.7462
11
312.755
21
-69.1462
0
LINE
8
BLACK
6
CONTINUOUS
10
312.755
20
-68.7462
11
312.355
21
-69.1462
0
LINE
8
BLACK
6
CONTINUOUS
10
312.576
20
-51.5144
11
312.976
21
-51.9144
0
LINE
8
BLACK
6
CONTINUOUS
10
312.976
20
-51.5144
11
312.576
21
-51.9144
0
LINE
8
BLACK
6
CONTINUOUS
10
312.611
20
-33.372
11
313.011
21
-33.772
0
LINE
8
BLACK
6
CONTINUOUS
10
313.011
20
-33.372
11
312.611
21
-33.772
0
LINE
8
BLACK
6
CONTINUOUS
10
313.414
20
-87.9634
11
313.814
21
-88.3634
0
LINE
8
BLACK
6
CONTINUOUS
10
313.814
20
-87.9634
11
313.414
21
-88.3634
0
LINE
8
BLACK
6
CONTINUOUS
10
313.693
20
-71.3634
11
314.093
21
-71.7634
0
LINE
8
BLACK
6
CONTINUOUS
10
314.093
20
-71.3634
11
313.693
21
-71.7634
0
LINE
8
BLACK
6
CONTINUOUS
10
316.792
20
-15.5226
11
317.192
21
-15.9226
0
LINE
8
BLACK
6
CONTINUOUS
10
317.192
20
-15.5226
11
316.792
21
-15.9226
0
LINE
8
BLACK
6
CONTINUOUS
10
316.792
20
-33.9122
11
317.192
21
-34.3122
0
LINE
8
BLACK
6
CONTINUOUS
10
317.192
20
-33.9122
11
316.792
21
-34.3122
0
LINE
8
BLACK
6
CONTINUOUS
10
316.792
20
-52.6574
11
317.192
21
-53.0574
0
LINE
8
BLACK
6
CONTINUOUS
10
317.192
20
-52.6574
11
316.792
21
-53.0574
0
LINE
8
BLACK
6
CONTINUOUS
10
317.021
20
-69.1558
11
317.421
21
-69.5558
0
LINE
8
BLACK
6
CONTINUOUS
10
317.421
20
-69.1558
11
317.021
21
-69.5558
0
LINE
8
BLACK
6
CONTINUOUS
10
317.148
20
-88.6354
11
317.548
21
-89.0354
0
LINE
8
BLACK
6
CONTINUOUS
10
317.548
20
-88.6354
11
317.148
21
-89.0354
0
LINE
8
BLACK
6
CONTINUOUS
10
318.189
20
-34.381
11
318.589
21
-34.781
0
LINE
8
BLACK
6
CONTINUOUS
10
318.589
20
-34.381
11
318.189
21
-34.781
0
LINE
8
BLACK
6
CONTINUOUS
10
318.189
20
-53.9782
11
318.589
21
-54.3782
0
LINE
8
BLACK
6
CONTINUOUS
10
318.589
20
-53.9782
11
318.189
21
-54.3782
0
LINE
8
BLACK
6
CONTINUOUS
10
318.24
20
-15.929
11
318.64
21
-16.329
0
LINE
8
BLACK
6
CONTINUOUS
10
318.64
20
-15.929
11
318.24
21
-16.329
0
LINE
8
BLACK
6
CONTINUOUS
10
318.595
20
-69.8808
11
318.995
21
-70.2808
0
LINE
8
BLACK
6
CONTINUOUS
10
318.995
20
-69.8808
11
318.595
21
-70.2808
0
LINE
8
BLACK
6
CONTINUOUS
10
318.601
20
-107.642
11
319.001
21
-108.042
0
LINE
8
BLACK
6
CONTINUOUS
10
319.001
20
-107.642
11
318.601
21
-108.042
0
LINE
8
BLACK
6
CONTINUOUS
10
319.408
20
-88.7762
11
319.808
21
-89.1762
0
LINE
8
BLACK
6
CONTINUOUS
10
319.808
20
-88.7762
11
319.408
21
-89.1762
0
LINE
8
BLACK
6
CONTINUOUS
10
319.423
20
-17.1333
11
319.823
21
-17.5333
0
LINE
8
BLACK
6
CONTINUOUS
10
319.823
20
-17.1333
11
319.423
21
-17.5333
0
LINE
8
BLACK
6
CONTINUOUS
10
319.423
20
-36.1369
11
319.823
21
-36.5369
0
LINE
8
BLACK
6
CONTINUOUS
10
319.823
20
-36.1369
11
319.423
21
-36.5369
0
LINE
8
BLACK
6
CONTINUOUS
10
319.423
20
-55.3647
11
319.823
21
-55.7647
0
LINE
8
BLACK
6
CONTINUOUS
10
319.823
20
-55.3647
11
319.423
21
-55.7647
0
LINE
8
BLACK
6
CONTINUOUS
10
319.423
20
-93.7176
11
319.823
21
-94.1176
0
LINE
8
BLACK
6
CONTINUOUS
10
319.823
20
-93.7176
11
319.423
21
-94.1176
0
LINE
8
BLACK
6
CONTINUOUS
10
319.459
20
-71.809
11
319.859
21
-72.209
0
LINE
8
BLACK
6
CONTINUOUS
10
319.859
20
-71.809
11
319.459
21
-72.209
0
LINE
8
BLACK
6
CONTINUOUS
10
323.935
20
-109.319
11
324.335
21
-109.719
0
LINE
8
BLACK
6
CONTINUOUS
10
324.335
20
-109.319
11
323.935
21
-109.719
0
LINE
8
BLACK
6
CONTINUOUS
10
325.161
20
-110.937
11
325.561
21
-111.337
0
LINE
8
BLACK
6
CONTINUOUS
10
325.561
20
-110.937
11
325.161
21
-111.337
0
LINE
8
BLACK
6
CONTINUOUS
10
326.567
20
-112.301
11
326.967
21
-112.701
0
LINE
8
BLACK
6
CONTINUOUS
10
326.967
20
-112.301
11
326.567
21
-112.701
0
LINE
8
BLACK
6
CONTINUOUS
10
326.87
20
-32.725
11
327.27
21
-33.125
0
LINE
8
BLACK
6
CONTINUOUS
10
327.27
20
-32.725
11
326.87
21
-33.125
0
LINE
8
BLACK
6
CONTINUOUS
10
328.374
20
-39.6526
11
328.774
21
-40.0526
0
LINE
8
BLACK
6
CONTINUOUS
10
328.774
20
-39.6526
11
328.374
21
-40.0526
0
LINE
8
BLACK
6
CONTINUOUS
10
328.679
20
-58.3978
11
329.079
21
-58.7978
0
LINE
8
BLACK
6
CONTINUOUS
10
329.079
20
-58.3978
11
328.679
21
-58.7978
0
LINE
8
BLACK
6
CONTINUOUS
10
328.908
20
-72.6218
11
329.308
21
-73.0218
0
LINE
8
BLACK
6
CONTINUOUS
10
329.308
20
-72.6218
11
328.908
21
-73.0218
0
LINE
8
BLACK
6
CONTINUOUS
10
329.365
20
-96.2946
11
329.765
21
-96.6946
0
LINE
8
BLACK
6
CONTINUOUS
10
329.765
20
-96.2946
11
329.365
21
-96.6946
0
LINE
8
BLACK
6
CONTINUOUS
10
330.533
20
-15.0654
11
330.933
21
-15.4654
0
LINE
8
BLACK
6
CONTINUOUS
10
330.933
20
-15.0654
11
330.533
21
-15.4654
0
LINE
8
BLACK
6
CONTINUOUS
10
331.397
20
-32.7952
11
331.797
21
-33.1952
0
LINE
8
BLACK
6
CONTINUOUS
10
331.797
20
-32.7952
11
331.397
21
-33.1952
0
LINE
8
BLACK
6
CONTINUOUS
10
331.88
20
-51.0826
11
332.28
21
-51.4826
0
LINE
8
BLACK
6
CONTINUOUS
10
332.28
20
-51.0826
11
331.88
21
-51.4826
0
LINE
8
BLACK
6
CONTINUOUS
10
332.692
20
-68.4308
11
333.092
21
-68.8308
0
LINE
8
BLACK
6
CONTINUOUS
10
333.092
20
-68.4308
11
332.692
21
-68.8308
0
LINE
8
BLACK
6
CONTINUOUS
10
332.769
20
-90.8082
11
333.169
21
-91.2082
0
LINE
8
BLACK
6
CONTINUOUS
10
333.169
20
-90.8082
11
332.769
21
-91.2082
0
LINE
8
BLACK
6
CONTINUOUS
10
334.343
20
-70.0934
11
334.743
21
-70.4934
0
LINE
8
BLACK
6
CONTINUOUS
10
334.743
20
-70.0934
11
334.343
21
-70.4934
0
LINE
8
BLACK
6
CONTINUOUS
10
335.791
20
-88.0142
11
336.191
21
-88.4142
0
LINE
8
BLACK
6
CONTINUOUS
10
336.191
20
-88.0142
11
335.791
21
-88.4142
0
LINE
8
BLACK
6
CONTINUOUS
10
335.842
20
-15.638
11
336.242
21
-16.038
0
LINE
8
BLACK
6
CONTINUOUS
10
336.242
20
-15.638
11
335.842
21
-16.038
0
LINE
8
BLACK
6
CONTINUOUS
10
335.842
20
-52.8098
11
336.242
21
-53.2098
0
LINE
8
BLACK
6
CONTINUOUS
10
336.242
20
-52.8098
11
335.842
21
-53.2098
0
LINE
8
BLACK
6
CONTINUOUS
10
335.969
20
-33.2452
11
336.369
21
-33.6452
0
LINE
8
BLACK
6
CONTINUOUS
10
336.369
20
-33.2452
11
335.969
21
-33.6452
0
LINE
8
BLACK
6
CONTINUOUS
10
337.021
20
-69.1028
11
337.421
21
-69.5028
0
LINE
8
BLACK
6
CONTINUOUS
10
337.421
20
-69.1028
11
337.021
21
-69.5028
0
LINE
8
BLACK
6
CONTINUOUS
10
337.067
20
-53.857
11
337.467
21
-54.257
0
LINE
8
BLACK
6
CONTINUOUS
10
337.467
20
-53.857
11
337.067
21
-54.257
0
LINE
8
BLACK
6
CONTINUOUS
10
337.239
20
-16.088
11
337.639
21
-16.488
0
LINE
8
BLACK
6
CONTINUOUS
10
337.639
20
-16.088
11
337.239
21
-16.488
0
LINE
8
BLACK
6
CONTINUOUS
10
337.269
20
-33.7747
11
337.669
21
-34.1747
0
LINE
8
BLACK
6
CONTINUOUS
10
337.669
20
-33.7747
11
337.269
21
-34.1747
0
LINE
8
BLACK
6
CONTINUOUS
10
338.407
20
-69.7516
11
338.807
21
-70.1516
0
LINE
8
BLACK
6
CONTINUOUS
10
338.807
20
-69.7516
11
338.407
21
-70.1516
0
LINE
8
BLACK
6
CONTINUOUS
10
338.473
20
-16.538
11
338.873
21
-16.938
0
LINE
8
BLACK
6
CONTINUOUS
10
338.873
20
-16.538
11
338.473
21
-16.938
0
LINE
8
BLACK
6
CONTINUOUS
10
338.473
20
-35.9547
11
338.873
21
-36.3547
0
LINE
8
BLACK
6
CONTINUOUS
10
338.873
20
-35.9547
11
338.473
21
-36.3547
0
LINE
8
BLACK
6
CONTINUOUS
10
338.473
20
-55.2841
11
338.873
21
-55.6841
0
LINE
8
BLACK
6
CONTINUOUS
10
338.873
20
-55.2841
11
338.473
21
-55.6841
0
LINE
8
BLACK
6
CONTINUOUS
10
340.033
20
-108.817
11
340.433
21
-109.217
0
LINE
8
BLACK
6
CONTINUOUS
10
340.433
20
-108.817
11
340.033
21
-109.217
0
LINE
8
BLACK
6
CONTINUOUS
10
340.16
20
-71.1232
11
340.56
21
-71.5232
0
LINE
8
BLACK
6
CONTINUOUS
10
340.56
20
-71.1232
11
340.16
21
-71.5232
0
LINE
8
BLACK
6
CONTINUOUS
10
341.1
20
-88.5846
11
341.5
21
-88.9846
0
LINE
8
BLACK
6
CONTINUOUS
10
341.5
20
-88.5846
11
341.1
21
-88.9846
0
LINE
8
BLACK
6
CONTINUOUS
10
343.056
20
-90.0794
11
343.456
21
-90.4794
0
LINE
8
BLACK
6
CONTINUOUS
10
343.456
20
-90.0794
11
343.056
21
-90.4794
0
LINE
8
BLACK
6
CONTINUOUS
10
343.236
20
-93.7176
11
343.636
21
-94.1176
0
LINE
8
BLACK
6
CONTINUOUS
10
343.636
20
-93.7176
11
343.236
21
-94.1176
0
LINE
8
BLACK
6
CONTINUOUS
10
345.367
20
-109.63
11
345.767
21
-110.03
0
LINE
8
BLACK
6
CONTINUOUS
10
345.767
20
-109.63
11
345.367
21
-110.03
0
LINE
8
BLACK
6
CONTINUOUS
10
346.104
20
-32.3258
11
346.504
21
-32.7258
0
LINE
8
BLACK
6
CONTINUOUS
10
346.504
20
-32.3258
11
346.104
21
-32.7258
0
LINE
8
BLACK
6
CONTINUOUS
10
346.662
20
-110.925
11
347.062
21
-111.325
0
LINE
8
BLACK
6
CONTINUOUS
10
347.062
20
-110.925
11
346.662
21
-111.325
0
LINE
8
BLACK
6
CONTINUOUS
10
347.018
20
-38.789
11
347.418
21
-39.189
0
LINE
8
BLACK
6
CONTINUOUS
10
347.418
20
-38.789
11
347.018
21
-39.189
0
LINE
8
BLACK
6
CONTINUOUS
10
347.374
20
-58.5756
11
347.774
21
-58.9756
0
LINE
8
BLACK
6
CONTINUOUS
10
347.774
20
-58.5756
11
347.374
21
-58.9756
0
LINE
8
BLACK
6
CONTINUOUS
10
347.998
20
-111.829
11
348.398
21
-112.229
0
LINE
8
BLACK
6
CONTINUOUS
10
348.398
20
-111.829
11
347.998
21
-112.229
0
LINE
8
BLACK
6
CONTINUOUS
10
349.761
20
-14.8622
11
350.161
21
-15.2622
0
LINE
8
BLACK
6
CONTINUOUS
10
350.161
20
-14.8622
11
349.761
21
-15.2622
0
LINE
8
BLACK
6
CONTINUOUS
10
349.863
20
-33.0232
11
350.263
21
-33.4232
0
LINE
8
BLACK
6
CONTINUOUS
10
350.263
20
-33.0232
11
349.863
21
-33.4232
0
LINE
8
BLACK
6
CONTINUOUS
10
351.234
20
-51.1842
11
351.634
21
-51.5842
0
LINE
8
BLACK
6
CONTINUOUS
10
351.634
20
-51.1842
11
351.234
21
-51.5842
0
LINE
8
BLACK
6
CONTINUOUS
10
353.673
20
-28.4258
11
354.073
21
-28.8258
0
LINE
8
BLACK
6
CONTINUOUS
10
354.073
20
-28.4258
11
353.673
21
-28.8258
0
LINE
8
BLACK
6
CONTINUOUS
10
354.079
20
-66.1194
11
354.479
21
-66.5194
0
LINE
8
BLACK
6
CONTINUOUS
10
354.479
20
-66.1194
11
354.079
21
-66.5194
0
LINE
8
BLACK
6
CONTINUOUS
10
354.663
20
-47.4758
11
355.063
21
-47.8758
0
LINE
8
BLACK
6
CONTINUOUS
10
355.063
20
-47.4758
11
354.663
21
-47.8758
0
LINE
8
BLACK
6
CONTINUOUS
10
354.892
20
-33.931
11
355.292
21
-34.331
0
LINE
8
BLACK
6
CONTINUOUS
10
355.292
20
-33.931
11
354.892
21
-34.331
0
LINE
8
BLACK
6
CONTINUOUS
10
354.892
20
-52.8352
11
355.292
21
-53.2352
0
LINE
8
BLACK
6
CONTINUOUS
10
355.292
20
-52.8352
11
354.892
21
-53.2352
0
LINE
8
BLACK
6
CONTINUOUS
10
355.171
20
-15.5734
11
355.571
21
-15.9734
0
LINE
8
BLACK
6
CONTINUOUS
10
355.571
20
-15.5734
11
355.171
21
-15.9734
0
LINE
8
BLACK
6
CONTINUOUS
10
356.117
20
-34.381
11
356.517
21
-34.781
0
LINE
8
BLACK
6
CONTINUOUS
10
356.517
20
-34.381
11
356.117
21
-34.781
0
LINE
8
BLACK
6
CONTINUOUS
10
356.162
20
-53.8766
11
356.562
21
-54.2766
0
LINE
8
BLACK
6
CONTINUOUS
10
356.562
20
-53.8766
11
356.162
21
-54.2766
0
LINE
8
BLACK
6
CONTINUOUS
10
356.314
20
-15.929
11
356.714
21
-16.329
0
LINE
8
BLACK
6
CONTINUOUS
10
356.714
20
-15.929
11
356.314
21
-16.329
0
LINE
8
BLACK
6
CONTINUOUS
10
356.518
20
-92.9926
11
356.918
21
-93.3926
0
LINE
8
BLACK
6
CONTINUOUS
10
356.918
20
-92.9926
11
356.518
21
-93.3926
0
LINE
8
BLACK
6
CONTINUOUS
10
356.721
20
-97.1328
11
357.121
21
-97.5328
0
LINE
8
BLACK
6
CONTINUOUS
10
357.121
20
-97.1328
11
356.721
21
-97.5328
0
LINE
8
BLACK
6
CONTINUOUS
10
357.523
20
-17.0096
11
357.923
21
-17.4096
0
LINE
8
BLACK
6
CONTINUOUS
10
357.923
20
-17.0096
11
357.523
21
-17.4096
0
LINE
8
BLACK
6
CONTINUOUS
10
357.523
20
-36.0817
11
357.923
21
-36.4817
0
LINE
8
BLACK
6
CONTINUOUS
10
357.923
20
-36.0817
11
357.523
21
-36.4817
0
LINE
8
BLACK
6
CONTINUOUS
10
357.523
20
-55.2631
11
357.923
21
-55.6631
0
LINE
8
BLACK
6
CONTINUOUS
10
357.923
20
-55.2631
11
357.523
21
-55.6631
0
LINE
8
BLACK
6
CONTINUOUS
10
358.643
20
-91.8924
11
359.043
21
-92.2924
0
LINE
8
BLACK
6
CONTINUOUS
10
359.043
20
-91.8924
11
358.643
21
-92.2924
0
LINE
8
BLACK
6
CONTINUOUS
10
360.632
20
-108.182
11
361.032
21
-108.582
0
LINE
8
BLACK
6
CONTINUOUS
10
361.032
20
-108.182
11
360.632
21
-108.582
0
LINE
8
BLACK
6
CONTINUOUS
10
361.064
20
-68.6594
11
361.464
21
-69.0594
0
LINE
8
BLACK
6
CONTINUOUS
10
361.464
20
-68.6594
11
361.064
21
-69.0594
0
LINE
8
BLACK
6
CONTINUOUS
10
361.344
20
-15.0135
11
361.744
21
-15.4135
0
LINE
8
BLACK
6
CONTINUOUS
10
361.744
20
-15.0135
11
361.344
21
-15.4135
0
LINE
8
BLACK
6
CONTINUOUS
10
361.801
20
-16.5132
11
362.201
21
-16.9132
0
LINE
8
BLACK
6
CONTINUOUS
10
362.201
20
-16.5132
11
361.801
21
-16.9132
0
LINE
8
BLACK
6
CONTINUOUS
10
362.588
20
-18.1388
11
362.988
21
-18.5388
0
LINE
8
BLACK
6
CONTINUOUS
10
362.988
20
-18.1388
11
362.588
21
-18.5388
0
LINE
8
BLACK
6
CONTINUOUS
10
363.528
20
-89.1826
11
363.928
21
-89.5826
0
LINE
8
BLACK
6
CONTINUOUS
10
363.928
20
-89.1826
11
363.528
21
-89.5826
0
LINE
8
BLACK
6
CONTINUOUS
10
364.239
20
-51.1588
11
364.639
21
-51.5588
0
LINE
8
BLACK
6
CONTINUOUS
10
364.639
20
-51.1588
11
364.239
21
-51.5588
0
LINE
8
BLACK
6
CONTINUOUS
10
364.417
20
-110.112
11
364.817
21
-110.512
0
LINE
8
BLACK
6
CONTINUOUS
10
364.817
20
-110.112
11
364.417
21
-110.512
0
LINE
8
BLACK
6
CONTINUOUS
10
364.433
20
-89.753
11
364.833
21
-90.153
0
LINE
8
BLACK
6
CONTINUOUS
10
364.833
20
-89.753
11
364.433
21
-90.153
0
LINE
8
BLACK
6
CONTINUOUS
10
365.496
20
-52.6452
11
365.896
21
-53.0452
0
LINE
8
BLACK
6
CONTINUOUS
10
365.896
20
-52.6452
11
365.496
21
-53.0452
0
LINE
8
BLACK
6
CONTINUOUS
10
365.642
20
-110.956
11
366.042
21
-111.356
0
LINE
8
BLACK
6
CONTINUOUS
10
366.042
20
-110.956
11
365.642
21
-111.356
0
LINE
8
BLACK
6
CONTINUOUS
10
366.627
20
-72.4532
11
367.027
21
-72.8532
0
LINE
8
BLACK
6
CONTINUOUS
10
367.027
20
-72.4532
11
366.627
21
-72.8532
0
LINE
8
BLACK
6
CONTINUOUS
10
366.728
20
-30.9912
11
367.128
21
-31.3912
0
LINE
8
BLACK
6
CONTINUOUS
10
367.128
20
-30.9912
11
366.728
21
-31.3912
0
LINE
8
BLACK
6
CONTINUOUS
10
366.728
20
-90.5034
11
367.128
21
-90.9034
0
LINE
8
BLACK
6
CONTINUOUS
10
367.128
20
-90.5034
11
366.728
21
-90.9034
0
LINE
8
BLACK
6
CONTINUOUS
10
366.881
20
-53.9528
11
367.281
21
-54.3528
0
LINE
8
BLACK
6
CONTINUOUS
10
367.281
20
-53.9528
11
366.881
21
-54.3528
0
LINE
8
BLACK
6
CONTINUOUS
10
367.048
20
-93.2615
11
367.448
21
-93.6615
0
LINE
8
BLACK
6
CONTINUOUS
10
367.448
20
-93.2615
11
367.048
21
-93.6615
0
LINE
8
BLACK
6
CONTINUOUS
10
367.048
20
-112.231
11
367.448
21
-112.631
0
LINE
8
BLACK
6
CONTINUOUS
10
367.448
20
-112.231
11
367.048
21
-112.631
0
LINE
8
BLACK
6
CONTINUOUS
10
367.516
20
-78.794
11
367.916
21
-79.194
0
LINE
8
BLACK
6
CONTINUOUS
10
367.916
20
-78.794
11
367.516
21
-79.194
0
LINE
8
BLACK
6
CONTINUOUS
10
367.744
20
-86.3632
11
368.144
21
-86.7632
0
LINE
8
BLACK
6
CONTINUOUS
10
368.144
20
-86.3632
11
367.744
21
-86.7632
0
LINE
8
BLACK
6
CONTINUOUS
10
368.252
20
-73.0536
11
368.652
21
-73.4536
0
LINE
8
BLACK
6
CONTINUOUS
10
368.652
20
-73.0536
11
368.252
21
-73.4536
0
LINE
8
BLACK
6
CONTINUOUS
10
369.504
20
-74.3169
11
369.904
21
-74.7169
0
LINE
8
BLACK
6
CONTINUOUS
10
369.904
20
-74.3169
11
369.504
21
-74.7169
0
LINE
8
BLACK
6
CONTINUOUS
10
369.522
20
-96.701
11
369.922
21
-97.101
0
LINE
8
BLACK
6
CONTINUOUS
10
369.922
20
-96.701
11
369.522
21
-97.101
0
LINE
8
BLACK
6
CONTINUOUS
10
369.954
20
-108.41
11
370.354
21
-108.81
0
LINE
8
BLACK
6
CONTINUOUS
10
370.354
20
-108.41
11
369.954
21
-108.81
0
LINE
8
BLACK
6
CONTINUOUS
10
371.072
20
-110.112
11
371.472
21
-110.512
0
LINE
8
BLACK
6
CONTINUOUS
10
371.472
20
-110.112
11
371.072
21
-110.512
0
LINE
8
BLACK
6
CONTINUOUS
10
372.506
20
-111.142
11
372.906
21
-111.542
0
LINE
8
BLACK
6
CONTINUOUS
10
372.906
20
-111.142
11
372.506
21
-111.542
0
LINE
8
BLACK
6
CONTINUOUS
10
373.371
20
-33.2778
11
373.771
21
-33.6778
0
LINE
8
BLACK
6
CONTINUOUS
10
373.771
20
-33.2778
11
373.371
21
-33.6778
0
LINE
8
BLACK
6
CONTINUOUS
10
375.401
20
-51.0682
11
375.801
21
-51.4682
0
LINE
8
BLACK
6
CONTINUOUS
10
375.801
20
-51.0682
11
375.401
21
-51.4682
0
LINE
8
BLACK
6
CONTINUOUS
10
376.279
20
-97.0312
11
376.679
21
-97.4312
0
LINE
8
BLACK
6
CONTINUOUS
10
376.679
20
-97.0312
11
376.279
21
-97.4312
0
LINE
8
BLACK
6
CONTINUOUS
10
376.355
20
-91.9512
11
376.755
21
-92.3512
0
LINE
8
BLACK
6
CONTINUOUS
10
376.755
20
-91.9512
11
376.355
21
-92.3512
0
LINE
8
BLACK
6
CONTINUOUS
10
377.041
20
-80.1402
11
377.441
21
-80.5402
0
LINE
8
BLACK
6
CONTINUOUS
10
377.441
20
-80.1402
11
377.041
21
-80.5402
0
LINE
8
BLACK
6
CONTINUOUS
10
377.066
20
-29.6704
11
377.466
21
-30.0704
0
LINE
8
BLACK
6
CONTINUOUS
10
377.466
20
-29.6704
11
377.066
21
-30.0704
0
LINE
8
BLACK
6
CONTINUOUS
10
377.32
20
-92.3068
11
377.72
21
-92.7068
0
LINE
8
BLACK
6
CONTINUOUS
10
377.72
20
-92.3068
11
377.32
21
-92.7068
0
LINE
8
BLACK
6
CONTINUOUS
10
378.705
20
-33.7278
11
379.105
21
-34.1278
0
LINE
8
BLACK
6
CONTINUOUS
10
379.105
20
-33.7278
11
378.705
21
-34.1278
0
LINE
8
BLACK
6
CONTINUOUS
10
378.705
20
-52.6452
11
379.105
21
-53.0452
0
LINE
8
BLACK
6
CONTINUOUS
10
379.105
20
-52.6452
11
378.705
21
-53.0452
0
LINE
8
BLACK
6
CONTINUOUS
10
379.124
20
-89.2334
11
379.524
21
-89.6334
0
LINE
8
BLACK
6
CONTINUOUS
10
379.524
20
-89.2334
11
379.124
21
-89.6334
0
LINE
8
BLACK
6
CONTINUOUS
10
379.276
20
-108.41
11
379.676
21
-108.81
0
LINE
8
BLACK
6
CONTINUOUS
10
379.676
20
-108.41
11
379.276
21
-108.81
0
LINE
8
BLACK
6
CONTINUOUS
10
380.013
20
-34.1778
11
380.413
21
-34.5778
0
LINE
8
BLACK
6
CONTINUOUS
10
380.413
20
-34.1778
11
380.013
21
-34.5778
0
LINE
8
BLACK
6
CONTINUOUS
10
380.14
20
-53.9528
11
380.54
21
-54.3528
0
LINE
8
BLACK
6
CONTINUOUS
10
380.54
20
-53.9528
11
380.14
21
-54.3528
0
LINE
8
BLACK
6
CONTINUOUS
10
381.029
20
-67.3132
11
381.429
21
-67.7132
0
LINE
8
BLACK
6
CONTINUOUS
10
381.429
20
-67.3132
11
381.029
21
-67.7132
0
LINE
8
BLACK
6
CONTINUOUS
10
381.181
20
-50.346
11
381.581
21
-50.746
0
LINE
8
BLACK
6
CONTINUOUS
10
381.581
20
-50.346
11
381.181
21
-50.746
0
LINE
8
BLACK
6
CONTINUOUS
10
381.336
20
-35.7891
11
381.736
21
-36.1891
0
LINE
8
BLACK
6
CONTINUOUS
10
381.736
20
-35.7891
11
381.336
21
-36.1891
0
LINE
8
BLACK
6
CONTINUOUS
10
381.336
20
-55.1185
11
381.736
21
-55.5185
0
LINE
8
BLACK
6
CONTINUOUS
10
381.736
20
-55.1185
11
381.336
21
-55.5185
0
LINE
8
BLACK
6
CONTINUOUS
10
383.035
20
-87.557
11
383.435
21
-87.957
0
LINE
8
BLACK
6
CONTINUOUS
10
383.435
20
-87.557
11
383.035
21
-87.957
0
LINE
8
BLACK
6
CONTINUOUS
10
383.467
20
-110.417
11
383.867
21
-110.817
0
LINE
8
BLACK
6
CONTINUOUS
10
383.867
20
-110.417
11
383.467
21
-110.817
0
LINE
8
BLACK
6
CONTINUOUS
10
383.569
20
-90.3764
11
383.969
21
-90.7764
0
LINE
8
BLACK
6
CONTINUOUS
10
383.969
20
-90.3764
11
383.569
21
-90.7764
0
LINE
8
BLACK
6
CONTINUOUS
10
384.813
20
-111.001
11
385.213
21
-111.401
0
LINE
8
BLACK
6
CONTINUOUS
10
385.213
20
-111.001
11
384.813
21
-111.401
0
LINE
8
BLACK
6
CONTINUOUS
10
384.991
20
-91.7734
11
385.391
21
-92.1734
0
LINE
8
BLACK
6
CONTINUOUS
10
385.391
20
-91.7734
11
384.991
21
-92.1734
0
LINE
8
BLACK
6
CONTINUOUS
10
385.169
20
-33.201
11
385.569
21
-33.601
0
LINE
8
BLACK
6
CONTINUOUS
10
385.569
20
-33.201
11
385.169
21
-33.601
0
LINE
8
BLACK
6
CONTINUOUS
10
386.098
20
-93.0329
11
386.498
21
-93.4329
0
LINE
8
BLACK
6
CONTINUOUS
10
386.498
20
-93.0329
11
386.098
21
-93.4329
0
LINE
8
BLACK
6
CONTINUOUS
10
386.098
20
-112.286
11
386.498
21
-112.686
0
LINE
8
BLACK
6
CONTINUOUS
10
386.498
20
-112.286
11
386.098
21
-112.686
0
LINE
8
BLACK
6
CONTINUOUS
10
386.337
20
-34.8012
11
386.737
21
-35.2012
0
LINE
8
BLACK
6
CONTINUOUS
10
386.737
20
-34.8012
11
386.337
21
-35.2012
0
LINE
8
BLACK
6
CONTINUOUS
10
387.582
20
-35.9188
11
387.982
21
-36.3188
0
LINE
8
BLACK
6
CONTINUOUS
10
387.982
20
-35.9188
11
387.582
21
-36.3188
0
LINE
8
BLACK
6
CONTINUOUS
10
387.683
20
-108.36
11
388.083
21
-108.76
0
LINE
8
BLACK
6
CONTINUOUS
10
388.083
20
-108.36
11
387.683
21
-108.76
0
CIRCLE
8
BLACK
10
206.641
20
-54.25
40
0.45
0
LINE
8
BLACK
6
CONTINUOUS
10
206.441
20
-54.7
11
206.841
21
-54.7
0
LINE
8
BLACK
6
CONTINUOUS
10
206.441
20
-53.8
11
206.841
21
-53.8
0
ARC
8
BLACK
10
206.841
20
-54.25
40
0.45
50
270
51
450
0
ARC
8
BLACK
10
206.441
20
-54.25
40
0.45
50
90
51
270
0
CIRCLE
8
BLACK
10
209.641
20
-54.25
40
0.45
0
LINE
8
BLACK
6
CONTINUOUS
10
209.441
20
-54.7
11
209.841
21
-54.7
0
LINE
8
BLACK
6
CONTINUOUS
10
209.441
20
-53.8
11
209.841
21
-53.8
0
ARC
8
BLACK
10
209.841
20
-54.25
40
0.45
50
270
51
450
0
ARC
8
BLACK
10
209.441
20
-54.25
40
0.45
50
90
51
270
0
CIRCLE
8
BLACK
10
213.641
20
-54.25
40
0.45
0
LINE
8
BLACK
6
CONTINUOUS
10
213.441
20
-54.7
11
213.841
21
-54.7
0
LINE
8
BLACK
6
CONTINUOUS
10
213.441
20
-53.8
11
213.841
21
-53.8
0
ARC
8
BLACK
10
213.841
20
-54.25
40
0.45
50
270
51
450
0
ARC
8
BLACK
10
213.441
20
-54.25
40
0.45
50
90
51
270
0
CIRCLE
8
BLACK
10
214.741
20
-58.85
40
0.45
0
LINE
8
BLACK
6
CONTINUOUS
10
214.541
20
-59.3
11
214.941
21
-59.3
0
LINE
8
BLACK
6
CONTINUOUS
10
214.541
20
-58.4
11
214.941
21
-58.4
0
ARC
8
BLACK
10
214.941
20
-58.85
40
0.45
50
270
51
450
0
ARC
8
BLACK
10
214.541
20
-58.85
40
0.45
50
90
51
270
0
LINE
8
BLACK
6
CONTINUOUS
10
207.48
20
-19.1389
11
207.48
21
-20.2311
0
LINE
8
BLACK
6
CONTINUOUS
10
206.934
20
-19.685
11
208.026
21
-19.685
0
LINE
8
BLACK
6
CONTINUOUS
10
207.48
20
-21.6789
11
207.48
21
-22.7711
0
LINE
8
BLACK
6
CONTINUOUS
10
206.934
20
-22.225
11
208.026
21
-22.225
0
LINE
8
BLACK
6
CONTINUOUS
10
207.48
20
-24.2189
11
207.48
21
-25.3111
0
LINE
8
BLACK
6
CONTINUOUS
10
206.934
20
-24.765
11
208.026
21
-24.765
0
LINE
8
BLACK
6
CONTINUOUS
10
207.48
20
-26.7589
11
207.48
21
-27.8511
0
LINE
8
BLACK
6
CONTINUOUS
10
206.934
20
-27.305
11
208.026
21
-27.305
0
LINE
8
BLACK
6
CONTINUOUS
10
207.48
20
-29.2989
11
207.48
21
-30.3911
0
LINE
8
BLACK
6
CONTINUOUS
10
206.934
20
-29.845
11
208.026
21
-29.845
0
LINE
8
BLACK
6
CONTINUOUS
10
207.48
20
-31.8389
11
207.48
21
-32.9311
0
LINE
8
BLACK
6
CONTINUOUS
10
206.934
20
-32.385
11
208.026
21
-32.385
0
LINE
8
BLACK
6
CONTINUOUS
10
207.48
20
-34.3789
11
207.48
21
-35.4711
0
LINE
8
BLACK
6
CONTINUOUS
10
206.934
20
-34.925
11
208.026
21
-34.925
0
LINE
8
BLACK
6
CONTINUOUS
10
207.48
20
-36.9189
11
207.48
21
-38.0111
0
LINE
8
BLACK
6
CONTINUOUS
10
206.934
20
-37.465
11
208.026
21
-37.465
0
LINE
8
BLACK
6
CONTINUOUS
10
207.48
20
-39.4589
11
207.48
21
-40.5511
0
LINE
8
BLACK
6
CONTINUOUS
10
206.934
20
-40.005
11
208.026
21
-40.005
0
LINE
8
BLACK
6
CONTINUOUS
10
207.48
20
-41.9989
11
207.48
21
-43.0911
0
LINE
8
BLACK
6
CONTINUOUS
10
206.934
20
-42.545
11
208.026
21
-42.545
0
LINE
8
BLACK
6
CONTINUOUS
10
207.48
20
-44.5389
11
207.48
21
-45.6311
0
LINE
8
BLACK
6
CONTINUOUS
10
206.934
20
-45.085
11
208.026
21
-45.085
0
LINE
8
BLACK
6
CONTINUOUS
10
207.708
20
-47.0789
11
207.708
21
-48.1711
0
LINE
8
BLACK
6
CONTINUOUS
10
207.162
20
-47.625
11
208.255
21
-47.625
0
LINE
8
BLACK
6
CONTINUOUS
10
222.72
20
-16.8889
11
222.72
21
-17.9811
0
LINE
8
BLACK
6
CONTINUOUS
10
222.174
20
-17.435
11
223.266
21
-17.435
0
LINE
8
BLACK
6
CONTINUOUS
10
222.72
20
-19.1389
11
222.72
21
-20.2311
0
LINE
8
BLACK
6
CONTINUOUS
10
222.174
20
-19.685
11
223.266
21
-19.685
0
LINE
8
BLACK
6
CONTINUOUS
10
222.72
20
-21.6789
11
222.72
21
-22.7711
0
LINE
8
BLACK
6
CONTINUOUS
10
222.174
20
-22.225
11
223.266
21
-22.225
0
LINE
8
BLACK
6
CONTINUOUS
10
222.72
20
-24.2189
11
222.72
21
-25.3111
0
LINE
8
BLACK
6
CONTINUOUS
10
222.174
20
-24.765
11
223.266
21
-24.765
0
LINE
8
BLACK
6
CONTINUOUS
10
222.72
20
-26.7589
11
222.72
21
-27.8511
0
LINE
8
BLACK
6
CONTINUOUS
10
222.174
20
-27.305
11
223.266
21
-27.305
0
LINE
8
BLACK
6
CONTINUOUS
10
222.72
20
-29.2989
11
222.72
21
-30.3911
0
LINE
8
BLACK
6
CONTINUOUS
10
222.174
20
-29.845
11
223.266
21
-29.845
0
LINE
8
BLACK
6
CONTINUOUS
10
222.72
20
-31.8389
11
222.72
21
-32.9311
0
LINE
8
BLACK
6
CONTINUOUS
10
222.174
20
-32.385
11
223.266
21
-32.385
0
LINE
8
BLACK
6
CONTINUOUS
10
222.72
20
-34.3789
11
222.72
21
-35.4711
0
LINE
8
BLACK
6
CONTINUOUS
10
222.174
20
-34.925
11
223.266
21
-34.925
0
LINE
8
BLACK
6
CONTINUOUS
10
222.72
20
-36.9189
11
222.72
21
-38.0111
0
LINE
8
BLACK
6
CONTINUOUS
10
222.174
20
-37.465
11
223.266
21
-37.465
0
LINE
8
BLACK
6
CONTINUOUS
10
222.72
20
-39.4589
11
222.72
21
-40.5511
0
LINE
8
BLACK
6
CONTINUOUS
10
222.174
20
-40.005
11
223.266
21
-40.005
0
LINE
8
BLACK
6
CONTINUOUS
10
222.72
20
-41.9989
11
222.72
21
-43.0911
0
LINE
8
BLACK
6
CONTINUOUS
10
222.174
20
-42.545
11
223.266
21
-42.545
0
LINE
8
BLACK
6
CONTINUOUS
10
222.72
20
-44.5389
11
222.72
21
-45.6311
0
LINE
8
BLACK
6
CONTINUOUS
10
222.174
20
-45.085
11
223.266
21
-45.085
0
LINE
8
BLACK
6
CONTINUOUS
10
222.72
20
-47.0789
11
222.72
21
-48.1711
0
LINE
8
BLACK
6
CONTINUOUS
10
222.174
20
-47.625
11
223.266
21
-47.625
0
LINE
8
BLACK
6
CONTINUOUS
10
346.121
20
-81.8464
11
346.121
21
-80.0786
0
LINE
8
BLACK
6
CONTINUOUS
10
346.121
20
-80.0786
11
344.353
21
-80.0786
0
LINE
8
BLACK
6
CONTINUOUS
10
344.353
20
-80.0786
11
344.353
21
-81.8464
0
LINE
8
BLACK
6
CONTINUOUS
10
344.353
20
-81.8464
11
346.121
21
-81.8464
0
LINE
8
BLACK
6
CONTINUOUS
10
310.459
20
-119.946
11
310.459
21
-118.179
0
LINE
8
BLACK
6
CONTINUOUS
10
310.459
20
-118.179
11
308.691
21
-118.179
0
LINE
8
BLACK
6
CONTINUOUS
10
308.691
20
-118.179
11
308.691
21
-119.946
0
LINE
8
BLACK
6
CONTINUOUS
10
308.691
20
-119.946
11
310.459
21
-119.946
0
LINE
8
BLACK
6
CONTINUOUS
10
366.872
20
-43.7083
11
366.872
21
-41.9405
0
LINE
8
BLACK
6
CONTINUOUS
10
366.872
20
-41.9405
11
365.105
21
-41.9405
0
LINE
8
BLACK
6
CONTINUOUS
10
365.105
20
-41.9405
11
365.105
21
-43.7083
0
LINE
8
BLACK
6
CONTINUOUS
10
365.105
20
-43.7083
11
366.872
21
-43.7083
0
LINE
8
BLACK
6
CONTINUOUS
10
205.706
20
-117.318
11
205.706
21
-115.55
0
LINE
8
BLACK
6
CONTINUOUS
10
205.706
20
-115.55
11
203.938
21
-115.55
0
LINE
8
BLACK
6
CONTINUOUS
10
203.938
20
-115.55
11
203.938
21
-117.318
0
LINE
8
BLACK
6
CONTINUOUS
10
203.938
20
-117.318
11
205.706
21
-117.318
0
LINE
8
BLACK
6
CONTINUOUS
10
226.097
20
-109.896
11
226.097
21
-108.128
0
LINE
8
BLACK
6
CONTINUOUS
10
226.097
20
-108.128
11
224.329
21
-108.128
0
LINE
8
BLACK
6
CONTINUOUS
10
224.329
20
-108.128
11
224.329
21
-109.896
0
LINE
8
BLACK
6
CONTINUOUS
10
224.329
20
-109.896
11
226.097
21
-109.896
0
LINE
8
BLACK
6
CONTINUOUS
10
234.221
20
-112.466
11
234.221
21
-110.698
0
LINE
8
BLACK
6
CONTINUOUS
10
234.221
20
-110.698
11
232.453
21
-110.698
0
LINE
8
BLACK
6
CONTINUOUS
10
232.453
20
-110.698
11
232.453
21
-112.466
0
LINE
8
BLACK
6
CONTINUOUS
10
232.453
20
-112.466
11
234.221
21
-112.466
0
LINE
8
BLACK
6
CONTINUOUS
10
205.706
20
-64.9839
11
205.706
21
-63.2161
0
LINE
8
BLACK
6
CONTINUOUS
10
205.706
20
-63.2161
11
203.938
21
-63.2161
0
LINE
8
BLACK
6
CONTINUOUS
10
203.938
20
-63.2161
11
203.938
21
-64.9839
0
LINE
8
BLACK
6
CONTINUOUS
10
203.938
20
-64.9839
11
205.706
21
-64.9839
0
LINE
8
BLACK
6
CONTINUOUS
10
226.097
20
-64.9839
11
226.097
21
-63.2161
0
LINE
8
BLACK
6
CONTINUOUS
10
226.097
20
-63.2161
11
224.329
21
-63.2161
0
LINE
8
BLACK
6
CONTINUOUS
10
224.329
20
-63.2161
11
224.329
21
-64.9839
0
LINE
8
BLACK
6
CONTINUOUS
10
224.329
20
-64.9839
11
226.097
21
-64.9839
0
LINE
8
BLACK
6
CONTINUOUS
10
204.164
20
-165.227
11
204.164
21
-162.227
0
LINE
8
BLACK
6
CONTINUOUS
10
204.164
20
-162.227
11
204.879
21
-162.227
0
LINE
8
BLACK
6
CONTINUOUS
10
204.879
20
-162.227
11
205.307
21
-162.37
0
LINE
8
BLACK
6
CONTINUOUS
10
205.307
20
-162.37
11
205.593
21
-162.656
0
LINE
8
BLACK
6
CONTINUOUS
10
205.593
20
-162.656
11
205.736
21
-162.941
0
LINE
8
BLACK
6
CONTINUOUS
10
205.736
20
-162.941
11
205.879
21
-163.513
0
LINE
8
BLACK
6
CONTINUOUS
10
205.879
20
-163.513
11
205.879
21
-163.941
0
LINE
8
BLACK
6
CONTINUOUS
10
205.879
20
-163.941
11
205.736
21
-164.513
0
LINE
8
BLACK
6
CONTINUOUS
10
205.736
20
-164.513
11
205.593
21
-164.799
0
LINE
8
BLACK
6
CONTINUOUS
10
205.593
20
-164.799
11
205.307
21
-165.084
0
LINE
8
BLACK
6
CONTINUOUS
10
205.307
20
-165.084
11
204.879
21
-165.227
0
LINE
8
BLACK
6
CONTINUOUS
10
204.879
20
-165.227
11
204.164
21
-165.227
0
LINE
8
BLACK
6
CONTINUOUS
10
207.164
20
-165.227
11
207.164
21
-163.227
0
LINE
8
BLACK
6
CONTINUOUS
10
207.164
20
-163.799
11
207.307
21
-163.513
0
LINE
8
BLACK
6
CONTINUOUS
10
207.307
20
-163.513
11
207.45
21
-163.37
0
LINE
8
BLACK
6
CONTINUOUS
10
207.45
20
-163.37
11
207.736
21
-163.227
0
LINE
8
BLACK
6
CONTINUOUS
10
207.736
20
-163.227
11
208.021
21
-163.227
0
LINE
8
BLACK
6
CONTINUOUS
10
209.021
20
-165.227
11
209.021
21
-163.227
0
LINE
8
BLACK
6
CONTINUOUS
10
209.021
20
-162.227
11
208.879
21
-162.37
0
LINE
8
BLACK
6
CONTINUOUS
10
208.879
20
-162.37
11
209.021
21
-162.513
0
LINE
8
BLACK
6
CONTINUOUS
10
209.021
20
-162.513
11
209.164
21
-162.37
0
LINE
8
BLACK
6
CONTINUOUS
10
209.164
20
-162.37
11
209.021
21
-162.227
0
LINE
8
BLACK
6
CONTINUOUS
10
209.021
20
-162.227
11
209.021
21
-162.513
0
LINE
8
BLACK
6
CONTINUOUS
10
210.879
20
-165.227
11
210.593
21
-165.084
0
LINE
8
BLACK
6
CONTINUOUS
10
210.593
20
-165.084
11
210.45
21
-164.799
0
LINE
8
BLACK
6
CONTINUOUS
10
210.45
20
-164.799
11
210.45
21
-162.227
0
LINE
8
BLACK
6
CONTINUOUS
10
212.45
20
-165.227
11
212.164
21
-165.084
0
LINE
8
BLACK
6
CONTINUOUS
10
212.164
20
-165.084
11
212.021
21
-164.799
0
LINE
8
BLACK
6
CONTINUOUS
10
212.021
20
-164.799
11
212.021
21
-162.227
0
LINE
8
BLACK
6
CONTINUOUS
10
215.879
20
-165.227
11
215.879
21
-162.227
0
LINE
8
BLACK
6
CONTINUOUS
10
215.879
20
-162.227
11
216.879
21
-164.37
0
LINE
8
BLACK
6
CONTINUOUS
10
216.879
20
-164.37
11
217.879
21
-162.227
0
LINE
8
BLACK
6
CONTINUOUS
10
217.879
20
-162.227
11
217.879
21
-165.227
0
LINE
8
BLACK
6
CONTINUOUS
10
220.593
20
-165.227
11
220.593
21
-163.656
0
LINE
8
BLACK
6
CONTINUOUS
10
220.593
20
-163.656
11
220.45
21
-163.37
0
LINE
8
BLACK
6
CONTINUOUS
10
220.45
20
-163.37
11
220.164
21
-163.227
0
LINE
8
BLACK
6
CONTINUOUS
10
220.164
20
-163.227
11
219.593
21
-163.227
0
LINE
8
BLACK
6
CONTINUOUS
10
219.593
20
-163.227
11
219.307
21
-163.37
0
LINE
8
BLACK
6
CONTINUOUS
10
220.593
20
-165.084
11
220.307
21
-165.227
0
LINE
8
BLACK
6
CONTINUOUS
10
220.307
20
-165.227
11
219.593
21
-165.227
0
LINE
8
BLACK
6
CONTINUOUS
10
219.593
20
-165.227
11
219.307
21
-165.084
0
LINE
8
BLACK
6
CONTINUOUS
10
219.307
20
-165.084
11
219.164
21
-164.799
0
LINE
8
BLACK
6
CONTINUOUS
10
219.164
20
-164.799
11
219.164
21
-164.513
0
LINE
8
BLACK
6
CONTINUOUS
10
219.164
20
-164.513
11
219.307
21
-164.227
0
LINE
8
BLACK
6
CONTINUOUS
10
219.307
20
-164.227
11
219.593
21
-164.084
0
LINE
8
BLACK
6
CONTINUOUS
10
219.593
20
-164.084
11
220.307
21
-164.084
0
LINE
8
BLACK
6
CONTINUOUS
10
220.307
20
-164.084
11
220.593
21
-163.941
0
LINE
8
BLACK
6
CONTINUOUS
10
222.021
20
-163.227
11
222.021
21
-166.227
0
LINE
8
BLACK
6
CONTINUOUS
10
222.021
20
-163.37
11
222.307
21
-163.227
0
LINE
8
BLACK
6
CONTINUOUS
10
222.307
20
-163.227
11
222.879
21
-163.227
0
LINE
8
BLACK
6
CONTINUOUS
10
222.879
20
-163.227
11
223.164
21
-163.37
0
LINE
8
BLACK
6
CONTINUOUS
10
223.164
20
-163.37
11
223.307
21
-163.513
0
LINE
8
BLACK
6
CONTINUOUS
10
223.307
20
-163.513
11
223.45
21
-163.799
0
LINE
8
BLACK
6
CONTINUOUS
10
223.45
20
-163.799
11
223.45
21
-164.656
0
LINE
8
BLACK
6
CONTINUOUS
10
223.45
20
-164.656
11
223.307
21
-164.941
0
LINE
8
BLACK
6
CONTINUOUS
10
223.307
20
-164.941
11
223.164
21
-165.084
0
LINE
8
BLACK
6
CONTINUOUS
10
223.164
20
-165.084
11
222.879
21
-165.227
0
LINE
8
BLACK
6
CONTINUOUS
10
222.879
20
-165.227
11
222.307
21
-165.227
0
LINE
8
BLACK
6
CONTINUOUS
10
222.307
20
-165.227
11
222.021
21
-165.084
0
LINE
8
BLACK
6
CONTINUOUS
10
224.736
20
-164.941
11
224.879
21
-165.084
0
LINE
8
BLACK
6
CONTINUOUS
10
224.879
20
-165.084
11
224.736
21
-165.227
0
LINE
8
BLACK
6
CONTINUOUS
10
224.736
20
-165.227
11
224.593
21
-165.084
0
LINE
8
BLACK
6
CONTINUOUS
10
224.593
20
-165.084
11
224.736
21
-164.941
0
LINE
8
BLACK
6
CONTINUOUS
10
224.736
20
-164.941
11
224.736
21
-165.227
0
LINE
8
BLACK
6
CONTINUOUS
10
224.736
20
-163.37
11
224.879
21
-163.513
0
LINE
8
BLACK
6
CONTINUOUS
10
224.879
20
-163.513
11
224.736
21
-163.656
0
LINE
8
BLACK
6
CONTINUOUS
10
224.736
20
-163.656
11
224.593
21
-163.513
0
LINE
8
BLACK
6
CONTINUOUS
10
224.593
20
-163.513
11
224.736
21
-163.37
0
LINE
8
BLACK
6
CONTINUOUS
10
224.736
20
-163.37
11
224.736
21
-163.656
0
LINE
8
BLACK
6
CONTINUOUS
10
200.9
20
-169.97
11
201.3
21
-170.37
0
LINE
8
BLACK
6
CONTINUOUS
10
201.3
20
-169.97
11
200.9
21
-170.37
0
LINE
8
BLACK
6
CONTINUOUS
10
204.736
20
-168.527
11
205.021
21
-168.527
0
LINE
8
BLACK
6
CONTINUOUS
10
205.021
20
-168.527
11
205.307
21
-168.67
0
LINE
8
BLACK
6
CONTINUOUS
10
205.307
20
-168.67
11
205.45
21
-168.813
0
LINE
8
BLACK
6
CONTINUOUS
10
205.45
20
-168.813
11
205.593
21
-169.099
0
LINE
8
BLACK
6
CONTINUOUS
10
205.593
20
-169.099
11
205.736
21
-169.67
0
LINE
8
BLACK
6
CONTINUOUS
10
205.736
20
-169.67
11
205.736
21
-170.384
0
LINE
8
BLACK
6
CONTINUOUS
10
205.736
20
-170.384
11
205.593
21
-170.956
0
LINE
8
BLACK
6
CONTINUOUS
10
205.593
20
-170.956
11
205.45
21
-171.241
0
LINE
8
BLACK
6
CONTINUOUS
10
205.45
20
-171.241
11
205.307
21
-171.384
0
LINE
8
BLACK
6
CONTINUOUS
10
205.307
20
-171.384
11
205.021
21
-171.527
0
LINE
8
BLACK
6
CONTINUOUS
10
205.021
20
-171.527
11
204.736
21
-171.527
0
LINE
8
BLACK
6
CONTINUOUS
10
204.736
20
-171.527
11
204.45
21
-171.384
0
LINE
8
BLACK
6
CONTINUOUS
10
204.45
20
-171.384
11
204.307
21
-171.241
0
LINE
8
BLACK
6
CONTINUOUS
10
204.307
20
-171.241
11
204.164
21
-170.956
0
LINE
8
BLACK
6
CONTINUOUS
10
204.164
20
-170.956
11
204.021
21
-170.384
0
LINE
8
BLACK
6
CONTINUOUS
10
204.021
20
-170.384
11
204.021
21
-169.67
0
LINE
8
BLACK
6
CONTINUOUS
10
204.021
20
-169.67
11
204.164
21
-169.099
0
LINE
8
BLACK
6
CONTINUOUS
10
204.164
20
-169.099
11
204.307
21
-168.813
0
LINE
8
BLACK
6
CONTINUOUS
10
204.307
20
-168.813
11
204.45
21
-168.67
0
LINE
8
BLACK
6
CONTINUOUS
10
204.45
20
-168.67
11
204.736
21
-168.527
0
LINE
8
BLACK
6
CONTINUOUS
10
207.021
20
-171.241
11
207.164
21
-171.384
0
LINE
8
BLACK
6
CONTINUOUS
10
207.164
20
-171.384
11
207.021
21
-171.527
0
LINE
8
BLACK
6
CONTINUOUS
10
207.021
20
-171.527
11
206.879
21
-171.384
0
LINE
8
BLACK
6
CONTINUOUS
10
206.879
20
-171.384
11
207.021
21
-171.241
0
LINE
8
BLACK
6
CONTINUOUS
10
207.021
20
-171.241
11
207.021
21
-171.527
0
LINE
8
BLACK
6
CONTINUOUS
10
209.736
20
-169.527
11
209.736
21
-171.527
0
LINE
8
BLACK
6
CONTINUOUS
10
209.021
20
-168.384
11
208.307
21
-170.527
0
LINE
8
BLACK
6
CONTINUOUS
10
208.307
20
-170.527
11
210.164
21
-170.527
0
LINE
8
BLACK
6
CONTINUOUS
10
211.879
20
-168.527
11
212.164
21
-168.527
0
LINE
8
BLACK
6
CONTINUOUS
10
212.164
20
-168.527
11
212.45
21
-168.67
0
LINE
8
BLACK
6
CONTINUOUS
10
212.45
20
-168.67
11
212.593
21
-168.813
0
LINE
8
BLACK
6
CONTINUOUS
10
212.593
20
-168.813
11
212.736
21
-169.099
0
LINE
8
BLACK
6
CONTINUOUS
10
212.736
20
-169.099
11
212.879
21
-169.67
0
LINE
8
BLACK
6
CONTINUOUS
10
212.879
20
-169.67
11
212.879
21
-170.384
0
LINE
8
BLACK
6
CONTINUOUS
10
212.879
20
-170.384
11
212.736
21
-170.956
0
LINE
8
BLACK
6
CONTINUOUS
10
212.736
20
-170.956
11
212.593
21
-171.241
0
LINE
8
BLACK
6
CONTINUOUS
10
212.593
20
-171.241
11
212.45
21
-171.384
0
LINE
8
BLACK
6
CONTINUOUS
10
212.45
20
-171.384
11
212.164
21
-171.527
0
LINE
8
BLACK
6
CONTINUOUS
10
212.164
20
-171.527
11
211.879
21
-171.527
0
LINE
8
BLACK
6
CONTINUOUS
10
211.879
20
-171.527
11
211.593
21
-171.384
0
LINE
8
BLACK
6
CONTINUOUS
10
211.593
20
-171.384
11
211.45
21
-171.241
0
LINE
8
BLACK
6
CONTINUOUS
10
211.45
20
-171.241
11
211.307
21
-170.956
0
LINE
8
BLACK
6
CONTINUOUS
10
211.307
20
-170.956
11
211.164
21
-170.384
0
LINE
8
BLACK
6
CONTINUOUS
10
211.164
20
-170.384
11
211.164
21
-169.67
0
LINE
8
BLACK
6
CONTINUOUS
10
211.164
20
-169.67
11
211.307
21
-169.099
0
LINE
8
BLACK
6
CONTINUOUS
10
211.307
20
-169.099
11
211.45
21
-168.813
0
LINE
8
BLACK
6
CONTINUOUS
10
211.45
20
-168.813
11
211.593
21
-168.67
0
LINE
8
BLACK
6
CONTINUOUS
10
211.593
20
-168.67
11
211.879
21
-168.527
0
LINE
8
BLACK
6
CONTINUOUS
10
214.164
20
-171.527
11
214.164
21
-169.527
0
LINE
8
BLACK
6
CONTINUOUS
10
214.164
20
-169.813
11
214.307
21
-169.67
0
LINE
8
BLACK
6
CONTINUOUS
10
214.307
20
-169.67
11
214.593
21
-169.527
0
LINE
8
BLACK
6
CONTINUOUS
10
214.593
20
-169.527
11
215.021
21
-169.527
0
LINE
8
BLACK
6
CONTINUOUS
10
215.021
20
-169.527
11
215.307
21
-169.67
0
LINE
8
BLACK
6
CONTINUOUS
10
215.307
20
-169.67
11
215.45
21
-169.956
0
LINE
8
BLACK
6
CONTINUOUS
10
215.45
20
-169.956
11
215.45
21
-171.527
0
LINE
8
BLACK
6
CONTINUOUS
10
215.45
20
-169.956
11
215.593
21
-169.67
0
LINE
8
BLACK
6
CONTINUOUS
10
215.593
20
-169.67
11
215.879
21
-169.527
0
LINE
8
BLACK
6
CONTINUOUS
10
215.879
20
-169.527
11
216.307
21
-169.527
0
LINE
8
BLACK
6
CONTINUOUS
10
216.307
20
-169.527
11
216.593
21
-169.67
0
LINE
8
BLACK
6
CONTINUOUS
10
216.593
20
-169.67
11
216.736
21
-169.956
0
LINE
8
BLACK
6
CONTINUOUS
10
216.736
20
-169.956
11
216.736
21
-171.527
0
LINE
8
BLACK
6
CONTINUOUS
10
218.164
20
-171.527
11
218.164
21
-169.527
0
LINE
8
BLACK
6
CONTINUOUS
10
218.164
20
-169.813
11
218.307
21
-169.67
0
LINE
8
BLACK
6
CONTINUOUS
10
218.307
20
-169.67
11
218.593
21
-169.527
0
LINE
8
BLACK
6
CONTINUOUS
10
218.593
20
-169.527
11
219.021
21
-169.527
0
LINE
8
BLACK
6
CONTINUOUS
10
219.021
20
-169.527
11
219.307
21
-169.67
0
LINE
8
BLACK
6
CONTINUOUS
10
219.307
20
-169.67
11
219.45
21
-169.956
0
LINE
8
BLACK
6
CONTINUOUS
10
219.45
20
-169.956
11
219.45
21
-171.527
0
LINE
8
BLACK
6
CONTINUOUS
10
219.45
20
-169.956
11
219.593
21
-169.67
0
LINE
8
BLACK
6
CONTINUOUS
10
219.593
20
-169.67
11
219.879
21
-169.527
0
LINE
8
BLACK
6
CONTINUOUS
10
219.879
20
-169.527
11
220.307
21
-169.527
0
LINE
8
BLACK
6
CONTINUOUS
10
220.307
20
-169.527
11
220.593
21
-169.67
0
LINE
8
BLACK
6
CONTINUOUS
10
220.593
20
-169.67
11
220.736
21
-169.956
0
LINE
8
BLACK
6
CONTINUOUS
10
220.736
20
-169.956
11
220.736
21
-171.527
0
LINE
8
BLACK
6
CONTINUOUS
10
226.593
20
-168.384
11
224.021
21
-172.241
0
LINE
8
BLACK
6
CONTINUOUS
10
230.45
20
-168.527
11
230.736
21
-168.527
0
LINE
8
BLACK
6
CONTINUOUS
10
230.736
20
-168.527
11
231.021
21
-168.67
0
LINE
8
BLACK
6
CONTINUOUS
10
231.021
20
-168.67
11
231.164
21
-168.813
0
LINE
8
BLACK
6
CONTINUOUS
10
231.164
20
-168.813
11
231.307
21
-169.099
0
LINE
8
BLACK
6
CONTINUOUS
10
231.307
20
-169.099
11
231.45
21
-169.67
0
LINE
8
BLACK
6
CONTINUOUS
10
231.45
20
-169.67
11
231.45
21
-170.384
0
LINE
8
BLACK
6
CONTINUOUS
10
231.45
20
-170.384
11
231.307
21
-170.956
0
LINE
8
BLACK
6
CONTINUOUS
10
231.307
20
-170.956
11
231.164
21
-171.241
0
LINE
8
BLACK
6
CONTINUOUS
10
231.164
20
-171.241
11
231.021
21
-171.384
0
LINE
8
BLACK
6
CONTINUOUS
10
231.021
20
-171.384
11
230.736
21
-171.527
0
LINE
8
BLACK
6
CONTINUOUS
10
230.736
20
-171.527
11
230.45
21
-171.527
0
LINE
8
BLACK
6
CONTINUOUS
10
230.45
20
-171.527
11
230.164
21
-171.384
0
LINE
8
BLACK
6
CONTINUOUS
10
230.164
20
-171.384
11
230.021
21
-171.241
0
LINE
8
BLACK
6
CONTINUOUS
10
230.021
20
-171.241
11
229.879
21
-170.956
0
LINE
8
BLACK
6
CONTINUOUS
10
229.879
20
-170.956
11
229.736
21
-170.384
0
LINE
8
BLACK
6
CONTINUOUS
10
229.736
20
-170.384
11
229.736
21
-169.67
0
LINE
8
BLACK
6
CONTINUOUS
10
229.736
20
-169.67
11
229.879
21
-169.099
0
LINE
8
BLACK
6
CONTINUOUS
10
229.879
20
-169.099
11
230.021
21
-168.813
0
LINE
8
BLACK
6
CONTINUOUS
10
230.021
20
-168.813
11
230.164
21
-168.67
0
LINE
8
BLACK
6
CONTINUOUS
10
230.164
20
-168.67
11
230.45
21
-168.527
0
LINE
8
BLACK
6
CONTINUOUS
10
232.736
20
-171.241
11
232.879
21
-171.384
0
LINE
8
BLACK
6
CONTINUOUS
10
232.879
20
-171.384
11
232.736
21
-171.527
0
LINE
8
BLACK
6
CONTINUOUS
10
232.736
20
-171.527
11
232.593
21
-171.384
0
LINE
8
BLACK
6
CONTINUOUS
10
232.593
20
-171.384
11
232.736
21
-171.241
0
LINE
8
BLACK
6
CONTINUOUS
10
232.736
20
-171.241
11
232.736
21
-171.527
0
LINE
8
BLACK
6
CONTINUOUS
10
234.736
20
-168.527
11
235.021
21
-168.527
0
LINE
8
BLACK
6
CONTINUOUS
10
235.021
20
-168.527
11
235.307
21
-168.67
0
LINE
8
BLACK
6
CONTINUOUS
10
235.307
20
-168.67
11
235.45
21
-168.813
0
LINE
8
BLACK
6
CONTINUOUS
10
235.45
20
-168.813
11
235.593
21
-169.099
0
LINE
8
BLACK
6
CONTINUOUS
10
235.593
20
-169.099
11
235.736
21
-169.67
0
LINE
8
BLACK
6
CONTINUOUS
10
235.736
20
-169.67
11
235.736
21
-170.384
0
LINE
8
BLACK
6
CONTINUOUS
10
235.736
20
-170.384
11
235.593
21
-170.956
0
LINE
8
BLACK
6
CONTINUOUS
10
235.593
20
-170.956
11
235.45
21
-171.241
0
LINE
8
BLACK
6
CONTINUOUS
10
235.45
20
-171.241
11
235.307
21
-171.384
0
LINE
8
BLACK
6
CONTINUOUS
10
235.307
20
-171.384
11
235.021
21
-171.527
0
LINE
8
BLACK
6
CONTINUOUS
10
235.021
20
-171.527
11
234.736
21
-171.527
0
LINE
8
BLACK
6
CONTINUOUS
10
234.736
20
-171.527
11
234.45
21
-171.384
0
LINE
8
BLACK
6
CONTINUOUS
10
234.45
20
-171.384
11
234.307
21
-171.241
0
LINE
8
BLACK
6
CONTINUOUS
10
234.307
20
-171.241
11
234.164
21
-170.956
0
LINE
8
BLACK
6
CONTINUOUS
10
234.164
20
-170.956
11
234.021
21
-170.384
0
LINE
8
BLACK
6
CONTINUOUS
10
234.021
20
-170.384
11
234.021
21
-169.67
0
LINE
8
BLACK
6
CONTINUOUS
10
234.021
20
-169.67
11
234.164
21
-169.099
0
LINE
8
BLACK
6
CONTINUOUS
10
234.164
20
-169.099
11
234.307
21
-168.813
0
LINE
8
BLACK
6
CONTINUOUS
10
234.307
20
-168.813
11
234.45
21
-168.67
0
LINE
8
BLACK
6
CONTINUOUS
10
234.45
20
-168.67
11
234.736
21
-168.527
0
LINE
8
BLACK
6
CONTINUOUS
10
238.593
20
-171.527
11
236.879
21
-171.527
0
LINE
8
BLACK
6
CONTINUOUS
10
237.736
20
-171.527
11
237.736
21
-168.527
0
LINE
8
BLACK
6
CONTINUOUS
10
237.736
20
-168.527
11
237.45
21
-168.956
0
LINE
8
BLACK
6
CONTINUOUS
10
237.45
20
-168.956
11
237.164
21
-169.241
0
LINE
8
BLACK
6
CONTINUOUS
10
237.164
20
-169.241
11
236.879
21
-169.384
0
LINE
8
BLACK
6
CONTINUOUS
10
241.164
20
-168.527
11
240.593
21
-168.527
0
LINE
8
BLACK
6
CONTINUOUS
10
240.593
20
-168.527
11
240.307
21
-168.67
0
LINE
8
BLACK
6
CONTINUOUS
10
240.307
20
-168.67
11
240.164
21
-168.813
0
LINE
8
BLACK
6
CONTINUOUS
10
240.164
20
-168.813
11
239.879
21
-169.241
0
LINE
8
BLACK
6
CONTINUOUS
10
239.879
20
-169.241
11
239.736
21
-169.813
0
LINE
8
BLACK
6
CONTINUOUS
10
239.736
20
-169.813
11
239.736
21
-170.956
0
LINE
8
BLACK
6
CONTINUOUS
10
239.736
20
-170.956
11
239.879
21
-171.241
0
LINE
8
BLACK
6
CONTINUOUS
10
239.879
20
-171.241
11
240.021
21
-171.384
0
LINE
8
BLACK
6
CONTINUOUS
10
240.021
20
-171.384
11
240.307
21
-171.527
0
LINE
8
BLACK
6
CONTINUOUS
10
240.307
20
-171.527
11
240.879
21
-171.527
0
LINE
8
BLACK
6
CONTINUOUS
10
240.879
20
-171.527
11
241.164
21
-171.384
0
LINE
8
BLACK
6
CONTINUOUS
10
241.164
20
-171.384
11
241.307
21
-171.241
0
LINE
8
BLACK
6
CONTINUOUS
10
241.307
20
-171.241
11
241.45
21
-170.956
0
LINE
8
BLACK
6
CONTINUOUS
10
241.45
20
-170.956
11
241.45
21
-170.241
0
LINE
8
BLACK
6
CONTINUOUS
10
241.45
20
-170.241
11
241.307
21
-169.956
0
LINE
8
BLACK
6
CONTINUOUS
10
241.307
20
-169.956
11
241.164
21
-169.813
0
LINE
8
BLACK
6
CONTINUOUS
10
241.164
20
-169.813
11
240.879
21
-169.67
0
LINE
8
BLACK
6
CONTINUOUS
10
240.879
20
-169.67
11
240.307
21
-169.67
0
LINE
8
BLACK
6
CONTINUOUS
10
240.307
20
-169.67
11
240.021
21
-169.813
0
LINE
8
BLACK
6
CONTINUOUS
10
240.021
20
-169.813
11
239.879
21
-169.956
0
LINE
8
BLACK
6
CONTINUOUS
10
239.879
20
-169.956
11
239.736
21
-170.241
0
LINE
8
BLACK
6
CONTINUOUS
10
242.593
20
-168.527
11
242.593
21
-169.099
0
LINE
8
BLACK
6
CONTINUOUS
10
243.736
20
-168.527
11
243.736
21
-169.099
0
LINE
8
BLACK
6
CONTINUOUS
10
248.164
20
-172.67
11
248.021
21
-172.527
0
LINE
8
BLACK
6
CONTINUOUS
10
248.021
20
-172.527
11
247.736
21
-172.099
0
LINE
8
BLACK
6
CONTINUOUS
10
247.736
20
-172.099
11
247.593
21
-171.813
0
LINE
8
BLACK
6
CONTINUOUS
10
247.593
20
-171.813
11
247.45
21
-171.384
0
LINE
8
BLACK
6
CONTINUOUS
10
247.45
20
-171.384
11
247.307
21
-170.67
0
LINE
8
BLACK
6
CONTINUOUS
10
247.307
20
-170.67
11
247.307
21
-170.099
0
LINE
8
BLACK
6
CONTINUOUS
10
247.307
20
-170.099
11
247.45
21
-169.384
0
LINE
8
BLACK
6
CONTINUOUS
10
247.45
20
-169.384
11
247.593
21
-168.956
0
LINE
8
BLACK
6
CONTINUOUS
10
247.593
20
-168.956
11
247.736
21
-168.67
0
LINE
8
BLACK
6
CONTINUOUS
10
247.736
20
-168.67
11
248.021
21
-168.241
0
LINE
8
BLACK
6
CONTINUOUS
10
248.021
20
-168.241
11
248.164
21
-168.099
0
LINE
8
BLACK
6
CONTINUOUS
10
249.021
20
-168.527
11
250.879
21
-168.527
0
LINE
8
BLACK
6
CONTINUOUS
10
250.879
20
-168.527
11
249.879
21
-169.67
0
LINE
8
BLACK
6
CONTINUOUS
10
249.879
20
-169.67
11
250.307
21
-169.67
0
LINE
8
BLACK
6
CONTINUOUS
10
250.307
20
-169.67
11
250.593
21
-169.813
0
LINE
8
BLACK
6
CONTINUOUS
10
250.593
20
-169.813
11
250.736
21
-169.956
0
LINE
8
BLACK
6
CONTINUOUS
10
250.736
20
-169.956
11
250.879
21
-170.241
0
LINE
8
BLACK
6
CONTINUOUS
10
250.879
20
-170.241
11
250.879
21
-170.956
0
LINE
8
BLACK
6
CONTINUOUS
10
250.879
20
-170.956
11
250.736
21
-171.241
0
LINE
8
BLACK
6
CONTINUOUS
10
250.736
20
-171.241
11
250.593
21
-171.384
0
LINE
8
BLACK
6
CONTINUOUS
10
250.593
20
-171.384
11
250.307
21
-171.527
0
LINE
8
BLACK
6
CONTINUOUS
10
250.307
20
-171.527
11
249.45
21
-171.527
0
LINE
8
BLACK
6
CONTINUOUS
10
249.45
20
-171.527
11
249.164
21
-171.384
0
LINE
8
BLACK
6
CONTINUOUS
10
249.164
20
-171.384
11
249.021
21
-171.241
0
LINE
8
BLACK
6
CONTINUOUS
10
253.45
20
-169.527
11
253.45
21
-171.527
0
LINE
8
BLACK
6
CONTINUOUS
10
252.736
20
-168.384
11
252.021
21
-170.527
0
LINE
8
BLACK
6
CONTINUOUS
10
252.021
20
-170.527
11
253.879
21
-170.527
0
LINE
8
BLACK
6
CONTINUOUS
10
254.879
20
-168.813
11
255.021
21
-168.67
0
LINE
8
BLACK
6
CONTINUOUS
10
255.021
20
-168.67
11
255.307
21
-168.527
0
LINE
8
BLACK
6
CONTINUOUS
10
255.307
20
-168.527
11
256.021
21
-168.527
0
LINE
8
BLACK
6
CONTINUOUS
10
256.021
20
-168.527
11
256.307
21
-168.67
0
LINE
8
BLACK
6
CONTINUOUS
10
256.307
20
-168.67
11
256.45
21
-168.813
0
LINE
8
BLACK
6
CONTINUOUS
10
256.45
20
-168.813
11
256.593
21
-169.099
0
LINE
8
BLACK
6
CONTINUOUS
10
256.593
20
-169.099
11
256.593
21
-169.384
0
LINE
8
BLACK
6
CONTINUOUS
10
256.593
20
-169.384
11
256.45
21
-169.813
0
LINE
8
BLACK
6
CONTINUOUS
10
256.45
20
-169.813
11
254.736
21
-171.527
0
LINE
8
BLACK
6
CONTINUOUS
10
254.736
20
-171.527
11
256.593
21
-171.527
0
LINE
8
BLACK
6
CONTINUOUS
10
260.164
20
-171.527
11
260.164
21
-168.527
0
LINE
8
BLACK
6
CONTINUOUS
10
261.45
20
-171.527
11
261.45
21
-169.956
0
LINE
8
BLACK
6
CONTINUOUS
10
261.45
20
-169.956
11
261.307
21
-169.67
0
LINE
8
BLACK
6
CONTINUOUS
10
261.307
20
-169.67
11
261.021
21
-169.527
0
LINE
8
BLACK
6
CONTINUOUS
10
261.021
20
-169.527
11
260.593
21
-169.527
0
LINE
8
BLACK
6
CONTINUOUS
10
260.593
20
-169.527
11
260.307
21
-169.67
0
LINE
8
BLACK
6
CONTINUOUS
10
260.307
20
-169.67
11
260.164
21
-169.813
0
LINE
8
BLACK
6
CONTINUOUS
10
263.307
20
-171.527
11
263.021
21
-171.384
0
LINE
8
BLACK
6
CONTINUOUS
10
263.021
20
-171.384
11
262.879
21
-171.241
0
LINE
8
BLACK
6
CONTINUOUS
10
262.879
20
-171.241
11
262.736
21
-170.956
0
LINE
8
BLACK
6
CONTINUOUS
10
262.736
20
-170.956
11
262.736
21
-170.099
0
LINE
8
BLACK
6
CONTINUOUS
10
262.736
20
-170.099
11
262.879
21
-169.813
0
LINE
8
BLACK
6
CONTINUOUS
10
262.879
20
-169.813
11
263.021
21
-169.67
0
LINE
8
BLACK
6
CONTINUOUS
10
263.021
20
-169.67
11
263.307
21
-169.527
0
LINE
8
BLACK
6
CONTINUOUS
10
263.307
20
-169.527
11
263.736
21
-169.527
0
LINE
8
BLACK
6
CONTINUOUS
10
263.736
20
-169.527
11
264.021
21
-169.67
0
LINE
8
BLACK
6
CONTINUOUS
10
264.021
20
-169.67
11
264.164
21
-169.813
0
LINE
8
BLACK
6
CONTINUOUS
10
264.164
20
-169.813
11
264.307
21
-170.099
0
LINE
8
BLACK
6
CONTINUOUS
10
264.307
20
-170.099
11
264.307
21
-170.956
0
LINE
8
BLACK
6
CONTINUOUS
10
264.307
20
-170.956
11
264.164
21
-171.241
0
LINE
8
BLACK
6
CONTINUOUS
10
264.164
20
-171.241
11
264.021
21
-171.384
0
LINE
8
BLACK
6
CONTINUOUS
10
264.021
20
-171.384
11
263.736
21
-171.527
0
LINE
8
BLACK
6
CONTINUOUS
10
263.736
20
-171.527
11
263.307
21
-171.527
0
LINE
8
BLACK
6
CONTINUOUS
10
266.021
20
-171.527
11
265.736
21
-171.384
0
LINE
8
BLACK
6
CONTINUOUS
10
265.736
20
-171.384
11
265.593
21
-171.099
0
LINE
8
BLACK
6
CONTINUOUS
10
265.593
20
-171.099
11
265.593
21
-168.527
0
LINE
8
BLACK
6
CONTINUOUS
10
268.307
20
-171.384
11
268.021
21
-171.527
0
LINE
8
BLACK
6
CONTINUOUS
10
268.021
20
-171.527
11
267.45
21
-171.527
0
LINE
8
BLACK
6
CONTINUOUS
10
267.45
20
-171.527
11
267.164
21
-171.384
0
LINE
8
BLACK
6
CONTINUOUS
10
267.164
20
-171.384
11
267.021
21
-171.099
0
LINE
8
BLACK
6
CONTINUOUS
10
267.021
20
-171.099
11
267.021
21
-169.956
0
LINE
8
BLACK
6
CONTINUOUS
10
267.021
20
-169.956
11
267.164
21
-169.67
0
LINE
8
BLACK
6
CONTINUOUS
10
267.164
20
-169.67
11
267.45
21
-169.527
0
LINE
8
BLACK
6
CONTINUOUS
10
267.45
20
-169.527
11
268.021
21
-169.527
0
LINE
8
BLACK
6
CONTINUOUS
10
268.021
20
-169.527
11
268.307
21
-169.67
0
LINE
8
BLACK
6
CONTINUOUS
10
268.307
20
-169.67
11
268.45
21
-169.956
0
LINE
8
BLACK
6
CONTINUOUS
10
268.45
20
-169.956
11
268.45
21
-170.241
0
LINE
8
BLACK
6
CONTINUOUS
10
268.45
20
-170.241
11
267.021
21
-170.527
0
LINE
8
BLACK
6
CONTINUOUS
10
269.593
20
-171.384
11
269.879
21
-171.527
0
LINE
8
BLACK
6
CONTINUOUS
10
269.879
20
-171.527
11
270.45
21
-171.527
0
LINE
8
BLACK
6
CONTINUOUS
10
270.45
20
-171.527
11
270.736
21
-171.384
0
LINE
8
BLACK
6
CONTINUOUS
10
270.736
20
-171.384
11
270.879
21
-171.099
0
LINE
8
BLACK
6
CONTINUOUS
10
270.879
20
-171.099
11
270.879
21
-170.956
0
LINE
8
BLACK
6
CONTINUOUS
10
270.879
20
-170.956
11
270.736
21
-170.67
0
LINE
8
BLACK
6
CONTINUOUS
10
270.736
20
-170.67
11
270.45
21
-170.527
0
LINE
8
BLACK
6
CONTINUOUS
10
270.45
20
-170.527
11
270.021
21
-170.527
0
LINE
8
BLACK
6
CONTINUOUS
10
270.021
20
-170.527
11
269.736
21
-170.384
0
LINE
8
BLACK
6
CONTINUOUS
10
269.736
20
-170.384
11
269.593
21
-170.099
0
LINE
8
BLACK
6
CONTINUOUS
10
269.593
20
-170.099
11
269.593
21
-169.956
0
LINE
8
BLACK
6
CONTINUOUS
10
269.593
20
-169.956
11
269.736
21
-169.67
0
LINE
8
BLACK
6
CONTINUOUS
10
269.736
20
-169.67
11
270.021
21
-169.527
0
LINE
8
BLACK
6
CONTINUOUS
10
270.021
20
-169.527
11
270.45
21
-169.527
0
LINE
8
BLACK
6
CONTINUOUS
10
270.45
20
-169.527
11
270.736
21
-169.67
0
LINE
8
BLACK
6
CONTINUOUS
10
271.879
20
-172.67
11
272.021
21
-172.527
0
LINE
8
BLACK
6
CONTINUOUS
10
272.021
20
-172.527
11
272.307
21
-172.099
0
LINE
8
BLACK
6
CONTINUOUS
10
272.307
20
-172.099
11
272.45
21
-171.813
0
LINE
8
BLACK
6
CONTINUOUS
10
272.45
20
-171.813
11
272.593
21
-171.384
0
LINE
8
BLACK
6
CONTINUOUS
10
272.593
20
-171.384
11
272.736
21
-170.67
0
LINE
8
BLACK
6
CONTINUOUS
10
272.736
20
-170.67
11
272.736
21
-170.099
0
LINE
8
BLACK
6
CONTINUOUS
10
272.736
20
-170.099
11
272.593
21
-169.384
0
LINE
8
BLACK
6
CONTINUOUS
10
272.593
20
-169.384
11
272.45
21
-168.956
0
LINE
8
BLACK
6
CONTINUOUS
10
272.45
20
-168.956
11
272.307
21
-168.67
0
LINE
8
BLACK
6
CONTINUOUS
10
272.307
20
-168.67
11
272.021
21
-168.241
0
LINE
8
BLACK
6
CONTINUOUS
10
272.021
20
-168.241
11
271.879
21
-168.099
0
CIRCLE
8
BLACK
10
200.85
20
-174.13
40
0.45
0
LINE
8
BLACK
6
CONTINUOUS
10
204.736
20
-172.487
11
205.021
21
-172.487
0
LINE
8
BLACK
6
CONTINUOUS
10
205.021
20
-172.487
11
205.307
21
-172.63
0
LINE
8
BLACK
6
CONTINUOUS
10
205.307
20
-172.63
11
205.45
21
-172.773
0
LINE
8
BLACK
6
CONTINUOUS
10
205.45
20
-172.773
11
205.593
21
-173.059
0
LINE
8
BLACK
6
CONTINUOUS
10
205.593
20
-173.059
11
205.736
21
-173.63
0
LINE
8
BLACK
6
CONTINUOUS
10
205.736
20
-173.63
11
205.736
21
-174.344
0
LINE
8
BLACK
6
CONTINUOUS
10
205.736
20
-174.344
11
205.593
21
-174.916
0
LINE
8
BLACK
6
CONTINUOUS
10
205.593
20
-174.916
11
205.45
21
-175.201
0
LINE
8
BLACK
6
CONTINUOUS
10
205.45
20
-175.201
11
205.307
21
-175.344
0
LINE
8
BLACK
6
CONTINUOUS
10
205.307
20
-175.344
11
205.021
21
-175.487
0
LINE
8
BLACK
6
CONTINUOUS
10
205.021
20
-175.487
11
204.736
21
-175.487
0
LINE
8
BLACK
6
CONTINUOUS
10
204.736
20
-175.487
11
204.45
21
-175.344
0
LINE
8
BLACK
6
CONTINUOUS
10
204.45
20
-175.344
11
204.307
21
-175.201
0
LINE
8
BLACK
6
CONTINUOUS
10
204.307
20
-175.201
11
204.164
21
-174.916
0
LINE
8
BLACK
6
CONTINUOUS
10
204.164
20
-174.916
11
204.021
21
-174.344
0
LINE
8
BLACK
6
CONTINUOUS
10
204.021
20
-174.344
11
204.021
21
-173.63
0
LINE
8
BLACK
6
CONTINUOUS
10
204.021
20
-173.63
11
204.164
21
-173.059
0
LINE
8
BLACK
6
CONTINUOUS
10
204.164
20
-173.059
11
204.307
21
-172.773
0
LINE
8
BLACK
6
CONTINUOUS
10
204.307
20
-172.773
11
204.45
21
-172.63
0
LINE
8
BLACK
6
CONTINUOUS
10
204.45
20
-172.63
11
204.736
21
-172.487
0
LINE
8
BLACK
6
CONTINUOUS
10
207.021
20
-175.201
11
207.164
21
-175.344
0
LINE
8
BLACK
6
CONTINUOUS
10
207.164
20
-175.344
11
207.021
21
-175.487
0
LINE
8
BLACK
6
CONTINUOUS
10
207.021
20
-175.487
11
206.879
21
-175.344
0
LINE
8
BLACK
6
CONTINUOUS
10
206.879
20
-175.344
11
207.021
21
-175.201
0
LINE
8
BLACK
6
CONTINUOUS
10
207.021
20
-175.201
11
207.021
21
-175.487
0
LINE
8
BLACK
6
CONTINUOUS
10
208.593
20
-175.487
11
209.164
21
-175.487
0
LINE
8
BLACK
6
CONTINUOUS
10
209.164
20
-175.487
11
209.45
21
-175.344
0
LINE
8
BLACK
6
CONTINUOUS
10
209.45
20
-175.344
11
209.593
21
-175.201
0
LINE
8
BLACK
6
CONTINUOUS
10
209.593
20
-175.201
11
209.879
21
-174.773
0
LINE
8
BLACK
6
CONTINUOUS
10
209.879
20
-174.773
11
210.021
21
-174.201
0
LINE
8
BLACK
6
CONTINUOUS
10
210.021
20
-174.201
11
210.021
21
-173.059
0
LINE
8
BLACK
6
CONTINUOUS
10
210.021
20
-173.059
11
209.879
21
-172.773
0
LINE
8
BLACK
6
CONTINUOUS
10
209.879
20
-172.773
11
209.736
21
-172.63
0
LINE
8
BLACK
6
CONTINUOUS
10
209.736
20
-172.63
11
209.45
21
-172.487
0
LINE
8
BLACK
6
CONTINUOUS
10
209.45
20
-172.487
11
208.879
21
-172.487
0
LINE
8
BLACK
6
CONTINUOUS
10
208.879
20
-172.487
11
208.593
21
-172.63
0
LINE
8
BLACK
6
CONTINUOUS
10
208.593
20
-172.63
11
208.45
21
-172.773
0
LINE
8
BLACK
6
CONTINUOUS
10
208.45
20
-172.773
11
208.307
21
-173.059
0
LINE
8
BLACK
6
CONTINUOUS
10
208.307
20
-173.059
11
208.307
21
-173.773
0
LINE
8
BLACK
6
CONTINUOUS
10
208.307
20
-173.773
11
208.45
21
-174.059
0
LINE
8
BLACK
6
CONTINUOUS
10
208.45
20
-174.059
11
208.593
21
-174.201
0
LINE
8
BLACK
6
CONTINUOUS
10
208.593
20
-174.201
11
208.879
21
-174.344
0
LINE
8
BLACK
6
CONTINUOUS
10
208.879
20
-174.344
11
209.45
21
-174.344
0
LINE
8
BLACK
6
CONTINUOUS
10
209.45
20
-174.344
11
209.736
21
-174.201
0
LINE
8
BLACK
6
CONTINUOUS
10
209.736
20
-174.201
11
209.879
21
-174.059
0
LINE
8
BLACK
6
CONTINUOUS
10
209.879
20
-174.059
11
210.021
21
-173.773
0
LINE
8
BLACK
6
CONTINUOUS
10
211.879
20
-172.487
11
212.164
21
-172.487
0
LINE
8
BLACK
6
CONTINUOUS
10
212.164
20
-172.487
11
212.45
21
-172.63
0
LINE
8
BLACK
6
CONTINUOUS
10
212.45
20
-172.63
11
212.593
21
-172.773
0
LINE
8
BLACK
6
CONTINUOUS
10
212.593
20
-172.773
11
212.736
21
-173.059
0
LINE
8
BLACK
6
CONTINUOUS
10
212.736
20
-173.059
11
212.879
21
-173.63
0
LINE
8
BLACK
6
CONTINUOUS
10
212.879
20
-173.63
11
212.879
21
-174.344
0
LINE
8
BLACK
6
CONTINUOUS
10
212.879
20
-174.344
11
212.736
21
-174.916
0
LINE
8
BLACK
6
CONTINUOUS
10
212.736
20
-174.916
11
212.593
21
-175.201
0
LINE
8
BLACK
6
CONTINUOUS
10
212.593
20
-175.201
11
212.45
21
-175.344
0
LINE
8
BLACK
6
CONTINUOUS
10
212.45
20
-175.344
11
212.164
21
-175.487
0
LINE
8
BLACK
6
CONTINUOUS
10
212.164
20
-175.487
11
211.879
21
-175.487
0
LINE
8
BLACK
6
CONTINUOUS
10
211.879
20
-175.487
11
211.593
21
-175.344
0
LINE
8
BLACK
6
CONTINUOUS
10
211.593
20
-175.344
11
211.45
21
-175.201
0
LINE
8
BLACK
6
CONTINUOUS
10
211.45
20
-175.201
11
211.307
21
-174.916
0
LINE
8
BLACK
6
CONTINUOUS
10
211.307
20
-174.916
11
211.164
21
-174.344
0
LINE
8
BLACK
6
CONTINUOUS
10
211.164
20
-174.344
11
211.164
21
-173.63
0
LINE
8
BLACK
6
CONTINUOUS
10
211.164
20
-173.63
11
211.307
21
-173.059
0
LINE
8
BLACK
6
CONTINUOUS
10
211.307
20
-173.059
11
211.45
21
-172.773
0
LINE
8
BLACK
6
CONTINUOUS
10
211.45
20
-172.773
11
211.593
21
-172.63
0
LINE
8
BLACK
6
CONTINUOUS
10
211.593
20
-172.63
11
211.879
21
-172.487
0
LINE
8
BLACK
6
CONTINUOUS
10
214.164
20
-175.487
11
214.164
21
-173.487
0
LINE
8
BLACK
6
CONTINUOUS
10
214.164
20
-173.773
11
214.307
21
-173.63
0
LINE
8
BLACK
6
CONTINUOUS
10
214.307
20
-173.63
11
214.593
21
-173.487
0
LINE
8
BLACK
6
CONTINUOUS
10
214.593
20
-173.487
11
215.021
21
-173.487
0
LINE
8
BLACK
6
CONTINUOUS
10
215.021
20
-173.487
11
215.307
21
-173.63
0
LINE
8
BLACK
6
CONTINUOUS
10
215.307
20
-173.63
11
215.45
21
-173.916
0
LINE
8
BLACK
6
CONTINUOUS
10
215.45
20
-173.916
11
215.45
21
-175.487
0
LINE
8
BLACK
6
CONTINUOUS
10
215.45
20
-173.916
11
215.593
21
-173.63
0
LINE
8
BLACK
6
CONTINUOUS
10
215.593
20
-173.63
11
215.879
21
-173.487
0
LINE
8
BLACK
6
CONTINUOUS
10
215.879
20
-173.487
11
216.307
21
-173.487
0
LINE
8
BLACK
6
CONTINUOUS
10
216.307
20
-173.487
11
216.593
21
-173.63
0
LINE
8
BLACK
6
CONTINUOUS
10
216.593
20
-173.63
11
216.736
21
-173.916
0
LINE
8
BLACK
6
CONTINUOUS
10
216.736
20
-173.916
11
216.736
21
-175.487
0
LINE
8
BLACK
6
CONTINUOUS
10
218.164
20
-175.487
11
218.164
21
-173.487
0
LINE
8
BLACK
6
CONTINUOUS
10
218.164
20
-173.773
11
218.307
21
-173.63
0
LINE
8
BLACK
6
CONTINUOUS
10
218.307
20
-173.63
11
218.593
21
-173.487
0
LINE
8
BLACK
6
CONTINUOUS
10
218.593
20
-173.487
11
219.021
21
-173.487
0
LINE
8
BLACK
6
CONTINUOUS
10
219.021
20
-173.487
11
219.307
21
-173.63
0
LINE
8
BLACK
6
CONTINUOUS
10
219.307
20
-173.63
11
219.45
21
-173.916
0
LINE
8
BLACK
6
CONTINUOUS
10
219.45
20
-173.916
11
219.45
21
-175.487
0
LINE
8
BLACK
6
CONTINUOUS
10
219.45
20
-173.916
11
219.593
21
-173.63
0
LINE
8
BLACK
6
CONTINUOUS
10
219.593
20
-173.63
11
219.879
21
-173.487
0
LINE
8
BLACK
6
CONTINUOUS
10
219.879
20
-173.487
11
220.307
21
-173.487
0
LINE
8
BLACK
6
CONTINUOUS
10
220.307
20
-173.487
11
220.593
21
-173.63
0
LINE
8
BLACK
6
CONTINUOUS
10
220.593
20
-173.63
11
220.736
21
-173.916
0
LINE
8
BLACK
6
CONTINUOUS
10
220.736
20
-173.916
11
220.736
21
-175.487
0
LINE
8
BLACK
6
CONTINUOUS
10
226.593
20
-172.344
11
224.021
21
-176.201
0
LINE
8
BLACK
6
CONTINUOUS
10
230.45
20
-172.487
11
230.736
21
-172.487
0
LINE
8
BLACK
6
CONTINUOUS
10
230.736
20
-172.487
11
231.021
21
-172.63
0
LINE
8
BLACK
6
CONTINUOUS
10
231.021
20
-172.63
11
231.164
21
-172.773
0
LINE
8
BLACK
6
CONTINUOUS
10
231.164
20
-172.773
11
231.307
21
-173.059
0
LINE
8
BLACK
6
CONTINUOUS
10
231.307
20
-173.059
11
231.45
21
-173.63
0
LINE
8
BLACK
6
CONTINUOUS
10
231.45
20
-173.63
11
231.45
21
-174.344
0
LINE
8
BLACK
6
CONTINUOUS
10
231.45
20
-174.344
11
231.307
21
-174.916
0
LINE
8
BLACK
6
CONTINUOUS
10
231.307
20
-174.916
11
231.164
21
-175.201
0
LINE
8
BLACK
6
CONTINUOUS
10
231.164
20
-175.201
11
231.021
21
-175.344
0
LINE
8
BLACK
6
CONTINUOUS
10
231.021
20
-175.344
11
230.736
21
-175.487
0
LINE
8
BLACK
6
CONTINUOUS
10
230.736
20
-175.487
11
230.45
21
-175.487
0
LINE
8
BLACK
6
CONTINUOUS
10
230.45
20
-175.487
11
230.164
21
-175.344
0
LINE
8
BLACK
6
CONTINUOUS
10
230.164
20
-175.344
11
230.021
21
-175.201
0
LINE
8
BLACK
6
CONTINUOUS
10
230.021
20
-175.201
11
229.879
21
-174.916
0
LINE
8
BLACK
6
CONTINUOUS
10
229.879
20
-174.916
11
229.736
21
-174.344
0
LINE
8
BLACK
6
CONTINUOUS
10
229.736
20
-174.344
11
229.736
21
-173.63
0
LINE
8
BLACK
6
CONTINUOUS
10
229.736
20
-173.63
11
229.879
21
-173.059
0
LINE
8
BLACK
6
CONTINUOUS
10
229.879
20
-173.059
11
230.021
21
-172.773
0
LINE
8
BLACK
6
CONTINUOUS
10
230.021
20
-172.773
11
230.164
21
-172.63
0
LINE
8
BLACK
6
CONTINUOUS
10
230.164
20
-172.63
11
230.45
21
-172.487
0
LINE
8
BLACK
6
CONTINUOUS
10
232.736
20
-175.201
11
232.879
21
-175.344
0
LINE
8
BLACK
6
CONTINUOUS
10
232.879
20
-175.344
11
232.736
21
-175.487
0
LINE
8
BLACK
6
CONTINUOUS
10
232.736
20
-175.487
11
232.593
21
-175.344
0
LINE
8
BLACK
6
CONTINUOUS
10
232.593
20
-175.344
11
232.736
21
-175.201
0
LINE
8
BLACK
6
CONTINUOUS
10
232.736
20
-175.201
11
232.736
21
-175.487
0
LINE
8
BLACK
6
CONTINUOUS
10
234.736
20
-172.487
11
235.021
21
-172.487
0
LINE
8
BLACK
6
CONTINUOUS
10
235.021
20
-172.487
11
235.307
21
-172.63
0
LINE
8
BLACK
6
CONTINUOUS
10
235.307
20
-172.63
11
235.45
21
-172.773
0
LINE
8
BLACK
6
CONTINUOUS
10
235.45
20
-172.773
11
235.593
21
-173.059
0
LINE
8
BLACK
6
CONTINUOUS
10
235.593
20
-173.059
11
235.736
21
-173.63
0
LINE
8
BLACK
6
CONTINUOUS
10
235.736
20
-173.63
11
235.736
21
-174.344
0
LINE
8
BLACK
6
CONTINUOUS
10
235.736
20
-174.344
11
235.593
21
-174.916
0
LINE
8
BLACK
6
CONTINUOUS
10
235.593
20
-174.916
11
235.45
21
-175.201
0
LINE
8
BLACK
6
CONTINUOUS
10
235.45
20
-175.201
11
235.307
21
-175.344
0
LINE
8
BLACK
6
CONTINUOUS
10
235.307
20
-175.344
11
235.021
21
-175.487
0
LINE
8
BLACK
6
CONTINUOUS
10
235.021
20
-175.487
11
234.736
21
-175.487
0
LINE
8
BLACK
6
CONTINUOUS
10
234.736
20
-175.487
11
234.45
21
-175.344
0
LINE
8
BLACK
6
CONTINUOUS
10
234.45
20
-175.344
11
234.307
21
-175.201
0
LINE
8
BLACK
6
CONTINUOUS
10
234.307
20
-175.201
11
234.164
21
-174.916
0
LINE
8
BLACK
6
CONTINUOUS
10
234.164
20
-174.916
11
234.021
21
-174.344
0
LINE
8
BLACK
6
CONTINUOUS
10
234.021
20
-174.344
11
234.021
21
-173.63
0
LINE
8
BLACK
6
CONTINUOUS
10
234.021
20
-173.63
11
234.164
21
-173.059
0
LINE
8
BLACK
6
CONTINUOUS
10
234.164
20
-173.059
11
234.307
21
-172.773
0
LINE
8
BLACK
6
CONTINUOUS
10
234.307
20
-172.773
11
234.45
21
-172.63
0
LINE
8
BLACK
6
CONTINUOUS
10
234.45
20
-172.63
11
234.736
21
-172.487
0
LINE
8
BLACK
6
CONTINUOUS
10
236.736
20
-172.487
11
238.593
21
-172.487
0
LINE
8
BLACK
6
CONTINUOUS
10
238.593
20
-172.487
11
237.593
21
-173.63
0
LINE
8
BLACK
6
CONTINUOUS
10
237.593
20
-173.63
11
238.021
21
-173.63
0
LINE
8
BLACK
6
CONTINUOUS
10
238.021
20
-173.63
11
238.307
21
-173.773
0
LINE
8
BLACK
6
CONTINUOUS
10
238.307
20
-173.773
11
238.45
21
-173.916
0
LINE
8
BLACK
6
CONTINUOUS
10
238.45
20
-173.916
11
238.593
21
-174.201
0
LINE
8
BLACK
6
CONTINUOUS
10
238.593
20
-174.201
11
238.593
21
-174.916
0
LINE
8
BLACK
6
CONTINUOUS
10
238.593
20
-174.916
11
238.45
21
-175.201
0
LINE
8
BLACK
6
CONTINUOUS
10
238.45
20
-175.201
11
238.307
21
-175.344
0
LINE
8
BLACK
6
CONTINUOUS
10
238.307
20
-175.344
11
238.021
21
-175.487
0
LINE
8
BLACK
6
CONTINUOUS
10
238.021
20
-175.487
11
237.164
21
-175.487
0
LINE
8
BLACK
6
CONTINUOUS
10
237.164
20
-175.487
11
236.879
21
-175.344
0
LINE
8
BLACK
6
CONTINUOUS
10
236.879
20
-175.344
11
236.736
21
-175.201
0
LINE
8
BLACK
6
CONTINUOUS
10
241.307
20
-172.487
11
239.879
21
-172.487
0
LINE
8
BLACK
6
CONTINUOUS
10
239.879
20
-172.487
11
239.736
21
-173.916
0
LINE
8
BLACK
6
CONTINUOUS
10
239.736
20
-173.916
11
239.879
21
-173.773
0
LINE
8
BLACK
6
CONTINUOUS
10
239.879
20
-173.773
11
240.164
21
-173.63
0
LINE
8
BLACK
6
CONTINUOUS
10
240.164
20
-173.63
11
240.879
21
-173.63
0
LINE
8
BLACK
6
CONTINUOUS
10
240.879
20
-173.63
11
241.164
21
-173.773
0
LINE
8
BLACK
6
CONTINUOUS
10
241.164
20
-173.773
11
241.307
21
-173.916
0
LINE
8
BLACK
6
CONTINUOUS
10
241.307
20
-173.916
11
241.45
21
-174.201
0
LINE
8
BLACK
6
CONTINUOUS
10
241.45
20
-174.201
11
241.45
21
-174.916
0
LINE
8
BLACK
6
CONTINUOUS
10
241.45
20
-174.916
11
241.307
21
-175.201
0
LINE
8
BLACK
6
CONTINUOUS
10
241.307
20
-175.201
11
241.164
21
-175.344
0
LINE
8
BLACK
6
CONTINUOUS
10
241.164
20
-175.344
11
240.879
21
-175.487
0
LINE
8
BLACK
6
CONTINUOUS
10
240.879
20
-175.487
11
240.164
21
-175.487
0
LINE
8
BLACK
6
CONTINUOUS
10
240.164
20
-175.487
11
239.879
21
-175.344
0
LINE
8
BLACK
6
CONTINUOUS
10
239.879
20
-175.344
11
239.736
21
-175.201
0
LINE
8
BLACK
6
CONTINUOUS
10
242.593
20
-172.487
11
242.593
21
-173.059
0
LINE
8
BLACK
6
CONTINUOUS
10
243.736
20
-172.487
11
243.736
21
-173.059
0
LINE
8
BLACK
6
CONTINUOUS
10
248.164
20
-176.63
11
248.021
21
-176.487
0
LINE
8
BLACK
6
CONTINUOUS
10
248.021
20
-176.487
11
247.736
21
-176.059
0
LINE
8
BLACK
6
CONTINUOUS
10
247.736
20
-176.059
11
247.593
21
-175.773
0
LINE
8
BLACK
6
CONTINUOUS
10
247.593
20
-175.773
11
247.45
21
-175.344
0
LINE
8
BLACK
6
CONTINUOUS
10
247.45
20
-175.344
11
247.307
21
-174.63
0
LINE
8
BLACK
6
CONTINUOUS
10
247.307
20
-174.63
11
247.307
21
-174.059
0
LINE
8
BLACK
6
CONTINUOUS
10
247.307
20
-174.059
11
247.45
21
-173.344
0
LINE
8
BLACK
6
CONTINUOUS
10
247.45
20
-173.344
11
247.593
21
-172.916
0
LINE
8
BLACK
6
CONTINUOUS
10
247.593
20
-172.916
11
247.736
21
-172.63
0
LINE
8
BLACK
6
CONTINUOUS
10
247.736
20
-172.63
11
248.021
21
-172.201
0
LINE
8
BLACK
6
CONTINUOUS
10
248.021
20
-172.201
11
248.164
21
-172.059
0
LINE
8
BLACK
6
CONTINUOUS
10
249.879
20
-172.487
11
250.164
21
-172.487
0
LINE
8
BLACK
6
CONTINUOUS
10
250.164
20
-172.487
11
250.45
21
-172.63
0
LINE
8
BLACK
6
CONTINUOUS
10
250.45
20
-172.63
11
250.593
21
-172.773
0
LINE
8
BLACK
6
CONTINUOUS
10
250.593
20
-172.773
11
250.736
21
-173.059
0
LINE
8
BLACK
6
CONTINUOUS
10
250.736
20
-173.059
11
250.879
21
-173.63
0
LINE
8
BLACK
6
CONTINUOUS
10
250.879
20
-173.63
11
250.879
21
-174.344
0
LINE
8
BLACK
6
CONTINUOUS
10
250.879
20
-174.344
11
250.736
21
-174.916
0
LINE
8
BLACK
6
CONTINUOUS
10
250.736
20
-174.916
11
250.593
21
-175.201
0
LINE
8
BLACK
6
CONTINUOUS
10
250.593
20
-175.201
11
250.45
21
-175.344
0
LINE
8
BLACK
6
CONTINUOUS
10
250.45
20
-175.344
11
250.164
21
-175.487
0
LINE
8
BLACK
6
CONTINUOUS
10
250.164
20
-175.487
11
249.879
21
-175.487
0
LINE
8
BLACK
6
CONTINUOUS
10
249.879
20
-175.487
11
249.593
21
-175.344
0
LINE
8
BLACK
6
CONTINUOUS
10
249.593
20
-175.344
11
249.45
21
-175.201
0
LINE
8
BLACK
6
CONTINUOUS
10
249.45
20
-175.201
11
249.307
21
-174.916
0
LINE
8
BLACK
6
CONTINUOUS
10
249.307
20
-174.916
11
249.164
21
-174.344
0
LINE
8
BLACK
6
CONTINUOUS
10
249.164
20
-174.344
11
249.164
21
-173.63
0
LINE
8
BLACK
6
CONTINUOUS
10
249.164
20
-173.63
11
249.307
21
-173.059
0
LINE
8
BLACK
6
CONTINUOUS
10
249.307
20
-173.059
11
249.45
21
-172.773
0
LINE
8
BLACK
6
CONTINUOUS
10
249.45
20
-172.773
11
249.593
21
-172.63
0
LINE
8
BLACK
6
CONTINUOUS
10
249.593
20
-172.63
11
249.879
21
-172.487
0
LINE
8
BLACK
6
CONTINUOUS
10
254.45
20
-175.487
11
254.45
21
-172.487
0
LINE
8
BLACK
6
CONTINUOUS
10
255.736
20
-175.487
11
255.736
21
-173.916
0
LINE
8
BLACK
6
CONTINUOUS
10
255.736
20
-173.916
11
255.593
21
-173.63
0
LINE
8
BLACK
6
CONTINUOUS
10
255.593
20
-173.63
11
255.307
21
-173.487
0
LINE
8
BLACK
6
CONTINUOUS
10
255.307
20
-173.487
11
254.879
21
-173.487
0
LINE
8
BLACK
6
CONTINUOUS
10
254.879
20
-173.487
11
254.593
21
-173.63
0
LINE
8
BLACK
6
CONTINUOUS
10
254.593
20
-173.63
11
254.45
21
-173.773
0
LINE
8
BLACK
6
CONTINUOUS
10
257.593
20
-175.487
11
257.307
21
-175.344
0
LINE
8
BLACK
6
CONTINUOUS
10
257.307
20
-175.344
11
257.164
21
-175.201
0
LINE
8
BLACK
6
CONTINUOUS
10
257.164
20
-175.201
11
257.021
21
-174.916
0
LINE
8
BLACK
6
CONTINUOUS
10
257.021
20
-174.916
11
257.021
21
-174.059
0
LINE
8
BLACK
6
CONTINUOUS
10
257.021
20
-174.059
11
257.164
21
-173.773
0
LINE
8
BLACK
6
CONTINUOUS
10
257.164
20
-173.773
11
257.307
21
-173.63
0
LINE
8
BLACK
6
CONTINUOUS
10
257.307
20
-173.63
11
257.593
21
-173.487
0
LINE
8
BLACK
6
CONTINUOUS
10
257.593
20
-173.487
11
258.021
21
-173.487
0
LINE
8
BLACK
6
CONTINUOUS
10
258.021
20
-173.487
11
258.307
21
-173.63
0
LINE
8
BLACK
6
CONTINUOUS
10
258.307
20
-173.63
11
258.45
21
-173.773
0
LINE
8
BLACK
6
CONTINUOUS
10
258.45
20
-173.773
11
258.593
21
-174.059
0
LINE
8
BLACK
6
CONTINUOUS
10
258.593
20
-174.059
11
258.593
21
-174.916
0
LINE
8
BLACK
6
CONTINUOUS
10
258.593
20
-174.916
11
258.45
21
-175.201
0
LINE
8
BLACK
6
CONTINUOUS
10
258.45
20
-175.201
11
258.307
21
-175.344
0
LINE
8
BLACK
6
CONTINUOUS
10
258.307
20
-175.344
11
258.021
21
-175.487
0
LINE
8
BLACK
6
CONTINUOUS
10
258.021
20
-175.487
11
257.593
21
-175.487
0
LINE
8
BLACK
6
CONTINUOUS
10
260.307
20
-175.487
11
260.021
21
-175.344
0
LINE
8
BLACK
6
CONTINUOUS
10
260.021
20
-175.344
11
259.879
21
-175.059
0
LINE
8
BLACK
6
CONTINUOUS
10
259.879
20
-175.059
11
259.879
21
-172.487
0
LINE
8
BLACK
6
CONTINUOUS
10
262.593
20
-175.344
11
262.307
21
-175.487
0
LINE
8
BLACK
6
CONTINUOUS
10
262.307
20
-175.487
11
261.736
21
-175.487
0
LINE
8
BLACK
6
CONTINUOUS
10
261.736
20
-175.487
11
261.45
21
-175.344
0
LINE
8
BLACK
6
CONTINUOUS
10
261.45
20
-175.344
11
261.307
21
-175.059
0
LINE
8
BLACK
6
CONTINUOUS
10
261.307
20
-175.059
11
261.307
21
-173.916
0
LINE
8
BLACK
6
CONTINUOUS
10
261.307
20
-173.916
11
261.45
21
-173.63
0
LINE
8
BLACK
6
CONTINUOUS
10
261.45
20
-173.63
11
261.736
21
-173.487
0
LINE
8
BLACK
6
CONTINUOUS
10
261.736
20
-173.487
11
262.307
21
-173.487
0
LINE
8
BLACK
6
CONTINUOUS
10
262.307
20
-173.487
11
262.593
21
-173.63
0
LINE
8
BLACK
6
CONTINUOUS
10
262.593
20
-173.63
11
262.736
21
-173.916
0
LINE
8
BLACK
6
CONTINUOUS
10
262.736
20
-173.916
11
262.736
21
-174.201
0
LINE
8
BLACK
6
CONTINUOUS
10
262.736
20
-174.201
11
261.307
21
-174.487
0
LINE
8
BLACK
6
CONTINUOUS
10
263.879
20
-175.344
11
264.164
21
-175.487
0
LINE
8
BLACK
6
CONTINUOUS
10
264.164
20
-175.487
11
264.736
21
-175.487
0
LINE
8
BLACK
6
CONTINUOUS
10
264.736
20
-175.487
11
265.021
21
-175.344
0
LINE
8
BLACK
6
CONTINUOUS
10
265.021
20
-175.344
11
265.164
21
-175.059
0
LINE
8
BLACK
6
CONTINUOUS
10
265.164
20
-175.059
11
265.164
21
-174.916
0
LINE
8
BLACK
6
CONTINUOUS
10
265.164
20
-174.916
11
265.021
21
-174.63
0
LINE
8
BLACK
6
CONTINUOUS
10
265.021
20
-174.63
11
264.736
21
-174.487
0
LINE
8
BLACK
6
CONTINUOUS
10
264.736
20
-174.487
11
264.307
21
-174.487
0
LINE
8
BLACK
6
CONTINUOUS
10
264.307
20
-174.487
11
264.021
21
-174.344
0
LINE
8
BLACK
6
CONTINUOUS
10
264.021
20
-174.344
11
263.879
21
-174.059
0
LINE
8
BLACK
6
CONTINUOUS
10
263.879
20
-174.059
11
263.879
21
-173.916
0
LINE
8
BLACK
6
CONTINUOUS
10
263.879
20
-173.916
11
264.021
21
-173.63
0
LINE
8
BLACK
6
CONTINUOUS
10
264.021
20
-173.63
11
264.307
21
-173.487
0
LINE
8
BLACK
6
CONTINUOUS
10
264.307
20
-173.487
11
264.736
21
-173.487
0
LINE
8
BLACK
6
CONTINUOUS
10
264.736
20
-173.487
11
265.021
21
-173.63
0
LINE
8
BLACK
6
CONTINUOUS
10
268.736
20
-174.344
11
271.021
21
-174.344
0
LINE
8
BLACK
6
CONTINUOUS
10
269.879
20
-175.487
11
269.879
21
-173.201
0
LINE
8
BLACK
6
CONTINUOUS
10
276.021
20
-173.487
11
276.021
21
-175.487
0
LINE
8
BLACK
6
CONTINUOUS
10
275.307
20
-172.344
11
274.593
21
-174.487
0
LINE
8
BLACK
6
CONTINUOUS
10
274.593
20
-174.487
11
276.45
21
-174.487
0
LINE
8
BLACK
6
CONTINUOUS
10
279.736
20
-175.344
11
280.021
21
-175.487
0
LINE
8
BLACK
6
CONTINUOUS
10
280.021
20
-175.487
11
280.593
21
-175.487
0
LINE
8
BLACK
6
CONTINUOUS
10
280.593
20
-175.487
11
280.879
21
-175.344
0
LINE
8
BLACK
6
CONTINUOUS
10
280.879
20
-175.344
11
281.021
21
-175.059
0
LINE
8
BLACK
6
CONTINUOUS
10
281.021
20
-175.059
11
281.021
21
-174.916
0
LINE
8
BLACK
6
CONTINUOUS
10
281.021
20
-174.916
11
280.879
21
-174.63
0
LINE
8
BLACK
6
CONTINUOUS
10
280.879
20
-174.63
11
280.593
21
-174.487
0
LINE
8
BLACK
6
CONTINUOUS
10
280.593
20
-174.487
11
280.164
21
-174.487
0
LINE
8
BLACK
6
CONTINUOUS
10
280.164
20
-174.487
11
279.879
21
-174.344
0
LINE
8
BLACK
6
CONTINUOUS
10
279.879
20
-174.344
11
279.736
21
-174.059
0
LINE
8
BLACK
6
CONTINUOUS
10
279.736
20
-174.059
11
279.736
21
-173.916
0
LINE
8
BLACK
6
CONTINUOUS
10
279.736
20
-173.916
11
279.879
21
-173.63
0
LINE
8
BLACK
6
CONTINUOUS
10
279.879
20
-173.63
11
280.164
21
-173.487
0
LINE
8
BLACK
6
CONTINUOUS
10
280.164
20
-173.487
11
280.593
21
-173.487
0
LINE
8
BLACK
6
CONTINUOUS
10
280.593
20
-173.487
11
280.879
21
-173.63
0
LINE
8
BLACK
6
CONTINUOUS
10
282.736
20
-175.487
11
282.45
21
-175.344
0
LINE
8
BLACK
6
CONTINUOUS
10
282.45
20
-175.344
11
282.307
21
-175.059
0
LINE
8
BLACK
6
CONTINUOUS
10
282.307
20
-175.059
11
282.307
21
-172.487
0
LINE
8
BLACK
6
CONTINUOUS
10
284.307
20
-175.487
11
284.021
21
-175.344
0
LINE
8
BLACK
6
CONTINUOUS
10
284.021
20
-175.344
11
283.879
21
-175.201
0
LINE
8
BLACK
6
CONTINUOUS
10
283.879
20
-175.201
11
283.736
21
-174.916
0
LINE
8
BLACK
6
CONTINUOUS
10
283.736
20
-174.916
11
283.736
21
-174.059
0
LINE
8
BLACK
6
CONTINUOUS
10
283.736
20
-174.059
11
283.879
21
-173.773
0
LINE
8
BLACK
6
CONTINUOUS
10
283.879
20
-173.773
11
284.021
21
-173.63
0
LINE
8
BLACK
6
CONTINUOUS
10
284.021
20
-173.63
11
284.307
21
-173.487
0
LINE
8
BLACK
6
CONTINUOUS
10
284.307
20
-173.487
11
284.736
21
-173.487
0
LINE
8
BLACK
6
CONTINUOUS
10
284.736
20
-173.487
11
285.021
21
-173.63
0
LINE
8
BLACK
6
CONTINUOUS
10
285.021
20
-173.63
11
285.164
21
-173.773
0
LINE
8
BLACK
6
CONTINUOUS
10
285.164
20
-173.773
11
285.307
21
-174.059
0
LINE
8
BLACK
6
CONTINUOUS
10
285.307
20
-174.059
11
285.307
21
-174.916
0
LINE
8
BLACK
6
CONTINUOUS
10
285.307
20
-174.916
11
285.164
21
-175.201
0
LINE
8
BLACK
6
CONTINUOUS
10
285.164
20
-175.201
11
285.021
21
-175.344
0
LINE
8
BLACK
6
CONTINUOUS
10
285.021
20
-175.344
11
284.736
21
-175.487
0
LINE
8
BLACK
6
CONTINUOUS
10
284.736
20
-175.487
11
284.307
21
-175.487
0
LINE
8
BLACK
6
CONTINUOUS
10
286.164
20
-173.487
11
287.307
21
-173.487
0
LINE
8
BLACK
6
CONTINUOUS
10
286.593
20
-172.487
11
286.593
21
-175.059
0
LINE
8
BLACK
6
CONTINUOUS
10
286.593
20
-175.059
11
286.736
21
-175.344
0
LINE
8
BLACK
6
CONTINUOUS
10
286.736
20
-175.344
11
287.021
21
-175.487
0
LINE
8
BLACK
6
CONTINUOUS
10
287.021
20
-175.487
11
287.307
21
-175.487
0
LINE
8
BLACK
6
CONTINUOUS
10
288.164
20
-175.344
11
288.45
21
-175.487
0
LINE
8
BLACK
6
CONTINUOUS
10
288.45
20
-175.487
11
289.021
21
-175.487
0
LINE
8
BLACK
6
CONTINUOUS
10
289.021
20
-175.487
11
289.307
21
-175.344
0
LINE
8
BLACK
6
CONTINUOUS
10
289.307
20
-175.344
11
289.45
21
-175.059
0
LINE
8
BLACK
6
CONTINUOUS
10
289.45
20
-175.059
11
289.45
21
-174.916
0
LINE
8
BLACK
6
CONTINUOUS
10
289.45
20
-174.916
11
289.307
21
-174.63
0
LINE
8
BLACK
6
CONTINUOUS
10
289.307
20
-174.63
11
289.021
21
-174.487
0
LINE
8
BLACK
6
CONTINUOUS
10
289.021
20
-174.487
11
288.593
21
-174.487
0
LINE
8
BLACK
6
CONTINUOUS
10
288.593
20
-174.487
11
288.307
21
-174.344
0
LINE
8
BLACK
6
CONTINUOUS
10
288.307
20
-174.344
11
288.164
21
-174.059
0
LINE
8
BLACK
6
CONTINUOUS
10
288.164
20
-174.059
11
288.164
21
-173.916
0
LINE
8
BLACK
6
CONTINUOUS
10
288.164
20
-173.916
11
288.307
21
-173.63
0
LINE
8
BLACK
6
CONTINUOUS
10
288.307
20
-173.63
11
288.593
21
-173.487
0
LINE
8
BLACK
6
CONTINUOUS
10
288.593
20
-173.487
11
289.021
21
-173.487
0
LINE
8
BLACK
6
CONTINUOUS
10
289.021
20
-173.487
11
289.307
21
-173.63
0
LINE
8
BLACK
6
CONTINUOUS
10
290.45
20
-176.63
11
290.593
21
-176.487
0
LINE
8
BLACK
6
CONTINUOUS
10
290.593
20
-176.487
11
290.879
21
-176.059
0
LINE
8
BLACK
6
CONTINUOUS
10
290.879
20
-176.059
11
291.021
21
-175.773
0
LINE
8
BLACK
6
CONTINUOUS
10
291.021
20
-175.773
11
291.164
21
-175.344
0
LINE
8
BLACK
6
CONTINUOUS
10
291.164
20
-175.344
11
291.307
21
-174.63
0
LINE
8
BLACK
6
CONTINUOUS
10
291.307
20
-174.63
11
291.307
21
-174.059
0
LINE
8
BLACK
6
CONTINUOUS
10
291.307
20
-174.059
11
291.164
21
-173.344
0
LINE
8
BLACK
6
CONTINUOUS
10
291.164
20
-173.344
11
291.021
21
-172.916
0
LINE
8
BLACK
6
CONTINUOUS
10
291.021
20
-172.916
11
290.879
21
-172.63
0
LINE
8
BLACK
6
CONTINUOUS
10
290.879
20
-172.63
11
290.593
21
-172.201
0
LINE
8
BLACK
6
CONTINUOUS
10
290.593
20
-172.201
11
290.45
21
-172.059
0
LINE
8
BLACK
6
CONTINUOUS
10
200.754
20
-177.544
11
200.754
21
-178.636
0
LINE
8
BLACK
6
CONTINUOUS
10
200.208
20
-178.09
11
201.3
21
-178.09
0
LINE
8
BLACK
6
CONTINUOUS
10
205.736
20
-179.447
11
204.021
21
-179.447
0
LINE
8
BLACK
6
CONTINUOUS
10
204.879
20
-179.447
11
204.879
21
-176.447
0
LINE
8
BLACK
6
CONTINUOUS
10
204.879
20
-176.447
11
204.593
21
-176.876
0
LINE
8
BLACK
6
CONTINUOUS
10
204.593
20
-176.876
11
204.307
21
-177.161
0
LINE
8
BLACK
6
CONTINUOUS
10
204.307
20
-177.161
11
204.021
21
-177.304
0
LINE
8
BLACK
6
CONTINUOUS
10
207.021
20
-179.161
11
207.164
21
-179.304
0
LINE
8
BLACK
6
CONTINUOUS
10
207.164
20
-179.304
11
207.021
21
-179.447
0
LINE
8
BLACK
6
CONTINUOUS
10
207.021
20
-179.447
11
206.879
21
-179.304
0
LINE
8
BLACK
6
CONTINUOUS
10
206.879
20
-179.304
11
207.021
21
-179.161
0
LINE
8
BLACK
6
CONTINUOUS
10
207.021
20
-179.161
11
207.021
21
-179.447
0
LINE
8
BLACK
6
CONTINUOUS
10
209.021
20
-176.447
11
209.307
21
-176.447
0
LINE
8
BLACK
6
CONTINUOUS
10
209.307
20
-176.447
11
209.593
21
-176.59
0
LINE
8
BLACK
6
CONTINUOUS
10
209.593
20
-176.59
11
209.736
21
-176.733
0
LINE
8
BLACK
6
CONTINUOUS
10
209.736
20
-176.733
11
209.879
21
-177.019
0
LINE
8
BLACK
6
CONTINUOUS
10
209.879
20
-177.019
11
210.021
21
-177.59
0
LINE
8
BLACK
6
CONTINUOUS
10
210.021
20
-177.59
11
210.021
21
-178.304
0
LINE
8
BLACK
6
CONTINUOUS
10
210.021
20
-178.304
11
209.879
21
-178.876
0
LINE
8
BLACK
6
CONTINUOUS
10
209.879
20
-178.876
11
209.736
21
-179.161
0
LINE
8
BLACK
6
CONTINUOUS
10
209.736
20
-179.161
11
209.593
21
-179.304
0
LINE
8
BLACK
6
CONTINUOUS
10
209.593
20
-179.304
11
209.307
21
-179.447
0
LINE
8
BLACK
6
CONTINUOUS
10
209.307
20
-179.447
11
209.021
21
-179.447
0
LINE
8
BLACK
6
CONTINUOUS
10
209.021
20
-179.447
11
208.736
21
-179.304
0
LINE
8
BLACK
6
CONTINUOUS
10
208.736
20
-179.304
11
208.593
21
-179.161
0
LINE
8
BLACK
6
CONTINUOUS
10
208.593
20
-179.161
11
208.45
21
-178.876
0
LINE
8
BLACK
6
CONTINUOUS
10
208.45
20
-178.876
11
208.307
21
-178.304
0
LINE
8
BLACK
6
CONTINUOUS
10
208.307
20
-178.304
11
208.307
21
-177.59
0
LINE
8
BLACK
6
CONTINUOUS
10
208.307
20
-177.59
11
208.45
21
-177.019
0
LINE
8
BLACK
6
CONTINUOUS
10
208.45
20
-177.019
11
208.593
21
-176.733
0
LINE
8
BLACK
6
CONTINUOUS
10
208.593
20
-176.733
11
208.736
21
-176.59
0
LINE
8
BLACK
6
CONTINUOUS
10
208.736
20
-176.59
11
209.021
21
-176.447
0
LINE
8
BLACK
6
CONTINUOUS
10
211.45
20
-179.447
11
212.021
21
-179.447
0
LINE
8
BLACK
6
CONTINUOUS
10
212.021
20
-179.447
11
212.307
21
-179.304
0
LINE
8
BLACK
6
CONTINUOUS
10
212.307
20
-179.304
11
212.45
21
-179.161
0
LINE
8
BLACK
6
CONTINUOUS
10
212.45
20
-179.161
11
212.736
21
-178.733
0
LINE
8
BLACK
6
CONTINUOUS
10
212.736
20
-178.733
11
212.879
21
-178.161
0
LINE
8
BLACK
6
CONTINUOUS
10
212.879
20
-178.161
11
212.879
21
-177.019
0
LINE
8
BLACK
6
CONTINUOUS
10
212.879
20
-177.019
11
212.736
21
-176.733
0
LINE
8
BLACK
6
CONTINUOUS
10
212.736
20
-176.733
11
212.593
21
-176.59
0
LINE
8
BLACK
6
CONTINUOUS
10
212.593
20
-176.59
11
212.307
21
-176.447
0
LINE
8
BLACK
6
CONTINUOUS
10
212.307
20
-176.447
11
211.736
21
-176.447
0
LINE
8
BLACK
6
CONTINUOUS
10
211.736
20
-176.447
11
211.45
21
-176.59
0
LINE
8
BLACK
6
CONTINUOUS
10
211.45
20
-176.59
11
211.307
21
-176.733
0
LINE
8
BLACK
6
CONTINUOUS
10
211.307
20
-176.733
11
211.164
21
-177.019
0
LINE
8
BLACK
6
CONTINUOUS
10
211.164
20
-177.019
11
211.164
21
-177.733
0
LINE
8
BLACK
6
CONTINUOUS
10
211.164
20
-177.733
11
211.307
21
-178.019
0
LINE
8
BLACK
6
CONTINUOUS
10
211.307
20
-178.019
11
211.45
21
-178.161
0
LINE
8
BLACK
6
CONTINUOUS
10
211.45
20
-178.161
11
211.736
21
-178.304
0
LINE
8
BLACK
6
CONTINUOUS
10
211.736
20
-178.304
11
212.307
21
-178.304
0
LINE
8
BLACK
6
CONTINUOUS
10
212.307
20
-178.304
11
212.593
21
-178.161
0
LINE
8
BLACK
6
CONTINUOUS
10
212.593
20
-178.161
11
212.736
21
-178.019
0
LINE
8
BLACK
6
CONTINUOUS
10
212.736
20
-178.019
11
212.879
21
-177.733
0
LINE
8
BLACK
6
CONTINUOUS
10
214.164
20
-179.447
11
214.164
21
-177.447
0
LINE
8
BLACK
6
CONTINUOUS
10
214.164
20
-177.733
11
214.307
21
-177.59
0
LINE
8
BLACK
6
CONTINUOUS
10
214.307
20
-177.59
11
214.593
21
-177.447
0
LINE
8
BLACK
6
CONTINUOUS
10
214.593
20
-177.447
11
215.021
21
-177.447
0
LINE
8
BLACK
6
CONTINUOUS
10
215.021
20
-177.447
11
215.307
21
-177.59
0
LINE
8
BLACK
6
CONTINUOUS
10
215.307
20
-177.59
11
215.45
21
-177.876
0
LINE
8
BLACK
6
CONTINUOUS
10
215.45
20
-177.876
11
215.45
21
-179.447
0
LINE
8
BLACK
6
CONTINUOUS
10
215.45
20
-177.876
11
215.593
21
-177.59
0
LINE
8
BLACK
6
CONTINUOUS
10
215.593
20
-177.59
11
215.879
21
-177.447
0
LINE
8
BLACK
6
CONTINUOUS
10
215.879
20
-177.447
11
216.307
21
-177.447
0
LINE
8
BLACK
6
CONTINUOUS
10
216.307
20
-177.447
11
216.593
21
-177.59
0
LINE
8
BLACK
6
CONTINUOUS
10
216.593
20
-177.59
11
216.736
21
-177.876
0
LINE
8
BLACK
6
CONTINUOUS
10
216.736
20
-177.876
11
216.736
21
-179.447
0
LINE
8
BLACK
6
CONTINUOUS
10
218.164
20
-179.447
11
218.164
21
-177.447
0
LINE
8
BLACK
6
CONTINUOUS
10
218.164
20
-177.733
11
218.307
21
-177.59
0
LINE
8
BLACK
6
CONTINUOUS
10
218.307
20
-177.59
11
218.593
21
-177.447
0
LINE
8
BLACK
6
CONTINUOUS
10
218.593
20
-177.447
11
219.021
21
-177.447
0
LINE
8
BLACK
6
CONTINUOUS
10
219.021
20
-177.447
11
219.307
21
-177.59
0
LINE
8
BLACK
6
CONTINUOUS
10
219.307
20
-177.59
11
219.45
21
-177.876
0
LINE
8
BLACK
6
CONTINUOUS
10
219.45
20
-177.876
11
219.45
21
-179.447
0
LINE
8
BLACK
6
CONTINUOUS
10
219.45
20
-177.876
11
219.593
21
-177.59
0
LINE
8
BLACK
6
CONTINUOUS
10
219.593
20
-177.59
11
219.879
21
-177.447
0
LINE
8
BLACK
6
CONTINUOUS
10
219.879
20
-177.447
11
220.307
21
-177.447
0
LINE
8
BLACK
6
CONTINUOUS
10
220.307
20
-177.447
11
220.593
21
-177.59
0
LINE
8
BLACK
6
CONTINUOUS
10
220.593
20
-177.59
11
220.736
21
-177.876
0
LINE
8
BLACK
6
CONTINUOUS
10
220.736
20
-177.876
11
220.736
21
-179.447
0
LINE
8
BLACK
6
CONTINUOUS
10
226.593
20
-176.304
11
224.021
21
-180.161
0
LINE
8
BLACK
6
CONTINUOUS
10
230.45
20
-176.447
11
230.736
21
-176.447
0
LINE
8
BLACK
6
CONTINUOUS
10
230.736
20
-176.447
11
231.021
21
-176.59
0
LINE
8
BLACK
6
CONTINUOUS
10
231.021
20
-176.59
11
231.164
21
-176.733
0
LINE
8
BLACK
6
CONTINUOUS
10
231.164
20
-176.733
11
231.307
21
-177.019
0
LINE
8
BLACK
6
CONTINUOUS
10
231.307
20
-177.019
11
231.45
21
-177.59
0
LINE
8
BLACK
6
CONTINUOUS
10
231.45
20
-177.59
11
231.45
21
-178.304
0
LINE
8
BLACK
6
CONTINUOUS
10
231.45
20
-178.304
11
231.307
21
-178.876
0
LINE
8
BLACK
6
CONTINUOUS
10
231.307
20
-178.876
11
231.164
21
-179.161
0
LINE
8
BLACK
6
CONTINUOUS
10
231.164
20
-179.161
11
231.021
21
-179.304
0
LINE
8
BLACK
6
CONTINUOUS
10
231.021
20
-179.304
11
230.736
21
-179.447
0
LINE
8
BLACK
6
CONTINUOUS
10
230.736
20
-179.447
11
230.45
21
-179.447
0
LINE
8
BLACK
6
CONTINUOUS
10
230.45
20
-179.447
11
230.164
21
-179.304
0
LINE
8
BLACK
6
CONTINUOUS
10
230.164
20
-179.304
11
230.021
21
-179.161
0
LINE
8
BLACK
6
CONTINUOUS
10
230.021
20
-179.161
11
229.879
21
-178.876
0
LINE
8
BLACK
6
CONTINUOUS
10
229.879
20
-178.876
11
229.736
21
-178.304
0
LINE
8
BLACK
6
CONTINUOUS
10
229.736
20
-178.304
11
229.736
21
-177.59
0
LINE
8
BLACK
6
CONTINUOUS
10
229.736
20
-177.59
11
229.879
21
-177.019
0
LINE
8
BLACK
6
CONTINUOUS
10
229.879
20
-177.019
11
230.021
21
-176.733
0
LINE
8
BLACK
6
CONTINUOUS
10
230.021
20
-176.733
11
230.164
21
-176.59
0
LINE
8
BLACK
6
CONTINUOUS
10
230.164
20
-176.59
11
230.45
21
-176.447
0
LINE
8
BLACK
6
CONTINUOUS
10
232.736
20
-179.161
11
232.879
21
-179.304
0
LINE
8
BLACK
6
CONTINUOUS
10
232.879
20
-179.304
11
232.736
21
-179.447
0
LINE
8
BLACK
6
CONTINUOUS
10
232.736
20
-179.447
11
232.593
21
-179.304
0
LINE
8
BLACK
6
CONTINUOUS
10
232.593
20
-179.304
11
232.736
21
-179.161
0
LINE
8
BLACK
6
CONTINUOUS
10
232.736
20
-179.161
11
232.736
21
-179.447
0
LINE
8
BLACK
6
CONTINUOUS
10
234.736
20
-176.447
11
235.021
21
-176.447
0
LINE
8
BLACK
6
CONTINUOUS
10
235.021
20
-176.447
11
235.307
21
-176.59
0
LINE
8
BLACK
6
CONTINUOUS
10
235.307
20
-176.59
11
235.45
21
-176.733
0
LINE
8
BLACK
6
CONTINUOUS
10
235.45
20
-176.733
11
235.593
21
-177.019
0
LINE
8
BLACK
6
CONTINUOUS
10
235.593
20
-177.019
11
235.736
21
-177.59
0
LINE
8
BLACK
6
CONTINUOUS
10
235.736
20
-177.59
11
235.736
21
-178.304
0
LINE
8
BLACK
6
CONTINUOUS
10
235.736
20
-178.304
11
235.593
21
-178.876
0
LINE
8
BLACK
6
CONTINUOUS
10
235.593
20
-178.876
11
235.45
21
-179.161
0
LINE
8
BLACK
6
CONTINUOUS
10
235.45
20
-179.161
11
235.307
21
-179.304
0
LINE
8
BLACK
6
CONTINUOUS
10
235.307
20
-179.304
11
235.021
21
-179.447
0
LINE
8
BLACK
6
CONTINUOUS
10
235.021
20
-179.447
11
234.736
21
-179.447
0
LINE
8
BLACK
6
CONTINUOUS
10
234.736
20
-179.447
11
234.45
21
-179.304
0
LINE
8
BLACK
6
CONTINUOUS
10
234.45
20
-179.304
11
234.307
21
-179.161
0
LINE
8
BLACK
6
CONTINUOUS
10
234.307
20
-179.161
11
234.164
21
-178.876
0
LINE
8
BLACK
6
CONTINUOUS
10
234.164
20
-178.876
11
234.021
21
-178.304
0
LINE
8
BLACK
6
CONTINUOUS
10
234.021
20
-178.304
11
234.021
21
-177.59
0
LINE
8
BLACK
6
CONTINUOUS
10
234.021
20
-177.59
11
234.164
21
-177.019
0
LINE
8
BLACK
6
CONTINUOUS
10
234.164
20
-177.019
11
234.307
21
-176.733
0
LINE
8
BLACK
6
CONTINUOUS
10
234.307
20
-176.733
11
234.45
21
-176.59
0
LINE
8
BLACK
6
CONTINUOUS
10
234.45
20
-176.59
11
234.736
21
-176.447
0
LINE
8
BLACK
6
CONTINUOUS
10
238.307
20
-177.447
11
238.307
21
-179.447
0
LINE
8
BLACK
6
CONTINUOUS
10
237.593
20
-176.304
11
236.879
21
-178.447
0
LINE
8
BLACK
6
CONTINUOUS
10
236.879
20
-178.447
11
238.736
21
-178.447
0
LINE
8
BLACK
6
CONTINUOUS
10
239.593
20
-176.447
11
241.45
21
-176.447
0
LINE
8
BLACK
6
CONTINUOUS
10
241.45
20
-176.447
11
240.45
21
-177.59
0
LINE
8
BLACK
6
CONTINUOUS
10
240.45
20
-177.59
11
240.879
21
-177.59
0
LINE
8
BLACK
6
CONTINUOUS
10
240.879
20
-177.59
11
241.164
21
-177.733
0
LINE
8
BLACK
6
CONTINUOUS
10
241.164
20
-177.733
11
241.307
21
-177.876
0
LINE
8
BLACK
6
CONTINUOUS
10
241.307
20
-177.876
11
241.45
21
-178.161
0
LINE
8
BLACK
6
CONTINUOUS
10
241.45
20
-178.161
11
241.45
21
-178.876
0
LINE
8
BLACK
6
CONTINUOUS
10
241.45
20
-178.876
11
241.307
21
-179.161
0
LINE
8
BLACK
6
CONTINUOUS
10
241.307
20
-179.161
11
241.164
21
-179.304
0
LINE
8
BLACK
6
CONTINUOUS
10
241.164
20
-179.304
11
240.879
21
-179.447
0
LINE
8
BLACK
6
CONTINUOUS
10
240.879
20
-179.447
11
240.021
21
-179.447
0
LINE
8
BLACK
6
CONTINUOUS
10
240.021
20
-179.447
11
239.736
21
-179.304
0
LINE
8
BLACK
6
CONTINUOUS
10
239.736
20
-179.304
11
239.593
21
-179.161
0
LINE
8
BLACK
6
CONTINUOUS
10
242.593
20
-176.447
11
242.593
21
-177.019
0
LINE
8
BLACK
6
CONTINUOUS
10
243.736
20
-176.447
11
243.736
21
-177.019
0
LINE
8
BLACK
6
CONTINUOUS
10
248.164
20
-180.59
11
248.021
21
-180.447
0
LINE
8
BLACK
6
CONTINUOUS
10
248.021
20
-180.447
11
247.736
21
-180.019
0
LINE
8
BLACK
6
CONTINUOUS
10
247.736
20
-180.019
11
247.593
21
-179.733
0
LINE
8
BLACK
6
CONTINUOUS
10
247.593
20
-179.733
11
247.45
21
-179.304
0
LINE
8
BLACK
6
CONTINUOUS
10
247.45
20
-179.304
11
247.307
21
-178.59
0
LINE
8
BLACK
6
CONTINUOUS
10
247.307
20
-178.59
11
247.307
21
-178.019
0
LINE
8
BLACK
6
CONTINUOUS
10
247.307
20
-178.019
11
247.45
21
-177.304
0
LINE
8
BLACK
6
CONTINUOUS
10
247.45
20
-177.304
11
247.593
21
-176.876
0
LINE
8
BLACK
6
CONTINUOUS
10
247.593
20
-176.876
11
247.736
21
-176.59
0
LINE
8
BLACK
6
CONTINUOUS
10
247.736
20
-176.59
11
248.021
21
-176.161
0
LINE
8
BLACK
6
CONTINUOUS
10
248.021
20
-176.161
11
248.164
21
-176.019
0
LINE
8
BLACK
6
CONTINUOUS
10
249.164
20
-176.733
11
249.307
21
-176.59
0
LINE
8
BLACK
6
CONTINUOUS
10
249.307
20
-176.59
11
249.593
21
-176.447
0
LINE
8
BLACK
6
CONTINUOUS
10
249.593
20
-176.447
11
250.307
21
-176.447
0
LINE
8
BLACK
6
CONTINUOUS
10
250.307
20
-176.447
11
250.593
21
-176.59
0
LINE
8
BLACK
6
CONTINUOUS
10
250.593
20
-176.59
11
250.736
21
-176.733
0
LINE
8
BLACK
6
CONTINUOUS
10
250.736
20
-176.733
11
250.879
21
-177.019
0
LINE
8
BLACK
6
CONTINUOUS
10
250.879
20
-177.019
11
250.879
21
-177.304
0
LINE
8
BLACK
6
CONTINUOUS
10
250.879
20
-177.304
11
250.736
21
-177.733
0
LINE
8
BLACK
6
CONTINUOUS
10
250.736
20
-177.733
11
249.021
21
-179.447
0
LINE
8
BLACK
6
CONTINUOUS
10
249.021
20
-179.447
11
250.879
21
-179.447
0
LINE
8
BLACK
6
CONTINUOUS
10
253.593
20
-176.447
11
252.164
21
-176.447
0
LINE
8
BLACK
6
CONTINUOUS
10
252.164
20
-176.447
11
252.021
21
-177.876
0
LINE
8
BLACK
6
CONTINUOUS
10
252.021
20
-177.876
11
252.164
21
-177.733
0
LINE
8
BLACK
6
CONTINUOUS
10
252.164
20
-177.733
11
252.45
21
-177.59
0
LINE
8
BLACK
6
CONTINUOUS
10
252.45
20
-177.59
11
253.164
21
-177.59
0
LINE
8
BLACK
6
CONTINUOUS
10
253.164
20
-177.59
11
253.45
21
-177.733
0
LINE
8
BLACK
6
CONTINUOUS
10
253.45
20
-177.733
11
253.593
21
-177.876
0
LINE
8
BLACK
6
CONTINUOUS
10
253.593
20
-177.876
11
253.736
21
-178.161
0
LINE
8
BLACK
6
CONTINUOUS
10
253.736
20
-178.161
11
253.736
21
-178.876
0
LINE
8
BLACK
6
CONTINUOUS
10
253.736
20
-178.876
11
253.593
21
-179.161
0
LINE
8
BLACK
6
CONTINUOUS
10
253.593
20
-179.161
11
253.45
21
-179.304
0
LINE
8
BLACK
6
CONTINUOUS
10
253.45
20
-179.304
11
253.164
21
-179.447
0
LINE
8
BLACK
6
CONTINUOUS
10
253.164
20
-179.447
11
252.45
21
-179.447
0
LINE
8
BLACK
6
CONTINUOUS
10
252.45
20
-179.447
11
252.164
21
-179.304
0
LINE
8
BLACK
6
CONTINUOUS
10
252.164
20
-179.304
11
252.021
21
-179.161
0
LINE
8
BLACK
6
CONTINUOUS
10
257.307
20
-179.447
11
257.307
21
-176.447
0
LINE
8
BLACK
6
CONTINUOUS
10
258.593
20
-179.447
11
258.593
21
-177.876
0
LINE
8
BLACK
6
CONTINUOUS
10
258.593
20
-177.876
11
258.45
21
-177.59
0
LINE
8
BLACK
6
CONTINUOUS
10
258.45
20
-177.59
11
258.164
21
-177.447
0
LINE
8
BLACK
6
CONTINUOUS
10
258.164
20
-177.447
11
257.736
21
-177.447
0
LINE
8
BLACK
6
CONTINUOUS
10
257.736
20
-177.447
11
257.45
21
-177.59
0
LINE
8
BLACK
6
CONTINUOUS
10
257.45
20
-177.59
11
257.307
21
-177.733
0
LINE
8
BLACK
6
CONTINUOUS
10
260.45
20
-179.447
11
260.164
21
-179.304
0
LINE
8
BLACK
6
CONTINUOUS
10
260.164
20
-179.304
11
260.021
21
-179.161
0
LINE
8
BLACK
6
CONTINUOUS
10
260.021
20
-179.161
11
259.879
21
-178.876
0
LINE
8
BLACK
6
CONTINUOUS
10
259.879
20
-178.876
11
259.879
21
-178.019
0
LINE
8
BLACK
6
CONTINUOUS
10
259.879
20
-178.019
11
260.021
21
-177.733
0
LINE
8
BLACK
6
CONTINUOUS
10
260.021
20
-177.733
11
260.164
21
-177.59
0
LINE
8
BLACK
6
CONTINUOUS
10
260.164
20
-177.59
11
260.45
21
-177.447
0
LINE
8
BLACK
6
CONTINUOUS
10
260.45
20
-177.447
11
260.879
21
-177.447
0
LINE
8
BLACK
6
CONTINUOUS
10
260.879
20
-177.447
11
261.164
21
-177.59
0
LINE
8
BLACK
6
CONTINUOUS
10
261.164
20
-177.59
11
261.307
21
-177.733
0
LINE
8
BLACK
6
CONTINUOUS
10
261.307
20
-177.733
11
261.45
21
-178.019
0
LINE
8
BLACK
6
CONTINUOUS
10
261.45
20
-178.019
11
261.45
21
-178.876
0
LINE
8
BLACK
6
CONTINUOUS
10
261.45
20
-178.876
11
261.307
21
-179.161
0
LINE
8
BLACK
6
CONTINUOUS
10
261.307
20
-179.161
11
261.164
21
-179.304
0
LINE
8
BLACK
6
CONTINUOUS
10
261.164
20
-179.304
11
260.879
21
-179.447
0
LINE
8
BLACK
6
CONTINUOUS
10
260.879
20
-179.447
11
260.45
21
-179.447
0
LINE
8
BLACK
6
CONTINUOUS
10
263.164
20
-179.447
11
262.879
21
-179.304
0
LINE
8
BLACK
6
CONTINUOUS
10
262.879
20
-179.304
11
262.736
21
-179.019
0
LINE
8
BLACK
6
CONTINUOUS
10
262.736
20
-179.019
11
262.736
21
-176.447
0
LINE
8
BLACK
6
CONTINUOUS
10
265.45
20
-179.304
11
265.164
21
-179.447
0
LINE
8
BLACK
6
CONTINUOUS
10
265.164
20
-179.447
11
264.593
21
-179.447
0
LINE
8
BLACK
6
CONTINUOUS
10
264.593
20
-179.447
11
264.307
21
-179.304
0
LINE
8
BLACK
6
CONTINUOUS
10
264.307
20
-179.304
11
264.164
21
-179.019
0
LINE
8
BLACK
6
CONTINUOUS
10
264.164
20
-179.019
11
264.164
21
-177.876
0
LINE
8
BLACK
6
CONTINUOUS
10
264.164
20
-177.876
11
264.307
21
-177.59
0
LINE
8
BLACK
6
CONTINUOUS
10
264.307
20
-177.59
11
264.593
21
-177.447
0
LINE
8
BLACK
6
CONTINUOUS
10
264.593
20
-177.447
11
265.164
21
-177.447
0
LINE
8
BLACK
6
CONTINUOUS
10
265.164
20
-177.447
11
265.45
21
-177.59
0
LINE
8
BLACK
6
CONTINUOUS
10
265.45
20
-177.59
11
265.593
21
-177.876
0
LINE
8
BLACK
6
CONTINUOUS
10
265.593
20
-177.876
11
265.593
21
-178.161
0
LINE
8
BLACK
6
CONTINUOUS
10
265.593
20
-178.161
11
264.164
21
-178.447
0
LINE
8
BLACK
6
CONTINUOUS
10
266.736
20
-179.304
11
267.021
21
-179.447
0
LINE
8
BLACK
6
CONTINUOUS
10
267.021
20
-179.447
11
267.593
21
-179.447
0
LINE
8
BLACK
6
CONTINUOUS
10
267.593
20
-179.447
11
267.879
21
-179.304
0
LINE
8
BLACK
6
CONTINUOUS
10
267.879
20
-179.304
11
268.021
21
-179.019
0
LINE
8
BLACK
6
CONTINUOUS
10
268.021
20
-179.019
11
268.021
21
-178.876
0
LINE
8
BLACK
6
CONTINUOUS
10
268.021
20
-178.876
11
267.879
21
-178.59
0
LINE
8
BLACK
6
CONTINUOUS
10
267.879
20
-178.59
11
267.593
21
-178.447
0
LINE
8
BLACK
6
CONTINUOUS
10
267.593
20
-178.447
11
267.164
21
-178.447
0
LINE
8
BLACK
6
CONTINUOUS
10
267.164
20
-178.447
11
266.879
21
-178.304
0
LINE
8
BLACK
6
CONTINUOUS
10
266.879
20
-178.304
11
266.736
21
-178.019
0
LINE
8
BLACK
6
CONTINUOUS
10
266.736
20
-178.019
11
266.736
21
-177.876
0
LINE
8
BLACK
6
CONTINUOUS
10
266.736
20
-177.876
11
266.879
21
-177.59
0
LINE
8
BLACK
6
CONTINUOUS
10
266.879
20
-177.59
11
267.164
21
-177.447
0
LINE
8
BLACK
6
CONTINUOUS
10
267.164
20
-177.447
11
267.593
21
-177.447
0
LINE
8
BLACK
6
CONTINUOUS
10
267.593
20
-177.447
11
267.879
21
-177.59
0
LINE
8
BLACK
6
CONTINUOUS
10
269.021
20
-180.59
11
269.164
21
-180.447
0
LINE
8
BLACK
6
CONTINUOUS
10
269.164
20
-180.447
11
269.45
21
-180.019
0
LINE
8
BLACK
6
CONTINUOUS
10
269.45
20
-180.019
11
269.593
21
-179.733
0
LINE
8
BLACK
6
CONTINUOUS
10
269.593
20
-179.733
11
269.736
21
-179.304
0
LINE
8
BLACK
6
CONTINUOUS
10
269.736
20
-179.304
11
269.879
21
-178.59
0
LINE
8
BLACK
6
CONTINUOUS
10
269.879
20
-178.59
11
269.879
21
-178.019
0
LINE
8
BLACK
6
CONTINUOUS
10
269.879
20
-178.019
11
269.736
21
-177.304
0
LINE
8
BLACK
6
CONTINUOUS
10
269.736
20
-177.304
11
269.593
21
-176.876
0
LINE
8
BLACK
6
CONTINUOUS
10
269.593
20
-176.876
11
269.45
21
-176.59
0
LINE
8
BLACK
6
CONTINUOUS
10
269.45
20
-176.59
11
269.164
21
-176.161
0
LINE
8
BLACK
6
CONTINUOUS
10
269.164
20
-176.161
11
269.021
21
-176.019
0
LINE
8
BLACK
6
CONTINUOUS
10
200.934
20
-182.934
11
200.934
21
-181.166
0
LINE
8
BLACK
6
CONTINUOUS
10
200.934
20
-181.166
11
199.166
21
-181.166
0
LINE
8
BLACK
6
CONTINUOUS
10
199.166
20
-181.166
11
199.166
21
-182.934
0
LINE
8
BLACK
6
CONTINUOUS
10
199.166
20
-182.934
11
200.934
21
-182.934
0
LINE
8
BLACK
6
CONTINUOUS
10
204.021
20
-180.693
11
204.164
21
-180.55
0
LINE
8
BLACK
6
CONTINUOUS
10
204.164
20
-180.55
11
204.45
21
-180.407
0
LINE
8
BLACK
6
CONTINUOUS
10
204.45
20
-180.407
11
205.164
21
-180.407
0
LINE
8
BLACK
6
CONTINUOUS
10
205.164
20
-180.407
11
205.45
21
-180.55
0
LINE
8
BLACK
6
CONTINUOUS
10
205.45
20
-180.55
11
205.593
21
-180.693
0
LINE
8
BLACK
6
CONTINUOUS
10
205.593
20
-180.693
11
205.736
21
-180.979
0
LINE
8
BLACK
6
CONTINUOUS
10
205.736
20
-180.979
11
205.736
21
-181.264
0
LINE
8
BLACK
6
CONTINUOUS
10
205.736
20
-181.264
11
205.593
21
-181.693
0
LINE
8
BLACK
6
CONTINUOUS
10
205.593
20
-181.693
11
203.879
21
-183.407
0
LINE
8
BLACK
6
CONTINUOUS
10
203.879
20
-183.407
11
205.736
21
-183.407
0
LINE
8
BLACK
6
CONTINUOUS
10
207.021
20
-183.121
11
207.164
21
-183.264
0
LINE
8
BLACK
6
CONTINUOUS
10
207.164
20
-183.264
11
207.021
21
-183.407
0
LINE
8
BLACK
6
CONTINUOUS
10
207.021
20
-183.407
11
206.879
21
-183.264
0
LINE
8
BLACK
6
CONTINUOUS
10
206.879
20
-183.264
11
207.021
21
-183.121
0
LINE
8
BLACK
6
CONTINUOUS
10
207.021
20
-183.121
11
207.021
21
-183.407
0
LINE
8
BLACK
6
CONTINUOUS
10
209.879
20
-180.407
11
208.45
21
-180.407
0
LINE
8
BLACK
6
CONTINUOUS
10
208.45
20
-180.407
11
208.307
21
-181.836
0
LINE
8
BLACK
6
CONTINUOUS
10
208.307
20
-181.836
11
208.45
21
-181.693
0
LINE
8
BLACK
6
CONTINUOUS
10
208.45
20
-181.693
11
208.736
21
-181.55
0
LINE
8
BLACK
6
CONTINUOUS
10
208.736
20
-181.55
11
209.45
21
-181.55
0
LINE
8
BLACK
6
CONTINUOUS
10
209.45
20
-181.55
11
209.736
21
-181.693
0
LINE
8
BLACK
6
CONTINUOUS
10
209.736
20
-181.693
11
209.879
21
-181.836
0
LINE
8
BLACK
6
CONTINUOUS
10
209.879
20
-181.836
11
210.021
21
-182.121
0
LINE
8
BLACK
6
CONTINUOUS
10
210.021
20
-182.121
11
210.021
21
-182.836
0
LINE
8
BLACK
6
CONTINUOUS
10
210.021
20
-182.836
11
209.879
21
-183.121
0
LINE
8
BLACK
6
CONTINUOUS
10
209.879
20
-183.121
11
209.736
21
-183.264
0
LINE
8
BLACK
6
CONTINUOUS
10
209.736
20
-183.264
11
209.45
21
-183.407
0
LINE
8
BLACK
6
CONTINUOUS
10
209.45
20
-183.407
11
208.736
21
-183.407
0
LINE
8
BLACK
6
CONTINUOUS
10
208.736
20
-183.407
11
208.45
21
-183.264
0
LINE
8
BLACK
6
CONTINUOUS
10
208.45
20
-183.264
11
208.307
21
-183.121
0
LINE
8
BLACK
6
CONTINUOUS
10
211.879
20
-180.407
11
212.164
21
-180.407
0
LINE
8
BLACK
6
CONTINUOUS
10
212.164
20
-180.407
11
212.45
21
-180.55
0
LINE
8
BLACK
6
CONTINUOUS
10
212.45
20
-180.55
11
212.593
21
-180.693
0
LINE
8
BLACK
6
CONTINUOUS
10
212.593
20
-180.693
11
212.736
21
-180.979
0
LINE
8
BLACK
6
CONTINUOUS
10
212.736
20
-180.979
11
212.879
21
-181.55
0
LINE
8
BLACK
6
CONTINUOUS
10
212.879
20
-181.55
11
212.879
21
-182.264
0
LINE
8
BLACK
6
CONTINUOUS
10
212.879
20
-182.264
11
212.736
21
-182.836
0
LINE
8
BLACK
6
CONTINUOUS
10
212.736
20
-182.836
11
212.593
21
-183.121
0
LINE
8
BLACK
6
CONTINUOUS
10
212.593
20
-183.121
11
212.45
21
-183.264
0
LINE
8
BLACK
6
CONTINUOUS
10
212.45
20
-183.264
11
212.164
21
-183.407
0
LINE
8
BLACK
6
CONTINUOUS
10
212.164
20
-183.407
11
211.879
21
-183.407
0
LINE
8
BLACK
6
CONTINUOUS
10
211.879
20
-183.407
11
211.593
21
-183.264
0
LINE
8
BLACK
6
CONTINUOUS
10
211.593
20
-183.264
11
211.45
21
-183.121
0
LINE
8
BLACK
6
CONTINUOUS
10
211.45
20
-183.121
11
211.307
21
-182.836
0
LINE
8
BLACK
6
CONTINUOUS
10
211.307
20
-182.836
11
211.164
21
-182.264
0
LINE
8
BLACK
6
CONTINUOUS
10
211.164
20
-182.264
11
211.164
21
-181.55
0
LINE
8
BLACK
6
CONTINUOUS
10
211.164
20
-181.55
11
211.307
21
-180.979
0
LINE
8
BLACK
6
CONTINUOUS
10
211.307
20
-180.979
11
211.45
21
-180.693
0
LINE
8
BLACK
6
CONTINUOUS
10
211.45
20
-180.693
11
211.593
21
-180.55
0
LINE
8
BLACK
6
CONTINUOUS
10
211.593
20
-180.55
11
211.879
21
-180.407
0
LINE
8
BLACK
6
CONTINUOUS
10
214.164
20
-183.407
11
214.164
21
-181.407
0
LINE
8
BLACK
6
CONTINUOUS
10
214.164
20
-181.693
11
214.307
21
-181.55
0
LINE
8
BLACK
6
CONTINUOUS
10
214.307
20
-181.55
11
214.593
21
-181.407
0
LINE
8
BLACK
6
CONTINUOUS
10
214.593
20
-181.407
11
215.021
21
-181.407
0
LINE
8
BLACK
6
CONTINUOUS
10
215.021
20
-181.407
11
215.307
21
-181.55
0
LINE
8
BLACK
6
CONTINUOUS
10
215.307
20
-181.55
11
215.45
21
-181.836
0
LINE
8
BLACK
6
CONTINUOUS
10
215.45
20
-181.836
11
215.45
21
-183.407
0
LINE
8
BLACK
6
CONTINUOUS
10
215.45
20
-181.836
11
215.593
21
-181.55
0
LINE
8
BLACK
6
CONTINUOUS
10
215.593
20
-181.55
11
215.879
21
-181.407
0
LINE
8
BLACK
6
CONTINUOUS
10
215.879
20
-181.407
11
216.307
21
-181.407
0
LINE
8
BLACK
6
CONTINUOUS
10
216.307
20
-181.407
11
216.593
21
-181.55
0
LINE
8
BLACK
6
CONTINUOUS
10
216.593
20
-181.55
11
216.736
21
-181.836
0
LINE
8
BLACK
6
CONTINUOUS
10
216.736
20
-181.836
11
216.736
21
-183.407
0
LINE
8
BLACK
6
CONTINUOUS
10
218.164
20
-183.407
11
218.164
21
-181.407
0
LINE
8
BLACK
6
CONTINUOUS
10
218.164
20
-181.693
11
218.307
21
-181.55
0
LINE
8
BLACK
6
CONTINUOUS
10
218.307
20
-181.55
11
218.593
21
-181.407
0
LINE
8
BLACK
6
CONTINUOUS
10
218.593
20
-181.407
11
219.021
21
-181.407
0
LINE
8
BLACK
6
CONTINUOUS
10
219.021
20
-181.407
11
219.307
21
-181.55
0
LINE
8
BLACK
6
CONTINUOUS
10
219.307
20
-181.55
11
219.45
21
-181.836
0
LINE
8
BLACK
6
CONTINUOUS
10
219.45
20
-181.836
11
219.45
21
-183.407
0
LINE
8
BLACK
6
CONTINUOUS
10
219.45
20
-181.836
11
219.593
21
-181.55
0
LINE
8
BLACK
6
CONTINUOUS
10
219.593
20
-181.55
11
219.879
21
-181.407
0
LINE
8
BLACK
6
CONTINUOUS
10
219.879
20
-181.407
11
220.307
21
-181.407
0
LINE
8
BLACK
6
CONTINUOUS
10
220.307
20
-181.407
11
220.593
21
-181.55
0
LINE
8
BLACK
6
CONTINUOUS
10
220.593
20
-181.55
11
220.736
21
-181.836
0
LINE
8
BLACK
6
CONTINUOUS
10
220.736
20
-181.836
11
220.736
21
-183.407
0
LINE
8
BLACK
6
CONTINUOUS
10
226.593
20
-180.264
11
224.021
21
-184.121
0
LINE
8
BLACK
6
CONTINUOUS
10
230.45
20
-180.407
11
230.736
21
-180.407
0
LINE
8
BLACK
6
CONTINUOUS
10
230.736
20
-180.407
11
231.021
21
-180.55
0
LINE
8
BLACK
6
CONTINUOUS
10
231.021
20
-180.55
11
231.164
21
-180.693
0
LINE
8
BLACK
6
CONTINUOUS
10
231.164
20
-180.693
11
231.307
21
-180.979
0
LINE
8
BLACK
6
CONTINUOUS
10
231.307
20
-180.979
11
231.45
21
-181.55
0
LINE
8
BLACK
6
CONTINUOUS
10
231.45
20
-181.55
11
231.45
21
-182.264
0
LINE
8
BLACK
6
CONTINUOUS
10
231.45
20
-182.264
11
231.307
21
-182.836
0
LINE
8
BLACK
6
CONTINUOUS
10
231.307
20
-182.836
11
231.164
21
-183.121
0
LINE
8
BLACK
6
CONTINUOUS
10
231.164
20
-183.121
11
231.021
21
-183.264
0
LINE
8
BLACK
6
CONTINUOUS
10
231.021
20
-183.264
11
230.736
21
-183.407
0
LINE
8
BLACK
6
CONTINUOUS
10
230.736
20
-183.407
11
230.45
21
-183.407
0
LINE
8
BLACK
6
CONTINUOUS
10
230.45
20
-183.407
11
230.164
21
-183.264
0
LINE
8
BLACK
6
CONTINUOUS
10
230.164
20
-183.264
11
230.021
21
-183.121
0
LINE
8
BLACK
6
CONTINUOUS
10
230.021
20
-183.121
11
229.879
21
-182.836
0
LINE
8
BLACK
6
CONTINUOUS
10
229.879
20
-182.836
11
229.736
21
-182.264
0
LINE
8
BLACK
6
CONTINUOUS
10
229.736
20
-182.264
11
229.736
21
-181.55
0
LINE
8
BLACK
6
CONTINUOUS
10
229.736
20
-181.55
11
229.879
21
-180.979
0
LINE
8
BLACK
6
CONTINUOUS
10
229.879
20
-180.979
11
230.021
21
-180.693
0
LINE
8
BLACK
6
CONTINUOUS
10
230.021
20
-180.693
11
230.164
21
-180.55
0
LINE
8
BLACK
6
CONTINUOUS
10
230.164
20
-180.55
11
230.45
21
-180.407
0
LINE
8
BLACK
6
CONTINUOUS
10
232.736
20
-183.121
11
232.879
21
-183.264
0
LINE
8
BLACK
6
CONTINUOUS
10
232.879
20
-183.264
11
232.736
21
-183.407
0
LINE
8
BLACK
6
CONTINUOUS
10
232.736
20
-183.407
11
232.593
21
-183.264
0
LINE
8
BLACK
6
CONTINUOUS
10
232.593
20
-183.264
11
232.736
21
-183.121
0
LINE
8
BLACK
6
CONTINUOUS
10
232.736
20
-183.121
11
232.736
21
-183.407
0
LINE
8
BLACK
6
CONTINUOUS
10
234.736
20
-180.407
11
235.021
21
-180.407
0
LINE
8
BLACK
6
CONTINUOUS
10
235.021
20
-180.407
11
235.307
21
-180.55
0
LINE
8
BLACK
6
CONTINUOUS
10
235.307
20
-180.55
11
235.45
21
-180.693
0
LINE
8
BLACK
6
CONTINUOUS
10
235.45
20
-180.693
11
235.593
21
-180.979
0
LINE
8
BLACK
6
CONTINUOUS
10
235.593
20
-180.979
11
235.736
21
-181.55
0
LINE
8
BLACK
6
CONTINUOUS
10
235.736
20
-181.55
11
235.736
21
-182.264
0
LINE
8
BLACK
6
CONTINUOUS
10
235.736
20
-182.264
11
235.593
21
-182.836
0
LINE
8
BLACK
6
CONTINUOUS
10
235.593
20
-182.836
11
235.45
21
-183.121
0
LINE
8
BLACK
6
CONTINUOUS
10
235.45
20
-183.121
11
235.307
21
-183.264
0
LINE
8
BLACK
6
CONTINUOUS
10
235.307
20
-183.264
11
235.021
21
-183.407
0
LINE
8
BLACK
6
CONTINUOUS
10
235.021
20
-183.407
11
234.736
21
-183.407
0
LINE
8
BLACK
6
CONTINUOUS
10
234.736
20
-183.407
11
234.45
21
-183.264
0
LINE
8
BLACK
6
CONTINUOUS
10
234.45
20
-183.264
11
234.307
21
-183.121
0
LINE
8
BLACK
6
CONTINUOUS
10
234.307
20
-183.121
11
234.164
21
-182.836
0
LINE
8
BLACK
6
CONTINUOUS
10
234.164
20
-182.836
11
234.021
21
-182.264
0
LINE
8
BLACK
6
CONTINUOUS
10
234.021
20
-182.264
11
234.021
21
-181.55
0
LINE
8
BLACK
6
CONTINUOUS
10
234.021
20
-181.55
11
234.164
21
-180.979
0
LINE
8
BLACK
6
CONTINUOUS
10
234.164
20
-180.979
11
234.307
21
-180.693
0
LINE
8
BLACK
6
CONTINUOUS
10
234.307
20
-180.693
11
234.45
21
-180.55
0
LINE
8
BLACK
6
CONTINUOUS
10
234.45
20
-180.55
11
234.736
21
-180.407
0
LINE
8
BLACK
6
CONTINUOUS
10
237.164
20
-183.407
11
237.736
21
-183.407
0
LINE
8
BLACK
6
CONTINUOUS
10
237.736
20
-183.407
11
238.021
21
-183.264
0
LINE
8
BLACK
6
CONTINUOUS
10
238.021
20
-183.264
11
238.164
21
-183.121
0
LINE
8
BLACK
6
CONTINUOUS
10
238.164
20
-183.121
11
238.45
21
-182.693
0
LINE
8
BLACK
6
CONTINUOUS
10
238.45
20
-182.693
11
238.593
21
-182.121
0
LINE
8
BLACK
6
CONTINUOUS
10
238.593
20
-182.121
11
238.593
21
-180.979
0
LINE
8
BLACK
6
CONTINUOUS
10
238.593
20
-180.979
11
238.45
21
-180.693
0
LINE
8
BLACK
6
CONTINUOUS
10
238.45
20
-180.693
11
238.307
21
-180.55
0
LINE
8
BLACK
6
CONTINUOUS
10
238.307
20
-180.55
11
238.021
21
-180.407
0
LINE
8
BLACK
6
CONTINUOUS
10
238.021
20
-180.407
11
237.45
21
-180.407
0
LINE
8
BLACK
6
CONTINUOUS
10
237.45
20
-180.407
11
237.164
21
-180.55
0
LINE
8
BLACK
6
CONTINUOUS
10
237.164
20
-180.55
11
237.021
21
-180.693
0
LINE
8
BLACK
6
CONTINUOUS
10
237.021
20
-180.693
11
236.879
21
-180.979
0
LINE
8
BLACK
6
CONTINUOUS
10
236.879
20
-180.979
11
236.879
21
-181.693
0
LINE
8
BLACK
6
CONTINUOUS
10
236.879
20
-181.693
11
237.021
21
-181.979
0
LINE
8
BLACK
6
CONTINUOUS
10
237.021
20
-181.979
11
237.164
21
-182.121
0
LINE
8
BLACK
6
CONTINUOUS
10
237.164
20
-182.121
11
237.45
21
-182.264
0
LINE
8
BLACK
6
CONTINUOUS
10
237.45
20
-182.264
11
238.021
21
-182.264
0
LINE
8
BLACK
6
CONTINUOUS
10
238.021
20
-182.264
11
238.307
21
-182.121
0
LINE
8
BLACK
6
CONTINUOUS
10
238.307
20
-182.121
11
238.45
21
-181.979
0
LINE
8
BLACK
6
CONTINUOUS
10
238.45
20
-181.979
11
238.593
21
-181.693
0
LINE
8
BLACK
6
CONTINUOUS
10
240.307
20
-181.693
11
240.021
21
-181.55
0
LINE
8
BLACK
6
CONTINUOUS
10
240.021
20
-181.55
11
239.879
21
-181.407
0
LINE
8
BLACK
6
CONTINUOUS
10
239.879
20
-181.407
11
239.736
21
-181.121
0
LINE
8
BLACK
6
CONTINUOUS
10
239.736
20
-181.121
11
239.736
21
-180.979
0
LINE
8
BLACK
6
CONTINUOUS
10
239.736
20
-180.979
11
239.879
21
-180.693
0
LINE
8
BLACK
6
CONTINUOUS
10
239.879
20
-180.693
11
240.021
21
-180.55
0
LINE
8
BLACK
6
CONTINUOUS
10
240.021
20
-180.55
11
240.307
21
-180.407
0
LINE
8
BLACK
6
CONTINUOUS
10
240.307
20
-180.407
11
240.879
21
-180.407
0
LINE
8
BLACK
6
CONTINUOUS
10
240.879
20
-180.407
11
241.164
21
-180.55
0
LINE
8
BLACK
6
CONTINUOUS
10
241.164
20
-180.55
11
241.307
21
-180.693
0
LINE
8
BLACK
6
CONTINUOUS
10
241.307
20
-180.693
11
241.45
21
-180.979
0
LINE
8
BLACK
6
CONTINUOUS
10
241.45
20
-180.979
11
241.45
21
-181.121
0
LINE
8
BLACK
6
CONTINUOUS
10
241.45
20
-181.121
11
241.307
21
-181.407
0
LINE
8
BLACK
6
CONTINUOUS
10
241.307
20
-181.407
11
241.164
21
-181.55
0
LINE
8
BLACK
6
CONTINUOUS
10
241.164
20
-181.55
11
240.879
21
-181.693
0
LINE
8
BLACK
6
CONTINUOUS
10
240.879
20
-181.693
11
240.307
21
-181.693
0
LINE
8
BLACK
6
CONTINUOUS
10
240.307
20
-181.693
11
240.021
21
-181.836
0
LINE
8
BLACK
6
CONTINUOUS
10
240.021
20
-181.836
11
239.879
21
-181.979
0
LINE
8
BLACK
6
CONTINUOUS
10
239.879
20
-181.979
11
239.736
21
-182.264
0
LINE
8
BLACK
6
CONTINUOUS
10
239.736
20
-182.264
11
239.736
21
-182.836
0
LINE
8
BLACK
6
CONTINUOUS
10
239.736
20
-182.836
11
239.879
21
-183.121
0
LINE
8
BLACK
6
CONTINUOUS
10
239.879
20
-183.121
11
240.021
21
-183.264
0
LINE
8
BLACK
6
CONTINUOUS
10
240.021
20
-183.264
11
240.307
21
-183.407
0
LINE
8
BLACK
6
CONTINUOUS
10
240.307
20
-183.407
11
240.879
21
-183.407
0
LINE
8
BLACK
6
CONTINUOUS
10
240.879
20
-183.407
11
241.164
21
-183.264
0
LINE
8
BLACK
6
CONTINUOUS
10
241.164
20
-183.264
11
241.307
21
-183.121
0
LINE
8
BLACK
6
CONTINUOUS
10
241.307
20
-183.121
11
241.45
21
-182.836
0
LINE
8
BLACK
6
CONTINUOUS
10
241.45
20
-182.836
11
241.45
21
-182.264
0
LINE
8
BLACK
6
CONTINUOUS
10
241.45
20
-182.264
11
241.307
21
-181.979
0
LINE
8
BLACK
6
CONTINUOUS
10
241.307
20
-181.979
11
241.164
21
-181.836
0
LINE
8
BLACK
6
CONTINUOUS
10
241.164
20
-181.836
11
240.879
21
-181.693
0
LINE
8
BLACK
6
CONTINUOUS
10
242.593
20
-180.407
11
242.593
21
-180.979
0
LINE
8
BLACK
6
CONTINUOUS
10
243.736
20
-180.407
11
243.736
21
-180.979
0
LINE
8
BLACK
6
CONTINUOUS
10
248.164
20
-184.55
11
248.021
21
-184.407
0
LINE
8
BLACK
6
CONTINUOUS
10
248.021
20
-184.407
11
247.736
21
-183.979
0
LINE
8
BLACK
6
CONTINUOUS
10
247.736
20
-183.979
11
247.593
21
-183.693
0
LINE
8
BLACK
6
CONTINUOUS
10
247.593
20
-183.693
11
247.45
21
-183.264
0
LINE
8
BLACK
6
CONTINUOUS
10
247.45
20
-183.264
11
247.307
21
-182.55
0
LINE
8
BLACK
6
CONTINUOUS
10
247.307
20
-182.55
11
247.307
21
-181.979
0
LINE
8
BLACK
6
CONTINUOUS
10
247.307
20
-181.979
11
247.45
21
-181.264
0
LINE
8
BLACK
6
CONTINUOUS
10
247.45
20
-181.264
11
247.593
21
-180.836
0
LINE
8
BLACK
6
CONTINUOUS
10
247.593
20
-180.836
11
247.736
21
-180.55
0
LINE
8
BLACK
6
CONTINUOUS
10
247.736
20
-180.55
11
248.021
21
-180.121
0
LINE
8
BLACK
6
CONTINUOUS
10
248.021
20
-180.121
11
248.164
21
-179.979
0
LINE
8
BLACK
6
CONTINUOUS
10
249.736
20
-181.693
11
249.45
21
-181.55
0
LINE
8
BLACK
6
CONTINUOUS
10
249.45
20
-181.55
11
249.307
21
-181.407
0
LINE
8
BLACK
6
CONTINUOUS
10
249.307
20
-181.407
11
249.164
21
-181.121
0
LINE
8
BLACK
6
CONTINUOUS
10
249.164
20
-181.121
11
249.164
21
-180.979
0
LINE
8
BLACK
6
CONTINUOUS
10
249.164
20
-180.979
11
249.307
21
-180.693
0
LINE
8
BLACK
6
CONTINUOUS
10
249.307
20
-180.693
11
249.45
21
-180.55
0
LINE
8
BLACK
6
CONTINUOUS
10
249.45
20
-180.55
11
249.736
21
-180.407
0
LINE
8
BLACK
6
CONTINUOUS
10
249.736
20
-180.407
11
250.307
21
-180.407
0
LINE
8
BLACK
6
CONTINUOUS
10
250.307
20
-180.407
11
250.593
21
-180.55
0
LINE
8
BLACK
6
CONTINUOUS
10
250.593
20
-180.55
11
250.736
21
-180.693
0
LINE
8
BLACK
6
CONTINUOUS
10
250.736
20
-180.693
11
250.879
21
-180.979
0
LINE
8
BLACK
6
CONTINUOUS
10
250.879
20
-180.979
11
250.879
21
-181.121
0
LINE
8
BLACK
6
CONTINUOUS
10
250.879
20
-181.121
11
250.736
21
-181.407
0
LINE
8
BLACK
6
CONTINUOUS
10
250.736
20
-181.407
11
250.593
21
-181.55
0
LINE
8
BLACK
6
CONTINUOUS
10
250.593
20
-181.55
11
250.307
21
-181.693
0
LINE
8
BLACK
6
CONTINUOUS
10
250.307
20
-181.693
11
249.736
21
-181.693
0
LINE
8
BLACK
6
CONTINUOUS
10
249.736
20
-181.693
11
249.45
21
-181.836
0
LINE
8
BLACK
6
CONTINUOUS
10
249.45
20
-181.836
11
249.307
21
-181.979
0
LINE
8
BLACK
6
CONTINUOUS
10
249.307
20
-181.979
11
249.164
21
-182.264
0
LINE
8
BLACK
6
CONTINUOUS
10
249.164
20
-182.264
11
249.164
21
-182.836
0
LINE
8
BLACK
6
CONTINUOUS
10
249.164
20
-182.836
11
249.307
21
-183.121
0
LINE
8
BLACK
6
CONTINUOUS
10
249.307
20
-183.121
11
249.45
21
-183.264
0
LINE
8
BLACK
6
CONTINUOUS
10
249.45
20
-183.264
11
249.736
21
-183.407
0
LINE
8
BLACK
6
CONTINUOUS
10
249.736
20
-183.407
11
250.307
21
-183.407
0
LINE
8
BLACK
6
CONTINUOUS
10
250.307
20
-183.407
11
250.593
21
-183.264
0
LINE
8
BLACK
6
CONTINUOUS
10
250.593
20
-183.264
11
250.736
21
-183.121
0
LINE
8
BLACK
6
CONTINUOUS
10
250.736
20
-183.121
11
250.879
21
-182.836
0
LINE
8
BLACK
6
CONTINUOUS
10
250.879
20
-182.836
11
250.879
21
-182.264
0
LINE
8
BLACK
6
CONTINUOUS
10
250.879
20
-182.264
11
250.736
21
-181.979
0
LINE
8
BLACK
6
CONTINUOUS
10
250.736
20
-181.979
11
250.593
21
-181.836
0
LINE
8
BLACK
6
CONTINUOUS
10
250.593
20
-181.836
11
250.307
21
-181.693
0
LINE
8
BLACK
6
CONTINUOUS
10
254.45
20
-183.407
11
254.45
21
-180.407
0
LINE
8
BLACK
6
CONTINUOUS
10
255.736
20
-183.407
11
255.736
21
-181.836
0
LINE
8
BLACK
6
CONTINUOUS
10
255.736
20
-181.836
11
255.593
21
-181.55
0
LINE
8
BLACK
6
CONTINUOUS
10
255.593
20
-181.55
11
255.307
21
-181.407
0
LINE
8
BLACK
6
CONTINUOUS
10
255.307
20
-181.407
11
254.879
21
-181.407
0
LINE
8
BLACK
6
CONTINUOUS
10
254.879
20
-181.407
11
254.593
21
-181.55
0
LINE
8
BLACK
6
CONTINUOUS
10
254.593
20
-181.55
11
254.45
21
-181.693
0
LINE
8
BLACK
6
CONTINUOUS
10
257.593
20
-183.407
11
257.307
21
-183.264
0
LINE
8
BLACK
6
CONTINUOUS
10
257.307
20
-183.264
11
257.164
21
-183.121
0
LINE
8
BLACK
6
CONTINUOUS
10
257.164
20
-183.121
11
257.021
21
-182.836
0
LINE
8
BLACK
6
CONTINUOUS
10
257.021
20
-182.836
11
257.021
21
-181.979
0
LINE
8
BLACK
6
CONTINUOUS
10
257.021
20
-181.979
11
257.164
21
-181.693
0
LINE
8
BLACK
6
CONTINUOUS
10
257.164
20
-181.693
11
257.307
21
-181.55
0
LINE
8
BLACK
6
CONTINUOUS
10
257.307
20
-181.55
11
257.593
21
-181.407
0
LINE
8
BLACK
6
CONTINUOUS
10
257.593
20
-181.407
11
258.021
21
-181.407
0
LINE
8
BLACK
6
CONTINUOUS
10
258.021
20
-181.407
11
258.307
21
-181.55
0
LINE
8
BLACK
6
CONTINUOUS
10
258.307
20
-181.55
11
258.45
21
-181.693
0
LINE
8
BLACK
6
CONTINUOUS
10
258.45
20
-181.693
11
258.593
21
-181.979
0
LINE
8
BLACK
6
CONTINUOUS
10
258.593
20
-181.979
11
258.593
21
-182.836
0
LINE
8
BLACK
6
CONTINUOUS
10
258.593
20
-182.836
11
258.45
21
-183.121
0
LINE
8
BLACK
6
CONTINUOUS
10
258.45
20
-183.121
11
258.307
21
-183.264
0
LINE
8
BLACK
6
CONTINUOUS
10
258.307
20
-183.264
11
258.021
21
-183.407
0
LINE
8
BLACK
6
CONTINUOUS
10
258.021
20
-183.407
11
257.593
21
-183.407
0
LINE
8
BLACK
6
CONTINUOUS
10
260.307
20
-183.407
11
260.021
21
-183.264
0
LINE
8
BLACK
6
CONTINUOUS
10
260.021
20
-183.264
11
259.879
21
-182.979
0
LINE
8
BLACK
6
CONTINUOUS
10
259.879
20
-182.979
11
259.879
21
-180.407
0
LINE
8
BLACK
6
CONTINUOUS
10
262.593
20
-183.264
11
262.307
21
-183.407
0
LINE
8
BLACK
6
CONTINUOUS
10
262.307
20
-183.407
11
261.736
21
-183.407
0
LINE
8
BLACK
6
CONTINUOUS
10
261.736
20
-183.407
11
261.45
21
-183.264
0
LINE
8
BLACK
6
CONTINUOUS
10
261.45
20
-183.264
11
261.307
21
-182.979
0
LINE
8
BLACK
6
CONTINUOUS
10
261.307
20
-182.979
11
261.307
21
-181.836
0
LINE
8
BLACK
6
CONTINUOUS
10
261.307
20
-181.836
11
261.45
21
-181.55
0
LINE
8
BLACK
6
CONTINUOUS
10
261.45
20
-181.55
11
261.736
21
-181.407
0
LINE
8
BLACK
6
CONTINUOUS
10
261.736
20
-181.407
11
262.307
21
-181.407
0
LINE
8
BLACK
6
CONTINUOUS
10
262.307
20
-181.407
11
262.593
21
-181.55
0
LINE
8
BLACK
6
CONTINUOUS
10
262.593
20
-181.55
11
262.736
21
-181.836
0
LINE
8
BLACK
6
CONTINUOUS
10
262.736
20
-181.836
11
262.736
21
-182.121
0
LINE
8
BLACK
6
CONTINUOUS
10
262.736
20
-182.121
11
261.307
21
-182.407
0
LINE
8
BLACK
6
CONTINUOUS
10
263.879
20
-183.264
11
264.164
21
-183.407
0
LINE
8
BLACK
6
CONTINUOUS
10
264.164
20
-183.407
11
264.736
21
-183.407
0
LINE
8
BLACK
6
CONTINUOUS
10
264.736
20
-183.407
11
265.021
21
-183.264
0
LINE
8
BLACK
6
CONTINUOUS
10
265.021
20
-183.264
11
265.164
21
-182.979
0
LINE
8
BLACK
6
CONTINUOUS
10
265.164
20
-182.979
11
265.164
21
-182.836
0
LINE
8
BLACK
6
CONTINUOUS
10
265.164
20
-182.836
11
265.021
21
-182.55
0
LINE
8
BLACK
6
CONTINUOUS
10
265.021
20
-182.55
11
264.736
21
-182.407
0
LINE
8
BLACK
6
CONTINUOUS
10
264.736
20
-182.407
11
264.307
21
-182.407
0
LINE
8
BLACK
6
CONTINUOUS
10
264.307
20
-182.407
11
264.021
21
-182.264
0
LINE
8
BLACK
6
CONTINUOUS
10
264.021
20
-182.264
11
263.879
21
-181.979
0
LINE
8
BLACK
6
CONTINUOUS
10
263.879
20
-181.979
11
263.879
21
-181.836
0
LINE
8
BLACK
6
CONTINUOUS
10
263.879
20
-181.836
11
264.021
21
-181.55
0
LINE
8
BLACK
6
CONTINUOUS
10
264.021
20
-181.55
11
264.307
21
-181.407
0
LINE
8
BLACK
6
CONTINUOUS
10
264.307
20
-181.407
11
264.736
21
-181.407
0
LINE
8
BLACK
6
CONTINUOUS
10
264.736
20
-181.407
11
265.021
21
-181.55
0
LINE
8
BLACK
6
CONTINUOUS
10
266.164
20
-184.55
11
266.307
21
-184.407
0
LINE
8
BLACK
6
CONTINUOUS
10
266.307
20
-184.407
11
266.593
21
-183.979
0
LINE
8
BLACK
6
CONTINUOUS
10
266.593
20
-183.979
11
266.736
21
-183.693
0
LINE
8
BLACK
6
CONTINUOUS
10
266.736
20
-183.693
11
266.879
21
-183.264
0
LINE
8
BLACK
6
CONTINUOUS
10
266.879
20
-183.264
11
267.021
21
-182.55
0
LINE
8
BLACK
6
CONTINUOUS
10
267.021
20
-182.55
11
267.021
21
-181.979
0
LINE
8
BLACK
6
CONTINUOUS
10
267.021
20
-181.979
11
266.879
21
-181.264
0
LINE
8
BLACK
6
CONTINUOUS
10
266.879
20
-181.264
11
266.736
21
-180.836
0
LINE
8
BLACK
6
CONTINUOUS
10
266.736
20
-180.836
11
266.593
21
-180.55
0
LINE
8
BLACK
6
CONTINUOUS
10
266.593
20
-180.55
11
266.307
21
-180.121
0
LINE
8
BLACK
6
CONTINUOUS
10
266.307
20
-180.121
11
266.164
21
-179.979
  0
ENDSEC
  0
EOF
