  0
SECTION
  2
HEADER
  9
$ANGBASE
  50
0.0
  9
$ANGDIR
  70
1
  9
$MEASUREMENT
  70
1
  0
ENDSEC
  0
SECTION
  2
TABLES
  0
TABLE
  2
LTYPE
  70
4
  0
LTYPE
  5
40F
  2
CONTINUOUS
  70
0
  3
Solid line
  72
65
  73
0
  40
0.0
  0
LTYPE
  5
410
  2
DASHDOT
 70
0
  3
Dash Dot ____ _ ____ _
 72
65
 73
4
 40
2.0
 49
1.25
 49
-0.25
 49
0.25
 49
-0.25
  0
LTYPE
  5
411
  2
DASHED
 70
0
  3
Dashed __ __ __ __ __
 72
65
 73
2
 40
0.75
 49
0.5
 49
-0.25
  0
LTYPE
  5
43B
  2
DOTTED
 70
0
  3
Dotted .  .  .  .
 72
65
 73
2
 40
0.2
 49
0.0
 49
-0.2
  0
ENDTAB
  0
TABLE
  2
STYLE
  70
4
  0
STYLE
  2
KICAD
  70
0
  40
0
  41
1
  42
1
  50
0
  71
0
  3
isocp.shx
  0
STYLE
  2
KICADB
  70
0
  40
0
  41
1
  42
1
  50
0
  71
0
  3
isocp.shx
  0
STYLE
  2
KICADI
  70
0
  40
0
  41
1
  42
1
  50
15
  71
0
  3
isocp.shx
  0
STYLE
  2
KICADBI
  70
0
  40
0
  41
1
  42
1
  50
15
  71
0
  3
isocp.shx
  0
ENDTAB
  0
TABLE
  2
LAYER
  70
1
  0
LAYER
  2
BLACK
  70
0
  62
7
  6
CONTINUOUS
  0
ENDTAB
  0
ENDSEC
  0
SECTION
  2
ENTITIES
0
LINE
8
BLACK
6
CONTINUOUS
10
390.55
20
-14.4
11
201.375
21
-14.4
0
LINE
8
BLACK
6
CONTINUOUS
10
390.55
20
-128.588
11
390.55
21
-14.4
0
LINE
8
BLACK
6
CONTINUOUS
10
217.213
20
-160.545
11
259.544
21
-145.248
0
LINE
8
BLACK
6
CONTINUOUS
10
253.48
20
-128.588
11
390.55
21
-128.588
0
LINE
8
BLACK
6
CONTINUOUS
10
259.544
20
-145.248
11
253.48
21
-128.588
0
LINE
8
BLACK
6
CONTINUOUS
10
201.375
20
-14.4
11
201.375
21
-117.04
0
LINE
8
BLACK
6
CONTINUOUS
10
201.375
20
-117.04
11
217.213
21
-160.545
0
LINE
8
BLACK
6
CONTINUOUS
10
345.123
20
-93.0275
11
345.123
21
-106.997
0
LINE
8
BLACK
6
CONTINUOUS
10
331.153
20
-93.0275
11
345.123
21
-93.0275
0
LINE
8
BLACK
6
CONTINUOUS
10
331.153
20
-106.997
11
331.153
21
-93.0275
0
LINE
8
BLACK
6
CONTINUOUS
10
345.123
20
-106.997
11
331.153
21
-106.997
0
LINE
8
BLACK
6
CONTINUOUS
10
328.638
20
-99.3125
11
330.638
21
-99.3125
0
LINE
8
BLACK
6
CONTINUOUS
10
347.638
20
-100.712
11
347.638
21
-105.512
0
LINE
8
BLACK
6
CONTINUOUS
10
328.638
20
-94.5125
11
328.638
21
-99.3125
0
LINE
8
BLACK
6
CONTINUOUS
10
345.638
20
-100.712
11
347.638
21
-100.712
0
LINE
8
BLACK
6
CONTINUOUS
10
330.638
20
-94.5125
11
328.638
21
-94.5125
0
LINE
8
BLACK
6
CONTINUOUS
10
347.638
20
-105.512
11
345.638
21
-105.512
0
LINE
8
BLACK
6
CONTINUOUS
10
345.638
20
-107.512
11
330.638
21
-107.512
0
LINE
8
BLACK
6
CONTINUOUS
10
330.638
20
-92.5125
11
345.638
21
-92.5125
0
LINE
8
BLACK
6
CONTINUOUS
10
330.638
20
-107.512
11
330.638
21
-92.5125
0
LINE
8
BLACK
6
CONTINUOUS
10
345.638
20
-92.5125
11
345.638
21
-107.512
0
LINE
8
BLACK
6
CONTINUOUS
10
383.223
20
-54.9275
11
383.223
21
-68.8975
0
LINE
8
BLACK
6
CONTINUOUS
10
369.253
20
-54.9275
11
383.223
21
-54.9275
0
LINE
8
BLACK
6
CONTINUOUS
10
369.253
20
-68.8975
11
369.253
21
-54.9275
0
LINE
8
BLACK
6
CONTINUOUS
10
383.223
20
-68.8975
11
369.253
21
-68.8975
0
LINE
8
BLACK
6
CONTINUOUS
10
366.738
20
-61.2125
11
368.738
21
-61.2125
0
LINE
8
BLACK
6
CONTINUOUS
10
385.738
20
-62.6125
11
385.738
21
-67.4125
0
LINE
8
BLACK
6
CONTINUOUS
10
366.738
20
-56.4125
11
366.738
21
-61.2125
0
LINE
8
BLACK
6
CONTINUOUS
10
383.738
20
-62.6125
11
385.738
21
-62.6125
0
LINE
8
BLACK
6
CONTINUOUS
10
368.738
20
-56.4125
11
366.738
21
-56.4125
0
LINE
8
BLACK
6
CONTINUOUS
10
385.738
20
-67.4125
11
383.738
21
-67.4125
0
LINE
8
BLACK
6
CONTINUOUS
10
383.738
20
-69.4125
11
368.738
21
-69.4125
0
LINE
8
BLACK
6
CONTINUOUS
10
368.738
20
-54.4125
11
383.738
21
-54.4125
0
LINE
8
BLACK
6
CONTINUOUS
10
368.738
20
-69.4125
11
368.738
21
-54.4125
0
LINE
8
BLACK
6
CONTINUOUS
10
383.738
20
-54.4125
11
383.738
21
-69.4125
0
LINE
8
BLACK
6
CONTINUOUS
10
383.223
20
-35.8775
11
383.223
21
-49.8475
0
LINE
8
BLACK
6
CONTINUOUS
10
369.253
20
-35.8775
11
383.223
21
-35.8775
0
LINE
8
BLACK
6
CONTINUOUS
10
369.253
20
-49.8475
11
369.253
21
-35.8775
0
LINE
8
BLACK
6
CONTINUOUS
10
383.223
20
-49.8475
11
369.253
21
-49.8475
0
LINE
8
BLACK
6
CONTINUOUS
10
366.738
20
-42.1625
11
368.738
21
-42.1625
0
LINE
8
BLACK
6
CONTINUOUS
10
385.738
20
-43.5625
11
385.738
21
-48.3625
0
LINE
8
BLACK
6
CONTINUOUS
10
366.738
20
-37.3625
11
366.738
21
-42.1625
0
LINE
8
BLACK
6
CONTINUOUS
10
383.738
20
-43.5625
11
385.738
21
-43.5625
0
LINE
8
BLACK
6
CONTINUOUS
10
368.738
20
-37.3625
11
366.738
21
-37.3625
0
LINE
8
BLACK
6
CONTINUOUS
10
385.738
20
-48.3625
11
383.738
21
-48.3625
0
LINE
8
BLACK
6
CONTINUOUS
10
383.738
20
-50.3625
11
368.738
21
-50.3625
0
LINE
8
BLACK
6
CONTINUOUS
10
368.738
20
-35.3625
11
383.738
21
-35.3625
0
LINE
8
BLACK
6
CONTINUOUS
10
368.738
20
-50.3625
11
368.738
21
-35.3625
0
LINE
8
BLACK
6
CONTINUOUS
10
383.738
20
-35.3625
11
383.738
21
-50.3625
0
LINE
8
BLACK
6
CONTINUOUS
10
311.969
20
-118.362
11
313.969
21
-118.362
0
LINE
8
BLACK
6
CONTINUOUS
10
313.969
20
-113.562
11
311.969
21
-113.562
0
LINE
8
BLACK
6
CONTINUOUS
10
311.969
20
-113.562
11
311.969
21
-118.362
0
LINE
8
BLACK
6
CONTINUOUS
10
330.969
20
-124.562
11
328.969
21
-124.562
0
LINE
8
BLACK
6
CONTINUOUS
10
328.969
20
-119.762
11
330.969
21
-119.762
0
LINE
8
BLACK
6
CONTINUOUS
10
330.969
20
-119.762
11
330.969
21
-124.562
0
LINE
8
BLACK
6
CONTINUOUS
10
328.453
20
-112.078
11
328.453
21
-126.047
0
LINE
8
BLACK
6
CONTINUOUS
10
314.483
20
-112.078
11
328.453
21
-112.078
0
LINE
8
BLACK
6
CONTINUOUS
10
314.483
20
-126.047
11
314.483
21
-112.078
0
LINE
8
BLACK
6
CONTINUOUS
10
328.453
20
-126.047
11
314.483
21
-126.047
0
LINE
8
BLACK
6
CONTINUOUS
10
313.969
20
-126.562
11
313.969
21
-111.562
0
LINE
8
BLACK
6
CONTINUOUS
10
328.969
20
-126.562
11
313.969
21
-126.562
0
LINE
8
BLACK
6
CONTINUOUS
10
328.969
20
-111.562
11
328.969
21
-126.562
0
LINE
8
BLACK
6
CONTINUOUS
10
313.969
20
-111.562
11
328.969
21
-111.562
0
LINE
8
BLACK
6
CONTINUOUS
10
288.156
20
-118.362
11
290.156
21
-118.362
0
LINE
8
BLACK
6
CONTINUOUS
10
290.156
20
-113.562
11
288.156
21
-113.562
0
LINE
8
BLACK
6
CONTINUOUS
10
288.156
20
-113.562
11
288.156
21
-118.362
0
LINE
8
BLACK
6
CONTINUOUS
10
307.156
20
-124.562
11
305.156
21
-124.562
0
LINE
8
BLACK
6
CONTINUOUS
10
305.156
20
-119.762
11
307.156
21
-119.762
0
LINE
8
BLACK
6
CONTINUOUS
10
307.156
20
-119.762
11
307.156
21
-124.562
0
LINE
8
BLACK
6
CONTINUOUS
10
304.641
20
-112.078
11
304.641
21
-126.047
0
LINE
8
BLACK
6
CONTINUOUS
10
290.671
20
-112.078
11
304.641
21
-112.078
0
LINE
8
BLACK
6
CONTINUOUS
10
290.671
20
-126.047
11
290.671
21
-112.078
0
LINE
8
BLACK
6
CONTINUOUS
10
304.641
20
-126.047
11
290.671
21
-126.047
0
LINE
8
BLACK
6
CONTINUOUS
10
290.156
20
-126.562
11
290.156
21
-111.562
0
LINE
8
BLACK
6
CONTINUOUS
10
305.156
20
-126.562
11
290.156
21
-126.562
0
LINE
8
BLACK
6
CONTINUOUS
10
305.156
20
-111.562
11
305.156
21
-126.562
0
LINE
8
BLACK
6
CONTINUOUS
10
290.156
20
-111.562
11
305.156
21
-111.562
0
LINE
8
BLACK
6
CONTINUOUS
10
264.344
20
-118.362
11
266.344
21
-118.362
0
LINE
8
BLACK
6
CONTINUOUS
10
266.344
20
-113.562
11
264.344
21
-113.562
0
LINE
8
BLACK
6
CONTINUOUS
10
264.344
20
-113.562
11
264.344
21
-118.362
0
LINE
8
BLACK
6
CONTINUOUS
10
283.344
20
-124.562
11
281.344
21
-124.562
0
LINE
8
BLACK
6
CONTINUOUS
10
281.344
20
-119.762
11
283.344
21
-119.762
0
LINE
8
BLACK
6
CONTINUOUS
10
283.344
20
-119.762
11
283.344
21
-124.562
0
LINE
8
BLACK
6
CONTINUOUS
10
280.828
20
-112.078
11
280.828
21
-126.047
0
LINE
8
BLACK
6
CONTINUOUS
10
266.858
20
-112.078
11
280.828
21
-112.078
0
LINE
8
BLACK
6
CONTINUOUS
10
266.858
20
-126.047
11
266.858
21
-112.078
0
LINE
8
BLACK
6
CONTINUOUS
10
280.828
20
-126.047
11
266.858
21
-126.047
0
LINE
8
BLACK
6
CONTINUOUS
10
266.344
20
-126.562
11
266.344
21
-111.562
0
LINE
8
BLACK
6
CONTINUOUS
10
281.344
20
-126.562
11
266.344
21
-126.562
0
LINE
8
BLACK
6
CONTINUOUS
10
281.344
20
-111.562
11
281.344
21
-126.562
0
LINE
8
BLACK
6
CONTINUOUS
10
266.344
20
-111.562
11
281.344
21
-111.562
0
LINE
8
BLACK
6
CONTINUOUS
10
387.985
20
-93.0275
11
387.985
21
-106.997
0
LINE
8
BLACK
6
CONTINUOUS
10
374.015
20
-93.0275
11
387.985
21
-93.0275
0
LINE
8
BLACK
6
CONTINUOUS
10
374.015
20
-106.997
11
374.015
21
-93.0275
0
LINE
8
BLACK
6
CONTINUOUS
10
387.985
20
-106.997
11
374.015
21
-106.997
0
LINE
8
BLACK
6
CONTINUOUS
10
373.5
20
-92.5125
11
388.5
21
-92.5125
0
LINE
8
BLACK
6
CONTINUOUS
10
388.5
20
-92.5125
11
388.5
21
-107.512
0
LINE
8
BLACK
6
CONTINUOUS
10
388.5
20
-107.512
11
373.5
21
-107.512
0
LINE
8
BLACK
6
CONTINUOUS
10
373.5
20
-107.512
11
373.5
21
-92.5125
0
LINE
8
BLACK
6
CONTINUOUS
10
388.5
20
-100.712
11
390.5
21
-100.712
0
LINE
8
BLACK
6
CONTINUOUS
10
390.5
20
-100.712
11
390.5
21
-105.512
0
LINE
8
BLACK
6
CONTINUOUS
10
390.5
20
-105.512
11
388.5
21
-105.512
0
LINE
8
BLACK
6
CONTINUOUS
10
373.5
20
-94.5125
11
371.5
21
-94.5125
0
LINE
8
BLACK
6
CONTINUOUS
10
371.5
20
-94.5125
11
371.5
21
-99.3125
0
LINE
8
BLACK
6
CONTINUOUS
10
371.5
20
-99.3125
11
373.5
21
-99.3125
0
LINE
8
BLACK
6
CONTINUOUS
10
368.935
20
-93.0275
11
368.935
21
-106.997
0
LINE
8
BLACK
6
CONTINUOUS
10
354.965
20
-93.0275
11
368.935
21
-93.0275
0
LINE
8
BLACK
6
CONTINUOUS
10
354.965
20
-106.997
11
354.965
21
-93.0275
0
LINE
8
BLACK
6
CONTINUOUS
10
368.935
20
-106.997
11
354.965
21
-106.997
0
LINE
8
BLACK
6
CONTINUOUS
10
354.45
20
-92.5125
11
369.45
21
-92.5125
0
LINE
8
BLACK
6
CONTINUOUS
10
369.45
20
-92.5125
11
369.45
21
-107.512
0
LINE
8
BLACK
6
CONTINUOUS
10
369.45
20
-107.512
11
354.45
21
-107.512
0
LINE
8
BLACK
6
CONTINUOUS
10
354.45
20
-107.512
11
354.45
21
-92.5125
0
LINE
8
BLACK
6
CONTINUOUS
10
369.45
20
-100.712
11
371.45
21
-100.712
0
LINE
8
BLACK
6
CONTINUOUS
10
371.45
20
-100.712
11
371.45
21
-105.512
0
LINE
8
BLACK
6
CONTINUOUS
10
371.45
20
-105.512
11
369.45
21
-105.512
0
LINE
8
BLACK
6
CONTINUOUS
10
354.45
20
-94.5125
11
352.45
21
-94.5125
0
LINE
8
BLACK
6
CONTINUOUS
10
352.45
20
-94.5125
11
352.45
21
-99.3125
0
LINE
8
BLACK
6
CONTINUOUS
10
352.45
20
-99.3125
11
354.45
21
-99.3125
0
LINE
8
BLACK
6
CONTINUOUS
10
359.41
20
-16.8275
11
359.41
21
-30.7975
0
LINE
8
BLACK
6
CONTINUOUS
10
345.44
20
-16.8275
11
359.41
21
-16.8275
0
LINE
8
BLACK
6
CONTINUOUS
10
345.44
20
-30.7975
11
345.44
21
-16.8275
0
LINE
8
BLACK
6
CONTINUOUS
10
359.41
20
-30.7975
11
345.44
21
-30.7975
0
LINE
8
BLACK
6
CONTINUOUS
10
344.925
20
-16.3125
11
359.925
21
-16.3125
0
LINE
8
BLACK
6
CONTINUOUS
10
359.925
20
-16.3125
11
359.925
21
-31.3125
0
LINE
8
BLACK
6
CONTINUOUS
10
359.925
20
-31.3125
11
344.925
21
-31.3125
0
LINE
8
BLACK
6
CONTINUOUS
10
344.925
20
-31.3125
11
344.925
21
-16.3125
0
LINE
8
BLACK
6
CONTINUOUS
10
359.925
20
-24.5125
11
361.925
21
-24.5125
0
LINE
8
BLACK
6
CONTINUOUS
10
361.925
20
-24.5125
11
361.925
21
-29.3125
0
LINE
8
BLACK
6
CONTINUOUS
10
361.925
20
-29.3125
11
359.925
21
-29.3125
0
LINE
8
BLACK
6
CONTINUOUS
10
344.925
20
-18.3125
11
342.925
21
-18.3125
0
LINE
8
BLACK
6
CONTINUOUS
10
342.925
20
-18.3125
11
342.925
21
-23.1125
0
LINE
8
BLACK
6
CONTINUOUS
10
342.925
20
-23.1125
11
344.925
21
-23.1125
0
LINE
8
BLACK
6
CONTINUOUS
10
387.985
20
-112.078
11
387.985
21
-126.047
0
LINE
8
BLACK
6
CONTINUOUS
10
374.015
20
-112.078
11
387.985
21
-112.078
0
LINE
8
BLACK
6
CONTINUOUS
10
374.015
20
-126.047
11
374.015
21
-112.078
0
LINE
8
BLACK
6
CONTINUOUS
10
387.985
20
-126.047
11
374.015
21
-126.047
0
LINE
8
BLACK
6
CONTINUOUS
10
373.5
20
-111.562
11
388.5
21
-111.562
0
LINE
8
BLACK
6
CONTINUOUS
10
388.5
20
-111.562
11
388.5
21
-126.562
0
LINE
8
BLACK
6
CONTINUOUS
10
388.5
20
-126.562
11
373.5
21
-126.562
0
LINE
8
BLACK
6
CONTINUOUS
10
373.5
20
-126.562
11
373.5
21
-111.562
0
LINE
8
BLACK
6
CONTINUOUS
10
388.5
20
-119.762
11
390.5
21
-119.762
0
LINE
8
BLACK
6
CONTINUOUS
10
390.5
20
-119.762
11
390.5
21
-124.562
0
LINE
8
BLACK
6
CONTINUOUS
10
390.5
20
-124.562
11
388.5
21
-124.562
0
LINE
8
BLACK
6
CONTINUOUS
10
373.5
20
-113.562
11
371.5
21
-113.562
0
LINE
8
BLACK
6
CONTINUOUS
10
371.5
20
-113.562
11
371.5
21
-118.362
0
LINE
8
BLACK
6
CONTINUOUS
10
371.5
20
-118.362
11
373.5
21
-118.362
0
LINE
8
BLACK
6
CONTINUOUS
10
368.935
20
-112.078
11
368.935
21
-126.047
0
LINE
8
BLACK
6
CONTINUOUS
10
354.965
20
-112.078
11
368.935
21
-112.078
0
LINE
8
BLACK
6
CONTINUOUS
10
354.965
20
-126.047
11
354.965
21
-112.078
0
LINE
8
BLACK
6
CONTINUOUS
10
368.935
20
-126.047
11
354.965
21
-126.047
0
LINE
8
BLACK
6
CONTINUOUS
10
354.45
20
-111.562
11
369.45
21
-111.562
0
LINE
8
BLACK
6
CONTINUOUS
10
369.45
20
-111.562
11
369.45
21
-126.562
0
LINE
8
BLACK
6
CONTINUOUS
10
369.45
20
-126.562
11
354.45
21
-126.562
0
LINE
8
BLACK
6
CONTINUOUS
10
354.45
20
-126.562
11
354.45
21
-111.562
0
LINE
8
BLACK
6
CONTINUOUS
10
369.45
20
-119.762
11
371.45
21
-119.762
0
LINE
8
BLACK
6
CONTINUOUS
10
371.45
20
-119.762
11
371.45
21
-124.562
0
LINE
8
BLACK
6
CONTINUOUS
10
371.45
20
-124.562
11
369.45
21
-124.562
0
LINE
8
BLACK
6
CONTINUOUS
10
354.45
20
-113.562
11
352.45
21
-113.562
0
LINE
8
BLACK
6
CONTINUOUS
10
352.45
20
-113.562
11
352.45
21
-118.362
0
LINE
8
BLACK
6
CONTINUOUS
10
352.45
20
-118.362
11
354.45
21
-118.362
0
LINE
8
BLACK
6
CONTINUOUS
10
349.885
20
-112.078
11
349.885
21
-126.047
0
LINE
8
BLACK
6
CONTINUOUS
10
335.915
20
-112.078
11
349.885
21
-112.078
0
LINE
8
BLACK
6
CONTINUOUS
10
335.915
20
-126.047
11
335.915
21
-112.078
0
LINE
8
BLACK
6
CONTINUOUS
10
349.885
20
-126.047
11
335.915
21
-126.047
0
LINE
8
BLACK
6
CONTINUOUS
10
335.4
20
-111.562
11
350.4
21
-111.562
0
LINE
8
BLACK
6
CONTINUOUS
10
350.4
20
-111.562
11
350.4
21
-126.562
0
LINE
8
BLACK
6
CONTINUOUS
10
350.4
20
-126.562
11
335.4
21
-126.562
0
LINE
8
BLACK
6
CONTINUOUS
10
335.4
20
-126.562
11
335.4
21
-111.562
0
LINE
8
BLACK
6
CONTINUOUS
10
350.4
20
-119.762
11
352.4
21
-119.762
0
LINE
8
BLACK
6
CONTINUOUS
10
352.4
20
-119.762
11
352.4
21
-124.562
0
LINE
8
BLACK
6
CONTINUOUS
10
352.4
20
-124.562
11
350.4
21
-124.562
0
LINE
8
BLACK
6
CONTINUOUS
10
335.4
20
-113.562
11
333.4
21
-113.562
0
LINE
8
BLACK
6
CONTINUOUS
10
333.4
20
-113.562
11
333.4
21
-118.362
0
LINE
8
BLACK
6
CONTINUOUS
10
333.4
20
-118.362
11
335.4
21
-118.362
0
LINE
8
BLACK
6
CONTINUOUS
10
245.11
20
-93.0275
11
245.11
21
-106.997
0
LINE
8
BLACK
6
CONTINUOUS
10
231.14
20
-93.0275
11
245.11
21
-93.0275
0
LINE
8
BLACK
6
CONTINUOUS
10
231.14
20
-106.997
11
231.14
21
-93.0275
0
LINE
8
BLACK
6
CONTINUOUS
10
245.11
20
-106.997
11
231.14
21
-106.997
0
LINE
8
BLACK
6
CONTINUOUS
10
230.625
20
-92.5125
11
245.625
21
-92.5125
0
LINE
8
BLACK
6
CONTINUOUS
10
245.625
20
-92.5125
11
245.625
21
-107.512
0
LINE
8
BLACK
6
CONTINUOUS
10
245.625
20
-107.512
11
230.625
21
-107.512
0
LINE
8
BLACK
6
CONTINUOUS
10
230.625
20
-107.512
11
230.625
21
-92.5125
0
LINE
8
BLACK
6
CONTINUOUS
10
245.625
20
-100.712
11
247.625
21
-100.712
0
LINE
8
BLACK
6
CONTINUOUS
10
247.625
20
-100.712
11
247.625
21
-105.512
0
LINE
8
BLACK
6
CONTINUOUS
10
247.625
20
-105.512
11
245.625
21
-105.512
0
LINE
8
BLACK
6
CONTINUOUS
10
230.625
20
-94.5125
11
228.625
21
-94.5125
0
LINE
8
BLACK
6
CONTINUOUS
10
228.625
20
-94.5125
11
228.625
21
-99.3125
0
LINE
8
BLACK
6
CONTINUOUS
10
228.625
20
-99.3125
11
230.625
21
-99.3125
0
LINE
8
BLACK
6
CONTINUOUS
10
245.11
20
-73.9775
11
245.11
21
-87.9475
0
LINE
8
BLACK
6
CONTINUOUS
10
231.14
20
-73.9775
11
245.11
21
-73.9775
0
LINE
8
BLACK
6
CONTINUOUS
10
231.14
20
-87.9475
11
231.14
21
-73.9775
0
LINE
8
BLACK
6
CONTINUOUS
10
245.11
20
-87.9475
11
231.14
21
-87.9475
0
LINE
8
BLACK
6
CONTINUOUS
10
230.625
20
-73.4625
11
245.625
21
-73.4625
0
LINE
8
BLACK
6
CONTINUOUS
10
245.625
20
-73.4625
11
245.625
21
-88.4625
0
LINE
8
BLACK
6
CONTINUOUS
10
245.625
20
-88.4625
11
230.625
21
-88.4625
0
LINE
8
BLACK
6
CONTINUOUS
10
230.625
20
-88.4625
11
230.625
21
-73.4625
0
LINE
8
BLACK
6
CONTINUOUS
10
245.625
20
-81.6625
11
247.625
21
-81.6625
0
LINE
8
BLACK
6
CONTINUOUS
10
247.625
20
-81.6625
11
247.625
21
-86.4625
0
LINE
8
BLACK
6
CONTINUOUS
10
247.625
20
-86.4625
11
245.625
21
-86.4625
0
LINE
8
BLACK
6
CONTINUOUS
10
230.625
20
-75.4625
11
228.625
21
-75.4625
0
LINE
8
BLACK
6
CONTINUOUS
10
228.625
20
-75.4625
11
228.625
21
-80.2625
0
LINE
8
BLACK
6
CONTINUOUS
10
228.625
20
-80.2625
11
230.625
21
-80.2625
0
LINE
8
BLACK
6
CONTINUOUS
10
245.11
20
-54.9275
11
245.11
21
-68.8975
0
LINE
8
BLACK
6
CONTINUOUS
10
231.14
20
-54.9275
11
245.11
21
-54.9275
0
LINE
8
BLACK
6
CONTINUOUS
10
231.14
20
-68.8975
11
231.14
21
-54.9275
0
LINE
8
BLACK
6
CONTINUOUS
10
245.11
20
-68.8975
11
231.14
21
-68.8975
0
LINE
8
BLACK
6
CONTINUOUS
10
230.625
20
-54.4125
11
245.625
21
-54.4125
0
LINE
8
BLACK
6
CONTINUOUS
10
245.625
20
-54.4125
11
245.625
21
-69.4125
0
LINE
8
BLACK
6
CONTINUOUS
10
245.625
20
-69.4125
11
230.625
21
-69.4125
0
LINE
8
BLACK
6
CONTINUOUS
10
230.625
20
-69.4125
11
230.625
21
-54.4125
0
LINE
8
BLACK
6
CONTINUOUS
10
245.625
20
-62.6125
11
247.625
21
-62.6125
0
LINE
8
BLACK
6
CONTINUOUS
10
247.625
20
-62.6125
11
247.625
21
-67.4125
0
LINE
8
BLACK
6
CONTINUOUS
10
247.625
20
-67.4125
11
245.625
21
-67.4125
0
LINE
8
BLACK
6
CONTINUOUS
10
230.625
20
-56.4125
11
228.625
21
-56.4125
0
LINE
8
BLACK
6
CONTINUOUS
10
228.625
20
-56.4125
11
228.625
21
-61.2125
0
LINE
8
BLACK
6
CONTINUOUS
10
228.625
20
-61.2125
11
230.625
21
-61.2125
0
LINE
8
BLACK
6
CONTINUOUS
10
245.11
20
-35.8775
11
245.11
21
-49.8475
0
LINE
8
BLACK
6
CONTINUOUS
10
231.14
20
-35.8775
11
245.11
21
-35.8775
0
LINE
8
BLACK
6
CONTINUOUS
10
231.14
20
-49.8475
11
231.14
21
-35.8775
0
LINE
8
BLACK
6
CONTINUOUS
10
245.11
20
-49.8475
11
231.14
21
-49.8475
0
LINE
8
BLACK
6
CONTINUOUS
10
230.625
20
-35.3625
11
245.625
21
-35.3625
0
LINE
8
BLACK
6
CONTINUOUS
10
245.625
20
-35.3625
11
245.625
21
-50.3625
0
LINE
8
BLACK
6
CONTINUOUS
10
245.625
20
-50.3625
11
230.625
21
-50.3625
0
LINE
8
BLACK
6
CONTINUOUS
10
230.625
20
-50.3625
11
230.625
21
-35.3625
0
LINE
8
BLACK
6
CONTINUOUS
10
245.625
20
-43.5625
11
247.625
21
-43.5625
0
LINE
8
BLACK
6
CONTINUOUS
10
247.625
20
-43.5625
11
247.625
21
-48.3625
0
LINE
8
BLACK
6
CONTINUOUS
10
247.625
20
-48.3625
11
245.625
21
-48.3625
0
LINE
8
BLACK
6
CONTINUOUS
10
230.625
20
-37.3625
11
228.625
21
-37.3625
0
LINE
8
BLACK
6
CONTINUOUS
10
228.625
20
-37.3625
11
228.625
21
-42.1625
0
LINE
8
BLACK
6
CONTINUOUS
10
228.625
20
-42.1625
11
230.625
21
-42.1625
0
LINE
8
BLACK
6
CONTINUOUS
10
245.11
20
-16.8275
11
245.11
21
-30.7975
0
LINE
8
BLACK
6
CONTINUOUS
10
231.14
20
-16.8275
11
245.11
21
-16.8275
0
LINE
8
BLACK
6
CONTINUOUS
10
231.14
20
-30.7975
11
231.14
21
-16.8275
0
LINE
8
BLACK
6
CONTINUOUS
10
245.11
20
-30.7975
11
231.14
21
-30.7975
0
LINE
8
BLACK
6
CONTINUOUS
10
230.625
20
-16.3125
11
245.625
21
-16.3125
0
LINE
8
BLACK
6
CONTINUOUS
10
245.625
20
-16.3125
11
245.625
21
-31.3125
0
LINE
8
BLACK
6
CONTINUOUS
10
245.625
20
-31.3125
11
230.625
21
-31.3125
0
LINE
8
BLACK
6
CONTINUOUS
10
230.625
20
-31.3125
11
230.625
21
-16.3125
0
LINE
8
BLACK
6
CONTINUOUS
10
245.625
20
-24.5125
11
247.625
21
-24.5125
0
LINE
8
BLACK
6
CONTINUOUS
10
247.625
20
-24.5125
11
247.625
21
-29.3125
0
LINE
8
BLACK
6
CONTINUOUS
10
247.625
20
-29.3125
11
245.625
21
-29.3125
0
LINE
8
BLACK
6
CONTINUOUS
10
230.625
20
-18.3125
11
228.625
21
-18.3125
0
LINE
8
BLACK
6
CONTINUOUS
10
228.625
20
-18.3125
11
228.625
21
-23.1125
0
LINE
8
BLACK
6
CONTINUOUS
10
228.625
20
-23.1125
11
230.625
21
-23.1125
0
LINE
8
BLACK
6
CONTINUOUS
10
321.31
20
-93.0275
11
321.31
21
-106.997
0
LINE
8
BLACK
6
CONTINUOUS
10
307.34
20
-93.0275
11
321.31
21
-93.0275
0
LINE
8
BLACK
6
CONTINUOUS
10
307.34
20
-106.997
11
307.34
21
-93.0275
0
LINE
8
BLACK
6
CONTINUOUS
10
321.31
20
-106.997
11
307.34
21
-106.997
0
LINE
8
BLACK
6
CONTINUOUS
10
306.825
20
-92.5125
11
321.825
21
-92.5125
0
LINE
8
BLACK
6
CONTINUOUS
10
321.825
20
-92.5125
11
321.825
21
-107.512
0
LINE
8
BLACK
6
CONTINUOUS
10
321.825
20
-107.512
11
306.825
21
-107.512
0
LINE
8
BLACK
6
CONTINUOUS
10
306.825
20
-107.512
11
306.825
21
-92.5125
0
LINE
8
BLACK
6
CONTINUOUS
10
321.825
20
-100.712
11
323.825
21
-100.712
0
LINE
8
BLACK
6
CONTINUOUS
10
323.825
20
-100.712
11
323.825
21
-105.512
0
LINE
8
BLACK
6
CONTINUOUS
10
323.825
20
-105.512
11
321.825
21
-105.512
0
LINE
8
BLACK
6
CONTINUOUS
10
306.825
20
-94.5125
11
304.825
21
-94.5125
0
LINE
8
BLACK
6
CONTINUOUS
10
304.825
20
-94.5125
11
304.825
21
-99.3125
0
LINE
8
BLACK
6
CONTINUOUS
10
304.825
20
-99.3125
11
306.825
21
-99.3125
0
LINE
8
BLACK
6
CONTINUOUS
10
302.26
20
-93.0275
11
302.26
21
-106.997
0
LINE
8
BLACK
6
CONTINUOUS
10
288.29
20
-93.0275
11
302.26
21
-93.0275
0
LINE
8
BLACK
6
CONTINUOUS
10
288.29
20
-106.997
11
288.29
21
-93.0275
0
LINE
8
BLACK
6
CONTINUOUS
10
302.26
20
-106.997
11
288.29
21
-106.997
0
LINE
8
BLACK
6
CONTINUOUS
10
287.775
20
-92.5125
11
302.775
21
-92.5125
0
LINE
8
BLACK
6
CONTINUOUS
10
302.775
20
-92.5125
11
302.775
21
-107.512
0
LINE
8
BLACK
6
CONTINUOUS
10
302.775
20
-107.512
11
287.775
21
-107.512
0
LINE
8
BLACK
6
CONTINUOUS
10
287.775
20
-107.512
11
287.775
21
-92.5125
0
LINE
8
BLACK
6
CONTINUOUS
10
302.775
20
-100.712
11
304.775
21
-100.712
0
LINE
8
BLACK
6
CONTINUOUS
10
304.775
20
-100.712
11
304.775
21
-105.512
0
LINE
8
BLACK
6
CONTINUOUS
10
304.775
20
-105.512
11
302.775
21
-105.512
0
LINE
8
BLACK
6
CONTINUOUS
10
287.775
20
-94.5125
11
285.775
21
-94.5125
0
LINE
8
BLACK
6
CONTINUOUS
10
285.775
20
-94.5125
11
285.775
21
-99.3125
0
LINE
8
BLACK
6
CONTINUOUS
10
285.775
20
-99.3125
11
287.775
21
-99.3125
0
LINE
8
BLACK
6
CONTINUOUS
10
283.21
20
-93.0275
11
283.21
21
-106.997
0
LINE
8
BLACK
6
CONTINUOUS
10
269.24
20
-93.0275
11
283.21
21
-93.0275
0
LINE
8
BLACK
6
CONTINUOUS
10
269.24
20
-106.997
11
269.24
21
-93.0275
0
LINE
8
BLACK
6
CONTINUOUS
10
283.21
20
-106.997
11
269.24
21
-106.997
0
LINE
8
BLACK
6
CONTINUOUS
10
268.725
20
-92.5125
11
283.725
21
-92.5125
0
LINE
8
BLACK
6
CONTINUOUS
10
283.725
20
-92.5125
11
283.725
21
-107.512
0
LINE
8
BLACK
6
CONTINUOUS
10
283.725
20
-107.512
11
268.725
21
-107.512
0
LINE
8
BLACK
6
CONTINUOUS
10
268.725
20
-107.512
11
268.725
21
-92.5125
0
LINE
8
BLACK
6
CONTINUOUS
10
283.725
20
-100.712
11
285.725
21
-100.712
0
LINE
8
BLACK
6
CONTINUOUS
10
285.725
20
-100.712
11
285.725
21
-105.512
0
LINE
8
BLACK
6
CONTINUOUS
10
285.725
20
-105.512
11
283.725
21
-105.512
0
LINE
8
BLACK
6
CONTINUOUS
10
268.725
20
-94.5125
11
266.725
21
-94.5125
0
LINE
8
BLACK
6
CONTINUOUS
10
266.725
20
-94.5125
11
266.725
21
-99.3125
0
LINE
8
BLACK
6
CONTINUOUS
10
266.725
20
-99.3125
11
268.725
21
-99.3125
0
LINE
8
BLACK
6
CONTINUOUS
10
264.16
20
-93.0275
11
264.16
21
-106.997
0
LINE
8
BLACK
6
CONTINUOUS
10
250.19
20
-93.0275
11
264.16
21
-93.0275
0
LINE
8
BLACK
6
CONTINUOUS
10
250.19
20
-106.997
11
250.19
21
-93.0275
0
LINE
8
BLACK
6
CONTINUOUS
10
264.16
20
-106.997
11
250.19
21
-106.997
0
LINE
8
BLACK
6
CONTINUOUS
10
249.675
20
-92.5125
11
264.675
21
-92.5125
0
LINE
8
BLACK
6
CONTINUOUS
10
264.675
20
-92.5125
11
264.675
21
-107.512
0
LINE
8
BLACK
6
CONTINUOUS
10
264.675
20
-107.512
11
249.675
21
-107.512
0
LINE
8
BLACK
6
CONTINUOUS
10
249.675
20
-107.512
11
249.675
21
-92.5125
0
LINE
8
BLACK
6
CONTINUOUS
10
264.675
20
-100.712
11
266.675
21
-100.712
0
LINE
8
BLACK
6
CONTINUOUS
10
266.675
20
-100.712
11
266.675
21
-105.512
0
LINE
8
BLACK
6
CONTINUOUS
10
266.675
20
-105.512
11
264.675
21
-105.512
0
LINE
8
BLACK
6
CONTINUOUS
10
249.675
20
-94.5125
11
247.675
21
-94.5125
0
LINE
8
BLACK
6
CONTINUOUS
10
247.675
20
-94.5125
11
247.675
21
-99.3125
0
LINE
8
BLACK
6
CONTINUOUS
10
247.675
20
-99.3125
11
249.675
21
-99.3125
0
LINE
8
BLACK
6
CONTINUOUS
10
340.36
20
-73.9775
11
340.36
21
-87.9475
0
LINE
8
BLACK
6
CONTINUOUS
10
326.39
20
-73.9775
11
340.36
21
-73.9775
0
LINE
8
BLACK
6
CONTINUOUS
10
326.39
20
-87.9475
11
326.39
21
-73.9775
0
LINE
8
BLACK
6
CONTINUOUS
10
340.36
20
-87.9475
11
326.39
21
-87.9475
0
LINE
8
BLACK
6
CONTINUOUS
10
325.875
20
-73.4625
11
340.875
21
-73.4625
0
LINE
8
BLACK
6
CONTINUOUS
10
340.875
20
-73.4625
11
340.875
21
-88.4625
0
LINE
8
BLACK
6
CONTINUOUS
10
340.875
20
-88.4625
11
325.875
21
-88.4625
0
LINE
8
BLACK
6
CONTINUOUS
10
325.875
20
-88.4625
11
325.875
21
-73.4625
0
LINE
8
BLACK
6
CONTINUOUS
10
340.875
20
-81.6625
11
342.875
21
-81.6625
0
LINE
8
BLACK
6
CONTINUOUS
10
342.875
20
-81.6625
11
342.875
21
-86.4625
0
LINE
8
BLACK
6
CONTINUOUS
10
342.875
20
-86.4625
11
340.875
21
-86.4625
0
LINE
8
BLACK
6
CONTINUOUS
10
325.875
20
-75.4625
11
323.875
21
-75.4625
0
LINE
8
BLACK
6
CONTINUOUS
10
323.875
20
-75.4625
11
323.875
21
-80.2625
0
LINE
8
BLACK
6
CONTINUOUS
10
323.875
20
-80.2625
11
325.875
21
-80.2625
0
LINE
8
BLACK
6
CONTINUOUS
10
321.31
20
-73.9775
11
321.31
21
-87.9475
0
LINE
8
BLACK
6
CONTINUOUS
10
307.34
20
-73.9775
11
321.31
21
-73.9775
0
LINE
8
BLACK
6
CONTINUOUS
10
307.34
20
-87.9475
11
307.34
21
-73.9775
0
LINE
8
BLACK
6
CONTINUOUS
10
321.31
20
-87.9475
11
307.34
21
-87.9475
0
LINE
8
BLACK
6
CONTINUOUS
10
306.825
20
-73.4625
11
321.825
21
-73.4625
0
LINE
8
BLACK
6
CONTINUOUS
10
321.825
20
-73.4625
11
321.825
21
-88.4625
0
LINE
8
BLACK
6
CONTINUOUS
10
321.825
20
-88.4625
11
306.825
21
-88.4625
0
LINE
8
BLACK
6
CONTINUOUS
10
306.825
20
-88.4625
11
306.825
21
-73.4625
0
LINE
8
BLACK
6
CONTINUOUS
10
321.825
20
-81.6625
11
323.825
21
-81.6625
0
LINE
8
BLACK
6
CONTINUOUS
10
323.825
20
-81.6625
11
323.825
21
-86.4625
0
LINE
8
BLACK
6
CONTINUOUS
10
323.825
20
-86.4625
11
321.825
21
-86.4625
0
LINE
8
BLACK
6
CONTINUOUS
10
306.825
20
-75.4625
11
304.825
21
-75.4625
0
LINE
8
BLACK
6
CONTINUOUS
10
304.825
20
-75.4625
11
304.825
21
-80.2625
0
LINE
8
BLACK
6
CONTINUOUS
10
304.825
20
-80.2625
11
306.825
21
-80.2625
0
LINE
8
BLACK
6
CONTINUOUS
10
302.26
20
-73.9775
11
302.26
21
-87.9475
0
LINE
8
BLACK
6
CONTINUOUS
10
288.29
20
-73.9775
11
302.26
21
-73.9775
0
LINE
8
BLACK
6
CONTINUOUS
10
288.29
20
-87.9475
11
288.29
21
-73.9775
0
LINE
8
BLACK
6
CONTINUOUS
10
302.26
20
-87.9475
11
288.29
21
-87.9475
0
LINE
8
BLACK
6
CONTINUOUS
10
287.775
20
-73.4625
11
302.775
21
-73.4625
0
LINE
8
BLACK
6
CONTINUOUS
10
302.775
20
-73.4625
11
302.775
21
-88.4625
0
LINE
8
BLACK
6
CONTINUOUS
10
302.775
20
-88.4625
11
287.775
21
-88.4625
0
LINE
8
BLACK
6
CONTINUOUS
10
287.775
20
-88.4625
11
287.775
21
-73.4625
0
LINE
8
BLACK
6
CONTINUOUS
10
302.775
20
-81.6625
11
304.775
21
-81.6625
0
LINE
8
BLACK
6
CONTINUOUS
10
304.775
20
-81.6625
11
304.775
21
-86.4625
0
LINE
8
BLACK
6
CONTINUOUS
10
304.775
20
-86.4625
11
302.775
21
-86.4625
0
LINE
8
BLACK
6
CONTINUOUS
10
287.775
20
-75.4625
11
285.775
21
-75.4625
0
LINE
8
BLACK
6
CONTINUOUS
10
285.775
20
-75.4625
11
285.775
21
-80.2625
0
LINE
8
BLACK
6
CONTINUOUS
10
285.775
20
-80.2625
11
287.775
21
-80.2625
0
LINE
8
BLACK
6
CONTINUOUS
10
283.21
20
-73.9775
11
283.21
21
-87.9475
0
LINE
8
BLACK
6
CONTINUOUS
10
269.24
20
-73.9775
11
283.21
21
-73.9775
0
LINE
8
BLACK
6
CONTINUOUS
10
269.24
20
-87.9475
11
269.24
21
-73.9775
0
LINE
8
BLACK
6
CONTINUOUS
10
283.21
20
-87.9475
11
269.24
21
-87.9475
0
LINE
8
BLACK
6
CONTINUOUS
10
268.725
20
-73.4625
11
283.725
21
-73.4625
0
LINE
8
BLACK
6
CONTINUOUS
10
283.725
20
-73.4625
11
283.725
21
-88.4625
0
LINE
8
BLACK
6
CONTINUOUS
10
283.725
20
-88.4625
11
268.725
21
-88.4625
0
LINE
8
BLACK
6
CONTINUOUS
10
268.725
20
-88.4625
11
268.725
21
-73.4625
0
LINE
8
BLACK
6
CONTINUOUS
10
283.725
20
-81.6625
11
285.725
21
-81.6625
0
LINE
8
BLACK
6
CONTINUOUS
10
285.725
20
-81.6625
11
285.725
21
-86.4625
0
LINE
8
BLACK
6
CONTINUOUS
10
285.725
20
-86.4625
11
283.725
21
-86.4625
0
LINE
8
BLACK
6
CONTINUOUS
10
268.725
20
-75.4625
11
266.725
21
-75.4625
0
LINE
8
BLACK
6
CONTINUOUS
10
266.725
20
-75.4625
11
266.725
21
-80.2625
0
LINE
8
BLACK
6
CONTINUOUS
10
266.725
20
-80.2625
11
268.725
21
-80.2625
0
LINE
8
BLACK
6
CONTINUOUS
10
264.16
20
-73.9775
11
264.16
21
-87.9475
0
LINE
8
BLACK
6
CONTINUOUS
10
250.19
20
-73.9775
11
264.16
21
-73.9775
0
LINE
8
BLACK
6
CONTINUOUS
10
250.19
20
-87.9475
11
250.19
21
-73.9775
0
LINE
8
BLACK
6
CONTINUOUS
10
264.16
20
-87.9475
11
250.19
21
-87.9475
0
LINE
8
BLACK
6
CONTINUOUS
10
249.675
20
-73.4625
11
264.675
21
-73.4625
0
LINE
8
BLACK
6
CONTINUOUS
10
264.675
20
-73.4625
11
264.675
21
-88.4625
0
LINE
8
BLACK
6
CONTINUOUS
10
264.675
20
-88.4625
11
249.675
21
-88.4625
0
LINE
8
BLACK
6
CONTINUOUS
10
249.675
20
-88.4625
11
249.675
21
-73.4625
0
LINE
8
BLACK
6
CONTINUOUS
10
264.675
20
-81.6625
11
266.675
21
-81.6625
0
LINE
8
BLACK
6
CONTINUOUS
10
266.675
20
-81.6625
11
266.675
21
-86.4625
0
LINE
8
BLACK
6
CONTINUOUS
10
266.675
20
-86.4625
11
264.675
21
-86.4625
0
LINE
8
BLACK
6
CONTINUOUS
10
249.675
20
-75.4625
11
247.675
21
-75.4625
0
LINE
8
BLACK
6
CONTINUOUS
10
247.675
20
-75.4625
11
247.675
21
-80.2625
0
LINE
8
BLACK
6
CONTINUOUS
10
247.675
20
-80.2625
11
249.675
21
-80.2625
0
LINE
8
BLACK
6
CONTINUOUS
10
359.41
20
-54.9275
11
359.41
21
-68.8975
0
LINE
8
BLACK
6
CONTINUOUS
10
345.44
20
-54.9275
11
359.41
21
-54.9275
0
LINE
8
BLACK
6
CONTINUOUS
10
345.44
20
-68.8975
11
345.44
21
-54.9275
0
LINE
8
BLACK
6
CONTINUOUS
10
359.41
20
-68.8975
11
345.44
21
-68.8975
0
LINE
8
BLACK
6
CONTINUOUS
10
344.925
20
-54.4125
11
359.925
21
-54.4125
0
LINE
8
BLACK
6
CONTINUOUS
10
359.925
20
-54.4125
11
359.925
21
-69.4125
0
LINE
8
BLACK
6
CONTINUOUS
10
359.925
20
-69.4125
11
344.925
21
-69.4125
0
LINE
8
BLACK
6
CONTINUOUS
10
344.925
20
-69.4125
11
344.925
21
-54.4125
0
LINE
8
BLACK
6
CONTINUOUS
10
359.925
20
-62.6125
11
361.925
21
-62.6125
0
LINE
8
BLACK
6
CONTINUOUS
10
361.925
20
-62.6125
11
361.925
21
-67.4125
0
LINE
8
BLACK
6
CONTINUOUS
10
361.925
20
-67.4125
11
359.925
21
-67.4125
0
LINE
8
BLACK
6
CONTINUOUS
10
344.925
20
-56.4125
11
342.925
21
-56.4125
0
LINE
8
BLACK
6
CONTINUOUS
10
342.925
20
-56.4125
11
342.925
21
-61.2125
0
LINE
8
BLACK
6
CONTINUOUS
10
342.925
20
-61.2125
11
344.925
21
-61.2125
0
LINE
8
BLACK
6
CONTINUOUS
10
340.36
20
-54.9275
11
340.36
21
-68.8975
0
LINE
8
BLACK
6
CONTINUOUS
10
326.39
20
-54.9275
11
340.36
21
-54.9275
0
LINE
8
BLACK
6
CONTINUOUS
10
326.39
20
-68.8975
11
326.39
21
-54.9275
0
LINE
8
BLACK
6
CONTINUOUS
10
340.36
20
-68.8975
11
326.39
21
-68.8975
0
LINE
8
BLACK
6
CONTINUOUS
10
325.875
20
-54.4125
11
340.875
21
-54.4125
0
LINE
8
BLACK
6
CONTINUOUS
10
340.875
20
-54.4125
11
340.875
21
-69.4125
0
LINE
8
BLACK
6
CONTINUOUS
10
340.875
20
-69.4125
11
325.875
21
-69.4125
0
LINE
8
BLACK
6
CONTINUOUS
10
325.875
20
-69.4125
11
325.875
21
-54.4125
0
LINE
8
BLACK
6
CONTINUOUS
10
340.875
20
-62.6125
11
342.875
21
-62.6125
0
LINE
8
BLACK
6
CONTINUOUS
10
342.875
20
-62.6125
11
342.875
21
-67.4125
0
LINE
8
BLACK
6
CONTINUOUS
10
342.875
20
-67.4125
11
340.875
21
-67.4125
0
LINE
8
BLACK
6
CONTINUOUS
10
325.875
20
-56.4125
11
323.875
21
-56.4125
0
LINE
8
BLACK
6
CONTINUOUS
10
323.875
20
-56.4125
11
323.875
21
-61.2125
0
LINE
8
BLACK
6
CONTINUOUS
10
323.875
20
-61.2125
11
325.875
21
-61.2125
0
LINE
8
BLACK
6
CONTINUOUS
10
321.31
20
-54.9275
11
321.31
21
-68.8975
0
LINE
8
BLACK
6
CONTINUOUS
10
307.34
20
-54.9275
11
321.31
21
-54.9275
0
LINE
8
BLACK
6
CONTINUOUS
10
307.34
20
-68.8975
11
307.34
21
-54.9275
0
LINE
8
BLACK
6
CONTINUOUS
10
321.31
20
-68.8975
11
307.34
21
-68.8975
0
LINE
8
BLACK
6
CONTINUOUS
10
306.825
20
-54.4125
11
321.825
21
-54.4125
0
LINE
8
BLACK
6
CONTINUOUS
10
321.825
20
-54.4125
11
321.825
21
-69.4125
0
LINE
8
BLACK
6
CONTINUOUS
10
321.825
20
-69.4125
11
306.825
21
-69.4125
0
LINE
8
BLACK
6
CONTINUOUS
10
306.825
20
-69.4125
11
306.825
21
-54.4125
0
LINE
8
BLACK
6
CONTINUOUS
10
321.825
20
-62.6125
11
323.825
21
-62.6125
0
LINE
8
BLACK
6
CONTINUOUS
10
323.825
20
-62.6125
11
323.825
21
-67.4125
0
LINE
8
BLACK
6
CONTINUOUS
10
323.825
20
-67.4125
11
321.825
21
-67.4125
0
LINE
8
BLACK
6
CONTINUOUS
10
306.825
20
-56.4125
11
304.825
21
-56.4125
0
LINE
8
BLACK
6
CONTINUOUS
10
304.825
20
-56.4125
11
304.825
21
-61.2125
0
LINE
8
BLACK
6
CONTINUOUS
10
304.825
20
-61.2125
11
306.825
21
-61.2125
0
LINE
8
BLACK
6
CONTINUOUS
10
302.26
20
-54.9275
11
302.26
21
-68.8975
0
LINE
8
BLACK
6
CONTINUOUS
10
288.29
20
-54.9275
11
302.26
21
-54.9275
0
LINE
8
BLACK
6
CONTINUOUS
10
288.29
20
-68.8975
11
288.29
21
-54.9275
0
LINE
8
BLACK
6
CONTINUOUS
10
302.26
20
-68.8975
11
288.29
21
-68.8975
0
LINE
8
BLACK
6
CONTINUOUS
10
287.775
20
-54.4125
11
302.775
21
-54.4125
0
LINE
8
BLACK
6
CONTINUOUS
10
302.775
20
-54.4125
11
302.775
21
-69.4125
0
LINE
8
BLACK
6
CONTINUOUS
10
302.775
20
-69.4125
11
287.775
21
-69.4125
0
LINE
8
BLACK
6
CONTINUOUS
10
287.775
20
-69.4125
11
287.775
21
-54.4125
0
LINE
8
BLACK
6
CONTINUOUS
10
302.775
20
-62.6125
11
304.775
21
-62.6125
0
LINE
8
BLACK
6
CONTINUOUS
10
304.775
20
-62.6125
11
304.775
21
-67.4125
0
LINE
8
BLACK
6
CONTINUOUS
10
304.775
20
-67.4125
11
302.775
21
-67.4125
0
LINE
8
BLACK
6
CONTINUOUS
10
287.775
20
-56.4125
11
285.775
21
-56.4125
0
LINE
8
BLACK
6
CONTINUOUS
10
285.775
20
-56.4125
11
285.775
21
-61.2125
0
LINE
8
BLACK
6
CONTINUOUS
10
285.775
20
-61.2125
11
287.775
21
-61.2125
0
LINE
8
BLACK
6
CONTINUOUS
10
283.21
20
-54.9275
11
283.21
21
-68.8975
0
LINE
8
BLACK
6
CONTINUOUS
10
269.24
20
-54.9275
11
283.21
21
-54.9275
0
LINE
8
BLACK
6
CONTINUOUS
10
269.24
20
-68.8975
11
269.24
21
-54.9275
0
LINE
8
BLACK
6
CONTINUOUS
10
283.21
20
-68.8975
11
269.24
21
-68.8975
0
LINE
8
BLACK
6
CONTINUOUS
10
268.725
20
-54.4125
11
283.725
21
-54.4125
0
LINE
8
BLACK
6
CONTINUOUS
10
283.725
20
-54.4125
11
283.725
21
-69.4125
0
LINE
8
BLACK
6
CONTINUOUS
10
283.725
20
-69.4125
11
268.725
21
-69.4125
0
LINE
8
BLACK
6
CONTINUOUS
10
268.725
20
-69.4125
11
268.725
21
-54.4125
0
LINE
8
BLACK
6
CONTINUOUS
10
283.725
20
-62.6125
11
285.725
21
-62.6125
0
LINE
8
BLACK
6
CONTINUOUS
10
285.725
20
-62.6125
11
285.725
21
-67.4125
0
LINE
8
BLACK
6
CONTINUOUS
10
285.725
20
-67.4125
11
283.725
21
-67.4125
0
LINE
8
BLACK
6
CONTINUOUS
10
268.725
20
-56.4125
11
266.725
21
-56.4125
0
LINE
8
BLACK
6
CONTINUOUS
10
266.725
20
-56.4125
11
266.725
21
-61.2125
0
LINE
8
BLACK
6
CONTINUOUS
10
266.725
20
-61.2125
11
268.725
21
-61.2125
0
LINE
8
BLACK
6
CONTINUOUS
10
264.16
20
-54.9275
11
264.16
21
-68.8975
0
LINE
8
BLACK
6
CONTINUOUS
10
250.19
20
-54.9275
11
264.16
21
-54.9275
0
LINE
8
BLACK
6
CONTINUOUS
10
250.19
20
-68.8975
11
250.19
21
-54.9275
0
LINE
8
BLACK
6
CONTINUOUS
10
264.16
20
-68.8975
11
250.19
21
-68.8975
0
LINE
8
BLACK
6
CONTINUOUS
10
249.675
20
-54.4125
11
264.675
21
-54.4125
0
LINE
8
BLACK
6
CONTINUOUS
10
264.675
20
-54.4125
11
264.675
21
-69.4125
0
LINE
8
BLACK
6
CONTINUOUS
10
264.675
20
-69.4125
11
249.675
21
-69.4125
0
LINE
8
BLACK
6
CONTINUOUS
10
249.675
20
-69.4125
11
249.675
21
-54.4125
0
LINE
8
BLACK
6
CONTINUOUS
10
264.675
20
-62.6125
11
266.675
21
-62.6125
0
LINE
8
BLACK
6
CONTINUOUS
10
266.675
20
-62.6125
11
266.675
21
-67.4125
0
LINE
8
BLACK
6
CONTINUOUS
10
266.675
20
-67.4125
11
264.675
21
-67.4125
0
LINE
8
BLACK
6
CONTINUOUS
10
249.675
20
-56.4125
11
247.675
21
-56.4125
0
LINE
8
BLACK
6
CONTINUOUS
10
247.675
20
-56.4125
11
247.675
21
-61.2125
0
LINE
8
BLACK
6
CONTINUOUS
10
247.675
20
-61.2125
11
249.675
21
-61.2125
0
LINE
8
BLACK
6
CONTINUOUS
10
359.41
20
-35.8775
11
359.41
21
-49.8475
0
LINE
8
BLACK
6
CONTINUOUS
10
345.44
20
-35.8775
11
359.41
21
-35.8775
0
LINE
8
BLACK
6
CONTINUOUS
10
345.44
20
-49.8475
11
345.44
21
-35.8775
0
LINE
8
BLACK
6
CONTINUOUS
10
359.41
20
-49.8475
11
345.44
21
-49.8475
0
LINE
8
BLACK
6
CONTINUOUS
10
344.925
20
-35.3625
11
359.925
21
-35.3625
0
LINE
8
BLACK
6
CONTINUOUS
10
359.925
20
-35.3625
11
359.925
21
-50.3625
0
LINE
8
BLACK
6
CONTINUOUS
10
359.925
20
-50.3625
11
344.925
21
-50.3625
0
LINE
8
BLACK
6
CONTINUOUS
10
344.925
20
-50.3625
11
344.925
21
-35.3625
0
LINE
8
BLACK
6
CONTINUOUS
10
359.925
20
-43.5625
11
361.925
21
-43.5625
0
LINE
8
BLACK
6
CONTINUOUS
10
361.925
20
-43.5625
11
361.925
21
-48.3625
0
LINE
8
BLACK
6
CONTINUOUS
10
361.925
20
-48.3625
11
359.925
21
-48.3625
0
LINE
8
BLACK
6
CONTINUOUS
10
344.925
20
-37.3625
11
342.925
21
-37.3625
0
LINE
8
BLACK
6
CONTINUOUS
10
342.925
20
-37.3625
11
342.925
21
-42.1625
0
LINE
8
BLACK
6
CONTINUOUS
10
342.925
20
-42.1625
11
344.925
21
-42.1625
0
LINE
8
BLACK
6
CONTINUOUS
10
340.36
20
-35.8775
11
340.36
21
-49.8475
0
LINE
8
BLACK
6
CONTINUOUS
10
326.39
20
-35.8775
11
340.36
21
-35.8775
0
LINE
8
BLACK
6
CONTINUOUS
10
326.39
20
-49.8475
11
326.39
21
-35.8775
0
LINE
8
BLACK
6
CONTINUOUS
10
340.36
20
-49.8475
11
326.39
21
-49.8475
0
LINE
8
BLACK
6
CONTINUOUS
10
325.875
20
-35.3625
11
340.875
21
-35.3625
0
LINE
8
BLACK
6
CONTINUOUS
10
340.875
20
-35.3625
11
340.875
21
-50.3625
0
LINE
8
BLACK
6
CONTINUOUS
10
340.875
20
-50.3625
11
325.875
21
-50.3625
0
LINE
8
BLACK
6
CONTINUOUS
10
325.875
20
-50.3625
11
325.875
21
-35.3625
0
LINE
8
BLACK
6
CONTINUOUS
10
340.875
20
-43.5625
11
342.875
21
-43.5625
0
LINE
8
BLACK
6
CONTINUOUS
10
342.875
20
-43.5625
11
342.875
21
-48.3625
0
LINE
8
BLACK
6
CONTINUOUS
10
342.875
20
-48.3625
11
340.875
21
-48.3625
0
LINE
8
BLACK
6
CONTINUOUS
10
325.875
20
-37.3625
11
323.875
21
-37.3625
0
LINE
8
BLACK
6
CONTINUOUS
10
323.875
20
-37.3625
11
323.875
21
-42.1625
0
LINE
8
BLACK
6
CONTINUOUS
10
323.875
20
-42.1625
11
325.875
21
-42.1625
0
LINE
8
BLACK
6
CONTINUOUS
10
321.31
20
-35.8775
11
321.31
21
-49.8475
0
LINE
8
BLACK
6
CONTINUOUS
10
307.34
20
-35.8775
11
321.31
21
-35.8775
0
LINE
8
BLACK
6
CONTINUOUS
10
307.34
20
-49.8475
11
307.34
21
-35.8775
0
LINE
8
BLACK
6
CONTINUOUS
10
321.31
20
-49.8475
11
307.34
21
-49.8475
0
LINE
8
BLACK
6
CONTINUOUS
10
306.825
20
-35.3625
11
321.825
21
-35.3625
0
LINE
8
BLACK
6
CONTINUOUS
10
321.825
20
-35.3625
11
321.825
21
-50.3625
0
LINE
8
BLACK
6
CONTINUOUS
10
321.825
20
-50.3625
11
306.825
21
-50.3625
0
LINE
8
BLACK
6
CONTINUOUS
10
306.825
20
-50.3625
11
306.825
21
-35.3625
0
LINE
8
BLACK
6
CONTINUOUS
10
321.825
20
-43.5625
11
323.825
21
-43.5625
0
LINE
8
BLACK
6
CONTINUOUS
10
323.825
20
-43.5625
11
323.825
21
-48.3625
0
LINE
8
BLACK
6
CONTINUOUS
10
323.825
20
-48.3625
11
321.825
21
-48.3625
0
LINE
8
BLACK
6
CONTINUOUS
10
306.825
20
-37.3625
11
304.825
21
-37.3625
0
LINE
8
BLACK
6
CONTINUOUS
10
304.825
20
-37.3625
11
304.825
21
-42.1625
0
LINE
8
BLACK
6
CONTINUOUS
10
304.825
20
-42.1625
11
306.825
21
-42.1625
0
LINE
8
BLACK
6
CONTINUOUS
10
302.26
20
-35.8775
11
302.26
21
-49.8475
0
LINE
8
BLACK
6
CONTINUOUS
10
288.29
20
-35.8775
11
302.26
21
-35.8775
0
LINE
8
BLACK
6
CONTINUOUS
10
288.29
20
-49.8475
11
288.29
21
-35.8775
0
LINE
8
BLACK
6
CONTINUOUS
10
302.26
20
-49.8475
11
288.29
21
-49.8475
0
LINE
8
BLACK
6
CONTINUOUS
10
287.775
20
-35.3625
11
302.775
21
-35.3625
0
LINE
8
BLACK
6
CONTINUOUS
10
302.775
20
-35.3625
11
302.775
21
-50.3625
0
LINE
8
BLACK
6
CONTINUOUS
10
302.775
20
-50.3625
11
287.775
21
-50.3625
0
LINE
8
BLACK
6
CONTINUOUS
10
287.775
20
-50.3625
11
287.775
21
-35.3625
0
LINE
8
BLACK
6
CONTINUOUS
10
302.775
20
-43.5625
11
304.775
21
-43.5625
0
LINE
8
BLACK
6
CONTINUOUS
10
304.775
20
-43.5625
11
304.775
21
-48.3625
0
LINE
8
BLACK
6
CONTINUOUS
10
304.775
20
-48.3625
11
302.775
21
-48.3625
0
LINE
8
BLACK
6
CONTINUOUS
10
287.775
20
-37.3625
11
285.775
21
-37.3625
0
LINE
8
BLACK
6
CONTINUOUS
10
285.775
20
-37.3625
11
285.775
21
-42.1625
0
LINE
8
BLACK
6
CONTINUOUS
10
285.775
20
-42.1625
11
287.775
21
-42.1625
0
LINE
8
BLACK
6
CONTINUOUS
10
283.21
20
-35.8775
11
283.21
21
-49.8475
0
LINE
8
BLACK
6
CONTINUOUS
10
269.24
20
-35.8775
11
283.21
21
-35.8775
0
LINE
8
BLACK
6
CONTINUOUS
10
269.24
20
-49.8475
11
269.24
21
-35.8775
0
LINE
8
BLACK
6
CONTINUOUS
10
283.21
20
-49.8475
11
269.24
21
-49.8475
0
LINE
8
BLACK
6
CONTINUOUS
10
268.725
20
-35.3625
11
283.725
21
-35.3625
0
LINE
8
BLACK
6
CONTINUOUS
10
283.725
20
-35.3625
11
283.725
21
-50.3625
0
LINE
8
BLACK
6
CONTINUOUS
10
283.725
20
-50.3625
11
268.725
21
-50.3625
0
LINE
8
BLACK
6
CONTINUOUS
10
268.725
20
-50.3625
11
268.725
21
-35.3625
0
LINE
8
BLACK
6
CONTINUOUS
10
283.725
20
-43.5625
11
285.725
21
-43.5625
0
LINE
8
BLACK
6
CONTINUOUS
10
285.725
20
-43.5625
11
285.725
21
-48.3625
0
LINE
8
BLACK
6
CONTINUOUS
10
285.725
20
-48.3625
11
283.725
21
-48.3625
0
LINE
8
BLACK
6
CONTINUOUS
10
268.725
20
-37.3625
11
266.725
21
-37.3625
0
LINE
8
BLACK
6
CONTINUOUS
10
266.725
20
-37.3625
11
266.725
21
-42.1625
0
LINE
8
BLACK
6
CONTINUOUS
10
266.725
20
-42.1625
11
268.725
21
-42.1625
0
LINE
8
BLACK
6
CONTINUOUS
10
264.16
20
-35.8775
11
264.16
21
-49.8475
0
LINE
8
BLACK
6
CONTINUOUS
10
250.19
20
-35.8775
11
264.16
21
-35.8775
0
LINE
8
BLACK
6
CONTINUOUS
10
250.19
20
-49.8475
11
250.19
21
-35.8775
0
LINE
8
BLACK
6
CONTINUOUS
10
264.16
20
-49.8475
11
250.19
21
-49.8475
0
LINE
8
BLACK
6
CONTINUOUS
10
249.675
20
-35.3625
11
264.675
21
-35.3625
0
LINE
8
BLACK
6
CONTINUOUS
10
264.675
20
-35.3625
11
264.675
21
-50.3625
0
LINE
8
BLACK
6
CONTINUOUS
10
264.675
20
-50.3625
11
249.675
21
-50.3625
0
LINE
8
BLACK
6
CONTINUOUS
10
249.675
20
-50.3625
11
249.675
21
-35.3625
0
LINE
8
BLACK
6
CONTINUOUS
10
264.675
20
-43.5625
11
266.675
21
-43.5625
0
LINE
8
BLACK
6
CONTINUOUS
10
266.675
20
-43.5625
11
266.675
21
-48.3625
0
LINE
8
BLACK
6
CONTINUOUS
10
266.675
20
-48.3625
11
264.675
21
-48.3625
0
LINE
8
BLACK
6
CONTINUOUS
10
249.675
20
-37.3625
11
247.675
21
-37.3625
0
LINE
8
BLACK
6
CONTINUOUS
10
247.675
20
-37.3625
11
247.675
21
-42.1625
0
LINE
8
BLACK
6
CONTINUOUS
10
247.675
20
-42.1625
11
249.675
21
-42.1625
0
LINE
8
BLACK
6
CONTINUOUS
10
340.36
20
-16.8275
11
340.36
21
-30.7975
0
LINE
8
BLACK
6
CONTINUOUS
10
326.39
20
-16.8275
11
340.36
21
-16.8275
0
LINE
8
BLACK
6
CONTINUOUS
10
326.39
20
-30.7975
11
326.39
21
-16.8275
0
LINE
8
BLACK
6
CONTINUOUS
10
340.36
20
-30.7975
11
326.39
21
-30.7975
0
LINE
8
BLACK
6
CONTINUOUS
10
325.875
20
-16.3125
11
340.875
21
-16.3125
0
LINE
8
BLACK
6
CONTINUOUS
10
340.875
20
-16.3125
11
340.875
21
-31.3125
0
LINE
8
BLACK
6
CONTINUOUS
10
340.875
20
-31.3125
11
325.875
21
-31.3125
0
LINE
8
BLACK
6
CONTINUOUS
10
325.875
20
-31.3125
11
325.875
21
-16.3125
0
LINE
8
BLACK
6
CONTINUOUS
10
340.875
20
-24.5125
11
342.875
21
-24.5125
0
LINE
8
BLACK
6
CONTINUOUS
10
342.875
20
-24.5125
11
342.875
21
-29.3125
0
LINE
8
BLACK
6
CONTINUOUS
10
342.875
20
-29.3125
11
340.875
21
-29.3125
0
LINE
8
BLACK
6
CONTINUOUS
10
325.875
20
-18.3125
11
323.875
21
-18.3125
0
LINE
8
BLACK
6
CONTINUOUS
10
323.875
20
-18.3125
11
323.875
21
-23.1125
0
LINE
8
BLACK
6
CONTINUOUS
10
323.875
20
-23.1125
11
325.875
21
-23.1125
0
LINE
8
BLACK
6
CONTINUOUS
10
321.31
20
-16.8275
11
321.31
21
-30.7975
0
LINE
8
BLACK
6
CONTINUOUS
10
307.34
20
-16.8275
11
321.31
21
-16.8275
0
LINE
8
BLACK
6
CONTINUOUS
10
307.34
20
-30.7975
11
307.34
21
-16.8275
0
LINE
8
BLACK
6
CONTINUOUS
10
321.31
20
-30.7975
11
307.34
21
-30.7975
0
LINE
8
BLACK
6
CONTINUOUS
10
306.825
20
-16.3125
11
321.825
21
-16.3125
0
LINE
8
BLACK
6
CONTINUOUS
10
321.825
20
-16.3125
11
321.825
21
-31.3125
0
LINE
8
BLACK
6
CONTINUOUS
10
321.825
20
-31.3125
11
306.825
21
-31.3125
0
LINE
8
BLACK
6
CONTINUOUS
10
306.825
20
-31.3125
11
306.825
21
-16.3125
0
LINE
8
BLACK
6
CONTINUOUS
10
321.825
20
-24.5125
11
323.825
21
-24.5125
0
LINE
8
BLACK
6
CONTINUOUS
10
323.825
20
-24.5125
11
323.825
21
-29.3125
0
LINE
8
BLACK
6
CONTINUOUS
10
323.825
20
-29.3125
11
321.825
21
-29.3125
0
LINE
8
BLACK
6
CONTINUOUS
10
306.825
20
-18.3125
11
304.825
21
-18.3125
0
LINE
8
BLACK
6
CONTINUOUS
10
304.825
20
-18.3125
11
304.825
21
-23.1125
0
LINE
8
BLACK
6
CONTINUOUS
10
304.825
20
-23.1125
11
306.825
21
-23.1125
0
LINE
8
BLACK
6
CONTINUOUS
10
302.26
20
-16.8275
11
302.26
21
-30.7975
0
LINE
8
BLACK
6
CONTINUOUS
10
288.29
20
-16.8275
11
302.26
21
-16.8275
0
LINE
8
BLACK
6
CONTINUOUS
10
288.29
20
-30.7975
11
288.29
21
-16.8275
0
LINE
8
BLACK
6
CONTINUOUS
10
302.26
20
-30.7975
11
288.29
21
-30.7975
0
LINE
8
BLACK
6
CONTINUOUS
10
287.775
20
-16.3125
11
302.775
21
-16.3125
0
LINE
8
BLACK
6
CONTINUOUS
10
302.775
20
-16.3125
11
302.775
21
-31.3125
0
LINE
8
BLACK
6
CONTINUOUS
10
302.775
20
-31.3125
11
287.775
21
-31.3125
0
LINE
8
BLACK
6
CONTINUOUS
10
287.775
20
-31.3125
11
287.775
21
-16.3125
0
LINE
8
BLACK
6
CONTINUOUS
10
302.775
20
-24.5125
11
304.775
21
-24.5125
0
LINE
8
BLACK
6
CONTINUOUS
10
304.775
20
-24.5125
11
304.775
21
-29.3125
0
LINE
8
BLACK
6
CONTINUOUS
10
304.775
20
-29.3125
11
302.775
21
-29.3125
0
LINE
8
BLACK
6
CONTINUOUS
10
287.775
20
-18.3125
11
285.775
21
-18.3125
0
LINE
8
BLACK
6
CONTINUOUS
10
285.775
20
-18.3125
11
285.775
21
-23.1125
0
LINE
8
BLACK
6
CONTINUOUS
10
285.775
20
-23.1125
11
287.775
21
-23.1125
0
LINE
8
BLACK
6
CONTINUOUS
10
283.21
20
-16.8275
11
283.21
21
-30.7975
0
LINE
8
BLACK
6
CONTINUOUS
10
269.24
20
-16.8275
11
283.21
21
-16.8275
0
LINE
8
BLACK
6
CONTINUOUS
10
269.24
20
-30.7975
11
269.24
21
-16.8275
0
LINE
8
BLACK
6
CONTINUOUS
10
283.21
20
-30.7975
11
269.24
21
-30.7975
0
LINE
8
BLACK
6
CONTINUOUS
10
268.725
20
-16.3125
11
283.725
21
-16.3125
0
LINE
8
BLACK
6
CONTINUOUS
10
283.725
20
-16.3125
11
283.725
21
-31.3125
0
LINE
8
BLACK
6
CONTINUOUS
10
283.725
20
-31.3125
11
268.725
21
-31.3125
0
LINE
8
BLACK
6
CONTINUOUS
10
268.725
20
-31.3125
11
268.725
21
-16.3125
0
LINE
8
BLACK
6
CONTINUOUS
10
283.725
20
-24.5125
11
285.725
21
-24.5125
0
LINE
8
BLACK
6
CONTINUOUS
10
285.725
20
-24.5125
11
285.725
21
-29.3125
0
LINE
8
BLACK
6
CONTINUOUS
10
285.725
20
-29.3125
11
283.725
21
-29.3125
0
LINE
8
BLACK
6
CONTINUOUS
10
268.725
20
-18.3125
11
266.725
21
-18.3125
0
LINE
8
BLACK
6
CONTINUOUS
10
266.725
20
-18.3125
11
266.725
21
-23.1125
0
LINE
8
BLACK
6
CONTINUOUS
10
266.725
20
-23.1125
11
268.725
21
-23.1125
0
LINE
8
BLACK
6
CONTINUOUS
10
264.16
20
-16.8275
11
264.16
21
-30.7975
0
LINE
8
BLACK
6
CONTINUOUS
10
250.19
20
-16.8275
11
264.16
21
-16.8275
0
LINE
8
BLACK
6
CONTINUOUS
10
250.19
20
-30.7975
11
250.19
21
-16.8275
0
LINE
8
BLACK
6
CONTINUOUS
10
264.16
20
-30.7975
11
250.19
21
-30.7975
0
LINE
8
BLACK
6
CONTINUOUS
10
249.675
20
-16.3125
11
264.675
21
-16.3125
0
LINE
8
BLACK
6
CONTINUOUS
10
264.675
20
-16.3125
11
264.675
21
-31.3125
0
LINE
8
BLACK
6
CONTINUOUS
10
264.675
20
-31.3125
11
249.675
21
-31.3125
0
LINE
8
BLACK
6
CONTINUOUS
10
249.675
20
-31.3125
11
249.675
21
-16.3125
0
LINE
8
BLACK
6
CONTINUOUS
10
264.675
20
-24.5125
11
266.675
21
-24.5125
0
LINE
8
BLACK
6
CONTINUOUS
10
266.675
20
-24.5125
11
266.675
21
-29.3125
0
LINE
8
BLACK
6
CONTINUOUS
10
266.675
20
-29.3125
11
264.675
21
-29.3125
0
LINE
8
BLACK
6
CONTINUOUS
10
249.675
20
-18.3125
11
247.675
21
-18.3125
0
LINE
8
BLACK
6
CONTINUOUS
10
247.675
20
-18.3125
11
247.675
21
-23.1125
0
LINE
8
BLACK
6
CONTINUOUS
10
247.675
20
-23.1125
11
249.675
21
-23.1125
0
LINE
8
BLACK
6
CONTINUOUS
10
355.795
20
-75.1459
11
357.421
21
-75.1459
0
LINE
8
BLACK
6
CONTINUOUS
10
350.182
20
-73.1901
11
354.754
21
-73.1901
0
LINE
8
BLACK
6
CONTINUOUS
10
349.14
20
-83.2485
11
348.277
21
-83.2485
0
LINE
8
BLACK
6
CONTINUOUS
10
349.14
20
-86.6521
11
349.14
21
-83.2485
0
LINE
8
BLACK
6
CONTINUOUS
10
380.535
20
-80.4545
11
380.535
21
-83.2485
0
LINE
8
BLACK
6
CONTINUOUS
10
350.182
20
-74.3585
11
350.182
21
-73.1901
0
LINE
8
BLACK
6
CONTINUOUS
10
378.63
20
-73.1901
11
378.63
21
-74.3585
0
LINE
8
BLACK
6
CONTINUOUS
10
371.391
20
-73.9775
11
371.391
21
-75.1459
0
LINE
8
BLACK
6
CONTINUOUS
10
379.671
20
-86.6521
11
373.016
21
-86.6521
0
LINE
8
BLACK
6
CONTINUOUS
10
371.391
20
-75.1459
11
373.016
21
-75.1459
0
LINE
8
BLACK
6
CONTINUOUS
10
378.63
20
-74.3585
11
379.671
21
-74.3585
0
LINE
8
BLACK
6
CONTINUOUS
10
357.421
20
-73.9775
11
371.391
21
-73.9775
0
LINE
8
BLACK
6
CONTINUOUS
10
373.016
20
-75.1459
11
373.016
21
-74.3585
0
LINE
8
BLACK
6
CONTINUOUS
10
371.391
20
-87.9475
11
357.421
21
-87.9475
0
LINE
8
BLACK
6
CONTINUOUS
10
379.671
20
-83.2485
11
379.671
21
-86.6521
0
LINE
8
BLACK
6
CONTINUOUS
10
371.391
20
-85.8393
11
371.391
21
-87.9475
0
LINE
8
BLACK
6
CONTINUOUS
10
348.277
20
-83.2485
11
348.277
21
-80.4545
0
LINE
8
BLACK
6
CONTINUOUS
10
379.671
20
-80.4545
11
380.535
21
-80.4545
0
LINE
8
BLACK
6
CONTINUOUS
10
373.016
20
-86.6521
11
373.016
21
-85.8393
0
LINE
8
BLACK
6
CONTINUOUS
10
357.421
20
-75.1459
11
357.421
21
-73.9775
0
LINE
8
BLACK
6
CONTINUOUS
10
354.754
20
-74.3585
11
355.795
21
-74.3585
0
LINE
8
BLACK
6
CONTINUOUS
10
380.535
20
-83.2485
11
379.671
21
-83.2485
0
LINE
8
BLACK
6
CONTINUOUS
10
355.795
20
-74.3585
11
355.795
21
-75.1459
0
LINE
8
BLACK
6
CONTINUOUS
10
349.14
20
-80.4545
11
349.14
21
-74.3585
0
LINE
8
BLACK
6
CONTINUOUS
10
349.14
20
-74.3585
11
350.182
21
-74.3585
0
LINE
8
BLACK
6
CONTINUOUS
10
355.795
20
-86.6521
11
349.14
21
-86.6521
0
LINE
8
BLACK
6
CONTINUOUS
10
355.795
20
-85.8393
11
355.795
21
-86.6521
0
LINE
8
BLACK
6
CONTINUOUS
10
357.421
20
-85.8393
11
355.795
21
-85.8393
0
LINE
8
BLACK
6
CONTINUOUS
10
379.671
20
-74.3585
11
379.671
21
-80.4545
0
LINE
8
BLACK
6
CONTINUOUS
10
354.754
20
-73.1901
11
354.754
21
-74.3585
0
LINE
8
BLACK
6
CONTINUOUS
10
357.421
20
-87.9475
11
357.421
21
-85.8393
0
LINE
8
BLACK
6
CONTINUOUS
10
374.058
20
-73.1901
11
378.63
21
-73.1901
0
LINE
8
BLACK
6
CONTINUOUS
10
373.016
20
-85.8393
11
371.391
21
-85.8393
0
LINE
8
BLACK
6
CONTINUOUS
10
348.277
20
-80.4545
11
349.14
21
-80.4545
0
LINE
8
BLACK
6
CONTINUOUS
10
374.058
20
-74.3585
11
374.058
21
-73.1901
0
LINE
8
BLACK
6
CONTINUOUS
10
373.016
20
-74.3585
11
374.058
21
-74.3585
0
LINE
8
BLACK
6
CONTINUOUS
10
249.898
20
-137.02
11
250.254
21
-137.999
0
LINE
8
BLACK
6
CONTINUOUS
10
250.254
20
-137.999
11
251.352
21
-137.599
0
LINE
8
BLACK
6
CONTINUOUS
10
235.708
20
-115.857
11
236.004
21
-116.669
0
LINE
8
BLACK
6
CONTINUOUS
10
239.11
20
-140.947
11
238.554
21
-139.419
0
LINE
8
BLACK
6
CONTINUOUS
10
251.352
20
-137.599
11
252.916
21
-141.895
0
LINE
8
BLACK
6
CONTINUOUS
10
231.795
20
-127.013
11
233.776
21
-126.292
0
LINE
8
BLACK
6
CONTINUOUS
10
244.75
20
-119.459
11
243.652
21
-119.859
0
LINE
8
BLACK
6
CONTINUOUS
10
252.174
20
-143.274
11
246.446
21
-145.359
0
LINE
8
BLACK
6
CONTINUOUS
10
233.776
20
-126.292
11
233.22
21
-124.764
0
LINE
8
BLACK
6
CONTINUOUS
10
233.22
20
-124.764
11
232.456
21
-125.042
0
LINE
8
BLACK
6
CONTINUOUS
10
232.456
20
-125.042
11
230.18
21
-118.789
0
LINE
8
BLACK
6
CONTINUOUS
10
241.732
20
-114.584
11
242.088
21
-115.563
0
LINE
8
BLACK
6
CONTINUOUS
10
236.004
20
-116.669
11
241.732
21
-114.584
0
LINE
8
BLACK
6
CONTINUOUS
10
244.008
20
-120.837
11
243.268
21
-121.107
0
LINE
8
BLACK
6
CONTINUOUS
10
244.116
20
-147.126
11
243.82
21
-146.314
0
LINE
8
BLACK
6
CONTINUOUS
10
243.652
20
-119.859
11
244.008
21
-120.837
0
LINE
8
BLACK
6
CONTINUOUS
10
243.824
20
-122.634
11
244.922
21
-122.235
0
LINE
8
BLACK
6
CONTINUOUS
10
238.346
20
-141.225
11
239.11
21
-140.947
0
LINE
8
BLACK
6
CONTINUOUS
10
246.446
20
-145.359
11
246.741
21
-146.17
0
LINE
8
BLACK
6
CONTINUOUS
10
233.083
20
-116.813
11
235.708
21
-115.857
0
LINE
8
BLACK
6
CONTINUOUS
10
238.554
20
-139.419
11
236.573
21
-140.14
0
LINE
8
BLACK
6
CONTINUOUS
10
243.82
20
-146.314
11
240.622
21
-147.478
0
LINE
8
BLACK
6
CONTINUOUS
10
236.573
20
-140.14
11
231.795
21
-127.013
0
LINE
8
BLACK
6
CONTINUOUS
10
249.158
20
-137.289
11
249.898
21
-137.02
0
LINE
8
BLACK
6
CONTINUOUS
10
244.922
20
-122.235
11
249.7
21
-135.362
0
LINE
8
BLACK
6
CONTINUOUS
10
251.818
20
-142.295
11
252.174
21
-143.274
0
LINE
8
BLACK
6
CONTINUOUS
10
248.602
20
-135.762
11
249.158
21
-137.289
0
LINE
8
BLACK
6
CONTINUOUS
10
240.622
20
-147.478
11
238.346
21
-141.225
0
LINE
8
BLACK
6
CONTINUOUS
10
249.7
20
-135.362
11
248.602
21
-135.762
0
LINE
8
BLACK
6
CONTINUOUS
10
252.916
20
-141.895
11
251.818
21
-142.295
0
LINE
8
BLACK
6
CONTINUOUS
10
242.088
20
-115.563
11
243.186
21
-115.163
0
LINE
8
BLACK
6
CONTINUOUS
10
246.741
20
-146.17
11
244.116
21
-147.126
0
LINE
8
BLACK
6
CONTINUOUS
10
230.18
20
-118.789
11
233.378
21
-117.625
0
LINE
8
BLACK
6
CONTINUOUS
10
233.378
20
-117.625
11
233.083
21
-116.813
0
LINE
8
BLACK
6
CONTINUOUS
10
243.186
20
-115.163
11
244.75
21
-119.459
0
LINE
8
BLACK
6
CONTINUOUS
10
243.268
20
-121.107
11
243.824
21
-122.634
0
LINE
8
BLACK
6
CONTINUOUS
10
213.696
20
-131.87
11
213.339
21
-130.892
0
LINE
8
BLACK
6
CONTINUOUS
10
213.339
20
-130.892
11
212.242
21
-131.291
0
LINE
8
BLACK
6
CONTINUOUS
10
227.885
20
-153.033
11
227.59
21
-152.221
0
LINE
8
BLACK
6
CONTINUOUS
10
224.484
20
-127.944
11
225.04
21
-129.471
0
LINE
8
BLACK
6
CONTINUOUS
10
212.242
20
-131.291
11
210.678
21
-126.995
0
LINE
8
BLACK
6
CONTINUOUS
10
231.799
20
-141.878
11
229.818
21
-142.599
0
LINE
8
BLACK
6
CONTINUOUS
10
218.844
20
-149.431
11
219.942
21
-149.032
0
LINE
8
BLACK
6
CONTINUOUS
10
211.42
20
-125.617
11
217.148
21
-123.532
0
LINE
8
BLACK
6
CONTINUOUS
10
229.818
20
-142.599
11
230.374
21
-144.126
0
LINE
8
BLACK
6
CONTINUOUS
10
230.374
20
-144.126
11
231.138
21
-143.848
0
LINE
8
BLACK
6
CONTINUOUS
10
231.138
20
-143.848
11
233.414
21
-150.102
0
LINE
8
BLACK
6
CONTINUOUS
10
221.862
20
-154.306
11
221.506
21
-153.328
0
LINE
8
BLACK
6
CONTINUOUS
10
227.59
20
-152.221
11
221.862
21
-154.306
0
LINE
8
BLACK
6
CONTINUOUS
10
219.586
20
-148.053
11
220.326
21
-147.784
0
LINE
8
BLACK
6
CONTINUOUS
10
219.478
20
-121.765
11
219.773
21
-122.576
0
LINE
8
BLACK
6
CONTINUOUS
10
219.942
20
-149.032
11
219.586
21
-148.053
0
LINE
8
BLACK
6
CONTINUOUS
10
219.77
20
-146.256
11
218.672
21
-146.656
0
LINE
8
BLACK
6
CONTINUOUS
10
225.248
20
-127.666
11
224.484
21
-127.944
0
LINE
8
BLACK
6
CONTINUOUS
10
217.148
20
-123.532
11
216.853
21
-122.72
0
LINE
8
BLACK
6
CONTINUOUS
10
230.511
20
-152.077
11
227.885
21
-153.033
0
LINE
8
BLACK
6
CONTINUOUS
10
225.04
20
-129.471
11
227.021
21
-128.75
0
LINE
8
BLACK
6
CONTINUOUS
10
219.773
20
-122.576
11
222.972
21
-121.412
0
LINE
8
BLACK
6
CONTINUOUS
10
227.021
20
-128.75
11
231.799
21
-141.878
0
LINE
8
BLACK
6
CONTINUOUS
10
214.436
20
-131.601
11
213.696
21
-131.87
0
LINE
8
BLACK
6
CONTINUOUS
10
218.672
20
-146.656
11
213.894
21
-133.528
0
LINE
8
BLACK
6
CONTINUOUS
10
211.776
20
-126.595
11
211.42
21
-125.617
0
LINE
8
BLACK
6
CONTINUOUS
10
214.992
20
-133.129
11
214.436
21
-131.601
0
LINE
8
BLACK
6
CONTINUOUS
10
222.972
20
-121.412
11
225.248
21
-127.666
0
LINE
8
BLACK
6
CONTINUOUS
10
213.894
20
-133.528
11
214.992
21
-133.129
0
LINE
8
BLACK
6
CONTINUOUS
10
210.678
20
-126.995
11
211.776
21
-126.595
0
LINE
8
BLACK
6
CONTINUOUS
10
221.506
20
-153.328
11
220.408
21
-153.727
0
LINE
8
BLACK
6
CONTINUOUS
10
216.853
20
-122.72
11
219.478
21
-121.765
0
LINE
8
BLACK
6
CONTINUOUS
10
233.414
20
-150.102
11
230.216
21
-151.266
0
LINE
8
BLACK
6
CONTINUOUS
10
230.216
20
-151.266
11
230.511
21
-152.077
0
LINE
8
BLACK
6
CONTINUOUS
10
220.408
20
-153.727
11
218.844
21
-149.431
0
LINE
8
BLACK
6
CONTINUOUS
10
220.326
20
-147.784
11
219.77
21
-146.256
0
CIRCLE
8
BLACK
10
204.822
20
-64.1
40
1.35
0
CIRCLE
8
BLACK
10
225.213
20
-64.1
40
1.35
0
CIRCLE
8
BLACK
10
204.822
20
-116.434
40
1.35
0
CIRCLE
8
BLACK
10
365.989
20
-42.8244
40
1.35
0
CIRCLE
8
BLACK
10
309.575
20
-119.062
40
1.35
0
CIRCLE
8
BLACK
10
345.237
20
-80.9625
40
1.35
0
CIRCLE
8
BLACK
10
225.213
20
-109.012
40
1.35
0
CIRCLE
8
BLACK
10
233.337
20
-111.582
40
1.35
  0
ENDSEC
  0
EOF
