  0
SECTION
  2
HEADER
  9
$ACADVER
  1
AC1014
  9
$HANDSEED
  5
FFFF
  9
$MEASUREMENT
 70
     1
  0
ENDSEC
  0
SECTION
  2
TABLES
  0
TABLE
  2
VPORT
  5
8
330
0
100
AcDbSymbolTable
 70
     4
  0
VPORT
  5
2E
330
8
100
AcDbSymbolTableRecord
100
AcDbViewportTableRecord
  2
*ACTIVE
 70
     0
 10
0.0
 20
0.0
 11
1.0
 21
1.0
 12
210.0
 22
148.5
 13
0.0
 23
0.0
 14
10.0
 24
10.0
 15
10.0
 25
10.0
 16
0.0
 26
0.0
 36
1.0
 17
0.0
 27
0.0
 37
0.0
 40
341.0
 41
1.24
 42
50.0
 43
0.0
 44
0.0
 50
0.0
 51
0.0
 71
     0
 72
   100
 73
     1
 74
     3
 75
     0
 76
     0
 77
     0
 78
     0
  0
ENDTAB
  0
TABLE
  2
LTYPE
  5
5
330
0
100
AcDbSymbolTable
 70
     1
  0
LTYPE
  5
14
330
5
100
AcDbSymbolTableRecord
100
AcDbLinetypeTableRecord
  2
BYBLOCK
 70
     0
  3

 72
    65
 73
     0
 40
0.0
  0
LTYPE
  5
15
330
5
100
AcDbSymbolTableRecord
100
AcDbLinetypeTableRecord
  2
BYLAYER
 70
     0
  3

 72
    65
 73
     0
 40
0.0
  0
LTYPE
  5
16
330
5
100
AcDbSymbolTableRecord
100
AcDbLinetypeTableRecord
  2
CONTINUOUS
 70
     0
  3
Solid line
 72
    65
 73
     0
 40
0.0
  0
ENDTAB
  0
TABLE
  2
LAYER
  5
2
100
AcDbSymbolTable
 70
1
  0
LAYER
  5
50
100
AcDbSymbolTableRecord
100
AcDbLayerTableRecord
  2
0
 70
0
  6
CONTINUOUS
  0
ENDTAB
  0
TABLE
  2
STYLE
  5
3
330
0
100
AcDbSymbolTable
 70
     1
  0
STYLE
  5
11
330
3
100
AcDbSymbolTableRecord
100
AcDbTextStyleTableRecord
  2
STANDARD
 70
     0
 40
0.0
 41
1.0
 50
0.0
 71
     0
 42
2.5
  3
txt
  4

  0
ENDTAB
  0
TABLE
  2
VIEW
  5
6
330
0
100
AcDbSymbolTable
 70
     0
  0
ENDTAB
  0
TABLE
  2
UCS
  5
7
330
0
100
AcDbSymbolTable
 70
     0
  0
ENDTAB
  0
TABLE
  2
APPID
  5
9
330
0
100
AcDbSymbolTable
 70
     2
  0
APPID
  5
12
330
9
100
AcDbSymbolTableRecord
100
AcDbRegAppTableRecord
  2
ACAD
 70
     0
  0
ENDTAB
  0
TABLE
  2
DIMSTYLE
  5
A
330
0
100
AcDbSymbolTable
 70
     1
  0
DIMSTYLE
105
27
330
A
100
AcDbSymbolTableRecord
100
AcDbDimStyleTableRecord
  2
ISO-25
 70
     0
  3

  4

  5

  6

  7

 40
1.0
 41
2.5
 42
0.625
 43
3.75
 44
1.25
 45
0.0
 46
0.0
 47
0.0
 48
0.0
140
2.5
141
2.5
142
0.0
143
0.03937007874016
144
1.0
145
0.0
146
1.0
147
0.625
 71
     0
 72
     0
 73
     0
 74
     0
 75
     0
 76
     0
 77
     1
 78
     8
170
     0
171
     3
172
     1
173
     0
174
     0
175
     0
176
     0
177
     0
178
     0
270
     2
271
     2
272
     2
273
     2
274
     3
340
11
275
     0
280
     0
281
     0
282
     0
283
     0
284
     8
285
     0
286
     0
287
     3
288
     0
  0
ENDTAB
  0
TABLE
  2
BLOCK_RECORD
  5
1
330
0
100
AcDbSymbolTable
 70
     1
  0
BLOCK_RECORD
  5
1F
330
1
100
AcDbSymbolTableRecord
100
AcDbBlockTableRecord
  2
*MODEL_SPACE
  0
BLOCK_RECORD
  5
1B
330
1
100
AcDbSymbolTableRecord
100
AcDbBlockTableRecord
  2
*PAPER_SPACE
  0
ENDTAB
  0
ENDSEC
  0
SECTION
  2
BLOCKS
  0
BLOCK
  5
20
330
1F
100
AcDbEntity
  8
0
100
AcDbBlockBegin
  2
*MODEL_SPACE
 70
     0
 10
0.0
 20
0.0
 30
0.0
  3
*MODEL_SPACE
  1

  0
ENDBLK
  5
21
330
1F
100
AcDbEntity
  8
0
100
AcDbBlockEnd
  0
BLOCK
  5
1C
330
1B
100
AcDbEntity
 67
     1
  8
0
100
AcDbBlockBegin
  2
*PAPER_SPACE
  1

  0
ENDBLK
  5
1D
330
1B
100
AcDbEntity
 67
     1
  8
0
100
AcDbBlockEnd
  0
ENDSEC
  0
SECTION
  2
ENTITIES
  0
LWPOLYLINE
  5
100
100
AcDbEntity
  8
0
 62
7
100
AcDbPolyline
 90
2
 70
0
 10
259.542280
 20
-141.215466
 30
0.0
 10
253.479300
 20
-124.555606
 30
0.0
  0
LWPOLYLINE
  5
101
100
AcDbEntity
  8
0
 62
7
100
AcDbPolyline
 90
2
 70
0
 10
201.373740
 20
-10.367366
 30
0.0
 10
201.373740
 20
-113.006226
 30
0.0
  0
LWPOLYLINE
  5
102
100
AcDbEntity
  8
0
 62
7
100
AcDbPolyline
 90
2
 70
0
 10
253.479300
 20
-124.555606
 30
0.0
 10
390.550400
 20
-124.555606
 30
0.0
  0
LWPOLYLINE
  5
103
100
AcDbEntity
  8
0
 62
7
100
AcDbPolyline
 90
2
 70
0
 10
390.550400
 20
-10.367366
 30
0.0
 10
201.373740
 20
-10.367366
 30
0.0
  0
LWPOLYLINE
  5
104
100
AcDbEntity
  8
0
 62
7
100
AcDbPolyline
 90
2
 70
0
 10
390.550400
 20
-124.555606
 30
0.0
 10
390.550400
 20
-10.367366
 30
0.0
  0
LWPOLYLINE
  5
105
100
AcDbEntity
  8
0
 62
7
100
AcDbPolyline
 90
2
 70
0
 10
217.210640
 20
-156.511346
 30
0.0
 10
259.542280
 20
-141.215466
 30
0.0
  0
LWPOLYLINE
  5
106
100
AcDbEntity
  8
0
 62
7
100
AcDbPolyline
 90
2
 70
0
 10
201.373740
 20
-113.006226
 30
0.0
 10
217.210640
 20
-156.511346
 30
0.0
  0
LWPOLYLINE
  5
107
100
AcDbEntity
  8
0
 62
7
100
AcDbPolyline
 90
2
 70
0
 10
366.204500
 20
-73.529546
 30
0.0
 10
366.204500
 20
-70.730466
 30
0.0
  0
LWPOLYLINE
  5
108
100
AcDbEntity
  8
0
 62
7
100
AcDbPolyline
 90
2
 70
0
 10
366.003840
 20
-70.529806
 30
0.0
 10
362.803440
 20
-70.529806
 30
0.0
  0
LWPOLYLINE
  5
109
100
AcDbEntity
  8
0
 62
7
100
AcDbPolyline
 90
2
 70
0
 10
362.605320
 20
-73.529546
 30
0.0
 10
362.605320
 20
-70.730466
 30
0.0
  0
SPLINE
  5
10a
100
AcDbEntity
  8
0
 62
7
100
AcDbSpline
 70
8
 71
3
 72
8
 73
4
 74
0
 40
0
 40
0
 40
0
 40
0
 40
1
 40
1
 40
1
 40
1
 10
362.805980
 20
-70.530568
 30
0.0
 10
362.752796
 20
-70.530392
 30
0.0
 10
362.701733
 20
-70.551407
 30
0.0
 10
362.664078
 20
-70.588966
 30
0.0
  0
SPLINE
  5
10b
100
AcDbEntity
  8
0
 62
7
100
AcDbSpline
 70
8
 71
3
 72
8
 73
4
 74
0
 40
0
 40
0
 40
0
 40
0
 40
1
 40
1
 40
1
 40
1
 10
362.664078
 20
-70.588966
 30
0.0
 10
362.626423
 20
-70.626525
 30
0.0
 10
362.605279
 20
-70.677535
 30
0.0
 10
362.605320
 20
-70.730720
 30
0.0
  0
SPLINE
  5
10c
100
AcDbEntity
  8
0
 62
7
100
AcDbSpline
 70
8
 71
3
 72
8
 73
4
 74
0
 40
0
 40
0
 40
0
 40
0
 40
1
 40
1
 40
1
 40
1
 10
366.204500
 20
-70.730720
 30
0.0
 10
366.204588
 20
-70.620933
 30
0.0
 10
366.116161
 20
-70.531600
 30
0.0
 10
366.006380
 20
-70.530568
 30
0.0
  0
SPLINE
  5
10d
100
AcDbEntity
  8
0
 62
7
100
AcDbSpline
 70
8
 71
3
 72
8
 73
4
 74
0
 40
0
 40
0
 40
0
 40
0
 40
1
 40
1
 40
1
 40
1
 10
362.605320
 20
-73.530562
 30
0.0
 10
362.605279
 20
-73.583746
 30
0.0
 10
362.626423
 20
-73.634756
 30
0.0
 10
362.664078
 20
-73.672315
 30
0.0
  0
SPLINE
  5
10e
100
AcDbEntity
  8
0
 62
7
100
AcDbSpline
 70
8
 71
3
 72
8
 73
4
 74
0
 40
0
 40
0
 40
0
 40
0
 40
1
 40
1
 40
1
 40
1
 10
362.664078
 20
-73.672315
 30
0.0
 10
362.701733
 20
-73.709874
 30
0.0
 10
362.752796
 20
-73.730889
 30
0.0
 10
362.805980
 20
-73.730714
 30
0.0
  0
SPLINE
  5
10f
100
AcDbEntity
  8
0
 62
7
100
AcDbSpline
 70
8
 71
3
 72
8
 73
4
 74
0
 40
0
 40
0
 40
0
 40
0
 40
1
 40
1
 40
1
 40
1
 10
366.006380
 20
-73.730714
 30
0.0
 10
366.116161
 20
-73.729682
 30
0.0
 10
366.204588
 20
-73.640348
 30
0.0
 10
366.204500
 20
-73.530562
 30
0.0
  0
LWPOLYLINE
  5
110
100
AcDbEntity
  8
0
 62
7
100
AcDbPolyline
 90
2
 70
0
 10
366.003840
 20
-73.730206
 30
0.0
 10
362.803440
 20
-73.730206
 30
0.0
  0
LWPOLYLINE
  5
111
100
AcDbEntity
  8
0
 62
7
100
AcDbPolyline
 90
2
 70
0
 10
244.299740
 20
-127.562966
 30
0.0
 10
243.205000
 20
-124.555606
 30
0.0
  0
LWPOLYLINE
  5
112
100
AcDbEntity
  8
0
 62
7
100
AcDbPolyline
 90
2
 70
0
 10
243.324380
 20
-124.299066
 30
0.0
 10
245.955820
 20
-123.341486
 30
0.0
  0
LWPOLYLINE
  5
113
100
AcDbEntity
  8
0
 62
7
100
AcDbPolyline
 90
2
 70
0
 10
247.307100
 20
-126.468226
 30
0.0
 10
246.212360
 20
-123.460866
 30
0.0
  0
SPLINE
  5
114
100
AcDbEntity
  8
0
 62
7
100
AcDbSpline
 70
8
 71
3
 72
8
 73
4
 74
0
 40
0
 40
0
 40
0
 40
0
 40
1
 40
1
 40
1
 40
1
 10
244.301772
 20
-127.564744
 30
0.0
 10
244.339613
 20
-127.668448
 30
0.0
 10
244.454323
 20
-127.721881
 30
0.0
 10
244.558058
 20
-127.684124
 30
0.0
  0
SPLINE
  5
115
100
AcDbEntity
  8
0
 62
7
100
AcDbSpline
 70
8
 71
3
 72
8
 73
4
 74
0
 40
0
 40
0
 40
0
 40
0
 40
1
 40
1
 40
1
 40
1
 10
243.326920
 20
-124.301352
 30
0.0
 10
243.223115
 20
-124.339089
 30
0.0
 10
243.169554
 20
-124.453830
 30
0.0
 10
243.207286
 20
-124.557638
 30
0.0
  0
SPLINE
  5
116
100
AcDbEntity
  8
0
 62
7
100
AcDbSpline
 70
8
 71
3
 72
8
 73
4
 74
0
 40
0
 40
0
 40
0
 40
0
 40
1
 40
1
 40
1
 40
1
 10
247.189244
 20
-126.726544
 30
0.0
 10
247.293048
 20
-126.688805
 30
0.0
 10
247.346609
 20
-126.574065
 30
0.0
 10
247.308878
 20
-126.470258
 30
0.0
  0
SPLINE
  5
117
100
AcDbEntity
  8
0
 62
7
100
AcDbSpline
 70
8
 71
3
 72
8
 73
4
 74
0
 40
0
 40
0
 40
0
 40
0
 40
1
 40
1
 40
1
 40
1
 10
246.214392
 20
-123.463152
 30
0.0
 10
246.176654
 20
-123.359347
 30
0.0
 10
246.061913
 20
-123.305786
 30
0.0
 10
245.958106
 20
-123.343518
 30
0.0
  0
LWPOLYLINE
  5
118
100
AcDbEntity
  8
0
 62
7
100
AcDbPolyline
 90
2
 70
0
 10
244.556280
 20
-127.682346
 30
0.0
 10
247.187720
 20
-126.724766
 30
0.0
  0
LWPOLYLINE
  5
119
100
AcDbEntity
  8
0
 62
7
100
AcDbPolyline
 90
2
 70
0
 10
219.290900
 20
-133.260186
 30
0.0
 10
220.385640
 20
-136.267546
 30
0.0
  0
LWPOLYLINE
  5
11a
100
AcDbEntity
  8
0
 62
7
100
AcDbPolyline
 90
2
 70
0
 10
220.266260
 20
-136.524086
 30
0.0
 10
217.634820
 20
-137.481666
 30
0.0
  0
LWPOLYLINE
  5
11b
100
AcDbEntity
  8
0
 62
7
100
AcDbPolyline
 90
2
 70
0
 10
216.283540
 20
-134.354926
 30
0.0
 10
217.378280
 20
-137.362286
 30
0.0
  0
SPLINE
  5
11c
100
AcDbEntity
  8
0
 62
7
100
AcDbSpline
 70
8
 71
3
 72
8
 73
4
 74
0
 40
0
 40
0
 40
0
 40
0
 40
1
 40
1
 40
1
 40
1
 10
219.292170
 20
-133.261964
 30
0.0
 10
219.254329
 20
-133.158259
 30
0.0
 10
219.139619
 20
-133.104827
 30
0.0
 10
219.035884
 20
-133.142584
 30
0.0
  0
SPLINE
  5
11d
100
AcDbEntity
  8
0
 62
7
100
AcDbSpline
 70
8
 71
3
 72
8
 73
4
 74
0
 40
0
 40
0
 40
0
 40
0
 40
1
 40
1
 40
1
 40
1
 10
220.267022
 20
-136.525356
 30
0.0
 10
220.370827
 20
-136.487618
 30
0.0
 10
220.424388
 20
-136.372877
 30
0.0
 10
220.386656
 20
-136.269070
 30
0.0
  0
SPLINE
  5
11e
100
AcDbEntity
  8
0
 62
7
100
AcDbSpline
 70
8
 71
3
 72
8
 73
4
 74
0
 40
0
 40
0
 40
0
 40
0
 40
1
 40
1
 40
1
 40
1
 10
216.404698
 20
-134.100164
 30
0.0
 10
216.300894
 20
-134.137902
 30
0.0
 10
216.247333
 20
-134.252642
 30
0.0
 10
216.285064
 20
-134.356450
 30
0.0
  0
SPLINE
  5
11f
100
AcDbEntity
  8
0
 62
7
100
AcDbSpline
 70
8
 71
3
 72
8
 73
4
 74
0
 40
0
 40
0
 40
0
 40
0
 40
1
 40
1
 40
1
 40
1
 10
217.379550
 20
-137.363556
 30
0.0
 10
217.417392
 20
-137.467260
 30
0.0
 10
217.532101
 20
-137.520692
 30
0.0
 10
217.635836
 20
-137.482936
 30
0.0
  0
LWPOLYLINE
  5
120
100
AcDbEntity
  8
0
 62
7
100
AcDbPolyline
 90
2
 70
0
 10
219.034360
 20
-133.140806
 30
0.0
 10
216.402920
 20
-134.098386
 30
0.0
  0
LWPOLYLINE
  5
121
100
AcDbEntity
  8
0
 62
7
100
AcDbPolyline
 90
2
 70
0
 10
382.597660
 20
-92.780206
 30
0.0
 10
379.399800
 20
-92.780206
 30
0.0
  0
LWPOLYLINE
  5
122
100
AcDbEntity
  8
0
 62
7
100
AcDbPolyline
 90
2
 70
0
 10
379.199140
 20
-92.579546
 30
0.0
 10
379.199140
 20
-89.780466
 30
0.0
  0
LWPOLYLINE
  5
123
100
AcDbEntity
  8
0
 62
7
100
AcDbPolyline
 90
2
 70
0
 10
382.597660
 20
-89.579806
 30
0.0
 10
379.399800
 20
-89.579806
 30
0.0
  0
SPLINE
  5
124
100
AcDbEntity
  8
0
 62
7
100
AcDbSpline
 70
8
 71
3
 72
8
 73
4
 74
0
 40
0
 40
0
 40
0
 40
0
 40
1
 40
1
 40
1
 40
1
 10
379.399800
 20
-89.580568
 30
0.0
 10
379.346616
 20
-89.580392
 30
0.0
 10
379.295553
 20
-89.601407
 30
0.0
 10
379.257898
 20
-89.638966
 30
0.0
  0
SPLINE
  5
125
100
AcDbEntity
  8
0
 62
7
100
AcDbSpline
 70
8
 71
3
 72
8
 73
4
 74
0
 40
0
 40
0
 40
0
 40
0
 40
1
 40
1
 40
1
 40
1
 10
379.257898
 20
-89.638966
 30
0.0
 10
379.220243
 20
-89.676525
 30
0.0
 10
379.199099
 20
-89.727535
 30
0.0
 10
379.199140
 20
-89.780720
 30
0.0
  0
SPLINE
  5
126
100
AcDbEntity
  8
0
 62
7
100
AcDbSpline
 70
8
 71
3
 72
8
 73
4
 74
0
 40
0
 40
0
 40
0
 40
0
 40
1
 40
1
 40
1
 40
1
 10
382.800860
 20
-89.780720
 30
0.0
 10
382.800901
 20
-89.727535
 30
0.0
 10
382.779757
 20
-89.676525
 30
0.0
 10
382.742102
 20
-89.638966
 30
0.0
  0
SPLINE
  5
127
100
AcDbEntity
  8
0
 62
7
100
AcDbSpline
 70
8
 71
3
 72
8
 73
4
 74
0
 40
0
 40
0
 40
0
 40
0
 40
1
 40
1
 40
1
 40
1
 10
382.742102
 20
-89.638966
 30
0.0
 10
382.704448
 20
-89.601407
 30
0.0
 10
382.653384
 20
-89.580392
 30
0.0
 10
382.600200
 20
-89.580568
 30
0.0
  0
SPLINE
  5
128
100
AcDbEntity
  8
0
 62
7
100
AcDbSpline
 70
8
 71
3
 72
8
 73
4
 74
0
 40
0
 40
0
 40
0
 40
0
 40
1
 40
1
 40
1
 40
1
 10
379.199140
 20
-92.580562
 30
0.0
 10
379.199099
 20
-92.633746
 30
0.0
 10
379.220243
 20
-92.684756
 30
0.0
 10
379.257898
 20
-92.722315
 30
0.0
  0
SPLINE
  5
129
100
AcDbEntity
  8
0
 62
7
100
AcDbSpline
 70
8
 71
3
 72
8
 73
4
 74
0
 40
0
 40
0
 40
0
 40
0
 40
1
 40
1
 40
1
 40
1
 10
379.257898
 20
-92.722315
 30
0.0
 10
379.295553
 20
-92.759874
 30
0.0
 10
379.346616
 20
-92.780889
 30
0.0
 10
379.399800
 20
-92.780714
 30
0.0
  0
SPLINE
  5
12a
100
AcDbEntity
  8
0
 62
7
100
AcDbSpline
 70
8
 71
3
 72
8
 73
4
 74
0
 40
0
 40
0
 40
0
 40
0
 40
1
 40
1
 40
1
 40
1
 10
382.600200
 20
-92.780714
 30
0.0
 10
382.653384
 20
-92.780889
 30
0.0
 10
382.704448
 20
-92.759874
 30
0.0
 10
382.742102
 20
-92.722315
 30
0.0
  0
SPLINE
  5
12b
100
AcDbEntity
  8
0
 62
7
100
AcDbSpline
 70
8
 71
3
 72
8
 73
4
 74
0
 40
0
 40
0
 40
0
 40
0
 40
1
 40
1
 40
1
 40
1
 10
382.742102
 20
-92.722315
 30
0.0
 10
382.779757
 20
-92.684756
 30
0.0
 10
382.800901
 20
-92.633746
 30
0.0
 10
382.800860
 20
-92.580562
 30
0.0
  0
LWPOLYLINE
  5
12c
100
AcDbEntity
  8
0
 62
7
100
AcDbPolyline
 90
2
 70
0
 10
382.798320
 20
-92.579546
 30
0.0
 10
382.798320
 20
-89.780466
 30
0.0
  0
LWPOLYLINE
  5
12d
100
AcDbEntity
  8
0
 62
7
100
AcDbPolyline
 90
2
 70
0
 10
363.547660
 20
-92.780206
 30
0.0
 10
360.349800
 20
-92.780206
 30
0.0
  0
LWPOLYLINE
  5
12e
100
AcDbEntity
  8
0
 62
7
100
AcDbPolyline
 90
2
 70
0
 10
360.149140
 20
-92.579546
 30
0.0
 10
360.149140
 20
-89.780466
 30
0.0
  0
LWPOLYLINE
  5
12f
100
AcDbEntity
  8
0
 62
7
100
AcDbPolyline
 90
2
 70
0
 10
363.547660
 20
-89.579806
 30
0.0
 10
360.349800
 20
-89.579806
 30
0.0
  0
SPLINE
  5
130
100
AcDbEntity
  8
0
 62
7
100
AcDbSpline
 70
8
 71
3
 72
8
 73
4
 74
0
 40
0
 40
0
 40
0
 40
0
 40
1
 40
1
 40
1
 40
1
 10
360.349800
 20
-89.580568
 30
0.0
 10
360.296616
 20
-89.580392
 30
0.0
 10
360.245553
 20
-89.601407
 30
0.0
 10
360.207898
 20
-89.638966
 30
0.0
  0
SPLINE
  5
131
100
AcDbEntity
  8
0
 62
7
100
AcDbSpline
 70
8
 71
3
 72
8
 73
4
 74
0
 40
0
 40
0
 40
0
 40
0
 40
1
 40
1
 40
1
 40
1
 10
360.207898
 20
-89.638966
 30
0.0
 10
360.170243
 20
-89.676525
 30
0.0
 10
360.149099
 20
-89.727535
 30
0.0
 10
360.149140
 20
-89.780720
 30
0.0
  0
SPLINE
  5
132
100
AcDbEntity
  8
0
 62
7
100
AcDbSpline
 70
8
 71
3
 72
8
 73
4
 74
0
 40
0
 40
0
 40
0
 40
0
 40
1
 40
1
 40
1
 40
1
 10
363.750860
 20
-89.780720
 30
0.0
 10
363.750901
 20
-89.727535
 30
0.0
 10
363.729757
 20
-89.676525
 30
0.0
 10
363.692102
 20
-89.638966
 30
0.0
  0
SPLINE
  5
133
100
AcDbEntity
  8
0
 62
7
100
AcDbSpline
 70
8
 71
3
 72
8
 73
4
 74
0
 40
0
 40
0
 40
0
 40
0
 40
1
 40
1
 40
1
 40
1
 10
363.692102
 20
-89.638966
 30
0.0
 10
363.654448
 20
-89.601407
 30
0.0
 10
363.603384
 20
-89.580392
 30
0.0
 10
363.550200
 20
-89.580568
 30
0.0
  0
SPLINE
  5
134
100
AcDbEntity
  8
0
 62
7
100
AcDbSpline
 70
8
 71
3
 72
8
 73
4
 74
0
 40
0
 40
0
 40
0
 40
0
 40
1
 40
1
 40
1
 40
1
 10
360.149140
 20
-92.580562
 30
0.0
 10
360.149099
 20
-92.633746
 30
0.0
 10
360.170243
 20
-92.684756
 30
0.0
 10
360.207898
 20
-92.722315
 30
0.0
  0
SPLINE
  5
135
100
AcDbEntity
  8
0
 62
7
100
AcDbSpline
 70
8
 71
3
 72
8
 73
4
 74
0
 40
0
 40
0
 40
0
 40
0
 40
1
 40
1
 40
1
 40
1
 10
360.207898
 20
-92.722315
 30
0.0
 10
360.245553
 20
-92.759874
 30
0.0
 10
360.296616
 20
-92.780889
 30
0.0
 10
360.349800
 20
-92.780714
 30
0.0
  0
SPLINE
  5
136
100
AcDbEntity
  8
0
 62
7
100
AcDbSpline
 70
8
 71
3
 72
8
 73
4
 74
0
 40
0
 40
0
 40
0
 40
0
 40
1
 40
1
 40
1
 40
1
 10
363.550200
 20
-92.780714
 30
0.0
 10
363.603384
 20
-92.780889
 30
0.0
 10
363.654448
 20
-92.759874
 30
0.0
 10
363.692102
 20
-92.722315
 30
0.0
  0
SPLINE
  5
137
100
AcDbEntity
  8
0
 62
7
100
AcDbSpline
 70
8
 71
3
 72
8
 73
4
 74
0
 40
0
 40
0
 40
0
 40
0
 40
1
 40
1
 40
1
 40
1
 10
363.692102
 20
-92.722315
 30
0.0
 10
363.729757
 20
-92.684756
 30
0.0
 10
363.750901
 20
-92.633746
 30
0.0
 10
363.750860
 20
-92.580562
 30
0.0
  0
LWPOLYLINE
  5
138
100
AcDbEntity
  8
0
 62
7
100
AcDbPolyline
 90
2
 70
0
 10
363.748320
 20
-92.579546
 30
0.0
 10
363.748320
 20
-89.780466
 30
0.0
  0
LWPOLYLINE
  5
139
100
AcDbEntity
  8
0
 62
7
100
AcDbPolyline
 90
2
 70
0
 10
339.737700
 20
-92.780206
 30
0.0
 10
336.537300
 20
-92.780206
 30
0.0
  0
LWPOLYLINE
  5
13a
100
AcDbEntity
  8
0
 62
7
100
AcDbPolyline
 90
2
 70
0
 10
336.336640
 20
-92.579546
 30
0.0
 10
336.336640
 20
-89.780466
 30
0.0
  0
LWPOLYLINE
  5
13b
100
AcDbEntity
  8
0
 62
7
100
AcDbPolyline
 90
2
 70
0
 10
339.737700
 20
-89.579806
 30
0.0
 10
336.537300
 20
-89.579806
 30
0.0
  0
SPLINE
  5
13c
100
AcDbEntity
  8
0
 62
7
100
AcDbSpline
 70
8
 71
3
 72
8
 73
4
 74
0
 40
0
 40
0
 40
0
 40
0
 40
1
 40
1
 40
1
 40
1
 10
339.737700
 20
-92.780714
 30
0.0
 10
339.790884
 20
-92.780889
 30
0.0
 10
339.841947
 20
-92.759874
 30
0.0
 10
339.879602
 20
-92.722315
 30
0.0
  0
SPLINE
  5
13d
100
AcDbEntity
  8
0
 62
7
100
AcDbSpline
 70
8
 71
3
 72
8
 73
4
 74
0
 40
0
 40
0
 40
0
 40
0
 40
1
 40
1
 40
1
 40
1
 10
339.879602
 20
-92.722315
 30
0.0
 10
339.917257
 20
-92.684756
 30
0.0
 10
339.938401
 20
-92.633746
 30
0.0
 10
339.938360
 20
-92.580562
 30
0.0
  0
SPLINE
  5
13e
100
AcDbEntity
  8
0
 62
7
100
AcDbSpline
 70
8
 71
3
 72
8
 73
4
 74
0
 40
0
 40
0
 40
0
 40
0
 40
1
 40
1
 40
1
 40
1
 10
336.339180
 20
-92.580562
 30
0.0
 10
336.339092
 20
-92.690348
 30
0.0
 10
336.427519
 20
-92.779682
 30
0.0
 10
336.537300
 20
-92.780714
 30
0.0
  0
SPLINE
  5
13f
100
AcDbEntity
  8
0
 62
7
100
AcDbSpline
 70
8
 71
3
 72
8
 73
4
 74
0
 40
0
 40
0
 40
0
 40
0
 40
1
 40
1
 40
1
 40
1
 10
339.938360
 20
-89.780720
 30
0.0
 10
339.938401
 20
-89.727535
 30
0.0
 10
339.917257
 20
-89.676525
 30
0.0
 10
339.879602
 20
-89.638966
 30
0.0
  0
SPLINE
  5
140
100
AcDbEntity
  8
0
 62
7
100
AcDbSpline
 70
8
 71
3
 72
8
 73
4
 74
0
 40
0
 40
0
 40
0
 40
0
 40
1
 40
1
 40
1
 40
1
 10
339.879602
 20
-89.638966
 30
0.0
 10
339.841947
 20
-89.601407
 30
0.0
 10
339.790884
 20
-89.580392
 30
0.0
 10
339.737700
 20
-89.580568
 30
0.0
  0
SPLINE
  5
141
100
AcDbEntity
  8
0
 62
7
100
AcDbSpline
 70
8
 71
3
 72
8
 73
4
 74
0
 40
0
 40
0
 40
0
 40
0
 40
1
 40
1
 40
1
 40
1
 10
336.537300
 20
-89.580568
 30
0.0
 10
336.427519
 20
-89.581600
 30
0.0
 10
336.339092
 20
-89.670933
 30
0.0
 10
336.339180
 20
-89.780720
 30
0.0
  0
LWPOLYLINE
  5
142
100
AcDbEntity
  8
0
 62
7
100
AcDbPolyline
 90
2
 70
0
 10
339.935820
 20
-92.579546
 30
0.0
 10
339.935820
 20
-89.780466
 30
0.0
  0
LWPOLYLINE
  5
143
100
AcDbEntity
  8
0
 62
7
100
AcDbPolyline
 90
2
 70
0
 10
354.022660
 20
-16.580206
 30
0.0
 10
350.824800
 20
-16.580206
 30
0.0
  0
LWPOLYLINE
  5
144
100
AcDbEntity
  8
0
 62
7
100
AcDbPolyline
 90
2
 70
0
 10
350.624140
 20
-16.379546
 30
0.0
 10
350.624140
 20
-13.580466
 30
0.0
  0
LWPOLYLINE
  5
145
100
AcDbEntity
  8
0
 62
7
100
AcDbPolyline
 90
2
 70
0
 10
354.022660
 20
-13.379806
 30
0.0
 10
350.824800
 20
-13.379806
 30
0.0
  0
SPLINE
  5
146
100
AcDbEntity
  8
0
 62
7
100
AcDbSpline
 70
8
 71
3
 72
8
 73
4
 74
0
 40
0
 40
0
 40
0
 40
0
 40
1
 40
1
 40
1
 40
1
 10
350.824800
 20
-13.380593
 30
0.0
 10
350.771638
 20
-13.380418
 30
0.0
 10
350.720594
 20
-13.401415
 30
0.0
 10
350.682943
 20
-13.438947
 30
0.0
  0
SPLINE
  5
147
100
AcDbEntity
  8
0
 62
7
100
AcDbSpline
 70
8
 71
3
 72
8
 73
4
 74
0
 40
0
 40
0
 40
0
 40
0
 40
1
 40
1
 40
1
 40
1
 10
350.682943
 20
-13.438947
 30
0.0
 10
350.645292
 20
-13.476478
 30
0.0
 10
350.624133
 20
-13.527456
 30
0.0
 10
350.624140
 20
-13.580618
 30
0.0
  0
SPLINE
  5
148
100
AcDbEntity
  8
0
 62
7
100
AcDbSpline
 70
8
 71
3
 72
8
 73
4
 74
0
 40
0
 40
0
 40
0
 40
0
 40
1
 40
1
 40
1
 40
1
 10
354.225860
 20
-13.580618
 30
0.0
 10
354.225867
 20
-13.527456
 30
0.0
 10
354.204708
 20
-13.476478
 30
0.0
 10
354.167057
 20
-13.438947
 30
0.0
  0
SPLINE
  5
149
100
AcDbEntity
  8
0
 62
7
100
AcDbSpline
 70
8
 71
3
 72
8
 73
4
 74
0
 40
0
 40
0
 40
0
 40
0
 40
1
 40
1
 40
1
 40
1
 10
354.167057
 20
-13.438947
 30
0.0
 10
354.129406
 20
-13.401415
 30
0.0
 10
354.078362
 20
-13.380418
 30
0.0
 10
354.025200
 20
-13.380593
 30
0.0
  0
SPLINE
  5
14a
100
AcDbEntity
  8
0
 62
7
100
AcDbSpline
 70
8
 71
3
 72
8
 73
4
 74
0
 40
0
 40
0
 40
0
 40
0
 40
1
 40
1
 40
1
 40
1
 10
350.624140
 20
-16.380612
 30
0.0
 10
350.624140
 20
-16.433770
 30
0.0
 10
350.645302
 20
-16.484741
 30
0.0
 10
350.682952
 20
-16.522267
 30
0.0
  0
SPLINE
  5
14b
100
AcDbEntity
  8
0
 62
7
100
AcDbSpline
 70
8
 71
3
 72
8
 73
4
 74
0
 40
0
 40
0
 40
0
 40
0
 40
1
 40
1
 40
1
 40
1
 10
350.682952
 20
-16.522267
 30
0.0
 10
350.720602
 20
-16.559794
 30
0.0
 10
350.771643
 20
-16.580787
 30
0.0
 10
350.824800
 20
-16.580612
 30
0.0
  0
SPLINE
  5
14c
100
AcDbEntity
  8
0
 62
7
100
AcDbSpline
 70
8
 71
3
 72
8
 73
4
 74
0
 40
0
 40
0
 40
0
 40
0
 40
1
 40
1
 40
1
 40
1
 10
354.025200
 20
-16.580612
 30
0.0
 10
354.078357
 20
-16.580787
 30
0.0
 10
354.129398
 20
-16.559794
 30
0.0
 10
354.167048
 20
-16.522267
 30
0.0
  0
SPLINE
  5
14d
100
AcDbEntity
  8
0
 62
7
100
AcDbSpline
 70
8
 71
3
 72
8
 73
4
 74
0
 40
0
 40
0
 40
0
 40
0
 40
1
 40
1
 40
1
 40
1
 10
354.167048
 20
-16.522267
 30
0.0
 10
354.204698
 20
-16.484741
 30
0.0
 10
354.225860
 20
-16.433770
 30
0.0
 10
354.225860
 20
-16.380612
 30
0.0
  0
LWPOLYLINE
  5
14e
100
AcDbEntity
  8
0
 62
7
100
AcDbPolyline
 90
2
 70
0
 10
354.223320
 20
-16.379546
 30
0.0
 10
354.223320
 20
-13.580466
 30
0.0
  0
LWPOLYLINE
  5
14f
100
AcDbEntity
  8
0
 62
7
100
AcDbPolyline
 90
2
 70
0
 10
382.597660
 20
-111.830206
 30
0.0
 10
379.399800
 20
-111.830206
 30
0.0
  0
LWPOLYLINE
  5
150
100
AcDbEntity
  8
0
 62
7
100
AcDbPolyline
 90
2
 70
0
 10
379.199140
 20
-111.629546
 30
0.0
 10
379.199140
 20
-108.830466
 30
0.0
  0
LWPOLYLINE
  5
151
100
AcDbEntity
  8
0
 62
7
100
AcDbPolyline
 90
2
 70
0
 10
382.597660
 20
-108.629806
 30
0.0
 10
379.399800
 20
-108.629806
 30
0.0
  0
SPLINE
  5
152
100
AcDbEntity
  8
0
 62
7
100
AcDbSpline
 70
8
 71
3
 72
8
 73
4
 74
0
 40
0
 40
0
 40
0
 40
0
 40
1
 40
1
 40
1
 40
1
 10
379.399800
 20
-108.630568
 30
0.0
 10
379.346616
 20
-108.630392
 30
0.0
 10
379.295553
 20
-108.651407
 30
0.0
 10
379.257898
 20
-108.688966
 30
0.0
  0
SPLINE
  5
153
100
AcDbEntity
  8
0
 62
7
100
AcDbSpline
 70
8
 71
3
 72
8
 73
4
 74
0
 40
0
 40
0
 40
0
 40
0
 40
1
 40
1
 40
1
 40
1
 10
379.257898
 20
-108.688966
 30
0.0
 10
379.220243
 20
-108.726525
 30
0.0
 10
379.199099
 20
-108.777535
 30
0.0
 10
379.199140
 20
-108.830720
 30
0.0
  0
SPLINE
  5
154
100
AcDbEntity
  8
0
 62
7
100
AcDbSpline
 70
8
 71
3
 72
8
 73
4
 74
0
 40
0
 40
0
 40
0
 40
0
 40
1
 40
1
 40
1
 40
1
 10
382.800860
 20
-108.830720
 30
0.0
 10
382.800901
 20
-108.777535
 30
0.0
 10
382.779757
 20
-108.726525
 30
0.0
 10
382.742102
 20
-108.688966
 30
0.0
  0
SPLINE
  5
155
100
AcDbEntity
  8
0
 62
7
100
AcDbSpline
 70
8
 71
3
 72
8
 73
4
 74
0
 40
0
 40
0
 40
0
 40
0
 40
1
 40
1
 40
1
 40
1
 10
382.742102
 20
-108.688966
 30
0.0
 10
382.704448
 20
-108.651407
 30
0.0
 10
382.653384
 20
-108.630392
 30
0.0
 10
382.600200
 20
-108.630568
 30
0.0
  0
SPLINE
  5
156
100
AcDbEntity
  8
0
 62
7
100
AcDbSpline
 70
8
 71
3
 72
8
 73
4
 74
0
 40
0
 40
0
 40
0
 40
0
 40
1
 40
1
 40
1
 40
1
 10
379.199140
 20
-111.630562
 30
0.0
 10
379.199099
 20
-111.683746
 30
0.0
 10
379.220243
 20
-111.734756
 30
0.0
 10
379.257898
 20
-111.772315
 30
0.0
  0
SPLINE
  5
157
100
AcDbEntity
  8
0
 62
7
100
AcDbSpline
 70
8
 71
3
 72
8
 73
4
 74
0
 40
0
 40
0
 40
0
 40
0
 40
1
 40
1
 40
1
 40
1
 10
379.257898
 20
-111.772315
 30
0.0
 10
379.295553
 20
-111.809874
 30
0.0
 10
379.346616
 20
-111.830889
 30
0.0
 10
379.399800
 20
-111.830714
 30
0.0
  0
SPLINE
  5
158
100
AcDbEntity
  8
0
 62
7
100
AcDbSpline
 70
8
 71
3
 72
8
 73
4
 74
0
 40
0
 40
0
 40
0
 40
0
 40
1
 40
1
 40
1
 40
1
 10
382.600200
 20
-111.830714
 30
0.0
 10
382.653384
 20
-111.830889
 30
0.0
 10
382.704448
 20
-111.809874
 30
0.0
 10
382.742102
 20
-111.772315
 30
0.0
  0
SPLINE
  5
159
100
AcDbEntity
  8
0
 62
7
100
AcDbSpline
 70
8
 71
3
 72
8
 73
4
 74
0
 40
0
 40
0
 40
0
 40
0
 40
1
 40
1
 40
1
 40
1
 10
382.742102
 20
-111.772315
 30
0.0
 10
382.779757
 20
-111.734756
 30
0.0
 10
382.800901
 20
-111.683746
 30
0.0
 10
382.800860
 20
-111.630562
 30
0.0
  0
LWPOLYLINE
  5
15a
100
AcDbEntity
  8
0
 62
7
100
AcDbPolyline
 90
2
 70
0
 10
382.798320
 20
-111.629546
 30
0.0
 10
382.798320
 20
-108.830466
 30
0.0
  0
LWPOLYLINE
  5
15b
100
AcDbEntity
  8
0
 62
7
100
AcDbPolyline
 90
2
 70
0
 10
363.547660
 20
-111.830206
 30
0.0
 10
360.349800
 20
-111.830206
 30
0.0
  0
LWPOLYLINE
  5
15c
100
AcDbEntity
  8
0
 62
7
100
AcDbPolyline
 90
2
 70
0
 10
360.149140
 20
-111.629546
 30
0.0
 10
360.149140
 20
-108.830466
 30
0.0
  0
LWPOLYLINE
  5
15d
100
AcDbEntity
  8
0
 62
7
100
AcDbPolyline
 90
2
 70
0
 10
363.547660
 20
-108.629806
 30
0.0
 10
360.349800
 20
-108.629806
 30
0.0
  0
SPLINE
  5
15e
100
AcDbEntity
  8
0
 62
7
100
AcDbSpline
 70
8
 71
3
 72
8
 73
4
 74
0
 40
0
 40
0
 40
0
 40
0
 40
1
 40
1
 40
1
 40
1
 10
360.349800
 20
-108.630568
 30
0.0
 10
360.296616
 20
-108.630392
 30
0.0
 10
360.245553
 20
-108.651407
 30
0.0
 10
360.207898
 20
-108.688966
 30
0.0
  0
SPLINE
  5
15f
100
AcDbEntity
  8
0
 62
7
100
AcDbSpline
 70
8
 71
3
 72
8
 73
4
 74
0
 40
0
 40
0
 40
0
 40
0
 40
1
 40
1
 40
1
 40
1
 10
360.207898
 20
-108.688966
 30
0.0
 10
360.170243
 20
-108.726525
 30
0.0
 10
360.149099
 20
-108.777535
 30
0.0
 10
360.149140
 20
-108.830720
 30
0.0
  0
SPLINE
  5
160
100
AcDbEntity
  8
0
 62
7
100
AcDbSpline
 70
8
 71
3
 72
8
 73
4
 74
0
 40
0
 40
0
 40
0
 40
0
 40
1
 40
1
 40
1
 40
1
 10
363.750860
 20
-108.830720
 30
0.0
 10
363.750901
 20
-108.777535
 30
0.0
 10
363.729757
 20
-108.726525
 30
0.0
 10
363.692102
 20
-108.688966
 30
0.0
  0
SPLINE
  5
161
100
AcDbEntity
  8
0
 62
7
100
AcDbSpline
 70
8
 71
3
 72
8
 73
4
 74
0
 40
0
 40
0
 40
0
 40
0
 40
1
 40
1
 40
1
 40
1
 10
363.692102
 20
-108.688966
 30
0.0
 10
363.654448
 20
-108.651407
 30
0.0
 10
363.603384
 20
-108.630392
 30
0.0
 10
363.550200
 20
-108.630568
 30
0.0
  0
SPLINE
  5
162
100
AcDbEntity
  8
0
 62
7
100
AcDbSpline
 70
8
 71
3
 72
8
 73
4
 74
0
 40
0
 40
0
 40
0
 40
0
 40
1
 40
1
 40
1
 40
1
 10
360.149140
 20
-111.630562
 30
0.0
 10
360.149099
 20
-111.683746
 30
0.0
 10
360.170243
 20
-111.734756
 30
0.0
 10
360.207898
 20
-111.772315
 30
0.0
  0
SPLINE
  5
163
100
AcDbEntity
  8
0
 62
7
100
AcDbSpline
 70
8
 71
3
 72
8
 73
4
 74
0
 40
0
 40
0
 40
0
 40
0
 40
1
 40
1
 40
1
 40
1
 10
360.207898
 20
-111.772315
 30
0.0
 10
360.245553
 20
-111.809874
 30
0.0
 10
360.296616
 20
-111.830889
 30
0.0
 10
360.349800
 20
-111.830714
 30
0.0
  0
SPLINE
  5
164
100
AcDbEntity
  8
0
 62
7
100
AcDbSpline
 70
8
 71
3
 72
8
 73
4
 74
0
 40
0
 40
0
 40
0
 40
0
 40
1
 40
1
 40
1
 40
1
 10
363.550200
 20
-111.830714
 30
0.0
 10
363.603384
 20
-111.830889
 30
0.0
 10
363.654448
 20
-111.809874
 30
0.0
 10
363.692102
 20
-111.772315
 30
0.0
  0
SPLINE
  5
165
100
AcDbEntity
  8
0
 62
7
100
AcDbSpline
 70
8
 71
3
 72
8
 73
4
 74
0
 40
0
 40
0
 40
0
 40
0
 40
1
 40
1
 40
1
 40
1
 10
363.692102
 20
-111.772315
 30
0.0
 10
363.729757
 20
-111.734756
 30
0.0
 10
363.750901
 20
-111.683746
 30
0.0
 10
363.750860
 20
-111.630562
 30
0.0
  0
LWPOLYLINE
  5
166
100
AcDbEntity
  8
0
 62
7
100
AcDbPolyline
 90
2
 70
0
 10
363.748320
 20
-111.629546
 30
0.0
 10
363.748320
 20
-108.830466
 30
0.0
  0
LWPOLYLINE
  5
167
100
AcDbEntity
  8
0
 62
7
100
AcDbPolyline
 90
2
 70
0
 10
344.497660
 20
-111.830206
 30
0.0
 10
341.299800
 20
-111.830206
 30
0.0
  0
LWPOLYLINE
  5
168
100
AcDbEntity
  8
0
 62
7
100
AcDbPolyline
 90
2
 70
0
 10
341.099140
 20
-111.629546
 30
0.0
 10
341.099140
 20
-108.830466
 30
0.0
  0
LWPOLYLINE
  5
169
100
AcDbEntity
  8
0
 62
7
100
AcDbPolyline
 90
2
 70
0
 10
344.497660
 20
-108.629806
 30
0.0
 10
341.299800
 20
-108.629806
 30
0.0
  0
SPLINE
  5
16a
100
AcDbEntity
  8
0
 62
7
100
AcDbSpline
 70
8
 71
3
 72
8
 73
4
 74
0
 40
0
 40
0
 40
0
 40
0
 40
1
 40
1
 40
1
 40
1
 10
341.299800
 20
-108.630568
 30
0.0
 10
341.246616
 20
-108.630392
 30
0.0
 10
341.195553
 20
-108.651407
 30
0.0
 10
341.157898
 20
-108.688966
 30
0.0
  0
SPLINE
  5
16b
100
AcDbEntity
  8
0
 62
7
100
AcDbSpline
 70
8
 71
3
 72
8
 73
4
 74
0
 40
0
 40
0
 40
0
 40
0
 40
1
 40
1
 40
1
 40
1
 10
341.157898
 20
-108.688966
 30
0.0
 10
341.120243
 20
-108.726525
 30
0.0
 10
341.099099
 20
-108.777535
 30
0.0
 10
341.099140
 20
-108.830720
 30
0.0
  0
SPLINE
  5
16c
100
AcDbEntity
  8
0
 62
7
100
AcDbSpline
 70
8
 71
3
 72
8
 73
4
 74
0
 40
0
 40
0
 40
0
 40
0
 40
1
 40
1
 40
1
 40
1
 10
344.700860
 20
-108.830720
 30
0.0
 10
344.700901
 20
-108.777535
 30
0.0
 10
344.679757
 20
-108.726525
 30
0.0
 10
344.642102
 20
-108.688966
 30
0.0
  0
SPLINE
  5
16d
100
AcDbEntity
  8
0
 62
7
100
AcDbSpline
 70
8
 71
3
 72
8
 73
4
 74
0
 40
0
 40
0
 40
0
 40
0
 40
1
 40
1
 40
1
 40
1
 10
344.642102
 20
-108.688966
 30
0.0
 10
344.604447
 20
-108.651407
 30
0.0
 10
344.553384
 20
-108.630392
 30
0.0
 10
344.500200
 20
-108.630568
 30
0.0
  0
SPLINE
  5
16e
100
AcDbEntity
  8
0
 62
7
100
AcDbSpline
 70
8
 71
3
 72
8
 73
4
 74
0
 40
0
 40
0
 40
0
 40
0
 40
1
 40
1
 40
1
 40
1
 10
341.099140
 20
-111.630562
 30
0.0
 10
341.099099
 20
-111.683746
 30
0.0
 10
341.120243
 20
-111.734756
 30
0.0
 10
341.157898
 20
-111.772315
 30
0.0
  0
SPLINE
  5
16f
100
AcDbEntity
  8
0
 62
7
100
AcDbSpline
 70
8
 71
3
 72
8
 73
4
 74
0
 40
0
 40
0
 40
0
 40
0
 40
1
 40
1
 40
1
 40
1
 10
341.157898
 20
-111.772315
 30
0.0
 10
341.195553
 20
-111.809874
 30
0.0
 10
341.246616
 20
-111.830889
 30
0.0
 10
341.299800
 20
-111.830714
 30
0.0
  0
SPLINE
  5
170
100
AcDbEntity
  8
0
 62
7
100
AcDbSpline
 70
8
 71
3
 72
8
 73
4
 74
0
 40
0
 40
0
 40
0
 40
0
 40
1
 40
1
 40
1
 40
1
 10
344.500200
 20
-111.830714
 30
0.0
 10
344.553384
 20
-111.830889
 30
0.0
 10
344.604447
 20
-111.809874
 30
0.0
 10
344.642102
 20
-111.772315
 30
0.0
  0
SPLINE
  5
171
100
AcDbEntity
  8
0
 62
7
100
AcDbSpline
 70
8
 71
3
 72
8
 73
4
 74
0
 40
0
 40
0
 40
0
 40
0
 40
1
 40
1
 40
1
 40
1
 10
344.642102
 20
-111.772315
 30
0.0
 10
344.679757
 20
-111.734756
 30
0.0
 10
344.700901
 20
-111.683746
 30
0.0
 10
344.700860
 20
-111.630562
 30
0.0
  0
LWPOLYLINE
  5
172
100
AcDbEntity
  8
0
 62
7
100
AcDbPolyline
 90
2
 70
0
 10
344.698320
 20
-111.629546
 30
0.0
 10
344.698320
 20
-108.830466
 30
0.0
  0
LWPOLYLINE
  5
173
100
AcDbEntity
  8
0
 62
7
100
AcDbPolyline
 90
2
 70
0
 10
323.268340
 20
-111.629546
 30
0.0
 10
323.268340
 20
-108.830466
 30
0.0
  0
LWPOLYLINE
  5
174
100
AcDbEntity
  8
0
 62
7
100
AcDbPolyline
 90
2
 70
0
 10
323.067680
 20
-108.629806
 30
0.0
 10
319.867280
 20
-108.629806
 30
0.0
  0
LWPOLYLINE
  5
175
100
AcDbEntity
  8
0
 62
7
100
AcDbPolyline
 90
2
 70
0
 10
319.666620
 20
-111.629546
 30
0.0
 10
319.666620
 20
-108.830466
 30
0.0
  0
SPLINE
  5
176
100
AcDbEntity
  8
0
 62
7
100
AcDbSpline
 70
8
 71
3
 72
8
 73
4
 74
0
 40
0
 40
0
 40
0
 40
0
 40
1
 40
1
 40
1
 40
1
 10
319.867280
 20
-108.630568
 30
0.0
 10
319.757499
 20
-108.631600
 30
0.0
 10
319.669072
 20
-108.720933
 30
0.0
 10
319.669160
 20
-108.830720
 30
0.0
  0
SPLINE
  5
177
100
AcDbEntity
  8
0
 62
7
100
AcDbSpline
 70
8
 71
3
 72
8
 73
4
 74
0
 40
0
 40
0
 40
0
 40
0
 40
1
 40
1
 40
1
 40
1
 10
323.268340
 20
-108.830720
 30
0.0
 10
323.268381
 20
-108.777535
 30
0.0
 10
323.247237
 20
-108.726525
 30
0.0
 10
323.209582
 20
-108.688966
 30
0.0
  0
SPLINE
  5
178
100
AcDbEntity
  8
0
 62
7
100
AcDbSpline
 70
8
 71
3
 72
8
 73
4
 74
0
 40
0
 40
0
 40
0
 40
0
 40
1
 40
1
 40
1
 40
1
 10
323.209582
 20
-108.688966
 30
0.0
 10
323.171927
 20
-108.651407
 30
0.0
 10
323.120864
 20
-108.630392
 30
0.0
 10
323.067680
 20
-108.630568
 30
0.0
  0
SPLINE
  5
179
100
AcDbEntity
  8
0
 62
7
100
AcDbSpline
 70
8
 71
3
 72
8
 73
4
 74
0
 40
0
 40
0
 40
0
 40
0
 40
1
 40
1
 40
1
 40
1
 10
319.669160
 20
-111.630562
 30
0.0
 10
319.669072
 20
-111.740348
 30
0.0
 10
319.757499
 20
-111.829682
 30
0.0
 10
319.867280
 20
-111.830714
 30
0.0
  0
SPLINE
  5
17a
100
AcDbEntity
  8
0
 62
7
100
AcDbSpline
 70
8
 71
3
 72
8
 73
4
 74
0
 40
0
 40
0
 40
0
 40
0
 40
1
 40
1
 40
1
 40
1
 10
323.067680
 20
-111.830714
 30
0.0
 10
323.120864
 20
-111.830889
 30
0.0
 10
323.171927
 20
-111.809874
 30
0.0
 10
323.209582
 20
-111.772315
 30
0.0
  0
SPLINE
  5
17b
100
AcDbEntity
  8
0
 62
7
100
AcDbSpline
 70
8
 71
3
 72
8
 73
4
 74
0
 40
0
 40
0
 40
0
 40
0
 40
1
 40
1
 40
1
 40
1
 10
323.209582
 20
-111.772315
 30
0.0
 10
323.247237
 20
-111.734756
 30
0.0
 10
323.268381
 20
-111.683746
 30
0.0
 10
323.268340
 20
-111.630562
 30
0.0
  0
LWPOLYLINE
  5
17c
100
AcDbEntity
  8
0
 62
7
100
AcDbPolyline
 90
2
 70
0
 10
323.067680
 20
-111.830206
 30
0.0
 10
319.867280
 20
-111.830206
 30
0.0
  0
LWPOLYLINE
  5
17d
100
AcDbEntity
  8
0
 62
7
100
AcDbPolyline
 90
2
 70
0
 10
239.722660
 20
-92.780206
 30
0.0
 10
236.524800
 20
-92.780206
 30
0.0
  0
LWPOLYLINE
  5
17e
100
AcDbEntity
  8
0
 62
7
100
AcDbPolyline
 90
2
 70
0
 10
236.324140
 20
-92.579546
 30
0.0
 10
236.324140
 20
-89.780466
 30
0.0
  0
LWPOLYLINE
  5
17f
100
AcDbEntity
  8
0
 62
7
100
AcDbPolyline
 90
2
 70
0
 10
239.722660
 20
-89.579806
 30
0.0
 10
236.524800
 20
-89.579806
 30
0.0
  0
SPLINE
  5
180
100
AcDbEntity
  8
0
 62
7
100
AcDbSpline
 70
8
 71
3
 72
8
 73
4
 74
0
 40
0
 40
0
 40
0
 40
0
 40
1
 40
1
 40
1
 40
1
 10
236.525054
 20
-89.580568
 30
0.0
 10
236.471958
 20
-89.580527
 30
0.0
 10
236.421025
 20
-89.601602
 30
0.0
 10
236.383481
 20
-89.639146
 30
0.0
  0
SPLINE
  5
181
100
AcDbEntity
  8
0
 62
7
100
AcDbSpline
 70
8
 71
3
 72
8
 73
4
 74
0
 40
0
 40
0
 40
0
 40
0
 40
1
 40
1
 40
1
 40
1
 10
236.383481
 20
-89.639146
 30
0.0
 10
236.345936
 20
-89.676691
 30
0.0
 10
236.324862
 20
-89.727624
 30
0.0
 10
236.324902
 20
-89.780720
 30
0.0
  0
SPLINE
  5
182
100
AcDbEntity
  8
0
 62
7
100
AcDbSpline
 70
8
 71
3
 72
8
 73
4
 74
0
 40
0
 40
0
 40
0
 40
0
 40
1
 40
1
 40
1
 40
1
 10
239.925098
 20
-89.780720
 30
0.0
 10
239.925138
 20
-89.727624
 30
0.0
 10
239.904064
 20
-89.676691
 30
0.0
 10
239.866519
 20
-89.639146
 30
0.0
  0
SPLINE
  5
183
100
AcDbEntity
  8
0
 62
7
100
AcDbSpline
 70
8
 71
3
 72
8
 73
4
 74
0
 40
0
 40
0
 40
0
 40
0
 40
1
 40
1
 40
1
 40
1
 10
239.866519
 20
-89.639146
 30
0.0
 10
239.828975
 20
-89.601602
 30
0.0
 10
239.778042
 20
-89.580527
 30
0.0
 10
239.724946
 20
-89.580568
 30
0.0
  0
SPLINE
  5
184
100
AcDbEntity
  8
0
 62
7
100
AcDbSpline
 70
8
 71
3
 72
8
 73
4
 74
0
 40
0
 40
0
 40
0
 40
0
 40
1
 40
1
 40
1
 40
1
 10
236.324902
 20
-92.580562
 30
0.0
 10
236.324862
 20
-92.633658
 30
0.0
 10
236.345936
 20
-92.684590
 30
0.0
 10
236.383481
 20
-92.722135
 30
0.0
  0
SPLINE
  5
185
100
AcDbEntity
  8
0
 62
7
100
AcDbSpline
 70
8
 71
3
 72
8
 73
4
 74
0
 40
0
 40
0
 40
0
 40
0
 40
1
 40
1
 40
1
 40
1
 10
236.383481
 20
-92.722135
 30
0.0
 10
236.421025
 20
-92.759680
 30
0.0
 10
236.471958
 20
-92.780754
 30
0.0
 10
236.525054
 20
-92.780714
 30
0.0
  0
SPLINE
  5
186
100
AcDbEntity
  8
0
 62
7
100
AcDbSpline
 70
8
 71
3
 72
8
 73
4
 74
0
 40
0
 40
0
 40
0
 40
0
 40
1
 40
1
 40
1
 40
1
 10
239.724946
 20
-92.780714
 30
0.0
 10
239.778042
 20
-92.780754
 30
0.0
 10
239.828975
 20
-92.759680
 30
0.0
 10
239.866519
 20
-92.722135
 30
0.0
  0
SPLINE
  5
187
100
AcDbEntity
  8
0
 62
7
100
AcDbSpline
 70
8
 71
3
 72
8
 73
4
 74
0
 40
0
 40
0
 40
0
 40
0
 40
1
 40
1
 40
1
 40
1
 10
239.866519
 20
-92.722135
 30
0.0
 10
239.904064
 20
-92.684590
 30
0.0
 10
239.925138
 20
-92.633658
 30
0.0
 10
239.925098
 20
-92.580562
 30
0.0
  0
LWPOLYLINE
  5
188
100
AcDbEntity
  8
0
 62
7
100
AcDbPolyline
 90
2
 70
0
 10
239.923320
 20
-92.579546
 30
0.0
 10
239.923320
 20
-89.780466
 30
0.0
  0
LWPOLYLINE
  5
189
100
AcDbEntity
  8
0
 62
7
100
AcDbPolyline
 90
2
 70
0
 10
239.722660
 20
-73.730206
 30
0.0
 10
236.524800
 20
-73.730206
 30
0.0
  0
LWPOLYLINE
  5
18a
100
AcDbEntity
  8
0
 62
7
100
AcDbPolyline
 90
2
 70
0
 10
236.324140
 20
-73.529546
 30
0.0
 10
236.324140
 20
-70.730466
 30
0.0
  0
LWPOLYLINE
  5
18b
100
AcDbEntity
  8
0
 62
7
100
AcDbPolyline
 90
2
 70
0
 10
239.722660
 20
-70.529806
 30
0.0
 10
236.524800
 20
-70.529806
 30
0.0
  0
SPLINE
  5
18c
100
AcDbEntity
  8
0
 62
7
100
AcDbSpline
 70
8
 71
3
 72
8
 73
4
 74
0
 40
0
 40
0
 40
0
 40
0
 40
1
 40
1
 40
1
 40
1
 10
236.525054
 20
-70.530568
 30
0.0
 10
236.471958
 20
-70.530527
 30
0.0
 10
236.421025
 20
-70.551602
 30
0.0
 10
236.383481
 20
-70.589146
 30
0.0
  0
SPLINE
  5
18d
100
AcDbEntity
  8
0
 62
7
100
AcDbSpline
 70
8
 71
3
 72
8
 73
4
 74
0
 40
0
 40
0
 40
0
 40
0
 40
1
 40
1
 40
1
 40
1
 10
236.383481
 20
-70.589146
 30
0.0
 10
236.345936
 20
-70.626691
 30
0.0
 10
236.324862
 20
-70.677624
 30
0.0
 10
236.324902
 20
-70.730720
 30
0.0
  0
SPLINE
  5
18e
100
AcDbEntity
  8
0
 62
7
100
AcDbSpline
 70
8
 71
3
 72
8
 73
4
 74
0
 40
0
 40
0
 40
0
 40
0
 40
1
 40
1
 40
1
 40
1
 10
239.925098
 20
-70.730720
 30
0.0
 10
239.925138
 20
-70.677624
 30
0.0
 10
239.904064
 20
-70.626691
 30
0.0
 10
239.866519
 20
-70.589146
 30
0.0
  0
SPLINE
  5
18f
100
AcDbEntity
  8
0
 62
7
100
AcDbSpline
 70
8
 71
3
 72
8
 73
4
 74
0
 40
0
 40
0
 40
0
 40
0
 40
1
 40
1
 40
1
 40
1
 10
239.866519
 20
-70.589146
 30
0.0
 10
239.828975
 20
-70.551602
 30
0.0
 10
239.778042
 20
-70.530527
 30
0.0
 10
239.724946
 20
-70.530568
 30
0.0
  0
SPLINE
  5
190
100
AcDbEntity
  8
0
 62
7
100
AcDbSpline
 70
8
 71
3
 72
8
 73
4
 74
0
 40
0
 40
0
 40
0
 40
0
 40
1
 40
1
 40
1
 40
1
 10
236.324902
 20
-73.530562
 30
0.0
 10
236.324862
 20
-73.583658
 30
0.0
 10
236.345936
 20
-73.634590
 30
0.0
 10
236.383481
 20
-73.672135
 30
0.0
  0
SPLINE
  5
191
100
AcDbEntity
  8
0
 62
7
100
AcDbSpline
 70
8
 71
3
 72
8
 73
4
 74
0
 40
0
 40
0
 40
0
 40
0
 40
1
 40
1
 40
1
 40
1
 10
236.383481
 20
-73.672135
 30
0.0
 10
236.421025
 20
-73.709680
 30
0.0
 10
236.471958
 20
-73.730754
 30
0.0
 10
236.525054
 20
-73.730714
 30
0.0
  0
SPLINE
  5
192
100
AcDbEntity
  8
0
 62
7
100
AcDbSpline
 70
8
 71
3
 72
8
 73
4
 74
0
 40
0
 40
0
 40
0
 40
0
 40
1
 40
1
 40
1
 40
1
 10
239.724946
 20
-73.730714
 30
0.0
 10
239.778042
 20
-73.730754
 30
0.0
 10
239.828975
 20
-73.709680
 30
0.0
 10
239.866519
 20
-73.672135
 30
0.0
  0
SPLINE
  5
193
100
AcDbEntity
  8
0
 62
7
100
AcDbSpline
 70
8
 71
3
 72
8
 73
4
 74
0
 40
0
 40
0
 40
0
 40
0
 40
1
 40
1
 40
1
 40
1
 10
239.866519
 20
-73.672135
 30
0.0
 10
239.904064
 20
-73.634590
 30
0.0
 10
239.925138
 20
-73.583658
 30
0.0
 10
239.925098
 20
-73.530562
 30
0.0
  0
LWPOLYLINE
  5
194
100
AcDbEntity
  8
0
 62
7
100
AcDbPolyline
 90
2
 70
0
 10
239.923320
 20
-73.529546
 30
0.0
 10
239.923320
 20
-70.730466
 30
0.0
  0
LWPOLYLINE
  5
195
100
AcDbEntity
  8
0
 62
7
100
AcDbPolyline
 90
2
 70
0
 10
377.837700
 20
-54.680206
 30
0.0
 10
374.637300
 20
-54.680206
 30
0.0
  0
LWPOLYLINE
  5
196
100
AcDbEntity
  8
0
 62
7
100
AcDbPolyline
 90
2
 70
0
 10
374.436640
 20
-54.479546
 30
0.0
 10
374.436640
 20
-51.680466
 30
0.0
  0
LWPOLYLINE
  5
197
100
AcDbEntity
  8
0
 62
7
100
AcDbPolyline
 90
2
 70
0
 10
377.837700
 20
-51.479806
 30
0.0
 10
374.637300
 20
-51.479806
 30
0.0
  0
SPLINE
  5
198
100
AcDbEntity
  8
0
 62
7
100
AcDbSpline
 70
8
 71
3
 72
8
 73
4
 74
0
 40
0
 40
0
 40
0
 40
0
 40
1
 40
1
 40
1
 40
1
 10
377.837700
 20
-54.680714
 30
0.0
 10
377.890884
 20
-54.680889
 30
0.0
 10
377.941948
 20
-54.659874
 30
0.0
 10
377.979602
 20
-54.622315
 30
0.0
  0
SPLINE
  5
199
100
AcDbEntity
  8
0
 62
7
100
AcDbSpline
 70
8
 71
3
 72
8
 73
4
 74
0
 40
0
 40
0
 40
0
 40
0
 40
1
 40
1
 40
1
 40
1
 10
377.979602
 20
-54.622315
 30
0.0
 10
378.017257
 20
-54.584756
 30
0.0
 10
378.038401
 20
-54.533746
 30
0.0
 10
378.038360
 20
-54.480562
 30
0.0
  0
SPLINE
  5
19a
100
AcDbEntity
  8
0
 62
7
100
AcDbSpline
 70
8
 71
3
 72
8
 73
4
 74
0
 40
0
 40
0
 40
0
 40
0
 40
1
 40
1
 40
1
 40
1
 10
374.439180
 20
-54.480562
 30
0.0
 10
374.439092
 20
-54.590348
 30
0.0
 10
374.527519
 20
-54.679682
 30
0.0
 10
374.637300
 20
-54.680714
 30
0.0
  0
SPLINE
  5
19b
100
AcDbEntity
  8
0
 62
7
100
AcDbSpline
 70
8
 71
3
 72
8
 73
4
 74
0
 40
0
 40
0
 40
0
 40
0
 40
1
 40
1
 40
1
 40
1
 10
378.038360
 20
-51.680720
 30
0.0
 10
378.038401
 20
-51.627535
 30
0.0
 10
378.017257
 20
-51.576525
 30
0.0
 10
377.979602
 20
-51.538966
 30
0.0
  0
SPLINE
  5
19c
100
AcDbEntity
  8
0
 62
7
100
AcDbSpline
 70
8
 71
3
 72
8
 73
4
 74
0
 40
0
 40
0
 40
0
 40
0
 40
1
 40
1
 40
1
 40
1
 10
377.979602
 20
-51.538966
 30
0.0
 10
377.941948
 20
-51.501407
 30
0.0
 10
377.890884
 20
-51.480392
 30
0.0
 10
377.837700
 20
-51.480568
 30
0.0
  0
SPLINE
  5
19d
100
AcDbEntity
  8
0
 62
7
100
AcDbSpline
 70
8
 71
3
 72
8
 73
4
 74
0
 40
0
 40
0
 40
0
 40
0
 40
1
 40
1
 40
1
 40
1
 10
374.637300
 20
-51.480568
 30
0.0
 10
374.527519
 20
-51.481600
 30
0.0
 10
374.439092
 20
-51.570933
 30
0.0
 10
374.439180
 20
-51.680720
 30
0.0
  0
LWPOLYLINE
  5
19e
100
AcDbEntity
  8
0
 62
7
100
AcDbPolyline
 90
2
 70
0
 10
378.035820
 20
-54.479546
 30
0.0
 10
378.035820
 20
-51.680466
 30
0.0
  0
LWPOLYLINE
  5
19f
100
AcDbEntity
  8
0
 62
7
100
AcDbPolyline
 90
2
 70
0
 10
239.722660
 20
-54.680206
 30
0.0
 10
236.524800
 20
-54.680206
 30
0.0
  0
LWPOLYLINE
  5
1a0
100
AcDbEntity
  8
0
 62
7
100
AcDbPolyline
 90
2
 70
0
 10
236.324140
 20
-54.479546
 30
0.0
 10
236.324140
 20
-51.680466
 30
0.0
  0
LWPOLYLINE
  5
1a1
100
AcDbEntity
  8
0
 62
7
100
AcDbPolyline
 90
2
 70
0
 10
239.722660
 20
-51.479806
 30
0.0
 10
236.524800
 20
-51.479806
 30
0.0
  0
SPLINE
  5
1a2
100
AcDbEntity
  8
0
 62
7
100
AcDbSpline
 70
8
 71
3
 72
8
 73
4
 74
0
 40
0
 40
0
 40
0
 40
0
 40
1
 40
1
 40
1
 40
1
 10
236.525054
 20
-51.480568
 30
0.0
 10
236.471958
 20
-51.480527
 30
0.0
 10
236.421025
 20
-51.501602
 30
0.0
 10
236.383481
 20
-51.539146
 30
0.0
  0
SPLINE
  5
1a3
100
AcDbEntity
  8
0
 62
7
100
AcDbSpline
 70
8
 71
3
 72
8
 73
4
 74
0
 40
0
 40
0
 40
0
 40
0
 40
1
 40
1
 40
1
 40
1
 10
236.383481
 20
-51.539146
 30
0.0
 10
236.345936
 20
-51.576691
 30
0.0
 10
236.324862
 20
-51.627624
 30
0.0
 10
236.324902
 20
-51.680720
 30
0.0
  0
SPLINE
  5
1a4
100
AcDbEntity
  8
0
 62
7
100
AcDbSpline
 70
8
 71
3
 72
8
 73
4
 74
0
 40
0
 40
0
 40
0
 40
0
 40
1
 40
1
 40
1
 40
1
 10
239.925098
 20
-51.680720
 30
0.0
 10
239.925138
 20
-51.627624
 30
0.0
 10
239.904064
 20
-51.576691
 30
0.0
 10
239.866519
 20
-51.539146
 30
0.0
  0
SPLINE
  5
1a5
100
AcDbEntity
  8
0
 62
7
100
AcDbSpline
 70
8
 71
3
 72
8
 73
4
 74
0
 40
0
 40
0
 40
0
 40
0
 40
1
 40
1
 40
1
 40
1
 10
239.866519
 20
-51.539146
 30
0.0
 10
239.828975
 20
-51.501602
 30
0.0
 10
239.778042
 20
-51.480527
 30
0.0
 10
239.724946
 20
-51.480568
 30
0.0
  0
SPLINE
  5
1a6
100
AcDbEntity
  8
0
 62
7
100
AcDbSpline
 70
8
 71
3
 72
8
 73
4
 74
0
 40
0
 40
0
 40
0
 40
0
 40
1
 40
1
 40
1
 40
1
 10
236.324902
 20
-54.480562
 30
0.0
 10
236.324862
 20
-54.533658
 30
0.0
 10
236.345936
 20
-54.584590
 30
0.0
 10
236.383481
 20
-54.622135
 30
0.0
  0
SPLINE
  5
1a7
100
AcDbEntity
  8
0
 62
7
100
AcDbSpline
 70
8
 71
3
 72
8
 73
4
 74
0
 40
0
 40
0
 40
0
 40
0
 40
1
 40
1
 40
1
 40
1
 10
236.383481
 20
-54.622135
 30
0.0
 10
236.421025
 20
-54.659680
 30
0.0
 10
236.471958
 20
-54.680754
 30
0.0
 10
236.525054
 20
-54.680714
 30
0.0
  0
SPLINE
  5
1a8
100
AcDbEntity
  8
0
 62
7
100
AcDbSpline
 70
8
 71
3
 72
8
 73
4
 74
0
 40
0
 40
0
 40
0
 40
0
 40
1
 40
1
 40
1
 40
1
 10
239.724946
 20
-54.680714
 30
0.0
 10
239.778042
 20
-54.680754
 30
0.0
 10
239.828975
 20
-54.659680
 30
0.0
 10
239.866519
 20
-54.622135
 30
0.0
  0
SPLINE
  5
1a9
100
AcDbEntity
  8
0
 62
7
100
AcDbSpline
 70
8
 71
3
 72
8
 73
4
 74
0
 40
0
 40
0
 40
0
 40
0
 40
1
 40
1
 40
1
 40
1
 10
239.866519
 20
-54.622135
 30
0.0
 10
239.904064
 20
-54.584590
 30
0.0
 10
239.925138
 20
-54.533658
 30
0.0
 10
239.925098
 20
-54.480562
 30
0.0
  0
LWPOLYLINE
  5
1aa
100
AcDbEntity
  8
0
 62
7
100
AcDbPolyline
 90
2
 70
0
 10
239.923320
 20
-54.479546
 30
0.0
 10
239.923320
 20
-51.680466
 30
0.0
  0
LWPOLYLINE
  5
1ab
100
AcDbEntity
  8
0
 62
7
100
AcDbPolyline
 90
2
 70
0
 10
377.837700
 20
-35.630206
 30
0.0
 10
374.637300
 20
-35.630206
 30
0.0
  0
LWPOLYLINE
  5
1ac
100
AcDbEntity
  8
0
 62
7
100
AcDbPolyline
 90
2
 70
0
 10
374.436640
 20
-35.429546
 30
0.0
 10
374.436640
 20
-32.630466
 30
0.0
  0
LWPOLYLINE
  5
1ad
100
AcDbEntity
  8
0
 62
7
100
AcDbPolyline
 90
2
 70
0
 10
377.837700
 20
-32.429806
 30
0.0
 10
374.637300
 20
-32.429806
 30
0.0
  0
SPLINE
  5
1ae
100
AcDbEntity
  8
0
 62
7
100
AcDbSpline
 70
8
 71
3
 72
8
 73
4
 74
0
 40
0
 40
0
 40
0
 40
0
 40
1
 40
1
 40
1
 40
1
 10
377.837700
 20
-35.630714
 30
0.0
 10
377.890884
 20
-35.630889
 30
0.0
 10
377.941948
 20
-35.609874
 30
0.0
 10
377.979602
 20
-35.572315
 30
0.0
  0
SPLINE
  5
1af
100
AcDbEntity
  8
0
 62
7
100
AcDbSpline
 70
8
 71
3
 72
8
 73
4
 74
0
 40
0
 40
0
 40
0
 40
0
 40
1
 40
1
 40
1
 40
1
 10
377.979602
 20
-35.572315
 30
0.0
 10
378.017257
 20
-35.534756
 30
0.0
 10
378.038401
 20
-35.483746
 30
0.0
 10
378.038360
 20
-35.430562
 30
0.0
  0
SPLINE
  5
1b0
100
AcDbEntity
  8
0
 62
7
100
AcDbSpline
 70
8
 71
3
 72
8
 73
4
 74
0
 40
0
 40
0
 40
0
 40
0
 40
1
 40
1
 40
1
 40
1
 10
374.439180
 20
-35.430562
 30
0.0
 10
374.439092
 20
-35.540348
 30
0.0
 10
374.527519
 20
-35.629682
 30
0.0
 10
374.637300
 20
-35.630714
 30
0.0
  0
SPLINE
  5
1b1
100
AcDbEntity
  8
0
 62
7
100
AcDbSpline
 70
8
 71
3
 72
8
 73
4
 74
0
 40
0
 40
0
 40
0
 40
0
 40
1
 40
1
 40
1
 40
1
 10
378.038360
 20
-32.630720
 30
0.0
 10
378.038401
 20
-32.577535
 30
0.0
 10
378.017257
 20
-32.526525
 30
0.0
 10
377.979602
 20
-32.488966
 30
0.0
  0
SPLINE
  5
1b2
100
AcDbEntity
  8
0
 62
7
100
AcDbSpline
 70
8
 71
3
 72
8
 73
4
 74
0
 40
0
 40
0
 40
0
 40
0
 40
1
 40
1
 40
1
 40
1
 10
377.979602
 20
-32.488966
 30
0.0
 10
377.941948
 20
-32.451407
 30
0.0
 10
377.890884
 20
-32.430392
 30
0.0
 10
377.837700
 20
-32.430568
 30
0.0
  0
SPLINE
  5
1b3
100
AcDbEntity
  8
0
 62
7
100
AcDbSpline
 70
8
 71
3
 72
8
 73
4
 74
0
 40
0
 40
0
 40
0
 40
0
 40
1
 40
1
 40
1
 40
1
 10
374.637300
 20
-32.430568
 30
0.0
 10
374.527519
 20
-32.431600
 30
0.0
 10
374.439092
 20
-32.520933
 30
0.0
 10
374.439180
 20
-32.630720
 30
0.0
  0
LWPOLYLINE
  5
1b4
100
AcDbEntity
  8
0
 62
7
100
AcDbPolyline
 90
2
 70
0
 10
378.035820
 20
-35.429546
 30
0.0
 10
378.035820
 20
-32.630466
 30
0.0
  0
LWPOLYLINE
  5
1b5
100
AcDbEntity
  8
0
 62
7
100
AcDbPolyline
 90
2
 70
0
 10
239.722660
 20
-35.630206
 30
0.0
 10
236.524800
 20
-35.630206
 30
0.0
  0
LWPOLYLINE
  5
1b6
100
AcDbEntity
  8
0
 62
7
100
AcDbPolyline
 90
2
 70
0
 10
236.324140
 20
-35.429546
 30
0.0
 10
236.324140
 20
-32.630466
 30
0.0
  0
LWPOLYLINE
  5
1b7
100
AcDbEntity
  8
0
 62
7
100
AcDbPolyline
 90
2
 70
0
 10
239.722660
 20
-32.429806
 30
0.0
 10
236.524800
 20
-32.429806
 30
0.0
  0
SPLINE
  5
1b8
100
AcDbEntity
  8
0
 62
7
100
AcDbSpline
 70
8
 71
3
 72
8
 73
4
 74
0
 40
0
 40
0
 40
0
 40
0
 40
1
 40
1
 40
1
 40
1
 10
236.525054
 20
-32.430568
 30
0.0
 10
236.471958
 20
-32.430527
 30
0.0
 10
236.421025
 20
-32.451602
 30
0.0
 10
236.383481
 20
-32.489146
 30
0.0
  0
SPLINE
  5
1b9
100
AcDbEntity
  8
0
 62
7
100
AcDbSpline
 70
8
 71
3
 72
8
 73
4
 74
0
 40
0
 40
0
 40
0
 40
0
 40
1
 40
1
 40
1
 40
1
 10
236.383481
 20
-32.489146
 30
0.0
 10
236.345936
 20
-32.526691
 30
0.0
 10
236.324862
 20
-32.577624
 30
0.0
 10
236.324902
 20
-32.630720
 30
0.0
  0
SPLINE
  5
1ba
100
AcDbEntity
  8
0
 62
7
100
AcDbSpline
 70
8
 71
3
 72
8
 73
4
 74
0
 40
0
 40
0
 40
0
 40
0
 40
1
 40
1
 40
1
 40
1
 10
239.925098
 20
-32.630720
 30
0.0
 10
239.925138
 20
-32.577624
 30
0.0
 10
239.904064
 20
-32.526691
 30
0.0
 10
239.866519
 20
-32.489146
 30
0.0
  0
SPLINE
  5
1bb
100
AcDbEntity
  8
0
 62
7
100
AcDbSpline
 70
8
 71
3
 72
8
 73
4
 74
0
 40
0
 40
0
 40
0
 40
0
 40
1
 40
1
 40
1
 40
1
 10
239.866519
 20
-32.489146
 30
0.0
 10
239.828975
 20
-32.451602
 30
0.0
 10
239.778042
 20
-32.430527
 30
0.0
 10
239.724946
 20
-32.430568
 30
0.0
  0
SPLINE
  5
1bc
100
AcDbEntity
  8
0
 62
7
100
AcDbSpline
 70
8
 71
3
 72
8
 73
4
 74
0
 40
0
 40
0
 40
0
 40
0
 40
1
 40
1
 40
1
 40
1
 10
236.324902
 20
-35.430562
 30
0.0
 10
236.324862
 20
-35.483658
 30
0.0
 10
236.345936
 20
-35.534590
 30
0.0
 10
236.383481
 20
-35.572135
 30
0.0
  0
SPLINE
  5
1bd
100
AcDbEntity
  8
0
 62
7
100
AcDbSpline
 70
8
 71
3
 72
8
 73
4
 74
0
 40
0
 40
0
 40
0
 40
0
 40
1
 40
1
 40
1
 40
1
 10
236.383481
 20
-35.572135
 30
0.0
 10
236.421025
 20
-35.609680
 30
0.0
 10
236.471958
 20
-35.630754
 30
0.0
 10
236.525054
 20
-35.630714
 30
0.0
  0
SPLINE
  5
1be
100
AcDbEntity
  8
0
 62
7
100
AcDbSpline
 70
8
 71
3
 72
8
 73
4
 74
0
 40
0
 40
0
 40
0
 40
0
 40
1
 40
1
 40
1
 40
1
 10
239.724946
 20
-35.630714
 30
0.0
 10
239.778042
 20
-35.630754
 30
0.0
 10
239.828975
 20
-35.609680
 30
0.0
 10
239.866519
 20
-35.572135
 30
0.0
  0
SPLINE
  5
1bf
100
AcDbEntity
  8
0
 62
7
100
AcDbSpline
 70
8
 71
3
 72
8
 73
4
 74
0
 40
0
 40
0
 40
0
 40
0
 40
1
 40
1
 40
1
 40
1
 10
239.866519
 20
-35.572135
 30
0.0
 10
239.904064
 20
-35.534590
 30
0.0
 10
239.925138
 20
-35.483658
 30
0.0
 10
239.925098
 20
-35.430562
 30
0.0
  0
LWPOLYLINE
  5
1c0
100
AcDbEntity
  8
0
 62
7
100
AcDbPolyline
 90
2
 70
0
 10
239.923320
 20
-35.429546
 30
0.0
 10
239.923320
 20
-32.630466
 30
0.0
  0
LWPOLYLINE
  5
1c1
100
AcDbEntity
  8
0
 62
7
100
AcDbPolyline
 90
2
 70
0
 10
239.722660
 20
-16.580206
 30
0.0
 10
236.524800
 20
-16.580206
 30
0.0
  0
LWPOLYLINE
  5
1c2
100
AcDbEntity
  8
0
 62
7
100
AcDbPolyline
 90
2
 70
0
 10
236.324140
 20
-16.379546
 30
0.0
 10
236.324140
 20
-13.580466
 30
0.0
  0
LWPOLYLINE
  5
1c3
100
AcDbEntity
  8
0
 62
7
100
AcDbPolyline
 90
2
 70
0
 10
239.722660
 20
-13.379806
 30
0.0
 10
236.524800
 20
-13.379806
 30
0.0
  0
SPLINE
  5
1c4
100
AcDbEntity
  8
0
 62
7
100
AcDbSpline
 70
8
 71
3
 72
8
 73
4
 74
0
 40
0
 40
0
 40
0
 40
0
 40
1
 40
1
 40
1
 40
1
 10
236.525054
 20
-13.380593
 30
0.0
 10
236.471980
 20
-13.380553
 30
0.0
 10
236.421066
 20
-13.401610
 30
0.0
 10
236.383526
 20
-13.439127
 30
0.0
  0
SPLINE
  5
1c5
100
AcDbEntity
  8
0
 62
7
100
AcDbSpline
 70
8
 71
3
 72
8
 73
4
 74
0
 40
0
 40
0
 40
0
 40
0
 40
1
 40
1
 40
1
 40
1
 10
236.383526
 20
-13.439127
 30
0.0
 10
236.345985
 20
-13.476644
 30
0.0
 10
236.324895
 20
-13.527544
 30
0.0
 10
236.324902
 20
-13.580618
 30
0.0
  0
SPLINE
  5
1c6
100
AcDbEntity
  8
0
 62
7
100
AcDbSpline
 70
8
 71
3
 72
8
 73
4
 74
0
 40
0
 40
0
 40
0
 40
0
 40
1
 40
1
 40
1
 40
1
 10
239.925098
 20
-13.580618
 30
0.0
 10
239.925105
 20
-13.527544
 30
0.0
 10
239.904015
 20
-13.476644
 30
0.0
 10
239.866474
 20
-13.439127
 30
0.0
  0
SPLINE
  5
1c7
100
AcDbEntity
  8
0
 62
7
100
AcDbSpline
 70
8
 71
3
 72
8
 73
4
 74
0
 40
0
 40
0
 40
0
 40
0
 40
1
 40
1
 40
1
 40
1
 10
239.866474
 20
-13.439127
 30
0.0
 10
239.828934
 20
-13.401610
 30
0.0
 10
239.778020
 20
-13.380553
 30
0.0
 10
239.724946
 20
-13.380593
 30
0.0
  0
SPLINE
  5
1c8
100
AcDbEntity
  8
0
 62
7
100
AcDbSpline
 70
8
 71
3
 72
8
 73
4
 74
0
 40
0
 40
0
 40
0
 40
0
 40
1
 40
1
 40
1
 40
1
 10
236.324902
 20
-16.380612
 30
0.0
 10
236.324902
 20
-16.433682
 30
0.0
 10
236.345994
 20
-16.484576
 30
0.0
 10
236.383535
 20
-16.522087
 30
0.0
  0
SPLINE
  5
1c9
100
AcDbEntity
  8
0
 62
7
100
AcDbSpline
 70
8
 71
3
 72
8
 73
4
 74
0
 40
0
 40
0
 40
0
 40
0
 40
1
 40
1
 40
1
 40
1
 10
236.383535
 20
-16.522087
 30
0.0
 10
236.421075
 20
-16.559599
 30
0.0
 10
236.471984
 20
-16.580652
 30
0.0
 10
236.525054
 20
-16.580612
 30
0.0
  0
SPLINE
  5
1ca
100
AcDbEntity
  8
0
 62
7
100
AcDbSpline
 70
8
 71
3
 72
8
 73
4
 74
0
 40
0
 40
0
 40
0
 40
0
 40
1
 40
1
 40
1
 40
1
 10
239.724946
 20
-16.580612
 30
0.0
 10
239.778016
 20
-16.580652
 30
0.0
 10
239.828925
 20
-16.559599
 30
0.0
 10
239.866465
 20
-16.522087
 30
0.0
  0
SPLINE
  5
1cb
100
AcDbEntity
  8
0
 62
7
100
AcDbSpline
 70
8
 71
3
 72
8
 73
4
 74
0
 40
0
 40
0
 40
0
 40
0
 40
1
 40
1
 40
1
 40
1
 10
239.866465
 20
-16.522087
 30
0.0
 10
239.904006
 20
-16.484576
 30
0.0
 10
239.925098
 20
-16.433682
 30
0.0
 10
239.925098
 20
-16.380612
 30
0.0
  0
LWPOLYLINE
  5
1cc
100
AcDbEntity
  8
0
 62
7
100
AcDbPolyline
 90
2
 70
0
 10
239.923320
 20
-16.379546
 30
0.0
 10
239.923320
 20
-13.580466
 30
0.0
  0
LWPOLYLINE
  5
1cd
100
AcDbEntity
  8
0
 62
7
100
AcDbPolyline
 90
2
 70
0
 10
299.455840
 20
-111.629546
 30
0.0
 10
299.455840
 20
-108.830466
 30
0.0
  0
LWPOLYLINE
  5
1ce
100
AcDbEntity
  8
0
 62
7
100
AcDbPolyline
 90
2
 70
0
 10
299.255180
 20
-108.629806
 30
0.0
 10
296.054780
 20
-108.629806
 30
0.0
  0
LWPOLYLINE
  5
1cf
100
AcDbEntity
  8
0
 62
7
100
AcDbPolyline
 90
2
 70
0
 10
295.854120
 20
-111.629546
 30
0.0
 10
295.854120
 20
-108.830466
 30
0.0
  0
SPLINE
  5
1d0
100
AcDbEntity
  8
0
 62
7
100
AcDbSpline
 70
8
 71
3
 72
8
 73
4
 74
0
 40
0
 40
0
 40
0
 40
0
 40
1
 40
1
 40
1
 40
1
 10
296.054780
 20
-108.630568
 30
0.0
 10
295.944999
 20
-108.631600
 30
0.0
 10
295.856572
 20
-108.720933
 30
0.0
 10
295.856660
 20
-108.830720
 30
0.0
  0
SPLINE
  5
1d1
100
AcDbEntity
  8
0
 62
7
100
AcDbSpline
 70
8
 71
3
 72
8
 73
4
 74
0
 40
0
 40
0
 40
0
 40
0
 40
1
 40
1
 40
1
 40
1
 10
299.455840
 20
-108.830720
 30
0.0
 10
299.455881
 20
-108.777535
 30
0.0
 10
299.434737
 20
-108.726525
 30
0.0
 10
299.397082
 20
-108.688966
 30
0.0
  0
SPLINE
  5
1d2
100
AcDbEntity
  8
0
 62
7
100
AcDbSpline
 70
8
 71
3
 72
8
 73
4
 74
0
 40
0
 40
0
 40
0
 40
0
 40
1
 40
1
 40
1
 40
1
 10
299.397082
 20
-108.688966
 30
0.0
 10
299.359427
 20
-108.651407
 30
0.0
 10
299.308364
 20
-108.630392
 30
0.0
 10
299.255180
 20
-108.630568
 30
0.0
  0
SPLINE
  5
1d3
100
AcDbEntity
  8
0
 62
7
100
AcDbSpline
 70
8
 71
3
 72
8
 73
4
 74
0
 40
0
 40
0
 40
0
 40
0
 40
1
 40
1
 40
1
 40
1
 10
295.856660
 20
-111.630562
 30
0.0
 10
295.856572
 20
-111.740348
 30
0.0
 10
295.944999
 20
-111.829682
 30
0.0
 10
296.054780
 20
-111.830714
 30
0.0
  0
SPLINE
  5
1d4
100
AcDbEntity
  8
0
 62
7
100
AcDbSpline
 70
8
 71
3
 72
8
 73
4
 74
0
 40
0
 40
0
 40
0
 40
0
 40
1
 40
1
 40
1
 40
1
 10
299.255180
 20
-111.830714
 30
0.0
 10
299.308364
 20
-111.830889
 30
0.0
 10
299.359427
 20
-111.809874
 30
0.0
 10
299.397082
 20
-111.772315
 30
0.0
  0
SPLINE
  5
1d5
100
AcDbEntity
  8
0
 62
7
100
AcDbSpline
 70
8
 71
3
 72
8
 73
4
 74
0
 40
0
 40
0
 40
0
 40
0
 40
1
 40
1
 40
1
 40
1
 10
299.397082
 20
-111.772315
 30
0.0
 10
299.434737
 20
-111.734756
 30
0.0
 10
299.455881
 20
-111.683746
 30
0.0
 10
299.455840
 20
-111.630562
 30
0.0
  0
LWPOLYLINE
  5
1d6
100
AcDbEntity
  8
0
 62
7
100
AcDbPolyline
 90
2
 70
0
 10
299.255180
 20
-111.830206
 30
0.0
 10
296.054780
 20
-111.830206
 30
0.0
  0
LWPOLYLINE
  5
1d7
100
AcDbEntity
  8
0
 62
7
100
AcDbPolyline
 90
2
 70
0
 10
275.643340
 20
-111.629546
 30
0.0
 10
275.643340
 20
-108.830466
 30
0.0
  0
LWPOLYLINE
  5
1d8
100
AcDbEntity
  8
0
 62
7
100
AcDbPolyline
 90
2
 70
0
 10
275.442680
 20
-108.629806
 30
0.0
 10
272.242280
 20
-108.629806
 30
0.0
  0
LWPOLYLINE
  5
1d9
100
AcDbEntity
  8
0
 62
7
100
AcDbPolyline
 90
2
 70
0
 10
272.041620
 20
-111.629546
 30
0.0
 10
272.041620
 20
-108.830466
 30
0.0
  0
SPLINE
  5
1da
100
AcDbEntity
  8
0
 62
7
100
AcDbSpline
 70
8
 71
3
 72
8
 73
4
 74
0
 40
0
 40
0
 40
0
 40
0
 40
1
 40
1
 40
1
 40
1
 10
272.242280
 20
-108.630568
 30
0.0
 10
272.132499
 20
-108.631600
 30
0.0
 10
272.044072
 20
-108.720933
 30
0.0
 10
272.044160
 20
-108.830720
 30
0.0
  0
SPLINE
  5
1db
100
AcDbEntity
  8
0
 62
7
100
AcDbSpline
 70
8
 71
3
 72
8
 73
4
 74
0
 40
0
 40
0
 40
0
 40
0
 40
1
 40
1
 40
1
 40
1
 10
275.643340
 20
-108.830720
 30
0.0
 10
275.643381
 20
-108.777535
 30
0.0
 10
275.622237
 20
-108.726525
 30
0.0
 10
275.584582
 20
-108.688966
 30
0.0
  0
SPLINE
  5
1dc
100
AcDbEntity
  8
0
 62
7
100
AcDbSpline
 70
8
 71
3
 72
8
 73
4
 74
0
 40
0
 40
0
 40
0
 40
0
 40
1
 40
1
 40
1
 40
1
 10
275.584582
 20
-108.688966
 30
0.0
 10
275.546927
 20
-108.651407
 30
0.0
 10
275.495864
 20
-108.630392
 30
0.0
 10
275.442680
 20
-108.630568
 30
0.0
  0
SPLINE
  5
1dd
100
AcDbEntity
  8
0
 62
7
100
AcDbSpline
 70
8
 71
3
 72
8
 73
4
 74
0
 40
0
 40
0
 40
0
 40
0
 40
1
 40
1
 40
1
 40
1
 10
272.044160
 20
-111.630562
 30
0.0
 10
272.044072
 20
-111.740348
 30
0.0
 10
272.132499
 20
-111.829682
 30
0.0
 10
272.242280
 20
-111.830714
 30
0.0
  0
SPLINE
  5
1de
100
AcDbEntity
  8
0
 62
7
100
AcDbSpline
 70
8
 71
3
 72
8
 73
4
 74
0
 40
0
 40
0
 40
0
 40
0
 40
1
 40
1
 40
1
 40
1
 10
275.442680
 20
-111.830714
 30
0.0
 10
275.495864
 20
-111.830889
 30
0.0
 10
275.546927
 20
-111.809874
 30
0.0
 10
275.584582
 20
-111.772315
 30
0.0
  0
SPLINE
  5
1df
100
AcDbEntity
  8
0
 62
7
100
AcDbSpline
 70
8
 71
3
 72
8
 73
4
 74
0
 40
0
 40
0
 40
0
 40
0
 40
1
 40
1
 40
1
 40
1
 10
275.584582
 20
-111.772315
 30
0.0
 10
275.622237
 20
-111.734756
 30
0.0
 10
275.643381
 20
-111.683746
 30
0.0
 10
275.643340
 20
-111.630562
 30
0.0
  0
LWPOLYLINE
  5
1e0
100
AcDbEntity
  8
0
 62
7
100
AcDbPolyline
 90
2
 70
0
 10
275.442680
 20
-111.830206
 30
0.0
 10
272.242280
 20
-111.830206
 30
0.0
  0
LWPOLYLINE
  5
1e1
100
AcDbEntity
  8
0
 62
7
100
AcDbPolyline
 90
2
 70
0
 10
315.922660
 20
-92.780206
 30
0.0
 10
312.724800
 20
-92.780206
 30
0.0
  0
LWPOLYLINE
  5
1e2
100
AcDbEntity
  8
0
 62
7
100
AcDbPolyline
 90
2
 70
0
 10
312.524140
 20
-92.579546
 30
0.0
 10
312.524140
 20
-89.780466
 30
0.0
  0
LWPOLYLINE
  5
1e3
100
AcDbEntity
  8
0
 62
7
100
AcDbPolyline
 90
2
 70
0
 10
315.922660
 20
-89.579806
 30
0.0
 10
312.724800
 20
-89.579806
 30
0.0
  0
SPLINE
  5
1e4
100
AcDbEntity
  8
0
 62
7
100
AcDbSpline
 70
8
 71
3
 72
8
 73
4
 74
0
 40
0
 40
0
 40
0
 40
0
 40
1
 40
1
 40
1
 40
1
 10
312.724800
 20
-89.580568
 30
0.0
 10
312.671616
 20
-89.580392
 30
0.0
 10
312.620553
 20
-89.601407
 30
0.0
 10
312.582898
 20
-89.638966
 30
0.0
  0
SPLINE
  5
1e5
100
AcDbEntity
  8
0
 62
7
100
AcDbSpline
 70
8
 71
3
 72
8
 73
4
 74
0
 40
0
 40
0
 40
0
 40
0
 40
1
 40
1
 40
1
 40
1
 10
312.582898
 20
-89.638966
 30
0.0
 10
312.545243
 20
-89.676525
 30
0.0
 10
312.524099
 20
-89.727535
 30
0.0
 10
312.524140
 20
-89.780720
 30
0.0
  0
SPLINE
  5
1e6
100
AcDbEntity
  8
0
 62
7
100
AcDbSpline
 70
8
 71
3
 72
8
 73
4
 74
0
 40
0
 40
0
 40
0
 40
0
 40
1
 40
1
 40
1
 40
1
 10
316.125860
 20
-89.780720
 30
0.0
 10
316.125901
 20
-89.727535
 30
0.0
 10
316.104757
 20
-89.676525
 30
0.0
 10
316.067102
 20
-89.638966
 30
0.0
  0
SPLINE
  5
1e7
100
AcDbEntity
  8
0
 62
7
100
AcDbSpline
 70
8
 71
3
 72
8
 73
4
 74
0
 40
0
 40
0
 40
0
 40
0
 40
1
 40
1
 40
1
 40
1
 10
316.067102
 20
-89.638966
 30
0.0
 10
316.029447
 20
-89.601407
 30
0.0
 10
315.978384
 20
-89.580392
 30
0.0
 10
315.925200
 20
-89.580568
 30
0.0
  0
SPLINE
  5
1e8
100
AcDbEntity
  8
0
 62
7
100
AcDbSpline
 70
8
 71
3
 72
8
 73
4
 74
0
 40
0
 40
0
 40
0
 40
0
 40
1
 40
1
 40
1
 40
1
 10
312.524140
 20
-92.580562
 30
0.0
 10
312.524099
 20
-92.633746
 30
0.0
 10
312.545243
 20
-92.684756
 30
0.0
 10
312.582898
 20
-92.722315
 30
0.0
  0
SPLINE
  5
1e9
100
AcDbEntity
  8
0
 62
7
100
AcDbSpline
 70
8
 71
3
 72
8
 73
4
 74
0
 40
0
 40
0
 40
0
 40
0
 40
1
 40
1
 40
1
 40
1
 10
312.582898
 20
-92.722315
 30
0.0
 10
312.620553
 20
-92.759874
 30
0.0
 10
312.671616
 20
-92.780889
 30
0.0
 10
312.724800
 20
-92.780714
 30
0.0
  0
SPLINE
  5
1ea
100
AcDbEntity
  8
0
 62
7
100
AcDbSpline
 70
8
 71
3
 72
8
 73
4
 74
0
 40
0
 40
0
 40
0
 40
0
 40
1
 40
1
 40
1
 40
1
 10
315.925200
 20
-92.780714
 30
0.0
 10
315.978384
 20
-92.780889
 30
0.0
 10
316.029447
 20
-92.759874
 30
0.0
 10
316.067102
 20
-92.722315
 30
0.0
  0
SPLINE
  5
1eb
100
AcDbEntity
  8
0
 62
7
100
AcDbSpline
 70
8
 71
3
 72
8
 73
4
 74
0
 40
0
 40
0
 40
0
 40
0
 40
1
 40
1
 40
1
 40
1
 10
316.067102
 20
-92.722315
 30
0.0
 10
316.104757
 20
-92.684756
 30
0.0
 10
316.125901
 20
-92.633746
 30
0.0
 10
316.125860
 20
-92.580562
 30
0.0
  0
LWPOLYLINE
  5
1ec
100
AcDbEntity
  8
0
 62
7
100
AcDbPolyline
 90
2
 70
0
 10
316.123320
 20
-92.579546
 30
0.0
 10
316.123320
 20
-89.780466
 30
0.0
  0
LWPOLYLINE
  5
1ed
100
AcDbEntity
  8
0
 62
7
100
AcDbPolyline
 90
2
 70
0
 10
296.872660
 20
-92.780206
 30
0.0
 10
293.674800
 20
-92.780206
 30
0.0
  0
LWPOLYLINE
  5
1ee
100
AcDbEntity
  8
0
 62
7
100
AcDbPolyline
 90
2
 70
0
 10
293.474140
 20
-92.579546
 30
0.0
 10
293.474140
 20
-89.780466
 30
0.0
  0
LWPOLYLINE
  5
1ef
100
AcDbEntity
  8
0
 62
7
100
AcDbPolyline
 90
2
 70
0
 10
296.872660
 20
-89.579806
 30
0.0
 10
293.674800
 20
-89.579806
 30
0.0
  0
SPLINE
  5
1f0
100
AcDbEntity
  8
0
 62
7
100
AcDbSpline
 70
8
 71
3
 72
8
 73
4
 74
0
 40
0
 40
0
 40
0
 40
0
 40
1
 40
1
 40
1
 40
1
 10
293.674800
 20
-89.580568
 30
0.0
 10
293.621616
 20
-89.580392
 30
0.0
 10
293.570553
 20
-89.601407
 30
0.0
 10
293.532898
 20
-89.638966
 30
0.0
  0
SPLINE
  5
1f1
100
AcDbEntity
  8
0
 62
7
100
AcDbSpline
 70
8
 71
3
 72
8
 73
4
 74
0
 40
0
 40
0
 40
0
 40
0
 40
1
 40
1
 40
1
 40
1
 10
293.532898
 20
-89.638966
 30
0.0
 10
293.495243
 20
-89.676525
 30
0.0
 10
293.474099
 20
-89.727535
 30
0.0
 10
293.474140
 20
-89.780720
 30
0.0
  0
SPLINE
  5
1f2
100
AcDbEntity
  8
0
 62
7
100
AcDbSpline
 70
8
 71
3
 72
8
 73
4
 74
0
 40
0
 40
0
 40
0
 40
0
 40
1
 40
1
 40
1
 40
1
 10
297.075860
 20
-89.780720
 30
0.0
 10
297.075901
 20
-89.727535
 30
0.0
 10
297.054757
 20
-89.676525
 30
0.0
 10
297.017102
 20
-89.638966
 30
0.0
  0
SPLINE
  5
1f3
100
AcDbEntity
  8
0
 62
7
100
AcDbSpline
 70
8
 71
3
 72
8
 73
4
 74
0
 40
0
 40
0
 40
0
 40
0
 40
1
 40
1
 40
1
 40
1
 10
297.017102
 20
-89.638966
 30
0.0
 10
296.979447
 20
-89.601407
 30
0.0
 10
296.928384
 20
-89.580392
 30
0.0
 10
296.875200
 20
-89.580568
 30
0.0
  0
SPLINE
  5
1f4
100
AcDbEntity
  8
0
 62
7
100
AcDbSpline
 70
8
 71
3
 72
8
 73
4
 74
0
 40
0
 40
0
 40
0
 40
0
 40
1
 40
1
 40
1
 40
1
 10
293.474140
 20
-92.580562
 30
0.0
 10
293.474099
 20
-92.633746
 30
0.0
 10
293.495243
 20
-92.684756
 30
0.0
 10
293.532898
 20
-92.722315
 30
0.0
  0
SPLINE
  5
1f5
100
AcDbEntity
  8
0
 62
7
100
AcDbSpline
 70
8
 71
3
 72
8
 73
4
 74
0
 40
0
 40
0
 40
0
 40
0
 40
1
 40
1
 40
1
 40
1
 10
293.532898
 20
-92.722315
 30
0.0
 10
293.570553
 20
-92.759874
 30
0.0
 10
293.621616
 20
-92.780889
 30
0.0
 10
293.674800
 20
-92.780714
 30
0.0
  0
SPLINE
  5
1f6
100
AcDbEntity
  8
0
 62
7
100
AcDbSpline
 70
8
 71
3
 72
8
 73
4
 74
0
 40
0
 40
0
 40
0
 40
0
 40
1
 40
1
 40
1
 40
1
 10
296.875200
 20
-92.780714
 30
0.0
 10
296.928384
 20
-92.780889
 30
0.0
 10
296.979447
 20
-92.759874
 30
0.0
 10
297.017102
 20
-92.722315
 30
0.0
  0
SPLINE
  5
1f7
100
AcDbEntity
  8
0
 62
7
100
AcDbSpline
 70
8
 71
3
 72
8
 73
4
 74
0
 40
0
 40
0
 40
0
 40
0
 40
1
 40
1
 40
1
 40
1
 10
297.017102
 20
-92.722315
 30
0.0
 10
297.054757
 20
-92.684756
 30
0.0
 10
297.075901
 20
-92.633746
 30
0.0
 10
297.075860
 20
-92.580562
 30
0.0
  0
LWPOLYLINE
  5
1f8
100
AcDbEntity
  8
0
 62
7
100
AcDbPolyline
 90
2
 70
0
 10
297.073320
 20
-92.579546
 30
0.0
 10
297.073320
 20
-89.780466
 30
0.0
  0
LWPOLYLINE
  5
1f9
100
AcDbEntity
  8
0
 62
7
100
AcDbPolyline
 90
2
 70
0
 10
277.822660
 20
-92.780206
 30
0.0
 10
274.624800
 20
-92.780206
 30
0.0
  0
LWPOLYLINE
  5
1fa
100
AcDbEntity
  8
0
 62
7
100
AcDbPolyline
 90
2
 70
0
 10
274.424140
 20
-92.579546
 30
0.0
 10
274.424140
 20
-89.780466
 30
0.0
  0
LWPOLYLINE
  5
1fb
100
AcDbEntity
  8
0
 62
7
100
AcDbPolyline
 90
2
 70
0
 10
277.822660
 20
-89.579806
 30
0.0
 10
274.624800
 20
-89.579806
 30
0.0
  0
SPLINE
  5
1fc
100
AcDbEntity
  8
0
 62
7
100
AcDbSpline
 70
8
 71
3
 72
8
 73
4
 74
0
 40
0
 40
0
 40
0
 40
0
 40
1
 40
1
 40
1
 40
1
 10
274.624800
 20
-89.580568
 30
0.0
 10
274.571616
 20
-89.580392
 30
0.0
 10
274.520553
 20
-89.601407
 30
0.0
 10
274.482898
 20
-89.638966
 30
0.0
  0
SPLINE
  5
1fd
100
AcDbEntity
  8
0
 62
7
100
AcDbSpline
 70
8
 71
3
 72
8
 73
4
 74
0
 40
0
 40
0
 40
0
 40
0
 40
1
 40
1
 40
1
 40
1
 10
274.482898
 20
-89.638966
 30
0.0
 10
274.445243
 20
-89.676525
 30
0.0
 10
274.424099
 20
-89.727535
 30
0.0
 10
274.424140
 20
-89.780720
 30
0.0
  0
SPLINE
  5
1fe
100
AcDbEntity
  8
0
 62
7
100
AcDbSpline
 70
8
 71
3
 72
8
 73
4
 74
0
 40
0
 40
0
 40
0
 40
0
 40
1
 40
1
 40
1
 40
1
 10
278.025860
 20
-89.780720
 30
0.0
 10
278.025901
 20
-89.727535
 30
0.0
 10
278.004757
 20
-89.676525
 30
0.0
 10
277.967102
 20
-89.638966
 30
0.0
  0
SPLINE
  5
1ff
100
AcDbEntity
  8
0
 62
7
100
AcDbSpline
 70
8
 71
3
 72
8
 73
4
 74
0
 40
0
 40
0
 40
0
 40
0
 40
1
 40
1
 40
1
 40
1
 10
277.967102
 20
-89.638966
 30
0.0
 10
277.929447
 20
-89.601407
 30
0.0
 10
277.878384
 20
-89.580392
 30
0.0
 10
277.825200
 20
-89.580568
 30
0.0
  0
SPLINE
  5
200
100
AcDbEntity
  8
0
 62
7
100
AcDbSpline
 70
8
 71
3
 72
8
 73
4
 74
0
 40
0
 40
0
 40
0
 40
0
 40
1
 40
1
 40
1
 40
1
 10
274.424140
 20
-92.580562
 30
0.0
 10
274.424099
 20
-92.633746
 30
0.0
 10
274.445243
 20
-92.684756
 30
0.0
 10
274.482898
 20
-92.722315
 30
0.0
  0
SPLINE
  5
201
100
AcDbEntity
  8
0
 62
7
100
AcDbSpline
 70
8
 71
3
 72
8
 73
4
 74
0
 40
0
 40
0
 40
0
 40
0
 40
1
 40
1
 40
1
 40
1
 10
274.482898
 20
-92.722315
 30
0.0
 10
274.520553
 20
-92.759874
 30
0.0
 10
274.571616
 20
-92.780889
 30
0.0
 10
274.624800
 20
-92.780714
 30
0.0
  0
SPLINE
  5
202
100
AcDbEntity
  8
0
 62
7
100
AcDbSpline
 70
8
 71
3
 72
8
 73
4
 74
0
 40
0
 40
0
 40
0
 40
0
 40
1
 40
1
 40
1
 40
1
 10
277.825200
 20
-92.780714
 30
0.0
 10
277.878384
 20
-92.780889
 30
0.0
 10
277.929447
 20
-92.759874
 30
0.0
 10
277.967102
 20
-92.722315
 30
0.0
  0
SPLINE
  5
203
100
AcDbEntity
  8
0
 62
7
100
AcDbSpline
 70
8
 71
3
 72
8
 73
4
 74
0
 40
0
 40
0
 40
0
 40
0
 40
1
 40
1
 40
1
 40
1
 10
277.967102
 20
-92.722315
 30
0.0
 10
278.004757
 20
-92.684756
 30
0.0
 10
278.025901
 20
-92.633746
 30
0.0
 10
278.025860
 20
-92.580562
 30
0.0
  0
LWPOLYLINE
  5
204
100
AcDbEntity
  8
0
 62
7
100
AcDbPolyline
 90
2
 70
0
 10
278.023320
 20
-92.579546
 30
0.0
 10
278.023320
 20
-89.780466
 30
0.0
  0
LWPOLYLINE
  5
205
100
AcDbEntity
  8
0
 62
7
100
AcDbPolyline
 90
2
 70
0
 10
258.772660
 20
-92.780206
 30
0.0
 10
255.574800
 20
-92.780206
 30
0.0
  0
LWPOLYLINE
  5
206
100
AcDbEntity
  8
0
 62
7
100
AcDbPolyline
 90
2
 70
0
 10
255.374140
 20
-92.579546
 30
0.0
 10
255.374140
 20
-89.780466
 30
0.0
  0
LWPOLYLINE
  5
207
100
AcDbEntity
  8
0
 62
7
100
AcDbPolyline
 90
2
 70
0
 10
258.772660
 20
-89.579806
 30
0.0
 10
255.574800
 20
-89.579806
 30
0.0
  0
SPLINE
  5
208
100
AcDbEntity
  8
0
 62
7
100
AcDbSpline
 70
8
 71
3
 72
8
 73
4
 74
0
 40
0
 40
0
 40
0
 40
0
 40
1
 40
1
 40
1
 40
1
 10
255.574800
 20
-89.580568
 30
0.0
 10
255.521616
 20
-89.580392
 30
0.0
 10
255.470553
 20
-89.601407
 30
0.0
 10
255.432898
 20
-89.638966
 30
0.0
  0
SPLINE
  5
209
100
AcDbEntity
  8
0
 62
7
100
AcDbSpline
 70
8
 71
3
 72
8
 73
4
 74
0
 40
0
 40
0
 40
0
 40
0
 40
1
 40
1
 40
1
 40
1
 10
255.432898
 20
-89.638966
 30
0.0
 10
255.395243
 20
-89.676525
 30
0.0
 10
255.374099
 20
-89.727535
 30
0.0
 10
255.374140
 20
-89.780720
 30
0.0
  0
SPLINE
  5
20a
100
AcDbEntity
  8
0
 62
7
100
AcDbSpline
 70
8
 71
3
 72
8
 73
4
 74
0
 40
0
 40
0
 40
0
 40
0
 40
1
 40
1
 40
1
 40
1
 10
258.975860
 20
-89.780720
 30
0.0
 10
258.975901
 20
-89.727535
 30
0.0
 10
258.954757
 20
-89.676525
 30
0.0
 10
258.917102
 20
-89.638966
 30
0.0
  0
SPLINE
  5
20b
100
AcDbEntity
  8
0
 62
7
100
AcDbSpline
 70
8
 71
3
 72
8
 73
4
 74
0
 40
0
 40
0
 40
0
 40
0
 40
1
 40
1
 40
1
 40
1
 10
258.917102
 20
-89.638966
 30
0.0
 10
258.879447
 20
-89.601407
 30
0.0
 10
258.828384
 20
-89.580392
 30
0.0
 10
258.775200
 20
-89.580568
 30
0.0
  0
SPLINE
  5
20c
100
AcDbEntity
  8
0
 62
7
100
AcDbSpline
 70
8
 71
3
 72
8
 73
4
 74
0
 40
0
 40
0
 40
0
 40
0
 40
1
 40
1
 40
1
 40
1
 10
255.374140
 20
-92.580562
 30
0.0
 10
255.374099
 20
-92.633746
 30
0.0
 10
255.395243
 20
-92.684756
 30
0.0
 10
255.432898
 20
-92.722315
 30
0.0
  0
SPLINE
  5
20d
100
AcDbEntity
  8
0
 62
7
100
AcDbSpline
 70
8
 71
3
 72
8
 73
4
 74
0
 40
0
 40
0
 40
0
 40
0
 40
1
 40
1
 40
1
 40
1
 10
255.432898
 20
-92.722315
 30
0.0
 10
255.470553
 20
-92.759874
 30
0.0
 10
255.521616
 20
-92.780889
 30
0.0
 10
255.574800
 20
-92.780714
 30
0.0
  0
SPLINE
  5
20e
100
AcDbEntity
  8
0
 62
7
100
AcDbSpline
 70
8
 71
3
 72
8
 73
4
 74
0
 40
0
 40
0
 40
0
 40
0
 40
1
 40
1
 40
1
 40
1
 10
258.775200
 20
-92.780714
 30
0.0
 10
258.828384
 20
-92.780889
 30
0.0
 10
258.879447
 20
-92.759874
 30
0.0
 10
258.917102
 20
-92.722315
 30
0.0
  0
SPLINE
  5
20f
100
AcDbEntity
  8
0
 62
7
100
AcDbSpline
 70
8
 71
3
 72
8
 73
4
 74
0
 40
0
 40
0
 40
0
 40
0
 40
1
 40
1
 40
1
 40
1
 10
258.917102
 20
-92.722315
 30
0.0
 10
258.954757
 20
-92.684756
 30
0.0
 10
258.975901
 20
-92.633746
 30
0.0
 10
258.975860
 20
-92.580562
 30
0.0
  0
LWPOLYLINE
  5
210
100
AcDbEntity
  8
0
 62
7
100
AcDbPolyline
 90
2
 70
0
 10
258.973320
 20
-92.579546
 30
0.0
 10
258.973320
 20
-89.780466
 30
0.0
  0
LWPOLYLINE
  5
211
100
AcDbEntity
  8
0
 62
7
100
AcDbPolyline
 90
2
 70
0
 10
334.972660
 20
-73.730206
 30
0.0
 10
331.774800
 20
-73.730206
 30
0.0
  0
LWPOLYLINE
  5
212
100
AcDbEntity
  8
0
 62
7
100
AcDbPolyline
 90
2
 70
0
 10
331.574140
 20
-73.529546
 30
0.0
 10
331.574140
 20
-70.730466
 30
0.0
  0
LWPOLYLINE
  5
213
100
AcDbEntity
  8
0
 62
7
100
AcDbPolyline
 90
2
 70
0
 10
334.972660
 20
-70.529806
 30
0.0
 10
331.774800
 20
-70.529806
 30
0.0
  0
SPLINE
  5
214
100
AcDbEntity
  8
0
 62
7
100
AcDbSpline
 70
8
 71
3
 72
8
 73
4
 74
0
 40
0
 40
0
 40
0
 40
0
 40
1
 40
1
 40
1
 40
1
 10
331.774800
 20
-70.530568
 30
0.0
 10
331.721616
 20
-70.530392
 30
0.0
 10
331.670553
 20
-70.551407
 30
0.0
 10
331.632898
 20
-70.588966
 30
0.0
  0
SPLINE
  5
215
100
AcDbEntity
  8
0
 62
7
100
AcDbSpline
 70
8
 71
3
 72
8
 73
4
 74
0
 40
0
 40
0
 40
0
 40
0
 40
1
 40
1
 40
1
 40
1
 10
331.632898
 20
-70.588966
 30
0.0
 10
331.595243
 20
-70.626525
 30
0.0
 10
331.574099
 20
-70.677535
 30
0.0
 10
331.574140
 20
-70.730720
 30
0.0
  0
SPLINE
  5
216
100
AcDbEntity
  8
0
 62
7
100
AcDbSpline
 70
8
 71
3
 72
8
 73
4
 74
0
 40
0
 40
0
 40
0
 40
0
 40
1
 40
1
 40
1
 40
1
 10
335.175860
 20
-70.730720
 30
0.0
 10
335.175901
 20
-70.677535
 30
0.0
 10
335.154757
 20
-70.626525
 30
0.0
 10
335.117102
 20
-70.588966
 30
0.0
  0
SPLINE
  5
217
100
AcDbEntity
  8
0
 62
7
100
AcDbSpline
 70
8
 71
3
 72
8
 73
4
 74
0
 40
0
 40
0
 40
0
 40
0
 40
1
 40
1
 40
1
 40
1
 10
335.117102
 20
-70.588966
 30
0.0
 10
335.079447
 20
-70.551407
 30
0.0
 10
335.028384
 20
-70.530392
 30
0.0
 10
334.975200
 20
-70.530568
 30
0.0
  0
SPLINE
  5
218
100
AcDbEntity
  8
0
 62
7
100
AcDbSpline
 70
8
 71
3
 72
8
 73
4
 74
0
 40
0
 40
0
 40
0
 40
0
 40
1
 40
1
 40
1
 40
1
 10
331.574140
 20
-73.530562
 30
0.0
 10
331.574099
 20
-73.583746
 30
0.0
 10
331.595243
 20
-73.634756
 30
0.0
 10
331.632898
 20
-73.672315
 30
0.0
  0
SPLINE
  5
219
100
AcDbEntity
  8
0
 62
7
100
AcDbSpline
 70
8
 71
3
 72
8
 73
4
 74
0
 40
0
 40
0
 40
0
 40
0
 40
1
 40
1
 40
1
 40
1
 10
331.632898
 20
-73.672315
 30
0.0
 10
331.670553
 20
-73.709874
 30
0.0
 10
331.721616
 20
-73.730889
 30
0.0
 10
331.774800
 20
-73.730714
 30
0.0
  0
SPLINE
  5
21a
100
AcDbEntity
  8
0
 62
7
100
AcDbSpline
 70
8
 71
3
 72
8
 73
4
 74
0
 40
0
 40
0
 40
0
 40
0
 40
1
 40
1
 40
1
 40
1
 10
334.975200
 20
-73.730714
 30
0.0
 10
335.028384
 20
-73.730889
 30
0.0
 10
335.079447
 20
-73.709874
 30
0.0
 10
335.117102
 20
-73.672315
 30
0.0
  0
SPLINE
  5
21b
100
AcDbEntity
  8
0
 62
7
100
AcDbSpline
 70
8
 71
3
 72
8
 73
4
 74
0
 40
0
 40
0
 40
0
 40
0
 40
1
 40
1
 40
1
 40
1
 10
335.117102
 20
-73.672315
 30
0.0
 10
335.154757
 20
-73.634756
 30
0.0
 10
335.175901
 20
-73.583746
 30
0.0
 10
335.175860
 20
-73.530562
 30
0.0
  0
LWPOLYLINE
  5
21c
100
AcDbEntity
  8
0
 62
7
100
AcDbPolyline
 90
2
 70
0
 10
335.173320
 20
-73.529546
 30
0.0
 10
335.173320
 20
-70.730466
 30
0.0
  0
LWPOLYLINE
  5
21d
100
AcDbEntity
  8
0
 62
7
100
AcDbPolyline
 90
2
 70
0
 10
315.922660
 20
-73.730206
 30
0.0
 10
312.724800
 20
-73.730206
 30
0.0
  0
LWPOLYLINE
  5
21e
100
AcDbEntity
  8
0
 62
7
100
AcDbPolyline
 90
2
 70
0
 10
312.524140
 20
-73.529546
 30
0.0
 10
312.524140
 20
-70.730466
 30
0.0
  0
LWPOLYLINE
  5
21f
100
AcDbEntity
  8
0
 62
7
100
AcDbPolyline
 90
2
 70
0
 10
315.922660
 20
-70.529806
 30
0.0
 10
312.724800
 20
-70.529806
 30
0.0
  0
SPLINE
  5
220
100
AcDbEntity
  8
0
 62
7
100
AcDbSpline
 70
8
 71
3
 72
8
 73
4
 74
0
 40
0
 40
0
 40
0
 40
0
 40
1
 40
1
 40
1
 40
1
 10
312.724800
 20
-70.530568
 30
0.0
 10
312.671616
 20
-70.530392
 30
0.0
 10
312.620553
 20
-70.551407
 30
0.0
 10
312.582898
 20
-70.588966
 30
0.0
  0
SPLINE
  5
221
100
AcDbEntity
  8
0
 62
7
100
AcDbSpline
 70
8
 71
3
 72
8
 73
4
 74
0
 40
0
 40
0
 40
0
 40
0
 40
1
 40
1
 40
1
 40
1
 10
312.582898
 20
-70.588966
 30
0.0
 10
312.545243
 20
-70.626525
 30
0.0
 10
312.524099
 20
-70.677535
 30
0.0
 10
312.524140
 20
-70.730720
 30
0.0
  0
SPLINE
  5
222
100
AcDbEntity
  8
0
 62
7
100
AcDbSpline
 70
8
 71
3
 72
8
 73
4
 74
0
 40
0
 40
0
 40
0
 40
0
 40
1
 40
1
 40
1
 40
1
 10
316.125860
 20
-70.730720
 30
0.0
 10
316.125901
 20
-70.677535
 30
0.0
 10
316.104757
 20
-70.626525
 30
0.0
 10
316.067102
 20
-70.588966
 30
0.0
  0
SPLINE
  5
223
100
AcDbEntity
  8
0
 62
7
100
AcDbSpline
 70
8
 71
3
 72
8
 73
4
 74
0
 40
0
 40
0
 40
0
 40
0
 40
1
 40
1
 40
1
 40
1
 10
316.067102
 20
-70.588966
 30
0.0
 10
316.029447
 20
-70.551407
 30
0.0
 10
315.978384
 20
-70.530392
 30
0.0
 10
315.925200
 20
-70.530568
 30
0.0
  0
SPLINE
  5
224
100
AcDbEntity
  8
0
 62
7
100
AcDbSpline
 70
8
 71
3
 72
8
 73
4
 74
0
 40
0
 40
0
 40
0
 40
0
 40
1
 40
1
 40
1
 40
1
 10
312.524140
 20
-73.530562
 30
0.0
 10
312.524099
 20
-73.583746
 30
0.0
 10
312.545243
 20
-73.634756
 30
0.0
 10
312.582898
 20
-73.672315
 30
0.0
  0
SPLINE
  5
225
100
AcDbEntity
  8
0
 62
7
100
AcDbSpline
 70
8
 71
3
 72
8
 73
4
 74
0
 40
0
 40
0
 40
0
 40
0
 40
1
 40
1
 40
1
 40
1
 10
312.582898
 20
-73.672315
 30
0.0
 10
312.620553
 20
-73.709874
 30
0.0
 10
312.671616
 20
-73.730889
 30
0.0
 10
312.724800
 20
-73.730714
 30
0.0
  0
SPLINE
  5
226
100
AcDbEntity
  8
0
 62
7
100
AcDbSpline
 70
8
 71
3
 72
8
 73
4
 74
0
 40
0
 40
0
 40
0
 40
0
 40
1
 40
1
 40
1
 40
1
 10
315.925200
 20
-73.730714
 30
0.0
 10
315.978384
 20
-73.730889
 30
0.0
 10
316.029447
 20
-73.709874
 30
0.0
 10
316.067102
 20
-73.672315
 30
0.0
  0
SPLINE
  5
227
100
AcDbEntity
  8
0
 62
7
100
AcDbSpline
 70
8
 71
3
 72
8
 73
4
 74
0
 40
0
 40
0
 40
0
 40
0
 40
1
 40
1
 40
1
 40
1
 10
316.067102
 20
-73.672315
 30
0.0
 10
316.104757
 20
-73.634756
 30
0.0
 10
316.125901
 20
-73.583746
 30
0.0
 10
316.125860
 20
-73.530562
 30
0.0
  0
LWPOLYLINE
  5
228
100
AcDbEntity
  8
0
 62
7
100
AcDbPolyline
 90
2
 70
0
 10
316.123320
 20
-73.529546
 30
0.0
 10
316.123320
 20
-70.730466
 30
0.0
  0
LWPOLYLINE
  5
229
100
AcDbEntity
  8
0
 62
7
100
AcDbPolyline
 90
2
 70
0
 10
296.872660
 20
-73.730206
 30
0.0
 10
293.674800
 20
-73.730206
 30
0.0
  0
LWPOLYLINE
  5
22a
100
AcDbEntity
  8
0
 62
7
100
AcDbPolyline
 90
2
 70
0
 10
293.474140
 20
-73.529546
 30
0.0
 10
293.474140
 20
-70.730466
 30
0.0
  0
LWPOLYLINE
  5
22b
100
AcDbEntity
  8
0
 62
7
100
AcDbPolyline
 90
2
 70
0
 10
296.872660
 20
-70.529806
 30
0.0
 10
293.674800
 20
-70.529806
 30
0.0
  0
SPLINE
  5
22c
100
AcDbEntity
  8
0
 62
7
100
AcDbSpline
 70
8
 71
3
 72
8
 73
4
 74
0
 40
0
 40
0
 40
0
 40
0
 40
1
 40
1
 40
1
 40
1
 10
293.674800
 20
-70.530568
 30
0.0
 10
293.621616
 20
-70.530392
 30
0.0
 10
293.570553
 20
-70.551407
 30
0.0
 10
293.532898
 20
-70.588966
 30
0.0
  0
SPLINE
  5
22d
100
AcDbEntity
  8
0
 62
7
100
AcDbSpline
 70
8
 71
3
 72
8
 73
4
 74
0
 40
0
 40
0
 40
0
 40
0
 40
1
 40
1
 40
1
 40
1
 10
293.532898
 20
-70.588966
 30
0.0
 10
293.495243
 20
-70.626525
 30
0.0
 10
293.474099
 20
-70.677535
 30
0.0
 10
293.474140
 20
-70.730720
 30
0.0
  0
SPLINE
  5
22e
100
AcDbEntity
  8
0
 62
7
100
AcDbSpline
 70
8
 71
3
 72
8
 73
4
 74
0
 40
0
 40
0
 40
0
 40
0
 40
1
 40
1
 40
1
 40
1
 10
297.075860
 20
-70.730720
 30
0.0
 10
297.075901
 20
-70.677535
 30
0.0
 10
297.054757
 20
-70.626525
 30
0.0
 10
297.017102
 20
-70.588966
 30
0.0
  0
SPLINE
  5
22f
100
AcDbEntity
  8
0
 62
7
100
AcDbSpline
 70
8
 71
3
 72
8
 73
4
 74
0
 40
0
 40
0
 40
0
 40
0
 40
1
 40
1
 40
1
 40
1
 10
297.017102
 20
-70.588966
 30
0.0
 10
296.979447
 20
-70.551407
 30
0.0
 10
296.928384
 20
-70.530392
 30
0.0
 10
296.875200
 20
-70.530568
 30
0.0
  0
SPLINE
  5
230
100
AcDbEntity
  8
0
 62
7
100
AcDbSpline
 70
8
 71
3
 72
8
 73
4
 74
0
 40
0
 40
0
 40
0
 40
0
 40
1
 40
1
 40
1
 40
1
 10
293.474140
 20
-73.530562
 30
0.0
 10
293.474099
 20
-73.583746
 30
0.0
 10
293.495243
 20
-73.634756
 30
0.0
 10
293.532898
 20
-73.672315
 30
0.0
  0
SPLINE
  5
231
100
AcDbEntity
  8
0
 62
7
100
AcDbSpline
 70
8
 71
3
 72
8
 73
4
 74
0
 40
0
 40
0
 40
0
 40
0
 40
1
 40
1
 40
1
 40
1
 10
293.532898
 20
-73.672315
 30
0.0
 10
293.570553
 20
-73.709874
 30
0.0
 10
293.621616
 20
-73.730889
 30
0.0
 10
293.674800
 20
-73.730714
 30
0.0
  0
SPLINE
  5
232
100
AcDbEntity
  8
0
 62
7
100
AcDbSpline
 70
8
 71
3
 72
8
 73
4
 74
0
 40
0
 40
0
 40
0
 40
0
 40
1
 40
1
 40
1
 40
1
 10
296.875200
 20
-73.730714
 30
0.0
 10
296.928384
 20
-73.730889
 30
0.0
 10
296.979447
 20
-73.709874
 30
0.0
 10
297.017102
 20
-73.672315
 30
0.0
  0
SPLINE
  5
233
100
AcDbEntity
  8
0
 62
7
100
AcDbSpline
 70
8
 71
3
 72
8
 73
4
 74
0
 40
0
 40
0
 40
0
 40
0
 40
1
 40
1
 40
1
 40
1
 10
297.017102
 20
-73.672315
 30
0.0
 10
297.054757
 20
-73.634756
 30
0.0
 10
297.075901
 20
-73.583746
 30
0.0
 10
297.075860
 20
-73.530562
 30
0.0
  0
LWPOLYLINE
  5
234
100
AcDbEntity
  8
0
 62
7
100
AcDbPolyline
 90
2
 70
0
 10
297.073320
 20
-73.529546
 30
0.0
 10
297.073320
 20
-70.730466
 30
0.0
  0
LWPOLYLINE
  5
235
100
AcDbEntity
  8
0
 62
7
100
AcDbPolyline
 90
2
 70
0
 10
277.822660
 20
-73.730206
 30
0.0
 10
274.624800
 20
-73.730206
 30
0.0
  0
LWPOLYLINE
  5
236
100
AcDbEntity
  8
0
 62
7
100
AcDbPolyline
 90
2
 70
0
 10
274.424140
 20
-73.529546
 30
0.0
 10
274.424140
 20
-70.730466
 30
0.0
  0
LWPOLYLINE
  5
237
100
AcDbEntity
  8
0
 62
7
100
AcDbPolyline
 90
2
 70
0
 10
277.822660
 20
-70.529806
 30
0.0
 10
274.624800
 20
-70.529806
 30
0.0
  0
SPLINE
  5
238
100
AcDbEntity
  8
0
 62
7
100
AcDbSpline
 70
8
 71
3
 72
8
 73
4
 74
0
 40
0
 40
0
 40
0
 40
0
 40
1
 40
1
 40
1
 40
1
 10
274.624800
 20
-70.530568
 30
0.0
 10
274.571616
 20
-70.530392
 30
0.0
 10
274.520553
 20
-70.551407
 30
0.0
 10
274.482898
 20
-70.588966
 30
0.0
  0
SPLINE
  5
239
100
AcDbEntity
  8
0
 62
7
100
AcDbSpline
 70
8
 71
3
 72
8
 73
4
 74
0
 40
0
 40
0
 40
0
 40
0
 40
1
 40
1
 40
1
 40
1
 10
274.482898
 20
-70.588966
 30
0.0
 10
274.445243
 20
-70.626525
 30
0.0
 10
274.424099
 20
-70.677535
 30
0.0
 10
274.424140
 20
-70.730720
 30
0.0
  0
SPLINE
  5
23a
100
AcDbEntity
  8
0
 62
7
100
AcDbSpline
 70
8
 71
3
 72
8
 73
4
 74
0
 40
0
 40
0
 40
0
 40
0
 40
1
 40
1
 40
1
 40
1
 10
278.025860
 20
-70.730720
 30
0.0
 10
278.025901
 20
-70.677535
 30
0.0
 10
278.004757
 20
-70.626525
 30
0.0
 10
277.967102
 20
-70.588966
 30
0.0
  0
SPLINE
  5
23b
100
AcDbEntity
  8
0
 62
7
100
AcDbSpline
 70
8
 71
3
 72
8
 73
4
 74
0
 40
0
 40
0
 40
0
 40
0
 40
1
 40
1
 40
1
 40
1
 10
277.967102
 20
-70.588966
 30
0.0
 10
277.929447
 20
-70.551407
 30
0.0
 10
277.878384
 20
-70.530392
 30
0.0
 10
277.825200
 20
-70.530568
 30
0.0
  0
SPLINE
  5
23c
100
AcDbEntity
  8
0
 62
7
100
AcDbSpline
 70
8
 71
3
 72
8
 73
4
 74
0
 40
0
 40
0
 40
0
 40
0
 40
1
 40
1
 40
1
 40
1
 10
274.424140
 20
-73.530562
 30
0.0
 10
274.424099
 20
-73.583746
 30
0.0
 10
274.445243
 20
-73.634756
 30
0.0
 10
274.482898
 20
-73.672315
 30
0.0
  0
SPLINE
  5
23d
100
AcDbEntity
  8
0
 62
7
100
AcDbSpline
 70
8
 71
3
 72
8
 73
4
 74
0
 40
0
 40
0
 40
0
 40
0
 40
1
 40
1
 40
1
 40
1
 10
274.482898
 20
-73.672315
 30
0.0
 10
274.520553
 20
-73.709874
 30
0.0
 10
274.571616
 20
-73.730889
 30
0.0
 10
274.624800
 20
-73.730714
 30
0.0
  0
SPLINE
  5
23e
100
AcDbEntity
  8
0
 62
7
100
AcDbSpline
 70
8
 71
3
 72
8
 73
4
 74
0
 40
0
 40
0
 40
0
 40
0
 40
1
 40
1
 40
1
 40
1
 10
277.825200
 20
-73.730714
 30
0.0
 10
277.878384
 20
-73.730889
 30
0.0
 10
277.929447
 20
-73.709874
 30
0.0
 10
277.967102
 20
-73.672315
 30
0.0
  0
SPLINE
  5
23f
100
AcDbEntity
  8
0
 62
7
100
AcDbSpline
 70
8
 71
3
 72
8
 73
4
 74
0
 40
0
 40
0
 40
0
 40
0
 40
1
 40
1
 40
1
 40
1
 10
277.967102
 20
-73.672315
 30
0.0
 10
278.004757
 20
-73.634756
 30
0.0
 10
278.025901
 20
-73.583746
 30
0.0
 10
278.025860
 20
-73.530562
 30
0.0
  0
LWPOLYLINE
  5
240
100
AcDbEntity
  8
0
 62
7
100
AcDbPolyline
 90
2
 70
0
 10
278.023320
 20
-73.529546
 30
0.0
 10
278.023320
 20
-70.730466
 30
0.0
  0
LWPOLYLINE
  5
241
100
AcDbEntity
  8
0
 62
7
100
AcDbPolyline
 90
2
 70
0
 10
258.772660
 20
-73.730206
 30
0.0
 10
255.574800
 20
-73.730206
 30
0.0
  0
LWPOLYLINE
  5
242
100
AcDbEntity
  8
0
 62
7
100
AcDbPolyline
 90
2
 70
0
 10
255.374140
 20
-73.529546
 30
0.0
 10
255.374140
 20
-70.730466
 30
0.0
  0
LWPOLYLINE
  5
243
100
AcDbEntity
  8
0
 62
7
100
AcDbPolyline
 90
2
 70
0
 10
258.772660
 20
-70.529806
 30
0.0
 10
255.574800
 20
-70.529806
 30
0.0
  0
SPLINE
  5
244
100
AcDbEntity
  8
0
 62
7
100
AcDbSpline
 70
8
 71
3
 72
8
 73
4
 74
0
 40
0
 40
0
 40
0
 40
0
 40
1
 40
1
 40
1
 40
1
 10
255.574800
 20
-70.530568
 30
0.0
 10
255.521616
 20
-70.530392
 30
0.0
 10
255.470553
 20
-70.551407
 30
0.0
 10
255.432898
 20
-70.588966
 30
0.0
  0
SPLINE
  5
245
100
AcDbEntity
  8
0
 62
7
100
AcDbSpline
 70
8
 71
3
 72
8
 73
4
 74
0
 40
0
 40
0
 40
0
 40
0
 40
1
 40
1
 40
1
 40
1
 10
255.432898
 20
-70.588966
 30
0.0
 10
255.395243
 20
-70.626525
 30
0.0
 10
255.374099
 20
-70.677535
 30
0.0
 10
255.374140
 20
-70.730720
 30
0.0
  0
SPLINE
  5
246
100
AcDbEntity
  8
0
 62
7
100
AcDbSpline
 70
8
 71
3
 72
8
 73
4
 74
0
 40
0
 40
0
 40
0
 40
0
 40
1
 40
1
 40
1
 40
1
 10
258.975860
 20
-70.730720
 30
0.0
 10
258.975901
 20
-70.677535
 30
0.0
 10
258.954757
 20
-70.626525
 30
0.0
 10
258.917102
 20
-70.588966
 30
0.0
  0
SPLINE
  5
247
100
AcDbEntity
  8
0
 62
7
100
AcDbSpline
 70
8
 71
3
 72
8
 73
4
 74
0
 40
0
 40
0
 40
0
 40
0
 40
1
 40
1
 40
1
 40
1
 10
258.917102
 20
-70.588966
 30
0.0
 10
258.879447
 20
-70.551407
 30
0.0
 10
258.828384
 20
-70.530392
 30
0.0
 10
258.775200
 20
-70.530568
 30
0.0
  0
SPLINE
  5
248
100
AcDbEntity
  8
0
 62
7
100
AcDbSpline
 70
8
 71
3
 72
8
 73
4
 74
0
 40
0
 40
0
 40
0
 40
0
 40
1
 40
1
 40
1
 40
1
 10
255.374140
 20
-73.530562
 30
0.0
 10
255.374099
 20
-73.583746
 30
0.0
 10
255.395243
 20
-73.634756
 30
0.0
 10
255.432898
 20
-73.672315
 30
0.0
  0
SPLINE
  5
249
100
AcDbEntity
  8
0
 62
7
100
AcDbSpline
 70
8
 71
3
 72
8
 73
4
 74
0
 40
0
 40
0
 40
0
 40
0
 40
1
 40
1
 40
1
 40
1
 10
255.432898
 20
-73.672315
 30
0.0
 10
255.470553
 20
-73.709874
 30
0.0
 10
255.521616
 20
-73.730889
 30
0.0
 10
255.574800
 20
-73.730714
 30
0.0
  0
SPLINE
  5
24a
100
AcDbEntity
  8
0
 62
7
100
AcDbSpline
 70
8
 71
3
 72
8
 73
4
 74
0
 40
0
 40
0
 40
0
 40
0
 40
1
 40
1
 40
1
 40
1
 10
258.775200
 20
-73.730714
 30
0.0
 10
258.828384
 20
-73.730889
 30
0.0
 10
258.879447
 20
-73.709874
 30
0.0
 10
258.917102
 20
-73.672315
 30
0.0
  0
SPLINE
  5
24b
100
AcDbEntity
  8
0
 62
7
100
AcDbSpline
 70
8
 71
3
 72
8
 73
4
 74
0
 40
0
 40
0
 40
0
 40
0
 40
1
 40
1
 40
1
 40
1
 10
258.917102
 20
-73.672315
 30
0.0
 10
258.954757
 20
-73.634756
 30
0.0
 10
258.975901
 20
-73.583746
 30
0.0
 10
258.975860
 20
-73.530562
 30
0.0
  0
LWPOLYLINE
  5
24c
100
AcDbEntity
  8
0
 62
7
100
AcDbPolyline
 90
2
 70
0
 10
258.973320
 20
-73.529546
 30
0.0
 10
258.973320
 20
-70.730466
 30
0.0
  0
LWPOLYLINE
  5
24d
100
AcDbEntity
  8
0
 62
7
100
AcDbPolyline
 90
2
 70
0
 10
354.022660
 20
-54.680206
 30
0.0
 10
350.824800
 20
-54.680206
 30
0.0
  0
LWPOLYLINE
  5
24e
100
AcDbEntity
  8
0
 62
7
100
AcDbPolyline
 90
2
 70
0
 10
350.624140
 20
-54.479546
 30
0.0
 10
350.624140
 20
-51.680466
 30
0.0
  0
LWPOLYLINE
  5
24f
100
AcDbEntity
  8
0
 62
7
100
AcDbPolyline
 90
2
 70
0
 10
354.022660
 20
-51.479806
 30
0.0
 10
350.824800
 20
-51.479806
 30
0.0
  0
SPLINE
  5
250
100
AcDbEntity
  8
0
 62
7
100
AcDbSpline
 70
8
 71
3
 72
8
 73
4
 74
0
 40
0
 40
0
 40
0
 40
0
 40
1
 40
1
 40
1
 40
1
 10
350.824800
 20
-51.480568
 30
0.0
 10
350.771616
 20
-51.480392
 30
0.0
 10
350.720553
 20
-51.501407
 30
0.0
 10
350.682898
 20
-51.538966
 30
0.0
  0
SPLINE
  5
251
100
AcDbEntity
  8
0
 62
7
100
AcDbSpline
 70
8
 71
3
 72
8
 73
4
 74
0
 40
0
 40
0
 40
0
 40
0
 40
1
 40
1
 40
1
 40
1
 10
350.682898
 20
-51.538966
 30
0.0
 10
350.645243
 20
-51.576525
 30
0.0
 10
350.624099
 20
-51.627535
 30
0.0
 10
350.624140
 20
-51.680720
 30
0.0
  0
SPLINE
  5
252
100
AcDbEntity
  8
0
 62
7
100
AcDbSpline
 70
8
 71
3
 72
8
 73
4
 74
0
 40
0
 40
0
 40
0
 40
0
 40
1
 40
1
 40
1
 40
1
 10
354.225860
 20
-51.680720
 30
0.0
 10
354.225901
 20
-51.627535
 30
0.0
 10
354.204757
 20
-51.576525
 30
0.0
 10
354.167102
 20
-51.538966
 30
0.0
  0
SPLINE
  5
253
100
AcDbEntity
  8
0
 62
7
100
AcDbSpline
 70
8
 71
3
 72
8
 73
4
 74
0
 40
0
 40
0
 40
0
 40
0
 40
1
 40
1
 40
1
 40
1
 10
354.167102
 20
-51.538966
 30
0.0
 10
354.129447
 20
-51.501407
 30
0.0
 10
354.078384
 20
-51.480392
 30
0.0
 10
354.025200
 20
-51.480568
 30
0.0
  0
SPLINE
  5
254
100
AcDbEntity
  8
0
 62
7
100
AcDbSpline
 70
8
 71
3
 72
8
 73
4
 74
0
 40
0
 40
0
 40
0
 40
0
 40
1
 40
1
 40
1
 40
1
 10
350.624140
 20
-54.480562
 30
0.0
 10
350.624099
 20
-54.533746
 30
0.0
 10
350.645243
 20
-54.584756
 30
0.0
 10
350.682898
 20
-54.622315
 30
0.0
  0
SPLINE
  5
255
100
AcDbEntity
  8
0
 62
7
100
AcDbSpline
 70
8
 71
3
 72
8
 73
4
 74
0
 40
0
 40
0
 40
0
 40
0
 40
1
 40
1
 40
1
 40
1
 10
350.682898
 20
-54.622315
 30
0.0
 10
350.720553
 20
-54.659874
 30
0.0
 10
350.771616
 20
-54.680889
 30
0.0
 10
350.824800
 20
-54.680714
 30
0.0
  0
SPLINE
  5
256
100
AcDbEntity
  8
0
 62
7
100
AcDbSpline
 70
8
 71
3
 72
8
 73
4
 74
0
 40
0
 40
0
 40
0
 40
0
 40
1
 40
1
 40
1
 40
1
 10
354.025200
 20
-54.680714
 30
0.0
 10
354.078384
 20
-54.680889
 30
0.0
 10
354.129447
 20
-54.659874
 30
0.0
 10
354.167102
 20
-54.622315
 30
0.0
  0
SPLINE
  5
257
100
AcDbEntity
  8
0
 62
7
100
AcDbSpline
 70
8
 71
3
 72
8
 73
4
 74
0
 40
0
 40
0
 40
0
 40
0
 40
1
 40
1
 40
1
 40
1
 10
354.167102
 20
-54.622315
 30
0.0
 10
354.204757
 20
-54.584756
 30
0.0
 10
354.225901
 20
-54.533746
 30
0.0
 10
354.225860
 20
-54.480562
 30
0.0
  0
LWPOLYLINE
  5
258
100
AcDbEntity
  8
0
 62
7
100
AcDbPolyline
 90
2
 70
0
 10
354.223320
 20
-54.479546
 30
0.0
 10
354.223320
 20
-51.680466
 30
0.0
  0
LWPOLYLINE
  5
259
100
AcDbEntity
  8
0
 62
7
100
AcDbPolyline
 90
2
 70
0
 10
334.972660
 20
-54.680206
 30
0.0
 10
331.774800
 20
-54.680206
 30
0.0
  0
LWPOLYLINE
  5
25a
100
AcDbEntity
  8
0
 62
7
100
AcDbPolyline
 90
2
 70
0
 10
331.574140
 20
-54.479546
 30
0.0
 10
331.574140
 20
-51.680466
 30
0.0
  0
LWPOLYLINE
  5
25b
100
AcDbEntity
  8
0
 62
7
100
AcDbPolyline
 90
2
 70
0
 10
334.972660
 20
-51.479806
 30
0.0
 10
331.774800
 20
-51.479806
 30
0.0
  0
SPLINE
  5
25c
100
AcDbEntity
  8
0
 62
7
100
AcDbSpline
 70
8
 71
3
 72
8
 73
4
 74
0
 40
0
 40
0
 40
0
 40
0
 40
1
 40
1
 40
1
 40
1
 10
331.774800
 20
-51.480568
 30
0.0
 10
331.721616
 20
-51.480392
 30
0.0
 10
331.670553
 20
-51.501407
 30
0.0
 10
331.632898
 20
-51.538966
 30
0.0
  0
SPLINE
  5
25d
100
AcDbEntity
  8
0
 62
7
100
AcDbSpline
 70
8
 71
3
 72
8
 73
4
 74
0
 40
0
 40
0
 40
0
 40
0
 40
1
 40
1
 40
1
 40
1
 10
331.632898
 20
-51.538966
 30
0.0
 10
331.595243
 20
-51.576525
 30
0.0
 10
331.574099
 20
-51.627535
 30
0.0
 10
331.574140
 20
-51.680720
 30
0.0
  0
SPLINE
  5
25e
100
AcDbEntity
  8
0
 62
7
100
AcDbSpline
 70
8
 71
3
 72
8
 73
4
 74
0
 40
0
 40
0
 40
0
 40
0
 40
1
 40
1
 40
1
 40
1
 10
335.175860
 20
-51.680720
 30
0.0
 10
335.175901
 20
-51.627535
 30
0.0
 10
335.154757
 20
-51.576525
 30
0.0
 10
335.117102
 20
-51.538966
 30
0.0
  0
SPLINE
  5
25f
100
AcDbEntity
  8
0
 62
7
100
AcDbSpline
 70
8
 71
3
 72
8
 73
4
 74
0
 40
0
 40
0
 40
0
 40
0
 40
1
 40
1
 40
1
 40
1
 10
335.117102
 20
-51.538966
 30
0.0
 10
335.079447
 20
-51.501407
 30
0.0
 10
335.028384
 20
-51.480392
 30
0.0
 10
334.975200
 20
-51.480568
 30
0.0
  0
SPLINE
  5
260
100
AcDbEntity
  8
0
 62
7
100
AcDbSpline
 70
8
 71
3
 72
8
 73
4
 74
0
 40
0
 40
0
 40
0
 40
0
 40
1
 40
1
 40
1
 40
1
 10
331.574140
 20
-54.480562
 30
0.0
 10
331.574099
 20
-54.533746
 30
0.0
 10
331.595243
 20
-54.584756
 30
0.0
 10
331.632898
 20
-54.622315
 30
0.0
  0
SPLINE
  5
261
100
AcDbEntity
  8
0
 62
7
100
AcDbSpline
 70
8
 71
3
 72
8
 73
4
 74
0
 40
0
 40
0
 40
0
 40
0
 40
1
 40
1
 40
1
 40
1
 10
331.632898
 20
-54.622315
 30
0.0
 10
331.670553
 20
-54.659874
 30
0.0
 10
331.721616
 20
-54.680889
 30
0.0
 10
331.774800
 20
-54.680714
 30
0.0
  0
SPLINE
  5
262
100
AcDbEntity
  8
0
 62
7
100
AcDbSpline
 70
8
 71
3
 72
8
 73
4
 74
0
 40
0
 40
0
 40
0
 40
0
 40
1
 40
1
 40
1
 40
1
 10
334.975200
 20
-54.680714
 30
0.0
 10
335.028384
 20
-54.680889
 30
0.0
 10
335.079447
 20
-54.659874
 30
0.0
 10
335.117102
 20
-54.622315
 30
0.0
  0
SPLINE
  5
263
100
AcDbEntity
  8
0
 62
7
100
AcDbSpline
 70
8
 71
3
 72
8
 73
4
 74
0
 40
0
 40
0
 40
0
 40
0
 40
1
 40
1
 40
1
 40
1
 10
335.117102
 20
-54.622315
 30
0.0
 10
335.154757
 20
-54.584756
 30
0.0
 10
335.175901
 20
-54.533746
 30
0.0
 10
335.175860
 20
-54.480562
 30
0.0
  0
LWPOLYLINE
  5
264
100
AcDbEntity
  8
0
 62
7
100
AcDbPolyline
 90
2
 70
0
 10
335.173320
 20
-54.479546
 30
0.0
 10
335.173320
 20
-51.680466
 30
0.0
  0
LWPOLYLINE
  5
265
100
AcDbEntity
  8
0
 62
7
100
AcDbPolyline
 90
2
 70
0
 10
315.922660
 20
-54.680206
 30
0.0
 10
312.724800
 20
-54.680206
 30
0.0
  0
LWPOLYLINE
  5
266
100
AcDbEntity
  8
0
 62
7
100
AcDbPolyline
 90
2
 70
0
 10
312.524140
 20
-54.479546
 30
0.0
 10
312.524140
 20
-51.680466
 30
0.0
  0
LWPOLYLINE
  5
267
100
AcDbEntity
  8
0
 62
7
100
AcDbPolyline
 90
2
 70
0
 10
315.922660
 20
-51.479806
 30
0.0
 10
312.724800
 20
-51.479806
 30
0.0
  0
SPLINE
  5
268
100
AcDbEntity
  8
0
 62
7
100
AcDbSpline
 70
8
 71
3
 72
8
 73
4
 74
0
 40
0
 40
0
 40
0
 40
0
 40
1
 40
1
 40
1
 40
1
 10
312.724800
 20
-51.480568
 30
0.0
 10
312.671616
 20
-51.480392
 30
0.0
 10
312.620553
 20
-51.501407
 30
0.0
 10
312.582898
 20
-51.538966
 30
0.0
  0
SPLINE
  5
269
100
AcDbEntity
  8
0
 62
7
100
AcDbSpline
 70
8
 71
3
 72
8
 73
4
 74
0
 40
0
 40
0
 40
0
 40
0
 40
1
 40
1
 40
1
 40
1
 10
312.582898
 20
-51.538966
 30
0.0
 10
312.545243
 20
-51.576525
 30
0.0
 10
312.524099
 20
-51.627535
 30
0.0
 10
312.524140
 20
-51.680720
 30
0.0
  0
SPLINE
  5
26a
100
AcDbEntity
  8
0
 62
7
100
AcDbSpline
 70
8
 71
3
 72
8
 73
4
 74
0
 40
0
 40
0
 40
0
 40
0
 40
1
 40
1
 40
1
 40
1
 10
316.125860
 20
-51.680720
 30
0.0
 10
316.125901
 20
-51.627535
 30
0.0
 10
316.104757
 20
-51.576525
 30
0.0
 10
316.067102
 20
-51.538966
 30
0.0
  0
SPLINE
  5
26b
100
AcDbEntity
  8
0
 62
7
100
AcDbSpline
 70
8
 71
3
 72
8
 73
4
 74
0
 40
0
 40
0
 40
0
 40
0
 40
1
 40
1
 40
1
 40
1
 10
316.067102
 20
-51.538966
 30
0.0
 10
316.029447
 20
-51.501407
 30
0.0
 10
315.978384
 20
-51.480392
 30
0.0
 10
315.925200
 20
-51.480568
 30
0.0
  0
SPLINE
  5
26c
100
AcDbEntity
  8
0
 62
7
100
AcDbSpline
 70
8
 71
3
 72
8
 73
4
 74
0
 40
0
 40
0
 40
0
 40
0
 40
1
 40
1
 40
1
 40
1
 10
312.524140
 20
-54.480562
 30
0.0
 10
312.524099
 20
-54.533746
 30
0.0
 10
312.545243
 20
-54.584756
 30
0.0
 10
312.582898
 20
-54.622315
 30
0.0
  0
SPLINE
  5
26d
100
AcDbEntity
  8
0
 62
7
100
AcDbSpline
 70
8
 71
3
 72
8
 73
4
 74
0
 40
0
 40
0
 40
0
 40
0
 40
1
 40
1
 40
1
 40
1
 10
312.582898
 20
-54.622315
 30
0.0
 10
312.620553
 20
-54.659874
 30
0.0
 10
312.671616
 20
-54.680889
 30
0.0
 10
312.724800
 20
-54.680714
 30
0.0
  0
SPLINE
  5
26e
100
AcDbEntity
  8
0
 62
7
100
AcDbSpline
 70
8
 71
3
 72
8
 73
4
 74
0
 40
0
 40
0
 40
0
 40
0
 40
1
 40
1
 40
1
 40
1
 10
315.925200
 20
-54.680714
 30
0.0
 10
315.978384
 20
-54.680889
 30
0.0
 10
316.029447
 20
-54.659874
 30
0.0
 10
316.067102
 20
-54.622315
 30
0.0
  0
SPLINE
  5
26f
100
AcDbEntity
  8
0
 62
7
100
AcDbSpline
 70
8
 71
3
 72
8
 73
4
 74
0
 40
0
 40
0
 40
0
 40
0
 40
1
 40
1
 40
1
 40
1
 10
316.067102
 20
-54.622315
 30
0.0
 10
316.104757
 20
-54.584756
 30
0.0
 10
316.125901
 20
-54.533746
 30
0.0
 10
316.125860
 20
-54.480562
 30
0.0
  0
LWPOLYLINE
  5
270
100
AcDbEntity
  8
0
 62
7
100
AcDbPolyline
 90
2
 70
0
 10
316.123320
 20
-54.479546
 30
0.0
 10
316.123320
 20
-51.680466
 30
0.0
  0
LWPOLYLINE
  5
271
100
AcDbEntity
  8
0
 62
7
100
AcDbPolyline
 90
2
 70
0
 10
296.872660
 20
-54.680206
 30
0.0
 10
293.674800
 20
-54.680206
 30
0.0
  0
LWPOLYLINE
  5
272
100
AcDbEntity
  8
0
 62
7
100
AcDbPolyline
 90
2
 70
0
 10
293.474140
 20
-54.479546
 30
0.0
 10
293.474140
 20
-51.680466
 30
0.0
  0
LWPOLYLINE
  5
273
100
AcDbEntity
  8
0
 62
7
100
AcDbPolyline
 90
2
 70
0
 10
296.872660
 20
-51.479806
 30
0.0
 10
293.674800
 20
-51.479806
 30
0.0
  0
SPLINE
  5
274
100
AcDbEntity
  8
0
 62
7
100
AcDbSpline
 70
8
 71
3
 72
8
 73
4
 74
0
 40
0
 40
0
 40
0
 40
0
 40
1
 40
1
 40
1
 40
1
 10
293.674800
 20
-51.480568
 30
0.0
 10
293.621616
 20
-51.480392
 30
0.0
 10
293.570553
 20
-51.501407
 30
0.0
 10
293.532898
 20
-51.538966
 30
0.0
  0
SPLINE
  5
275
100
AcDbEntity
  8
0
 62
7
100
AcDbSpline
 70
8
 71
3
 72
8
 73
4
 74
0
 40
0
 40
0
 40
0
 40
0
 40
1
 40
1
 40
1
 40
1
 10
293.532898
 20
-51.538966
 30
0.0
 10
293.495243
 20
-51.576525
 30
0.0
 10
293.474099
 20
-51.627535
 30
0.0
 10
293.474140
 20
-51.680720
 30
0.0
  0
SPLINE
  5
276
100
AcDbEntity
  8
0
 62
7
100
AcDbSpline
 70
8
 71
3
 72
8
 73
4
 74
0
 40
0
 40
0
 40
0
 40
0
 40
1
 40
1
 40
1
 40
1
 10
297.075860
 20
-51.680720
 30
0.0
 10
297.075901
 20
-51.627535
 30
0.0
 10
297.054757
 20
-51.576525
 30
0.0
 10
297.017102
 20
-51.538966
 30
0.0
  0
SPLINE
  5
277
100
AcDbEntity
  8
0
 62
7
100
AcDbSpline
 70
8
 71
3
 72
8
 73
4
 74
0
 40
0
 40
0
 40
0
 40
0
 40
1
 40
1
 40
1
 40
1
 10
297.017102
 20
-51.538966
 30
0.0
 10
296.979447
 20
-51.501407
 30
0.0
 10
296.928384
 20
-51.480392
 30
0.0
 10
296.875200
 20
-51.480568
 30
0.0
  0
SPLINE
  5
278
100
AcDbEntity
  8
0
 62
7
100
AcDbSpline
 70
8
 71
3
 72
8
 73
4
 74
0
 40
0
 40
0
 40
0
 40
0
 40
1
 40
1
 40
1
 40
1
 10
293.474140
 20
-54.480562
 30
0.0
 10
293.474099
 20
-54.533746
 30
0.0
 10
293.495243
 20
-54.584756
 30
0.0
 10
293.532898
 20
-54.622315
 30
0.0
  0
SPLINE
  5
279
100
AcDbEntity
  8
0
 62
7
100
AcDbSpline
 70
8
 71
3
 72
8
 73
4
 74
0
 40
0
 40
0
 40
0
 40
0
 40
1
 40
1
 40
1
 40
1
 10
293.532898
 20
-54.622315
 30
0.0
 10
293.570553
 20
-54.659874
 30
0.0
 10
293.621616
 20
-54.680889
 30
0.0
 10
293.674800
 20
-54.680714
 30
0.0
  0
SPLINE
  5
27a
100
AcDbEntity
  8
0
 62
7
100
AcDbSpline
 70
8
 71
3
 72
8
 73
4
 74
0
 40
0
 40
0
 40
0
 40
0
 40
1
 40
1
 40
1
 40
1
 10
296.875200
 20
-54.680714
 30
0.0
 10
296.928384
 20
-54.680889
 30
0.0
 10
296.979447
 20
-54.659874
 30
0.0
 10
297.017102
 20
-54.622315
 30
0.0
  0
SPLINE
  5
27b
100
AcDbEntity
  8
0
 62
7
100
AcDbSpline
 70
8
 71
3
 72
8
 73
4
 74
0
 40
0
 40
0
 40
0
 40
0
 40
1
 40
1
 40
1
 40
1
 10
297.017102
 20
-54.622315
 30
0.0
 10
297.054757
 20
-54.584756
 30
0.0
 10
297.075901
 20
-54.533746
 30
0.0
 10
297.075860
 20
-54.480562
 30
0.0
  0
LWPOLYLINE
  5
27c
100
AcDbEntity
  8
0
 62
7
100
AcDbPolyline
 90
2
 70
0
 10
297.073320
 20
-54.479546
 30
0.0
 10
297.073320
 20
-51.680466
 30
0.0
  0
LWPOLYLINE
  5
27d
100
AcDbEntity
  8
0
 62
7
100
AcDbPolyline
 90
2
 70
0
 10
277.822660
 20
-54.680206
 30
0.0
 10
274.624800
 20
-54.680206
 30
0.0
  0
LWPOLYLINE
  5
27e
100
AcDbEntity
  8
0
 62
7
100
AcDbPolyline
 90
2
 70
0
 10
274.424140
 20
-54.479546
 30
0.0
 10
274.424140
 20
-51.680466
 30
0.0
  0
LWPOLYLINE
  5
27f
100
AcDbEntity
  8
0
 62
7
100
AcDbPolyline
 90
2
 70
0
 10
277.822660
 20
-51.479806
 30
0.0
 10
274.624800
 20
-51.479806
 30
0.0
  0
SPLINE
  5
280
100
AcDbEntity
  8
0
 62
7
100
AcDbSpline
 70
8
 71
3
 72
8
 73
4
 74
0
 40
0
 40
0
 40
0
 40
0
 40
1
 40
1
 40
1
 40
1
 10
274.624800
 20
-51.480568
 30
0.0
 10
274.571616
 20
-51.480392
 30
0.0
 10
274.520553
 20
-51.501407
 30
0.0
 10
274.482898
 20
-51.538966
 30
0.0
  0
SPLINE
  5
281
100
AcDbEntity
  8
0
 62
7
100
AcDbSpline
 70
8
 71
3
 72
8
 73
4
 74
0
 40
0
 40
0
 40
0
 40
0
 40
1
 40
1
 40
1
 40
1
 10
274.482898
 20
-51.538966
 30
0.0
 10
274.445243
 20
-51.576525
 30
0.0
 10
274.424099
 20
-51.627535
 30
0.0
 10
274.424140
 20
-51.680720
 30
0.0
  0
SPLINE
  5
282
100
AcDbEntity
  8
0
 62
7
100
AcDbSpline
 70
8
 71
3
 72
8
 73
4
 74
0
 40
0
 40
0
 40
0
 40
0
 40
1
 40
1
 40
1
 40
1
 10
278.025860
 20
-51.680720
 30
0.0
 10
278.025901
 20
-51.627535
 30
0.0
 10
278.004757
 20
-51.576525
 30
0.0
 10
277.967102
 20
-51.538966
 30
0.0
  0
SPLINE
  5
283
100
AcDbEntity
  8
0
 62
7
100
AcDbSpline
 70
8
 71
3
 72
8
 73
4
 74
0
 40
0
 40
0
 40
0
 40
0
 40
1
 40
1
 40
1
 40
1
 10
277.967102
 20
-51.538966
 30
0.0
 10
277.929447
 20
-51.501407
 30
0.0
 10
277.878384
 20
-51.480392
 30
0.0
 10
277.825200
 20
-51.480568
 30
0.0
  0
SPLINE
  5
284
100
AcDbEntity
  8
0
 62
7
100
AcDbSpline
 70
8
 71
3
 72
8
 73
4
 74
0
 40
0
 40
0
 40
0
 40
0
 40
1
 40
1
 40
1
 40
1
 10
274.424140
 20
-54.480562
 30
0.0
 10
274.424099
 20
-54.533746
 30
0.0
 10
274.445243
 20
-54.584756
 30
0.0
 10
274.482898
 20
-54.622315
 30
0.0
  0
SPLINE
  5
285
100
AcDbEntity
  8
0
 62
7
100
AcDbSpline
 70
8
 71
3
 72
8
 73
4
 74
0
 40
0
 40
0
 40
0
 40
0
 40
1
 40
1
 40
1
 40
1
 10
274.482898
 20
-54.622315
 30
0.0
 10
274.520553
 20
-54.659874
 30
0.0
 10
274.571616
 20
-54.680889
 30
0.0
 10
274.624800
 20
-54.680714
 30
0.0
  0
SPLINE
  5
286
100
AcDbEntity
  8
0
 62
7
100
AcDbSpline
 70
8
 71
3
 72
8
 73
4
 74
0
 40
0
 40
0
 40
0
 40
0
 40
1
 40
1
 40
1
 40
1
 10
277.825200
 20
-54.680714
 30
0.0
 10
277.878384
 20
-54.680889
 30
0.0
 10
277.929447
 20
-54.659874
 30
0.0
 10
277.967102
 20
-54.622315
 30
0.0
  0
SPLINE
  5
287
100
AcDbEntity
  8
0
 62
7
100
AcDbSpline
 70
8
 71
3
 72
8
 73
4
 74
0
 40
0
 40
0
 40
0
 40
0
 40
1
 40
1
 40
1
 40
1
 10
277.967102
 20
-54.622315
 30
0.0
 10
278.004757
 20
-54.584756
 30
0.0
 10
278.025901
 20
-54.533746
 30
0.0
 10
278.025860
 20
-54.480562
 30
0.0
  0
LWPOLYLINE
  5
288
100
AcDbEntity
  8
0
 62
7
100
AcDbPolyline
 90
2
 70
0
 10
278.023320
 20
-54.479546
 30
0.0
 10
278.023320
 20
-51.680466
 30
0.0
  0
LWPOLYLINE
  5
289
100
AcDbEntity
  8
0
 62
7
100
AcDbPolyline
 90
2
 70
0
 10
258.772660
 20
-54.680206
 30
0.0
 10
255.574800
 20
-54.680206
 30
0.0
  0
LWPOLYLINE
  5
28a
100
AcDbEntity
  8
0
 62
7
100
AcDbPolyline
 90
2
 70
0
 10
255.374140
 20
-54.479546
 30
0.0
 10
255.374140
 20
-51.680466
 30
0.0
  0
LWPOLYLINE
  5
28b
100
AcDbEntity
  8
0
 62
7
100
AcDbPolyline
 90
2
 70
0
 10
258.772660
 20
-51.479806
 30
0.0
 10
255.574800
 20
-51.479806
 30
0.0
  0
SPLINE
  5
28c
100
AcDbEntity
  8
0
 62
7
100
AcDbSpline
 70
8
 71
3
 72
8
 73
4
 74
0
 40
0
 40
0
 40
0
 40
0
 40
1
 40
1
 40
1
 40
1
 10
255.574800
 20
-51.480568
 30
0.0
 10
255.521616
 20
-51.480392
 30
0.0
 10
255.470553
 20
-51.501407
 30
0.0
 10
255.432898
 20
-51.538966
 30
0.0
  0
SPLINE
  5
28d
100
AcDbEntity
  8
0
 62
7
100
AcDbSpline
 70
8
 71
3
 72
8
 73
4
 74
0
 40
0
 40
0
 40
0
 40
0
 40
1
 40
1
 40
1
 40
1
 10
255.432898
 20
-51.538966
 30
0.0
 10
255.395243
 20
-51.576525
 30
0.0
 10
255.374099
 20
-51.627535
 30
0.0
 10
255.374140
 20
-51.680720
 30
0.0
  0
SPLINE
  5
28e
100
AcDbEntity
  8
0
 62
7
100
AcDbSpline
 70
8
 71
3
 72
8
 73
4
 74
0
 40
0
 40
0
 40
0
 40
0
 40
1
 40
1
 40
1
 40
1
 10
258.975860
 20
-51.680720
 30
0.0
 10
258.975901
 20
-51.627535
 30
0.0
 10
258.954757
 20
-51.576525
 30
0.0
 10
258.917102
 20
-51.538966
 30
0.0
  0
SPLINE
  5
28f
100
AcDbEntity
  8
0
 62
7
100
AcDbSpline
 70
8
 71
3
 72
8
 73
4
 74
0
 40
0
 40
0
 40
0
 40
0
 40
1
 40
1
 40
1
 40
1
 10
258.917102
 20
-51.538966
 30
0.0
 10
258.879447
 20
-51.501407
 30
0.0
 10
258.828384
 20
-51.480392
 30
0.0
 10
258.775200
 20
-51.480568
 30
0.0
  0
SPLINE
  5
290
100
AcDbEntity
  8
0
 62
7
100
AcDbSpline
 70
8
 71
3
 72
8
 73
4
 74
0
 40
0
 40
0
 40
0
 40
0
 40
1
 40
1
 40
1
 40
1
 10
255.374140
 20
-54.480562
 30
0.0
 10
255.374099
 20
-54.533746
 30
0.0
 10
255.395243
 20
-54.584756
 30
0.0
 10
255.432898
 20
-54.622315
 30
0.0
  0
SPLINE
  5
291
100
AcDbEntity
  8
0
 62
7
100
AcDbSpline
 70
8
 71
3
 72
8
 73
4
 74
0
 40
0
 40
0
 40
0
 40
0
 40
1
 40
1
 40
1
 40
1
 10
255.432898
 20
-54.622315
 30
0.0
 10
255.470553
 20
-54.659874
 30
0.0
 10
255.521616
 20
-54.680889
 30
0.0
 10
255.574800
 20
-54.680714
 30
0.0
  0
SPLINE
  5
292
100
AcDbEntity
  8
0
 62
7
100
AcDbSpline
 70
8
 71
3
 72
8
 73
4
 74
0
 40
0
 40
0
 40
0
 40
0
 40
1
 40
1
 40
1
 40
1
 10
258.775200
 20
-54.680714
 30
0.0
 10
258.828384
 20
-54.680889
 30
0.0
 10
258.879447
 20
-54.659874
 30
0.0
 10
258.917102
 20
-54.622315
 30
0.0
  0
SPLINE
  5
293
100
AcDbEntity
  8
0
 62
7
100
AcDbSpline
 70
8
 71
3
 72
8
 73
4
 74
0
 40
0
 40
0
 40
0
 40
0
 40
1
 40
1
 40
1
 40
1
 10
258.917102
 20
-54.622315
 30
0.0
 10
258.954757
 20
-54.584756
 30
0.0
 10
258.975901
 20
-54.533746
 30
0.0
 10
258.975860
 20
-54.480562
 30
0.0
  0
LWPOLYLINE
  5
294
100
AcDbEntity
  8
0
 62
7
100
AcDbPolyline
 90
2
 70
0
 10
258.973320
 20
-54.479546
 30
0.0
 10
258.973320
 20
-51.680466
 30
0.0
  0
LWPOLYLINE
  5
295
100
AcDbEntity
  8
0
 62
7
100
AcDbPolyline
 90
2
 70
0
 10
354.022660
 20
-35.630206
 30
0.0
 10
350.824800
 20
-35.630206
 30
0.0
  0
LWPOLYLINE
  5
296
100
AcDbEntity
  8
0
 62
7
100
AcDbPolyline
 90
2
 70
0
 10
350.624140
 20
-35.429546
 30
0.0
 10
350.624140
 20
-32.630466
 30
0.0
  0
LWPOLYLINE
  5
297
100
AcDbEntity
  8
0
 62
7
100
AcDbPolyline
 90
2
 70
0
 10
354.022660
 20
-32.429806
 30
0.0
 10
350.824800
 20
-32.429806
 30
0.0
  0
SPLINE
  5
298
100
AcDbEntity
  8
0
 62
7
100
AcDbSpline
 70
8
 71
3
 72
8
 73
4
 74
0
 40
0
 40
0
 40
0
 40
0
 40
1
 40
1
 40
1
 40
1
 10
350.824800
 20
-32.430568
 30
0.0
 10
350.771616
 20
-32.430392
 30
0.0
 10
350.720553
 20
-32.451407
 30
0.0
 10
350.682898
 20
-32.488966
 30
0.0
  0
SPLINE
  5
299
100
AcDbEntity
  8
0
 62
7
100
AcDbSpline
 70
8
 71
3
 72
8
 73
4
 74
0
 40
0
 40
0
 40
0
 40
0
 40
1
 40
1
 40
1
 40
1
 10
350.682898
 20
-32.488966
 30
0.0
 10
350.645243
 20
-32.526525
 30
0.0
 10
350.624099
 20
-32.577535
 30
0.0
 10
350.624140
 20
-32.630720
 30
0.0
  0
SPLINE
  5
29a
100
AcDbEntity
  8
0
 62
7
100
AcDbSpline
 70
8
 71
3
 72
8
 73
4
 74
0
 40
0
 40
0
 40
0
 40
0
 40
1
 40
1
 40
1
 40
1
 10
354.225860
 20
-32.630720
 30
0.0
 10
354.225901
 20
-32.577535
 30
0.0
 10
354.204757
 20
-32.526525
 30
0.0
 10
354.167102
 20
-32.488966
 30
0.0
  0
SPLINE
  5
29b
100
AcDbEntity
  8
0
 62
7
100
AcDbSpline
 70
8
 71
3
 72
8
 73
4
 74
0
 40
0
 40
0
 40
0
 40
0
 40
1
 40
1
 40
1
 40
1
 10
354.167102
 20
-32.488966
 30
0.0
 10
354.129447
 20
-32.451407
 30
0.0
 10
354.078384
 20
-32.430392
 30
0.0
 10
354.025200
 20
-32.430568
 30
0.0
  0
SPLINE
  5
29c
100
AcDbEntity
  8
0
 62
7
100
AcDbSpline
 70
8
 71
3
 72
8
 73
4
 74
0
 40
0
 40
0
 40
0
 40
0
 40
1
 40
1
 40
1
 40
1
 10
350.624140
 20
-35.430562
 30
0.0
 10
350.624099
 20
-35.483746
 30
0.0
 10
350.645243
 20
-35.534756
 30
0.0
 10
350.682898
 20
-35.572315
 30
0.0
  0
SPLINE
  5
29d
100
AcDbEntity
  8
0
 62
7
100
AcDbSpline
 70
8
 71
3
 72
8
 73
4
 74
0
 40
0
 40
0
 40
0
 40
0
 40
1
 40
1
 40
1
 40
1
 10
350.682898
 20
-35.572315
 30
0.0
 10
350.720553
 20
-35.609874
 30
0.0
 10
350.771616
 20
-35.630889
 30
0.0
 10
350.824800
 20
-35.630714
 30
0.0
  0
SPLINE
  5
29e
100
AcDbEntity
  8
0
 62
7
100
AcDbSpline
 70
8
 71
3
 72
8
 73
4
 74
0
 40
0
 40
0
 40
0
 40
0
 40
1
 40
1
 40
1
 40
1
 10
354.025200
 20
-35.630714
 30
0.0
 10
354.078384
 20
-35.630889
 30
0.0
 10
354.129447
 20
-35.609874
 30
0.0
 10
354.167102
 20
-35.572315
 30
0.0
  0
SPLINE
  5
29f
100
AcDbEntity
  8
0
 62
7
100
AcDbSpline
 70
8
 71
3
 72
8
 73
4
 74
0
 40
0
 40
0
 40
0
 40
0
 40
1
 40
1
 40
1
 40
1
 10
354.167102
 20
-35.572315
 30
0.0
 10
354.204757
 20
-35.534756
 30
0.0
 10
354.225901
 20
-35.483746
 30
0.0
 10
354.225860
 20
-35.430562
 30
0.0
  0
LWPOLYLINE
  5
2a0
100
AcDbEntity
  8
0
 62
7
100
AcDbPolyline
 90
2
 70
0
 10
354.223320
 20
-35.429546
 30
0.0
 10
354.223320
 20
-32.630466
 30
0.0
  0
LWPOLYLINE
  5
2a1
100
AcDbEntity
  8
0
 62
7
100
AcDbPolyline
 90
2
 70
0
 10
334.972660
 20
-35.630206
 30
0.0
 10
331.774800
 20
-35.630206
 30
0.0
  0
LWPOLYLINE
  5
2a2
100
AcDbEntity
  8
0
 62
7
100
AcDbPolyline
 90
2
 70
0
 10
331.574140
 20
-35.429546
 30
0.0
 10
331.574140
 20
-32.630466
 30
0.0
  0
LWPOLYLINE
  5
2a3
100
AcDbEntity
  8
0
 62
7
100
AcDbPolyline
 90
2
 70
0
 10
334.972660
 20
-32.429806
 30
0.0
 10
331.774800
 20
-32.429806
 30
0.0
  0
SPLINE
  5
2a4
100
AcDbEntity
  8
0
 62
7
100
AcDbSpline
 70
8
 71
3
 72
8
 73
4
 74
0
 40
0
 40
0
 40
0
 40
0
 40
1
 40
1
 40
1
 40
1
 10
331.774800
 20
-32.430568
 30
0.0
 10
331.721616
 20
-32.430392
 30
0.0
 10
331.670553
 20
-32.451407
 30
0.0
 10
331.632898
 20
-32.488966
 30
0.0
  0
SPLINE
  5
2a5
100
AcDbEntity
  8
0
 62
7
100
AcDbSpline
 70
8
 71
3
 72
8
 73
4
 74
0
 40
0
 40
0
 40
0
 40
0
 40
1
 40
1
 40
1
 40
1
 10
331.632898
 20
-32.488966
 30
0.0
 10
331.595243
 20
-32.526525
 30
0.0
 10
331.574099
 20
-32.577535
 30
0.0
 10
331.574140
 20
-32.630720
 30
0.0
  0
SPLINE
  5
2a6
100
AcDbEntity
  8
0
 62
7
100
AcDbSpline
 70
8
 71
3
 72
8
 73
4
 74
0
 40
0
 40
0
 40
0
 40
0
 40
1
 40
1
 40
1
 40
1
 10
335.175860
 20
-32.630720
 30
0.0
 10
335.175901
 20
-32.577535
 30
0.0
 10
335.154757
 20
-32.526525
 30
0.0
 10
335.117102
 20
-32.488966
 30
0.0
  0
SPLINE
  5
2a7
100
AcDbEntity
  8
0
 62
7
100
AcDbSpline
 70
8
 71
3
 72
8
 73
4
 74
0
 40
0
 40
0
 40
0
 40
0
 40
1
 40
1
 40
1
 40
1
 10
335.117102
 20
-32.488966
 30
0.0
 10
335.079447
 20
-32.451407
 30
0.0
 10
335.028384
 20
-32.430392
 30
0.0
 10
334.975200
 20
-32.430568
 30
0.0
  0
SPLINE
  5
2a8
100
AcDbEntity
  8
0
 62
7
100
AcDbSpline
 70
8
 71
3
 72
8
 73
4
 74
0
 40
0
 40
0
 40
0
 40
0
 40
1
 40
1
 40
1
 40
1
 10
331.574140
 20
-35.430562
 30
0.0
 10
331.574099
 20
-35.483746
 30
0.0
 10
331.595243
 20
-35.534756
 30
0.0
 10
331.632898
 20
-35.572315
 30
0.0
  0
SPLINE
  5
2a9
100
AcDbEntity
  8
0
 62
7
100
AcDbSpline
 70
8
 71
3
 72
8
 73
4
 74
0
 40
0
 40
0
 40
0
 40
0
 40
1
 40
1
 40
1
 40
1
 10
331.632898
 20
-35.572315
 30
0.0
 10
331.670553
 20
-35.609874
 30
0.0
 10
331.721616
 20
-35.630889
 30
0.0
 10
331.774800
 20
-35.630714
 30
0.0
  0
SPLINE
  5
2aa
100
AcDbEntity
  8
0
 62
7
100
AcDbSpline
 70
8
 71
3
 72
8
 73
4
 74
0
 40
0
 40
0
 40
0
 40
0
 40
1
 40
1
 40
1
 40
1
 10
334.975200
 20
-35.630714
 30
0.0
 10
335.028384
 20
-35.630889
 30
0.0
 10
335.079447
 20
-35.609874
 30
0.0
 10
335.117102
 20
-35.572315
 30
0.0
  0
SPLINE
  5
2ab
100
AcDbEntity
  8
0
 62
7
100
AcDbSpline
 70
8
 71
3
 72
8
 73
4
 74
0
 40
0
 40
0
 40
0
 40
0
 40
1
 40
1
 40
1
 40
1
 10
335.117102
 20
-35.572315
 30
0.0
 10
335.154757
 20
-35.534756
 30
0.0
 10
335.175901
 20
-35.483746
 30
0.0
 10
335.175860
 20
-35.430562
 30
0.0
  0
LWPOLYLINE
  5
2ac
100
AcDbEntity
  8
0
 62
7
100
AcDbPolyline
 90
2
 70
0
 10
335.173320
 20
-35.429546
 30
0.0
 10
335.173320
 20
-32.630466
 30
0.0
  0
LWPOLYLINE
  5
2ad
100
AcDbEntity
  8
0
 62
7
100
AcDbPolyline
 90
2
 70
0
 10
315.922660
 20
-35.630206
 30
0.0
 10
312.724800
 20
-35.630206
 30
0.0
  0
LWPOLYLINE
  5
2ae
100
AcDbEntity
  8
0
 62
7
100
AcDbPolyline
 90
2
 70
0
 10
312.524140
 20
-35.429546
 30
0.0
 10
312.524140
 20
-32.630466
 30
0.0
  0
LWPOLYLINE
  5
2af
100
AcDbEntity
  8
0
 62
7
100
AcDbPolyline
 90
2
 70
0
 10
315.922660
 20
-32.429806
 30
0.0
 10
312.724800
 20
-32.429806
 30
0.0
  0
SPLINE
  5
2b0
100
AcDbEntity
  8
0
 62
7
100
AcDbSpline
 70
8
 71
3
 72
8
 73
4
 74
0
 40
0
 40
0
 40
0
 40
0
 40
1
 40
1
 40
1
 40
1
 10
312.724800
 20
-32.430568
 30
0.0
 10
312.671616
 20
-32.430392
 30
0.0
 10
312.620553
 20
-32.451407
 30
0.0
 10
312.582898
 20
-32.488966
 30
0.0
  0
SPLINE
  5
2b1
100
AcDbEntity
  8
0
 62
7
100
AcDbSpline
 70
8
 71
3
 72
8
 73
4
 74
0
 40
0
 40
0
 40
0
 40
0
 40
1
 40
1
 40
1
 40
1
 10
312.582898
 20
-32.488966
 30
0.0
 10
312.545243
 20
-32.526525
 30
0.0
 10
312.524099
 20
-32.577535
 30
0.0
 10
312.524140
 20
-32.630720
 30
0.0
  0
SPLINE
  5
2b2
100
AcDbEntity
  8
0
 62
7
100
AcDbSpline
 70
8
 71
3
 72
8
 73
4
 74
0
 40
0
 40
0
 40
0
 40
0
 40
1
 40
1
 40
1
 40
1
 10
316.125860
 20
-32.630720
 30
0.0
 10
316.125901
 20
-32.577535
 30
0.0
 10
316.104757
 20
-32.526525
 30
0.0
 10
316.067102
 20
-32.488966
 30
0.0
  0
SPLINE
  5
2b3
100
AcDbEntity
  8
0
 62
7
100
AcDbSpline
 70
8
 71
3
 72
8
 73
4
 74
0
 40
0
 40
0
 40
0
 40
0
 40
1
 40
1
 40
1
 40
1
 10
316.067102
 20
-32.488966
 30
0.0
 10
316.029447
 20
-32.451407
 30
0.0
 10
315.978384
 20
-32.430392
 30
0.0
 10
315.925200
 20
-32.430568
 30
0.0
  0
SPLINE
  5
2b4
100
AcDbEntity
  8
0
 62
7
100
AcDbSpline
 70
8
 71
3
 72
8
 73
4
 74
0
 40
0
 40
0
 40
0
 40
0
 40
1
 40
1
 40
1
 40
1
 10
312.524140
 20
-35.430562
 30
0.0
 10
312.524099
 20
-35.483746
 30
0.0
 10
312.545243
 20
-35.534756
 30
0.0
 10
312.582898
 20
-35.572315
 30
0.0
  0
SPLINE
  5
2b5
100
AcDbEntity
  8
0
 62
7
100
AcDbSpline
 70
8
 71
3
 72
8
 73
4
 74
0
 40
0
 40
0
 40
0
 40
0
 40
1
 40
1
 40
1
 40
1
 10
312.582898
 20
-35.572315
 30
0.0
 10
312.620553
 20
-35.609874
 30
0.0
 10
312.671616
 20
-35.630889
 30
0.0
 10
312.724800
 20
-35.630714
 30
0.0
  0
SPLINE
  5
2b6
100
AcDbEntity
  8
0
 62
7
100
AcDbSpline
 70
8
 71
3
 72
8
 73
4
 74
0
 40
0
 40
0
 40
0
 40
0
 40
1
 40
1
 40
1
 40
1
 10
315.925200
 20
-35.630714
 30
0.0
 10
315.978384
 20
-35.630889
 30
0.0
 10
316.029447
 20
-35.609874
 30
0.0
 10
316.067102
 20
-35.572315
 30
0.0
  0
SPLINE
  5
2b7
100
AcDbEntity
  8
0
 62
7
100
AcDbSpline
 70
8
 71
3
 72
8
 73
4
 74
0
 40
0
 40
0
 40
0
 40
0
 40
1
 40
1
 40
1
 40
1
 10
316.067102
 20
-35.572315
 30
0.0
 10
316.104757
 20
-35.534756
 30
0.0
 10
316.125901
 20
-35.483746
 30
0.0
 10
316.125860
 20
-35.430562
 30
0.0
  0
LWPOLYLINE
  5
2b8
100
AcDbEntity
  8
0
 62
7
100
AcDbPolyline
 90
2
 70
0
 10
316.123320
 20
-35.429546
 30
0.0
 10
316.123320
 20
-32.630466
 30
0.0
  0
LWPOLYLINE
  5
2b9
100
AcDbEntity
  8
0
 62
7
100
AcDbPolyline
 90
2
 70
0
 10
296.872660
 20
-35.630206
 30
0.0
 10
293.674800
 20
-35.630206
 30
0.0
  0
LWPOLYLINE
  5
2ba
100
AcDbEntity
  8
0
 62
7
100
AcDbPolyline
 90
2
 70
0
 10
293.474140
 20
-35.429546
 30
0.0
 10
293.474140
 20
-32.630466
 30
0.0
  0
LWPOLYLINE
  5
2bb
100
AcDbEntity
  8
0
 62
7
100
AcDbPolyline
 90
2
 70
0
 10
296.872660
 20
-32.429806
 30
0.0
 10
293.674800
 20
-32.429806
 30
0.0
  0
SPLINE
  5
2bc
100
AcDbEntity
  8
0
 62
7
100
AcDbSpline
 70
8
 71
3
 72
8
 73
4
 74
0
 40
0
 40
0
 40
0
 40
0
 40
1
 40
1
 40
1
 40
1
 10
293.674800
 20
-32.430568
 30
0.0
 10
293.621616
 20
-32.430392
 30
0.0
 10
293.570553
 20
-32.451407
 30
0.0
 10
293.532898
 20
-32.488966
 30
0.0
  0
SPLINE
  5
2bd
100
AcDbEntity
  8
0
 62
7
100
AcDbSpline
 70
8
 71
3
 72
8
 73
4
 74
0
 40
0
 40
0
 40
0
 40
0
 40
1
 40
1
 40
1
 40
1
 10
293.532898
 20
-32.488966
 30
0.0
 10
293.495243
 20
-32.526525
 30
0.0
 10
293.474099
 20
-32.577535
 30
0.0
 10
293.474140
 20
-32.630720
 30
0.0
  0
SPLINE
  5
2be
100
AcDbEntity
  8
0
 62
7
100
AcDbSpline
 70
8
 71
3
 72
8
 73
4
 74
0
 40
0
 40
0
 40
0
 40
0
 40
1
 40
1
 40
1
 40
1
 10
297.075860
 20
-32.630720
 30
0.0
 10
297.075901
 20
-32.577535
 30
0.0
 10
297.054757
 20
-32.526525
 30
0.0
 10
297.017102
 20
-32.488966
 30
0.0
  0
SPLINE
  5
2bf
100
AcDbEntity
  8
0
 62
7
100
AcDbSpline
 70
8
 71
3
 72
8
 73
4
 74
0
 40
0
 40
0
 40
0
 40
0
 40
1
 40
1
 40
1
 40
1
 10
297.017102
 20
-32.488966
 30
0.0
 10
296.979447
 20
-32.451407
 30
0.0
 10
296.928384
 20
-32.430392
 30
0.0
 10
296.875200
 20
-32.430568
 30
0.0
  0
SPLINE
  5
2c0
100
AcDbEntity
  8
0
 62
7
100
AcDbSpline
 70
8
 71
3
 72
8
 73
4
 74
0
 40
0
 40
0
 40
0
 40
0
 40
1
 40
1
 40
1
 40
1
 10
293.474140
 20
-35.430562
 30
0.0
 10
293.474099
 20
-35.483746
 30
0.0
 10
293.495243
 20
-35.534756
 30
0.0
 10
293.532898
 20
-35.572315
 30
0.0
  0
SPLINE
  5
2c1
100
AcDbEntity
  8
0
 62
7
100
AcDbSpline
 70
8
 71
3
 72
8
 73
4
 74
0
 40
0
 40
0
 40
0
 40
0
 40
1
 40
1
 40
1
 40
1
 10
293.532898
 20
-35.572315
 30
0.0
 10
293.570553
 20
-35.609874
 30
0.0
 10
293.621616
 20
-35.630889
 30
0.0
 10
293.674800
 20
-35.630714
 30
0.0
  0
SPLINE
  5
2c2
100
AcDbEntity
  8
0
 62
7
100
AcDbSpline
 70
8
 71
3
 72
8
 73
4
 74
0
 40
0
 40
0
 40
0
 40
0
 40
1
 40
1
 40
1
 40
1
 10
296.875200
 20
-35.630714
 30
0.0
 10
296.928384
 20
-35.630889
 30
0.0
 10
296.979447
 20
-35.609874
 30
0.0
 10
297.017102
 20
-35.572315
 30
0.0
  0
SPLINE
  5
2c3
100
AcDbEntity
  8
0
 62
7
100
AcDbSpline
 70
8
 71
3
 72
8
 73
4
 74
0
 40
0
 40
0
 40
0
 40
0
 40
1
 40
1
 40
1
 40
1
 10
297.017102
 20
-35.572315
 30
0.0
 10
297.054757
 20
-35.534756
 30
0.0
 10
297.075901
 20
-35.483746
 30
0.0
 10
297.075860
 20
-35.430562
 30
0.0
  0
LWPOLYLINE
  5
2c4
100
AcDbEntity
  8
0
 62
7
100
AcDbPolyline
 90
2
 70
0
 10
297.073320
 20
-35.429546
 30
0.0
 10
297.073320
 20
-32.630466
 30
0.0
  0
LWPOLYLINE
  5
2c5
100
AcDbEntity
  8
0
 62
7
100
AcDbPolyline
 90
2
 70
0
 10
277.822660
 20
-35.630206
 30
0.0
 10
274.624800
 20
-35.630206
 30
0.0
  0
LWPOLYLINE
  5
2c6
100
AcDbEntity
  8
0
 62
7
100
AcDbPolyline
 90
2
 70
0
 10
274.424140
 20
-35.429546
 30
0.0
 10
274.424140
 20
-32.630466
 30
0.0
  0
LWPOLYLINE
  5
2c7
100
AcDbEntity
  8
0
 62
7
100
AcDbPolyline
 90
2
 70
0
 10
277.822660
 20
-32.429806
 30
0.0
 10
274.624800
 20
-32.429806
 30
0.0
  0
SPLINE
  5
2c8
100
AcDbEntity
  8
0
 62
7
100
AcDbSpline
 70
8
 71
3
 72
8
 73
4
 74
0
 40
0
 40
0
 40
0
 40
0
 40
1
 40
1
 40
1
 40
1
 10
274.624800
 20
-32.430568
 30
0.0
 10
274.571616
 20
-32.430392
 30
0.0
 10
274.520553
 20
-32.451407
 30
0.0
 10
274.482898
 20
-32.488966
 30
0.0
  0
SPLINE
  5
2c9
100
AcDbEntity
  8
0
 62
7
100
AcDbSpline
 70
8
 71
3
 72
8
 73
4
 74
0
 40
0
 40
0
 40
0
 40
0
 40
1
 40
1
 40
1
 40
1
 10
274.482898
 20
-32.488966
 30
0.0
 10
274.445243
 20
-32.526525
 30
0.0
 10
274.424099
 20
-32.577535
 30
0.0
 10
274.424140
 20
-32.630720
 30
0.0
  0
SPLINE
  5
2ca
100
AcDbEntity
  8
0
 62
7
100
AcDbSpline
 70
8
 71
3
 72
8
 73
4
 74
0
 40
0
 40
0
 40
0
 40
0
 40
1
 40
1
 40
1
 40
1
 10
278.025860
 20
-32.630720
 30
0.0
 10
278.025901
 20
-32.577535
 30
0.0
 10
278.004757
 20
-32.526525
 30
0.0
 10
277.967102
 20
-32.488966
 30
0.0
  0
SPLINE
  5
2cb
100
AcDbEntity
  8
0
 62
7
100
AcDbSpline
 70
8
 71
3
 72
8
 73
4
 74
0
 40
0
 40
0
 40
0
 40
0
 40
1
 40
1
 40
1
 40
1
 10
277.967102
 20
-32.488966
 30
0.0
 10
277.929447
 20
-32.451407
 30
0.0
 10
277.878384
 20
-32.430392
 30
0.0
 10
277.825200
 20
-32.430568
 30
0.0
  0
SPLINE
  5
2cc
100
AcDbEntity
  8
0
 62
7
100
AcDbSpline
 70
8
 71
3
 72
8
 73
4
 74
0
 40
0
 40
0
 40
0
 40
0
 40
1
 40
1
 40
1
 40
1
 10
274.424140
 20
-35.430562
 30
0.0
 10
274.424099
 20
-35.483746
 30
0.0
 10
274.445243
 20
-35.534756
 30
0.0
 10
274.482898
 20
-35.572315
 30
0.0
  0
SPLINE
  5
2cd
100
AcDbEntity
  8
0
 62
7
100
AcDbSpline
 70
8
 71
3
 72
8
 73
4
 74
0
 40
0
 40
0
 40
0
 40
0
 40
1
 40
1
 40
1
 40
1
 10
274.482898
 20
-35.572315
 30
0.0
 10
274.520553
 20
-35.609874
 30
0.0
 10
274.571616
 20
-35.630889
 30
0.0
 10
274.624800
 20
-35.630714
 30
0.0
  0
SPLINE
  5
2ce
100
AcDbEntity
  8
0
 62
7
100
AcDbSpline
 70
8
 71
3
 72
8
 73
4
 74
0
 40
0
 40
0
 40
0
 40
0
 40
1
 40
1
 40
1
 40
1
 10
277.825200
 20
-35.630714
 30
0.0
 10
277.878384
 20
-35.630889
 30
0.0
 10
277.929447
 20
-35.609874
 30
0.0
 10
277.967102
 20
-35.572315
 30
0.0
  0
SPLINE
  5
2cf
100
AcDbEntity
  8
0
 62
7
100
AcDbSpline
 70
8
 71
3
 72
8
 73
4
 74
0
 40
0
 40
0
 40
0
 40
0
 40
1
 40
1
 40
1
 40
1
 10
277.967102
 20
-35.572315
 30
0.0
 10
278.004757
 20
-35.534756
 30
0.0
 10
278.025901
 20
-35.483746
 30
0.0
 10
278.025860
 20
-35.430562
 30
0.0
  0
LWPOLYLINE
  5
2d0
100
AcDbEntity
  8
0
 62
7
100
AcDbPolyline
 90
2
 70
0
 10
278.023320
 20
-35.429546
 30
0.0
 10
278.023320
 20
-32.630466
 30
0.0
  0
LWPOLYLINE
  5
2d1
100
AcDbEntity
  8
0
 62
7
100
AcDbPolyline
 90
2
 70
0
 10
258.772660
 20
-35.630206
 30
0.0
 10
255.574800
 20
-35.630206
 30
0.0
  0
LWPOLYLINE
  5
2d2
100
AcDbEntity
  8
0
 62
7
100
AcDbPolyline
 90
2
 70
0
 10
255.374140
 20
-35.429546
 30
0.0
 10
255.374140
 20
-32.630466
 30
0.0
  0
LWPOLYLINE
  5
2d3
100
AcDbEntity
  8
0
 62
7
100
AcDbPolyline
 90
2
 70
0
 10
258.772660
 20
-32.429806
 30
0.0
 10
255.574800
 20
-32.429806
 30
0.0
  0
SPLINE
  5
2d4
100
AcDbEntity
  8
0
 62
7
100
AcDbSpline
 70
8
 71
3
 72
8
 73
4
 74
0
 40
0
 40
0
 40
0
 40
0
 40
1
 40
1
 40
1
 40
1
 10
255.574800
 20
-32.430568
 30
0.0
 10
255.521616
 20
-32.430392
 30
0.0
 10
255.470553
 20
-32.451407
 30
0.0
 10
255.432898
 20
-32.488966
 30
0.0
  0
SPLINE
  5
2d5
100
AcDbEntity
  8
0
 62
7
100
AcDbSpline
 70
8
 71
3
 72
8
 73
4
 74
0
 40
0
 40
0
 40
0
 40
0
 40
1
 40
1
 40
1
 40
1
 10
255.432898
 20
-32.488966
 30
0.0
 10
255.395243
 20
-32.526525
 30
0.0
 10
255.374099
 20
-32.577535
 30
0.0
 10
255.374140
 20
-32.630720
 30
0.0
  0
SPLINE
  5
2d6
100
AcDbEntity
  8
0
 62
7
100
AcDbSpline
 70
8
 71
3
 72
8
 73
4
 74
0
 40
0
 40
0
 40
0
 40
0
 40
1
 40
1
 40
1
 40
1
 10
258.975860
 20
-32.630720
 30
0.0
 10
258.975901
 20
-32.577535
 30
0.0
 10
258.954757
 20
-32.526525
 30
0.0
 10
258.917102
 20
-32.488966
 30
0.0
  0
SPLINE
  5
2d7
100
AcDbEntity
  8
0
 62
7
100
AcDbSpline
 70
8
 71
3
 72
8
 73
4
 74
0
 40
0
 40
0
 40
0
 40
0
 40
1
 40
1
 40
1
 40
1
 10
258.917102
 20
-32.488966
 30
0.0
 10
258.879447
 20
-32.451407
 30
0.0
 10
258.828384
 20
-32.430392
 30
0.0
 10
258.775200
 20
-32.430568
 30
0.0
  0
SPLINE
  5
2d8
100
AcDbEntity
  8
0
 62
7
100
AcDbSpline
 70
8
 71
3
 72
8
 73
4
 74
0
 40
0
 40
0
 40
0
 40
0
 40
1
 40
1
 40
1
 40
1
 10
255.374140
 20
-35.430562
 30
0.0
 10
255.374099
 20
-35.483746
 30
0.0
 10
255.395243
 20
-35.534756
 30
0.0
 10
255.432898
 20
-35.572315
 30
0.0
  0
SPLINE
  5
2d9
100
AcDbEntity
  8
0
 62
7
100
AcDbSpline
 70
8
 71
3
 72
8
 73
4
 74
0
 40
0
 40
0
 40
0
 40
0
 40
1
 40
1
 40
1
 40
1
 10
255.432898
 20
-35.572315
 30
0.0
 10
255.470553
 20
-35.609874
 30
0.0
 10
255.521616
 20
-35.630889
 30
0.0
 10
255.574800
 20
-35.630714
 30
0.0
  0
SPLINE
  5
2da
100
AcDbEntity
  8
0
 62
7
100
AcDbSpline
 70
8
 71
3
 72
8
 73
4
 74
0
 40
0
 40
0
 40
0
 40
0
 40
1
 40
1
 40
1
 40
1
 10
258.775200
 20
-35.630714
 30
0.0
 10
258.828384
 20
-35.630889
 30
0.0
 10
258.879447
 20
-35.609874
 30
0.0
 10
258.917102
 20
-35.572315
 30
0.0
  0
SPLINE
  5
2db
100
AcDbEntity
  8
0
 62
7
100
AcDbSpline
 70
8
 71
3
 72
8
 73
4
 74
0
 40
0
 40
0
 40
0
 40
0
 40
1
 40
1
 40
1
 40
1
 10
258.917102
 20
-35.572315
 30
0.0
 10
258.954757
 20
-35.534756
 30
0.0
 10
258.975901
 20
-35.483746
 30
0.0
 10
258.975860
 20
-35.430562
 30
0.0
  0
LWPOLYLINE
  5
2dc
100
AcDbEntity
  8
0
 62
7
100
AcDbPolyline
 90
2
 70
0
 10
258.973320
 20
-35.429546
 30
0.0
 10
258.973320
 20
-32.630466
 30
0.0
  0
LWPOLYLINE
  5
2dd
100
AcDbEntity
  8
0
 62
7
100
AcDbPolyline
 90
2
 70
0
 10
334.972660
 20
-16.580206
 30
0.0
 10
331.774800
 20
-16.580206
 30
0.0
  0
LWPOLYLINE
  5
2de
100
AcDbEntity
  8
0
 62
7
100
AcDbPolyline
 90
2
 70
0
 10
331.574140
 20
-16.379546
 30
0.0
 10
331.574140
 20
-13.580466
 30
0.0
  0
LWPOLYLINE
  5
2df
100
AcDbEntity
  8
0
 62
7
100
AcDbPolyline
 90
2
 70
0
 10
334.972660
 20
-13.379806
 30
0.0
 10
331.774800
 20
-13.379806
 30
0.0
  0
SPLINE
  5
2e0
100
AcDbEntity
  8
0
 62
7
100
AcDbSpline
 70
8
 71
3
 72
8
 73
4
 74
0
 40
0
 40
0
 40
0
 40
0
 40
1
 40
1
 40
1
 40
1
 10
331.774800
 20
-13.380593
 30
0.0
 10
331.721638
 20
-13.380418
 30
0.0
 10
331.670594
 20
-13.401415
 30
0.0
 10
331.632943
 20
-13.438947
 30
0.0
  0
SPLINE
  5
2e1
100
AcDbEntity
  8
0
 62
7
100
AcDbSpline
 70
8
 71
3
 72
8
 73
4
 74
0
 40
0
 40
0
 40
0
 40
0
 40
1
 40
1
 40
1
 40
1
 10
331.632943
 20
-13.438947
 30
0.0
 10
331.595292
 20
-13.476478
 30
0.0
 10
331.574133
 20
-13.527456
 30
0.0
 10
331.574140
 20
-13.580618
 30
0.0
  0
SPLINE
  5
2e2
100
AcDbEntity
  8
0
 62
7
100
AcDbSpline
 70
8
 71
3
 72
8
 73
4
 74
0
 40
0
 40
0
 40
0
 40
0
 40
1
 40
1
 40
1
 40
1
 10
335.175860
 20
-13.580618
 30
0.0
 10
335.175867
 20
-13.527456
 30
0.0
 10
335.154708
 20
-13.476478
 30
0.0
 10
335.117057
 20
-13.438947
 30
0.0
  0
SPLINE
  5
2e3
100
AcDbEntity
  8
0
 62
7
100
AcDbSpline
 70
8
 71
3
 72
8
 73
4
 74
0
 40
0
 40
0
 40
0
 40
0
 40
1
 40
1
 40
1
 40
1
 10
335.117057
 20
-13.438947
 30
0.0
 10
335.079406
 20
-13.401415
 30
0.0
 10
335.028362
 20
-13.380418
 30
0.0
 10
334.975200
 20
-13.380593
 30
0.0
  0
SPLINE
  5
2e4
100
AcDbEntity
  8
0
 62
7
100
AcDbSpline
 70
8
 71
3
 72
8
 73
4
 74
0
 40
0
 40
0
 40
0
 40
0
 40
1
 40
1
 40
1
 40
1
 10
331.574140
 20
-16.380612
 30
0.0
 10
331.574140
 20
-16.433770
 30
0.0
 10
331.595302
 20
-16.484741
 30
0.0
 10
331.632952
 20
-16.522267
 30
0.0
  0
SPLINE
  5
2e5
100
AcDbEntity
  8
0
 62
7
100
AcDbSpline
 70
8
 71
3
 72
8
 73
4
 74
0
 40
0
 40
0
 40
0
 40
0
 40
1
 40
1
 40
1
 40
1
 10
331.632952
 20
-16.522267
 30
0.0
 10
331.670602
 20
-16.559794
 30
0.0
 10
331.721643
 20
-16.580787
 30
0.0
 10
331.774800
 20
-16.580612
 30
0.0
  0
SPLINE
  5
2e6
100
AcDbEntity
  8
0
 62
7
100
AcDbSpline
 70
8
 71
3
 72
8
 73
4
 74
0
 40
0
 40
0
 40
0
 40
0
 40
1
 40
1
 40
1
 40
1
 10
334.975200
 20
-16.580612
 30
0.0
 10
335.028357
 20
-16.580787
 30
0.0
 10
335.079398
 20
-16.559794
 30
0.0
 10
335.117048
 20
-16.522267
 30
0.0
  0
SPLINE
  5
2e7
100
AcDbEntity
  8
0
 62
7
100
AcDbSpline
 70
8
 71
3
 72
8
 73
4
 74
0
 40
0
 40
0
 40
0
 40
0
 40
1
 40
1
 40
1
 40
1
 10
335.117048
 20
-16.522267
 30
0.0
 10
335.154698
 20
-16.484741
 30
0.0
 10
335.175860
 20
-16.433770
 30
0.0
 10
335.175860
 20
-16.380612
 30
0.0
  0
LWPOLYLINE
  5
2e8
100
AcDbEntity
  8
0
 62
7
100
AcDbPolyline
 90
2
 70
0
 10
335.173320
 20
-16.379546
 30
0.0
 10
335.173320
 20
-13.580466
 30
0.0
  0
LWPOLYLINE
  5
2e9
100
AcDbEntity
  8
0
 62
7
100
AcDbPolyline
 90
2
 70
0
 10
315.922660
 20
-16.580206
 30
0.0
 10
312.724800
 20
-16.580206
 30
0.0
  0
LWPOLYLINE
  5
2ea
100
AcDbEntity
  8
0
 62
7
100
AcDbPolyline
 90
2
 70
0
 10
312.524140
 20
-16.379546
 30
0.0
 10
312.524140
 20
-13.580466
 30
0.0
  0
LWPOLYLINE
  5
2eb
100
AcDbEntity
  8
0
 62
7
100
AcDbPolyline
 90
2
 70
0
 10
315.922660
 20
-13.379806
 30
0.0
 10
312.724800
 20
-13.379806
 30
0.0
  0
SPLINE
  5
2ec
100
AcDbEntity
  8
0
 62
7
100
AcDbSpline
 70
8
 71
3
 72
8
 73
4
 74
0
 40
0
 40
0
 40
0
 40
0
 40
1
 40
1
 40
1
 40
1
 10
312.724800
 20
-13.380593
 30
0.0
 10
312.671638
 20
-13.380418
 30
0.0
 10
312.620594
 20
-13.401415
 30
0.0
 10
312.582943
 20
-13.438947
 30
0.0
  0
SPLINE
  5
2ed
100
AcDbEntity
  8
0
 62
7
100
AcDbSpline
 70
8
 71
3
 72
8
 73
4
 74
0
 40
0
 40
0
 40
0
 40
0
 40
1
 40
1
 40
1
 40
1
 10
312.582943
 20
-13.438947
 30
0.0
 10
312.545292
 20
-13.476478
 30
0.0
 10
312.524133
 20
-13.527456
 30
0.0
 10
312.524140
 20
-13.580618
 30
0.0
  0
SPLINE
  5
2ee
100
AcDbEntity
  8
0
 62
7
100
AcDbSpline
 70
8
 71
3
 72
8
 73
4
 74
0
 40
0
 40
0
 40
0
 40
0
 40
1
 40
1
 40
1
 40
1
 10
316.125860
 20
-13.580618
 30
0.0
 10
316.125867
 20
-13.527456
 30
0.0
 10
316.104708
 20
-13.476478
 30
0.0
 10
316.067057
 20
-13.438947
 30
0.0
  0
SPLINE
  5
2ef
100
AcDbEntity
  8
0
 62
7
100
AcDbSpline
 70
8
 71
3
 72
8
 73
4
 74
0
 40
0
 40
0
 40
0
 40
0
 40
1
 40
1
 40
1
 40
1
 10
316.067057
 20
-13.438947
 30
0.0
 10
316.029406
 20
-13.401415
 30
0.0
 10
315.978362
 20
-13.380418
 30
0.0
 10
315.925200
 20
-13.380593
 30
0.0
  0
SPLINE
  5
2f0
100
AcDbEntity
  8
0
 62
7
100
AcDbSpline
 70
8
 71
3
 72
8
 73
4
 74
0
 40
0
 40
0
 40
0
 40
0
 40
1
 40
1
 40
1
 40
1
 10
312.524140
 20
-16.380612
 30
0.0
 10
312.524140
 20
-16.433770
 30
0.0
 10
312.545302
 20
-16.484741
 30
0.0
 10
312.582952
 20
-16.522267
 30
0.0
  0
SPLINE
  5
2f1
100
AcDbEntity
  8
0
 62
7
100
AcDbSpline
 70
8
 71
3
 72
8
 73
4
 74
0
 40
0
 40
0
 40
0
 40
0
 40
1
 40
1
 40
1
 40
1
 10
312.582952
 20
-16.522267
 30
0.0
 10
312.620602
 20
-16.559794
 30
0.0
 10
312.671643
 20
-16.580787
 30
0.0
 10
312.724800
 20
-16.580612
 30
0.0
  0
SPLINE
  5
2f2
100
AcDbEntity
  8
0
 62
7
100
AcDbSpline
 70
8
 71
3
 72
8
 73
4
 74
0
 40
0
 40
0
 40
0
 40
0
 40
1
 40
1
 40
1
 40
1
 10
315.925200
 20
-16.580612
 30
0.0
 10
315.978357
 20
-16.580787
 30
0.0
 10
316.029398
 20
-16.559794
 30
0.0
 10
316.067048
 20
-16.522267
 30
0.0
  0
SPLINE
  5
2f3
100
AcDbEntity
  8
0
 62
7
100
AcDbSpline
 70
8
 71
3
 72
8
 73
4
 74
0
 40
0
 40
0
 40
0
 40
0
 40
1
 40
1
 40
1
 40
1
 10
316.067048
 20
-16.522267
 30
0.0
 10
316.104698
 20
-16.484741
 30
0.0
 10
316.125860
 20
-16.433770
 30
0.0
 10
316.125860
 20
-16.380612
 30
0.0
  0
LWPOLYLINE
  5
2f4
100
AcDbEntity
  8
0
 62
7
100
AcDbPolyline
 90
2
 70
0
 10
316.123320
 20
-16.379546
 30
0.0
 10
316.123320
 20
-13.580466
 30
0.0
  0
LWPOLYLINE
  5
2f5
100
AcDbEntity
  8
0
 62
7
100
AcDbPolyline
 90
2
 70
0
 10
296.872660
 20
-16.580206
 30
0.0
 10
293.674800
 20
-16.580206
 30
0.0
  0
LWPOLYLINE
  5
2f6
100
AcDbEntity
  8
0
 62
7
100
AcDbPolyline
 90
2
 70
0
 10
293.474140
 20
-16.379546
 30
0.0
 10
293.474140
 20
-13.580466
 30
0.0
  0
LWPOLYLINE
  5
2f7
100
AcDbEntity
  8
0
 62
7
100
AcDbPolyline
 90
2
 70
0
 10
296.872660
 20
-13.379806
 30
0.0
 10
293.674800
 20
-13.379806
 30
0.0
  0
SPLINE
  5
2f8
100
AcDbEntity
  8
0
 62
7
100
AcDbSpline
 70
8
 71
3
 72
8
 73
4
 74
0
 40
0
 40
0
 40
0
 40
0
 40
1
 40
1
 40
1
 40
1
 10
293.674800
 20
-13.380593
 30
0.0
 10
293.621638
 20
-13.380418
 30
0.0
 10
293.570594
 20
-13.401415
 30
0.0
 10
293.532943
 20
-13.438947
 30
0.0
  0
SPLINE
  5
2f9
100
AcDbEntity
  8
0
 62
7
100
AcDbSpline
 70
8
 71
3
 72
8
 73
4
 74
0
 40
0
 40
0
 40
0
 40
0
 40
1
 40
1
 40
1
 40
1
 10
293.532943
 20
-13.438947
 30
0.0
 10
293.495292
 20
-13.476478
 30
0.0
 10
293.474133
 20
-13.527456
 30
0.0
 10
293.474140
 20
-13.580618
 30
0.0
  0
SPLINE
  5
2fa
100
AcDbEntity
  8
0
 62
7
100
AcDbSpline
 70
8
 71
3
 72
8
 73
4
 74
0
 40
0
 40
0
 40
0
 40
0
 40
1
 40
1
 40
1
 40
1
 10
297.075860
 20
-13.580618
 30
0.0
 10
297.075867
 20
-13.527456
 30
0.0
 10
297.054708
 20
-13.476478
 30
0.0
 10
297.017057
 20
-13.438947
 30
0.0
  0
SPLINE
  5
2fb
100
AcDbEntity
  8
0
 62
7
100
AcDbSpline
 70
8
 71
3
 72
8
 73
4
 74
0
 40
0
 40
0
 40
0
 40
0
 40
1
 40
1
 40
1
 40
1
 10
297.017057
 20
-13.438947
 30
0.0
 10
296.979406
 20
-13.401415
 30
0.0
 10
296.928362
 20
-13.380418
 30
0.0
 10
296.875200
 20
-13.380593
 30
0.0
  0
SPLINE
  5
2fc
100
AcDbEntity
  8
0
 62
7
100
AcDbSpline
 70
8
 71
3
 72
8
 73
4
 74
0
 40
0
 40
0
 40
0
 40
0
 40
1
 40
1
 40
1
 40
1
 10
293.474140
 20
-16.380612
 30
0.0
 10
293.474140
 20
-16.433770
 30
0.0
 10
293.495302
 20
-16.484741
 30
0.0
 10
293.532952
 20
-16.522267
 30
0.0
  0
SPLINE
  5
2fd
100
AcDbEntity
  8
0
 62
7
100
AcDbSpline
 70
8
 71
3
 72
8
 73
4
 74
0
 40
0
 40
0
 40
0
 40
0
 40
1
 40
1
 40
1
 40
1
 10
293.532952
 20
-16.522267
 30
0.0
 10
293.570602
 20
-16.559794
 30
0.0
 10
293.621643
 20
-16.580787
 30
0.0
 10
293.674800
 20
-16.580612
 30
0.0
  0
SPLINE
  5
2fe
100
AcDbEntity
  8
0
 62
7
100
AcDbSpline
 70
8
 71
3
 72
8
 73
4
 74
0
 40
0
 40
0
 40
0
 40
0
 40
1
 40
1
 40
1
 40
1
 10
296.875200
 20
-16.580612
 30
0.0
 10
296.928357
 20
-16.580787
 30
0.0
 10
296.979398
 20
-16.559794
 30
0.0
 10
297.017048
 20
-16.522267
 30
0.0
  0
SPLINE
  5
2ff
100
AcDbEntity
  8
0
 62
7
100
AcDbSpline
 70
8
 71
3
 72
8
 73
4
 74
0
 40
0
 40
0
 40
0
 40
0
 40
1
 40
1
 40
1
 40
1
 10
297.017048
 20
-16.522267
 30
0.0
 10
297.054698
 20
-16.484741
 30
0.0
 10
297.075860
 20
-16.433770
 30
0.0
 10
297.075860
 20
-16.380612
 30
0.0
  0
LWPOLYLINE
  5
300
100
AcDbEntity
  8
0
 62
7
100
AcDbPolyline
 90
2
 70
0
 10
297.073320
 20
-16.379546
 30
0.0
 10
297.073320
 20
-13.580466
 30
0.0
  0
LWPOLYLINE
  5
301
100
AcDbEntity
  8
0
 62
7
100
AcDbPolyline
 90
2
 70
0
 10
277.822660
 20
-16.580206
 30
0.0
 10
274.624800
 20
-16.580206
 30
0.0
  0
LWPOLYLINE
  5
302
100
AcDbEntity
  8
0
 62
7
100
AcDbPolyline
 90
2
 70
0
 10
274.424140
 20
-16.379546
 30
0.0
 10
274.424140
 20
-13.580466
 30
0.0
  0
LWPOLYLINE
  5
303
100
AcDbEntity
  8
0
 62
7
100
AcDbPolyline
 90
2
 70
0
 10
277.822660
 20
-13.379806
 30
0.0
 10
274.624800
 20
-13.379806
 30
0.0
  0
SPLINE
  5
304
100
AcDbEntity
  8
0
 62
7
100
AcDbSpline
 70
8
 71
3
 72
8
 73
4
 74
0
 40
0
 40
0
 40
0
 40
0
 40
1
 40
1
 40
1
 40
1
 10
274.624800
 20
-13.380593
 30
0.0
 10
274.571638
 20
-13.380418
 30
0.0
 10
274.520594
 20
-13.401415
 30
0.0
 10
274.482943
 20
-13.438947
 30
0.0
  0
SPLINE
  5
305
100
AcDbEntity
  8
0
 62
7
100
AcDbSpline
 70
8
 71
3
 72
8
 73
4
 74
0
 40
0
 40
0
 40
0
 40
0
 40
1
 40
1
 40
1
 40
1
 10
274.482943
 20
-13.438947
 30
0.0
 10
274.445292
 20
-13.476478
 30
0.0
 10
274.424133
 20
-13.527456
 30
0.0
 10
274.424140
 20
-13.580618
 30
0.0
  0
SPLINE
  5
306
100
AcDbEntity
  8
0
 62
7
100
AcDbSpline
 70
8
 71
3
 72
8
 73
4
 74
0
 40
0
 40
0
 40
0
 40
0
 40
1
 40
1
 40
1
 40
1
 10
278.025860
 20
-13.580618
 30
0.0
 10
278.025867
 20
-13.527456
 30
0.0
 10
278.004708
 20
-13.476478
 30
0.0
 10
277.967057
 20
-13.438947
 30
0.0
  0
SPLINE
  5
307
100
AcDbEntity
  8
0
 62
7
100
AcDbSpline
 70
8
 71
3
 72
8
 73
4
 74
0
 40
0
 40
0
 40
0
 40
0
 40
1
 40
1
 40
1
 40
1
 10
277.967057
 20
-13.438947
 30
0.0
 10
277.929406
 20
-13.401415
 30
0.0
 10
277.878362
 20
-13.380418
 30
0.0
 10
277.825200
 20
-13.380593
 30
0.0
  0
SPLINE
  5
308
100
AcDbEntity
  8
0
 62
7
100
AcDbSpline
 70
8
 71
3
 72
8
 73
4
 74
0
 40
0
 40
0
 40
0
 40
0
 40
1
 40
1
 40
1
 40
1
 10
274.424140
 20
-16.380612
 30
0.0
 10
274.424140
 20
-16.433770
 30
0.0
 10
274.445302
 20
-16.484741
 30
0.0
 10
274.482952
 20
-16.522267
 30
0.0
  0
SPLINE
  5
309
100
AcDbEntity
  8
0
 62
7
100
AcDbSpline
 70
8
 71
3
 72
8
 73
4
 74
0
 40
0
 40
0
 40
0
 40
0
 40
1
 40
1
 40
1
 40
1
 10
274.482952
 20
-16.522267
 30
0.0
 10
274.520602
 20
-16.559794
 30
0.0
 10
274.571643
 20
-16.580787
 30
0.0
 10
274.624800
 20
-16.580612
 30
0.0
  0
SPLINE
  5
30a
100
AcDbEntity
  8
0
 62
7
100
AcDbSpline
 70
8
 71
3
 72
8
 73
4
 74
0
 40
0
 40
0
 40
0
 40
0
 40
1
 40
1
 40
1
 40
1
 10
277.825200
 20
-16.580612
 30
0.0
 10
277.878357
 20
-16.580787
 30
0.0
 10
277.929398
 20
-16.559794
 30
0.0
 10
277.967048
 20
-16.522267
 30
0.0
  0
SPLINE
  5
30b
100
AcDbEntity
  8
0
 62
7
100
AcDbSpline
 70
8
 71
3
 72
8
 73
4
 74
0
 40
0
 40
0
 40
0
 40
0
 40
1
 40
1
 40
1
 40
1
 10
277.967048
 20
-16.522267
 30
0.0
 10
278.004698
 20
-16.484741
 30
0.0
 10
278.025860
 20
-16.433770
 30
0.0
 10
278.025860
 20
-16.380612
 30
0.0
  0
LWPOLYLINE
  5
30c
100
AcDbEntity
  8
0
 62
7
100
AcDbPolyline
 90
2
 70
0
 10
278.023320
 20
-16.379546
 30
0.0
 10
278.023320
 20
-13.580466
 30
0.0
  0
LWPOLYLINE
  5
30d
100
AcDbEntity
  8
0
 62
7
100
AcDbPolyline
 90
2
 70
0
 10
258.772660
 20
-16.580206
 30
0.0
 10
255.574800
 20
-16.580206
 30
0.0
  0
LWPOLYLINE
  5
30e
100
AcDbEntity
  8
0
 62
7
100
AcDbPolyline
 90
2
 70
0
 10
255.374140
 20
-16.379546
 30
0.0
 10
255.374140
 20
-13.580466
 30
0.0
  0
LWPOLYLINE
  5
30f
100
AcDbEntity
  8
0
 62
7
100
AcDbPolyline
 90
2
 70
0
 10
258.772660
 20
-13.379806
 30
0.0
 10
255.574800
 20
-13.379806
 30
0.0
  0
SPLINE
  5
310
100
AcDbEntity
  8
0
 62
7
100
AcDbSpline
 70
8
 71
3
 72
8
 73
4
 74
0
 40
0
 40
0
 40
0
 40
0
 40
1
 40
1
 40
1
 40
1
 10
255.574800
 20
-13.380593
 30
0.0
 10
255.521638
 20
-13.380418
 30
0.0
 10
255.470594
 20
-13.401415
 30
0.0
 10
255.432943
 20
-13.438947
 30
0.0
  0
SPLINE
  5
311
100
AcDbEntity
  8
0
 62
7
100
AcDbSpline
 70
8
 71
3
 72
8
 73
4
 74
0
 40
0
 40
0
 40
0
 40
0
 40
1
 40
1
 40
1
 40
1
 10
255.432943
 20
-13.438947
 30
0.0
 10
255.395292
 20
-13.476478
 30
0.0
 10
255.374133
 20
-13.527456
 30
0.0
 10
255.374140
 20
-13.580618
 30
0.0
  0
SPLINE
  5
312
100
AcDbEntity
  8
0
 62
7
100
AcDbSpline
 70
8
 71
3
 72
8
 73
4
 74
0
 40
0
 40
0
 40
0
 40
0
 40
1
 40
1
 40
1
 40
1
 10
258.975860
 20
-13.580618
 30
0.0
 10
258.975867
 20
-13.527456
 30
0.0
 10
258.954708
 20
-13.476478
 30
0.0
 10
258.917057
 20
-13.438947
 30
0.0
  0
SPLINE
  5
313
100
AcDbEntity
  8
0
 62
7
100
AcDbSpline
 70
8
 71
3
 72
8
 73
4
 74
0
 40
0
 40
0
 40
0
 40
0
 40
1
 40
1
 40
1
 40
1
 10
258.917057
 20
-13.438947
 30
0.0
 10
258.879406
 20
-13.401415
 30
0.0
 10
258.828362
 20
-13.380418
 30
0.0
 10
258.775200
 20
-13.380593
 30
0.0
  0
SPLINE
  5
314
100
AcDbEntity
  8
0
 62
7
100
AcDbSpline
 70
8
 71
3
 72
8
 73
4
 74
0
 40
0
 40
0
 40
0
 40
0
 40
1
 40
1
 40
1
 40
1
 10
255.374140
 20
-16.380612
 30
0.0
 10
255.374140
 20
-16.433770
 30
0.0
 10
255.395302
 20
-16.484741
 30
0.0
 10
255.432952
 20
-16.522267
 30
0.0
  0
SPLINE
  5
315
100
AcDbEntity
  8
0
 62
7
100
AcDbSpline
 70
8
 71
3
 72
8
 73
4
 74
0
 40
0
 40
0
 40
0
 40
0
 40
1
 40
1
 40
1
 40
1
 10
255.432952
 20
-16.522267
 30
0.0
 10
255.470602
 20
-16.559794
 30
0.0
 10
255.521643
 20
-16.580787
 30
0.0
 10
255.574800
 20
-16.580612
 30
0.0
  0
SPLINE
  5
316
100
AcDbEntity
  8
0
 62
7
100
AcDbSpline
 70
8
 71
3
 72
8
 73
4
 74
0
 40
0
 40
0
 40
0
 40
0
 40
1
 40
1
 40
1
 40
1
 10
258.775200
 20
-16.580612
 30
0.0
 10
258.828357
 20
-16.580787
 30
0.0
 10
258.879398
 20
-16.559794
 30
0.0
 10
258.917048
 20
-16.522267
 30
0.0
  0
SPLINE
  5
317
100
AcDbEntity
  8
0
 62
7
100
AcDbSpline
 70
8
 71
3
 72
8
 73
4
 74
0
 40
0
 40
0
 40
0
 40
0
 40
1
 40
1
 40
1
 40
1
 10
258.917048
 20
-16.522267
 30
0.0
 10
258.954698
 20
-16.484741
 30
0.0
 10
258.975860
 20
-16.433770
 30
0.0
 10
258.975860
 20
-16.380612
 30
0.0
  0
LWPOLYLINE
  5
318
100
AcDbEntity
  8
0
 62
7
100
AcDbPolyline
 90
2
 70
0
 10
258.973320
 20
-16.379546
 30
0.0
 10
258.973320
 20
-13.580466
 30
0.0
  0
ENDSEC
  0
SECTION
  2
OBJECTS
  0
DICTIONARY
  5
C
330
0
100
AcDbDictionary
  3
ACAD_GROUP
350
D
  3
ACAD_MLINESTYLE
350
17
  0
DICTIONARY
  5
D
330
C
100
AcDbDictionary
  0
DICTIONARY
  5
1A
330
C
100
AcDbDictionary
  0
DICTIONARY
  5
17
330
C
100
AcDbDictionary
  3
STANDARD
350
18
  0
DICTIONARY
  5
19
330
C
100
AcDbDictionary
  0
ENDSEC
  0
EOF
