<?xml version="1.0" standalone="no"?>
 <!DOCTYPE svg PUBLIC "-//W3C//DTD SVG 1.1//EN" 
 "http://www.w3.org/Graphics/SVG/1.1/DTD/svg11.dtd"> 
<svg
  xmlns:svg="http://www.w3.org/2000/svg"
  xmlns="http://www.w3.org/2000/svg"
  xmlns:xlink="http://www.w3.org/1999/xlink"
  version="1.1"
  width="59.400440cm" height="41.998900cm" viewBox="0 0 233860 165350">
<title>SVG Picture created as ortho_right-Edge_Cuts.svg date 2020/12/12 19:04:12 </title>
  <desc>Picture generated by PCBNEW </desc>
<g style="fill:#000000; fill-opacity:1;stroke:#000000; stroke-opacity:1;
stroke-linecap:round; stroke-linejoin:round;"
 transform="translate(0 0) scale(1 1)">
</g>
<g style="fill:#000000; fill-opacity:0.0; 
stroke:#000000; stroke-width:-0.000393701; stroke-opacity:1; 
stroke-linecap:round; stroke-linejoin:round;">
</g>
<g style="fill:#000000; fill-opacity:0.0; 
stroke:#000000; stroke-width:59.0551; stroke-opacity:1; 
stroke-linecap:round; stroke-linejoin:round;">
<path d="M102182 57184
L99795 50625
" />
<path d="M79281 5669
L79281 46078
" />
</g>
<g style="fill:#000000; fill-opacity:0.0; 
stroke:#000000; stroke-width:19.685; stroke-opacity:1; 
stroke-linecap:round; stroke-linejoin:round;">
<path d="M99795 50625
L153760 50625
" />
<path d="M153760 5669
L79281 5669
" />
<path d="M153760 50625
L153760 5669
" />
<path d="M85516 63206
L102182 57184
" />
<path d="M79281 46078
L85516 63206
" />
</g>
<g style="fill:#000000; fill-opacity:0.0; 
stroke:#000000; stroke-width:47.2441; stroke-opacity:1; 
stroke-linecap:round; stroke-linejoin:round;">
<path d="M144175 30536
L144175 29434
" />
<path d="M144096 29355
L142836 29355
" />
<path d="M142758 30536
L142758 29434
" />
<path d="M144096 30615
L142836 30615
" />
<path d="M142837 29355.3 A78.7402 78.7402 0.0 0 0 142758 29434.1" />
<path d="M144175 29434.1 A78.7402 78.7402 0.0 0 0 144097 29355.3" />
<path d="M142758 30536.4 A78.7402 78.7402 0.0 0 0 142837 30615.2" />
<path d="M144097 30615.2 A78.7402 78.7402 0.0 0 0 144175 30536.4" />
<path d="M96181 51809
L95750 50625
" />
<path d="M95797 50524
L96833 50147
" />
<path d="M97365 51378
L96934 50194
" />
<path d="M96282 51856
L97318 51479
" />
<path d="M96181.8 51809.7 A78.7398 78.7398 0.0 0 0 96282.7 51856.7" />
<path d="M95798 50524.9 A78.7398 78.7398 0.0 0 0 95750.9 50625.8" />
<path d="M97318.6 51479.7 A78.7406 78.7406 0.0 0 0 97365.7 51378.8" />
<path d="M96934.8 50194.9 A78.7402 78.7402 0.0 0 0 96833.9 50147.8" />
<path d="M86335 54052
L86766 55236
" />
<path d="M86719 55337
L85683 55714
" />
<path d="M85151 54483
L85582 55667
" />
<path d="M86234 54005
L85198 54382
" />
<path d="M86335.5 54052.7 A78.7398 78.7398 0.0 0 0 86234.6 54005.7" />
<path d="M86719.3 55337.5 A78.7398 78.7398 0.0 0 0 86766.4 55236.6" />
<path d="M85198.7 54382.7 A78.7406 78.7406 0.0 0 0 85151.6 54483.6" />
<path d="M85582.5 55667.5 A78.7402 78.7402 0.0 0 0 85683.4 55714.5" />
<path d="M150629 38115
L149370 38115
" />
<path d="M149291 38036
L149291 36934
" />
<path d="M150629 36855
L149370 36855
" />
<path d="M150708 38036
L150708 36934
" />
<path d="M149370 36855.3 A78.7402 78.7402 0.0 0 0 149291 36934.1" />
<path d="M150709 36934.1 A78.7402 78.7402 0.0 0 0 150630 36855.3" />
<path d="M149291 38036.4 A78.7402 78.7402 0.0 0 0 149370 38115.2" />
<path d="M150630 38115.2 A78.7402 78.7402 0.0 0 0 150709 38036.4" />
<path d="M143129 38115
L141870 38115
" />
<path d="M141791 38036
L141791 36934
" />
<path d="M143129 36855
L141870 36855
" />
<path d="M143208 38036
L143208 36934
" />
<path d="M141870 36855.3 A78.7402 78.7402 0.0 0 0 141791 36934.1" />
<path d="M143209 36934.1 A78.7402 78.7402 0.0 0 0 143130 36855.3" />
<path d="M141791 38036.4 A78.7402 78.7402 0.0 0 0 141870 38115.2" />
<path d="M143130 38115.2 A78.7402 78.7402 0.0 0 0 143209 38036.4" />
<path d="M133755 38115
L132495 38115
" />
<path d="M132416 38036
L132416 36934
" />
<path d="M133755 36855
L132495 36855
" />
<path d="M133833 38036
L133833 36934
" />
<path d="M133755 38115.2 A78.7402 78.7402 0.0 0 0 133834 38036.4" />
<path d="M132417 38036.4 A78.7402 78.7402 0.0 0 0 132495 38115.2" />
<path d="M133834 36934.1 A78.7402 78.7402 0.0 0 0 133755 36855.3" />
<path d="M132495 36855.3 A78.7402 78.7402 0.0 0 0 132417 36934.1" />
<path d="M139379 8115
L138120 8115
" />
<path d="M138041 8036
L138041 6934
" />
<path d="M139379 6855
L138120 6855
" />
<path d="M139458 8036
L139458 6934
" />
<path d="M138120 6855.31 A78.7402 78.7402 0.0 0 0 138041 6934.06" />
<path d="M139459 6934.06 A78.7402 78.7402 0.0 0 0 139380 6855.31" />
<path d="M138041 8036.42 A78.7402 78.7402 0.0 0 0 138120 8115.16" />
<path d="M139380 8115.16 A78.7402 78.7402 0.0 0 0 139459 8036.42" />
<path d="M150629 45615
L149370 45615
" />
<path d="M149291 45536
L149291 44434
" />
<path d="M150629 44355
L149370 44355
" />
<path d="M150708 45536
L150708 44434
" />
<path d="M149370 44355.3 A78.7402 78.7402 0.0 0 0 149291 44434.1" />
<path d="M150709 44434.1 A78.7402 78.7402 0.0 0 0 150630 44355.3" />
<path d="M149291 45536.4 A78.7402 78.7402 0.0 0 0 149370 45615.2" />
<path d="M150630 45615.2 A78.7402 78.7402 0.0 0 0 150709 45536.4" />
<path d="M143129 45615
L141870 45615
" />
<path d="M141791 45536
L141791 44434
" />
<path d="M143129 44355
L141870 44355
" />
<path d="M143208 45536
L143208 44434
" />
<path d="M141870 44355.3 A78.7402 78.7402 0.0 0 0 141791 44434.1" />
<path d="M143209 44434.1 A78.7402 78.7402 0.0 0 0 143130 44355.3" />
<path d="M141791 45536.4 A78.7402 78.7402 0.0 0 0 141870 45615.2" />
<path d="M143130 45615.2 A78.7402 78.7402 0.0 0 0 143209 45536.4" />
<path d="M135629 45615
L134370 45615
" />
<path d="M134291 45536
L134291 44434
" />
<path d="M135629 44355
L134370 44355
" />
<path d="M135708 45536
L135708 44434
" />
<path d="M134370 44355.3 A78.7402 78.7402 0.0 0 0 134291 44434.1" />
<path d="M135709 44434.1 A78.7402 78.7402 0.0 0 0 135630 44355.3" />
<path d="M134291 45536.4 A78.7402 78.7402 0.0 0 0 134370 45615.2" />
<path d="M135630 45615.2 A78.7402 78.7402 0.0 0 0 135709 45536.4" />
<path d="M127271 45536
L127271 44434
" />
<path d="M127192 44355
L125932 44355
" />
<path d="M125853 45536
L125853 44434
" />
<path d="M127192 45615
L125932 45615
" />
<path d="M125932 44355.3 A78.7402 78.7402 0.0 0 0 125854 44434.1" />
<path d="M127271 44434.1 A78.7402 78.7402 0.0 0 0 127192 44355.3" />
<path d="M125854 45536.4 A78.7402 78.7402 0.0 0 0 125932 45615.2" />
<path d="M127192 45615.2 A78.7402 78.7402 0.0 0 0 127271 45536.4" />
<path d="M94379 38115
L93120 38115
" />
<path d="M93041 38036
L93041 36934
" />
<path d="M94379 36855
L93120 36855
" />
<path d="M94458 38036
L94458 36934
" />
<path d="M93120.1 36855.3 A78.7402 78.7402 0.0 0 0 93041.3 36934.1" />
<path d="M94458.7 36934.1 A78.7402 78.7402 0.0 0 0 94379.9 36855.3" />
<path d="M93041.3 38036.4 A78.7402 78.7402 0.0 0 0 93120.1 38115.2" />
<path d="M94379.9 38115.2 A78.7402 78.7402 0.0 0 0 94458.7 38036.4" />
<path d="M94379 30615
L93120 30615
" />
<path d="M93041 30536
L93041 29434
" />
<path d="M94379 29355
L93120 29355
" />
<path d="M94458 30536
L94458 29434
" />
<path d="M93120.1 29355.3 A78.7402 78.7402 0.0 0 0 93041.3 29434.1" />
<path d="M94458.7 29434.1 A78.7402 78.7402 0.0 0 0 94379.9 29355.3" />
<path d="M93041.3 30536.4 A78.7402 78.7402 0.0 0 0 93120.1 30615.2" />
<path d="M94379.9 30615.2 A78.7402 78.7402 0.0 0 0 94458.7 30536.4" />
<path d="M148755 23115
L147495 23115
" />
<path d="M147416 23036
L147416 21934
" />
<path d="M148755 21855
L147495 21855
" />
<path d="M148833 23036
L148833 21934
" />
<path d="M148755 23115.2 A78.7402 78.7402 0.0 0 0 148834 23036.4" />
<path d="M147417 23036.4 A78.7402 78.7402 0.0 0 0 147495 23115.2" />
<path d="M148834 21934.1 A78.7402 78.7402 0.0 0 0 148755 21855.3" />
<path d="M147495 21855.3 A78.7402 78.7402 0.0 0 0 147417 21934.1" />
<path d="M94379 23115
L93120 23115
" />
<path d="M93041 23036
L93041 21934
" />
<path d="M94379 21855
L93120 21855
" />
<path d="M94458 23036
L94458 21934
" />
<path d="M93120.1 21855.3 A78.7402 78.7402 0.0 0 0 93041.3 21934.1" />
<path d="M94458.7 21934.1 A78.7402 78.7402 0.0 0 0 94379.9 21855.3" />
<path d="M93041.3 23036.4 A78.7402 78.7402 0.0 0 0 93120.1 23115.2" />
<path d="M94379.9 23115.2 A78.7402 78.7402 0.0 0 0 94458.7 23036.4" />
<path d="M148755 15615
L147495 15615
" />
<path d="M147416 15536
L147416 14434
" />
<path d="M148755 14355
L147495 14355
" />
<path d="M148833 15536
L148833 14434
" />
<path d="M148755 15615.2 A78.7402 78.7402 0.0 0 0 148834 15536.4" />
<path d="M147417 15536.4 A78.7402 78.7402 0.0 0 0 147495 15615.2" />
<path d="M148834 14434.1 A78.7402 78.7402 0.0 0 0 148755 14355.3" />
<path d="M147495 14355.3 A78.7402 78.7402 0.0 0 0 147417 14434.1" />
<path d="M94379 15615
L93120 15615
" />
<path d="M93041 15536
L93041 14434
" />
<path d="M94379 14355
L93120 14355
" />
<path d="M94458 15536
L94458 14434
" />
<path d="M93120.1 14355.3 A78.7402 78.7402 0.0 0 0 93041.3 14434.1" />
<path d="M94458.7 14434.1 A78.7402 78.7402 0.0 0 0 94379.9 14355.3" />
<path d="M93041.3 15536.4 A78.7402 78.7402 0.0 0 0 93120.1 15615.2" />
<path d="M94379.9 15615.2 A78.7402 78.7402 0.0 0 0 94458.7 15536.4" />
<path d="M94379 8115
L93120 8115
" />
<path d="M93041 8036
L93041 6934
" />
<path d="M94379 6855
L93120 6855
" />
<path d="M94458 8036
L94458 6934
" />
<path d="M93120.1 6855.31 A78.7402 78.7402 0.0 0 0 93041.3 6934.06" />
<path d="M94458.7 6934.06 A78.7402 78.7402 0.0 0 0 94379.9 6855.31" />
<path d="M93041.3 8036.42 A78.7402 78.7402 0.0 0 0 93120.1 8115.16" />
<path d="M94379.9 8115.16 A78.7402 78.7402 0.0 0 0 94458.7 8036.42" />
<path d="M117896 45536
L117896 44434
" />
<path d="M117817 44355
L116557 44355
" />
<path d="M116478 45536
L116478 44434
" />
<path d="M117817 45615
L116557 45615
" />
<path d="M116557 44355.3 A78.7402 78.7402 0.0 0 0 116479 44434.1" />
<path d="M117896 44434.1 A78.7402 78.7402 0.0 0 0 117817 44355.3" />
<path d="M116479 45536.4 A78.7402 78.7402 0.0 0 0 116557 45615.2" />
<path d="M117817 45615.2 A78.7402 78.7402 0.0 0 0 117896 45536.4" />
<path d="M108521 45536
L108521 44434
" />
<path d="M108442 44355
L107182 44355
" />
<path d="M107103 45536
L107103 44434
" />
<path d="M108442 45615
L107182 45615
" />
<path d="M107182 44355.3 A78.7402 78.7402 0.0 0 0 107104 44434.1" />
<path d="M108521 44434.1 A78.7402 78.7402 0.0 0 0 108442 44355.3" />
<path d="M107104 45536.4 A78.7402 78.7402 0.0 0 0 107182 45615.2" />
<path d="M108442 45615.2 A78.7402 78.7402 0.0 0 0 108521 45536.4" />
<path d="M124379 38115
L123120 38115
" />
<path d="M123041 38036
L123041 36934
" />
<path d="M124379 36855
L123120 36855
" />
<path d="M124458 38036
L124458 36934
" />
<path d="M123120 36855.3 A78.7402 78.7402 0.0 0 0 123041 36934.1" />
<path d="M124459 36934.1 A78.7402 78.7402 0.0 0 0 124380 36855.3" />
<path d="M123041 38036.4 A78.7402 78.7402 0.0 0 0 123120 38115.2" />
<path d="M124380 38115.2 A78.7402 78.7402 0.0 0 0 124459 38036.4" />
<path d="M116879 38115
L115620 38115
" />
<path d="M115541 38036
L115541 36934
" />
<path d="M116879 36855
L115620 36855
" />
<path d="M116958 38036
L116958 36934
" />
<path d="M115620 36855.3 A78.7402 78.7402 0.0 0 0 115541 36934.1" />
<path d="M116959 36934.1 A78.7402 78.7402 0.0 0 0 116880 36855.3" />
<path d="M115541 38036.4 A78.7402 78.7402 0.0 0 0 115620 38115.2" />
<path d="M116880 38115.2 A78.7402 78.7402 0.0 0 0 116959 38036.4" />
<path d="M109379 38115
L108120 38115
" />
<path d="M108041 38036
L108041 36934
" />
<path d="M109379 36855
L108120 36855
" />
<path d="M109458 38036
L109458 36934
" />
<path d="M108120 36855.3 A78.7402 78.7402 0.0 0 0 108041 36934.1" />
<path d="M109459 36934.1 A78.7402 78.7402 0.0 0 0 109380 36855.3" />
<path d="M108041 38036.4 A78.7402 78.7402 0.0 0 0 108120 38115.2" />
<path d="M109380 38115.2 A78.7402 78.7402 0.0 0 0 109459 38036.4" />
<path d="M101879 38115
L100620 38115
" />
<path d="M100541 38036
L100541 36934
" />
<path d="M101879 36855
L100620 36855
" />
<path d="M101958 38036
L101958 36934
" />
<path d="M100620 36855.3 A78.7402 78.7402 0.0 0 0 100541 36934.1" />
<path d="M101959 36934.1 A78.7402 78.7402 0.0 0 0 101880 36855.3" />
<path d="M100541 38036.4 A78.7402 78.7402 0.0 0 0 100620 38115.2" />
<path d="M101880 38115.2 A78.7402 78.7402 0.0 0 0 101959 38036.4" />
<path d="M131879 30615
L130620 30615
" />
<path d="M130541 30536
L130541 29434
" />
<path d="M131879 29355
L130620 29355
" />
<path d="M131958 30536
L131958 29434
" />
<path d="M130620 29355.3 A78.7402 78.7402 0.0 0 0 130541 29434.1" />
<path d="M131959 29434.1 A78.7402 78.7402 0.0 0 0 131880 29355.3" />
<path d="M130541 30536.4 A78.7402 78.7402 0.0 0 0 130620 30615.2" />
<path d="M131880 30615.2 A78.7402 78.7402 0.0 0 0 131959 30536.4" />
<path d="M124379 30615
L123120 30615
" />
<path d="M123041 30536
L123041 29434
" />
<path d="M124379 29355
L123120 29355
" />
<path d="M124458 30536
L124458 29434
" />
<path d="M123120 29355.3 A78.7402 78.7402 0.0 0 0 123041 29434.1" />
<path d="M124459 29434.1 A78.7402 78.7402 0.0 0 0 124380 29355.3" />
<path d="M123041 30536.4 A78.7402 78.7402 0.0 0 0 123120 30615.2" />
<path d="M124380 30615.2 A78.7402 78.7402 0.0 0 0 124459 30536.4" />
<path d="M116879 30615
L115620 30615
" />
<path d="M115541 30536
L115541 29434
" />
<path d="M116879 29355
L115620 29355
" />
<path d="M116958 30536
L116958 29434
" />
<path d="M115620 29355.3 A78.7402 78.7402 0.0 0 0 115541 29434.1" />
<path d="M116959 29434.1 A78.7402 78.7402 0.0 0 0 116880 29355.3" />
<path d="M115541 30536.4 A78.7402 78.7402 0.0 0 0 115620 30615.2" />
<path d="M116880 30615.2 A78.7402 78.7402 0.0 0 0 116959 30536.4" />
<path d="M109379 30615
L108120 30615
" />
<path d="M108041 30536
L108041 29434
" />
<path d="M109379 29355
L108120 29355
" />
<path d="M109458 30536
L109458 29434
" />
<path d="M108120 29355.3 A78.7402 78.7402 0.0 0 0 108041 29434.1" />
<path d="M109459 29434.1 A78.7402 78.7402 0.0 0 0 109380 29355.3" />
<path d="M108041 30536.4 A78.7402 78.7402 0.0 0 0 108120 30615.2" />
<path d="M109380 30615.2 A78.7402 78.7402 0.0 0 0 109459 30536.4" />
<path d="M101879 30615
L100620 30615
" />
<path d="M100541 30536
L100541 29434
" />
<path d="M101879 29355
L100620 29355
" />
<path d="M101958 30536
L101958 29434
" />
<path d="M100620 29355.3 A78.7402 78.7402 0.0 0 0 100541 29434.1" />
<path d="M101959 29434.1 A78.7402 78.7402 0.0 0 0 101880 29355.3" />
<path d="M100541 30536.4 A78.7402 78.7402 0.0 0 0 100620 30615.2" />
<path d="M101880 30615.2 A78.7402 78.7402 0.0 0 0 101959 30536.4" />
<path d="M139379 23115
L138120 23115
" />
<path d="M138041 23036
L138041 21934
" />
<path d="M139379 21855
L138120 21855
" />
<path d="M139458 23036
L139458 21934
" />
<path d="M138120 21855.3 A78.7402 78.7402 0.0 0 0 138041 21934.1" />
<path d="M139459 21934.1 A78.7402 78.7402 0.0 0 0 139380 21855.3" />
<path d="M138041 23036.4 A78.7402 78.7402 0.0 0 0 138120 23115.2" />
<path d="M139380 23115.2 A78.7402 78.7402 0.0 0 0 139459 23036.4" />
<path d="M131879 23115
L130620 23115
" />
<path d="M130541 23036
L130541 21934
" />
<path d="M131879 21855
L130620 21855
" />
<path d="M131958 23036
L131958 21934
" />
<path d="M130620 21855.3 A78.7402 78.7402 0.0 0 0 130541 21934.1" />
<path d="M131959 21934.1 A78.7402 78.7402 0.0 0 0 131880 21855.3" />
<path d="M130541 23036.4 A78.7402 78.7402 0.0 0 0 130620 23115.2" />
<path d="M131880 23115.2 A78.7402 78.7402 0.0 0 0 131959 23036.4" />
<path d="M124379 23115
L123120 23115
" />
<path d="M123041 23036
L123041 21934
" />
<path d="M124379 21855
L123120 21855
" />
<path d="M124458 23036
L124458 21934
" />
<path d="M123120 21855.3 A78.7402 78.7402 0.0 0 0 123041 21934.1" />
<path d="M124459 21934.1 A78.7402 78.7402 0.0 0 0 124380 21855.3" />
<path d="M123041 23036.4 A78.7402 78.7402 0.0 0 0 123120 23115.2" />
<path d="M124380 23115.2 A78.7402 78.7402 0.0 0 0 124459 23036.4" />
<path d="M116879 23115
L115620 23115
" />
<path d="M115541 23036
L115541 21934
" />
<path d="M116879 21855
L115620 21855
" />
<path d="M116958 23036
L116958 21934
" />
<path d="M115620 21855.3 A78.7402 78.7402 0.0 0 0 115541 21934.1" />
<path d="M116959 21934.1 A78.7402 78.7402 0.0 0 0 116880 21855.3" />
<path d="M115541 23036.4 A78.7402 78.7402 0.0 0 0 115620 23115.2" />
<path d="M116880 23115.2 A78.7402 78.7402 0.0 0 0 116959 23036.4" />
<path d="M109379 23115
L108120 23115
" />
<path d="M108041 23036
L108041 21934
" />
<path d="M109379 21855
L108120 21855
" />
<path d="M109458 23036
L109458 21934
" />
<path d="M108120 21855.3 A78.7402 78.7402 0.0 0 0 108041 21934.1" />
<path d="M109459 21934.1 A78.7402 78.7402 0.0 0 0 109380 21855.3" />
<path d="M108041 23036.4 A78.7402 78.7402 0.0 0 0 108120 23115.2" />
<path d="M109380 23115.2 A78.7402 78.7402 0.0 0 0 109459 23036.4" />
<path d="M101879 23115
L100620 23115
" />
<path d="M100541 23036
L100541 21934
" />
<path d="M101879 21855
L100620 21855
" />
<path d="M101958 23036
L101958 21934
" />
<path d="M100620 21855.3 A78.7402 78.7402 0.0 0 0 100541 21934.1" />
<path d="M101959 21934.1 A78.7402 78.7402 0.0 0 0 101880 21855.3" />
<path d="M100541 23036.4 A78.7402 78.7402 0.0 0 0 100620 23115.2" />
<path d="M101880 23115.2 A78.7402 78.7402 0.0 0 0 101959 23036.4" />
<path d="M139379 15615
L138120 15615
" />
<path d="M138041 15536
L138041 14434
" />
<path d="M139379 14355
L138120 14355
" />
<path d="M139458 15536
L139458 14434
" />
<path d="M138120 14355.3 A78.7402 78.7402 0.0 0 0 138041 14434.1" />
<path d="M139459 14434.1 A78.7402 78.7402 0.0 0 0 139380 14355.3" />
<path d="M138041 15536.4 A78.7402 78.7402 0.0 0 0 138120 15615.2" />
<path d="M139380 15615.2 A78.7402 78.7402 0.0 0 0 139459 15536.4" />
<path d="M131879 15615
L130620 15615
" />
<path d="M130541 15536
L130541 14434
" />
<path d="M131879 14355
L130620 14355
" />
<path d="M131958 15536
L131958 14434
" />
<path d="M130620 14355.3 A78.7402 78.7402 0.0 0 0 130541 14434.1" />
<path d="M131959 14434.1 A78.7402 78.7402 0.0 0 0 131880 14355.3" />
<path d="M130541 15536.4 A78.7402 78.7402 0.0 0 0 130620 15615.2" />
<path d="M131880 15615.2 A78.7402 78.7402 0.0 0 0 131959 15536.4" />
<path d="M124379 15615
L123120 15615
" />
<path d="M123041 15536
L123041 14434
" />
<path d="M124379 14355
L123120 14355
" />
<path d="M124458 15536
L124458 14434
" />
<path d="M123120 14355.3 A78.7402 78.7402 0.0 0 0 123041 14434.1" />
<path d="M124459 14434.1 A78.7402 78.7402 0.0 0 0 124380 14355.3" />
<path d="M123041 15536.4 A78.7402 78.7402 0.0 0 0 123120 15615.2" />
<path d="M124380 15615.2 A78.7402 78.7402 0.0 0 0 124459 15536.4" />
<path d="M116879 15615
L115620 15615
" />
<path d="M115541 15536
L115541 14434
" />
<path d="M116879 14355
L115620 14355
" />
<path d="M116958 15536
L116958 14434
" />
<path d="M115620 14355.3 A78.7402 78.7402 0.0 0 0 115541 14434.1" />
<path d="M116959 14434.1 A78.7402 78.7402 0.0 0 0 116880 14355.3" />
<path d="M115541 15536.4 A78.7402 78.7402 0.0 0 0 115620 15615.2" />
<path d="M116880 15615.2 A78.7402 78.7402 0.0 0 0 116959 15536.4" />
<path d="M109379 15615
L108120 15615
" />
<path d="M108041 15536
L108041 14434
" />
<path d="M109379 14355
L108120 14355
" />
<path d="M109458 15536
L109458 14434
" />
<path d="M108120 14355.3 A78.7402 78.7402 0.0 0 0 108041 14434.1" />
<path d="M109459 14434.1 A78.7402 78.7402 0.0 0 0 109380 14355.3" />
<path d="M108041 15536.4 A78.7402 78.7402 0.0 0 0 108120 15615.2" />
<path d="M109380 15615.2 A78.7402 78.7402 0.0 0 0 109459 15536.4" />
<path d="M101879 15615
L100620 15615
" />
<path d="M100541 15536
L100541 14434
" />
<path d="M101879 14355
L100620 14355
" />
<path d="M101958 15536
L101958 14434
" />
<path d="M100620 14355.3 A78.7402 78.7402 0.0 0 0 100541 14434.1" />
<path d="M101959 14434.1 A78.7402 78.7402 0.0 0 0 101880 14355.3" />
<path d="M100541 15536.4 A78.7402 78.7402 0.0 0 0 100620 15615.2" />
<path d="M101880 15615.2 A78.7402 78.7402 0.0 0 0 101959 15536.4" />
<path d="M131879 8115
L130620 8115
" />
<path d="M130541 8036
L130541 6934
" />
<path d="M131879 6855
L130620 6855
" />
<path d="M131958 8036
L131958 6934
" />
<path d="M130620 6855.31 A78.7402 78.7402 0.0 0 0 130541 6934.06" />
<path d="M131959 6934.06 A78.7402 78.7402 0.0 0 0 131880 6855.31" />
<path d="M130541 8036.42 A78.7402 78.7402 0.0 0 0 130620 8115.16" />
<path d="M131880 8115.16 A78.7402 78.7402 0.0 0 0 131959 8036.42" />
<path d="M124379 8115
L123120 8115
" />
<path d="M123041 8036
L123041 6934
" />
<path d="M124379 6855
L123120 6855
" />
<path d="M124458 8036
L124458 6934
" />
<path d="M123120 6855.31 A78.7402 78.7402 0.0 0 0 123041 6934.06" />
<path d="M124459 6934.06 A78.7402 78.7402 0.0 0 0 124380 6855.31" />
<path d="M123041 8036.42 A78.7402 78.7402 0.0 0 0 123120 8115.16" />
<path d="M124380 8115.16 A78.7402 78.7402 0.0 0 0 124459 8036.42" />
<path d="M116879 8115
L115620 8115
" />
<path d="M115541 8036
L115541 6934
" />
<path d="M116879 6855
L115620 6855
" />
<path d="M116958 8036
L116958 6934
" />
<path d="M115620 6855.31 A78.7402 78.7402 0.0 0 0 115541 6934.06" />
<path d="M116959 6934.06 A78.7402 78.7402 0.0 0 0 116880 6855.31" />
<path d="M115541 8036.42 A78.7402 78.7402 0.0 0 0 115620 8115.16" />
<path d="M116880 8115.16 A78.7402 78.7402 0.0 0 0 116959 8036.42" />
<path d="M109379 8115
L108120 8115
" />
<path d="M108041 8036
L108041 6934
" />
<path d="M109379 6855
L108120 6855
" />
<path d="M109458 8036
L109458 6934
" />
<path d="M108120 6855.31 A78.7402 78.7402 0.0 0 0 108041 6934.06" />
<path d="M109459 6934.06 A78.7402 78.7402 0.0 0 0 109380 6855.31" />
<path d="M108041 8036.42 A78.7402 78.7402 0.0 0 0 108120 8115.16" />
<path d="M109380 8115.16 A78.7402 78.7402 0.0 0 0 109459 8036.42" />
<path d="M101879 8115
L100620 8115
" />
<path d="M100541 8036
L100541 6934
" />
<path d="M101879 6855
L100620 6855
" />
<path d="M101958 8036
L101958 6934
" />
<path d="M100620 6855.31 A78.7402 78.7402 0.0 0 0 100541 6934.06" />
<path d="M101959 6934.06 A78.7402 78.7402 0.0 0 0 101880 6855.31" />
<path d="M100541 8036.42 A78.7402 78.7402 0.0 0 0 100620 8115.16" />
<path d="M101880 8115.16 A78.7402 78.7402 0.0 0 0 101959 8036.42" />
<g >
</g>
<g >
</g>
<g >
</g>
<g >
</g>
<g >
</g>
<g >
</g>
<g >
</g>
<g >
</g>
<g >
</g>
<g >
</g>
<g >
</g>
<g >
</g>
<g >
</g>
<g >
</g>
<g >
</g>
<g >
</g>
<g >
</g>
<g >
</g>
<g >
</g>
<g >
</g>
<g >
</g>
<g >
</g>
<g >
</g>
<g >
</g>
<g >
</g>
<g >
</g>
<g >
</g>
<g >
</g>
<g >
</g>
<g >
</g>
<g >
</g>
<g >
</g>
<g >
</g>
<g >
</g>
<g >
</g>
<g >
</g>
<g >
</g>
<g >
</g>
<g >
</g>
<g >
</g>
<g >
</g>
<g >
</g>
<g >
</g>
<g >
</g>
<g >
</g>
<g >
</g>
<g >
</g>
<g >
</g>
<g >
</g>
<g >
</g>
<g >
</g>
<g >
</g>
<g >
</g>
<g >
</g>
<g >
</g>
<g >
</g>
<g >
</g>
<g >
</g>
<g >
</g>
<g >
</g>
<g >
</g>
<g >
</g>
<g >
</g>
<g >
</g>
<g >
</g>
<g >
</g>
<g >
</g>
<g >
</g>
<g >
</g>
<g >
</g>
<g >
</g>
<g >
</g>
<g >
</g>
<g >
</g>
<g >
</g>
<g >
</g>
</g> 
</svg>
