G04 #@! TF.GenerationSoftware,KiCad,Pcbnew,(5.1.6)-1*
G04 #@! TF.CreationDate,2020-11-25T22:12:28-08:00*
G04 #@! TF.ProjectId,ortho_right,6f727468-6f5f-4726-9967-68742e6b6963,rev?*
G04 #@! TF.SameCoordinates,Original*
G04 #@! TF.FileFunction,OtherDrawing,Comment*
%FSLAX46Y46*%
G04 Gerber Fmt 4.6, Leading zero omitted, Abs format (unit mm)*
G04 Created by KiCad (PCBNEW (5.1.6)-1) date 2020-11-25 22:12:28*
%MOMM*%
%LPD*%
G01*
G04 APERTURE LIST*
%ADD10C,0.152400*%
%ADD11C,0.200000*%
%ADD12C,0.304800*%
%ADD13C,0.150000*%
G04 APERTURE END LIST*
D10*
X385711120Y-90360500D02*
X343100080Y-90360500D01*
X343100080Y-90360500D02*
X343100080Y-71564500D01*
X343100080Y-71437500D02*
X385711120Y-71437500D01*
X385711120Y-71564500D02*
X385711120Y-90360500D01*
X256170149Y-145711540D02*
X238269005Y-152227023D01*
X243226055Y-110147933D02*
X256170149Y-145711540D01*
X225324911Y-116663416D02*
X243226055Y-110147933D01*
X238269005Y-152227023D02*
X225324911Y-116663416D01*
X207423767Y-123178900D02*
X225324911Y-116663417D01*
X220367861Y-158742507D02*
X207423767Y-123178900D01*
X238269005Y-152227024D02*
X220367861Y-158742507D01*
X225324911Y-116663417D02*
X238269005Y-152227024D01*
X390525000Y-90487500D02*
X390525000Y-109537500D01*
X371475000Y-90487500D02*
X390525000Y-90487500D01*
X371475000Y-109537500D02*
X371475000Y-90487500D01*
X390525000Y-109537500D02*
X371475000Y-109537500D01*
X371475000Y-90487500D02*
X371475000Y-109537500D01*
X352425000Y-90487500D02*
X371475000Y-90487500D01*
X352425000Y-109537500D02*
X352425000Y-90487500D01*
X371475000Y-109537500D02*
X352425000Y-109537500D01*
X352298500Y-90614500D02*
X352298500Y-109410500D01*
X323977500Y-109410500D02*
X323977500Y-90614500D01*
X352298500Y-109410500D02*
X323977500Y-109410500D01*
X323977500Y-90614500D02*
X352298500Y-90614500D01*
X361950000Y-14287500D02*
X361950000Y-33337500D01*
X342900000Y-14287500D02*
X361950000Y-14287500D01*
X342900000Y-33337500D02*
X342900000Y-14287500D01*
X361950000Y-33337500D02*
X342900000Y-33337500D01*
X390525000Y-109537500D02*
X390525000Y-128587500D01*
X371475000Y-109537500D02*
X390525000Y-109537500D01*
X371475000Y-128587500D02*
X371475000Y-109537500D01*
X390525000Y-128587500D02*
X371475000Y-128587500D01*
X371475000Y-109537500D02*
X371475000Y-128587500D01*
X352425000Y-109537500D02*
X371475000Y-109537500D01*
X352425000Y-128587500D02*
X352425000Y-109537500D01*
X371475000Y-128587500D02*
X352425000Y-128587500D01*
X352425000Y-109537500D02*
X352425000Y-128587500D01*
X333375000Y-109537500D02*
X352425000Y-109537500D01*
X333375000Y-128587500D02*
X333375000Y-109537500D01*
X352425000Y-128587500D02*
X333375000Y-128587500D01*
X309687980Y-109664500D02*
X333249020Y-109664500D01*
X333249020Y-128460500D02*
X309687980Y-128460500D01*
X309687980Y-128460500D02*
X309687980Y-109664500D01*
X333249020Y-109664500D02*
X333249020Y-128460500D01*
X247650000Y-90487500D02*
X247650000Y-109537500D01*
X228600000Y-90487500D02*
X247650000Y-90487500D01*
X228600000Y-109537500D02*
X228600000Y-90487500D01*
X247650000Y-109537500D02*
X228600000Y-109537500D01*
X247650000Y-71437500D02*
X247650000Y-90487500D01*
X228600000Y-71437500D02*
X247650000Y-71437500D01*
X228600000Y-90487500D02*
X228600000Y-71437500D01*
X247650000Y-90487500D02*
X228600000Y-90487500D01*
X390398500Y-52514500D02*
X390398500Y-71310500D01*
X362077500Y-71310500D02*
X362077500Y-52514500D01*
X390398500Y-71310500D02*
X362077500Y-71310500D01*
X362077500Y-52514500D02*
X390398500Y-52514500D01*
X247650000Y-52387500D02*
X247650000Y-71437500D01*
X228600000Y-52387500D02*
X247650000Y-52387500D01*
X228600000Y-71437500D02*
X228600000Y-52387500D01*
X247650000Y-71437500D02*
X228600000Y-71437500D01*
X390398500Y-33464500D02*
X390398500Y-52260500D01*
X362077500Y-52260500D02*
X362077500Y-33464500D01*
X390398500Y-52260500D02*
X362077500Y-52260500D01*
X362077500Y-33464500D02*
X390398500Y-33464500D01*
X247650000Y-33337500D02*
X247650000Y-52387500D01*
X228600000Y-33337500D02*
X247650000Y-33337500D01*
X228600000Y-52387500D02*
X228600000Y-33337500D01*
X247650000Y-52387500D02*
X228600000Y-52387500D01*
X247650000Y-14287500D02*
X247650000Y-33337500D01*
X228600000Y-14287500D02*
X247650000Y-14287500D01*
X228600000Y-33337500D02*
X228600000Y-14287500D01*
X247650000Y-33337500D02*
X228600000Y-33337500D01*
D11*
X218655900Y-14351000D02*
X218655900Y-19431000D01*
X211289900Y-14351000D02*
X218655900Y-14351000D01*
X211289900Y-19431000D02*
X211289900Y-14351000D01*
X218655900Y-19431000D02*
X211289900Y-19431000D01*
D10*
X285875480Y-109664500D02*
X309436520Y-109664500D01*
X309436520Y-128460500D02*
X285875480Y-128460500D01*
X285875480Y-128460500D02*
X285875480Y-109664500D01*
X309436520Y-109664500D02*
X309436520Y-128460500D01*
X262062980Y-109664500D02*
X285624020Y-109664500D01*
X285624020Y-128460500D02*
X262062980Y-128460500D01*
X262062980Y-128460500D02*
X262062980Y-109664500D01*
X285624020Y-109664500D02*
X285624020Y-128460500D01*
X323850000Y-90487500D02*
X323850000Y-109537500D01*
X304800000Y-90487500D02*
X323850000Y-90487500D01*
X304800000Y-109537500D02*
X304800000Y-90487500D01*
X323850000Y-109537500D02*
X304800000Y-109537500D01*
X304800000Y-90487500D02*
X304800000Y-109537500D01*
X285750000Y-90487500D02*
X304800000Y-90487500D01*
X285750000Y-109537500D02*
X285750000Y-90487500D01*
X304800000Y-109537500D02*
X285750000Y-109537500D01*
X285750000Y-90487500D02*
X285750000Y-109537500D01*
X266700000Y-90487500D02*
X285750000Y-90487500D01*
X266700000Y-109537500D02*
X266700000Y-90487500D01*
X285750000Y-109537500D02*
X266700000Y-109537500D01*
X266700000Y-90487500D02*
X266700000Y-109537500D01*
X247650000Y-90487500D02*
X266700000Y-90487500D01*
X247650000Y-109537500D02*
X247650000Y-90487500D01*
X266700000Y-109537500D02*
X247650000Y-109537500D01*
X342900000Y-71437500D02*
X342900000Y-90487500D01*
X323850000Y-71437500D02*
X342900000Y-71437500D01*
X323850000Y-90487500D02*
X323850000Y-71437500D01*
X342900000Y-90487500D02*
X323850000Y-90487500D01*
X323850000Y-71437500D02*
X323850000Y-90487500D01*
X304800000Y-71437500D02*
X323850000Y-71437500D01*
X304800000Y-90487500D02*
X304800000Y-71437500D01*
X323850000Y-90487500D02*
X304800000Y-90487500D01*
X304800000Y-71437500D02*
X304800000Y-90487500D01*
X285750000Y-71437500D02*
X304800000Y-71437500D01*
X285750000Y-90487500D02*
X285750000Y-71437500D01*
X304800000Y-90487500D02*
X285750000Y-90487500D01*
X285750000Y-71437500D02*
X285750000Y-90487500D01*
X266700000Y-71437500D02*
X285750000Y-71437500D01*
X266700000Y-90487500D02*
X266700000Y-71437500D01*
X285750000Y-90487500D02*
X266700000Y-90487500D01*
X266700000Y-71437500D02*
X266700000Y-90487500D01*
X247650000Y-71437500D02*
X266700000Y-71437500D01*
X247650000Y-90487500D02*
X247650000Y-71437500D01*
X266700000Y-90487500D02*
X247650000Y-90487500D01*
X361950000Y-52387500D02*
X361950000Y-71437500D01*
X342900000Y-52387500D02*
X361950000Y-52387500D01*
X342900000Y-71437500D02*
X342900000Y-52387500D01*
X361950000Y-71437500D02*
X342900000Y-71437500D01*
X342900000Y-52387500D02*
X342900000Y-71437500D01*
X323850000Y-52387500D02*
X342900000Y-52387500D01*
X323850000Y-71437500D02*
X323850000Y-52387500D01*
X342900000Y-71437500D02*
X323850000Y-71437500D01*
X323850000Y-52387500D02*
X323850000Y-71437500D01*
X304800000Y-52387500D02*
X323850000Y-52387500D01*
X304800000Y-71437500D02*
X304800000Y-52387500D01*
X323850000Y-71437500D02*
X304800000Y-71437500D01*
X304800000Y-52387500D02*
X304800000Y-71437500D01*
X285750000Y-52387500D02*
X304800000Y-52387500D01*
X285750000Y-71437500D02*
X285750000Y-52387500D01*
X304800000Y-71437500D02*
X285750000Y-71437500D01*
X285750000Y-52387500D02*
X285750000Y-71437500D01*
X266700000Y-52387500D02*
X285750000Y-52387500D01*
X266700000Y-71437500D02*
X266700000Y-52387500D01*
X285750000Y-71437500D02*
X266700000Y-71437500D01*
X266700000Y-52387500D02*
X266700000Y-71437500D01*
X247650000Y-52387500D02*
X266700000Y-52387500D01*
X247650000Y-71437500D02*
X247650000Y-52387500D01*
X266700000Y-71437500D02*
X247650000Y-71437500D01*
X361950000Y-33337500D02*
X361950000Y-52387500D01*
X342900000Y-33337500D02*
X361950000Y-33337500D01*
X342900000Y-52387500D02*
X342900000Y-33337500D01*
X361950000Y-52387500D02*
X342900000Y-52387500D01*
X342900000Y-33337500D02*
X342900000Y-52387500D01*
X323850000Y-33337500D02*
X342900000Y-33337500D01*
X323850000Y-52387500D02*
X323850000Y-33337500D01*
X342900000Y-52387500D02*
X323850000Y-52387500D01*
X323850000Y-33337500D02*
X323850000Y-52387500D01*
X304800000Y-33337500D02*
X323850000Y-33337500D01*
X304800000Y-52387500D02*
X304800000Y-33337500D01*
X323850000Y-52387500D02*
X304800000Y-52387500D01*
X304800000Y-33337500D02*
X304800000Y-52387500D01*
X285750000Y-33337500D02*
X304800000Y-33337500D01*
X285750000Y-52387500D02*
X285750000Y-33337500D01*
X304800000Y-52387500D02*
X285750000Y-52387500D01*
X285750000Y-33337500D02*
X285750000Y-52387500D01*
X266700000Y-33337500D02*
X285750000Y-33337500D01*
X266700000Y-52387500D02*
X266700000Y-33337500D01*
X285750000Y-52387500D02*
X266700000Y-52387500D01*
X266700000Y-33337500D02*
X266700000Y-52387500D01*
X247650000Y-33337500D02*
X266700000Y-33337500D01*
X247650000Y-52387500D02*
X247650000Y-33337500D01*
X266700000Y-52387500D02*
X247650000Y-52387500D01*
X342900000Y-14287500D02*
X342900000Y-33337500D01*
X323850000Y-14287500D02*
X342900000Y-14287500D01*
X323850000Y-33337500D02*
X323850000Y-14287500D01*
X342900000Y-33337500D02*
X323850000Y-33337500D01*
X323850000Y-14287500D02*
X323850000Y-33337500D01*
X304800000Y-14287500D02*
X323850000Y-14287500D01*
X304800000Y-33337500D02*
X304800000Y-14287500D01*
X323850000Y-33337500D02*
X304800000Y-33337500D01*
X304800000Y-14287500D02*
X304800000Y-33337500D01*
X285750000Y-14287500D02*
X304800000Y-14287500D01*
X285750000Y-33337500D02*
X285750000Y-14287500D01*
X304800000Y-33337500D02*
X285750000Y-33337500D01*
X285750000Y-14287500D02*
X285750000Y-33337500D01*
X266700000Y-14287500D02*
X285750000Y-14287500D01*
X266700000Y-33337500D02*
X266700000Y-14287500D01*
X285750000Y-33337500D02*
X266700000Y-33337500D01*
X266700000Y-14287500D02*
X266700000Y-33337500D01*
X247650000Y-14287500D02*
X266700000Y-14287500D01*
X247650000Y-33337500D02*
X247650000Y-14287500D01*
X266700000Y-33337500D02*
X247650000Y-33337500D01*
D12*
X346547214Y-92446928D02*
X345676357Y-92446928D01*
X346111785Y-92446928D02*
X346111785Y-90922928D01*
X345966642Y-91140642D01*
X345821500Y-91285785D01*
X345676357Y-91358357D01*
X347200357Y-92301785D02*
X347272928Y-92374357D01*
X347200357Y-92446928D01*
X347127785Y-92374357D01*
X347200357Y-92301785D01*
X347200357Y-92446928D01*
X348651785Y-90922928D02*
X347926071Y-90922928D01*
X347853500Y-91648642D01*
X347926071Y-91576071D01*
X348071214Y-91503500D01*
X348434071Y-91503500D01*
X348579214Y-91576071D01*
X348651785Y-91648642D01*
X348724357Y-91793785D01*
X348724357Y-92156642D01*
X348651785Y-92301785D01*
X348579214Y-92374357D01*
X348434071Y-92446928D01*
X348071214Y-92446928D01*
X347926071Y-92374357D01*
X347853500Y-92301785D01*
X349667785Y-90922928D02*
X349812928Y-90922928D01*
X349958071Y-90995500D01*
X350030642Y-91068071D01*
X350103214Y-91213214D01*
X350175785Y-91503500D01*
X350175785Y-91866357D01*
X350103214Y-92156642D01*
X350030642Y-92301785D01*
X349958071Y-92374357D01*
X349812928Y-92446928D01*
X349667785Y-92446928D01*
X349522642Y-92374357D01*
X349450071Y-92301785D01*
X349377500Y-92156642D01*
X349304928Y-91866357D01*
X349304928Y-91503500D01*
X349377500Y-91213214D01*
X349450071Y-91068071D01*
X349522642Y-90995500D01*
X349667785Y-90922928D01*
X351482071Y-91430928D02*
X351482071Y-92446928D01*
X350828928Y-91430928D02*
X350828928Y-92229214D01*
X350901500Y-92374357D01*
X351046642Y-92446928D01*
X351264357Y-92446928D01*
X351409500Y-92374357D01*
X351482071Y-92301785D01*
X327909214Y-111496928D02*
X327038357Y-111496928D01*
X327473785Y-111496928D02*
X327473785Y-109972928D01*
X327328642Y-110190642D01*
X327183500Y-110335785D01*
X327038357Y-110408357D01*
X328562357Y-111351785D02*
X328634928Y-111424357D01*
X328562357Y-111496928D01*
X328489785Y-111424357D01*
X328562357Y-111351785D01*
X328562357Y-111496928D01*
X329215500Y-110118071D02*
X329288071Y-110045500D01*
X329433214Y-109972928D01*
X329796071Y-109972928D01*
X329941214Y-110045500D01*
X330013785Y-110118071D01*
X330086357Y-110263214D01*
X330086357Y-110408357D01*
X330013785Y-110626071D01*
X329142928Y-111496928D01*
X330086357Y-111496928D01*
X331465214Y-109972928D02*
X330739500Y-109972928D01*
X330666928Y-110698642D01*
X330739500Y-110626071D01*
X330884642Y-110553500D01*
X331247500Y-110553500D01*
X331392642Y-110626071D01*
X331465214Y-110698642D01*
X331537785Y-110843785D01*
X331537785Y-111206642D01*
X331465214Y-111351785D01*
X331392642Y-111424357D01*
X331247500Y-111496928D01*
X330884642Y-111496928D01*
X330739500Y-111424357D01*
X330666928Y-111351785D01*
X332844071Y-110480928D02*
X332844071Y-111496928D01*
X332190928Y-110480928D02*
X332190928Y-111279214D01*
X332263500Y-111424357D01*
X332408642Y-111496928D01*
X332626357Y-111496928D01*
X332771500Y-111424357D01*
X332844071Y-111351785D01*
X384647214Y-54346928D02*
X383776357Y-54346928D01*
X384211785Y-54346928D02*
X384211785Y-52822928D01*
X384066642Y-53040642D01*
X383921500Y-53185785D01*
X383776357Y-53258357D01*
X385300357Y-54201785D02*
X385372928Y-54274357D01*
X385300357Y-54346928D01*
X385227785Y-54274357D01*
X385300357Y-54201785D01*
X385300357Y-54346928D01*
X386751785Y-52822928D02*
X386026071Y-52822928D01*
X385953500Y-53548642D01*
X386026071Y-53476071D01*
X386171214Y-53403500D01*
X386534071Y-53403500D01*
X386679214Y-53476071D01*
X386751785Y-53548642D01*
X386824357Y-53693785D01*
X386824357Y-54056642D01*
X386751785Y-54201785D01*
X386679214Y-54274357D01*
X386534071Y-54346928D01*
X386171214Y-54346928D01*
X386026071Y-54274357D01*
X385953500Y-54201785D01*
X387767785Y-52822928D02*
X387912928Y-52822928D01*
X388058071Y-52895500D01*
X388130642Y-52968071D01*
X388203214Y-53113214D01*
X388275785Y-53403500D01*
X388275785Y-53766357D01*
X388203214Y-54056642D01*
X388130642Y-54201785D01*
X388058071Y-54274357D01*
X387912928Y-54346928D01*
X387767785Y-54346928D01*
X387622642Y-54274357D01*
X387550071Y-54201785D01*
X387477500Y-54056642D01*
X387404928Y-53766357D01*
X387404928Y-53403500D01*
X387477500Y-53113214D01*
X387550071Y-52968071D01*
X387622642Y-52895500D01*
X387767785Y-52822928D01*
X389582071Y-53330928D02*
X389582071Y-54346928D01*
X388928928Y-53330928D02*
X388928928Y-54129214D01*
X389001500Y-54274357D01*
X389146642Y-54346928D01*
X389364357Y-54346928D01*
X389509500Y-54274357D01*
X389582071Y-54201785D01*
X384647214Y-35296928D02*
X383776357Y-35296928D01*
X384211785Y-35296928D02*
X384211785Y-33772928D01*
X384066642Y-33990642D01*
X383921500Y-34135785D01*
X383776357Y-34208357D01*
X385300357Y-35151785D02*
X385372928Y-35224357D01*
X385300357Y-35296928D01*
X385227785Y-35224357D01*
X385300357Y-35151785D01*
X385300357Y-35296928D01*
X386751785Y-33772928D02*
X386026071Y-33772928D01*
X385953500Y-34498642D01*
X386026071Y-34426071D01*
X386171214Y-34353500D01*
X386534071Y-34353500D01*
X386679214Y-34426071D01*
X386751785Y-34498642D01*
X386824357Y-34643785D01*
X386824357Y-35006642D01*
X386751785Y-35151785D01*
X386679214Y-35224357D01*
X386534071Y-35296928D01*
X386171214Y-35296928D01*
X386026071Y-35224357D01*
X385953500Y-35151785D01*
X387767785Y-33772928D02*
X387912928Y-33772928D01*
X388058071Y-33845500D01*
X388130642Y-33918071D01*
X388203214Y-34063214D01*
X388275785Y-34353500D01*
X388275785Y-34716357D01*
X388203214Y-35006642D01*
X388130642Y-35151785D01*
X388058071Y-35224357D01*
X387912928Y-35296928D01*
X387767785Y-35296928D01*
X387622642Y-35224357D01*
X387550071Y-35151785D01*
X387477500Y-35006642D01*
X387404928Y-34716357D01*
X387404928Y-34353500D01*
X387477500Y-34063214D01*
X387550071Y-33918071D01*
X387622642Y-33845500D01*
X387767785Y-33772928D01*
X389582071Y-34280928D02*
X389582071Y-35296928D01*
X388928928Y-34280928D02*
X388928928Y-35079214D01*
X389001500Y-35224357D01*
X389146642Y-35296928D01*
X389364357Y-35296928D01*
X389509500Y-35224357D01*
X389582071Y-35151785D01*
X304096714Y-111496928D02*
X303225857Y-111496928D01*
X303661285Y-111496928D02*
X303661285Y-109972928D01*
X303516142Y-110190642D01*
X303371000Y-110335785D01*
X303225857Y-110408357D01*
X304749857Y-111351785D02*
X304822428Y-111424357D01*
X304749857Y-111496928D01*
X304677285Y-111424357D01*
X304749857Y-111351785D01*
X304749857Y-111496928D01*
X305403000Y-110118071D02*
X305475571Y-110045500D01*
X305620714Y-109972928D01*
X305983571Y-109972928D01*
X306128714Y-110045500D01*
X306201285Y-110118071D01*
X306273857Y-110263214D01*
X306273857Y-110408357D01*
X306201285Y-110626071D01*
X305330428Y-111496928D01*
X306273857Y-111496928D01*
X307652714Y-109972928D02*
X306927000Y-109972928D01*
X306854428Y-110698642D01*
X306927000Y-110626071D01*
X307072142Y-110553500D01*
X307435000Y-110553500D01*
X307580142Y-110626071D01*
X307652714Y-110698642D01*
X307725285Y-110843785D01*
X307725285Y-111206642D01*
X307652714Y-111351785D01*
X307580142Y-111424357D01*
X307435000Y-111496928D01*
X307072142Y-111496928D01*
X306927000Y-111424357D01*
X306854428Y-111351785D01*
X309031571Y-110480928D02*
X309031571Y-111496928D01*
X308378428Y-110480928D02*
X308378428Y-111279214D01*
X308451000Y-111424357D01*
X308596142Y-111496928D01*
X308813857Y-111496928D01*
X308959000Y-111424357D01*
X309031571Y-111351785D01*
X280284214Y-111496928D02*
X279413357Y-111496928D01*
X279848785Y-111496928D02*
X279848785Y-109972928D01*
X279703642Y-110190642D01*
X279558500Y-110335785D01*
X279413357Y-110408357D01*
X280937357Y-111351785D02*
X281009928Y-111424357D01*
X280937357Y-111496928D01*
X280864785Y-111424357D01*
X280937357Y-111351785D01*
X280937357Y-111496928D01*
X281590500Y-110118071D02*
X281663071Y-110045500D01*
X281808214Y-109972928D01*
X282171071Y-109972928D01*
X282316214Y-110045500D01*
X282388785Y-110118071D01*
X282461357Y-110263214D01*
X282461357Y-110408357D01*
X282388785Y-110626071D01*
X281517928Y-111496928D01*
X282461357Y-111496928D01*
X283840214Y-109972928D02*
X283114500Y-109972928D01*
X283041928Y-110698642D01*
X283114500Y-110626071D01*
X283259642Y-110553500D01*
X283622500Y-110553500D01*
X283767642Y-110626071D01*
X283840214Y-110698642D01*
X283912785Y-110843785D01*
X283912785Y-111206642D01*
X283840214Y-111351785D01*
X283767642Y-111424357D01*
X283622500Y-111496928D01*
X283259642Y-111496928D01*
X283114500Y-111424357D01*
X283041928Y-111351785D01*
X285219071Y-110480928D02*
X285219071Y-111496928D01*
X284565928Y-110480928D02*
X284565928Y-111279214D01*
X284638500Y-111424357D01*
X284783642Y-111496928D01*
X285001357Y-111496928D01*
X285146500Y-111424357D01*
X285219071Y-111351785D01*
D13*
X217093680Y-56883333D02*
X217807966Y-56883333D01*
X217950823Y-56930952D01*
X218046061Y-57026190D01*
X218093680Y-57169047D01*
X218093680Y-57264285D01*
X218093680Y-55883333D02*
X218093680Y-56454761D01*
X218093680Y-56169047D02*
X217093680Y-56169047D01*
X217236538Y-56264285D01*
X217331776Y-56359523D01*
X217379395Y-56454761D01*
M02*
