<?xml version="1.0" standalone="no"?>
 <!DOCTYPE svg PUBLIC "-//W3C//DTD SVG 1.1//EN" 
 "http://www.w3.org/Graphics/SVG/1.1/DTD/svg11.dtd"> 
<svg
  xmlns:svg="http://www.w3.org/2000/svg"
  xmlns="http://www.w3.org/2000/svg"
  xmlns:xlink="http://www.w3.org/1999/xlink"
  version="1.1"
  width="59.400440cm" height="41.998900cm" viewBox="0 0 233860 165350">
<title>SVG Picture created as ortho_right-Eco2_User.svg date 2020/12/13 08:34:44 </title>
  <desc>Picture generated by PCBNEW </desc>
<g style="fill:#000000; fill-opacity:1;stroke:#000000; stroke-opacity:1;
stroke-linecap:round; stroke-linejoin:round;"
 transform="translate(0 0) scale(1 1)">
</g>
<g style="fill:#000000; fill-opacity:0.0; 
stroke:#000000; stroke-width:-0.000393701; stroke-opacity:1; 
stroke-linecap:round; stroke-linejoin:round;">
</g>
<g style="fill:#000000; fill-opacity:0.0; 
stroke:#000000; stroke-width:19.685; stroke-opacity:1; 
stroke-linecap:round; stroke-linejoin:round;">
<path d="M153760 5669
L79281 5669
" />
<path d="M153760 50625
L153760 5669
" />
<path d="M85516 63206
L102182 57184
" />
<path d="M99795 50625
L153760 50625
" />
</g>
<g style="fill:#000000; fill-opacity:0.0; 
stroke:#000000; stroke-width:59.0551; stroke-opacity:1; 
stroke-linecap:round; stroke-linejoin:round;">
<path d="M102182 57184
L99795 50625
" />
<path d="M79281 5669
L79281 46078
" />
</g>
<g style="fill:#000000; fill-opacity:0.0; 
stroke:#000000; stroke-width:19.685; stroke-opacity:1; 
stroke-linecap:round; stroke-linejoin:round;">
<path d="M79281 46078
L85516 63206
" />
</g>
<g style="fill:#000000; fill-opacity:0.0; 
stroke:#000000; stroke-width:60; stroke-opacity:1; 
stroke-linecap:round; stroke-linejoin:round;">
<path d="M140076 29585
L140716 29585
" />
<path d="M137866 28815
L139666 28815
" />
<path d="M137456 32775
L137116 32775
" />
<path d="M137456 34115
L137456 32775
" />
<path d="M149816 31675
L149816 32775
" />
<path d="M137866 29275
L137866 28815
" />
<path d="M149066 28815
L149066 29275
" />
<path d="M146216 29125
L146216 29585
" />
<path d="M149476 34115
L146856 34115
" />
<path d="M146216 29585
L146856 29585
" />
<path d="M149066 29275
L149476 29275
" />
<path d="M140716 29125
L146216 29125
" />
<path d="M146856 29585
L146856 29275
" />
<path d="M146216 34625
L140716 34625
" />
<path d="M149476 32775
L149476 34115
" />
<path d="M146216 33795
L146216 34625
" />
<path d="M137116 32775
L137116 31675
" />
<path d="M149476 31675
L149816 31675
" />
<path d="M146856 34115
L146856 33795
" />
<path d="M140716 29585
L140716 29125
" />
<path d="M139666 29275
L140076 29275
" />
<path d="M149816 32775
L149476 32775
" />
<path d="M140076 29275
L140076 29585
" />
<path d="M137456 31675
L137456 29275
" />
<path d="M137456 29275
L137866 29275
" />
<path d="M140076 34115
L137456 34115
" />
<path d="M140076 33795
L140076 34115
" />
<path d="M140716 33795
L140076 33795
" />
<path d="M149476 29275
L149476 31675
" />
<path d="M139666 28815
L139666 29275
" />
<path d="M140716 34625
L140716 33795
" />
<path d="M147266 28815
L149066 28815
" />
<path d="M146856 33795
L146216 33795
" />
<path d="M137116 31675
L137456 31675
" />
<path d="M147266 29275
L147266 28815
" />
<path d="M146856 29275
L147266 29275
" />
<path d="M98385 53944
L98525 54330
" />
<path d="M98525 54330
L98957 54172
" />
<path d="M92798 45613
L92914 45932
" />
<path d="M94137 55490
L93918 54889
" />
<path d="M98957 54172
L99573 55864
" />
<path d="M91257 50005
L92037 49721
" />
<path d="M96358 47031
L95926 47188
" />
<path d="M99281 56406
L97025 57227
" />
<path d="M92037 49721
L91818 49119
" />
<path d="M91818 49119
L91518 49229
" />
<path d="M91518 49229
L90622 46767
" />
<path d="M95170 45111
L95310 45497
" />
<path d="M92914 45932
L95170 45111
" />
<path d="M96066 47573
L95774 47679
" />
<path d="M96108 57923
L95992 57603
" />
<path d="M95926 47188
L96066 47573
" />
<path d="M95993 48281
L96426 48123
" />
<path d="M93837 55600
L94137 55490
" />
<path d="M97025 57227
L97142 57547
" />
<path d="M91764 45989
L92798 45613
" />
<path d="M93918 54889
L93138 55173
" />
<path d="M95992 57603
L94733 58062
" />
<path d="M93138 55173
L91257 50005
" />
<path d="M98093 54050
L98385 53944
" />
<path d="M96426 48123
L98307 53292
" />
<path d="M99141 56021
L99281 56406
" />
<path d="M97874 53449
L98093 54050
" />
<path d="M94733 58062
L93837 55600
" />
<path d="M98307 53292
L97874 53449
" />
<path d="M99573 55864
L99141 56021
" />
<path d="M95310 45497
L95742 45339
" />
<path d="M97142 57547
L96108 57923
" />
<path d="M90622 46767
L91881 46308
" />
<path d="M91881 46308
L91764 45989
" />
<path d="M95742 45339
L96358 47031
" />
<path d="M95774 47679
L95993 48281
" />
<path d="M84132 51917
L83991 51532
" />
<path d="M83991 51532
L83559 51689
" />
<path d="M89718 60249
L89602 59929
" />
<path d="M88379 50371
L88598 50972
" />
<path d="M83559 51689
L82944 49998
" />
<path d="M91259 55857
L90479 56141
" />
<path d="M86159 58831
L86591 58673
" />
<path d="M83236 49455
L85491 48634
" />
<path d="M90479 56141
L90698 56742
" />
<path d="M90698 56742
L90999 56633
" />
<path d="M90999 56633
L91895 59095
" />
<path d="M87347 60750
L87206 60365
" />
<path d="M89602 59929
L87347 60750
" />
<path d="M86451 58288
L86742 58182
" />
<path d="M86408 47938
L86524 48258
" />
<path d="M86591 58673
L86451 58288
" />
<path d="M86523 57581
L86091 57738
" />
<path d="M88680 50262
L88379 50371
" />
<path d="M85491 48634
L85375 48315
" />
<path d="M90752 59872
L89718 60249
" />
<path d="M88598 50972
L89378 50689
" />
<path d="M86524 48258
L87784 47800
" />
<path d="M89378 50689
L91259 55857
" />
<path d="M84423 51811
L84132 51917
" />
<path d="M86091 57738
L84210 52570
" />
<path d="M83376 49840
L83236 49455
" />
<path d="M84642 52412
L84423 51811
" />
<path d="M87784 47800
L88680 50262
" />
<path d="M84210 52570
L84642 52412
" />
<path d="M82944 49998
L83376 49840
" />
<path d="M87206 60365
L86774 60522
" />
<path d="M85375 48315
L86408 47938
" />
<path d="M91895 59095
L90636 59553
" />
<path d="M90636 59553
L90752 59872
" />
<path d="M86774 60522
L86159 58831
" />
<path d="M86742 58182
L86523 57581
" />
<path d="M152750 42125
L147250 42125
" />
<path d="M147250 42125
L147250 36625
" />
<path d="M147250 36625
L152750 36625
" />
<path d="M152750 36625
L152750 42125
" />
<path d="M145250 42125
L139750 42125
" />
<path d="M139750 42125
L139750 36625
" />
<path d="M139750 36625
L145250 36625
" />
<path d="M145250 36625
L145250 42125
" />
<path d="M135875 42125
L130375 42125
" />
<path d="M130375 42125
L130375 36625
" />
<path d="M130375 36625
L135875 36625
" />
<path d="M135875 36625
L135875 42125
" />
<path d="M141500 12125
L136000 12125
" />
<path d="M136000 12125
L136000 6625
" />
<path d="M136000 6625
L141500 6625
" />
<path d="M141500 6625
L141500 12125
" />
<path d="M152750 49625
L147250 49625
" />
<path d="M147250 49625
L147250 44125
" />
<path d="M147250 44125
L152750 44125
" />
<path d="M152750 44125
L152750 49625
" />
<path d="M145250 49625
L139750 49625
" />
<path d="M139750 49625
L139750 44125
" />
<path d="M139750 44125
L145250 44125
" />
<path d="M145250 44125
L145250 49625
" />
<path d="M137750 49625
L132250 49625
" />
<path d="M132250 49625
L132250 44125
" />
<path d="M132250 44125
L137750 44125
" />
<path d="M137750 44125
L137750 49625
" />
<path d="M129312 44125
L129312 49625
" />
<path d="M123812 44125
L129312 44125
" />
<path d="M123812 49625
L123812 44125
" />
<path d="M129312 49625
L123812 49625
" />
<path d="M96500 42125
L91000 42125
" />
<path d="M91000 42125
L91000 36625
" />
<path d="M91000 36625
L96500 36625
" />
<path d="M96500 36625
L96500 42125
" />
<path d="M96500 34625
L91000 34625
" />
<path d="M91000 34625
L91000 29125
" />
<path d="M91000 29125
L96500 29125
" />
<path d="M96500 29125
L96500 34625
" />
<path d="M150875 27125
L145375 27125
" />
<path d="M145375 27125
L145375 21625
" />
<path d="M145375 21625
L150875 21625
" />
<path d="M150875 21625
L150875 27125
" />
<path d="M96500 27125
L91000 27125
" />
<path d="M91000 27125
L91000 21625
" />
<path d="M91000 21625
L96500 21625
" />
<path d="M96500 21625
L96500 27125
" />
<path d="M150875 19625
L145375 19625
" />
<path d="M145375 19625
L145375 14125
" />
<path d="M145375 14125
L150875 14125
" />
<path d="M150875 14125
L150875 19625
" />
<path d="M96500 19625
L91000 19625
" />
<path d="M91000 19625
L91000 14125
" />
<path d="M91000 14125
L96500 14125
" />
<path d="M96500 14125
L96500 19625
" />
<path d="M96500 12125
L91000 12125
" />
<path d="M91000 12125
L91000 6625
" />
<path d="M91000 6625
L96500 6625
" />
<path d="M96500 6625
L96500 12125
" />
<path d="M119937 44125
L119937 49625
" />
<path d="M114437 44125
L119937 44125
" />
<path d="M114437 49625
L114437 44125
" />
<path d="M119937 49625
L114437 49625
" />
<path d="M110562 44125
L110562 49625
" />
<path d="M105062 44125
L110562 44125
" />
<path d="M105062 49625
L105062 44125
" />
<path d="M110562 49625
L105062 49625
" />
<path d="M126500 42125
L121000 42125
" />
<path d="M121000 42125
L121000 36625
" />
<path d="M121000 36625
L126500 36625
" />
<path d="M126500 36625
L126500 42125
" />
<path d="M119000 42125
L113500 42125
" />
<path d="M113500 42125
L113500 36625
" />
<path d="M113500 36625
L119000 36625
" />
<path d="M119000 36625
L119000 42125
" />
<path d="M111500 42125
L106000 42125
" />
<path d="M106000 42125
L106000 36625
" />
<path d="M106000 36625
L111500 36625
" />
<path d="M111500 36625
L111500 42125
" />
<path d="M104000 42125
L98500 42125
" />
<path d="M98500 42125
L98500 36625
" />
<path d="M98500 36625
L104000 36625
" />
<path d="M104000 36625
L104000 42125
" />
<path d="M134000 34625
L128500 34625
" />
<path d="M128500 34625
L128500 29125
" />
<path d="M128500 29125
L134000 29125
" />
<path d="M134000 29125
L134000 34625
" />
<path d="M126500 34625
L121000 34625
" />
<path d="M121000 34625
L121000 29125
" />
<path d="M121000 29125
L126500 29125
" />
<path d="M126500 29125
L126500 34625
" />
<path d="M119000 34625
L113500 34625
" />
<path d="M113500 34625
L113500 29125
" />
<path d="M113500 29125
L119000 29125
" />
<path d="M119000 29125
L119000 34625
" />
<path d="M111500 34625
L106000 34625
" />
<path d="M106000 34625
L106000 29125
" />
<path d="M106000 29125
L111500 29125
" />
<path d="M111500 29125
L111500 34625
" />
<path d="M104000 34625
L98500 34625
" />
<path d="M98500 34625
L98500 29125
" />
<path d="M98500 29125
L104000 29125
" />
<path d="M104000 29125
L104000 34625
" />
<path d="M141500 27125
L136000 27125
" />
<path d="M136000 27125
L136000 21625
" />
<path d="M136000 21625
L141500 21625
" />
<path d="M141500 21625
L141500 27125
" />
<path d="M134000 27125
L128500 27125
" />
<path d="M128500 27125
L128500 21625
" />
<path d="M128500 21625
L134000 21625
" />
<path d="M134000 21625
L134000 27125
" />
<path d="M126500 27125
L121000 27125
" />
<path d="M121000 27125
L121000 21625
" />
<path d="M121000 21625
L126500 21625
" />
<path d="M126500 21625
L126500 27125
" />
<path d="M119000 27125
L113500 27125
" />
<path d="M113500 27125
L113500 21625
" />
<path d="M113500 21625
L119000 21625
" />
<path d="M119000 21625
L119000 27125
" />
<path d="M111500 27125
L106000 27125
" />
<path d="M106000 27125
L106000 21625
" />
<path d="M106000 21625
L111500 21625
" />
<path d="M111500 21625
L111500 27125
" />
<path d="M104000 27125
L98500 27125
" />
<path d="M98500 27125
L98500 21625
" />
<path d="M98500 21625
L104000 21625
" />
<path d="M104000 21625
L104000 27125
" />
<path d="M141500 19625
L136000 19625
" />
<path d="M136000 19625
L136000 14125
" />
<path d="M136000 14125
L141500 14125
" />
<path d="M141500 14125
L141500 19625
" />
<path d="M134000 19625
L128500 19625
" />
<path d="M128500 19625
L128500 14125
" />
<path d="M128500 14125
L134000 14125
" />
<path d="M134000 14125
L134000 19625
" />
<path d="M126500 19625
L121000 19625
" />
<path d="M121000 19625
L121000 14125
" />
<path d="M121000 14125
L126500 14125
" />
<path d="M126500 14125
L126500 19625
" />
<path d="M119000 19625
L113500 19625
" />
<path d="M113500 19625
L113500 14125
" />
<path d="M113500 14125
L119000 14125
" />
<path d="M119000 14125
L119000 19625
" />
<path d="M111500 19625
L106000 19625
" />
<path d="M106000 19625
L106000 14125
" />
<path d="M106000 14125
L111500 14125
" />
<path d="M111500 14125
L111500 19625
" />
<path d="M104000 19625
L98500 19625
" />
<path d="M98500 19625
L98500 14125
" />
<path d="M98500 14125
L104000 14125
" />
<path d="M104000 14125
L104000 19625
" />
<path d="M134000 12125
L128500 12125
" />
<path d="M128500 12125
L128500 6625
" />
<path d="M128500 6625
L134000 6625
" />
<path d="M134000 6625
L134000 12125
" />
<path d="M126500 12125
L121000 12125
" />
<path d="M121000 12125
L121000 6625
" />
<path d="M121000 6625
L126500 6625
" />
<path d="M126500 6625
L126500 12125
" />
<path d="M119000 12125
L113500 12125
" />
<path d="M113500 12125
L113500 6625
" />
<path d="M113500 6625
L119000 6625
" />
<path d="M119000 6625
L119000 12125
" />
<path d="M111500 12125
L106000 12125
" />
<path d="M106000 12125
L106000 6625
" />
<path d="M106000 6625
L111500 6625
" />
<path d="M111500 6625
L111500 12125
" />
<path d="M104000 12125
L98500 12125
" />
<path d="M98500 12125
L98500 6625
" />
<path d="M98500 6625
L104000 6625
" />
<path d="M104000 6625
L104000 12125
" />
<g >
</g>
<g style="fill:#000000; fill-opacity:0.0; 
stroke:#000000; stroke-width:59.0551; stroke-opacity:1; 
stroke-linecap:round; stroke-linejoin:round;">
<circle cx="80638.6" cy="25236.2" r="501.969" /> 
</g>
<g >
</g>
<g style="fill:#000000; fill-opacity:0.0; 
stroke:#000000; stroke-width:59.0551; stroke-opacity:1; 
stroke-linecap:round; stroke-linejoin:round;">
<circle cx="88666.5" cy="25236.2" r="501.969" /> 
</g>
<g >
</g>
<g style="fill:#000000; fill-opacity:0.0; 
stroke:#000000; stroke-width:59.0551; stroke-opacity:1; 
stroke-linecap:round; stroke-linejoin:round;">
<circle cx="80638.6" cy="45840.2" r="501.969" /> 
</g>
<g >
</g>
<g style="fill:#000000; fill-opacity:0.0; 
stroke:#000000; stroke-width:59.0551; stroke-opacity:1; 
stroke-linecap:round; stroke-linejoin:round;">
<circle cx="144090" cy="16860" r="501.969" /> 
</g>
<g >
</g>
<g style="fill:#000000; fill-opacity:0.0; 
stroke:#000000; stroke-width:59.0551; stroke-opacity:1; 
stroke-linecap:round; stroke-linejoin:round;">
<circle cx="121880" cy="46875" r="501.969" /> 
</g>
<g >
</g>
<g style="fill:#000000; fill-opacity:0.0; 
stroke:#000000; stroke-width:59.0551; stroke-opacity:1; 
stroke-linecap:round; stroke-linejoin:round;">
<circle cx="135920" cy="31875" r="501.969" /> 
</g>
<g >
</g>
<g style="fill:#000000; fill-opacity:0.0; 
stroke:#000000; stroke-width:59.0551; stroke-opacity:1; 
stroke-linecap:round; stroke-linejoin:round;">
<circle cx="88666.5" cy="42918.1" r="501.969" /> 
</g>
<g >
</g>
<g style="fill:#000000; fill-opacity:0.0; 
stroke:#000000; stroke-width:59.0551; stroke-opacity:1; 
stroke-linecap:round; stroke-linejoin:round;">
<circle cx="91865" cy="43930" r="501.969" /> 
</g>
<g >
</g>
<g >
</g>
<g >
</g>
<g >
</g>
<g >
</g>
<g >
</g>
<g >
</g>
<g >
</g>
<g >
</g>
<g >
</g>
<g >
</g>
<g >
</g>
<g >
</g>
<g >
</g>
<g >
</g>
<g >
</g>
<g >
</g>
<g >
</g>
<g >
</g>
<g >
</g>
<g >
</g>
<g >
</g>
<g >
</g>
<g >
</g>
<g >
</g>
<g >
</g>
<g >
</g>
<g >
</g>
<g >
</g>
<g >
</g>
<g >
</g>
<g >
</g>
<g >
</g>
<g >
</g>
<g >
</g>
<g >
</g>
<g >
</g>
<g >
</g>
<g >
</g>
<g >
</g>
<g >
</g>
<g >
</g>
<g >
</g>
<g >
</g>
<g >
</g>
<g >
</g>
<g >
</g>
<g >
</g>
<g >
</g>
<g >
</g>
<g >
</g>
<g >
</g>
<g >
</g>
<g >
</g>
<g >
</g>
<g >
</g>
<g >
</g>
<g >
</g>
<g >
</g>
<g >
</g>
<g >
</g>
<g >
</g>
<g >
</g>
<g >
</g>
<g >
</g>
<g >
</g>
<g >
</g>
<g >
</g>
</g> 
</svg>
