G04 #@! TF.GenerationSoftware,KiCad,Pcbnew,(5.1.6)-1*
G04 #@! TF.CreationDate,2020-11-25T22:12:28-08:00*
G04 #@! TF.ProjectId,ortho_right,6f727468-6f5f-4726-9967-68742e6b6963,rev?*
G04 #@! TF.SameCoordinates,Original*
G04 #@! TF.FileFunction,Other,Fab,Bot*
%FSLAX46Y46*%
G04 Gerber Fmt 4.6, Leading zero omitted, Abs format (unit mm)*
G04 Created by KiCad (PCBNEW (5.1.6)-1) date 2020-11-25 22:12:28*
%MOMM*%
%LPD*%
G01*
G04 APERTURE LIST*
%ADD10C,0.100000*%
%ADD11C,0.150000*%
%ADD12C,0.060000*%
G04 APERTURE END LIST*
D10*
X214327100Y-79177000D02*
X213327100Y-80177000D01*
X220327100Y-79177000D02*
X214327100Y-79177000D01*
X220327100Y-86177000D02*
X220327100Y-79177000D01*
X213327100Y-86177000D02*
X220327100Y-86177000D01*
X213327100Y-80177000D02*
X213327100Y-86177000D01*
X210553400Y-89096800D02*
X212153400Y-89096800D01*
X210553400Y-88296800D02*
X210553400Y-89096800D01*
X212153400Y-88296800D02*
X210553400Y-88296800D01*
X212153400Y-89096800D02*
X212153400Y-88296800D01*
X208902400Y-80079800D02*
X210502400Y-80079800D01*
X208902400Y-79279800D02*
X208902400Y-80079800D01*
X210502400Y-79279800D02*
X208902400Y-79279800D01*
X210502400Y-80079800D02*
X210502400Y-79279800D01*
X215976100Y-27965400D02*
G75*
G03*
X215976100Y-27965400I-800000J0D01*
G01*
X213076100Y-26565400D02*
X213076100Y-29365400D01*
X217276100Y-26565400D02*
X213076100Y-26565400D01*
X217276100Y-29365400D02*
X217276100Y-26565400D01*
X213076100Y-29365400D02*
X217276100Y-29365400D01*
D11*
X223129480Y-76986523D02*
X222129480Y-76986523D01*
X223081861Y-77415095D02*
X223129480Y-77557952D01*
X223129480Y-77796047D01*
X223081861Y-77891285D01*
X223034242Y-77938904D01*
X222939004Y-77986523D01*
X222843766Y-77986523D01*
X222748528Y-77938904D01*
X222700909Y-77891285D01*
X222653290Y-77796047D01*
X222605671Y-77605571D01*
X222558052Y-77510333D01*
X222510433Y-77462714D01*
X222415195Y-77415095D01*
X222319957Y-77415095D01*
X222224719Y-77462714D01*
X222177100Y-77510333D01*
X222129480Y-77605571D01*
X222129480Y-77843666D01*
X222177100Y-77986523D01*
X222129480Y-78319857D02*
X222129480Y-78938904D01*
X222510433Y-78605571D01*
X222510433Y-78748428D01*
X222558052Y-78843666D01*
X222605671Y-78891285D01*
X222700909Y-78938904D01*
X222939004Y-78938904D01*
X223034242Y-78891285D01*
X223081861Y-78843666D01*
X223129480Y-78748428D01*
X223129480Y-78462714D01*
X223081861Y-78367476D01*
X223034242Y-78319857D01*
X223129480Y-79891285D02*
X223129480Y-79319857D01*
X223129480Y-79605571D02*
X222129480Y-79605571D01*
X222272338Y-79510333D01*
X222367576Y-79415095D01*
X222415195Y-79319857D01*
X222605671Y-80653190D02*
X222605671Y-80319857D01*
X223129480Y-80319857D02*
X222129480Y-80319857D01*
X222129480Y-80796047D01*
X223129480Y-81653190D02*
X223129480Y-81177000D01*
X222129480Y-81177000D01*
X222129480Y-81891285D02*
X222129480Y-82510333D01*
X222510433Y-82177000D01*
X222510433Y-82319857D01*
X222558052Y-82415095D01*
X222605671Y-82462714D01*
X222700909Y-82510333D01*
X222939004Y-82510333D01*
X223034242Y-82462714D01*
X223081861Y-82415095D01*
X223129480Y-82319857D01*
X223129480Y-82034142D01*
X223081861Y-81938904D01*
X223034242Y-81891285D01*
X222129480Y-82843666D02*
X222129480Y-83510333D01*
X223129480Y-83081761D01*
X222129480Y-83796047D02*
X222129480Y-84415095D01*
X222510433Y-84081761D01*
X222510433Y-84224619D01*
X222558052Y-84319857D01*
X222605671Y-84367476D01*
X222700909Y-84415095D01*
X222939004Y-84415095D01*
X223034242Y-84367476D01*
X223081861Y-84319857D01*
X223129480Y-84224619D01*
X223129480Y-83938904D01*
X223081861Y-83843666D01*
X223034242Y-83796047D01*
X222129480Y-84748428D02*
X222129480Y-85367476D01*
X222510433Y-85034142D01*
X222510433Y-85177000D01*
X222558052Y-85272238D01*
X222605671Y-85319857D01*
X222700909Y-85367476D01*
X222939004Y-85367476D01*
X223034242Y-85319857D01*
X223081861Y-85272238D01*
X223129480Y-85177000D01*
X223129480Y-84891285D01*
X223081861Y-84796047D01*
X223034242Y-84748428D01*
X222748528Y-85796047D02*
X222748528Y-86557952D01*
X222129480Y-86891285D02*
X222129480Y-87462714D01*
X223129480Y-87177000D02*
X222129480Y-87177000D01*
X223224719Y-88462714D02*
X223177100Y-88367476D01*
X223081861Y-88272238D01*
X222939004Y-88129380D01*
X222891385Y-88034142D01*
X222891385Y-87938904D01*
X223129480Y-87986523D02*
X223081861Y-87891285D01*
X222986623Y-87796047D01*
X222796147Y-87748428D01*
X222462814Y-87748428D01*
X222272338Y-87796047D01*
X222177100Y-87891285D01*
X222129480Y-87986523D01*
X222129480Y-88177000D01*
X222177100Y-88272238D01*
X222272338Y-88367476D01*
X222462814Y-88415095D01*
X222796147Y-88415095D01*
X222986623Y-88367476D01*
X223081861Y-88272238D01*
X223129480Y-88177000D01*
X223129480Y-87986523D01*
X216279480Y-81915095D02*
X217089004Y-81915095D01*
X217184242Y-81962714D01*
X217231861Y-82010333D01*
X217279480Y-82105571D01*
X217279480Y-82296047D01*
X217231861Y-82391285D01*
X217184242Y-82438904D01*
X217089004Y-82486523D01*
X216279480Y-82486523D01*
X216374719Y-82915095D02*
X216327100Y-82962714D01*
X216279480Y-83057952D01*
X216279480Y-83296047D01*
X216327100Y-83391285D01*
X216374719Y-83438904D01*
X216469957Y-83486523D01*
X216565195Y-83486523D01*
X216708052Y-83438904D01*
X217279480Y-82867476D01*
X217279480Y-83486523D01*
X212401019Y-90579180D02*
X212734352Y-90102990D01*
X212972447Y-90579180D02*
X212972447Y-89579180D01*
X212591495Y-89579180D01*
X212496257Y-89626800D01*
X212448638Y-89674419D01*
X212401019Y-89769657D01*
X212401019Y-89912514D01*
X212448638Y-90007752D01*
X212496257Y-90055371D01*
X212591495Y-90102990D01*
X212972447Y-90102990D01*
X212020066Y-89674419D02*
X211972447Y-89626800D01*
X211877209Y-89579180D01*
X211639114Y-89579180D01*
X211543876Y-89626800D01*
X211496257Y-89674419D01*
X211448638Y-89769657D01*
X211448638Y-89864895D01*
X211496257Y-90007752D01*
X212067685Y-90579180D01*
X211448638Y-90579180D01*
X210829590Y-89579180D02*
X210734352Y-89579180D01*
X210639114Y-89626800D01*
X210591495Y-89674419D01*
X210543876Y-89769657D01*
X210496257Y-89960133D01*
X210496257Y-90198228D01*
X210543876Y-90388704D01*
X210591495Y-90483942D01*
X210639114Y-90531561D01*
X210734352Y-90579180D01*
X210829590Y-90579180D01*
X210924828Y-90531561D01*
X210972447Y-90483942D01*
X211020066Y-90388704D01*
X211067685Y-90198228D01*
X211067685Y-89960133D01*
X211020066Y-89769657D01*
X210972447Y-89674419D01*
X210924828Y-89626800D01*
X210829590Y-89579180D01*
X210067685Y-90579180D02*
X210067685Y-89579180D01*
X209972447Y-90198228D02*
X209686733Y-90579180D01*
X209686733Y-89912514D02*
X210067685Y-90293466D01*
D12*
X211867685Y-88877752D02*
X212001019Y-88687276D01*
X212096257Y-88877752D02*
X212096257Y-88477752D01*
X211943876Y-88477752D01*
X211905780Y-88496800D01*
X211886733Y-88515847D01*
X211867685Y-88553942D01*
X211867685Y-88611085D01*
X211886733Y-88649180D01*
X211905780Y-88668228D01*
X211943876Y-88687276D01*
X212096257Y-88687276D01*
X211543876Y-88858704D02*
X211581971Y-88877752D01*
X211658161Y-88877752D01*
X211696257Y-88858704D01*
X211715304Y-88820609D01*
X211715304Y-88668228D01*
X211696257Y-88630133D01*
X211658161Y-88611085D01*
X211581971Y-88611085D01*
X211543876Y-88630133D01*
X211524828Y-88668228D01*
X211524828Y-88706323D01*
X211715304Y-88744419D01*
X211391495Y-88877752D02*
X211181971Y-88611085D01*
X211391495Y-88611085D02*
X211181971Y-88877752D01*
X211086733Y-88611085D02*
X210934352Y-88611085D01*
X211029590Y-88477752D02*
X211029590Y-88820609D01*
X211010542Y-88858704D01*
X210972447Y-88877752D01*
X210934352Y-88877752D01*
X210591495Y-88877752D02*
X210820066Y-88877752D01*
X210705780Y-88877752D02*
X210705780Y-88477752D01*
X210743876Y-88534895D01*
X210781971Y-88572990D01*
X210820066Y-88592038D01*
D11*
X211226209Y-81562180D02*
X211559542Y-81085990D01*
X211797638Y-81562180D02*
X211797638Y-80562180D01*
X211416685Y-80562180D01*
X211321447Y-80609800D01*
X211273828Y-80657419D01*
X211226209Y-80752657D01*
X211226209Y-80895514D01*
X211273828Y-80990752D01*
X211321447Y-81038371D01*
X211416685Y-81085990D01*
X211797638Y-81085990D01*
X210273828Y-81562180D02*
X210845257Y-81562180D01*
X210559542Y-81562180D02*
X210559542Y-80562180D01*
X210654780Y-80705038D01*
X210750019Y-80800276D01*
X210845257Y-80847895D01*
X209654780Y-80562180D02*
X209559542Y-80562180D01*
X209464304Y-80609800D01*
X209416685Y-80657419D01*
X209369066Y-80752657D01*
X209321447Y-80943133D01*
X209321447Y-81181228D01*
X209369066Y-81371704D01*
X209416685Y-81466942D01*
X209464304Y-81514561D01*
X209559542Y-81562180D01*
X209654780Y-81562180D01*
X209750019Y-81514561D01*
X209797638Y-81466942D01*
X209845257Y-81371704D01*
X209892876Y-81181228D01*
X209892876Y-80943133D01*
X209845257Y-80752657D01*
X209797638Y-80657419D01*
X209750019Y-80609800D01*
X209654780Y-80562180D01*
X208702400Y-80562180D02*
X208607161Y-80562180D01*
X208511923Y-80609800D01*
X208464304Y-80657419D01*
X208416685Y-80752657D01*
X208369066Y-80943133D01*
X208369066Y-81181228D01*
X208416685Y-81371704D01*
X208464304Y-81466942D01*
X208511923Y-81514561D01*
X208607161Y-81562180D01*
X208702400Y-81562180D01*
X208797638Y-81514561D01*
X208845257Y-81466942D01*
X208892876Y-81371704D01*
X208940495Y-81181228D01*
X208940495Y-80943133D01*
X208892876Y-80752657D01*
X208845257Y-80657419D01*
X208797638Y-80609800D01*
X208702400Y-80562180D01*
X207940495Y-81562180D02*
X207940495Y-80562180D01*
X207845257Y-81181228D02*
X207559542Y-81562180D01*
X207559542Y-80895514D02*
X207940495Y-81276466D01*
D12*
X209769066Y-79860752D02*
X209902400Y-79670276D01*
X209997638Y-79860752D02*
X209997638Y-79460752D01*
X209845257Y-79460752D01*
X209807161Y-79479800D01*
X209788114Y-79498847D01*
X209769066Y-79536942D01*
X209769066Y-79594085D01*
X209788114Y-79632180D01*
X209807161Y-79651228D01*
X209845257Y-79670276D01*
X209997638Y-79670276D01*
X209426209Y-79594085D02*
X209426209Y-79860752D01*
X209521447Y-79441704D02*
X209616685Y-79727419D01*
X209369066Y-79727419D01*
D11*
X219546338Y-43858761D02*
X219403480Y-43906380D01*
X219165385Y-43906380D01*
X219070147Y-43858761D01*
X219022528Y-43811142D01*
X218974909Y-43715904D01*
X218974909Y-43620666D01*
X219022528Y-43525428D01*
X219070147Y-43477809D01*
X219165385Y-43430190D01*
X219355861Y-43382571D01*
X219451100Y-43334952D01*
X219498719Y-43287333D01*
X219546338Y-43192095D01*
X219546338Y-43096857D01*
X219498719Y-43001619D01*
X219451100Y-42954000D01*
X219355861Y-42906380D01*
X219117766Y-42906380D01*
X218974909Y-42954000D01*
X218641576Y-42906380D02*
X218403480Y-43906380D01*
X218213004Y-43192095D01*
X218022528Y-43906380D01*
X217784433Y-42906380D01*
X217641576Y-44001619D02*
X216879671Y-44001619D01*
X216689195Y-43858761D02*
X216546338Y-43906380D01*
X216308242Y-43906380D01*
X216213004Y-43858761D01*
X216165385Y-43811142D01*
X216117766Y-43715904D01*
X216117766Y-43620666D01*
X216165385Y-43525428D01*
X216213004Y-43477809D01*
X216308242Y-43430190D01*
X216498719Y-43382571D01*
X216593957Y-43334952D01*
X216641576Y-43287333D01*
X216689195Y-43192095D01*
X216689195Y-43096857D01*
X216641576Y-43001619D01*
X216593957Y-42954000D01*
X216498719Y-42906380D01*
X216260623Y-42906380D01*
X216117766Y-42954000D01*
X215689195Y-43906380D02*
X215689195Y-42906380D01*
X215308242Y-42906380D01*
X215213004Y-42954000D01*
X215165385Y-43001619D01*
X215117766Y-43096857D01*
X215117766Y-43239714D01*
X215165385Y-43334952D01*
X215213004Y-43382571D01*
X215308242Y-43430190D01*
X215689195Y-43430190D01*
X214689195Y-43906380D02*
X214689195Y-42906380D01*
X214451100Y-42906380D01*
X214308242Y-42954000D01*
X214213004Y-43049238D01*
X214165385Y-43144476D01*
X214117766Y-43334952D01*
X214117766Y-43477809D01*
X214165385Y-43668285D01*
X214213004Y-43763523D01*
X214308242Y-43858761D01*
X214451100Y-43906380D01*
X214689195Y-43906380D01*
X213832052Y-42906380D02*
X213260623Y-42906380D01*
X213546338Y-43906380D02*
X213546338Y-42906380D01*
X213165385Y-44001619D02*
X212403480Y-44001619D01*
X212165385Y-43906380D02*
X212165385Y-42906380D01*
X211832052Y-43620666D01*
X211498719Y-42906380D01*
X211498719Y-43906380D01*
X211070147Y-43858761D02*
X210927290Y-43906380D01*
X210689195Y-43906380D01*
X210593957Y-43858761D01*
X210546338Y-43811142D01*
X210498719Y-43715904D01*
X210498719Y-43620666D01*
X210546338Y-43525428D01*
X210593957Y-43477809D01*
X210689195Y-43430190D01*
X210879671Y-43382571D01*
X210974909Y-43334952D01*
X211022528Y-43287333D01*
X211070147Y-43192095D01*
X211070147Y-43096857D01*
X211022528Y-43001619D01*
X210974909Y-42954000D01*
X210879671Y-42906380D01*
X210641576Y-42906380D01*
X210498719Y-42954000D01*
X210070147Y-43906380D02*
X210070147Y-42906380D01*
X209736814Y-43620666D01*
X209403480Y-42906380D01*
X209403480Y-43906380D01*
X221080861Y-25820161D02*
X220938004Y-25867780D01*
X220699909Y-25867780D01*
X220604671Y-25820161D01*
X220557052Y-25772542D01*
X220509433Y-25677304D01*
X220509433Y-25582066D01*
X220557052Y-25486828D01*
X220604671Y-25439209D01*
X220699909Y-25391590D01*
X220890385Y-25343971D01*
X220985623Y-25296352D01*
X221033242Y-25248733D01*
X221080861Y-25153495D01*
X221080861Y-25058257D01*
X221033242Y-24963019D01*
X220985623Y-24915400D01*
X220890385Y-24867780D01*
X220652290Y-24867780D01*
X220509433Y-24915400D01*
X220176100Y-24867780D02*
X219938004Y-25867780D01*
X219747528Y-25153495D01*
X219557052Y-25867780D01*
X219318957Y-24867780D01*
X219176100Y-25963019D02*
X218414195Y-25963019D01*
X218176100Y-25867780D02*
X218176100Y-24867780D01*
X217795147Y-24867780D01*
X217699909Y-24915400D01*
X217652290Y-24963019D01*
X217604671Y-25058257D01*
X217604671Y-25201114D01*
X217652290Y-25296352D01*
X217699909Y-25343971D01*
X217795147Y-25391590D01*
X218176100Y-25391590D01*
X217176100Y-24867780D02*
X217176100Y-25677304D01*
X217128480Y-25772542D01*
X217080861Y-25820161D01*
X216985623Y-25867780D01*
X216795147Y-25867780D01*
X216699909Y-25820161D01*
X216652290Y-25772542D01*
X216604671Y-25677304D01*
X216604671Y-24867780D01*
X216176100Y-25820161D02*
X216033242Y-25867780D01*
X215795147Y-25867780D01*
X215699909Y-25820161D01*
X215652290Y-25772542D01*
X215604671Y-25677304D01*
X215604671Y-25582066D01*
X215652290Y-25486828D01*
X215699909Y-25439209D01*
X215795147Y-25391590D01*
X215985623Y-25343971D01*
X216080861Y-25296352D01*
X216128480Y-25248733D01*
X216176100Y-25153495D01*
X216176100Y-25058257D01*
X216128480Y-24963019D01*
X216080861Y-24915400D01*
X215985623Y-24867780D01*
X215747528Y-24867780D01*
X215604671Y-24915400D01*
X215176100Y-25867780D02*
X215176100Y-24867780D01*
X215176100Y-25343971D02*
X214604671Y-25343971D01*
X214604671Y-25867780D02*
X214604671Y-24867780D01*
X214366576Y-25963019D02*
X213604671Y-25963019D01*
X212795147Y-25867780D02*
X213128480Y-25391590D01*
X213366576Y-25867780D02*
X213366576Y-24867780D01*
X212985623Y-24867780D01*
X212890385Y-24915400D01*
X212842766Y-24963019D01*
X212795147Y-25058257D01*
X212795147Y-25201114D01*
X212842766Y-25296352D01*
X212890385Y-25343971D01*
X212985623Y-25391590D01*
X213366576Y-25391590D01*
X212366576Y-25343971D02*
X212033242Y-25343971D01*
X211890385Y-25867780D02*
X212366576Y-25867780D01*
X212366576Y-24867780D01*
X211890385Y-24867780D01*
X211509433Y-25820161D02*
X211366576Y-25867780D01*
X211128480Y-25867780D01*
X211033242Y-25820161D01*
X210985623Y-25772542D01*
X210938004Y-25677304D01*
X210938004Y-25582066D01*
X210985623Y-25486828D01*
X211033242Y-25439209D01*
X211128480Y-25391590D01*
X211318957Y-25343971D01*
X211414195Y-25296352D01*
X211461814Y-25248733D01*
X211509433Y-25153495D01*
X211509433Y-25058257D01*
X211461814Y-24963019D01*
X211414195Y-24915400D01*
X211318957Y-24867780D01*
X211080861Y-24867780D01*
X210938004Y-24915400D01*
X210509433Y-25343971D02*
X210176100Y-25343971D01*
X210033242Y-25867780D02*
X210509433Y-25867780D01*
X210509433Y-24867780D01*
X210033242Y-24867780D01*
X209747528Y-24867780D02*
X209176100Y-24867780D01*
X209461814Y-25867780D02*
X209461814Y-24867780D01*
X216509433Y-30820161D02*
X216366576Y-30867780D01*
X216128480Y-30867780D01*
X216033242Y-30820161D01*
X215985623Y-30772542D01*
X215938004Y-30677304D01*
X215938004Y-30582066D01*
X215985623Y-30486828D01*
X216033242Y-30439209D01*
X216128480Y-30391590D01*
X216318957Y-30343971D01*
X216414195Y-30296352D01*
X216461814Y-30248733D01*
X216509433Y-30153495D01*
X216509433Y-30058257D01*
X216461814Y-29963019D01*
X216414195Y-29915400D01*
X216318957Y-29867780D01*
X216080861Y-29867780D01*
X215938004Y-29915400D01*
X215604671Y-29867780D02*
X215366576Y-30867780D01*
X215176100Y-30153495D01*
X214985623Y-30867780D01*
X214747528Y-29867780D01*
X213842766Y-30867780D02*
X214414195Y-30867780D01*
X214128480Y-30867780D02*
X214128480Y-29867780D01*
X214223719Y-30010638D01*
X214318957Y-30105876D01*
X214414195Y-30153495D01*
M02*
