G04 #@! TF.GenerationSoftware,KiCad,Pcbnew,(5.1.6)-1*
G04 #@! TF.CreationDate,2020-11-25T22:12:27-08:00*
G04 #@! TF.ProjectId,ortho_right,6f727468-6f5f-4726-9967-68742e6b6963,rev?*
G04 #@! TF.SameCoordinates,Original*
G04 #@! TF.FileFunction,Paste,Top*
G04 #@! TF.FilePolarity,Positive*
%FSLAX46Y46*%
G04 Gerber Fmt 4.6, Leading zero omitted, Abs format (unit mm)*
G04 Created by KiCad (PCBNEW (5.1.6)-1) date 2020-11-25 22:12:27*
%MOMM*%
%LPD*%
G01*
G04 APERTURE LIST*
%ADD10R,3.250000X2.000000*%
G04 APERTURE END LIST*
G36*
G01*
X209352400Y-83938100D02*
X209352400Y-84413100D01*
G75*
G02*
X209114900Y-84650600I-237500J0D01*
G01*
X208539900Y-84650600D01*
G75*
G02*
X208302400Y-84413100I0J237500D01*
G01*
X208302400Y-83938100D01*
G75*
G02*
X208539900Y-83700600I237500J0D01*
G01*
X209114900Y-83700600D01*
G75*
G02*
X209352400Y-83938100I0J-237500D01*
G01*
G37*
G36*
G01*
X211102400Y-83938100D02*
X211102400Y-84413100D01*
G75*
G02*
X210864900Y-84650600I-237500J0D01*
G01*
X210289900Y-84650600D01*
G75*
G02*
X210052400Y-84413100I0J237500D01*
G01*
X210052400Y-83938100D01*
G75*
G02*
X210289900Y-83700600I237500J0D01*
G01*
X210864900Y-83700600D01*
G75*
G02*
X211102400Y-83938100I0J-237500D01*
G01*
G37*
G36*
G01*
X209352400Y-85436700D02*
X209352400Y-85911700D01*
G75*
G02*
X209114900Y-86149200I-237500J0D01*
G01*
X208539900Y-86149200D01*
G75*
G02*
X208302400Y-85911700I0J237500D01*
G01*
X208302400Y-85436700D01*
G75*
G02*
X208539900Y-85199200I237500J0D01*
G01*
X209114900Y-85199200D01*
G75*
G02*
X209352400Y-85436700I0J-237500D01*
G01*
G37*
G36*
G01*
X211102400Y-85436700D02*
X211102400Y-85911700D01*
G75*
G02*
X210864900Y-86149200I-237500J0D01*
G01*
X210289900Y-86149200D01*
G75*
G02*
X210052400Y-85911700I0J237500D01*
G01*
X210052400Y-85436700D01*
G75*
G02*
X210289900Y-85199200I237500J0D01*
G01*
X210864900Y-85199200D01*
G75*
G02*
X211102400Y-85436700I0J-237500D01*
G01*
G37*
G36*
G01*
X209352400Y-82439500D02*
X209352400Y-82914500D01*
G75*
G02*
X209114900Y-83152000I-237500J0D01*
G01*
X208539900Y-83152000D01*
G75*
G02*
X208302400Y-82914500I0J237500D01*
G01*
X208302400Y-82439500D01*
G75*
G02*
X208539900Y-82202000I237500J0D01*
G01*
X209114900Y-82202000D01*
G75*
G02*
X209352400Y-82439500I0J-237500D01*
G01*
G37*
G36*
G01*
X211102400Y-82439500D02*
X211102400Y-82914500D01*
G75*
G02*
X210864900Y-83152000I-237500J0D01*
G01*
X210289900Y-83152000D01*
G75*
G02*
X210052400Y-82914500I0J237500D01*
G01*
X210052400Y-82439500D01*
G75*
G02*
X210289900Y-82202000I237500J0D01*
G01*
X210864900Y-82202000D01*
G75*
G02*
X211102400Y-82439500I0J-237500D01*
G01*
G37*
G36*
G01*
X209352400Y-80940900D02*
X209352400Y-81415900D01*
G75*
G02*
X209114900Y-81653400I-237500J0D01*
G01*
X208539900Y-81653400D01*
G75*
G02*
X208302400Y-81415900I0J237500D01*
G01*
X208302400Y-80940900D01*
G75*
G02*
X208539900Y-80703400I237500J0D01*
G01*
X209114900Y-80703400D01*
G75*
G02*
X209352400Y-80940900I0J-237500D01*
G01*
G37*
G36*
G01*
X211102400Y-80940900D02*
X211102400Y-81415900D01*
G75*
G02*
X210864900Y-81653400I-237500J0D01*
G01*
X210289900Y-81653400D01*
G75*
G02*
X210052400Y-81415900I0J237500D01*
G01*
X210052400Y-80940900D01*
G75*
G02*
X210289900Y-80703400I237500J0D01*
G01*
X210864900Y-80703400D01*
G75*
G02*
X211102400Y-80940900I0J-237500D01*
G01*
G37*
G36*
G01*
X219753601Y-80347400D02*
X218853599Y-80347400D01*
G75*
G02*
X218603600Y-80097401I0J249999D01*
G01*
X218603600Y-79447399D01*
G75*
G02*
X218853599Y-79197400I249999J0D01*
G01*
X219753601Y-79197400D01*
G75*
G02*
X220003600Y-79447399I0J-249999D01*
G01*
X220003600Y-80097401D01*
G75*
G02*
X219753601Y-80347400I-249999J0D01*
G01*
G37*
G36*
G01*
X219753601Y-82397400D02*
X218853599Y-82397400D01*
G75*
G02*
X218603600Y-82147401I0J249999D01*
G01*
X218603600Y-81497399D01*
G75*
G02*
X218853599Y-81247400I249999J0D01*
G01*
X219753601Y-81247400D01*
G75*
G02*
X220003600Y-81497399I0J-249999D01*
G01*
X220003600Y-82147401D01*
G75*
G02*
X219753601Y-82397400I-249999J0D01*
G01*
G37*
G36*
G01*
X218853599Y-85006600D02*
X219753601Y-85006600D01*
G75*
G02*
X220003600Y-85256599I0J-249999D01*
G01*
X220003600Y-85906601D01*
G75*
G02*
X219753601Y-86156600I-249999J0D01*
G01*
X218853599Y-86156600D01*
G75*
G02*
X218603600Y-85906601I0J249999D01*
G01*
X218603600Y-85256599D01*
G75*
G02*
X218853599Y-85006600I249999J0D01*
G01*
G37*
G36*
G01*
X218853599Y-82956600D02*
X219753601Y-82956600D01*
G75*
G02*
X220003600Y-83206599I0J-249999D01*
G01*
X220003600Y-83856601D01*
G75*
G02*
X219753601Y-84106600I-249999J0D01*
G01*
X218853599Y-84106600D01*
G75*
G02*
X218603600Y-83856601I0J249999D01*
G01*
X218603600Y-83206599D01*
G75*
G02*
X218853599Y-82956600I249999J0D01*
G01*
G37*
G36*
G01*
X215511800Y-82288801D02*
X215511800Y-81388799D01*
G75*
G02*
X215761799Y-81138800I249999J0D01*
G01*
X216411801Y-81138800D01*
G75*
G02*
X216661800Y-81388799I0J-249999D01*
G01*
X216661800Y-82288801D01*
G75*
G02*
X216411801Y-82538800I-249999J0D01*
G01*
X215761799Y-82538800D01*
G75*
G02*
X215511800Y-82288801I0J249999D01*
G01*
G37*
G36*
G01*
X213461800Y-82288801D02*
X213461800Y-81388799D01*
G75*
G02*
X213711799Y-81138800I249999J0D01*
G01*
X214361801Y-81138800D01*
G75*
G02*
X214611800Y-81388799I0J-249999D01*
G01*
X214611800Y-82288801D01*
G75*
G02*
X214361801Y-82538800I-249999J0D01*
G01*
X213711799Y-82538800D01*
G75*
G02*
X213461800Y-82288801I0J249999D01*
G01*
G37*
G36*
G01*
X215511800Y-84295401D02*
X215511800Y-83395399D01*
G75*
G02*
X215761799Y-83145400I249999J0D01*
G01*
X216411801Y-83145400D01*
G75*
G02*
X216661800Y-83395399I0J-249999D01*
G01*
X216661800Y-84295401D01*
G75*
G02*
X216411801Y-84545400I-249999J0D01*
G01*
X215761799Y-84545400D01*
G75*
G02*
X215511800Y-84295401I0J249999D01*
G01*
G37*
G36*
G01*
X213461800Y-84295401D02*
X213461800Y-83395399D01*
G75*
G02*
X213711799Y-83145400I249999J0D01*
G01*
X214361801Y-83145400D01*
G75*
G02*
X214611800Y-83395399I0J-249999D01*
G01*
X214611800Y-84295401D01*
G75*
G02*
X214361801Y-84545400I-249999J0D01*
G01*
X213711799Y-84545400D01*
G75*
G02*
X213461800Y-84295401I0J249999D01*
G01*
G37*
G36*
G01*
X215511800Y-80307601D02*
X215511800Y-79407599D01*
G75*
G02*
X215761799Y-79157600I249999J0D01*
G01*
X216411801Y-79157600D01*
G75*
G02*
X216661800Y-79407599I0J-249999D01*
G01*
X216661800Y-80307601D01*
G75*
G02*
X216411801Y-80557600I-249999J0D01*
G01*
X215761799Y-80557600D01*
G75*
G02*
X215511800Y-80307601I0J249999D01*
G01*
G37*
G36*
G01*
X213461800Y-80307601D02*
X213461800Y-79407599D01*
G75*
G02*
X213711799Y-79157600I249999J0D01*
G01*
X214361801Y-79157600D01*
G75*
G02*
X214611800Y-79407599I0J-249999D01*
G01*
X214611800Y-80307601D01*
G75*
G02*
X214361801Y-80557600I-249999J0D01*
G01*
X213711799Y-80557600D01*
G75*
G02*
X213461800Y-80307601I0J249999D01*
G01*
G37*
G36*
G01*
X215511800Y-86251201D02*
X215511800Y-85351199D01*
G75*
G02*
X215761799Y-85101200I249999J0D01*
G01*
X216411801Y-85101200D01*
G75*
G02*
X216661800Y-85351199I0J-249999D01*
G01*
X216661800Y-86251201D01*
G75*
G02*
X216411801Y-86501200I-249999J0D01*
G01*
X215761799Y-86501200D01*
G75*
G02*
X215511800Y-86251201I0J249999D01*
G01*
G37*
G36*
G01*
X213461800Y-86251201D02*
X213461800Y-85351199D01*
G75*
G02*
X213711799Y-85101200I249999J0D01*
G01*
X214361801Y-85101200D01*
G75*
G02*
X214611800Y-85351199I0J-249999D01*
G01*
X214611800Y-86251201D01*
G75*
G02*
X214361801Y-86501200I-249999J0D01*
G01*
X213711799Y-86501200D01*
G75*
G02*
X213461800Y-86251201I0J249999D01*
G01*
G37*
D10*
X224497900Y-19685000D03*
X224497900Y-22225000D03*
X224497900Y-24765000D03*
X224497900Y-27305000D03*
X224497900Y-29845000D03*
X224497900Y-32385000D03*
X224497900Y-34925000D03*
X224497900Y-37465000D03*
X224497900Y-40005000D03*
X224497900Y-42545000D03*
X224497900Y-45085000D03*
X224497900Y-47625000D03*
X205701900Y-47625000D03*
X205701900Y-45085000D03*
X205701900Y-42545000D03*
X205701900Y-40005000D03*
X205701900Y-37465000D03*
X205701900Y-34925000D03*
X205701900Y-32385000D03*
X205701900Y-29845000D03*
X205701900Y-27305000D03*
X205701900Y-24765000D03*
X205701900Y-22225000D03*
X205701900Y-19685000D03*
M02*
