G04 #@! TF.GenerationSoftware,KiCad,Pcbnew,(5.1.6)-1*
G04 #@! TF.CreationDate,2020-11-25T22:12:28-08:00*
G04 #@! TF.ProjectId,ortho_right,6f727468-6f5f-4726-9967-68742e6b6963,rev?*
G04 #@! TF.SameCoordinates,Original*
G04 #@! TF.FileFunction,Profile,NP*
%FSLAX46Y46*%
G04 Gerber Fmt 4.6, Leading zero omitted, Abs format (unit mm)*
G04 Created by KiCad (PCBNEW (5.1.6)-1) date 2020-11-25 22:12:28*
%MOMM*%
%LPD*%
G01*
G04 APERTURE LIST*
G04 #@! TA.AperFunction,Profile*
%ADD10C,0.150000*%
G04 #@! TD*
G04 #@! TA.AperFunction,Profile*
%ADD11C,0.050000*%
G04 #@! TD*
G04 #@! TA.AperFunction,Profile*
%ADD12C,0.120000*%
G04 #@! TD*
G04 APERTURE END LIST*
D10*
X259544500Y-145247500D02*
X253479500Y-128587500D01*
X201375000Y-14400000D02*
X201375000Y-117040000D01*
D11*
X253479500Y-128587500D02*
X390550400Y-128587500D01*
X390550400Y-14400000D02*
X201375000Y-14400000D01*
X390550400Y-128587500D02*
X390550400Y-14400000D01*
X217213000Y-160545000D02*
X259544500Y-145247500D01*
X201375000Y-117040000D02*
X217213000Y-160545000D01*
D12*
X366005600Y-77762500D02*
X362805600Y-77762500D01*
X362605600Y-77562500D02*
X362605600Y-74762500D01*
X366005600Y-74562500D02*
X362805600Y-74562500D01*
X366205600Y-77562500D02*
X366205600Y-74762500D01*
X362605600Y-74762500D02*
G75*
G02*
X362805600Y-74562500I200000J0D01*
G01*
X366005600Y-74562500D02*
G75*
G02*
X366205600Y-74762500I0J-200000D01*
G01*
X362805600Y-77762500D02*
G75*
G02*
X362605600Y-77562500I0J200000D01*
G01*
X366205600Y-77562500D02*
G75*
G02*
X366005600Y-77762500I-200000J0D01*
G01*
X244558121Y-131716056D02*
X247189261Y-130758400D01*
X247308795Y-130502057D02*
X246214331Y-127495041D01*
X243326849Y-128333163D02*
X245957988Y-127375506D01*
X244301779Y-131596522D02*
X243207314Y-128589505D01*
X244558121Y-131716056D02*
G75*
G02*
X244301779Y-131596522I-68404J187938D01*
G01*
X243207315Y-128589505D02*
G75*
G02*
X243326849Y-128333163I187938J68404D01*
G01*
X247308795Y-130502056D02*
G75*
G02*
X247189261Y-130758400I-187939J-68405D01*
G01*
X245957988Y-127375506D02*
G75*
G02*
X246214331Y-127495041I68404J-187939D01*
G01*
X219035795Y-137174384D02*
X216404655Y-138132040D01*
X216285121Y-138388383D02*
X217379585Y-141395399D01*
X220267067Y-140557277D02*
X217635928Y-141514934D01*
X219292137Y-137293918D02*
X220386602Y-140300935D01*
X219035795Y-137174384D02*
G75*
G02*
X219292137Y-137293918I68404J-187938D01*
G01*
X220386601Y-140300935D02*
G75*
G02*
X220267067Y-140557277I-187938J-68404D01*
G01*
X216285121Y-138388384D02*
G75*
G02*
X216404655Y-138132040I187939J68405D01*
G01*
X217635928Y-141514934D02*
G75*
G02*
X217379585Y-141395399I-68404J187939D01*
G01*
X382800000Y-96612500D02*
X382800000Y-93812500D01*
X382600000Y-93612500D02*
X379400000Y-93612500D01*
X379200000Y-96612500D02*
X379200000Y-93812500D01*
X382600000Y-96812500D02*
X379400000Y-96812500D01*
X379200000Y-93812500D02*
G75*
G02*
X379400000Y-93612500I200000J0D01*
G01*
X382600000Y-93612500D02*
G75*
G02*
X382800000Y-93812500I0J-200000D01*
G01*
X379400000Y-96812500D02*
G75*
G02*
X379200000Y-96612500I0J200000D01*
G01*
X382800000Y-96612500D02*
G75*
G02*
X382600000Y-96812500I-200000J0D01*
G01*
X363750000Y-96612500D02*
X363750000Y-93812500D01*
X363550000Y-93612500D02*
X360350000Y-93612500D01*
X360150000Y-96612500D02*
X360150000Y-93812500D01*
X363550000Y-96812500D02*
X360350000Y-96812500D01*
X360150000Y-93812500D02*
G75*
G02*
X360350000Y-93612500I200000J0D01*
G01*
X363550000Y-93612500D02*
G75*
G02*
X363750000Y-93812500I0J-200000D01*
G01*
X360350000Y-96812500D02*
G75*
G02*
X360150000Y-96612500I0J200000D01*
G01*
X363750000Y-96612500D02*
G75*
G02*
X363550000Y-96812500I-200000J0D01*
G01*
X339938000Y-96612500D02*
X339938000Y-93812500D01*
X339738000Y-93612500D02*
X336538000Y-93612500D01*
X336338000Y-96612500D02*
X336338000Y-93812500D01*
X339738000Y-96812500D02*
X336538000Y-96812500D01*
X339938000Y-96612500D02*
G75*
G02*
X339738000Y-96812500I-200000J0D01*
G01*
X336538000Y-96812500D02*
G75*
G02*
X336338000Y-96612500I0J200000D01*
G01*
X339738000Y-93612500D02*
G75*
G02*
X339938000Y-93812500I0J-200000D01*
G01*
X336338000Y-93812500D02*
G75*
G02*
X336538000Y-93612500I200000J0D01*
G01*
X354225000Y-20412500D02*
X354225000Y-17612500D01*
X354025000Y-17412500D02*
X350825000Y-17412500D01*
X350625000Y-20412500D02*
X350625000Y-17612500D01*
X354025000Y-20612500D02*
X350825000Y-20612500D01*
X350625000Y-17612500D02*
G75*
G02*
X350825000Y-17412500I200000J0D01*
G01*
X354025000Y-17412500D02*
G75*
G02*
X354225000Y-17612500I0J-200000D01*
G01*
X350825000Y-20612500D02*
G75*
G02*
X350625000Y-20412500I0J200000D01*
G01*
X354225000Y-20412500D02*
G75*
G02*
X354025000Y-20612500I-200000J0D01*
G01*
X382800000Y-115662500D02*
X382800000Y-112862500D01*
X382600000Y-112662500D02*
X379400000Y-112662500D01*
X379200000Y-115662500D02*
X379200000Y-112862500D01*
X382600000Y-115862500D02*
X379400000Y-115862500D01*
X379200000Y-112862500D02*
G75*
G02*
X379400000Y-112662500I200000J0D01*
G01*
X382600000Y-112662500D02*
G75*
G02*
X382800000Y-112862500I0J-200000D01*
G01*
X379400000Y-115862500D02*
G75*
G02*
X379200000Y-115662500I0J200000D01*
G01*
X382800000Y-115662500D02*
G75*
G02*
X382600000Y-115862500I-200000J0D01*
G01*
X363750000Y-115662500D02*
X363750000Y-112862500D01*
X363550000Y-112662500D02*
X360350000Y-112662500D01*
X360150000Y-115662500D02*
X360150000Y-112862500D01*
X363550000Y-115862500D02*
X360350000Y-115862500D01*
X360150000Y-112862500D02*
G75*
G02*
X360350000Y-112662500I200000J0D01*
G01*
X363550000Y-112662500D02*
G75*
G02*
X363750000Y-112862500I0J-200000D01*
G01*
X360350000Y-115862500D02*
G75*
G02*
X360150000Y-115662500I0J200000D01*
G01*
X363750000Y-115662500D02*
G75*
G02*
X363550000Y-115862500I-200000J0D01*
G01*
X344700000Y-115662500D02*
X344700000Y-112862500D01*
X344500000Y-112662500D02*
X341300000Y-112662500D01*
X341100000Y-115662500D02*
X341100000Y-112862500D01*
X344500000Y-115862500D02*
X341300000Y-115862500D01*
X341100000Y-112862500D02*
G75*
G02*
X341300000Y-112662500I200000J0D01*
G01*
X344500000Y-112662500D02*
G75*
G02*
X344700000Y-112862500I0J-200000D01*
G01*
X341300000Y-115862500D02*
G75*
G02*
X341100000Y-115662500I0J200000D01*
G01*
X344700000Y-115662500D02*
G75*
G02*
X344500000Y-115862500I-200000J0D01*
G01*
X323068500Y-115862500D02*
X319868500Y-115862500D01*
X319668500Y-115662500D02*
X319668500Y-112862500D01*
X323068500Y-112662500D02*
X319868500Y-112662500D01*
X323268500Y-115662500D02*
X323268500Y-112862500D01*
X319668500Y-112862500D02*
G75*
G02*
X319868500Y-112662500I200000J0D01*
G01*
X323068500Y-112662500D02*
G75*
G02*
X323268500Y-112862500I0J-200000D01*
G01*
X319868500Y-115862500D02*
G75*
G02*
X319668500Y-115662500I0J200000D01*
G01*
X323268500Y-115662500D02*
G75*
G02*
X323068500Y-115862500I-200000J0D01*
G01*
X239925000Y-96612500D02*
X239925000Y-93812500D01*
X239725000Y-93612500D02*
X236525000Y-93612500D01*
X236325000Y-96612500D02*
X236325000Y-93812500D01*
X239725000Y-96812500D02*
X236525000Y-96812500D01*
X236325000Y-93812500D02*
G75*
G02*
X236525000Y-93612500I200000J0D01*
G01*
X239725000Y-93612500D02*
G75*
G02*
X239925000Y-93812500I0J-200000D01*
G01*
X236525000Y-96812500D02*
G75*
G02*
X236325000Y-96612500I0J200000D01*
G01*
X239925000Y-96612500D02*
G75*
G02*
X239725000Y-96812500I-200000J0D01*
G01*
X239925000Y-77562500D02*
X239925000Y-74762500D01*
X239725000Y-74562500D02*
X236525000Y-74562500D01*
X236325000Y-77562500D02*
X236325000Y-74762500D01*
X239725000Y-77762500D02*
X236525000Y-77762500D01*
X236325000Y-74762500D02*
G75*
G02*
X236525000Y-74562500I200000J0D01*
G01*
X239725000Y-74562500D02*
G75*
G02*
X239925000Y-74762500I0J-200000D01*
G01*
X236525000Y-77762500D02*
G75*
G02*
X236325000Y-77562500I0J200000D01*
G01*
X239925000Y-77562500D02*
G75*
G02*
X239725000Y-77762500I-200000J0D01*
G01*
X378038000Y-58512500D02*
X378038000Y-55712500D01*
X377838000Y-55512500D02*
X374638000Y-55512500D01*
X374438000Y-58512500D02*
X374438000Y-55712500D01*
X377838000Y-58712500D02*
X374638000Y-58712500D01*
X378038000Y-58512500D02*
G75*
G02*
X377838000Y-58712500I-200000J0D01*
G01*
X374638000Y-58712500D02*
G75*
G02*
X374438000Y-58512500I0J200000D01*
G01*
X377838000Y-55512500D02*
G75*
G02*
X378038000Y-55712500I0J-200000D01*
G01*
X374438000Y-55712500D02*
G75*
G02*
X374638000Y-55512500I200000J0D01*
G01*
X239925000Y-58512500D02*
X239925000Y-55712500D01*
X239725000Y-55512500D02*
X236525000Y-55512500D01*
X236325000Y-58512500D02*
X236325000Y-55712500D01*
X239725000Y-58712500D02*
X236525000Y-58712500D01*
X236325000Y-55712500D02*
G75*
G02*
X236525000Y-55512500I200000J0D01*
G01*
X239725000Y-55512500D02*
G75*
G02*
X239925000Y-55712500I0J-200000D01*
G01*
X236525000Y-58712500D02*
G75*
G02*
X236325000Y-58512500I0J200000D01*
G01*
X239925000Y-58512500D02*
G75*
G02*
X239725000Y-58712500I-200000J0D01*
G01*
X378038000Y-39462500D02*
X378038000Y-36662500D01*
X377838000Y-36462500D02*
X374638000Y-36462500D01*
X374438000Y-39462500D02*
X374438000Y-36662500D01*
X377838000Y-39662500D02*
X374638000Y-39662500D01*
X378038000Y-39462500D02*
G75*
G02*
X377838000Y-39662500I-200000J0D01*
G01*
X374638000Y-39662500D02*
G75*
G02*
X374438000Y-39462500I0J200000D01*
G01*
X377838000Y-36462500D02*
G75*
G02*
X378038000Y-36662500I0J-200000D01*
G01*
X374438000Y-36662500D02*
G75*
G02*
X374638000Y-36462500I200000J0D01*
G01*
X239925000Y-39462500D02*
X239925000Y-36662500D01*
X239725000Y-36462500D02*
X236525000Y-36462500D01*
X236325000Y-39462500D02*
X236325000Y-36662500D01*
X239725000Y-39662500D02*
X236525000Y-39662500D01*
X236325000Y-36662500D02*
G75*
G02*
X236525000Y-36462500I200000J0D01*
G01*
X239725000Y-36462500D02*
G75*
G02*
X239925000Y-36662500I0J-200000D01*
G01*
X236525000Y-39662500D02*
G75*
G02*
X236325000Y-39462500I0J200000D01*
G01*
X239925000Y-39462500D02*
G75*
G02*
X239725000Y-39662500I-200000J0D01*
G01*
X239925000Y-20412500D02*
X239925000Y-17612500D01*
X239725000Y-17412500D02*
X236525000Y-17412500D01*
X236325000Y-20412500D02*
X236325000Y-17612500D01*
X239725000Y-20612500D02*
X236525000Y-20612500D01*
X236325000Y-17612500D02*
G75*
G02*
X236525000Y-17412500I200000J0D01*
G01*
X239725000Y-17412500D02*
G75*
G02*
X239925000Y-17612500I0J-200000D01*
G01*
X236525000Y-20612500D02*
G75*
G02*
X236325000Y-20412500I0J200000D01*
G01*
X239925000Y-20412500D02*
G75*
G02*
X239725000Y-20612500I-200000J0D01*
G01*
X299256000Y-115862500D02*
X296056000Y-115862500D01*
X295856000Y-115662500D02*
X295856000Y-112862500D01*
X299256000Y-112662500D02*
X296056000Y-112662500D01*
X299456000Y-115662500D02*
X299456000Y-112862500D01*
X295856000Y-112862500D02*
G75*
G02*
X296056000Y-112662500I200000J0D01*
G01*
X299256000Y-112662500D02*
G75*
G02*
X299456000Y-112862500I0J-200000D01*
G01*
X296056000Y-115862500D02*
G75*
G02*
X295856000Y-115662500I0J200000D01*
G01*
X299456000Y-115662500D02*
G75*
G02*
X299256000Y-115862500I-200000J0D01*
G01*
X275443500Y-115862500D02*
X272243500Y-115862500D01*
X272043500Y-115662500D02*
X272043500Y-112862500D01*
X275443500Y-112662500D02*
X272243500Y-112662500D01*
X275643500Y-115662500D02*
X275643500Y-112862500D01*
X272043500Y-112862500D02*
G75*
G02*
X272243500Y-112662500I200000J0D01*
G01*
X275443500Y-112662500D02*
G75*
G02*
X275643500Y-112862500I0J-200000D01*
G01*
X272243500Y-115862500D02*
G75*
G02*
X272043500Y-115662500I0J200000D01*
G01*
X275643500Y-115662500D02*
G75*
G02*
X275443500Y-115862500I-200000J0D01*
G01*
X316125000Y-96612500D02*
X316125000Y-93812500D01*
X315925000Y-93612500D02*
X312725000Y-93612500D01*
X312525000Y-96612500D02*
X312525000Y-93812500D01*
X315925000Y-96812500D02*
X312725000Y-96812500D01*
X312525000Y-93812500D02*
G75*
G02*
X312725000Y-93612500I200000J0D01*
G01*
X315925000Y-93612500D02*
G75*
G02*
X316125000Y-93812500I0J-200000D01*
G01*
X312725000Y-96812500D02*
G75*
G02*
X312525000Y-96612500I0J200000D01*
G01*
X316125000Y-96612500D02*
G75*
G02*
X315925000Y-96812500I-200000J0D01*
G01*
X297075000Y-96612500D02*
X297075000Y-93812500D01*
X296875000Y-93612500D02*
X293675000Y-93612500D01*
X293475000Y-96612500D02*
X293475000Y-93812500D01*
X296875000Y-96812500D02*
X293675000Y-96812500D01*
X293475000Y-93812500D02*
G75*
G02*
X293675000Y-93612500I200000J0D01*
G01*
X296875000Y-93612500D02*
G75*
G02*
X297075000Y-93812500I0J-200000D01*
G01*
X293675000Y-96812500D02*
G75*
G02*
X293475000Y-96612500I0J200000D01*
G01*
X297075000Y-96612500D02*
G75*
G02*
X296875000Y-96812500I-200000J0D01*
G01*
X278025000Y-96612500D02*
X278025000Y-93812500D01*
X277825000Y-93612500D02*
X274625000Y-93612500D01*
X274425000Y-96612500D02*
X274425000Y-93812500D01*
X277825000Y-96812500D02*
X274625000Y-96812500D01*
X274425000Y-93812500D02*
G75*
G02*
X274625000Y-93612500I200000J0D01*
G01*
X277825000Y-93612500D02*
G75*
G02*
X278025000Y-93812500I0J-200000D01*
G01*
X274625000Y-96812500D02*
G75*
G02*
X274425000Y-96612500I0J200000D01*
G01*
X278025000Y-96612500D02*
G75*
G02*
X277825000Y-96812500I-200000J0D01*
G01*
X258975000Y-96612500D02*
X258975000Y-93812500D01*
X258775000Y-93612500D02*
X255575000Y-93612500D01*
X255375000Y-96612500D02*
X255375000Y-93812500D01*
X258775000Y-96812500D02*
X255575000Y-96812500D01*
X255375000Y-93812500D02*
G75*
G02*
X255575000Y-93612500I200000J0D01*
G01*
X258775000Y-93612500D02*
G75*
G02*
X258975000Y-93812500I0J-200000D01*
G01*
X255575000Y-96812500D02*
G75*
G02*
X255375000Y-96612500I0J200000D01*
G01*
X258975000Y-96612500D02*
G75*
G02*
X258775000Y-96812500I-200000J0D01*
G01*
X335175000Y-77562500D02*
X335175000Y-74762500D01*
X334975000Y-74562500D02*
X331775000Y-74562500D01*
X331575000Y-77562500D02*
X331575000Y-74762500D01*
X334975000Y-77762500D02*
X331775000Y-77762500D01*
X331575000Y-74762500D02*
G75*
G02*
X331775000Y-74562500I200000J0D01*
G01*
X334975000Y-74562500D02*
G75*
G02*
X335175000Y-74762500I0J-200000D01*
G01*
X331775000Y-77762500D02*
G75*
G02*
X331575000Y-77562500I0J200000D01*
G01*
X335175000Y-77562500D02*
G75*
G02*
X334975000Y-77762500I-200000J0D01*
G01*
X316125000Y-77562500D02*
X316125000Y-74762500D01*
X315925000Y-74562500D02*
X312725000Y-74562500D01*
X312525000Y-77562500D02*
X312525000Y-74762500D01*
X315925000Y-77762500D02*
X312725000Y-77762500D01*
X312525000Y-74762500D02*
G75*
G02*
X312725000Y-74562500I200000J0D01*
G01*
X315925000Y-74562500D02*
G75*
G02*
X316125000Y-74762500I0J-200000D01*
G01*
X312725000Y-77762500D02*
G75*
G02*
X312525000Y-77562500I0J200000D01*
G01*
X316125000Y-77562500D02*
G75*
G02*
X315925000Y-77762500I-200000J0D01*
G01*
X297075000Y-77562500D02*
X297075000Y-74762500D01*
X296875000Y-74562500D02*
X293675000Y-74562500D01*
X293475000Y-77562500D02*
X293475000Y-74762500D01*
X296875000Y-77762500D02*
X293675000Y-77762500D01*
X293475000Y-74762500D02*
G75*
G02*
X293675000Y-74562500I200000J0D01*
G01*
X296875000Y-74562500D02*
G75*
G02*
X297075000Y-74762500I0J-200000D01*
G01*
X293675000Y-77762500D02*
G75*
G02*
X293475000Y-77562500I0J200000D01*
G01*
X297075000Y-77562500D02*
G75*
G02*
X296875000Y-77762500I-200000J0D01*
G01*
X278025000Y-77562500D02*
X278025000Y-74762500D01*
X277825000Y-74562500D02*
X274625000Y-74562500D01*
X274425000Y-77562500D02*
X274425000Y-74762500D01*
X277825000Y-77762500D02*
X274625000Y-77762500D01*
X274425000Y-74762500D02*
G75*
G02*
X274625000Y-74562500I200000J0D01*
G01*
X277825000Y-74562500D02*
G75*
G02*
X278025000Y-74762500I0J-200000D01*
G01*
X274625000Y-77762500D02*
G75*
G02*
X274425000Y-77562500I0J200000D01*
G01*
X278025000Y-77562500D02*
G75*
G02*
X277825000Y-77762500I-200000J0D01*
G01*
X258975000Y-77562500D02*
X258975000Y-74762500D01*
X258775000Y-74562500D02*
X255575000Y-74562500D01*
X255375000Y-77562500D02*
X255375000Y-74762500D01*
X258775000Y-77762500D02*
X255575000Y-77762500D01*
X255375000Y-74762500D02*
G75*
G02*
X255575000Y-74562500I200000J0D01*
G01*
X258775000Y-74562500D02*
G75*
G02*
X258975000Y-74762500I0J-200000D01*
G01*
X255575000Y-77762500D02*
G75*
G02*
X255375000Y-77562500I0J200000D01*
G01*
X258975000Y-77562500D02*
G75*
G02*
X258775000Y-77762500I-200000J0D01*
G01*
X354225000Y-58512500D02*
X354225000Y-55712500D01*
X354025000Y-55512500D02*
X350825000Y-55512500D01*
X350625000Y-58512500D02*
X350625000Y-55712500D01*
X354025000Y-58712500D02*
X350825000Y-58712500D01*
X350625000Y-55712500D02*
G75*
G02*
X350825000Y-55512500I200000J0D01*
G01*
X354025000Y-55512500D02*
G75*
G02*
X354225000Y-55712500I0J-200000D01*
G01*
X350825000Y-58712500D02*
G75*
G02*
X350625000Y-58512500I0J200000D01*
G01*
X354225000Y-58512500D02*
G75*
G02*
X354025000Y-58712500I-200000J0D01*
G01*
X335175000Y-58512500D02*
X335175000Y-55712500D01*
X334975000Y-55512500D02*
X331775000Y-55512500D01*
X331575000Y-58512500D02*
X331575000Y-55712500D01*
X334975000Y-58712500D02*
X331775000Y-58712500D01*
X331575000Y-55712500D02*
G75*
G02*
X331775000Y-55512500I200000J0D01*
G01*
X334975000Y-55512500D02*
G75*
G02*
X335175000Y-55712500I0J-200000D01*
G01*
X331775000Y-58712500D02*
G75*
G02*
X331575000Y-58512500I0J200000D01*
G01*
X335175000Y-58512500D02*
G75*
G02*
X334975000Y-58712500I-200000J0D01*
G01*
X316125000Y-58512500D02*
X316125000Y-55712500D01*
X315925000Y-55512500D02*
X312725000Y-55512500D01*
X312525000Y-58512500D02*
X312525000Y-55712500D01*
X315925000Y-58712500D02*
X312725000Y-58712500D01*
X312525000Y-55712500D02*
G75*
G02*
X312725000Y-55512500I200000J0D01*
G01*
X315925000Y-55512500D02*
G75*
G02*
X316125000Y-55712500I0J-200000D01*
G01*
X312725000Y-58712500D02*
G75*
G02*
X312525000Y-58512500I0J200000D01*
G01*
X316125000Y-58512500D02*
G75*
G02*
X315925000Y-58712500I-200000J0D01*
G01*
X297075000Y-58512500D02*
X297075000Y-55712500D01*
X296875000Y-55512500D02*
X293675000Y-55512500D01*
X293475000Y-58512500D02*
X293475000Y-55712500D01*
X296875000Y-58712500D02*
X293675000Y-58712500D01*
X293475000Y-55712500D02*
G75*
G02*
X293675000Y-55512500I200000J0D01*
G01*
X296875000Y-55512500D02*
G75*
G02*
X297075000Y-55712500I0J-200000D01*
G01*
X293675000Y-58712500D02*
G75*
G02*
X293475000Y-58512500I0J200000D01*
G01*
X297075000Y-58512500D02*
G75*
G02*
X296875000Y-58712500I-200000J0D01*
G01*
X278025000Y-58512500D02*
X278025000Y-55712500D01*
X277825000Y-55512500D02*
X274625000Y-55512500D01*
X274425000Y-58512500D02*
X274425000Y-55712500D01*
X277825000Y-58712500D02*
X274625000Y-58712500D01*
X274425000Y-55712500D02*
G75*
G02*
X274625000Y-55512500I200000J0D01*
G01*
X277825000Y-55512500D02*
G75*
G02*
X278025000Y-55712500I0J-200000D01*
G01*
X274625000Y-58712500D02*
G75*
G02*
X274425000Y-58512500I0J200000D01*
G01*
X278025000Y-58512500D02*
G75*
G02*
X277825000Y-58712500I-200000J0D01*
G01*
X258975000Y-58512500D02*
X258975000Y-55712500D01*
X258775000Y-55512500D02*
X255575000Y-55512500D01*
X255375000Y-58512500D02*
X255375000Y-55712500D01*
X258775000Y-58712500D02*
X255575000Y-58712500D01*
X255375000Y-55712500D02*
G75*
G02*
X255575000Y-55512500I200000J0D01*
G01*
X258775000Y-55512500D02*
G75*
G02*
X258975000Y-55712500I0J-200000D01*
G01*
X255575000Y-58712500D02*
G75*
G02*
X255375000Y-58512500I0J200000D01*
G01*
X258975000Y-58512500D02*
G75*
G02*
X258775000Y-58712500I-200000J0D01*
G01*
X354225000Y-39462500D02*
X354225000Y-36662500D01*
X354025000Y-36462500D02*
X350825000Y-36462500D01*
X350625000Y-39462500D02*
X350625000Y-36662500D01*
X354025000Y-39662500D02*
X350825000Y-39662500D01*
X350625000Y-36662500D02*
G75*
G02*
X350825000Y-36462500I200000J0D01*
G01*
X354025000Y-36462500D02*
G75*
G02*
X354225000Y-36662500I0J-200000D01*
G01*
X350825000Y-39662500D02*
G75*
G02*
X350625000Y-39462500I0J200000D01*
G01*
X354225000Y-39462500D02*
G75*
G02*
X354025000Y-39662500I-200000J0D01*
G01*
X335175000Y-39462500D02*
X335175000Y-36662500D01*
X334975000Y-36462500D02*
X331775000Y-36462500D01*
X331575000Y-39462500D02*
X331575000Y-36662500D01*
X334975000Y-39662500D02*
X331775000Y-39662500D01*
X331575000Y-36662500D02*
G75*
G02*
X331775000Y-36462500I200000J0D01*
G01*
X334975000Y-36462500D02*
G75*
G02*
X335175000Y-36662500I0J-200000D01*
G01*
X331775000Y-39662500D02*
G75*
G02*
X331575000Y-39462500I0J200000D01*
G01*
X335175000Y-39462500D02*
G75*
G02*
X334975000Y-39662500I-200000J0D01*
G01*
X316125000Y-39462500D02*
X316125000Y-36662500D01*
X315925000Y-36462500D02*
X312725000Y-36462500D01*
X312525000Y-39462500D02*
X312525000Y-36662500D01*
X315925000Y-39662500D02*
X312725000Y-39662500D01*
X312525000Y-36662500D02*
G75*
G02*
X312725000Y-36462500I200000J0D01*
G01*
X315925000Y-36462500D02*
G75*
G02*
X316125000Y-36662500I0J-200000D01*
G01*
X312725000Y-39662500D02*
G75*
G02*
X312525000Y-39462500I0J200000D01*
G01*
X316125000Y-39462500D02*
G75*
G02*
X315925000Y-39662500I-200000J0D01*
G01*
X297075000Y-39462500D02*
X297075000Y-36662500D01*
X296875000Y-36462500D02*
X293675000Y-36462500D01*
X293475000Y-39462500D02*
X293475000Y-36662500D01*
X296875000Y-39662500D02*
X293675000Y-39662500D01*
X293475000Y-36662500D02*
G75*
G02*
X293675000Y-36462500I200000J0D01*
G01*
X296875000Y-36462500D02*
G75*
G02*
X297075000Y-36662500I0J-200000D01*
G01*
X293675000Y-39662500D02*
G75*
G02*
X293475000Y-39462500I0J200000D01*
G01*
X297075000Y-39462500D02*
G75*
G02*
X296875000Y-39662500I-200000J0D01*
G01*
X278025000Y-39462500D02*
X278025000Y-36662500D01*
X277825000Y-36462500D02*
X274625000Y-36462500D01*
X274425000Y-39462500D02*
X274425000Y-36662500D01*
X277825000Y-39662500D02*
X274625000Y-39662500D01*
X274425000Y-36662500D02*
G75*
G02*
X274625000Y-36462500I200000J0D01*
G01*
X277825000Y-36462500D02*
G75*
G02*
X278025000Y-36662500I0J-200000D01*
G01*
X274625000Y-39662500D02*
G75*
G02*
X274425000Y-39462500I0J200000D01*
G01*
X278025000Y-39462500D02*
G75*
G02*
X277825000Y-39662500I-200000J0D01*
G01*
X258975000Y-39462500D02*
X258975000Y-36662500D01*
X258775000Y-36462500D02*
X255575000Y-36462500D01*
X255375000Y-39462500D02*
X255375000Y-36662500D01*
X258775000Y-39662500D02*
X255575000Y-39662500D01*
X255375000Y-36662500D02*
G75*
G02*
X255575000Y-36462500I200000J0D01*
G01*
X258775000Y-36462500D02*
G75*
G02*
X258975000Y-36662500I0J-200000D01*
G01*
X255575000Y-39662500D02*
G75*
G02*
X255375000Y-39462500I0J200000D01*
G01*
X258975000Y-39462500D02*
G75*
G02*
X258775000Y-39662500I-200000J0D01*
G01*
X335175000Y-20412500D02*
X335175000Y-17612500D01*
X334975000Y-17412500D02*
X331775000Y-17412500D01*
X331575000Y-20412500D02*
X331575000Y-17612500D01*
X334975000Y-20612500D02*
X331775000Y-20612500D01*
X331575000Y-17612500D02*
G75*
G02*
X331775000Y-17412500I200000J0D01*
G01*
X334975000Y-17412500D02*
G75*
G02*
X335175000Y-17612500I0J-200000D01*
G01*
X331775000Y-20612500D02*
G75*
G02*
X331575000Y-20412500I0J200000D01*
G01*
X335175000Y-20412500D02*
G75*
G02*
X334975000Y-20612500I-200000J0D01*
G01*
X316125000Y-20412500D02*
X316125000Y-17612500D01*
X315925000Y-17412500D02*
X312725000Y-17412500D01*
X312525000Y-20412500D02*
X312525000Y-17612500D01*
X315925000Y-20612500D02*
X312725000Y-20612500D01*
X312525000Y-17612500D02*
G75*
G02*
X312725000Y-17412500I200000J0D01*
G01*
X315925000Y-17412500D02*
G75*
G02*
X316125000Y-17612500I0J-200000D01*
G01*
X312725000Y-20612500D02*
G75*
G02*
X312525000Y-20412500I0J200000D01*
G01*
X316125000Y-20412500D02*
G75*
G02*
X315925000Y-20612500I-200000J0D01*
G01*
X297075000Y-20412500D02*
X297075000Y-17612500D01*
X296875000Y-17412500D02*
X293675000Y-17412500D01*
X293475000Y-20412500D02*
X293475000Y-17612500D01*
X296875000Y-20612500D02*
X293675000Y-20612500D01*
X293475000Y-17612500D02*
G75*
G02*
X293675000Y-17412500I200000J0D01*
G01*
X296875000Y-17412500D02*
G75*
G02*
X297075000Y-17612500I0J-200000D01*
G01*
X293675000Y-20612500D02*
G75*
G02*
X293475000Y-20412500I0J200000D01*
G01*
X297075000Y-20412500D02*
G75*
G02*
X296875000Y-20612500I-200000J0D01*
G01*
X278025000Y-20412500D02*
X278025000Y-17612500D01*
X277825000Y-17412500D02*
X274625000Y-17412500D01*
X274425000Y-20412500D02*
X274425000Y-17612500D01*
X277825000Y-20612500D02*
X274625000Y-20612500D01*
X274425000Y-17612500D02*
G75*
G02*
X274625000Y-17412500I200000J0D01*
G01*
X277825000Y-17412500D02*
G75*
G02*
X278025000Y-17612500I0J-200000D01*
G01*
X274625000Y-20612500D02*
G75*
G02*
X274425000Y-20412500I0J200000D01*
G01*
X278025000Y-20412500D02*
G75*
G02*
X277825000Y-20612500I-200000J0D01*
G01*
X258975000Y-20412500D02*
X258975000Y-17612500D01*
X258775000Y-17412500D02*
X255575000Y-17412500D01*
X255375000Y-20412500D02*
X255375000Y-17612500D01*
X258775000Y-20612500D02*
X255575000Y-20612500D01*
X255375000Y-17612500D02*
G75*
G02*
X255575000Y-17412500I200000J0D01*
G01*
X258775000Y-17412500D02*
G75*
G02*
X258975000Y-17612500I0J-200000D01*
G01*
X255575000Y-20612500D02*
G75*
G02*
X255375000Y-20412500I0J200000D01*
G01*
X258975000Y-20412500D02*
G75*
G02*
X258775000Y-20612500I-200000J0D01*
G01*
M02*
