G04 #@! TF.GenerationSoftware,KiCad,Pcbnew,(5.1.6)-1*
G04 #@! TF.CreationDate,2020-11-25T22:12:27-08:00*
G04 #@! TF.ProjectId,ortho_right,6f727468-6f5f-4726-9967-68742e6b6963,rev?*
G04 #@! TF.SameCoordinates,Original*
G04 #@! TF.FileFunction,Legend,Bot*
G04 #@! TF.FilePolarity,Positive*
%FSLAX46Y46*%
G04 Gerber Fmt 4.6, Leading zero omitted, Abs format (unit mm)*
G04 Created by KiCad (PCBNEW (5.1.6)-1) date 2020-11-25 22:12:27*
%MOMM*%
%LPD*%
G01*
G04 APERTURE LIST*
%ADD10C,0.120000*%
%ADD11C,0.100000*%
%ADD12C,0.150000*%
%ADD13C,0.381000*%
G04 APERTURE END LIST*
D10*
X213667100Y-79067000D02*
X213667100Y-77777000D01*
X213217100Y-79067000D02*
X213667100Y-79067000D01*
X213217100Y-79517000D02*
X213217100Y-79067000D01*
X213217100Y-86287000D02*
X213667100Y-86287000D01*
X213217100Y-85837000D02*
X213217100Y-86287000D01*
X220437100Y-79067000D02*
X219987100Y-79067000D01*
X220437100Y-79517000D02*
X220437100Y-79067000D01*
X220437100Y-86287000D02*
X219987100Y-86287000D01*
X220437100Y-85837000D02*
X220437100Y-86287000D01*
X211524667Y-89206800D02*
X211182133Y-89206800D01*
X211524667Y-88186800D02*
X211182133Y-88186800D01*
X209873667Y-80189800D02*
X209531133Y-80189800D01*
X209873667Y-79169800D02*
X209531133Y-79169800D01*
D11*
G36*
X362627600Y-76390500D02*
G01*
X360595600Y-76390500D01*
X360595600Y-77533500D01*
X362627600Y-77533500D01*
X362627600Y-76390500D01*
G37*
X362627600Y-76390500D02*
X360595600Y-76390500D01*
X360595600Y-77533500D01*
X362627600Y-77533500D01*
X362627600Y-76390500D01*
G36*
X365675600Y-74358500D02*
G01*
X366437600Y-75247500D01*
X366437600Y-74358500D01*
X365675600Y-74358500D01*
G37*
X365675600Y-74358500D02*
X366437600Y-75247500D01*
X366437600Y-74358500D01*
X365675600Y-74358500D01*
D12*
X368941693Y-75629340D02*
X370465693Y-75629340D01*
X368941693Y-75502340D02*
X370465693Y-75502340D01*
X370465693Y-75375340D02*
X368941693Y-75375340D01*
X368941693Y-74994340D02*
X370465693Y-74994340D01*
X370465693Y-75121340D02*
X368941693Y-75121340D01*
X368941693Y-79947340D02*
X368941693Y-79439340D01*
X368941693Y-75248340D02*
X370465693Y-75248340D01*
X370465693Y-79947340D02*
X368941693Y-79947340D01*
X370465693Y-74867340D02*
X370465693Y-79947340D01*
X368941693Y-79947340D02*
X368941693Y-74867340D01*
X368941693Y-74867340D02*
X370465693Y-74867340D01*
X248026542Y-133365344D02*
X248547781Y-134797435D01*
X243252904Y-135102806D02*
X248026542Y-133365344D01*
X248547781Y-134797435D02*
X243774142Y-136534898D01*
X243774142Y-136534898D02*
X243252904Y-135102806D01*
X247668519Y-133495653D02*
X248189758Y-134927745D01*
X243252904Y-135102806D02*
X243730267Y-134929060D01*
X248309099Y-134884308D02*
X247787860Y-133452217D01*
X247907201Y-133408780D02*
X248428440Y-134840872D01*
X248070417Y-134971181D02*
X247549178Y-133539090D01*
X247429837Y-133582526D02*
X247951076Y-135014618D01*
X247310496Y-133625963D02*
X247831735Y-135058055D01*
D11*
G36*
X247387626Y-130122187D02*
G01*
X246812858Y-131142288D01*
X247648245Y-130838232D01*
X247387626Y-130122187D01*
G37*
X247387626Y-130122187D02*
X246812858Y-131142288D01*
X247648245Y-130838232D01*
X247387626Y-130122187D01*
G36*
X244435693Y-127952988D02*
G01*
X243740708Y-126043533D01*
X242666639Y-126434462D01*
X243361624Y-128343917D01*
X244435693Y-127952988D01*
G37*
X244435693Y-127952988D02*
X243740708Y-126043533D01*
X242666639Y-126434462D01*
X243361624Y-128343917D01*
X244435693Y-127952988D01*
D12*
X215567374Y-135525096D02*
X215046135Y-134093005D01*
X220341012Y-133787634D02*
X215567374Y-135525096D01*
X215046135Y-134093005D02*
X219819774Y-132355542D01*
X219819774Y-132355542D02*
X220341012Y-133787634D01*
X215925397Y-135394787D02*
X215404158Y-133962695D01*
X220341012Y-133787634D02*
X219863649Y-133961380D01*
X215284817Y-134006132D02*
X215806056Y-135438223D01*
X215686715Y-135481660D02*
X215165476Y-134049568D01*
X215523499Y-133919259D02*
X216044738Y-135351350D01*
X216164079Y-135307914D02*
X215642840Y-133875822D01*
X216283420Y-135264477D02*
X215762181Y-133832385D01*
D11*
G36*
X216206290Y-138768253D02*
G01*
X216781058Y-137748152D01*
X215945671Y-138052208D01*
X216206290Y-138768253D01*
G37*
X216206290Y-138768253D02*
X216781058Y-137748152D01*
X215945671Y-138052208D01*
X216206290Y-138768253D01*
G36*
X219158223Y-140937452D02*
G01*
X219853208Y-142846907D01*
X220927277Y-142455978D01*
X220232292Y-140546523D01*
X219158223Y-140937452D01*
G37*
X219158223Y-140937452D02*
X219853208Y-142846907D01*
X220927277Y-142455978D01*
X220232292Y-140546523D01*
X219158223Y-140937452D01*
D12*
X385536093Y-93917340D02*
X387060093Y-93917340D01*
X385536093Y-98997340D02*
X385536093Y-93917340D01*
X387060093Y-93917340D02*
X387060093Y-98997340D01*
X387060093Y-98997340D02*
X385536093Y-98997340D01*
X385536093Y-94298340D02*
X387060093Y-94298340D01*
X385536093Y-98997340D02*
X385536093Y-98489340D01*
X387060093Y-94171340D02*
X385536093Y-94171340D01*
X385536093Y-94044340D02*
X387060093Y-94044340D01*
X387060093Y-94425340D02*
X385536093Y-94425340D01*
X385536093Y-94552340D02*
X387060093Y-94552340D01*
X385536093Y-94679340D02*
X387060093Y-94679340D01*
D11*
G36*
X382270000Y-93408500D02*
G01*
X383032000Y-94297500D01*
X383032000Y-93408500D01*
X382270000Y-93408500D01*
G37*
X382270000Y-93408500D02*
X383032000Y-94297500D01*
X383032000Y-93408500D01*
X382270000Y-93408500D01*
G36*
X379222000Y-95440500D02*
G01*
X377190000Y-95440500D01*
X377190000Y-96583500D01*
X379222000Y-96583500D01*
X379222000Y-95440500D01*
G37*
X379222000Y-95440500D02*
X377190000Y-95440500D01*
X377190000Y-96583500D01*
X379222000Y-96583500D01*
X379222000Y-95440500D01*
D12*
X366486093Y-93917340D02*
X368010093Y-93917340D01*
X366486093Y-98997340D02*
X366486093Y-93917340D01*
X368010093Y-93917340D02*
X368010093Y-98997340D01*
X368010093Y-98997340D02*
X366486093Y-98997340D01*
X366486093Y-94298340D02*
X368010093Y-94298340D01*
X366486093Y-98997340D02*
X366486093Y-98489340D01*
X368010093Y-94171340D02*
X366486093Y-94171340D01*
X366486093Y-94044340D02*
X368010093Y-94044340D01*
X368010093Y-94425340D02*
X366486093Y-94425340D01*
X366486093Y-94552340D02*
X368010093Y-94552340D01*
X366486093Y-94679340D02*
X368010093Y-94679340D01*
D11*
G36*
X363220000Y-93408500D02*
G01*
X363982000Y-94297500D01*
X363982000Y-93408500D01*
X363220000Y-93408500D01*
G37*
X363220000Y-93408500D02*
X363982000Y-94297500D01*
X363982000Y-93408500D01*
X363220000Y-93408500D01*
G36*
X360172000Y-95440500D02*
G01*
X358140000Y-95440500D01*
X358140000Y-96583500D01*
X360172000Y-96583500D01*
X360172000Y-95440500D01*
G37*
X360172000Y-95440500D02*
X358140000Y-95440500D01*
X358140000Y-96583500D01*
X360172000Y-96583500D01*
X360172000Y-95440500D01*
D12*
X342674093Y-93917340D02*
X344198093Y-93917340D01*
X342674093Y-98997340D02*
X342674093Y-93917340D01*
X344198093Y-93917340D02*
X344198093Y-98997340D01*
X344198093Y-98997340D02*
X342674093Y-98997340D01*
X342674093Y-94298340D02*
X344198093Y-94298340D01*
X342674093Y-98997340D02*
X342674093Y-98489340D01*
X344198093Y-94171340D02*
X342674093Y-94171340D01*
X342674093Y-94044340D02*
X344198093Y-94044340D01*
X344198093Y-94425340D02*
X342674093Y-94425340D01*
X342674093Y-94552340D02*
X344198093Y-94552340D01*
X342674093Y-94679340D02*
X344198093Y-94679340D01*
D11*
G36*
X339408000Y-93408500D02*
G01*
X340170000Y-94297500D01*
X340170000Y-93408500D01*
X339408000Y-93408500D01*
G37*
X339408000Y-93408500D02*
X340170000Y-94297500D01*
X340170000Y-93408500D01*
X339408000Y-93408500D01*
G36*
X336360000Y-95440500D02*
G01*
X334328000Y-95440500D01*
X334328000Y-96583500D01*
X336360000Y-96583500D01*
X336360000Y-95440500D01*
G37*
X336360000Y-95440500D02*
X334328000Y-95440500D01*
X334328000Y-96583500D01*
X336360000Y-96583500D01*
X336360000Y-95440500D01*
D12*
X356961093Y-17717340D02*
X358485093Y-17717340D01*
X356961093Y-22797340D02*
X356961093Y-17717340D01*
X358485093Y-17717340D02*
X358485093Y-22797340D01*
X358485093Y-22797340D02*
X356961093Y-22797340D01*
X356961093Y-18098340D02*
X358485093Y-18098340D01*
X356961093Y-22797340D02*
X356961093Y-22289340D01*
X358485093Y-17971340D02*
X356961093Y-17971340D01*
X356961093Y-17844340D02*
X358485093Y-17844340D01*
X358485093Y-18225340D02*
X356961093Y-18225340D01*
X356961093Y-18352340D02*
X358485093Y-18352340D01*
X356961093Y-18479340D02*
X358485093Y-18479340D01*
D11*
G36*
X353695000Y-17208500D02*
G01*
X354457000Y-18097500D01*
X354457000Y-17208500D01*
X353695000Y-17208500D01*
G37*
X353695000Y-17208500D02*
X354457000Y-18097500D01*
X354457000Y-17208500D01*
X353695000Y-17208500D01*
G36*
X350647000Y-19240500D02*
G01*
X348615000Y-19240500D01*
X348615000Y-20383500D01*
X350647000Y-20383500D01*
X350647000Y-19240500D01*
G37*
X350647000Y-19240500D02*
X348615000Y-19240500D01*
X348615000Y-20383500D01*
X350647000Y-20383500D01*
X350647000Y-19240500D01*
D12*
X385536093Y-112967340D02*
X387060093Y-112967340D01*
X385536093Y-118047340D02*
X385536093Y-112967340D01*
X387060093Y-112967340D02*
X387060093Y-118047340D01*
X387060093Y-118047340D02*
X385536093Y-118047340D01*
X385536093Y-113348340D02*
X387060093Y-113348340D01*
X385536093Y-118047340D02*
X385536093Y-117539340D01*
X387060093Y-113221340D02*
X385536093Y-113221340D01*
X385536093Y-113094340D02*
X387060093Y-113094340D01*
X387060093Y-113475340D02*
X385536093Y-113475340D01*
X385536093Y-113602340D02*
X387060093Y-113602340D01*
X385536093Y-113729340D02*
X387060093Y-113729340D01*
D11*
G36*
X382270000Y-112458500D02*
G01*
X383032000Y-113347500D01*
X383032000Y-112458500D01*
X382270000Y-112458500D01*
G37*
X382270000Y-112458500D02*
X383032000Y-113347500D01*
X383032000Y-112458500D01*
X382270000Y-112458500D01*
G36*
X379222000Y-114490500D02*
G01*
X377190000Y-114490500D01*
X377190000Y-115633500D01*
X379222000Y-115633500D01*
X379222000Y-114490500D01*
G37*
X379222000Y-114490500D02*
X377190000Y-114490500D01*
X377190000Y-115633500D01*
X379222000Y-115633500D01*
X379222000Y-114490500D01*
D12*
X366486093Y-112967340D02*
X368010093Y-112967340D01*
X366486093Y-118047340D02*
X366486093Y-112967340D01*
X368010093Y-112967340D02*
X368010093Y-118047340D01*
X368010093Y-118047340D02*
X366486093Y-118047340D01*
X366486093Y-113348340D02*
X368010093Y-113348340D01*
X366486093Y-118047340D02*
X366486093Y-117539340D01*
X368010093Y-113221340D02*
X366486093Y-113221340D01*
X366486093Y-113094340D02*
X368010093Y-113094340D01*
X368010093Y-113475340D02*
X366486093Y-113475340D01*
X366486093Y-113602340D02*
X368010093Y-113602340D01*
X366486093Y-113729340D02*
X368010093Y-113729340D01*
D11*
G36*
X363220000Y-112458500D02*
G01*
X363982000Y-113347500D01*
X363982000Y-112458500D01*
X363220000Y-112458500D01*
G37*
X363220000Y-112458500D02*
X363982000Y-113347500D01*
X363982000Y-112458500D01*
X363220000Y-112458500D01*
G36*
X360172000Y-114490500D02*
G01*
X358140000Y-114490500D01*
X358140000Y-115633500D01*
X360172000Y-115633500D01*
X360172000Y-114490500D01*
G37*
X360172000Y-114490500D02*
X358140000Y-114490500D01*
X358140000Y-115633500D01*
X360172000Y-115633500D01*
X360172000Y-114490500D01*
D12*
X347436093Y-112967340D02*
X348960093Y-112967340D01*
X347436093Y-118047340D02*
X347436093Y-112967340D01*
X348960093Y-112967340D02*
X348960093Y-118047340D01*
X348960093Y-118047340D02*
X347436093Y-118047340D01*
X347436093Y-113348340D02*
X348960093Y-113348340D01*
X347436093Y-118047340D02*
X347436093Y-117539340D01*
X348960093Y-113221340D02*
X347436093Y-113221340D01*
X347436093Y-113094340D02*
X348960093Y-113094340D01*
X348960093Y-113475340D02*
X347436093Y-113475340D01*
X347436093Y-113602340D02*
X348960093Y-113602340D01*
X347436093Y-113729340D02*
X348960093Y-113729340D01*
D11*
G36*
X344170000Y-112458500D02*
G01*
X344932000Y-113347500D01*
X344932000Y-112458500D01*
X344170000Y-112458500D01*
G37*
X344170000Y-112458500D02*
X344932000Y-113347500D01*
X344932000Y-112458500D01*
X344170000Y-112458500D01*
G36*
X341122000Y-114490500D02*
G01*
X339090000Y-114490500D01*
X339090000Y-115633500D01*
X341122000Y-115633500D01*
X341122000Y-114490500D01*
G37*
X341122000Y-114490500D02*
X339090000Y-114490500D01*
X339090000Y-115633500D01*
X341122000Y-115633500D01*
X341122000Y-114490500D01*
G36*
X319690500Y-114490500D02*
G01*
X317658500Y-114490500D01*
X317658500Y-115633500D01*
X319690500Y-115633500D01*
X319690500Y-114490500D01*
G37*
X319690500Y-114490500D02*
X317658500Y-114490500D01*
X317658500Y-115633500D01*
X319690500Y-115633500D01*
X319690500Y-114490500D01*
G36*
X322738500Y-112458500D02*
G01*
X323500500Y-113347500D01*
X323500500Y-112458500D01*
X322738500Y-112458500D01*
G37*
X322738500Y-112458500D02*
X323500500Y-113347500D01*
X323500500Y-112458500D01*
X322738500Y-112458500D01*
D12*
X326004593Y-113729340D02*
X327528593Y-113729340D01*
X326004593Y-113602340D02*
X327528593Y-113602340D01*
X327528593Y-113475340D02*
X326004593Y-113475340D01*
X326004593Y-113094340D02*
X327528593Y-113094340D01*
X327528593Y-113221340D02*
X326004593Y-113221340D01*
X326004593Y-118047340D02*
X326004593Y-117539340D01*
X326004593Y-113348340D02*
X327528593Y-113348340D01*
X327528593Y-118047340D02*
X326004593Y-118047340D01*
X327528593Y-112967340D02*
X327528593Y-118047340D01*
X326004593Y-118047340D02*
X326004593Y-112967340D01*
X326004593Y-112967340D02*
X327528593Y-112967340D01*
X242661093Y-93917340D02*
X244185093Y-93917340D01*
X242661093Y-98997340D02*
X242661093Y-93917340D01*
X244185093Y-93917340D02*
X244185093Y-98997340D01*
X244185093Y-98997340D02*
X242661093Y-98997340D01*
X242661093Y-94298340D02*
X244185093Y-94298340D01*
X242661093Y-98997340D02*
X242661093Y-98489340D01*
X244185093Y-94171340D02*
X242661093Y-94171340D01*
X242661093Y-94044340D02*
X244185093Y-94044340D01*
X244185093Y-94425340D02*
X242661093Y-94425340D01*
X242661093Y-94552340D02*
X244185093Y-94552340D01*
X242661093Y-94679340D02*
X244185093Y-94679340D01*
D11*
G36*
X239395000Y-93408500D02*
G01*
X240157000Y-94297500D01*
X240157000Y-93408500D01*
X239395000Y-93408500D01*
G37*
X239395000Y-93408500D02*
X240157000Y-94297500D01*
X240157000Y-93408500D01*
X239395000Y-93408500D01*
G36*
X236347000Y-95440500D02*
G01*
X234315000Y-95440500D01*
X234315000Y-96583500D01*
X236347000Y-96583500D01*
X236347000Y-95440500D01*
G37*
X236347000Y-95440500D02*
X234315000Y-95440500D01*
X234315000Y-96583500D01*
X236347000Y-96583500D01*
X236347000Y-95440500D01*
D12*
X242661093Y-74867340D02*
X244185093Y-74867340D01*
X242661093Y-79947340D02*
X242661093Y-74867340D01*
X244185093Y-74867340D02*
X244185093Y-79947340D01*
X244185093Y-79947340D02*
X242661093Y-79947340D01*
X242661093Y-75248340D02*
X244185093Y-75248340D01*
X242661093Y-79947340D02*
X242661093Y-79439340D01*
X244185093Y-75121340D02*
X242661093Y-75121340D01*
X242661093Y-74994340D02*
X244185093Y-74994340D01*
X244185093Y-75375340D02*
X242661093Y-75375340D01*
X242661093Y-75502340D02*
X244185093Y-75502340D01*
X242661093Y-75629340D02*
X244185093Y-75629340D01*
D11*
G36*
X239395000Y-74358500D02*
G01*
X240157000Y-75247500D01*
X240157000Y-74358500D01*
X239395000Y-74358500D01*
G37*
X239395000Y-74358500D02*
X240157000Y-75247500D01*
X240157000Y-74358500D01*
X239395000Y-74358500D01*
G36*
X236347000Y-76390500D02*
G01*
X234315000Y-76390500D01*
X234315000Y-77533500D01*
X236347000Y-77533500D01*
X236347000Y-76390500D01*
G37*
X236347000Y-76390500D02*
X234315000Y-76390500D01*
X234315000Y-77533500D01*
X236347000Y-77533500D01*
X236347000Y-76390500D01*
D12*
X380774093Y-55817340D02*
X382298093Y-55817340D01*
X380774093Y-60897340D02*
X380774093Y-55817340D01*
X382298093Y-55817340D02*
X382298093Y-60897340D01*
X382298093Y-60897340D02*
X380774093Y-60897340D01*
X380774093Y-56198340D02*
X382298093Y-56198340D01*
X380774093Y-60897340D02*
X380774093Y-60389340D01*
X382298093Y-56071340D02*
X380774093Y-56071340D01*
X380774093Y-55944340D02*
X382298093Y-55944340D01*
X382298093Y-56325340D02*
X380774093Y-56325340D01*
X380774093Y-56452340D02*
X382298093Y-56452340D01*
X380774093Y-56579340D02*
X382298093Y-56579340D01*
D11*
G36*
X377508000Y-55308500D02*
G01*
X378270000Y-56197500D01*
X378270000Y-55308500D01*
X377508000Y-55308500D01*
G37*
X377508000Y-55308500D02*
X378270000Y-56197500D01*
X378270000Y-55308500D01*
X377508000Y-55308500D01*
G36*
X374460000Y-57340500D02*
G01*
X372428000Y-57340500D01*
X372428000Y-58483500D01*
X374460000Y-58483500D01*
X374460000Y-57340500D01*
G37*
X374460000Y-57340500D02*
X372428000Y-57340500D01*
X372428000Y-58483500D01*
X374460000Y-58483500D01*
X374460000Y-57340500D01*
D12*
X242661093Y-55817340D02*
X244185093Y-55817340D01*
X242661093Y-60897340D02*
X242661093Y-55817340D01*
X244185093Y-55817340D02*
X244185093Y-60897340D01*
X244185093Y-60897340D02*
X242661093Y-60897340D01*
X242661093Y-56198340D02*
X244185093Y-56198340D01*
X242661093Y-60897340D02*
X242661093Y-60389340D01*
X244185093Y-56071340D02*
X242661093Y-56071340D01*
X242661093Y-55944340D02*
X244185093Y-55944340D01*
X244185093Y-56325340D02*
X242661093Y-56325340D01*
X242661093Y-56452340D02*
X244185093Y-56452340D01*
X242661093Y-56579340D02*
X244185093Y-56579340D01*
D11*
G36*
X239395000Y-55308500D02*
G01*
X240157000Y-56197500D01*
X240157000Y-55308500D01*
X239395000Y-55308500D01*
G37*
X239395000Y-55308500D02*
X240157000Y-56197500D01*
X240157000Y-55308500D01*
X239395000Y-55308500D01*
G36*
X236347000Y-57340500D02*
G01*
X234315000Y-57340500D01*
X234315000Y-58483500D01*
X236347000Y-58483500D01*
X236347000Y-57340500D01*
G37*
X236347000Y-57340500D02*
X234315000Y-57340500D01*
X234315000Y-58483500D01*
X236347000Y-58483500D01*
X236347000Y-57340500D01*
D12*
X380774093Y-36767340D02*
X382298093Y-36767340D01*
X380774093Y-41847340D02*
X380774093Y-36767340D01*
X382298093Y-36767340D02*
X382298093Y-41847340D01*
X382298093Y-41847340D02*
X380774093Y-41847340D01*
X380774093Y-37148340D02*
X382298093Y-37148340D01*
X380774093Y-41847340D02*
X380774093Y-41339340D01*
X382298093Y-37021340D02*
X380774093Y-37021340D01*
X380774093Y-36894340D02*
X382298093Y-36894340D01*
X382298093Y-37275340D02*
X380774093Y-37275340D01*
X380774093Y-37402340D02*
X382298093Y-37402340D01*
X380774093Y-37529340D02*
X382298093Y-37529340D01*
D11*
G36*
X377508000Y-36258500D02*
G01*
X378270000Y-37147500D01*
X378270000Y-36258500D01*
X377508000Y-36258500D01*
G37*
X377508000Y-36258500D02*
X378270000Y-37147500D01*
X378270000Y-36258500D01*
X377508000Y-36258500D01*
G36*
X374460000Y-38290500D02*
G01*
X372428000Y-38290500D01*
X372428000Y-39433500D01*
X374460000Y-39433500D01*
X374460000Y-38290500D01*
G37*
X374460000Y-38290500D02*
X372428000Y-38290500D01*
X372428000Y-39433500D01*
X374460000Y-39433500D01*
X374460000Y-38290500D01*
D12*
X242661093Y-36767340D02*
X244185093Y-36767340D01*
X242661093Y-41847340D02*
X242661093Y-36767340D01*
X244185093Y-36767340D02*
X244185093Y-41847340D01*
X244185093Y-41847340D02*
X242661093Y-41847340D01*
X242661093Y-37148340D02*
X244185093Y-37148340D01*
X242661093Y-41847340D02*
X242661093Y-41339340D01*
X244185093Y-37021340D02*
X242661093Y-37021340D01*
X242661093Y-36894340D02*
X244185093Y-36894340D01*
X244185093Y-37275340D02*
X242661093Y-37275340D01*
X242661093Y-37402340D02*
X244185093Y-37402340D01*
X242661093Y-37529340D02*
X244185093Y-37529340D01*
D11*
G36*
X239395000Y-36258500D02*
G01*
X240157000Y-37147500D01*
X240157000Y-36258500D01*
X239395000Y-36258500D01*
G37*
X239395000Y-36258500D02*
X240157000Y-37147500D01*
X240157000Y-36258500D01*
X239395000Y-36258500D01*
G36*
X236347000Y-38290500D02*
G01*
X234315000Y-38290500D01*
X234315000Y-39433500D01*
X236347000Y-39433500D01*
X236347000Y-38290500D01*
G37*
X236347000Y-38290500D02*
X234315000Y-38290500D01*
X234315000Y-39433500D01*
X236347000Y-39433500D01*
X236347000Y-38290500D01*
D12*
X242661093Y-17717340D02*
X244185093Y-17717340D01*
X242661093Y-22797340D02*
X242661093Y-17717340D01*
X244185093Y-17717340D02*
X244185093Y-22797340D01*
X244185093Y-22797340D02*
X242661093Y-22797340D01*
X242661093Y-18098340D02*
X244185093Y-18098340D01*
X242661093Y-22797340D02*
X242661093Y-22289340D01*
X244185093Y-17971340D02*
X242661093Y-17971340D01*
X242661093Y-17844340D02*
X244185093Y-17844340D01*
X244185093Y-18225340D02*
X242661093Y-18225340D01*
X242661093Y-18352340D02*
X244185093Y-18352340D01*
X242661093Y-18479340D02*
X244185093Y-18479340D01*
D11*
G36*
X239395000Y-17208500D02*
G01*
X240157000Y-18097500D01*
X240157000Y-17208500D01*
X239395000Y-17208500D01*
G37*
X239395000Y-17208500D02*
X240157000Y-18097500D01*
X240157000Y-17208500D01*
X239395000Y-17208500D01*
G36*
X236347000Y-19240500D02*
G01*
X234315000Y-19240500D01*
X234315000Y-20383500D01*
X236347000Y-20383500D01*
X236347000Y-19240500D01*
G37*
X236347000Y-19240500D02*
X234315000Y-19240500D01*
X234315000Y-20383500D01*
X236347000Y-20383500D01*
X236347000Y-19240500D01*
D13*
X208749900Y-18415000D02*
X206209900Y-18415000D01*
X223989900Y-15875000D02*
X206209900Y-15875000D01*
X206209900Y-15875000D02*
X206209900Y-48895000D01*
X206209900Y-48895000D02*
X223989900Y-48895000D01*
X223989900Y-48895000D02*
X223989900Y-15875000D01*
D12*
G36*
X220944535Y-24304030D02*
G01*
X220944535Y-24404030D01*
X221444535Y-24404030D01*
X221444535Y-24304030D01*
X220944535Y-24304030D01*
G37*
X220944535Y-24304030D02*
X220944535Y-24404030D01*
X221444535Y-24404030D01*
X221444535Y-24304030D01*
X220944535Y-24304030D01*
G36*
X220944535Y-24304030D02*
G01*
X220944535Y-24604030D01*
X221044535Y-24604030D01*
X221044535Y-24304030D01*
X220944535Y-24304030D01*
G37*
X220944535Y-24304030D02*
X220944535Y-24604030D01*
X221044535Y-24604030D01*
X221044535Y-24304030D01*
X220944535Y-24304030D01*
G36*
X220944535Y-24904030D02*
G01*
X220944535Y-25104030D01*
X221044535Y-25104030D01*
X221044535Y-24904030D01*
X220944535Y-24904030D01*
G37*
X220944535Y-24904030D02*
X220944535Y-25104030D01*
X221044535Y-25104030D01*
X221044535Y-24904030D01*
X220944535Y-24904030D01*
G36*
X221344535Y-24304030D02*
G01*
X221344535Y-25104030D01*
X221444535Y-25104030D01*
X221444535Y-24304030D01*
X221344535Y-24304030D01*
G37*
X221344535Y-24304030D02*
X221344535Y-25104030D01*
X221444535Y-25104030D01*
X221444535Y-24304030D01*
X221344535Y-24304030D01*
G36*
X221144535Y-24704030D02*
G01*
X221144535Y-24804030D01*
X221244535Y-24804030D01*
X221244535Y-24704030D01*
X221144535Y-24704030D01*
G37*
X221144535Y-24704030D02*
X221144535Y-24804030D01*
X221244535Y-24804030D01*
X221244535Y-24704030D01*
X221144535Y-24704030D01*
D13*
X208749900Y-18415000D02*
X208749900Y-20955000D01*
X208749900Y-20955000D02*
X206209900Y-20955000D01*
D10*
X217926100Y-40529000D02*
X212426100Y-40529000D01*
X212426100Y-40529000D02*
X212426100Y-42479000D01*
X212426100Y-42479000D02*
X217926100Y-42479000D01*
X217926100Y-42479000D02*
X217926100Y-40529000D01*
X216576100Y-42729000D02*
X216876100Y-43029000D01*
X216876100Y-43029000D02*
X216276100Y-43029000D01*
X216276100Y-43029000D02*
X216576100Y-42729000D01*
X212976100Y-27915400D02*
X212976100Y-28015400D01*
X217376100Y-29515400D02*
X212976100Y-29515400D01*
X212976100Y-26415400D02*
X217376100Y-26415400D01*
X217376100Y-27915400D02*
X217376100Y-28015400D01*
D11*
G36*
X295878000Y-114490500D02*
G01*
X293846000Y-114490500D01*
X293846000Y-115633500D01*
X295878000Y-115633500D01*
X295878000Y-114490500D01*
G37*
X295878000Y-114490500D02*
X293846000Y-114490500D01*
X293846000Y-115633500D01*
X295878000Y-115633500D01*
X295878000Y-114490500D01*
G36*
X298926000Y-112458500D02*
G01*
X299688000Y-113347500D01*
X299688000Y-112458500D01*
X298926000Y-112458500D01*
G37*
X298926000Y-112458500D02*
X299688000Y-113347500D01*
X299688000Y-112458500D01*
X298926000Y-112458500D01*
D12*
X302192093Y-113729340D02*
X303716093Y-113729340D01*
X302192093Y-113602340D02*
X303716093Y-113602340D01*
X303716093Y-113475340D02*
X302192093Y-113475340D01*
X302192093Y-113094340D02*
X303716093Y-113094340D01*
X303716093Y-113221340D02*
X302192093Y-113221340D01*
X302192093Y-118047340D02*
X302192093Y-117539340D01*
X302192093Y-113348340D02*
X303716093Y-113348340D01*
X303716093Y-118047340D02*
X302192093Y-118047340D01*
X303716093Y-112967340D02*
X303716093Y-118047340D01*
X302192093Y-118047340D02*
X302192093Y-112967340D01*
X302192093Y-112967340D02*
X303716093Y-112967340D01*
D11*
G36*
X272065500Y-114490500D02*
G01*
X270033500Y-114490500D01*
X270033500Y-115633500D01*
X272065500Y-115633500D01*
X272065500Y-114490500D01*
G37*
X272065500Y-114490500D02*
X270033500Y-114490500D01*
X270033500Y-115633500D01*
X272065500Y-115633500D01*
X272065500Y-114490500D01*
G36*
X275113500Y-112458500D02*
G01*
X275875500Y-113347500D01*
X275875500Y-112458500D01*
X275113500Y-112458500D01*
G37*
X275113500Y-112458500D02*
X275875500Y-113347500D01*
X275875500Y-112458500D01*
X275113500Y-112458500D01*
D12*
X278379593Y-113729340D02*
X279903593Y-113729340D01*
X278379593Y-113602340D02*
X279903593Y-113602340D01*
X279903593Y-113475340D02*
X278379593Y-113475340D01*
X278379593Y-113094340D02*
X279903593Y-113094340D01*
X279903593Y-113221340D02*
X278379593Y-113221340D01*
X278379593Y-118047340D02*
X278379593Y-117539340D01*
X278379593Y-113348340D02*
X279903593Y-113348340D01*
X279903593Y-118047340D02*
X278379593Y-118047340D01*
X279903593Y-112967340D02*
X279903593Y-118047340D01*
X278379593Y-118047340D02*
X278379593Y-112967340D01*
X278379593Y-112967340D02*
X279903593Y-112967340D01*
X318861093Y-93917340D02*
X320385093Y-93917340D01*
X318861093Y-98997340D02*
X318861093Y-93917340D01*
X320385093Y-93917340D02*
X320385093Y-98997340D01*
X320385093Y-98997340D02*
X318861093Y-98997340D01*
X318861093Y-94298340D02*
X320385093Y-94298340D01*
X318861093Y-98997340D02*
X318861093Y-98489340D01*
X320385093Y-94171340D02*
X318861093Y-94171340D01*
X318861093Y-94044340D02*
X320385093Y-94044340D01*
X320385093Y-94425340D02*
X318861093Y-94425340D01*
X318861093Y-94552340D02*
X320385093Y-94552340D01*
X318861093Y-94679340D02*
X320385093Y-94679340D01*
D11*
G36*
X315595000Y-93408500D02*
G01*
X316357000Y-94297500D01*
X316357000Y-93408500D01*
X315595000Y-93408500D01*
G37*
X315595000Y-93408500D02*
X316357000Y-94297500D01*
X316357000Y-93408500D01*
X315595000Y-93408500D01*
G36*
X312547000Y-95440500D02*
G01*
X310515000Y-95440500D01*
X310515000Y-96583500D01*
X312547000Y-96583500D01*
X312547000Y-95440500D01*
G37*
X312547000Y-95440500D02*
X310515000Y-95440500D01*
X310515000Y-96583500D01*
X312547000Y-96583500D01*
X312547000Y-95440500D01*
D12*
X299811093Y-93917340D02*
X301335093Y-93917340D01*
X299811093Y-98997340D02*
X299811093Y-93917340D01*
X301335093Y-93917340D02*
X301335093Y-98997340D01*
X301335093Y-98997340D02*
X299811093Y-98997340D01*
X299811093Y-94298340D02*
X301335093Y-94298340D01*
X299811093Y-98997340D02*
X299811093Y-98489340D01*
X301335093Y-94171340D02*
X299811093Y-94171340D01*
X299811093Y-94044340D02*
X301335093Y-94044340D01*
X301335093Y-94425340D02*
X299811093Y-94425340D01*
X299811093Y-94552340D02*
X301335093Y-94552340D01*
X299811093Y-94679340D02*
X301335093Y-94679340D01*
D11*
G36*
X296545000Y-93408500D02*
G01*
X297307000Y-94297500D01*
X297307000Y-93408500D01*
X296545000Y-93408500D01*
G37*
X296545000Y-93408500D02*
X297307000Y-94297500D01*
X297307000Y-93408500D01*
X296545000Y-93408500D01*
G36*
X293497000Y-95440500D02*
G01*
X291465000Y-95440500D01*
X291465000Y-96583500D01*
X293497000Y-96583500D01*
X293497000Y-95440500D01*
G37*
X293497000Y-95440500D02*
X291465000Y-95440500D01*
X291465000Y-96583500D01*
X293497000Y-96583500D01*
X293497000Y-95440500D01*
D12*
X280761093Y-93917340D02*
X282285093Y-93917340D01*
X280761093Y-98997340D02*
X280761093Y-93917340D01*
X282285093Y-93917340D02*
X282285093Y-98997340D01*
X282285093Y-98997340D02*
X280761093Y-98997340D01*
X280761093Y-94298340D02*
X282285093Y-94298340D01*
X280761093Y-98997340D02*
X280761093Y-98489340D01*
X282285093Y-94171340D02*
X280761093Y-94171340D01*
X280761093Y-94044340D02*
X282285093Y-94044340D01*
X282285093Y-94425340D02*
X280761093Y-94425340D01*
X280761093Y-94552340D02*
X282285093Y-94552340D01*
X280761093Y-94679340D02*
X282285093Y-94679340D01*
D11*
G36*
X277495000Y-93408500D02*
G01*
X278257000Y-94297500D01*
X278257000Y-93408500D01*
X277495000Y-93408500D01*
G37*
X277495000Y-93408500D02*
X278257000Y-94297500D01*
X278257000Y-93408500D01*
X277495000Y-93408500D01*
G36*
X274447000Y-95440500D02*
G01*
X272415000Y-95440500D01*
X272415000Y-96583500D01*
X274447000Y-96583500D01*
X274447000Y-95440500D01*
G37*
X274447000Y-95440500D02*
X272415000Y-95440500D01*
X272415000Y-96583500D01*
X274447000Y-96583500D01*
X274447000Y-95440500D01*
D12*
X261711093Y-93917340D02*
X263235093Y-93917340D01*
X261711093Y-98997340D02*
X261711093Y-93917340D01*
X263235093Y-93917340D02*
X263235093Y-98997340D01*
X263235093Y-98997340D02*
X261711093Y-98997340D01*
X261711093Y-94298340D02*
X263235093Y-94298340D01*
X261711093Y-98997340D02*
X261711093Y-98489340D01*
X263235093Y-94171340D02*
X261711093Y-94171340D01*
X261711093Y-94044340D02*
X263235093Y-94044340D01*
X263235093Y-94425340D02*
X261711093Y-94425340D01*
X261711093Y-94552340D02*
X263235093Y-94552340D01*
X261711093Y-94679340D02*
X263235093Y-94679340D01*
D11*
G36*
X258445000Y-93408500D02*
G01*
X259207000Y-94297500D01*
X259207000Y-93408500D01*
X258445000Y-93408500D01*
G37*
X258445000Y-93408500D02*
X259207000Y-94297500D01*
X259207000Y-93408500D01*
X258445000Y-93408500D01*
G36*
X255397000Y-95440500D02*
G01*
X253365000Y-95440500D01*
X253365000Y-96583500D01*
X255397000Y-96583500D01*
X255397000Y-95440500D01*
G37*
X255397000Y-95440500D02*
X253365000Y-95440500D01*
X253365000Y-96583500D01*
X255397000Y-96583500D01*
X255397000Y-95440500D01*
D12*
X337911093Y-74867340D02*
X339435093Y-74867340D01*
X337911093Y-79947340D02*
X337911093Y-74867340D01*
X339435093Y-74867340D02*
X339435093Y-79947340D01*
X339435093Y-79947340D02*
X337911093Y-79947340D01*
X337911093Y-75248340D02*
X339435093Y-75248340D01*
X337911093Y-79947340D02*
X337911093Y-79439340D01*
X339435093Y-75121340D02*
X337911093Y-75121340D01*
X337911093Y-74994340D02*
X339435093Y-74994340D01*
X339435093Y-75375340D02*
X337911093Y-75375340D01*
X337911093Y-75502340D02*
X339435093Y-75502340D01*
X337911093Y-75629340D02*
X339435093Y-75629340D01*
D11*
G36*
X334645000Y-74358500D02*
G01*
X335407000Y-75247500D01*
X335407000Y-74358500D01*
X334645000Y-74358500D01*
G37*
X334645000Y-74358500D02*
X335407000Y-75247500D01*
X335407000Y-74358500D01*
X334645000Y-74358500D01*
G36*
X331597000Y-76390500D02*
G01*
X329565000Y-76390500D01*
X329565000Y-77533500D01*
X331597000Y-77533500D01*
X331597000Y-76390500D01*
G37*
X331597000Y-76390500D02*
X329565000Y-76390500D01*
X329565000Y-77533500D01*
X331597000Y-77533500D01*
X331597000Y-76390500D01*
D12*
X318861093Y-74867340D02*
X320385093Y-74867340D01*
X318861093Y-79947340D02*
X318861093Y-74867340D01*
X320385093Y-74867340D02*
X320385093Y-79947340D01*
X320385093Y-79947340D02*
X318861093Y-79947340D01*
X318861093Y-75248340D02*
X320385093Y-75248340D01*
X318861093Y-79947340D02*
X318861093Y-79439340D01*
X320385093Y-75121340D02*
X318861093Y-75121340D01*
X318861093Y-74994340D02*
X320385093Y-74994340D01*
X320385093Y-75375340D02*
X318861093Y-75375340D01*
X318861093Y-75502340D02*
X320385093Y-75502340D01*
X318861093Y-75629340D02*
X320385093Y-75629340D01*
D11*
G36*
X315595000Y-74358500D02*
G01*
X316357000Y-75247500D01*
X316357000Y-74358500D01*
X315595000Y-74358500D01*
G37*
X315595000Y-74358500D02*
X316357000Y-75247500D01*
X316357000Y-74358500D01*
X315595000Y-74358500D01*
G36*
X312547000Y-76390500D02*
G01*
X310515000Y-76390500D01*
X310515000Y-77533500D01*
X312547000Y-77533500D01*
X312547000Y-76390500D01*
G37*
X312547000Y-76390500D02*
X310515000Y-76390500D01*
X310515000Y-77533500D01*
X312547000Y-77533500D01*
X312547000Y-76390500D01*
D12*
X299811093Y-74867340D02*
X301335093Y-74867340D01*
X299811093Y-79947340D02*
X299811093Y-74867340D01*
X301335093Y-74867340D02*
X301335093Y-79947340D01*
X301335093Y-79947340D02*
X299811093Y-79947340D01*
X299811093Y-75248340D02*
X301335093Y-75248340D01*
X299811093Y-79947340D02*
X299811093Y-79439340D01*
X301335093Y-75121340D02*
X299811093Y-75121340D01*
X299811093Y-74994340D02*
X301335093Y-74994340D01*
X301335093Y-75375340D02*
X299811093Y-75375340D01*
X299811093Y-75502340D02*
X301335093Y-75502340D01*
X299811093Y-75629340D02*
X301335093Y-75629340D01*
D11*
G36*
X296545000Y-74358500D02*
G01*
X297307000Y-75247500D01*
X297307000Y-74358500D01*
X296545000Y-74358500D01*
G37*
X296545000Y-74358500D02*
X297307000Y-75247500D01*
X297307000Y-74358500D01*
X296545000Y-74358500D01*
G36*
X293497000Y-76390500D02*
G01*
X291465000Y-76390500D01*
X291465000Y-77533500D01*
X293497000Y-77533500D01*
X293497000Y-76390500D01*
G37*
X293497000Y-76390500D02*
X291465000Y-76390500D01*
X291465000Y-77533500D01*
X293497000Y-77533500D01*
X293497000Y-76390500D01*
D12*
X280761093Y-74867340D02*
X282285093Y-74867340D01*
X280761093Y-79947340D02*
X280761093Y-74867340D01*
X282285093Y-74867340D02*
X282285093Y-79947340D01*
X282285093Y-79947340D02*
X280761093Y-79947340D01*
X280761093Y-75248340D02*
X282285093Y-75248340D01*
X280761093Y-79947340D02*
X280761093Y-79439340D01*
X282285093Y-75121340D02*
X280761093Y-75121340D01*
X280761093Y-74994340D02*
X282285093Y-74994340D01*
X282285093Y-75375340D02*
X280761093Y-75375340D01*
X280761093Y-75502340D02*
X282285093Y-75502340D01*
X280761093Y-75629340D02*
X282285093Y-75629340D01*
D11*
G36*
X277495000Y-74358500D02*
G01*
X278257000Y-75247500D01*
X278257000Y-74358500D01*
X277495000Y-74358500D01*
G37*
X277495000Y-74358500D02*
X278257000Y-75247500D01*
X278257000Y-74358500D01*
X277495000Y-74358500D01*
G36*
X274447000Y-76390500D02*
G01*
X272415000Y-76390500D01*
X272415000Y-77533500D01*
X274447000Y-77533500D01*
X274447000Y-76390500D01*
G37*
X274447000Y-76390500D02*
X272415000Y-76390500D01*
X272415000Y-77533500D01*
X274447000Y-77533500D01*
X274447000Y-76390500D01*
D12*
X261711093Y-74867340D02*
X263235093Y-74867340D01*
X261711093Y-79947340D02*
X261711093Y-74867340D01*
X263235093Y-74867340D02*
X263235093Y-79947340D01*
X263235093Y-79947340D02*
X261711093Y-79947340D01*
X261711093Y-75248340D02*
X263235093Y-75248340D01*
X261711093Y-79947340D02*
X261711093Y-79439340D01*
X263235093Y-75121340D02*
X261711093Y-75121340D01*
X261711093Y-74994340D02*
X263235093Y-74994340D01*
X263235093Y-75375340D02*
X261711093Y-75375340D01*
X261711093Y-75502340D02*
X263235093Y-75502340D01*
X261711093Y-75629340D02*
X263235093Y-75629340D01*
D11*
G36*
X258445000Y-74358500D02*
G01*
X259207000Y-75247500D01*
X259207000Y-74358500D01*
X258445000Y-74358500D01*
G37*
X258445000Y-74358500D02*
X259207000Y-75247500D01*
X259207000Y-74358500D01*
X258445000Y-74358500D01*
G36*
X255397000Y-76390500D02*
G01*
X253365000Y-76390500D01*
X253365000Y-77533500D01*
X255397000Y-77533500D01*
X255397000Y-76390500D01*
G37*
X255397000Y-76390500D02*
X253365000Y-76390500D01*
X253365000Y-77533500D01*
X255397000Y-77533500D01*
X255397000Y-76390500D01*
D12*
X356961093Y-55817340D02*
X358485093Y-55817340D01*
X356961093Y-60897340D02*
X356961093Y-55817340D01*
X358485093Y-55817340D02*
X358485093Y-60897340D01*
X358485093Y-60897340D02*
X356961093Y-60897340D01*
X356961093Y-56198340D02*
X358485093Y-56198340D01*
X356961093Y-60897340D02*
X356961093Y-60389340D01*
X358485093Y-56071340D02*
X356961093Y-56071340D01*
X356961093Y-55944340D02*
X358485093Y-55944340D01*
X358485093Y-56325340D02*
X356961093Y-56325340D01*
X356961093Y-56452340D02*
X358485093Y-56452340D01*
X356961093Y-56579340D02*
X358485093Y-56579340D01*
D11*
G36*
X353695000Y-55308500D02*
G01*
X354457000Y-56197500D01*
X354457000Y-55308500D01*
X353695000Y-55308500D01*
G37*
X353695000Y-55308500D02*
X354457000Y-56197500D01*
X354457000Y-55308500D01*
X353695000Y-55308500D01*
G36*
X350647000Y-57340500D02*
G01*
X348615000Y-57340500D01*
X348615000Y-58483500D01*
X350647000Y-58483500D01*
X350647000Y-57340500D01*
G37*
X350647000Y-57340500D02*
X348615000Y-57340500D01*
X348615000Y-58483500D01*
X350647000Y-58483500D01*
X350647000Y-57340500D01*
D12*
X337911093Y-55817340D02*
X339435093Y-55817340D01*
X337911093Y-60897340D02*
X337911093Y-55817340D01*
X339435093Y-55817340D02*
X339435093Y-60897340D01*
X339435093Y-60897340D02*
X337911093Y-60897340D01*
X337911093Y-56198340D02*
X339435093Y-56198340D01*
X337911093Y-60897340D02*
X337911093Y-60389340D01*
X339435093Y-56071340D02*
X337911093Y-56071340D01*
X337911093Y-55944340D02*
X339435093Y-55944340D01*
X339435093Y-56325340D02*
X337911093Y-56325340D01*
X337911093Y-56452340D02*
X339435093Y-56452340D01*
X337911093Y-56579340D02*
X339435093Y-56579340D01*
D11*
G36*
X334645000Y-55308500D02*
G01*
X335407000Y-56197500D01*
X335407000Y-55308500D01*
X334645000Y-55308500D01*
G37*
X334645000Y-55308500D02*
X335407000Y-56197500D01*
X335407000Y-55308500D01*
X334645000Y-55308500D01*
G36*
X331597000Y-57340500D02*
G01*
X329565000Y-57340500D01*
X329565000Y-58483500D01*
X331597000Y-58483500D01*
X331597000Y-57340500D01*
G37*
X331597000Y-57340500D02*
X329565000Y-57340500D01*
X329565000Y-58483500D01*
X331597000Y-58483500D01*
X331597000Y-57340500D01*
D12*
X318861093Y-55817340D02*
X320385093Y-55817340D01*
X318861093Y-60897340D02*
X318861093Y-55817340D01*
X320385093Y-55817340D02*
X320385093Y-60897340D01*
X320385093Y-60897340D02*
X318861093Y-60897340D01*
X318861093Y-56198340D02*
X320385093Y-56198340D01*
X318861093Y-60897340D02*
X318861093Y-60389340D01*
X320385093Y-56071340D02*
X318861093Y-56071340D01*
X318861093Y-55944340D02*
X320385093Y-55944340D01*
X320385093Y-56325340D02*
X318861093Y-56325340D01*
X318861093Y-56452340D02*
X320385093Y-56452340D01*
X318861093Y-56579340D02*
X320385093Y-56579340D01*
D11*
G36*
X315595000Y-55308500D02*
G01*
X316357000Y-56197500D01*
X316357000Y-55308500D01*
X315595000Y-55308500D01*
G37*
X315595000Y-55308500D02*
X316357000Y-56197500D01*
X316357000Y-55308500D01*
X315595000Y-55308500D01*
G36*
X312547000Y-57340500D02*
G01*
X310515000Y-57340500D01*
X310515000Y-58483500D01*
X312547000Y-58483500D01*
X312547000Y-57340500D01*
G37*
X312547000Y-57340500D02*
X310515000Y-57340500D01*
X310515000Y-58483500D01*
X312547000Y-58483500D01*
X312547000Y-57340500D01*
D12*
X299811093Y-55817340D02*
X301335093Y-55817340D01*
X299811093Y-60897340D02*
X299811093Y-55817340D01*
X301335093Y-55817340D02*
X301335093Y-60897340D01*
X301335093Y-60897340D02*
X299811093Y-60897340D01*
X299811093Y-56198340D02*
X301335093Y-56198340D01*
X299811093Y-60897340D02*
X299811093Y-60389340D01*
X301335093Y-56071340D02*
X299811093Y-56071340D01*
X299811093Y-55944340D02*
X301335093Y-55944340D01*
X301335093Y-56325340D02*
X299811093Y-56325340D01*
X299811093Y-56452340D02*
X301335093Y-56452340D01*
X299811093Y-56579340D02*
X301335093Y-56579340D01*
D11*
G36*
X296545000Y-55308500D02*
G01*
X297307000Y-56197500D01*
X297307000Y-55308500D01*
X296545000Y-55308500D01*
G37*
X296545000Y-55308500D02*
X297307000Y-56197500D01*
X297307000Y-55308500D01*
X296545000Y-55308500D01*
G36*
X293497000Y-57340500D02*
G01*
X291465000Y-57340500D01*
X291465000Y-58483500D01*
X293497000Y-58483500D01*
X293497000Y-57340500D01*
G37*
X293497000Y-57340500D02*
X291465000Y-57340500D01*
X291465000Y-58483500D01*
X293497000Y-58483500D01*
X293497000Y-57340500D01*
D12*
X280761093Y-55817340D02*
X282285093Y-55817340D01*
X280761093Y-60897340D02*
X280761093Y-55817340D01*
X282285093Y-55817340D02*
X282285093Y-60897340D01*
X282285093Y-60897340D02*
X280761093Y-60897340D01*
X280761093Y-56198340D02*
X282285093Y-56198340D01*
X280761093Y-60897340D02*
X280761093Y-60389340D01*
X282285093Y-56071340D02*
X280761093Y-56071340D01*
X280761093Y-55944340D02*
X282285093Y-55944340D01*
X282285093Y-56325340D02*
X280761093Y-56325340D01*
X280761093Y-56452340D02*
X282285093Y-56452340D01*
X280761093Y-56579340D02*
X282285093Y-56579340D01*
D11*
G36*
X277495000Y-55308500D02*
G01*
X278257000Y-56197500D01*
X278257000Y-55308500D01*
X277495000Y-55308500D01*
G37*
X277495000Y-55308500D02*
X278257000Y-56197500D01*
X278257000Y-55308500D01*
X277495000Y-55308500D01*
G36*
X274447000Y-57340500D02*
G01*
X272415000Y-57340500D01*
X272415000Y-58483500D01*
X274447000Y-58483500D01*
X274447000Y-57340500D01*
G37*
X274447000Y-57340500D02*
X272415000Y-57340500D01*
X272415000Y-58483500D01*
X274447000Y-58483500D01*
X274447000Y-57340500D01*
D12*
X261711093Y-55817340D02*
X263235093Y-55817340D01*
X261711093Y-60897340D02*
X261711093Y-55817340D01*
X263235093Y-55817340D02*
X263235093Y-60897340D01*
X263235093Y-60897340D02*
X261711093Y-60897340D01*
X261711093Y-56198340D02*
X263235093Y-56198340D01*
X261711093Y-60897340D02*
X261711093Y-60389340D01*
X263235093Y-56071340D02*
X261711093Y-56071340D01*
X261711093Y-55944340D02*
X263235093Y-55944340D01*
X263235093Y-56325340D02*
X261711093Y-56325340D01*
X261711093Y-56452340D02*
X263235093Y-56452340D01*
X261711093Y-56579340D02*
X263235093Y-56579340D01*
D11*
G36*
X258445000Y-55308500D02*
G01*
X259207000Y-56197500D01*
X259207000Y-55308500D01*
X258445000Y-55308500D01*
G37*
X258445000Y-55308500D02*
X259207000Y-56197500D01*
X259207000Y-55308500D01*
X258445000Y-55308500D01*
G36*
X255397000Y-57340500D02*
G01*
X253365000Y-57340500D01*
X253365000Y-58483500D01*
X255397000Y-58483500D01*
X255397000Y-57340500D01*
G37*
X255397000Y-57340500D02*
X253365000Y-57340500D01*
X253365000Y-58483500D01*
X255397000Y-58483500D01*
X255397000Y-57340500D01*
D12*
X356961093Y-36767340D02*
X358485093Y-36767340D01*
X356961093Y-41847340D02*
X356961093Y-36767340D01*
X358485093Y-36767340D02*
X358485093Y-41847340D01*
X358485093Y-41847340D02*
X356961093Y-41847340D01*
X356961093Y-37148340D02*
X358485093Y-37148340D01*
X356961093Y-41847340D02*
X356961093Y-41339340D01*
X358485093Y-37021340D02*
X356961093Y-37021340D01*
X356961093Y-36894340D02*
X358485093Y-36894340D01*
X358485093Y-37275340D02*
X356961093Y-37275340D01*
X356961093Y-37402340D02*
X358485093Y-37402340D01*
X356961093Y-37529340D02*
X358485093Y-37529340D01*
D11*
G36*
X353695000Y-36258500D02*
G01*
X354457000Y-37147500D01*
X354457000Y-36258500D01*
X353695000Y-36258500D01*
G37*
X353695000Y-36258500D02*
X354457000Y-37147500D01*
X354457000Y-36258500D01*
X353695000Y-36258500D01*
G36*
X350647000Y-38290500D02*
G01*
X348615000Y-38290500D01*
X348615000Y-39433500D01*
X350647000Y-39433500D01*
X350647000Y-38290500D01*
G37*
X350647000Y-38290500D02*
X348615000Y-38290500D01*
X348615000Y-39433500D01*
X350647000Y-39433500D01*
X350647000Y-38290500D01*
D12*
X337911093Y-36767340D02*
X339435093Y-36767340D01*
X337911093Y-41847340D02*
X337911093Y-36767340D01*
X339435093Y-36767340D02*
X339435093Y-41847340D01*
X339435093Y-41847340D02*
X337911093Y-41847340D01*
X337911093Y-37148340D02*
X339435093Y-37148340D01*
X337911093Y-41847340D02*
X337911093Y-41339340D01*
X339435093Y-37021340D02*
X337911093Y-37021340D01*
X337911093Y-36894340D02*
X339435093Y-36894340D01*
X339435093Y-37275340D02*
X337911093Y-37275340D01*
X337911093Y-37402340D02*
X339435093Y-37402340D01*
X337911093Y-37529340D02*
X339435093Y-37529340D01*
D11*
G36*
X334645000Y-36258500D02*
G01*
X335407000Y-37147500D01*
X335407000Y-36258500D01*
X334645000Y-36258500D01*
G37*
X334645000Y-36258500D02*
X335407000Y-37147500D01*
X335407000Y-36258500D01*
X334645000Y-36258500D01*
G36*
X331597000Y-38290500D02*
G01*
X329565000Y-38290500D01*
X329565000Y-39433500D01*
X331597000Y-39433500D01*
X331597000Y-38290500D01*
G37*
X331597000Y-38290500D02*
X329565000Y-38290500D01*
X329565000Y-39433500D01*
X331597000Y-39433500D01*
X331597000Y-38290500D01*
D12*
X318861093Y-36767340D02*
X320385093Y-36767340D01*
X318861093Y-41847340D02*
X318861093Y-36767340D01*
X320385093Y-36767340D02*
X320385093Y-41847340D01*
X320385093Y-41847340D02*
X318861093Y-41847340D01*
X318861093Y-37148340D02*
X320385093Y-37148340D01*
X318861093Y-41847340D02*
X318861093Y-41339340D01*
X320385093Y-37021340D02*
X318861093Y-37021340D01*
X318861093Y-36894340D02*
X320385093Y-36894340D01*
X320385093Y-37275340D02*
X318861093Y-37275340D01*
X318861093Y-37402340D02*
X320385093Y-37402340D01*
X318861093Y-37529340D02*
X320385093Y-37529340D01*
D11*
G36*
X315595000Y-36258500D02*
G01*
X316357000Y-37147500D01*
X316357000Y-36258500D01*
X315595000Y-36258500D01*
G37*
X315595000Y-36258500D02*
X316357000Y-37147500D01*
X316357000Y-36258500D01*
X315595000Y-36258500D01*
G36*
X312547000Y-38290500D02*
G01*
X310515000Y-38290500D01*
X310515000Y-39433500D01*
X312547000Y-39433500D01*
X312547000Y-38290500D01*
G37*
X312547000Y-38290500D02*
X310515000Y-38290500D01*
X310515000Y-39433500D01*
X312547000Y-39433500D01*
X312547000Y-38290500D01*
D12*
X299811093Y-36767340D02*
X301335093Y-36767340D01*
X299811093Y-41847340D02*
X299811093Y-36767340D01*
X301335093Y-36767340D02*
X301335093Y-41847340D01*
X301335093Y-41847340D02*
X299811093Y-41847340D01*
X299811093Y-37148340D02*
X301335093Y-37148340D01*
X299811093Y-41847340D02*
X299811093Y-41339340D01*
X301335093Y-37021340D02*
X299811093Y-37021340D01*
X299811093Y-36894340D02*
X301335093Y-36894340D01*
X301335093Y-37275340D02*
X299811093Y-37275340D01*
X299811093Y-37402340D02*
X301335093Y-37402340D01*
X299811093Y-37529340D02*
X301335093Y-37529340D01*
D11*
G36*
X296545000Y-36258500D02*
G01*
X297307000Y-37147500D01*
X297307000Y-36258500D01*
X296545000Y-36258500D01*
G37*
X296545000Y-36258500D02*
X297307000Y-37147500D01*
X297307000Y-36258500D01*
X296545000Y-36258500D01*
G36*
X293497000Y-38290500D02*
G01*
X291465000Y-38290500D01*
X291465000Y-39433500D01*
X293497000Y-39433500D01*
X293497000Y-38290500D01*
G37*
X293497000Y-38290500D02*
X291465000Y-38290500D01*
X291465000Y-39433500D01*
X293497000Y-39433500D01*
X293497000Y-38290500D01*
D12*
X280761093Y-36767340D02*
X282285093Y-36767340D01*
X280761093Y-41847340D02*
X280761093Y-36767340D01*
X282285093Y-36767340D02*
X282285093Y-41847340D01*
X282285093Y-41847340D02*
X280761093Y-41847340D01*
X280761093Y-37148340D02*
X282285093Y-37148340D01*
X280761093Y-41847340D02*
X280761093Y-41339340D01*
X282285093Y-37021340D02*
X280761093Y-37021340D01*
X280761093Y-36894340D02*
X282285093Y-36894340D01*
X282285093Y-37275340D02*
X280761093Y-37275340D01*
X280761093Y-37402340D02*
X282285093Y-37402340D01*
X280761093Y-37529340D02*
X282285093Y-37529340D01*
D11*
G36*
X277495000Y-36258500D02*
G01*
X278257000Y-37147500D01*
X278257000Y-36258500D01*
X277495000Y-36258500D01*
G37*
X277495000Y-36258500D02*
X278257000Y-37147500D01*
X278257000Y-36258500D01*
X277495000Y-36258500D01*
G36*
X274447000Y-38290500D02*
G01*
X272415000Y-38290500D01*
X272415000Y-39433500D01*
X274447000Y-39433500D01*
X274447000Y-38290500D01*
G37*
X274447000Y-38290500D02*
X272415000Y-38290500D01*
X272415000Y-39433500D01*
X274447000Y-39433500D01*
X274447000Y-38290500D01*
D12*
X261711093Y-36767340D02*
X263235093Y-36767340D01*
X261711093Y-41847340D02*
X261711093Y-36767340D01*
X263235093Y-36767340D02*
X263235093Y-41847340D01*
X263235093Y-41847340D02*
X261711093Y-41847340D01*
X261711093Y-37148340D02*
X263235093Y-37148340D01*
X261711093Y-41847340D02*
X261711093Y-41339340D01*
X263235093Y-37021340D02*
X261711093Y-37021340D01*
X261711093Y-36894340D02*
X263235093Y-36894340D01*
X263235093Y-37275340D02*
X261711093Y-37275340D01*
X261711093Y-37402340D02*
X263235093Y-37402340D01*
X261711093Y-37529340D02*
X263235093Y-37529340D01*
D11*
G36*
X258445000Y-36258500D02*
G01*
X259207000Y-37147500D01*
X259207000Y-36258500D01*
X258445000Y-36258500D01*
G37*
X258445000Y-36258500D02*
X259207000Y-37147500D01*
X259207000Y-36258500D01*
X258445000Y-36258500D01*
G36*
X255397000Y-38290500D02*
G01*
X253365000Y-38290500D01*
X253365000Y-39433500D01*
X255397000Y-39433500D01*
X255397000Y-38290500D01*
G37*
X255397000Y-38290500D02*
X253365000Y-38290500D01*
X253365000Y-39433500D01*
X255397000Y-39433500D01*
X255397000Y-38290500D01*
D12*
X337911093Y-17717340D02*
X339435093Y-17717340D01*
X337911093Y-22797340D02*
X337911093Y-17717340D01*
X339435093Y-17717340D02*
X339435093Y-22797340D01*
X339435093Y-22797340D02*
X337911093Y-22797340D01*
X337911093Y-18098340D02*
X339435093Y-18098340D01*
X337911093Y-22797340D02*
X337911093Y-22289340D01*
X339435093Y-17971340D02*
X337911093Y-17971340D01*
X337911093Y-17844340D02*
X339435093Y-17844340D01*
X339435093Y-18225340D02*
X337911093Y-18225340D01*
X337911093Y-18352340D02*
X339435093Y-18352340D01*
X337911093Y-18479340D02*
X339435093Y-18479340D01*
D11*
G36*
X334645000Y-17208500D02*
G01*
X335407000Y-18097500D01*
X335407000Y-17208500D01*
X334645000Y-17208500D01*
G37*
X334645000Y-17208500D02*
X335407000Y-18097500D01*
X335407000Y-17208500D01*
X334645000Y-17208500D01*
G36*
X331597000Y-19240500D02*
G01*
X329565000Y-19240500D01*
X329565000Y-20383500D01*
X331597000Y-20383500D01*
X331597000Y-19240500D01*
G37*
X331597000Y-19240500D02*
X329565000Y-19240500D01*
X329565000Y-20383500D01*
X331597000Y-20383500D01*
X331597000Y-19240500D01*
D12*
X318861093Y-17717340D02*
X320385093Y-17717340D01*
X318861093Y-22797340D02*
X318861093Y-17717340D01*
X320385093Y-17717340D02*
X320385093Y-22797340D01*
X320385093Y-22797340D02*
X318861093Y-22797340D01*
X318861093Y-18098340D02*
X320385093Y-18098340D01*
X318861093Y-22797340D02*
X318861093Y-22289340D01*
X320385093Y-17971340D02*
X318861093Y-17971340D01*
X318861093Y-17844340D02*
X320385093Y-17844340D01*
X320385093Y-18225340D02*
X318861093Y-18225340D01*
X318861093Y-18352340D02*
X320385093Y-18352340D01*
X318861093Y-18479340D02*
X320385093Y-18479340D01*
D11*
G36*
X315595000Y-17208500D02*
G01*
X316357000Y-18097500D01*
X316357000Y-17208500D01*
X315595000Y-17208500D01*
G37*
X315595000Y-17208500D02*
X316357000Y-18097500D01*
X316357000Y-17208500D01*
X315595000Y-17208500D01*
G36*
X312547000Y-19240500D02*
G01*
X310515000Y-19240500D01*
X310515000Y-20383500D01*
X312547000Y-20383500D01*
X312547000Y-19240500D01*
G37*
X312547000Y-19240500D02*
X310515000Y-19240500D01*
X310515000Y-20383500D01*
X312547000Y-20383500D01*
X312547000Y-19240500D01*
D12*
X299811093Y-17717340D02*
X301335093Y-17717340D01*
X299811093Y-22797340D02*
X299811093Y-17717340D01*
X301335093Y-17717340D02*
X301335093Y-22797340D01*
X301335093Y-22797340D02*
X299811093Y-22797340D01*
X299811093Y-18098340D02*
X301335093Y-18098340D01*
X299811093Y-22797340D02*
X299811093Y-22289340D01*
X301335093Y-17971340D02*
X299811093Y-17971340D01*
X299811093Y-17844340D02*
X301335093Y-17844340D01*
X301335093Y-18225340D02*
X299811093Y-18225340D01*
X299811093Y-18352340D02*
X301335093Y-18352340D01*
X299811093Y-18479340D02*
X301335093Y-18479340D01*
D11*
G36*
X296545000Y-17208500D02*
G01*
X297307000Y-18097500D01*
X297307000Y-17208500D01*
X296545000Y-17208500D01*
G37*
X296545000Y-17208500D02*
X297307000Y-18097500D01*
X297307000Y-17208500D01*
X296545000Y-17208500D01*
G36*
X293497000Y-19240500D02*
G01*
X291465000Y-19240500D01*
X291465000Y-20383500D01*
X293497000Y-20383500D01*
X293497000Y-19240500D01*
G37*
X293497000Y-19240500D02*
X291465000Y-19240500D01*
X291465000Y-20383500D01*
X293497000Y-20383500D01*
X293497000Y-19240500D01*
D12*
X280761093Y-17717340D02*
X282285093Y-17717340D01*
X280761093Y-22797340D02*
X280761093Y-17717340D01*
X282285093Y-17717340D02*
X282285093Y-22797340D01*
X282285093Y-22797340D02*
X280761093Y-22797340D01*
X280761093Y-18098340D02*
X282285093Y-18098340D01*
X280761093Y-22797340D02*
X280761093Y-22289340D01*
X282285093Y-17971340D02*
X280761093Y-17971340D01*
X280761093Y-17844340D02*
X282285093Y-17844340D01*
X282285093Y-18225340D02*
X280761093Y-18225340D01*
X280761093Y-18352340D02*
X282285093Y-18352340D01*
X280761093Y-18479340D02*
X282285093Y-18479340D01*
D11*
G36*
X277495000Y-17208500D02*
G01*
X278257000Y-18097500D01*
X278257000Y-17208500D01*
X277495000Y-17208500D01*
G37*
X277495000Y-17208500D02*
X278257000Y-18097500D01*
X278257000Y-17208500D01*
X277495000Y-17208500D01*
G36*
X274447000Y-19240500D02*
G01*
X272415000Y-19240500D01*
X272415000Y-20383500D01*
X274447000Y-20383500D01*
X274447000Y-19240500D01*
G37*
X274447000Y-19240500D02*
X272415000Y-19240500D01*
X272415000Y-20383500D01*
X274447000Y-20383500D01*
X274447000Y-19240500D01*
D12*
X261711093Y-17717340D02*
X263235093Y-17717340D01*
X261711093Y-22797340D02*
X261711093Y-17717340D01*
X263235093Y-17717340D02*
X263235093Y-22797340D01*
X263235093Y-22797340D02*
X261711093Y-22797340D01*
X261711093Y-18098340D02*
X263235093Y-18098340D01*
X261711093Y-22797340D02*
X261711093Y-22289340D01*
X263235093Y-17971340D02*
X261711093Y-17971340D01*
X261711093Y-17844340D02*
X263235093Y-17844340D01*
X263235093Y-18225340D02*
X261711093Y-18225340D01*
X261711093Y-18352340D02*
X263235093Y-18352340D01*
X261711093Y-18479340D02*
X263235093Y-18479340D01*
D11*
G36*
X258445000Y-17208500D02*
G01*
X259207000Y-18097500D01*
X259207000Y-17208500D01*
X258445000Y-17208500D01*
G37*
X258445000Y-17208500D02*
X259207000Y-18097500D01*
X259207000Y-17208500D01*
X258445000Y-17208500D01*
G36*
X255397000Y-19240500D02*
G01*
X253365000Y-19240500D01*
X253365000Y-20383500D01*
X255397000Y-20383500D01*
X255397000Y-19240500D01*
G37*
X255397000Y-19240500D02*
X253365000Y-19240500D01*
X253365000Y-20383500D01*
X255397000Y-20383500D01*
X255397000Y-19240500D01*
D12*
X210429480Y-81915095D02*
X211239004Y-81915095D01*
X211334242Y-81962714D01*
X211381861Y-82010333D01*
X211429480Y-82105571D01*
X211429480Y-82296047D01*
X211381861Y-82391285D01*
X211334242Y-82438904D01*
X211239004Y-82486523D01*
X210429480Y-82486523D01*
X210524719Y-82915095D02*
X210477100Y-82962714D01*
X210429480Y-83057952D01*
X210429480Y-83296047D01*
X210477100Y-83391285D01*
X210524719Y-83438904D01*
X210619957Y-83486523D01*
X210715195Y-83486523D01*
X210858052Y-83438904D01*
X211429480Y-82867476D01*
X211429480Y-83486523D01*
X212639114Y-87719180D02*
X212972447Y-87242990D01*
X213210542Y-87719180D02*
X213210542Y-86719180D01*
X212829590Y-86719180D01*
X212734352Y-86766800D01*
X212686733Y-86814419D01*
X212639114Y-86909657D01*
X212639114Y-87052514D01*
X212686733Y-87147752D01*
X212734352Y-87195371D01*
X212829590Y-87242990D01*
X213210542Y-87242990D01*
X211829590Y-87671561D02*
X211924828Y-87719180D01*
X212115304Y-87719180D01*
X212210542Y-87671561D01*
X212258161Y-87576323D01*
X212258161Y-87195371D01*
X212210542Y-87100133D01*
X212115304Y-87052514D01*
X211924828Y-87052514D01*
X211829590Y-87100133D01*
X211781971Y-87195371D01*
X211781971Y-87290609D01*
X212258161Y-87385847D01*
X211448638Y-87719180D02*
X210924828Y-87052514D01*
X211448638Y-87052514D02*
X210924828Y-87719180D01*
X210686733Y-87052514D02*
X210305780Y-87052514D01*
X210543876Y-86719180D02*
X210543876Y-87576323D01*
X210496257Y-87671561D01*
X210401019Y-87719180D01*
X210305780Y-87719180D01*
X209448638Y-87719180D02*
X210020066Y-87719180D01*
X209734352Y-87719180D02*
X209734352Y-86719180D01*
X209829590Y-86862038D01*
X209924828Y-86957276D01*
X210020066Y-87004895D01*
X209869066Y-78702180D02*
X210202400Y-78225990D01*
X210440495Y-78702180D02*
X210440495Y-77702180D01*
X210059542Y-77702180D01*
X209964304Y-77749800D01*
X209916685Y-77797419D01*
X209869066Y-77892657D01*
X209869066Y-78035514D01*
X209916685Y-78130752D01*
X209964304Y-78178371D01*
X210059542Y-78225990D01*
X210440495Y-78225990D01*
X209011923Y-78035514D02*
X209011923Y-78702180D01*
X209250019Y-77654561D02*
X209488114Y-78368847D01*
X208869066Y-78368847D01*
X210248423Y-24365000D02*
X210324614Y-24326904D01*
X210438900Y-24326904D01*
X210553185Y-24365000D01*
X210629376Y-24441190D01*
X210667471Y-24517380D01*
X210705566Y-24669761D01*
X210705566Y-24784047D01*
X210667471Y-24936428D01*
X210629376Y-25012619D01*
X210553185Y-25088809D01*
X210438900Y-25126904D01*
X210362709Y-25126904D01*
X210248423Y-25088809D01*
X210210328Y-25050714D01*
X210210328Y-24784047D01*
X210362709Y-24784047D01*
X209867471Y-25126904D02*
X209867471Y-24326904D01*
X209410328Y-25126904D01*
X209410328Y-24326904D01*
X209029376Y-25126904D02*
X209029376Y-24326904D01*
X208838900Y-24326904D01*
X208724614Y-24365000D01*
X208648423Y-24441190D01*
X208610328Y-24517380D01*
X208572233Y-24669761D01*
X208572233Y-24784047D01*
X208610328Y-24936428D01*
X208648423Y-25012619D01*
X208724614Y-25088809D01*
X208838900Y-25126904D01*
X209029376Y-25126904D01*
X220884709Y-45027857D02*
X220770423Y-45065952D01*
X220732328Y-45104047D01*
X220694233Y-45180238D01*
X220694233Y-45294523D01*
X220732328Y-45370714D01*
X220770423Y-45408809D01*
X220846614Y-45446904D01*
X221151376Y-45446904D01*
X221151376Y-44646904D01*
X220884709Y-44646904D01*
X220808519Y-44685000D01*
X220770423Y-44723095D01*
X220732328Y-44799285D01*
X220732328Y-44875476D01*
X220770423Y-44951666D01*
X220808519Y-44989761D01*
X220884709Y-45027857D01*
X221151376Y-45027857D01*
X220389471Y-44723095D02*
X220351376Y-44685000D01*
X220275185Y-44646904D01*
X220084709Y-44646904D01*
X220008519Y-44685000D01*
X219970423Y-44723095D01*
X219932328Y-44799285D01*
X219932328Y-44875476D01*
X219970423Y-44989761D01*
X220427566Y-45446904D01*
X219932328Y-45446904D01*
X220827566Y-37407857D02*
X221094233Y-37407857D01*
X221094233Y-37826904D02*
X221094233Y-37026904D01*
X220713280Y-37026904D01*
X220484709Y-37026904D02*
X219951376Y-37026904D01*
X220294233Y-37826904D01*
X220827566Y-34867857D02*
X221094233Y-34867857D01*
X221094233Y-35286904D02*
X221094233Y-34486904D01*
X220713280Y-34486904D01*
X220065661Y-34486904D02*
X220218042Y-34486904D01*
X220294233Y-34525000D01*
X220332328Y-34563095D01*
X220408519Y-34677380D01*
X220446614Y-34829761D01*
X220446614Y-35134523D01*
X220408519Y-35210714D01*
X220370423Y-35248809D01*
X220294233Y-35286904D01*
X220141852Y-35286904D01*
X220065661Y-35248809D01*
X220027566Y-35210714D01*
X219989471Y-35134523D01*
X219989471Y-34944047D01*
X220027566Y-34867857D01*
X220065661Y-34829761D01*
X220141852Y-34791666D01*
X220294233Y-34791666D01*
X220370423Y-34829761D01*
X220408519Y-34867857D01*
X220446614Y-34944047D01*
X220827566Y-32327857D02*
X221094233Y-32327857D01*
X221094233Y-32746904D02*
X221094233Y-31946904D01*
X220713280Y-31946904D01*
X220027566Y-31946904D02*
X220408519Y-31946904D01*
X220446614Y-32327857D01*
X220408519Y-32289761D01*
X220332328Y-32251666D01*
X220141852Y-32251666D01*
X220065661Y-32289761D01*
X220027566Y-32327857D01*
X219989471Y-32404047D01*
X219989471Y-32594523D01*
X220027566Y-32670714D01*
X220065661Y-32708809D01*
X220141852Y-32746904D01*
X220332328Y-32746904D01*
X220408519Y-32708809D01*
X220446614Y-32670714D01*
X221170423Y-21825000D02*
X221246614Y-21786904D01*
X221360900Y-21786904D01*
X221475185Y-21825000D01*
X221551376Y-21901190D01*
X221589471Y-21977380D01*
X221627566Y-22129761D01*
X221627566Y-22244047D01*
X221589471Y-22396428D01*
X221551376Y-22472619D01*
X221475185Y-22548809D01*
X221360900Y-22586904D01*
X221284709Y-22586904D01*
X221170423Y-22548809D01*
X221132328Y-22510714D01*
X221132328Y-22244047D01*
X221284709Y-22244047D01*
X220789471Y-22586904D02*
X220789471Y-21786904D01*
X220332328Y-22586904D01*
X220332328Y-21786904D01*
X219951376Y-22586904D02*
X219951376Y-21786904D01*
X219760900Y-21786904D01*
X219646614Y-21825000D01*
X219570423Y-21901190D01*
X219532328Y-21977380D01*
X219494233Y-22129761D01*
X219494233Y-22244047D01*
X219532328Y-22396428D01*
X219570423Y-22472619D01*
X219646614Y-22548809D01*
X219760900Y-22586904D01*
X219951376Y-22586904D01*
X220673233Y-25068809D02*
X220558947Y-25106904D01*
X220368471Y-25106904D01*
X220292280Y-25068809D01*
X220254185Y-25030714D01*
X220216090Y-24954523D01*
X220216090Y-24878333D01*
X220254185Y-24802142D01*
X220292280Y-24764047D01*
X220368471Y-24725952D01*
X220520852Y-24687857D01*
X220597042Y-24649761D01*
X220635138Y-24611666D01*
X220673233Y-24535476D01*
X220673233Y-24459285D01*
X220635138Y-24383095D01*
X220597042Y-24345000D01*
X220520852Y-24306904D01*
X220330376Y-24306904D01*
X220216090Y-24345000D01*
X219987519Y-24306904D02*
X219530376Y-24306904D01*
X219758947Y-25106904D02*
X219758947Y-24306904D01*
X220827566Y-32327857D02*
X221094233Y-32327857D01*
X221094233Y-32746904D02*
X221094233Y-31946904D01*
X220713280Y-31946904D01*
X220027566Y-31946904D02*
X220408519Y-31946904D01*
X220446614Y-32327857D01*
X220408519Y-32289761D01*
X220332328Y-32251666D01*
X220141852Y-32251666D01*
X220065661Y-32289761D01*
X220027566Y-32327857D01*
X219989471Y-32404047D01*
X219989471Y-32594523D01*
X220027566Y-32670714D01*
X220065661Y-32708809D01*
X220141852Y-32746904D01*
X220332328Y-32746904D01*
X220408519Y-32708809D01*
X220446614Y-32670714D01*
X220827566Y-34867857D02*
X221094233Y-34867857D01*
X221094233Y-35286904D02*
X221094233Y-34486904D01*
X220713280Y-34486904D01*
X220065661Y-34486904D02*
X220218042Y-34486904D01*
X220294233Y-34525000D01*
X220332328Y-34563095D01*
X220408519Y-34677380D01*
X220446614Y-34829761D01*
X220446614Y-35134523D01*
X220408519Y-35210714D01*
X220370423Y-35248809D01*
X220294233Y-35286904D01*
X220141852Y-35286904D01*
X220065661Y-35248809D01*
X220027566Y-35210714D01*
X219989471Y-35134523D01*
X219989471Y-34944047D01*
X220027566Y-34867857D01*
X220065661Y-34829761D01*
X220141852Y-34791666D01*
X220294233Y-34791666D01*
X220370423Y-34829761D01*
X220408519Y-34867857D01*
X220446614Y-34944047D01*
X220827566Y-37407857D02*
X221094233Y-37407857D01*
X221094233Y-37826904D02*
X221094233Y-37026904D01*
X220713280Y-37026904D01*
X220484709Y-37026904D02*
X219951376Y-37026904D01*
X220294233Y-37826904D01*
X220884709Y-45027857D02*
X220770423Y-45065952D01*
X220732328Y-45104047D01*
X220694233Y-45180238D01*
X220694233Y-45294523D01*
X220732328Y-45370714D01*
X220770423Y-45408809D01*
X220846614Y-45446904D01*
X221151376Y-45446904D01*
X221151376Y-44646904D01*
X220884709Y-44646904D01*
X220808519Y-44685000D01*
X220770423Y-44723095D01*
X220732328Y-44799285D01*
X220732328Y-44875476D01*
X220770423Y-44951666D01*
X220808519Y-44989761D01*
X220884709Y-45027857D01*
X221151376Y-45027857D01*
X220389471Y-44723095D02*
X220351376Y-44685000D01*
X220275185Y-44646904D01*
X220084709Y-44646904D01*
X220008519Y-44685000D01*
X219970423Y-44723095D01*
X219932328Y-44799285D01*
X219932328Y-44875476D01*
X219970423Y-44989761D01*
X220427566Y-45446904D01*
X219932328Y-45446904D01*
X220673233Y-25068809D02*
X220558947Y-25106904D01*
X220368471Y-25106904D01*
X220292280Y-25068809D01*
X220254185Y-25030714D01*
X220216090Y-24954523D01*
X220216090Y-24878333D01*
X220254185Y-24802142D01*
X220292280Y-24764047D01*
X220368471Y-24725952D01*
X220520852Y-24687857D01*
X220597042Y-24649761D01*
X220635138Y-24611666D01*
X220673233Y-24535476D01*
X220673233Y-24459285D01*
X220635138Y-24383095D01*
X220597042Y-24345000D01*
X220520852Y-24306904D01*
X220330376Y-24306904D01*
X220216090Y-24345000D01*
X219987519Y-24306904D02*
X219530376Y-24306904D01*
X219758947Y-25106904D02*
X219758947Y-24306904D01*
X221664891Y-46119297D02*
X221617751Y-46213578D01*
X221617751Y-46260719D01*
X221641321Y-46331429D01*
X221712032Y-46402140D01*
X221782742Y-46425710D01*
X221829883Y-46425710D01*
X221900593Y-46402140D01*
X222089155Y-46213578D01*
X221594180Y-45718603D01*
X221429189Y-45883595D01*
X221405619Y-45954306D01*
X221405619Y-46001446D01*
X221429189Y-46072157D01*
X221476329Y-46119297D01*
X221547040Y-46142867D01*
X221594180Y-46142867D01*
X221664891Y-46119297D01*
X221829883Y-45954306D01*
X220887074Y-46425710D02*
X220981355Y-46331429D01*
X221052065Y-46307859D01*
X221099206Y-46307859D01*
X221217057Y-46331429D01*
X221334908Y-46402140D01*
X221523470Y-46590702D01*
X221547040Y-46661412D01*
X221547040Y-46708553D01*
X221523470Y-46779264D01*
X221429189Y-46873544D01*
X221358478Y-46897115D01*
X221311338Y-46897115D01*
X221240627Y-46873544D01*
X221122776Y-46755693D01*
X221099206Y-46684983D01*
X221099206Y-46637842D01*
X221122776Y-46567132D01*
X221217057Y-46472851D01*
X221287767Y-46449280D01*
X221334908Y-46449280D01*
X221405619Y-46472851D01*
X221664891Y-46119297D02*
X221617751Y-46213578D01*
X221617751Y-46260719D01*
X221641321Y-46331429D01*
X221712032Y-46402140D01*
X221782742Y-46425710D01*
X221829883Y-46425710D01*
X221900593Y-46402140D01*
X222089155Y-46213578D01*
X221594180Y-45718603D01*
X221429189Y-45883595D01*
X221405619Y-45954306D01*
X221405619Y-46001446D01*
X221429189Y-46072157D01*
X221476329Y-46119297D01*
X221547040Y-46142867D01*
X221594180Y-46142867D01*
X221664891Y-46119297D01*
X221829883Y-45954306D01*
X220887074Y-46425710D02*
X220981355Y-46331429D01*
X221052065Y-46307859D01*
X221099206Y-46307859D01*
X221217057Y-46331429D01*
X221334908Y-46402140D01*
X221523470Y-46590702D01*
X221547040Y-46661412D01*
X221547040Y-46708553D01*
X221523470Y-46779264D01*
X221429189Y-46873544D01*
X221358478Y-46897115D01*
X221311338Y-46897115D01*
X221240627Y-46873544D01*
X221122776Y-46755693D01*
X221099206Y-46684983D01*
X221099206Y-46637842D01*
X221122776Y-46567132D01*
X221217057Y-46472851D01*
X221287767Y-46449280D01*
X221334908Y-46449280D01*
X221405619Y-46472851D01*
X215784433Y-40158761D02*
X215641576Y-40206380D01*
X215403480Y-40206380D01*
X215308242Y-40158761D01*
X215260623Y-40111142D01*
X215213004Y-40015904D01*
X215213004Y-39920666D01*
X215260623Y-39825428D01*
X215308242Y-39777809D01*
X215403480Y-39730190D01*
X215593957Y-39682571D01*
X215689195Y-39634952D01*
X215736814Y-39587333D01*
X215784433Y-39492095D01*
X215784433Y-39396857D01*
X215736814Y-39301619D01*
X215689195Y-39254000D01*
X215593957Y-39206380D01*
X215355861Y-39206380D01*
X215213004Y-39254000D01*
X214879671Y-39206380D02*
X214641576Y-40206380D01*
X214451100Y-39492095D01*
X214260623Y-40206380D01*
X214022528Y-39206380D01*
X213689195Y-39301619D02*
X213641576Y-39254000D01*
X213546338Y-39206380D01*
X213308242Y-39206380D01*
X213213004Y-39254000D01*
X213165385Y-39301619D01*
X213117766Y-39396857D01*
X213117766Y-39492095D01*
X213165385Y-39634952D01*
X213736814Y-40206380D01*
X213117766Y-40206380D01*
X216509433Y-30820161D02*
X216366576Y-30867780D01*
X216128480Y-30867780D01*
X216033242Y-30820161D01*
X215985623Y-30772542D01*
X215938004Y-30677304D01*
X215938004Y-30582066D01*
X215985623Y-30486828D01*
X216033242Y-30439209D01*
X216128480Y-30391590D01*
X216318957Y-30343971D01*
X216414195Y-30296352D01*
X216461814Y-30248733D01*
X216509433Y-30153495D01*
X216509433Y-30058257D01*
X216461814Y-29963019D01*
X216414195Y-29915400D01*
X216318957Y-29867780D01*
X216080861Y-29867780D01*
X215938004Y-29915400D01*
X215604671Y-29867780D02*
X215366576Y-30867780D01*
X215176100Y-30153495D01*
X214985623Y-30867780D01*
X214747528Y-29867780D01*
X213842766Y-30867780D02*
X214414195Y-30867780D01*
X214128480Y-30867780D02*
X214128480Y-29867780D01*
X214223719Y-30010638D01*
X214318957Y-30105876D01*
X214414195Y-30153495D01*
M02*
