G04 #@! TF.GenerationSoftware,KiCad,Pcbnew,(5.1.6)-1*
G04 #@! TF.CreationDate,2020-11-25T22:12:27-08:00*
G04 #@! TF.ProjectId,ortho_right,6f727468-6f5f-4726-9967-68742e6b6963,rev?*
G04 #@! TF.SameCoordinates,Original*
G04 #@! TF.FileFunction,Legend,Top*
G04 #@! TF.FilePolarity,Positive*
%FSLAX46Y46*%
G04 Gerber Fmt 4.6, Leading zero omitted, Abs format (unit mm)*
G04 Created by KiCad (PCBNEW (5.1.6)-1) date 2020-11-25 22:12:27*
%MOMM*%
%LPD*%
G01*
G04 APERTURE LIST*
%ADD10C,0.300000*%
%ADD11C,0.120000*%
%ADD12C,0.381000*%
%ADD13C,0.150000*%
G04 APERTURE END LIST*
D10*
X221942114Y-94530171D02*
X222084971Y-94530171D01*
X222227828Y-94601600D01*
X222299257Y-94673028D01*
X222370685Y-94815885D01*
X222442114Y-95101600D01*
X222442114Y-95458742D01*
X222370685Y-95744457D01*
X222299257Y-95887314D01*
X222227828Y-95958742D01*
X222084971Y-96030171D01*
X221942114Y-96030171D01*
X221799257Y-95958742D01*
X221727828Y-95887314D01*
X221656400Y-95744457D01*
X221584971Y-95458742D01*
X221584971Y-95101600D01*
X221656400Y-94815885D01*
X221727828Y-94673028D01*
X221799257Y-94601600D01*
X221942114Y-94530171D01*
X222870685Y-94530171D02*
X223370685Y-96030171D01*
X223870685Y-94530171D01*
X217700600Y-99107875D02*
X218843457Y-99107875D01*
X220343457Y-99679304D02*
X219486314Y-99679304D01*
X219914885Y-99679304D02*
X219914885Y-98179304D01*
X219772028Y-98393590D01*
X219629171Y-98536447D01*
X219486314Y-98607875D01*
X220986314Y-99536447D02*
X221057742Y-99607875D01*
X220986314Y-99679304D01*
X220914885Y-99607875D01*
X220986314Y-99536447D01*
X220986314Y-99679304D01*
X221914885Y-98822161D02*
X221772028Y-98750733D01*
X221700600Y-98679304D01*
X221629171Y-98536447D01*
X221629171Y-98465018D01*
X221700600Y-98322161D01*
X221772028Y-98250733D01*
X221914885Y-98179304D01*
X222200600Y-98179304D01*
X222343457Y-98250733D01*
X222414885Y-98322161D01*
X222486314Y-98465018D01*
X222486314Y-98536447D01*
X222414885Y-98679304D01*
X222343457Y-98750733D01*
X222200600Y-98822161D01*
X221914885Y-98822161D01*
X221772028Y-98893590D01*
X221700600Y-98965018D01*
X221629171Y-99107875D01*
X221629171Y-99393590D01*
X221700600Y-99536447D01*
X221772028Y-99607875D01*
X221914885Y-99679304D01*
X222200600Y-99679304D01*
X222343457Y-99607875D01*
X222414885Y-99536447D01*
X222486314Y-99393590D01*
X222486314Y-99107875D01*
X222414885Y-98965018D01*
X222343457Y-98893590D01*
X222200600Y-98822161D01*
X222914885Y-98179304D02*
X223414885Y-99679304D01*
X223914885Y-98179304D01*
X217649800Y-102680808D02*
X218792657Y-102680808D01*
X219435514Y-101895094D02*
X219506942Y-101823666D01*
X219649800Y-101752237D01*
X220006942Y-101752237D01*
X220149800Y-101823666D01*
X220221228Y-101895094D01*
X220292657Y-102037951D01*
X220292657Y-102180808D01*
X220221228Y-102395094D01*
X219364085Y-103252237D01*
X220292657Y-103252237D01*
X220935514Y-103109380D02*
X221006942Y-103180808D01*
X220935514Y-103252237D01*
X220864085Y-103180808D01*
X220935514Y-103109380D01*
X220935514Y-103252237D01*
X221864085Y-102395094D02*
X221721228Y-102323666D01*
X221649800Y-102252237D01*
X221578371Y-102109380D01*
X221578371Y-102037951D01*
X221649800Y-101895094D01*
X221721228Y-101823666D01*
X221864085Y-101752237D01*
X222149800Y-101752237D01*
X222292657Y-101823666D01*
X222364085Y-101895094D01*
X222435514Y-102037951D01*
X222435514Y-102109380D01*
X222364085Y-102252237D01*
X222292657Y-102323666D01*
X222149800Y-102395094D01*
X221864085Y-102395094D01*
X221721228Y-102466523D01*
X221649800Y-102537951D01*
X221578371Y-102680808D01*
X221578371Y-102966523D01*
X221649800Y-103109380D01*
X221721228Y-103180808D01*
X221864085Y-103252237D01*
X222149800Y-103252237D01*
X222292657Y-103180808D01*
X222364085Y-103109380D01*
X222435514Y-102966523D01*
X222435514Y-102680808D01*
X222364085Y-102537951D01*
X222292657Y-102466523D01*
X222149800Y-102395094D01*
X222864085Y-101752237D02*
X223364085Y-103252237D01*
X223864085Y-101752237D01*
X217776800Y-106253742D02*
X218919657Y-106253742D01*
X219562514Y-105468028D02*
X219633942Y-105396600D01*
X219776800Y-105325171D01*
X220133942Y-105325171D01*
X220276800Y-105396600D01*
X220348228Y-105468028D01*
X220419657Y-105610885D01*
X220419657Y-105753742D01*
X220348228Y-105968028D01*
X219491085Y-106825171D01*
X220419657Y-106825171D01*
X221062514Y-106682314D02*
X221133942Y-106753742D01*
X221062514Y-106825171D01*
X220991085Y-106753742D01*
X221062514Y-106682314D01*
X221062514Y-106825171D01*
X221991085Y-105968028D02*
X221848228Y-105896600D01*
X221776800Y-105825171D01*
X221705371Y-105682314D01*
X221705371Y-105610885D01*
X221776800Y-105468028D01*
X221848228Y-105396600D01*
X221991085Y-105325171D01*
X222276800Y-105325171D01*
X222419657Y-105396600D01*
X222491085Y-105468028D01*
X222562514Y-105610885D01*
X222562514Y-105682314D01*
X222491085Y-105825171D01*
X222419657Y-105896600D01*
X222276800Y-105968028D01*
X221991085Y-105968028D01*
X221848228Y-106039457D01*
X221776800Y-106110885D01*
X221705371Y-106253742D01*
X221705371Y-106539457D01*
X221776800Y-106682314D01*
X221848228Y-106753742D01*
X221991085Y-106825171D01*
X222276800Y-106825171D01*
X222419657Y-106753742D01*
X222491085Y-106682314D01*
X222562514Y-106539457D01*
X222562514Y-106253742D01*
X222491085Y-106110885D01*
X222419657Y-106039457D01*
X222276800Y-105968028D01*
X222991085Y-105325171D02*
X223491085Y-106825171D01*
X223991085Y-105325171D01*
X208668942Y-93032971D02*
X208168942Y-92318685D01*
X207811800Y-93032971D02*
X207811800Y-91532971D01*
X208383228Y-91532971D01*
X208526085Y-91604400D01*
X208597514Y-91675828D01*
X208668942Y-91818685D01*
X208668942Y-92032971D01*
X208597514Y-92175828D01*
X208526085Y-92247257D01*
X208383228Y-92318685D01*
X207811800Y-92318685D01*
X210097514Y-91604400D02*
X209954657Y-91532971D01*
X209740371Y-91532971D01*
X209526085Y-91604400D01*
X209383228Y-91747257D01*
X209311800Y-91890114D01*
X209240371Y-92175828D01*
X209240371Y-92390114D01*
X209311800Y-92675828D01*
X209383228Y-92818685D01*
X209526085Y-92961542D01*
X209740371Y-93032971D01*
X209883228Y-93032971D01*
X210097514Y-92961542D01*
X210168942Y-92890114D01*
X210168942Y-92390114D01*
X209883228Y-92390114D01*
X211311800Y-92247257D02*
X211526085Y-92318685D01*
X211597514Y-92390114D01*
X211668942Y-92532971D01*
X211668942Y-92747257D01*
X211597514Y-92890114D01*
X211526085Y-92961542D01*
X211383228Y-93032971D01*
X210811800Y-93032971D01*
X210811800Y-91532971D01*
X211311800Y-91532971D01*
X211454657Y-91604400D01*
X211526085Y-91675828D01*
X211597514Y-91818685D01*
X211597514Y-91961542D01*
X211526085Y-92104400D01*
X211454657Y-92175828D01*
X211311800Y-92247257D01*
X210811800Y-92247257D01*
X214168942Y-93032971D02*
X213454657Y-93032971D01*
X213454657Y-91532971D01*
X214668942Y-92247257D02*
X215168942Y-92247257D01*
X215383228Y-93032971D02*
X214668942Y-93032971D01*
X214668942Y-91532971D01*
X215383228Y-91532971D01*
X216026085Y-93032971D02*
X216026085Y-91532971D01*
X216383228Y-91532971D01*
X216597514Y-91604400D01*
X216740371Y-91747257D01*
X216811800Y-91890114D01*
X216883228Y-92175828D01*
X216883228Y-92390114D01*
X216811800Y-92675828D01*
X216740371Y-92818685D01*
X216597514Y-92961542D01*
X216383228Y-93032971D01*
X216026085Y-93032971D01*
X218668942Y-93032971D02*
X218668942Y-91532971D01*
X219526085Y-93032971D02*
X218883228Y-92175828D01*
X219526085Y-91532971D02*
X218668942Y-92390114D01*
X220026085Y-91532971D02*
X220954657Y-91532971D01*
X220454657Y-92104400D01*
X220668942Y-92104400D01*
X220811800Y-92175828D01*
X220883228Y-92247257D01*
X220954657Y-92390114D01*
X220954657Y-92747257D01*
X220883228Y-92890114D01*
X220811800Y-92961542D01*
X220668942Y-93032971D01*
X220240371Y-93032971D01*
X220097514Y-92961542D01*
X220026085Y-92890114D01*
X221454657Y-91532971D02*
X222454657Y-91532971D01*
X221811800Y-93032971D01*
X205185485Y-106228342D02*
X206328342Y-106228342D01*
X206828342Y-105299771D02*
X207328342Y-106799771D01*
X207828342Y-105299771D01*
X209971200Y-106014057D02*
X210185485Y-106085485D01*
X210256914Y-106156914D01*
X210328342Y-106299771D01*
X210328342Y-106514057D01*
X210256914Y-106656914D01*
X210185485Y-106728342D01*
X210042628Y-106799771D01*
X209471200Y-106799771D01*
X209471200Y-105299771D01*
X209971200Y-105299771D01*
X210114057Y-105371200D01*
X210185485Y-105442628D01*
X210256914Y-105585485D01*
X210256914Y-105728342D01*
X210185485Y-105871200D01*
X210114057Y-105942628D01*
X209971200Y-106014057D01*
X209471200Y-106014057D01*
X205058485Y-102655408D02*
X206201342Y-102655408D01*
X206701342Y-101726837D02*
X207201342Y-103226837D01*
X207701342Y-101726837D01*
X210129914Y-101798266D02*
X209987057Y-101726837D01*
X209772771Y-101726837D01*
X209558485Y-101798266D01*
X209415628Y-101941123D01*
X209344200Y-102083980D01*
X209272771Y-102369694D01*
X209272771Y-102583980D01*
X209344200Y-102869694D01*
X209415628Y-103012551D01*
X209558485Y-103155408D01*
X209772771Y-103226837D01*
X209915628Y-103226837D01*
X210129914Y-103155408D01*
X210201342Y-103083980D01*
X210201342Y-102583980D01*
X209915628Y-102583980D01*
X205109285Y-99082475D02*
X206252142Y-99082475D01*
X206752142Y-98153904D02*
X207252142Y-99653904D01*
X207752142Y-98153904D01*
X210252142Y-99653904D02*
X209752142Y-98939618D01*
X209395000Y-99653904D02*
X209395000Y-98153904D01*
X209966428Y-98153904D01*
X210109285Y-98225333D01*
X210180714Y-98296761D01*
X210252142Y-98439618D01*
X210252142Y-98653904D01*
X210180714Y-98796761D01*
X210109285Y-98868190D01*
X209966428Y-98939618D01*
X209395000Y-98939618D01*
X205184085Y-95560342D02*
X206326942Y-95560342D01*
X205755514Y-96131771D02*
X205755514Y-94988914D01*
X206826942Y-94631771D02*
X207326942Y-96131771D01*
X207826942Y-94631771D01*
X210326942Y-96131771D02*
X209826942Y-95417485D01*
X209469800Y-96131771D02*
X209469800Y-94631771D01*
X210041228Y-94631771D01*
X210184085Y-94703200D01*
X210255514Y-94774628D01*
X210326942Y-94917485D01*
X210326942Y-95131771D01*
X210255514Y-95274628D01*
X210184085Y-95346057D01*
X210041228Y-95417485D01*
X209469800Y-95417485D01*
X211755514Y-94703200D02*
X211612657Y-94631771D01*
X211398371Y-94631771D01*
X211184085Y-94703200D01*
X211041228Y-94846057D01*
X210969800Y-94988914D01*
X210898371Y-95274628D01*
X210898371Y-95488914D01*
X210969800Y-95774628D01*
X211041228Y-95917485D01*
X211184085Y-96060342D01*
X211398371Y-96131771D01*
X211541228Y-96131771D01*
X211755514Y-96060342D01*
X211826942Y-95988914D01*
X211826942Y-95488914D01*
X211541228Y-95488914D01*
X212969800Y-95346057D02*
X213184085Y-95417485D01*
X213255514Y-95488914D01*
X213326942Y-95631771D01*
X213326942Y-95846057D01*
X213255514Y-95988914D01*
X213184085Y-96060342D01*
X213041228Y-96131771D01*
X212469800Y-96131771D01*
X212469800Y-94631771D01*
X212969800Y-94631771D01*
X213112657Y-94703200D01*
X213184085Y-94774628D01*
X213255514Y-94917485D01*
X213255514Y-95060342D01*
X213184085Y-95203200D01*
X213112657Y-95274628D01*
X212969800Y-95346057D01*
X212469800Y-95346057D01*
D11*
X215973700Y-102569432D02*
G75*
G03*
X215973700Y-102569432I-950000J0D01*
G01*
X215973700Y-98992266D02*
G75*
G03*
X215973700Y-98992266I-950000J0D01*
G01*
X215973700Y-106146600D02*
G75*
G03*
X215973700Y-106146600I-950000J0D01*
G01*
X215973700Y-95415100D02*
G75*
G03*
X215973700Y-95415100I-950000J0D01*
G01*
X209873667Y-83665600D02*
X209531133Y-83665600D01*
X209873667Y-84685600D02*
X209531133Y-84685600D01*
X209873667Y-85164200D02*
X209531133Y-85164200D01*
X209873667Y-86184200D02*
X209531133Y-86184200D01*
X209873667Y-82167000D02*
X209531133Y-82167000D01*
X209873667Y-83187000D02*
X209531133Y-83187000D01*
X209873667Y-80668400D02*
X209531133Y-80668400D01*
X209873667Y-81688400D02*
X209531133Y-81688400D01*
X220013600Y-81058652D02*
X220013600Y-80536148D01*
X218593600Y-81058652D02*
X218593600Y-80536148D01*
X218593600Y-84295348D02*
X218593600Y-84817852D01*
X220013600Y-84295348D02*
X220013600Y-84817852D01*
X214800548Y-82548800D02*
X215323052Y-82548800D01*
X214800548Y-81128800D02*
X215323052Y-81128800D01*
X214800548Y-84555400D02*
X215323052Y-84555400D01*
X214800548Y-83135400D02*
X215323052Y-83135400D01*
X214800548Y-80567600D02*
X215323052Y-80567600D01*
X214800548Y-79147600D02*
X215323052Y-79147600D01*
X214800548Y-86511200D02*
X215323052Y-86511200D01*
X214800548Y-85091200D02*
X215323052Y-85091200D01*
D12*
X208749900Y-18415000D02*
X206209900Y-18415000D01*
X206209900Y-15875000D02*
X206209900Y-18415000D01*
X223989900Y-15875000D02*
X206209900Y-15875000D01*
X223989900Y-18415000D02*
X223989900Y-15875000D01*
D13*
G36*
X220031468Y-24894360D02*
G01*
X220031468Y-25094360D01*
X219931468Y-25094360D01*
X219931468Y-24894360D01*
X220031468Y-24894360D01*
G37*
X220031468Y-24894360D02*
X220031468Y-25094360D01*
X219931468Y-25094360D01*
X219931468Y-24894360D01*
X220031468Y-24894360D01*
G36*
X219631468Y-24294360D02*
G01*
X219631468Y-25094360D01*
X219531468Y-25094360D01*
X219531468Y-24294360D01*
X219631468Y-24294360D01*
G37*
X219631468Y-24294360D02*
X219631468Y-25094360D01*
X219531468Y-25094360D01*
X219531468Y-24294360D01*
X219631468Y-24294360D01*
G36*
X220031468Y-24294360D02*
G01*
X220031468Y-24394360D01*
X219531468Y-24394360D01*
X219531468Y-24294360D01*
X220031468Y-24294360D01*
G37*
X220031468Y-24294360D02*
X220031468Y-24394360D01*
X219531468Y-24394360D01*
X219531468Y-24294360D01*
X220031468Y-24294360D01*
G36*
X219831468Y-24694360D02*
G01*
X219831468Y-24794360D01*
X219731468Y-24794360D01*
X219731468Y-24694360D01*
X219831468Y-24694360D01*
G37*
X219831468Y-24694360D02*
X219831468Y-24794360D01*
X219731468Y-24794360D01*
X219731468Y-24694360D01*
X219831468Y-24694360D01*
G36*
X220031468Y-24294360D02*
G01*
X220031468Y-24594360D01*
X219931468Y-24594360D01*
X219931468Y-24294360D01*
X220031468Y-24294360D01*
G37*
X220031468Y-24294360D02*
X220031468Y-24594360D01*
X219931468Y-24594360D01*
X219931468Y-24294360D01*
X220031468Y-24294360D01*
D12*
X208749900Y-20955000D02*
X206209900Y-20955000D01*
X208749900Y-18415000D02*
X208749900Y-20955000D01*
X223989900Y-48895000D02*
X223989900Y-18415000D01*
X206209900Y-48895000D02*
X223989900Y-48895000D01*
X206209900Y-18415000D02*
X206209900Y-48895000D01*
D13*
X201441300Y-53750000D02*
X201441300Y-59350000D01*
X203441300Y-59350000D02*
X201441300Y-59350000D01*
X203441300Y-53750000D02*
X201441300Y-53750000D01*
X203441300Y-59600000D02*
X215541300Y-59600000D01*
X203441300Y-53500000D02*
X215541300Y-53500000D01*
X215541300Y-53500000D02*
X215541300Y-59600000D01*
X203441300Y-53500000D02*
X203441300Y-59600000D01*
X214214176Y-100373812D02*
X214214176Y-101088098D01*
X214166557Y-101230955D01*
X214071319Y-101326193D01*
X213928461Y-101373812D01*
X213833223Y-101373812D01*
X215214176Y-101373812D02*
X214642747Y-101373812D01*
X214928461Y-101373812D02*
X214928461Y-100373812D01*
X214833223Y-100516670D01*
X214737985Y-100611908D01*
X214642747Y-100659527D01*
X215547509Y-100373812D02*
X216166557Y-100373812D01*
X215833223Y-100754765D01*
X215976080Y-100754765D01*
X216071319Y-100802384D01*
X216118938Y-100850003D01*
X216166557Y-100945241D01*
X216166557Y-101183336D01*
X216118938Y-101278574D01*
X216071319Y-101326193D01*
X215976080Y-101373812D01*
X215690366Y-101373812D01*
X215595128Y-101326193D01*
X215547509Y-101278574D01*
X214214176Y-96796646D02*
X214214176Y-97510932D01*
X214166557Y-97653789D01*
X214071319Y-97749027D01*
X213928461Y-97796646D01*
X213833223Y-97796646D01*
X215214176Y-97796646D02*
X214642747Y-97796646D01*
X214928461Y-97796646D02*
X214928461Y-96796646D01*
X214833223Y-96939504D01*
X214737985Y-97034742D01*
X214642747Y-97082361D01*
X215595128Y-96891885D02*
X215642747Y-96844266D01*
X215737985Y-96796646D01*
X215976080Y-96796646D01*
X216071319Y-96844266D01*
X216118938Y-96891885D01*
X216166557Y-96987123D01*
X216166557Y-97082361D01*
X216118938Y-97225218D01*
X215547509Y-97796646D01*
X216166557Y-97796646D01*
X214214176Y-103950980D02*
X214214176Y-104665266D01*
X214166557Y-104808123D01*
X214071319Y-104903361D01*
X213928461Y-104950980D01*
X213833223Y-104950980D01*
X215214176Y-104950980D02*
X214642747Y-104950980D01*
X214928461Y-104950980D02*
X214928461Y-103950980D01*
X214833223Y-104093838D01*
X214737985Y-104189076D01*
X214642747Y-104236695D01*
X216166557Y-104950980D02*
X215595128Y-104950980D01*
X215880842Y-104950980D02*
X215880842Y-103950980D01*
X215785604Y-104093838D01*
X215690366Y-104189076D01*
X215595128Y-104236695D01*
X214214176Y-93219480D02*
X214214176Y-93933766D01*
X214166557Y-94076623D01*
X214071319Y-94171861D01*
X213928461Y-94219480D01*
X213833223Y-94219480D01*
X215214176Y-94219480D02*
X214642747Y-94219480D01*
X214928461Y-94219480D02*
X214928461Y-93219480D01*
X214833223Y-93362338D01*
X214737985Y-93457576D01*
X214642747Y-93505195D01*
X215833223Y-93219480D02*
X215928461Y-93219480D01*
X216023700Y-93267100D01*
X216071319Y-93314719D01*
X216118938Y-93409957D01*
X216166557Y-93600433D01*
X216166557Y-93838528D01*
X216118938Y-94029004D01*
X216071319Y-94124242D01*
X216023700Y-94171861D01*
X215928461Y-94219480D01*
X215833223Y-94219480D01*
X215737985Y-94171861D01*
X215690366Y-94124242D01*
X215642747Y-94029004D01*
X215595128Y-93838528D01*
X215595128Y-93600433D01*
X215642747Y-93409957D01*
X215690366Y-93314719D01*
X215737985Y-93267100D01*
X215833223Y-93219480D01*
X209535733Y-86057980D02*
X209202400Y-85581790D01*
X208964304Y-86057980D02*
X208964304Y-85057980D01*
X209345257Y-85057980D01*
X209440495Y-85105600D01*
X209488114Y-85153219D01*
X209535733Y-85248457D01*
X209535733Y-85391314D01*
X209488114Y-85486552D01*
X209440495Y-85534171D01*
X209345257Y-85581790D01*
X208964304Y-85581790D01*
X210440495Y-85057980D02*
X209964304Y-85057980D01*
X209916685Y-85534171D01*
X209964304Y-85486552D01*
X210059542Y-85438933D01*
X210297638Y-85438933D01*
X210392876Y-85486552D01*
X210440495Y-85534171D01*
X210488114Y-85629409D01*
X210488114Y-85867504D01*
X210440495Y-85962742D01*
X210392876Y-86010361D01*
X210297638Y-86057980D01*
X210059542Y-86057980D01*
X209964304Y-86010361D01*
X209916685Y-85962742D01*
X209535733Y-87556580D02*
X209202400Y-87080390D01*
X208964304Y-87556580D02*
X208964304Y-86556580D01*
X209345257Y-86556580D01*
X209440495Y-86604200D01*
X209488114Y-86651819D01*
X209535733Y-86747057D01*
X209535733Y-86889914D01*
X209488114Y-86985152D01*
X209440495Y-87032771D01*
X209345257Y-87080390D01*
X208964304Y-87080390D01*
X209869066Y-86556580D02*
X210488114Y-86556580D01*
X210154780Y-86937533D01*
X210297638Y-86937533D01*
X210392876Y-86985152D01*
X210440495Y-87032771D01*
X210488114Y-87128009D01*
X210488114Y-87366104D01*
X210440495Y-87461342D01*
X210392876Y-87508961D01*
X210297638Y-87556580D01*
X210011923Y-87556580D01*
X209916685Y-87508961D01*
X209869066Y-87461342D01*
X209535733Y-84559380D02*
X209202400Y-84083190D01*
X208964304Y-84559380D02*
X208964304Y-83559380D01*
X209345257Y-83559380D01*
X209440495Y-83607000D01*
X209488114Y-83654619D01*
X209535733Y-83749857D01*
X209535733Y-83892714D01*
X209488114Y-83987952D01*
X209440495Y-84035571D01*
X209345257Y-84083190D01*
X208964304Y-84083190D01*
X209916685Y-83654619D02*
X209964304Y-83607000D01*
X210059542Y-83559380D01*
X210297638Y-83559380D01*
X210392876Y-83607000D01*
X210440495Y-83654619D01*
X210488114Y-83749857D01*
X210488114Y-83845095D01*
X210440495Y-83987952D01*
X209869066Y-84559380D01*
X210488114Y-84559380D01*
X209535733Y-83060780D02*
X209202400Y-82584590D01*
X208964304Y-83060780D02*
X208964304Y-82060780D01*
X209345257Y-82060780D01*
X209440495Y-82108400D01*
X209488114Y-82156019D01*
X209535733Y-82251257D01*
X209535733Y-82394114D01*
X209488114Y-82489352D01*
X209440495Y-82536971D01*
X209345257Y-82584590D01*
X208964304Y-82584590D01*
X210488114Y-83060780D02*
X209916685Y-83060780D01*
X210202400Y-83060780D02*
X210202400Y-82060780D01*
X210107161Y-82203638D01*
X210011923Y-82298876D01*
X209916685Y-82346495D01*
X217296457Y-80630733D02*
X217248838Y-80583114D01*
X217201219Y-80440257D01*
X217201219Y-80345019D01*
X217248838Y-80202161D01*
X217344076Y-80106923D01*
X217439314Y-80059304D01*
X217629790Y-80011685D01*
X217772647Y-80011685D01*
X217963123Y-80059304D01*
X218058361Y-80106923D01*
X218153600Y-80202161D01*
X218201219Y-80345019D01*
X218201219Y-80440257D01*
X218153600Y-80583114D01*
X218105980Y-80630733D01*
X218201219Y-81487876D02*
X218201219Y-81297400D01*
X218153600Y-81202161D01*
X218105980Y-81154542D01*
X217963123Y-81059304D01*
X217772647Y-81011685D01*
X217391695Y-81011685D01*
X217296457Y-81059304D01*
X217248838Y-81106923D01*
X217201219Y-81202161D01*
X217201219Y-81392638D01*
X217248838Y-81487876D01*
X217296457Y-81535495D01*
X217391695Y-81583114D01*
X217629790Y-81583114D01*
X217725028Y-81535495D01*
X217772647Y-81487876D01*
X217820266Y-81392638D01*
X217820266Y-81202161D01*
X217772647Y-81106923D01*
X217725028Y-81059304D01*
X217629790Y-81011685D01*
X221310742Y-84723266D02*
X221358361Y-84770885D01*
X221405980Y-84913742D01*
X221405980Y-85008980D01*
X221358361Y-85151838D01*
X221263123Y-85247076D01*
X221167885Y-85294695D01*
X220977409Y-85342314D01*
X220834552Y-85342314D01*
X220644076Y-85294695D01*
X220548838Y-85247076D01*
X220453600Y-85151838D01*
X220405980Y-85008980D01*
X220405980Y-84913742D01*
X220453600Y-84770885D01*
X220501219Y-84723266D01*
X220405980Y-83818504D02*
X220405980Y-84294695D01*
X220882171Y-84342314D01*
X220834552Y-84294695D01*
X220786933Y-84199457D01*
X220786933Y-83961361D01*
X220834552Y-83866123D01*
X220882171Y-83818504D01*
X220977409Y-83770885D01*
X221215504Y-83770885D01*
X221310742Y-83818504D01*
X221358361Y-83866123D01*
X221405980Y-83961361D01*
X221405980Y-84199457D01*
X221358361Y-84294695D01*
X221310742Y-84342314D01*
X214895133Y-80545942D02*
X214847514Y-80593561D01*
X214704657Y-80641180D01*
X214609419Y-80641180D01*
X214466561Y-80593561D01*
X214371323Y-80498323D01*
X214323704Y-80403085D01*
X214276085Y-80212609D01*
X214276085Y-80069752D01*
X214323704Y-79879276D01*
X214371323Y-79784038D01*
X214466561Y-79688800D01*
X214609419Y-79641180D01*
X214704657Y-79641180D01*
X214847514Y-79688800D01*
X214895133Y-79736419D01*
X215752276Y-79974514D02*
X215752276Y-80641180D01*
X215514180Y-79593561D02*
X215276085Y-80307847D01*
X215895133Y-80307847D01*
X214895133Y-82552542D02*
X214847514Y-82600161D01*
X214704657Y-82647780D01*
X214609419Y-82647780D01*
X214466561Y-82600161D01*
X214371323Y-82504923D01*
X214323704Y-82409685D01*
X214276085Y-82219209D01*
X214276085Y-82076352D01*
X214323704Y-81885876D01*
X214371323Y-81790638D01*
X214466561Y-81695400D01*
X214609419Y-81647780D01*
X214704657Y-81647780D01*
X214847514Y-81695400D01*
X214895133Y-81743019D01*
X215228466Y-81647780D02*
X215847514Y-81647780D01*
X215514180Y-82028733D01*
X215657038Y-82028733D01*
X215752276Y-82076352D01*
X215799895Y-82123971D01*
X215847514Y-82219209D01*
X215847514Y-82457304D01*
X215799895Y-82552542D01*
X215752276Y-82600161D01*
X215657038Y-82647780D01*
X215371323Y-82647780D01*
X215276085Y-82600161D01*
X215228466Y-82552542D01*
X214895133Y-78564742D02*
X214847514Y-78612361D01*
X214704657Y-78659980D01*
X214609419Y-78659980D01*
X214466561Y-78612361D01*
X214371323Y-78517123D01*
X214323704Y-78421885D01*
X214276085Y-78231409D01*
X214276085Y-78088552D01*
X214323704Y-77898076D01*
X214371323Y-77802838D01*
X214466561Y-77707600D01*
X214609419Y-77659980D01*
X214704657Y-77659980D01*
X214847514Y-77707600D01*
X214895133Y-77755219D01*
X215276085Y-77755219D02*
X215323704Y-77707600D01*
X215418942Y-77659980D01*
X215657038Y-77659980D01*
X215752276Y-77707600D01*
X215799895Y-77755219D01*
X215847514Y-77850457D01*
X215847514Y-77945695D01*
X215799895Y-78088552D01*
X215228466Y-78659980D01*
X215847514Y-78659980D01*
X214895133Y-84508342D02*
X214847514Y-84555961D01*
X214704657Y-84603580D01*
X214609419Y-84603580D01*
X214466561Y-84555961D01*
X214371323Y-84460723D01*
X214323704Y-84365485D01*
X214276085Y-84175009D01*
X214276085Y-84032152D01*
X214323704Y-83841676D01*
X214371323Y-83746438D01*
X214466561Y-83651200D01*
X214609419Y-83603580D01*
X214704657Y-83603580D01*
X214847514Y-83651200D01*
X214895133Y-83698819D01*
X215847514Y-84603580D02*
X215276085Y-84603580D01*
X215561800Y-84603580D02*
X215561800Y-83603580D01*
X215466561Y-83746438D01*
X215371323Y-83841676D01*
X215276085Y-83889295D01*
X218840233Y-16996904D02*
X219106900Y-17796904D01*
X219373566Y-16996904D01*
X219906900Y-17377857D02*
X220021185Y-17415952D01*
X220059280Y-17454047D01*
X220097376Y-17530238D01*
X220097376Y-17644523D01*
X220059280Y-17720714D01*
X220021185Y-17758809D01*
X219944995Y-17796904D01*
X219640233Y-17796904D01*
X219640233Y-16996904D01*
X219906900Y-16996904D01*
X219983090Y-17035000D01*
X220021185Y-17073095D01*
X220059280Y-17149285D01*
X220059280Y-17225476D01*
X220021185Y-17301666D01*
X219983090Y-17339761D01*
X219906900Y-17377857D01*
X219640233Y-17377857D01*
X220440233Y-16996904D02*
X220440233Y-17644523D01*
X220478328Y-17720714D01*
X220516423Y-17758809D01*
X220592614Y-17796904D01*
X220744995Y-17796904D01*
X220821185Y-17758809D01*
X220859280Y-17720714D01*
X220897376Y-17644523D01*
X220897376Y-16996904D01*
X221240233Y-17758809D02*
X221354519Y-17796904D01*
X221544995Y-17796904D01*
X221621185Y-17758809D01*
X221659280Y-17720714D01*
X221697376Y-17644523D01*
X221697376Y-17568333D01*
X221659280Y-17492142D01*
X221621185Y-17454047D01*
X221544995Y-17415952D01*
X221392614Y-17377857D01*
X221316423Y-17339761D01*
X221278328Y-17301666D01*
X221240233Y-17225476D01*
X221240233Y-17149285D01*
X221278328Y-17073095D01*
X221316423Y-17035000D01*
X221392614Y-16996904D01*
X221583090Y-16996904D01*
X221697376Y-17035000D01*
X218840233Y-16996904D02*
X219106900Y-17796904D01*
X219373566Y-16996904D01*
X219906900Y-17377857D02*
X220021185Y-17415952D01*
X220059280Y-17454047D01*
X220097376Y-17530238D01*
X220097376Y-17644523D01*
X220059280Y-17720714D01*
X220021185Y-17758809D01*
X219944995Y-17796904D01*
X219640233Y-17796904D01*
X219640233Y-16996904D01*
X219906900Y-16996904D01*
X219983090Y-17035000D01*
X220021185Y-17073095D01*
X220059280Y-17149285D01*
X220059280Y-17225476D01*
X220021185Y-17301666D01*
X219983090Y-17339761D01*
X219906900Y-17377857D01*
X219640233Y-17377857D01*
X220440233Y-16996904D02*
X220440233Y-17644523D01*
X220478328Y-17720714D01*
X220516423Y-17758809D01*
X220592614Y-17796904D01*
X220744995Y-17796904D01*
X220821185Y-17758809D01*
X220859280Y-17720714D01*
X220897376Y-17644523D01*
X220897376Y-16996904D01*
X221240233Y-17758809D02*
X221354519Y-17796904D01*
X221544995Y-17796904D01*
X221621185Y-17758809D01*
X221659280Y-17720714D01*
X221697376Y-17644523D01*
X221697376Y-17568333D01*
X221659280Y-17492142D01*
X221621185Y-17454047D01*
X221544995Y-17415952D01*
X221392614Y-17377857D01*
X221316423Y-17339761D01*
X221278328Y-17301666D01*
X221240233Y-17225476D01*
X221240233Y-17149285D01*
X221278328Y-17073095D01*
X221316423Y-17035000D01*
X221392614Y-16996904D01*
X221583090Y-16996904D01*
X221697376Y-17035000D01*
X209048423Y-22586904D02*
X209048423Y-21786904D01*
X209238900Y-21786904D01*
X209353185Y-21825000D01*
X209429376Y-21901190D01*
X209467471Y-21977380D01*
X209505566Y-22129761D01*
X209505566Y-22244047D01*
X209467471Y-22396428D01*
X209429376Y-22472619D01*
X209353185Y-22548809D01*
X209238900Y-22586904D01*
X209048423Y-22586904D01*
X209810328Y-21863095D02*
X209848423Y-21825000D01*
X209924614Y-21786904D01*
X210115090Y-21786904D01*
X210191280Y-21825000D01*
X210229376Y-21863095D01*
X210267471Y-21939285D01*
X210267471Y-22015476D01*
X210229376Y-22129761D01*
X209772233Y-22586904D01*
X210267471Y-22586904D01*
X209048423Y-32746904D02*
X209048423Y-31946904D01*
X209238900Y-31946904D01*
X209353185Y-31985000D01*
X209429376Y-32061190D01*
X209467471Y-32137380D01*
X209505566Y-32289761D01*
X209505566Y-32404047D01*
X209467471Y-32556428D01*
X209429376Y-32632619D01*
X209353185Y-32708809D01*
X209238900Y-32746904D01*
X209048423Y-32746904D01*
X210000804Y-31946904D02*
X210076995Y-31946904D01*
X210153185Y-31985000D01*
X210191280Y-32023095D01*
X210229376Y-32099285D01*
X210267471Y-32251666D01*
X210267471Y-32442142D01*
X210229376Y-32594523D01*
X210191280Y-32670714D01*
X210153185Y-32708809D01*
X210076995Y-32746904D01*
X210000804Y-32746904D01*
X209924614Y-32708809D01*
X209886519Y-32670714D01*
X209848423Y-32594523D01*
X209810328Y-32442142D01*
X209810328Y-32251666D01*
X209848423Y-32099285D01*
X209886519Y-32023095D01*
X209924614Y-31985000D01*
X210000804Y-31946904D01*
X209048423Y-30206904D02*
X209048423Y-29406904D01*
X209238900Y-29406904D01*
X209353185Y-29445000D01*
X209429376Y-29521190D01*
X209467471Y-29597380D01*
X209505566Y-29749761D01*
X209505566Y-29864047D01*
X209467471Y-30016428D01*
X209429376Y-30092619D01*
X209353185Y-30168809D01*
X209238900Y-30206904D01*
X209048423Y-30206904D01*
X210267471Y-30206904D02*
X209810328Y-30206904D01*
X210038900Y-30206904D02*
X210038900Y-29406904D01*
X209962709Y-29521190D01*
X209886519Y-29597380D01*
X209810328Y-29635476D01*
X209029376Y-26905000D02*
X208953185Y-26866904D01*
X208838900Y-26866904D01*
X208724614Y-26905000D01*
X208648423Y-26981190D01*
X208610328Y-27057380D01*
X208572233Y-27209761D01*
X208572233Y-27324047D01*
X208610328Y-27476428D01*
X208648423Y-27552619D01*
X208724614Y-27628809D01*
X208838900Y-27666904D01*
X208915090Y-27666904D01*
X209029376Y-27628809D01*
X209067471Y-27590714D01*
X209067471Y-27324047D01*
X208915090Y-27324047D01*
X209410328Y-27666904D02*
X209410328Y-26866904D01*
X209867471Y-27666904D01*
X209867471Y-26866904D01*
X210248423Y-27666904D02*
X210248423Y-26866904D01*
X210438900Y-26866904D01*
X210553185Y-26905000D01*
X210629376Y-26981190D01*
X210667471Y-27057380D01*
X210705566Y-27209761D01*
X210705566Y-27324047D01*
X210667471Y-27476428D01*
X210629376Y-27552619D01*
X210553185Y-27628809D01*
X210438900Y-27666904D01*
X210248423Y-27666904D01*
X209048423Y-35286904D02*
X209048423Y-34486904D01*
X209238900Y-34486904D01*
X209353185Y-34525000D01*
X209429376Y-34601190D01*
X209467471Y-34677380D01*
X209505566Y-34829761D01*
X209505566Y-34944047D01*
X209467471Y-35096428D01*
X209429376Y-35172619D01*
X209353185Y-35248809D01*
X209238900Y-35286904D01*
X209048423Y-35286904D01*
X210191280Y-34753571D02*
X210191280Y-35286904D01*
X210000804Y-34448809D02*
X209810328Y-35020238D01*
X210305566Y-35020238D01*
X209505566Y-37750714D02*
X209467471Y-37788809D01*
X209353185Y-37826904D01*
X209276995Y-37826904D01*
X209162709Y-37788809D01*
X209086519Y-37712619D01*
X209048423Y-37636428D01*
X209010328Y-37484047D01*
X209010328Y-37369761D01*
X209048423Y-37217380D01*
X209086519Y-37141190D01*
X209162709Y-37065000D01*
X209276995Y-37026904D01*
X209353185Y-37026904D01*
X209467471Y-37065000D01*
X209505566Y-37103095D01*
X210191280Y-37026904D02*
X210038900Y-37026904D01*
X209962709Y-37065000D01*
X209924614Y-37103095D01*
X209848423Y-37217380D01*
X209810328Y-37369761D01*
X209810328Y-37674523D01*
X209848423Y-37750714D01*
X209886519Y-37788809D01*
X209962709Y-37826904D01*
X210115090Y-37826904D01*
X210191280Y-37788809D01*
X210229376Y-37750714D01*
X210267471Y-37674523D01*
X210267471Y-37484047D01*
X210229376Y-37407857D01*
X210191280Y-37369761D01*
X210115090Y-37331666D01*
X209962709Y-37331666D01*
X209886519Y-37369761D01*
X209848423Y-37407857D01*
X209810328Y-37484047D01*
X209048423Y-40366904D02*
X209048423Y-39566904D01*
X209238900Y-39566904D01*
X209353185Y-39605000D01*
X209429376Y-39681190D01*
X209467471Y-39757380D01*
X209505566Y-39909761D01*
X209505566Y-40024047D01*
X209467471Y-40176428D01*
X209429376Y-40252619D01*
X209353185Y-40328809D01*
X209238900Y-40366904D01*
X209048423Y-40366904D01*
X209772233Y-39566904D02*
X210305566Y-39566904D01*
X209962709Y-40366904D01*
X209086519Y-42487857D02*
X209353185Y-42487857D01*
X209467471Y-42906904D02*
X209086519Y-42906904D01*
X209086519Y-42106904D01*
X209467471Y-42106904D01*
X210153185Y-42106904D02*
X210000804Y-42106904D01*
X209924614Y-42145000D01*
X209886519Y-42183095D01*
X209810328Y-42297380D01*
X209772233Y-42449761D01*
X209772233Y-42754523D01*
X209810328Y-42830714D01*
X209848423Y-42868809D01*
X209924614Y-42906904D01*
X210076995Y-42906904D01*
X210153185Y-42868809D01*
X210191280Y-42830714D01*
X210229376Y-42754523D01*
X210229376Y-42564047D01*
X210191280Y-42487857D01*
X210153185Y-42449761D01*
X210076995Y-42411666D01*
X209924614Y-42411666D01*
X209848423Y-42449761D01*
X209810328Y-42487857D01*
X209772233Y-42564047D01*
X209315090Y-45027857D02*
X209429376Y-45065952D01*
X209467471Y-45104047D01*
X209505566Y-45180238D01*
X209505566Y-45294523D01*
X209467471Y-45370714D01*
X209429376Y-45408809D01*
X209353185Y-45446904D01*
X209048423Y-45446904D01*
X209048423Y-44646904D01*
X209315090Y-44646904D01*
X209391280Y-44685000D01*
X209429376Y-44723095D01*
X209467471Y-44799285D01*
X209467471Y-44875476D01*
X209429376Y-44951666D01*
X209391280Y-44989761D01*
X209315090Y-45027857D01*
X209048423Y-45027857D01*
X210191280Y-44913571D02*
X210191280Y-45446904D01*
X210000804Y-44608809D02*
X209810328Y-45180238D01*
X210305566Y-45180238D01*
X208534908Y-46119297D02*
X208582048Y-46213578D01*
X208582048Y-46260719D01*
X208558478Y-46331429D01*
X208487767Y-46402140D01*
X208417057Y-46425710D01*
X208369916Y-46425710D01*
X208299206Y-46402140D01*
X208110644Y-46213578D01*
X208605619Y-45718603D01*
X208770610Y-45883595D01*
X208794180Y-45954306D01*
X208794180Y-46001446D01*
X208770610Y-46072157D01*
X208723470Y-46119297D01*
X208652759Y-46142867D01*
X208605619Y-46142867D01*
X208534908Y-46119297D01*
X208369916Y-45954306D01*
X209336296Y-46449280D02*
X209100593Y-46213578D01*
X208841321Y-46425710D01*
X208888461Y-46425710D01*
X208959172Y-46449280D01*
X209077023Y-46567132D01*
X209100593Y-46637842D01*
X209100593Y-46684983D01*
X209077023Y-46755693D01*
X208959172Y-46873544D01*
X208888461Y-46897115D01*
X208841321Y-46897115D01*
X208770610Y-46873544D01*
X208652759Y-46755693D01*
X208629189Y-46684983D01*
X208629189Y-46637842D01*
X220237090Y-42487857D02*
X220351376Y-42525952D01*
X220389471Y-42564047D01*
X220427566Y-42640238D01*
X220427566Y-42754523D01*
X220389471Y-42830714D01*
X220351376Y-42868809D01*
X220275185Y-42906904D01*
X219970423Y-42906904D01*
X219970423Y-42106904D01*
X220237090Y-42106904D01*
X220313280Y-42145000D01*
X220351376Y-42183095D01*
X220389471Y-42259285D01*
X220389471Y-42335476D01*
X220351376Y-42411666D01*
X220313280Y-42449761D01*
X220237090Y-42487857D01*
X219970423Y-42487857D01*
X220694233Y-42106904D02*
X221189471Y-42106904D01*
X220922804Y-42411666D01*
X221037090Y-42411666D01*
X221113280Y-42449761D01*
X221151376Y-42487857D01*
X221189471Y-42564047D01*
X221189471Y-42754523D01*
X221151376Y-42830714D01*
X221113280Y-42868809D01*
X221037090Y-42906904D01*
X220808519Y-42906904D01*
X220732328Y-42868809D01*
X220694233Y-42830714D01*
X220237090Y-39947857D02*
X220351376Y-39985952D01*
X220389471Y-40024047D01*
X220427566Y-40100238D01*
X220427566Y-40214523D01*
X220389471Y-40290714D01*
X220351376Y-40328809D01*
X220275185Y-40366904D01*
X219970423Y-40366904D01*
X219970423Y-39566904D01*
X220237090Y-39566904D01*
X220313280Y-39605000D01*
X220351376Y-39643095D01*
X220389471Y-39719285D01*
X220389471Y-39795476D01*
X220351376Y-39871666D01*
X220313280Y-39909761D01*
X220237090Y-39947857D01*
X219970423Y-39947857D01*
X221189471Y-40366904D02*
X220732328Y-40366904D01*
X220960900Y-40366904D02*
X220960900Y-39566904D01*
X220884709Y-39681190D01*
X220808519Y-39757380D01*
X220732328Y-39795476D01*
X220294233Y-29787857D02*
X220027566Y-29787857D01*
X220027566Y-30206904D02*
X220027566Y-29406904D01*
X220408519Y-29406904D01*
X221056138Y-29673571D02*
X221056138Y-30206904D01*
X220865661Y-29368809D02*
X220675185Y-29940238D01*
X221170423Y-29940238D01*
X219494233Y-26866904D02*
X219760900Y-27666904D01*
X220027566Y-26866904D01*
X220751376Y-27590714D02*
X220713280Y-27628809D01*
X220598995Y-27666904D01*
X220522804Y-27666904D01*
X220408519Y-27628809D01*
X220332328Y-27552619D01*
X220294233Y-27476428D01*
X220256138Y-27324047D01*
X220256138Y-27209761D01*
X220294233Y-27057380D01*
X220332328Y-26981190D01*
X220408519Y-26905000D01*
X220522804Y-26866904D01*
X220598995Y-26866904D01*
X220713280Y-26905000D01*
X220751376Y-26943095D01*
X221551376Y-27590714D02*
X221513280Y-27628809D01*
X221398995Y-27666904D01*
X221322804Y-27666904D01*
X221208519Y-27628809D01*
X221132328Y-27552619D01*
X221094233Y-27476428D01*
X221056138Y-27324047D01*
X221056138Y-27209761D01*
X221094233Y-27057380D01*
X221132328Y-26981190D01*
X221208519Y-26905000D01*
X221322804Y-26866904D01*
X221398995Y-26866904D01*
X221513280Y-26905000D01*
X221551376Y-26943095D01*
X220237090Y-19627857D02*
X220351376Y-19665952D01*
X220389471Y-19704047D01*
X220427566Y-19780238D01*
X220427566Y-19894523D01*
X220389471Y-19970714D01*
X220351376Y-20008809D01*
X220275185Y-20046904D01*
X219970423Y-20046904D01*
X219970423Y-19246904D01*
X220237090Y-19246904D01*
X220313280Y-19285000D01*
X220351376Y-19323095D01*
X220389471Y-19399285D01*
X220389471Y-19475476D01*
X220351376Y-19551666D01*
X220313280Y-19589761D01*
X220237090Y-19627857D01*
X219970423Y-19627857D01*
X220922804Y-19246904D02*
X220998995Y-19246904D01*
X221075185Y-19285000D01*
X221113280Y-19323095D01*
X221151376Y-19399285D01*
X221189471Y-19551666D01*
X221189471Y-19742142D01*
X221151376Y-19894523D01*
X221113280Y-19970714D01*
X221075185Y-20008809D01*
X220998995Y-20046904D01*
X220922804Y-20046904D01*
X220846614Y-20008809D01*
X220808519Y-19970714D01*
X220770423Y-19894523D01*
X220732328Y-19742142D01*
X220732328Y-19551666D01*
X220770423Y-19399285D01*
X220808519Y-19323095D01*
X220846614Y-19285000D01*
X220922804Y-19246904D01*
X220237090Y-19627857D02*
X220351376Y-19665952D01*
X220389471Y-19704047D01*
X220427566Y-19780238D01*
X220427566Y-19894523D01*
X220389471Y-19970714D01*
X220351376Y-20008809D01*
X220275185Y-20046904D01*
X219970423Y-20046904D01*
X219970423Y-19246904D01*
X220237090Y-19246904D01*
X220313280Y-19285000D01*
X220351376Y-19323095D01*
X220389471Y-19399285D01*
X220389471Y-19475476D01*
X220351376Y-19551666D01*
X220313280Y-19589761D01*
X220237090Y-19627857D01*
X219970423Y-19627857D01*
X220922804Y-19246904D02*
X220998995Y-19246904D01*
X221075185Y-19285000D01*
X221113280Y-19323095D01*
X221151376Y-19399285D01*
X221189471Y-19551666D01*
X221189471Y-19742142D01*
X221151376Y-19894523D01*
X221113280Y-19970714D01*
X221075185Y-20008809D01*
X220998995Y-20046904D01*
X220922804Y-20046904D01*
X220846614Y-20008809D01*
X220808519Y-19970714D01*
X220770423Y-19894523D01*
X220732328Y-19742142D01*
X220732328Y-19551666D01*
X220770423Y-19399285D01*
X220808519Y-19323095D01*
X220846614Y-19285000D01*
X220922804Y-19246904D01*
X219951376Y-21825000D02*
X219875185Y-21786904D01*
X219760900Y-21786904D01*
X219646614Y-21825000D01*
X219570423Y-21901190D01*
X219532328Y-21977380D01*
X219494233Y-22129761D01*
X219494233Y-22244047D01*
X219532328Y-22396428D01*
X219570423Y-22472619D01*
X219646614Y-22548809D01*
X219760900Y-22586904D01*
X219837090Y-22586904D01*
X219951376Y-22548809D01*
X219989471Y-22510714D01*
X219989471Y-22244047D01*
X219837090Y-22244047D01*
X220332328Y-22586904D02*
X220332328Y-21786904D01*
X220789471Y-22586904D01*
X220789471Y-21786904D01*
X221170423Y-22586904D02*
X221170423Y-21786904D01*
X221360900Y-21786904D01*
X221475185Y-21825000D01*
X221551376Y-21901190D01*
X221589471Y-21977380D01*
X221627566Y-22129761D01*
X221627566Y-22244047D01*
X221589471Y-22396428D01*
X221551376Y-22472619D01*
X221475185Y-22548809D01*
X221360900Y-22586904D01*
X221170423Y-22586904D01*
X219494233Y-26866904D02*
X219760900Y-27666904D01*
X220027566Y-26866904D01*
X220751376Y-27590714D02*
X220713280Y-27628809D01*
X220598995Y-27666904D01*
X220522804Y-27666904D01*
X220408519Y-27628809D01*
X220332328Y-27552619D01*
X220294233Y-27476428D01*
X220256138Y-27324047D01*
X220256138Y-27209761D01*
X220294233Y-27057380D01*
X220332328Y-26981190D01*
X220408519Y-26905000D01*
X220522804Y-26866904D01*
X220598995Y-26866904D01*
X220713280Y-26905000D01*
X220751376Y-26943095D01*
X221551376Y-27590714D02*
X221513280Y-27628809D01*
X221398995Y-27666904D01*
X221322804Y-27666904D01*
X221208519Y-27628809D01*
X221132328Y-27552619D01*
X221094233Y-27476428D01*
X221056138Y-27324047D01*
X221056138Y-27209761D01*
X221094233Y-27057380D01*
X221132328Y-26981190D01*
X221208519Y-26905000D01*
X221322804Y-26866904D01*
X221398995Y-26866904D01*
X221513280Y-26905000D01*
X221551376Y-26943095D01*
X220294233Y-29787857D02*
X220027566Y-29787857D01*
X220027566Y-30206904D02*
X220027566Y-29406904D01*
X220408519Y-29406904D01*
X221056138Y-29673571D02*
X221056138Y-30206904D01*
X220865661Y-29368809D02*
X220675185Y-29940238D01*
X221170423Y-29940238D01*
X220237090Y-39947857D02*
X220351376Y-39985952D01*
X220389471Y-40024047D01*
X220427566Y-40100238D01*
X220427566Y-40214523D01*
X220389471Y-40290714D01*
X220351376Y-40328809D01*
X220275185Y-40366904D01*
X219970423Y-40366904D01*
X219970423Y-39566904D01*
X220237090Y-39566904D01*
X220313280Y-39605000D01*
X220351376Y-39643095D01*
X220389471Y-39719285D01*
X220389471Y-39795476D01*
X220351376Y-39871666D01*
X220313280Y-39909761D01*
X220237090Y-39947857D01*
X219970423Y-39947857D01*
X221189471Y-40366904D02*
X220732328Y-40366904D01*
X220960900Y-40366904D02*
X220960900Y-39566904D01*
X220884709Y-39681190D01*
X220808519Y-39757380D01*
X220732328Y-39795476D01*
X220237090Y-42487857D02*
X220351376Y-42525952D01*
X220389471Y-42564047D01*
X220427566Y-42640238D01*
X220427566Y-42754523D01*
X220389471Y-42830714D01*
X220351376Y-42868809D01*
X220275185Y-42906904D01*
X219970423Y-42906904D01*
X219970423Y-42106904D01*
X220237090Y-42106904D01*
X220313280Y-42145000D01*
X220351376Y-42183095D01*
X220389471Y-42259285D01*
X220389471Y-42335476D01*
X220351376Y-42411666D01*
X220313280Y-42449761D01*
X220237090Y-42487857D01*
X219970423Y-42487857D01*
X220694233Y-42106904D02*
X221189471Y-42106904D01*
X220922804Y-42411666D01*
X221037090Y-42411666D01*
X221113280Y-42449761D01*
X221151376Y-42487857D01*
X221189471Y-42564047D01*
X221189471Y-42754523D01*
X221151376Y-42830714D01*
X221113280Y-42868809D01*
X221037090Y-42906904D01*
X220808519Y-42906904D01*
X220732328Y-42868809D01*
X220694233Y-42830714D01*
X208534908Y-46119297D02*
X208582048Y-46213578D01*
X208582048Y-46260719D01*
X208558478Y-46331429D01*
X208487767Y-46402140D01*
X208417057Y-46425710D01*
X208369916Y-46425710D01*
X208299206Y-46402140D01*
X208110644Y-46213578D01*
X208605619Y-45718603D01*
X208770610Y-45883595D01*
X208794180Y-45954306D01*
X208794180Y-46001446D01*
X208770610Y-46072157D01*
X208723470Y-46119297D01*
X208652759Y-46142867D01*
X208605619Y-46142867D01*
X208534908Y-46119297D01*
X208369916Y-45954306D01*
X209336296Y-46449280D02*
X209100593Y-46213578D01*
X208841321Y-46425710D01*
X208888461Y-46425710D01*
X208959172Y-46449280D01*
X209077023Y-46567132D01*
X209100593Y-46637842D01*
X209100593Y-46684983D01*
X209077023Y-46755693D01*
X208959172Y-46873544D01*
X208888461Y-46897115D01*
X208841321Y-46897115D01*
X208770610Y-46873544D01*
X208652759Y-46755693D01*
X208629189Y-46684983D01*
X208629189Y-46637842D01*
X209315090Y-45027857D02*
X209429376Y-45065952D01*
X209467471Y-45104047D01*
X209505566Y-45180238D01*
X209505566Y-45294523D01*
X209467471Y-45370714D01*
X209429376Y-45408809D01*
X209353185Y-45446904D01*
X209048423Y-45446904D01*
X209048423Y-44646904D01*
X209315090Y-44646904D01*
X209391280Y-44685000D01*
X209429376Y-44723095D01*
X209467471Y-44799285D01*
X209467471Y-44875476D01*
X209429376Y-44951666D01*
X209391280Y-44989761D01*
X209315090Y-45027857D01*
X209048423Y-45027857D01*
X210191280Y-44913571D02*
X210191280Y-45446904D01*
X210000804Y-44608809D02*
X209810328Y-45180238D01*
X210305566Y-45180238D01*
X209086519Y-42487857D02*
X209353185Y-42487857D01*
X209467471Y-42906904D02*
X209086519Y-42906904D01*
X209086519Y-42106904D01*
X209467471Y-42106904D01*
X210153185Y-42106904D02*
X210000804Y-42106904D01*
X209924614Y-42145000D01*
X209886519Y-42183095D01*
X209810328Y-42297380D01*
X209772233Y-42449761D01*
X209772233Y-42754523D01*
X209810328Y-42830714D01*
X209848423Y-42868809D01*
X209924614Y-42906904D01*
X210076995Y-42906904D01*
X210153185Y-42868809D01*
X210191280Y-42830714D01*
X210229376Y-42754523D01*
X210229376Y-42564047D01*
X210191280Y-42487857D01*
X210153185Y-42449761D01*
X210076995Y-42411666D01*
X209924614Y-42411666D01*
X209848423Y-42449761D01*
X209810328Y-42487857D01*
X209772233Y-42564047D01*
X209048423Y-40366904D02*
X209048423Y-39566904D01*
X209238900Y-39566904D01*
X209353185Y-39605000D01*
X209429376Y-39681190D01*
X209467471Y-39757380D01*
X209505566Y-39909761D01*
X209505566Y-40024047D01*
X209467471Y-40176428D01*
X209429376Y-40252619D01*
X209353185Y-40328809D01*
X209238900Y-40366904D01*
X209048423Y-40366904D01*
X209772233Y-39566904D02*
X210305566Y-39566904D01*
X209962709Y-40366904D01*
X209505566Y-37750714D02*
X209467471Y-37788809D01*
X209353185Y-37826904D01*
X209276995Y-37826904D01*
X209162709Y-37788809D01*
X209086519Y-37712619D01*
X209048423Y-37636428D01*
X209010328Y-37484047D01*
X209010328Y-37369761D01*
X209048423Y-37217380D01*
X209086519Y-37141190D01*
X209162709Y-37065000D01*
X209276995Y-37026904D01*
X209353185Y-37026904D01*
X209467471Y-37065000D01*
X209505566Y-37103095D01*
X210191280Y-37026904D02*
X210038900Y-37026904D01*
X209962709Y-37065000D01*
X209924614Y-37103095D01*
X209848423Y-37217380D01*
X209810328Y-37369761D01*
X209810328Y-37674523D01*
X209848423Y-37750714D01*
X209886519Y-37788809D01*
X209962709Y-37826904D01*
X210115090Y-37826904D01*
X210191280Y-37788809D01*
X210229376Y-37750714D01*
X210267471Y-37674523D01*
X210267471Y-37484047D01*
X210229376Y-37407857D01*
X210191280Y-37369761D01*
X210115090Y-37331666D01*
X209962709Y-37331666D01*
X209886519Y-37369761D01*
X209848423Y-37407857D01*
X209810328Y-37484047D01*
X209048423Y-35286904D02*
X209048423Y-34486904D01*
X209238900Y-34486904D01*
X209353185Y-34525000D01*
X209429376Y-34601190D01*
X209467471Y-34677380D01*
X209505566Y-34829761D01*
X209505566Y-34944047D01*
X209467471Y-35096428D01*
X209429376Y-35172619D01*
X209353185Y-35248809D01*
X209238900Y-35286904D01*
X209048423Y-35286904D01*
X210191280Y-34753571D02*
X210191280Y-35286904D01*
X210000804Y-34448809D02*
X209810328Y-35020238D01*
X210305566Y-35020238D01*
X209029376Y-24365000D02*
X208953185Y-24326904D01*
X208838900Y-24326904D01*
X208724614Y-24365000D01*
X208648423Y-24441190D01*
X208610328Y-24517380D01*
X208572233Y-24669761D01*
X208572233Y-24784047D01*
X208610328Y-24936428D01*
X208648423Y-25012619D01*
X208724614Y-25088809D01*
X208838900Y-25126904D01*
X208915090Y-25126904D01*
X209029376Y-25088809D01*
X209067471Y-25050714D01*
X209067471Y-24784047D01*
X208915090Y-24784047D01*
X209410328Y-25126904D02*
X209410328Y-24326904D01*
X209867471Y-25126904D01*
X209867471Y-24326904D01*
X210248423Y-25126904D02*
X210248423Y-24326904D01*
X210438900Y-24326904D01*
X210553185Y-24365000D01*
X210629376Y-24441190D01*
X210667471Y-24517380D01*
X210705566Y-24669761D01*
X210705566Y-24784047D01*
X210667471Y-24936428D01*
X210629376Y-25012619D01*
X210553185Y-25088809D01*
X210438900Y-25126904D01*
X210248423Y-25126904D01*
X209029376Y-26905000D02*
X208953185Y-26866904D01*
X208838900Y-26866904D01*
X208724614Y-26905000D01*
X208648423Y-26981190D01*
X208610328Y-27057380D01*
X208572233Y-27209761D01*
X208572233Y-27324047D01*
X208610328Y-27476428D01*
X208648423Y-27552619D01*
X208724614Y-27628809D01*
X208838900Y-27666904D01*
X208915090Y-27666904D01*
X209029376Y-27628809D01*
X209067471Y-27590714D01*
X209067471Y-27324047D01*
X208915090Y-27324047D01*
X209410328Y-27666904D02*
X209410328Y-26866904D01*
X209867471Y-27666904D01*
X209867471Y-26866904D01*
X210248423Y-27666904D02*
X210248423Y-26866904D01*
X210438900Y-26866904D01*
X210553185Y-26905000D01*
X210629376Y-26981190D01*
X210667471Y-27057380D01*
X210705566Y-27209761D01*
X210705566Y-27324047D01*
X210667471Y-27476428D01*
X210629376Y-27552619D01*
X210553185Y-27628809D01*
X210438900Y-27666904D01*
X210248423Y-27666904D01*
X209048423Y-30206904D02*
X209048423Y-29406904D01*
X209238900Y-29406904D01*
X209353185Y-29445000D01*
X209429376Y-29521190D01*
X209467471Y-29597380D01*
X209505566Y-29749761D01*
X209505566Y-29864047D01*
X209467471Y-30016428D01*
X209429376Y-30092619D01*
X209353185Y-30168809D01*
X209238900Y-30206904D01*
X209048423Y-30206904D01*
X210267471Y-30206904D02*
X209810328Y-30206904D01*
X210038900Y-30206904D02*
X210038900Y-29406904D01*
X209962709Y-29521190D01*
X209886519Y-29597380D01*
X209810328Y-29635476D01*
X209048423Y-32746904D02*
X209048423Y-31946904D01*
X209238900Y-31946904D01*
X209353185Y-31985000D01*
X209429376Y-32061190D01*
X209467471Y-32137380D01*
X209505566Y-32289761D01*
X209505566Y-32404047D01*
X209467471Y-32556428D01*
X209429376Y-32632619D01*
X209353185Y-32708809D01*
X209238900Y-32746904D01*
X209048423Y-32746904D01*
X210000804Y-31946904D02*
X210076995Y-31946904D01*
X210153185Y-31985000D01*
X210191280Y-32023095D01*
X210229376Y-32099285D01*
X210267471Y-32251666D01*
X210267471Y-32442142D01*
X210229376Y-32594523D01*
X210191280Y-32670714D01*
X210153185Y-32708809D01*
X210076995Y-32746904D01*
X210000804Y-32746904D01*
X209924614Y-32708809D01*
X209886519Y-32670714D01*
X209848423Y-32594523D01*
X209810328Y-32442142D01*
X209810328Y-32251666D01*
X209848423Y-32099285D01*
X209886519Y-32023095D01*
X209924614Y-31985000D01*
X210000804Y-31946904D01*
X209048423Y-22586904D02*
X209048423Y-21786904D01*
X209238900Y-21786904D01*
X209353185Y-21825000D01*
X209429376Y-21901190D01*
X209467471Y-21977380D01*
X209505566Y-22129761D01*
X209505566Y-22244047D01*
X209467471Y-22396428D01*
X209429376Y-22472619D01*
X209353185Y-22548809D01*
X209238900Y-22586904D01*
X209048423Y-22586904D01*
X209810328Y-21863095D02*
X209848423Y-21825000D01*
X209924614Y-21786904D01*
X210115090Y-21786904D01*
X210191280Y-21825000D01*
X210229376Y-21863095D01*
X210267471Y-21939285D01*
X210267471Y-22015476D01*
X210229376Y-22129761D01*
X209772233Y-22586904D01*
X210267471Y-22586904D01*
X209337551Y-19246904D02*
X209794694Y-19246904D01*
X209566123Y-20046904D02*
X209566123Y-19246904D01*
X209985170Y-19246904D02*
X210518504Y-20046904D01*
X210518504Y-19246904D02*
X209985170Y-20046904D01*
X210975647Y-19246904D02*
X211051837Y-19246904D01*
X211128028Y-19285000D01*
X211166123Y-19323095D01*
X211204218Y-19399285D01*
X211242313Y-19551666D01*
X211242313Y-19742142D01*
X211204218Y-19894523D01*
X211166123Y-19970714D01*
X211128028Y-20008809D01*
X211051837Y-20046904D01*
X210975647Y-20046904D01*
X210899456Y-20008809D01*
X210861361Y-19970714D01*
X210823266Y-19894523D01*
X210785170Y-19742142D01*
X210785170Y-19551666D01*
X210823266Y-19399285D01*
X210861361Y-19323095D01*
X210899456Y-19285000D01*
X210975647Y-19246904D01*
X212156599Y-19208809D02*
X211470885Y-20237380D01*
X212423266Y-20046904D02*
X212423266Y-19246904D01*
X212613742Y-19246904D01*
X212728028Y-19285000D01*
X212804218Y-19361190D01*
X212842313Y-19437380D01*
X212880408Y-19589761D01*
X212880408Y-19704047D01*
X212842313Y-19856428D01*
X212804218Y-19932619D01*
X212728028Y-20008809D01*
X212613742Y-20046904D01*
X212423266Y-20046904D01*
X213147075Y-19246904D02*
X213642313Y-19246904D01*
X213375647Y-19551666D01*
X213489932Y-19551666D01*
X213566123Y-19589761D01*
X213604218Y-19627857D01*
X213642313Y-19704047D01*
X213642313Y-19894523D01*
X213604218Y-19970714D01*
X213566123Y-20008809D01*
X213489932Y-20046904D01*
X213261361Y-20046904D01*
X213185170Y-20008809D01*
X213147075Y-19970714D01*
X209337551Y-19246904D02*
X209794694Y-19246904D01*
X209566123Y-20046904D02*
X209566123Y-19246904D01*
X209985170Y-19246904D02*
X210518504Y-20046904D01*
X210518504Y-19246904D02*
X209985170Y-20046904D01*
X210975647Y-19246904D02*
X211051837Y-19246904D01*
X211128028Y-19285000D01*
X211166123Y-19323095D01*
X211204218Y-19399285D01*
X211242313Y-19551666D01*
X211242313Y-19742142D01*
X211204218Y-19894523D01*
X211166123Y-19970714D01*
X211128028Y-20008809D01*
X211051837Y-20046904D01*
X210975647Y-20046904D01*
X210899456Y-20008809D01*
X210861361Y-19970714D01*
X210823266Y-19894523D01*
X210785170Y-19742142D01*
X210785170Y-19551666D01*
X210823266Y-19399285D01*
X210861361Y-19323095D01*
X210899456Y-19285000D01*
X210975647Y-19246904D01*
X212156599Y-19208809D02*
X211470885Y-20237380D01*
X212423266Y-20046904D02*
X212423266Y-19246904D01*
X212613742Y-19246904D01*
X212728028Y-19285000D01*
X212804218Y-19361190D01*
X212842313Y-19437380D01*
X212880408Y-19589761D01*
X212880408Y-19704047D01*
X212842313Y-19856428D01*
X212804218Y-19932619D01*
X212728028Y-20008809D01*
X212613742Y-20046904D01*
X212423266Y-20046904D01*
X213147075Y-19246904D02*
X213642313Y-19246904D01*
X213375647Y-19551666D01*
X213489932Y-19551666D01*
X213566123Y-19589761D01*
X213604218Y-19627857D01*
X213642313Y-19704047D01*
X213642313Y-19894523D01*
X213604218Y-19970714D01*
X213566123Y-20008809D01*
X213489932Y-20046904D01*
X213261361Y-20046904D01*
X213185170Y-20008809D01*
X213147075Y-19970714D01*
X204488666Y-64052380D02*
X204488666Y-64766666D01*
X204441047Y-64909523D01*
X204345809Y-65004761D01*
X204202952Y-65052380D01*
X204107714Y-65052380D01*
X205012476Y-65052380D02*
X205202952Y-65052380D01*
X205298190Y-65004761D01*
X205345809Y-64957142D01*
X205441047Y-64814285D01*
X205488666Y-64623809D01*
X205488666Y-64242857D01*
X205441047Y-64147619D01*
X205393428Y-64100000D01*
X205298190Y-64052380D01*
X205107714Y-64052380D01*
X205012476Y-64100000D01*
X204964857Y-64147619D01*
X204917238Y-64242857D01*
X204917238Y-64480952D01*
X204964857Y-64576190D01*
X205012476Y-64623809D01*
X205107714Y-64671428D01*
X205298190Y-64671428D01*
X205393428Y-64623809D01*
X205441047Y-64576190D01*
X205488666Y-64480952D01*
X224879666Y-64052380D02*
X224879666Y-64766666D01*
X224832047Y-64909523D01*
X224736809Y-65004761D01*
X224593952Y-65052380D01*
X224498714Y-65052380D01*
X225498714Y-64480952D02*
X225403476Y-64433333D01*
X225355857Y-64385714D01*
X225308238Y-64290476D01*
X225308238Y-64242857D01*
X225355857Y-64147619D01*
X225403476Y-64100000D01*
X225498714Y-64052380D01*
X225689190Y-64052380D01*
X225784428Y-64100000D01*
X225832047Y-64147619D01*
X225879666Y-64242857D01*
X225879666Y-64290476D01*
X225832047Y-64385714D01*
X225784428Y-64433333D01*
X225689190Y-64480952D01*
X225498714Y-64480952D01*
X225403476Y-64528571D01*
X225355857Y-64576190D01*
X225308238Y-64671428D01*
X225308238Y-64861904D01*
X225355857Y-64957142D01*
X225403476Y-65004761D01*
X225498714Y-65052380D01*
X225689190Y-65052380D01*
X225784428Y-65004761D01*
X225832047Y-64957142D01*
X225879666Y-64861904D01*
X225879666Y-64671428D01*
X225832047Y-64576190D01*
X225784428Y-64528571D01*
X225689190Y-64480952D01*
X204488666Y-116386380D02*
X204488666Y-117100666D01*
X204441047Y-117243523D01*
X204345809Y-117338761D01*
X204202952Y-117386380D01*
X204107714Y-117386380D01*
X204869619Y-116386380D02*
X205536285Y-116386380D01*
X205107714Y-117386380D01*
X365655266Y-42776780D02*
X365655266Y-43491066D01*
X365607647Y-43633923D01*
X365512409Y-43729161D01*
X365369552Y-43776780D01*
X365274314Y-43776780D01*
X366560028Y-42776780D02*
X366369552Y-42776780D01*
X366274314Y-42824400D01*
X366226695Y-42872019D01*
X366131457Y-43014876D01*
X366083838Y-43205352D01*
X366083838Y-43586304D01*
X366131457Y-43681542D01*
X366179076Y-43729161D01*
X366274314Y-43776780D01*
X366464790Y-43776780D01*
X366560028Y-43729161D01*
X366607647Y-43681542D01*
X366655266Y-43586304D01*
X366655266Y-43348209D01*
X366607647Y-43252971D01*
X366560028Y-43205352D01*
X366464790Y-43157733D01*
X366274314Y-43157733D01*
X366179076Y-43205352D01*
X366131457Y-43252971D01*
X366083838Y-43348209D01*
X309241866Y-119014880D02*
X309241866Y-119729166D01*
X309194247Y-119872023D01*
X309099009Y-119967261D01*
X308956152Y-120014880D01*
X308860914Y-120014880D01*
X310194247Y-119014880D02*
X309718057Y-119014880D01*
X309670438Y-119491071D01*
X309718057Y-119443452D01*
X309813295Y-119395833D01*
X310051390Y-119395833D01*
X310146628Y-119443452D01*
X310194247Y-119491071D01*
X310241866Y-119586309D01*
X310241866Y-119824404D01*
X310194247Y-119919642D01*
X310146628Y-119967261D01*
X310051390Y-120014880D01*
X309813295Y-120014880D01*
X309718057Y-119967261D01*
X309670438Y-119919642D01*
X344903466Y-80914880D02*
X344903466Y-81629166D01*
X344855847Y-81772023D01*
X344760609Y-81867261D01*
X344617752Y-81914880D01*
X344522514Y-81914880D01*
X345808228Y-81248214D02*
X345808228Y-81914880D01*
X345570133Y-80867261D02*
X345332038Y-81581547D01*
X345951085Y-81581547D01*
X224879666Y-108964380D02*
X224879666Y-109678666D01*
X224832047Y-109821523D01*
X224736809Y-109916761D01*
X224593952Y-109964380D01*
X224498714Y-109964380D01*
X225260619Y-108964380D02*
X225879666Y-108964380D01*
X225546333Y-109345333D01*
X225689190Y-109345333D01*
X225784428Y-109392952D01*
X225832047Y-109440571D01*
X225879666Y-109535809D01*
X225879666Y-109773904D01*
X225832047Y-109869142D01*
X225784428Y-109916761D01*
X225689190Y-109964380D01*
X225403476Y-109964380D01*
X225308238Y-109916761D01*
X225260619Y-109869142D01*
X233003766Y-111534580D02*
X233003766Y-112248866D01*
X232956147Y-112391723D01*
X232860909Y-112486961D01*
X232718052Y-112534580D01*
X232622814Y-112534580D01*
X233432338Y-111629819D02*
X233479957Y-111582200D01*
X233575195Y-111534580D01*
X233813290Y-111534580D01*
X233908528Y-111582200D01*
X233956147Y-111629819D01*
X234003766Y-111725057D01*
X234003766Y-111820295D01*
X233956147Y-111963152D01*
X233384719Y-112534580D01*
X234003766Y-112534580D01*
M02*
