G04 #@! TF.GenerationSoftware,KiCad,Pcbnew,(5.1.6)-1*
G04 #@! TF.CreationDate,2020-11-25T22:12:28-08:00*
G04 #@! TF.ProjectId,ortho_right,6f727468-6f5f-4726-9967-68742e6b6963,rev?*
G04 #@! TF.SameCoordinates,Original*
G04 #@! TF.FileFunction,Other,User*
%FSLAX46Y46*%
G04 Gerber Fmt 4.6, Leading zero omitted, Abs format (unit mm)*
G04 Created by KiCad (PCBNEW (5.1.6)-1) date 2020-11-25 22:12:28*
%MOMM*%
%LPD*%
G01*
G04 APERTURE LIST*
%ADD10C,0.050000*%
G04 APERTURE END LIST*
D10*
X219977100Y-87827000D02*
X216827100Y-87827000D01*
X219977100Y-86427000D02*
X219977100Y-87827000D01*
X220577100Y-86427000D02*
X219977100Y-86427000D01*
X220577100Y-85827000D02*
X220577100Y-86427000D01*
X221977100Y-85827000D02*
X220577100Y-85827000D01*
X221977100Y-82677000D02*
X221977100Y-85827000D01*
X219977100Y-77527000D02*
X216827100Y-77527000D01*
X219977100Y-78927000D02*
X219977100Y-77527000D01*
X220577100Y-78927000D02*
X219977100Y-78927000D01*
X220577100Y-79527000D02*
X220577100Y-78927000D01*
X221977100Y-79527000D02*
X220577100Y-79527000D01*
X221977100Y-82677000D02*
X221977100Y-79527000D01*
X213677100Y-87827000D02*
X216827100Y-87827000D01*
X213677100Y-86427000D02*
X213677100Y-87827000D01*
X213077100Y-86427000D02*
X213677100Y-86427000D01*
X213077100Y-85827000D02*
X213077100Y-86427000D01*
X211677100Y-85827000D02*
X213077100Y-85827000D01*
X211677100Y-82677000D02*
X211677100Y-85827000D01*
X213677100Y-77527000D02*
X216827100Y-77527000D01*
X213677100Y-78927000D02*
X213677100Y-77527000D01*
X213077100Y-78927000D02*
X213677100Y-78927000D01*
X213077100Y-79527000D02*
X213077100Y-78927000D01*
X211677100Y-79527000D02*
X213077100Y-79527000D01*
X211677100Y-82677000D02*
X211677100Y-79527000D01*
X209703400Y-89426800D02*
X213003400Y-89426800D01*
X209703400Y-87966800D02*
X209703400Y-89426800D01*
X213003400Y-87966800D02*
X209703400Y-87966800D01*
X213003400Y-89426800D02*
X213003400Y-87966800D01*
X208052400Y-80409800D02*
X211352400Y-80409800D01*
X208052400Y-78949800D02*
X208052400Y-80409800D01*
X211352400Y-78949800D02*
X208052400Y-78949800D01*
X211352400Y-80409800D02*
X211352400Y-78949800D01*
X212176100Y-42779000D02*
X218156100Y-42779000D01*
X212176100Y-42779000D02*
X212176100Y-40259000D01*
X218156100Y-40259000D02*
X218156100Y-42779000D01*
X218156100Y-40259000D02*
X212176100Y-40259000D01*
X212376100Y-26165400D02*
X212376100Y-29765400D01*
X217976100Y-26165400D02*
X212376100Y-26165400D01*
X217976100Y-29765400D02*
X217976100Y-26165400D01*
X212376100Y-29765400D02*
X217976100Y-29765400D01*
M02*
