G04 #@! TF.GenerationSoftware,KiCad,Pcbnew,(5.1.6)-1*
G04 #@! TF.CreationDate,2020-11-25T22:12:28-08:00*
G04 #@! TF.ProjectId,ortho_right,6f727468-6f5f-4726-9967-68742e6b6963,rev?*
G04 #@! TF.SameCoordinates,Original*
G04 #@! TF.FileFunction,Other,User*
%FSLAX46Y46*%
G04 Gerber Fmt 4.6, Leading zero omitted, Abs format (unit mm)*
G04 Created by KiCad (PCBNEW (5.1.6)-1) date 2020-11-25 22:12:28*
%MOMM*%
%LPD*%
G01*
G04 APERTURE LIST*
%ADD10C,0.050000*%
G04 APERTURE END LIST*
D10*
X216273700Y-102569432D02*
G75*
G03*
X216273700Y-102569432I-1250000J0D01*
G01*
X216273700Y-98992266D02*
G75*
G03*
X216273700Y-98992266I-1250000J0D01*
G01*
X216273700Y-106146600D02*
G75*
G03*
X216273700Y-106146600I-1250000J0D01*
G01*
X216273700Y-95415100D02*
G75*
G03*
X216273700Y-95415100I-1250000J0D01*
G01*
X208052400Y-83445600D02*
X211352400Y-83445600D01*
X208052400Y-84905600D02*
X208052400Y-83445600D01*
X211352400Y-84905600D02*
X208052400Y-84905600D01*
X211352400Y-83445600D02*
X211352400Y-84905600D01*
X208052400Y-84944200D02*
X211352400Y-84944200D01*
X208052400Y-86404200D02*
X208052400Y-84944200D01*
X211352400Y-86404200D02*
X208052400Y-86404200D01*
X211352400Y-84944200D02*
X211352400Y-86404200D01*
X208052400Y-81947000D02*
X211352400Y-81947000D01*
X208052400Y-83407000D02*
X208052400Y-81947000D01*
X211352400Y-83407000D02*
X208052400Y-83407000D01*
X211352400Y-81947000D02*
X211352400Y-83407000D01*
X208052400Y-80448400D02*
X211352400Y-80448400D01*
X208052400Y-81908400D02*
X208052400Y-80448400D01*
X211352400Y-81908400D02*
X208052400Y-81908400D01*
X211352400Y-80448400D02*
X211352400Y-81908400D01*
X220253600Y-78947400D02*
X220253600Y-82647400D01*
X218353600Y-78947400D02*
X220253600Y-78947400D01*
X218353600Y-82647400D02*
X218353600Y-78947400D01*
X220253600Y-82647400D02*
X218353600Y-82647400D01*
X218353600Y-86406600D02*
X218353600Y-82706600D01*
X220253600Y-86406600D02*
X218353600Y-86406600D01*
X220253600Y-82706600D02*
X220253600Y-86406600D01*
X218353600Y-82706600D02*
X220253600Y-82706600D01*
X216911800Y-82788800D02*
X213211800Y-82788800D01*
X216911800Y-80888800D02*
X216911800Y-82788800D01*
X213211800Y-80888800D02*
X216911800Y-80888800D01*
X213211800Y-82788800D02*
X213211800Y-80888800D01*
X216911800Y-84795400D02*
X213211800Y-84795400D01*
X216911800Y-82895400D02*
X216911800Y-84795400D01*
X213211800Y-82895400D02*
X216911800Y-82895400D01*
X213211800Y-84795400D02*
X213211800Y-82895400D01*
X216911800Y-80807600D02*
X213211800Y-80807600D01*
X216911800Y-78907600D02*
X216911800Y-80807600D01*
X213211800Y-78907600D02*
X216911800Y-78907600D01*
X213211800Y-80807600D02*
X213211800Y-78907600D01*
X216911800Y-86751200D02*
X213211800Y-86751200D01*
X216911800Y-84851200D02*
X216911800Y-86751200D01*
X213211800Y-84851200D02*
X216911800Y-84851200D01*
X213211800Y-86751200D02*
X213211800Y-84851200D01*
M02*
