  0
SECTION
  2
HEADER
  9
$ACADVER
  1
AC1014
  9
$HANDSEED
  5
FFFF
  9
$MEASUREMENT
 70
     1
  0
ENDSEC
  0
SECTION
  2
TABLES
  0
TABLE
  2
VPORT
  5
8
330
0
100
AcDbSymbolTable
 70
     4
  0
VPORT
  5
2E
330
8
100
AcDbSymbolTableRecord
100
AcDbViewportTableRecord
  2
*ACTIVE
 70
     0
 10
0.0
 20
0.0
 11
1.0
 21
1.0
 12
210.0
 22
148.5
 13
0.0
 23
0.0
 14
10.0
 24
10.0
 15
10.0
 25
10.0
 16
0.0
 26
0.0
 36
1.0
 17
0.0
 27
0.0
 37
0.0
 40
341.0
 41
1.24
 42
50.0
 43
0.0
 44
0.0
 50
0.0
 51
0.0
 71
     0
 72
   100
 73
     1
 74
     3
 75
     0
 76
     0
 77
     0
 78
     0
  0
ENDTAB
  0
TABLE
  2
LTYPE
  5
5
330
0
100
AcDbSymbolTable
 70
     1
  0
LTYPE
  5
14
330
5
100
AcDbSymbolTableRecord
100
AcDbLinetypeTableRecord
  2
BYBLOCK
 70
     0
  3

 72
    65
 73
     0
 40
0.0
  0
LTYPE
  5
15
330
5
100
AcDbSymbolTableRecord
100
AcDbLinetypeTableRecord
  2
BYLAYER
 70
     0
  3

 72
    65
 73
     0
 40
0.0
  0
LTYPE
  5
16
330
5
100
AcDbSymbolTableRecord
100
AcDbLinetypeTableRecord
  2
CONTINUOUS
 70
     0
  3
Solid line
 72
    65
 73
     0
 40
0.0
  0
ENDTAB
  0
TABLE
  2
LAYER
  5
2
100
AcDbSymbolTable
 70
1
  0
LAYER
  5
50
100
AcDbSymbolTableRecord
100
AcDbLayerTableRecord
  2
0
 70
0
  6
CONTINUOUS
  0
ENDTAB
  0
TABLE
  2
STYLE
  5
3
330
0
100
AcDbSymbolTable
 70
     1
  0
STYLE
  5
11
330
3
100
AcDbSymbolTableRecord
100
AcDbTextStyleTableRecord
  2
STANDARD
 70
     0
 40
0.0
 41
1.0
 50
0.0
 71
     0
 42
2.5
  3
txt
  4

  0
ENDTAB
  0
TABLE
  2
VIEW
  5
6
330
0
100
AcDbSymbolTable
 70
     0
  0
ENDTAB
  0
TABLE
  2
UCS
  5
7
330
0
100
AcDbSymbolTable
 70
     0
  0
ENDTAB
  0
TABLE
  2
APPID
  5
9
330
0
100
AcDbSymbolTable
 70
     2
  0
APPID
  5
12
330
9
100
AcDbSymbolTableRecord
100
AcDbRegAppTableRecord
  2
ACAD
 70
     0
  0
ENDTAB
  0
TABLE
  2
DIMSTYLE
  5
A
330
0
100
AcDbSymbolTable
 70
     1
  0
DIMSTYLE
105
27
330
A
100
AcDbSymbolTableRecord
100
AcDbDimStyleTableRecord
  2
ISO-25
 70
     0
  3

  4

  5

  6

  7

 40
1.0
 41
2.5
 42
0.625
 43
3.75
 44
1.25
 45
0.0
 46
0.0
 47
0.0
 48
0.0
140
2.5
141
2.5
142
0.0
143
0.03937007874016
144
1.0
145
0.0
146
1.0
147
0.625
 71
     0
 72
     0
 73
     0
 74
     0
 75
     0
 76
     0
 77
     1
 78
     8
170
     0
171
     3
172
     1
173
     0
174
     0
175
     0
176
     0
177
     0
178
     0
270
     2
271
     2
272
     2
273
     2
274
     3
340
11
275
     0
280
     0
281
     0
282
     0
283
     0
284
     8
285
     0
286
     0
287
     3
288
     0
  0
ENDTAB
  0
TABLE
  2
BLOCK_RECORD
  5
1
330
0
100
AcDbSymbolTable
 70
     1
  0
BLOCK_RECORD
  5
1F
330
1
100
AcDbSymbolTableRecord
100
AcDbBlockTableRecord
  2
*MODEL_SPACE
  0
BLOCK_RECORD
  5
1B
330
1
100
AcDbSymbolTableRecord
100
AcDbBlockTableRecord
  2
*PAPER_SPACE
  0
ENDTAB
  0
ENDSEC
  0
SECTION
  2
BLOCKS
  0
BLOCK
  5
20
330
1F
100
AcDbEntity
  8
0
100
AcDbBlockBegin
  2
*MODEL_SPACE
 70
     0
 10
0.0
 20
0.0
 30
0.0
  3
*MODEL_SPACE
  1

  0
ENDBLK
  5
21
330
1F
100
AcDbEntity
  8
0
100
AcDbBlockEnd
  0
BLOCK
  5
1C
330
1B
100
AcDbEntity
 67
     1
  8
0
100
AcDbBlockBegin
  2
*PAPER_SPACE
  1

  0
ENDBLK
  5
1D
330
1B
100
AcDbEntity
 67
     1
  8
0
100
AcDbBlockEnd
  0
ENDSEC
  0
SECTION
  2
ENTITIES
  0
LINE
  5
100
100
AcDbEntity
  8
0
 62
7
100
AcDbLine
 10
3.931200
 20
-4.883127
 30
0.0
 11
3.381200
 21
-4.883127
 31
0.0
  0
LINE
  5
101
100
AcDbEntity
  8
0
 62
7
100
AcDbLine
 10
3.381200
 20
-4.883127
 30
0.0
 11
3.381200
 21
-4.333127
 31
0.0
  0
LINE
  5
102
100
AcDbEntity
  8
0
 62
7
100
AcDbLine
 10
3.381200
 20
-4.333127
 30
0.0
 11
3.931200
 21
-4.333127
 31
0.0
  0
LINE
  5
103
100
AcDbEntity
  8
0
 62
7
100
AcDbLine
 10
3.931200
 20
-4.333127
 30
0.0
 11
3.931200
 21
-4.883127
 31
0.0
  0
LINE
  5
104
100
AcDbEntity
  8
0
 62
7
100
AcDbLine
 10
2.993700
 20
-4.883127
 30
0.0
 11
2.443700
 21
-4.883127
 31
0.0
  0
LINE
  5
105
100
AcDbEntity
  8
0
 62
7
100
AcDbLine
 10
2.443700
 20
-4.883127
 30
0.0
 11
2.443700
 21
-4.333127
 31
0.0
  0
LINE
  5
106
100
AcDbEntity
  8
0
 62
7
100
AcDbLine
 10
2.443700
 20
-4.333127
 30
0.0
 11
2.993700
 21
-4.333127
 31
0.0
  0
LINE
  5
107
100
AcDbEntity
  8
0
 62
7
100
AcDbLine
 10
2.993700
 20
-4.333127
 30
0.0
 11
2.993700
 21
-4.883127
 31
0.0
  0
LINE
  5
108
100
AcDbEntity
  8
0
 62
7
100
AcDbLine
 10
2.056200
 20
-4.883127
 30
0.0
 11
1.506200
 21
-4.883127
 31
0.0
  0
LINE
  5
109
100
AcDbEntity
  8
0
 62
7
100
AcDbLine
 10
1.506200
 20
-4.883127
 30
0.0
 11
1.506200
 21
-4.333127
 31
0.0
  0
LINE
  5
10a
100
AcDbEntity
  8
0
 62
7
100
AcDbLine
 10
1.506200
 20
-4.333127
 30
0.0
 11
2.056200
 21
-4.333127
 31
0.0
  0
LINE
  5
10b
100
AcDbEntity
  8
0
 62
7
100
AcDbLine
 10
2.056200
 20
-4.333127
 30
0.0
 11
2.056200
 21
-4.883127
 31
0.0
  0
LINE
  5
10c
100
AcDbEntity
  8
0
 62
7
100
AcDbLine
 10
1.118700
 20
-4.883127
 30
0.0
 11
0.568700
 21
-4.883127
 31
0.0
  0
LINE
  5
10d
100
AcDbEntity
  8
0
 62
7
100
AcDbLine
 10
0.568700
 20
-4.883127
 30
0.0
 11
0.568700
 21
-4.333127
 31
0.0
  0
LINE
  5
10e
100
AcDbEntity
  8
0
 62
7
100
AcDbLine
 10
0.568700
 20
-4.333127
 30
0.0
 11
1.118700
 21
-4.333127
 31
0.0
  0
LINE
  5
10f
100
AcDbEntity
  8
0
 62
7
100
AcDbLine
 10
1.118700
 20
-4.333127
 30
0.0
 11
1.118700
 21
-4.883127
 31
0.0
  0
LINE
  5
110
100
AcDbEntity
  8
0
 62
7
100
AcDbLine
 10
4.962500
 20
-3.583127
 30
0.0
 11
4.962500
 21
-4.133127
 31
0.0
  0
LINE
  5
111
100
AcDbEntity
  8
0
 62
7
100
AcDbLine
 10
4.412500
 20
-3.583127
 30
0.0
 11
4.962500
 21
-3.583127
 31
0.0
  0
LINE
  5
112
100
AcDbEntity
  8
0
 62
7
100
AcDbLine
 10
4.412500
 20
-4.133127
 30
0.0
 11
4.412500
 21
-3.583127
 31
0.0
  0
LINE
  5
113
100
AcDbEntity
  8
0
 62
7
100
AcDbLine
 10
4.962500
 20
-4.133127
 30
0.0
 11
4.412500
 21
-4.133127
 31
0.0
  0
LINE
  5
114
100
AcDbEntity
  8
0
 62
7
100
AcDbLine
 10
4.212500
 20
-3.583127
 30
0.0
 11
4.212500
 21
-4.133127
 31
0.0
  0
LINE
  5
115
100
AcDbEntity
  8
0
 62
7
100
AcDbLine
 10
3.662500
 20
-3.583127
 30
0.0
 11
4.212500
 21
-3.583127
 31
0.0
  0
LINE
  5
116
100
AcDbEntity
  8
0
 62
7
100
AcDbLine
 10
3.662500
 20
-4.133127
 30
0.0
 11
3.662500
 21
-3.583127
 31
0.0
  0
LINE
  5
117
100
AcDbEntity
  8
0
 62
7
100
AcDbLine
 10
4.212500
 20
-4.133127
 30
0.0
 11
3.662500
 21
-4.133127
 31
0.0
  0
LINE
  5
118
100
AcDbEntity
  8
0
 62
7
100
AcDbLine
 10
3.462500
 20
-3.583127
 30
0.0
 11
3.462500
 21
-4.133127
 31
0.0
  0
LINE
  5
119
100
AcDbEntity
  8
0
 62
7
100
AcDbLine
 10
2.912500
 20
-3.583127
 30
0.0
 11
3.462500
 21
-3.583127
 31
0.0
  0
LINE
  5
11a
100
AcDbEntity
  8
0
 62
7
100
AcDbLine
 10
2.912500
 20
-4.133127
 30
0.0
 11
2.912500
 21
-3.583127
 31
0.0
  0
LINE
  5
11b
100
AcDbEntity
  8
0
 62
7
100
AcDbLine
 10
3.462500
 20
-4.133127
 30
0.0
 11
2.912500
 21
-4.133127
 31
0.0
  0
LINE
  5
11c
100
AcDbEntity
  8
0
 62
7
100
AcDbLine
 10
2.712500
 20
-3.583127
 30
0.0
 11
2.712500
 21
-4.133127
 31
0.0
  0
LINE
  5
11d
100
AcDbEntity
  8
0
 62
7
100
AcDbLine
 10
2.162500
 20
-3.583127
 30
0.0
 11
2.712500
 21
-3.583127
 31
0.0
  0
LINE
  5
11e
100
AcDbEntity
  8
0
 62
7
100
AcDbLine
 10
2.162500
 20
-4.133127
 30
0.0
 11
2.162500
 21
-3.583127
 31
0.0
  0
LINE
  5
11f
100
AcDbEntity
  8
0
 62
7
100
AcDbLine
 10
2.712500
 20
-4.133127
 30
0.0
 11
2.162500
 21
-4.133127
 31
0.0
  0
LINE
  5
120
100
AcDbEntity
  8
0
 62
7
100
AcDbLine
 10
1.962500
 20
-3.583127
 30
0.0
 11
1.962500
 21
-4.133127
 31
0.0
  0
LINE
  5
121
100
AcDbEntity
  8
0
 62
7
100
AcDbLine
 10
1.412500
 20
-3.583127
 30
0.0
 11
1.962500
 21
-3.583127
 31
0.0
  0
LINE
  5
122
100
AcDbEntity
  8
0
 62
7
100
AcDbLine
 10
1.412500
 20
-4.133127
 30
0.0
 11
1.412500
 21
-3.583127
 31
0.0
  0
LINE
  5
123
100
AcDbEntity
  8
0
 62
7
100
AcDbLine
 10
1.962500
 20
-4.133127
 30
0.0
 11
1.412500
 21
-4.133127
 31
0.0
  0
LINE
  5
124
100
AcDbEntity
  8
0
 62
7
100
AcDbLine
 10
1.025000
 20
-3.583127
 30
0.0
 11
1.025000
 21
-4.133127
 31
0.0
  0
LINE
  5
125
100
AcDbEntity
  8
0
 62
7
100
AcDbLine
 10
0.475000
 20
-3.583127
 30
0.0
 11
1.025000
 21
-3.583127
 31
0.0
  0
LINE
  5
126
100
AcDbEntity
  8
0
 62
7
100
AcDbLine
 10
0.475000
 20
-4.133127
 30
0.0
 11
0.475000
 21
-3.583127
 31
0.0
  0
LINE
  5
127
100
AcDbEntity
  8
0
 62
7
100
AcDbLine
 10
1.025000
 20
-4.133127
 30
0.0
 11
0.475000
 21
-4.133127
 31
0.0
  0
LINE
  5
128
100
AcDbEntity
  8
0
 62
7
100
AcDbLine
 10
4.962500
 20
-2.833127
 30
0.0
 11
4.962500
 21
-3.383127
 31
0.0
  0
LINE
  5
129
100
AcDbEntity
  8
0
 62
7
100
AcDbLine
 10
4.412500
 20
-2.833127
 30
0.0
 11
4.962500
 21
-2.833127
 31
0.0
  0
LINE
  5
12a
100
AcDbEntity
  8
0
 62
7
100
AcDbLine
 10
4.412500
 20
-3.383127
 30
0.0
 11
4.412500
 21
-2.833127
 31
0.0
  0
LINE
  5
12b
100
AcDbEntity
  8
0
 62
7
100
AcDbLine
 10
4.962500
 20
-3.383127
 30
0.0
 11
4.412500
 21
-3.383127
 31
0.0
  0
LINE
  5
12c
100
AcDbEntity
  8
0
 62
7
100
AcDbLine
 10
4.212500
 20
-2.833127
 30
0.0
 11
4.212500
 21
-3.383127
 31
0.0
  0
LINE
  5
12d
100
AcDbEntity
  8
0
 62
7
100
AcDbLine
 10
3.662500
 20
-2.833127
 30
0.0
 11
4.212500
 21
-2.833127
 31
0.0
  0
LINE
  5
12e
100
AcDbEntity
  8
0
 62
7
100
AcDbLine
 10
3.662500
 20
-3.383127
 30
0.0
 11
3.662500
 21
-2.833127
 31
0.0
  0
LINE
  5
12f
100
AcDbEntity
  8
0
 62
7
100
AcDbLine
 10
4.212500
 20
-3.383127
 30
0.0
 11
3.662500
 21
-3.383127
 31
0.0
  0
LINE
  5
130
100
AcDbEntity
  8
0
 62
7
100
AcDbLine
 10
3.462500
 20
-2.833127
 30
0.0
 11
3.462500
 21
-3.383127
 31
0.0
  0
LINE
  5
131
100
AcDbEntity
  8
0
 62
7
100
AcDbLine
 10
2.912500
 20
-2.833127
 30
0.0
 11
3.462500
 21
-2.833127
 31
0.0
  0
LINE
  5
132
100
AcDbEntity
  8
0
 62
7
100
AcDbLine
 10
2.912500
 20
-3.383127
 30
0.0
 11
2.912500
 21
-2.833127
 31
0.0
  0
LINE
  5
133
100
AcDbEntity
  8
0
 62
7
100
AcDbLine
 10
3.462500
 20
-3.383127
 30
0.0
 11
2.912500
 21
-3.383127
 31
0.0
  0
LINE
  5
134
100
AcDbEntity
  8
0
 62
7
100
AcDbLine
 10
2.712500
 20
-2.833127
 30
0.0
 11
2.712500
 21
-3.383127
 31
0.0
  0
LINE
  5
135
100
AcDbEntity
  8
0
 62
7
100
AcDbLine
 10
2.162500
 20
-2.833127
 30
0.0
 11
2.712500
 21
-2.833127
 31
0.0
  0
LINE
  5
136
100
AcDbEntity
  8
0
 62
7
100
AcDbLine
 10
2.162500
 20
-3.383127
 30
0.0
 11
2.162500
 21
-2.833127
 31
0.0
  0
LINE
  5
137
100
AcDbEntity
  8
0
 62
7
100
AcDbLine
 10
2.712500
 20
-3.383127
 30
0.0
 11
2.162500
 21
-3.383127
 31
0.0
  0
LINE
  5
138
100
AcDbEntity
  8
0
 62
7
100
AcDbLine
 10
1.962500
 20
-2.833127
 30
0.0
 11
1.962500
 21
-3.383127
 31
0.0
  0
LINE
  5
139
100
AcDbEntity
  8
0
 62
7
100
AcDbLine
 10
1.412500
 20
-2.833127
 30
0.0
 11
1.962500
 21
-2.833127
 31
0.0
  0
LINE
  5
13a
100
AcDbEntity
  8
0
 62
7
100
AcDbLine
 10
1.412500
 20
-3.383127
 30
0.0
 11
1.412500
 21
-2.833127
 31
0.0
  0
LINE
  5
13b
100
AcDbEntity
  8
0
 62
7
100
AcDbLine
 10
1.962500
 20
-3.383127
 30
0.0
 11
1.412500
 21
-3.383127
 31
0.0
  0
LINE
  5
13c
100
AcDbEntity
  8
0
 62
7
100
AcDbLine
 10
1.025000
 20
-2.833127
 30
0.0
 11
1.025000
 21
-3.383127
 31
0.0
  0
LINE
  5
13d
100
AcDbEntity
  8
0
 62
7
100
AcDbLine
 10
0.475000
 20
-2.833127
 30
0.0
 11
1.025000
 21
-2.833127
 31
0.0
  0
LINE
  5
13e
100
AcDbEntity
  8
0
 62
7
100
AcDbLine
 10
0.475000
 20
-3.383127
 30
0.0
 11
0.475000
 21
-2.833127
 31
0.0
  0
LINE
  5
13f
100
AcDbEntity
  8
0
 62
7
100
AcDbLine
 10
1.025000
 20
-3.383127
 30
0.0
 11
0.475000
 21
-3.383127
 31
0.0
  0
LINE
  5
140
100
AcDbEntity
  8
0
 62
7
100
AcDbLine
 10
4.962500
 20
-2.083127
 30
0.0
 11
4.962500
 21
-2.633127
 31
0.0
  0
LINE
  5
141
100
AcDbEntity
  8
0
 62
7
100
AcDbLine
 10
4.412500
 20
-2.083127
 30
0.0
 11
4.962500
 21
-2.083127
 31
0.0
  0
LINE
  5
142
100
AcDbEntity
  8
0
 62
7
100
AcDbLine
 10
4.412500
 20
-2.633127
 30
0.0
 11
4.412500
 21
-2.083127
 31
0.0
  0
LINE
  5
143
100
AcDbEntity
  8
0
 62
7
100
AcDbLine
 10
4.962500
 20
-2.633127
 30
0.0
 11
4.412500
 21
-2.633127
 31
0.0
  0
LINE
  5
144
100
AcDbEntity
  8
0
 62
7
100
AcDbLine
 10
4.212500
 20
-2.083127
 30
0.0
 11
4.212500
 21
-2.633127
 31
0.0
  0
LINE
  5
145
100
AcDbEntity
  8
0
 62
7
100
AcDbLine
 10
3.662500
 20
-2.083127
 30
0.0
 11
4.212500
 21
-2.083127
 31
0.0
  0
LINE
  5
146
100
AcDbEntity
  8
0
 62
7
100
AcDbLine
 10
3.662500
 20
-2.633127
 30
0.0
 11
3.662500
 21
-2.083127
 31
0.0
  0
LINE
  5
147
100
AcDbEntity
  8
0
 62
7
100
AcDbLine
 10
4.212500
 20
-2.633127
 30
0.0
 11
3.662500
 21
-2.633127
 31
0.0
  0
LINE
  5
148
100
AcDbEntity
  8
0
 62
7
100
AcDbLine
 10
3.462500
 20
-2.083127
 30
0.0
 11
3.462500
 21
-2.633127
 31
0.0
  0
LINE
  5
149
100
AcDbEntity
  8
0
 62
7
100
AcDbLine
 10
2.912500
 20
-2.083127
 30
0.0
 11
3.462500
 21
-2.083127
 31
0.0
  0
LINE
  5
14a
100
AcDbEntity
  8
0
 62
7
100
AcDbLine
 10
2.912500
 20
-2.633127
 30
0.0
 11
2.912500
 21
-2.083127
 31
0.0
  0
LINE
  5
14b
100
AcDbEntity
  8
0
 62
7
100
AcDbLine
 10
3.462500
 20
-2.633127
 30
0.0
 11
2.912500
 21
-2.633127
 31
0.0
  0
LINE
  5
14c
100
AcDbEntity
  8
0
 62
7
100
AcDbLine
 10
2.712500
 20
-2.083127
 30
0.0
 11
2.712500
 21
-2.633127
 31
0.0
  0
LINE
  5
14d
100
AcDbEntity
  8
0
 62
7
100
AcDbLine
 10
2.162500
 20
-2.083127
 30
0.0
 11
2.712500
 21
-2.083127
 31
0.0
  0
LINE
  5
14e
100
AcDbEntity
  8
0
 62
7
100
AcDbLine
 10
2.162500
 20
-2.633127
 30
0.0
 11
2.162500
 21
-2.083127
 31
0.0
  0
LINE
  5
14f
100
AcDbEntity
  8
0
 62
7
100
AcDbLine
 10
2.712500
 20
-2.633127
 30
0.0
 11
2.162500
 21
-2.633127
 31
0.0
  0
LINE
  5
150
100
AcDbEntity
  8
0
 62
7
100
AcDbLine
 10
1.962500
 20
-2.083127
 30
0.0
 11
1.962500
 21
-2.633127
 31
0.0
  0
LINE
  5
151
100
AcDbEntity
  8
0
 62
7
100
AcDbLine
 10
1.412500
 20
-2.083127
 30
0.0
 11
1.962500
 21
-2.083127
 31
0.0
  0
LINE
  5
152
100
AcDbEntity
  8
0
 62
7
100
AcDbLine
 10
1.412500
 20
-2.633127
 30
0.0
 11
1.412500
 21
-2.083127
 31
0.0
  0
LINE
  5
153
100
AcDbEntity
  8
0
 62
7
100
AcDbLine
 10
1.962500
 20
-2.633127
 30
0.0
 11
1.412500
 21
-2.633127
 31
0.0
  0
LINE
  5
154
100
AcDbEntity
  8
0
 62
7
100
AcDbLine
 10
1.025000
 20
-2.083127
 30
0.0
 11
1.025000
 21
-2.633127
 31
0.0
  0
LINE
  5
155
100
AcDbEntity
  8
0
 62
7
100
AcDbLine
 10
0.475000
 20
-2.083127
 30
0.0
 11
1.025000
 21
-2.083127
 31
0.0
  0
LINE
  5
156
100
AcDbEntity
  8
0
 62
7
100
AcDbLine
 10
0.475000
 20
-2.633127
 30
0.0
 11
0.475000
 21
-2.083127
 31
0.0
  0
LINE
  5
157
100
AcDbEntity
  8
0
 62
7
100
AcDbLine
 10
1.025000
 20
-2.633127
 30
0.0
 11
0.475000
 21
-2.633127
 31
0.0
  0
LINE
  5
158
100
AcDbEntity
  8
0
 62
7
100
AcDbLine
 10
4.962500
 20
-1.333127
 30
0.0
 11
4.962500
 21
-1.883127
 31
0.0
  0
LINE
  5
159
100
AcDbEntity
  8
0
 62
7
100
AcDbLine
 10
4.412500
 20
-1.333127
 30
0.0
 11
4.962500
 21
-1.333127
 31
0.0
  0
LINE
  5
15a
100
AcDbEntity
  8
0
 62
7
100
AcDbLine
 10
4.412500
 20
-1.883127
 30
0.0
 11
4.412500
 21
-1.333127
 31
0.0
  0
LINE
  5
15b
100
AcDbEntity
  8
0
 62
7
100
AcDbLine
 10
4.962500
 20
-1.883127
 30
0.0
 11
4.412500
 21
-1.883127
 31
0.0
  0
LINE
  5
15c
100
AcDbEntity
  8
0
 62
7
100
AcDbLine
 10
4.212500
 20
-1.333127
 30
0.0
 11
4.212500
 21
-1.883127
 31
0.0
  0
LINE
  5
15d
100
AcDbEntity
  8
0
 62
7
100
AcDbLine
 10
3.662500
 20
-1.333127
 30
0.0
 11
4.212500
 21
-1.333127
 31
0.0
  0
LINE
  5
15e
100
AcDbEntity
  8
0
 62
7
100
AcDbLine
 10
3.662500
 20
-1.883127
 30
0.0
 11
3.662500
 21
-1.333127
 31
0.0
  0
LINE
  5
15f
100
AcDbEntity
  8
0
 62
7
100
AcDbLine
 10
4.212500
 20
-1.883127
 30
0.0
 11
3.662500
 21
-1.883127
 31
0.0
  0
LINE
  5
160
100
AcDbEntity
  8
0
 62
7
100
AcDbLine
 10
3.462500
 20
-1.333127
 30
0.0
 11
3.462500
 21
-1.883127
 31
0.0
  0
LINE
  5
161
100
AcDbEntity
  8
0
 62
7
100
AcDbLine
 10
2.912500
 20
-1.333127
 30
0.0
 11
3.462500
 21
-1.333127
 31
0.0
  0
LINE
  5
162
100
AcDbEntity
  8
0
 62
7
100
AcDbLine
 10
2.912500
 20
-1.883127
 30
0.0
 11
2.912500
 21
-1.333127
 31
0.0
  0
LINE
  5
163
100
AcDbEntity
  8
0
 62
7
100
AcDbLine
 10
3.462500
 20
-1.883127
 30
0.0
 11
2.912500
 21
-1.883127
 31
0.0
  0
LINE
  5
164
100
AcDbEntity
  8
0
 62
7
100
AcDbLine
 10
2.712500
 20
-1.333127
 30
0.0
 11
2.712500
 21
-1.883127
 31
0.0
  0
LINE
  5
165
100
AcDbEntity
  8
0
 62
7
100
AcDbLine
 10
2.162500
 20
-1.333127
 30
0.0
 11
2.712500
 21
-1.333127
 31
0.0
  0
LINE
  5
166
100
AcDbEntity
  8
0
 62
7
100
AcDbLine
 10
2.162500
 20
-1.883127
 30
0.0
 11
2.162500
 21
-1.333127
 31
0.0
  0
LINE
  5
167
100
AcDbEntity
  8
0
 62
7
100
AcDbLine
 10
2.712500
 20
-1.883127
 30
0.0
 11
2.162500
 21
-1.883127
 31
0.0
  0
LINE
  5
168
100
AcDbEntity
  8
0
 62
7
100
AcDbLine
 10
1.962500
 20
-1.333127
 30
0.0
 11
1.962500
 21
-1.883127
 31
0.0
  0
LINE
  5
169
100
AcDbEntity
  8
0
 62
7
100
AcDbLine
 10
1.412500
 20
-1.333127
 30
0.0
 11
1.962500
 21
-1.333127
 31
0.0
  0
LINE
  5
16a
100
AcDbEntity
  8
0
 62
7
100
AcDbLine
 10
1.412500
 20
-1.883127
 30
0.0
 11
1.412500
 21
-1.333127
 31
0.0
  0
LINE
  5
16b
100
AcDbEntity
  8
0
 62
7
100
AcDbLine
 10
1.962500
 20
-1.883127
 30
0.0
 11
1.412500
 21
-1.883127
 31
0.0
  0
LINE
  5
16c
100
AcDbEntity
  8
0
 62
7
100
AcDbLine
 10
1.025000
 20
-1.333127
 30
0.0
 11
1.025000
 21
-1.883127
 31
0.0
  0
LINE
  5
16d
100
AcDbEntity
  8
0
 62
7
100
AcDbLine
 10
0.475000
 20
-1.333127
 30
0.0
 11
1.025000
 21
-1.333127
 31
0.0
  0
LINE
  5
16e
100
AcDbEntity
  8
0
 62
7
100
AcDbLine
 10
0.475000
 20
-1.883127
 30
0.0
 11
0.475000
 21
-1.333127
 31
0.0
  0
LINE
  5
16f
100
AcDbEntity
  8
0
 62
7
100
AcDbLine
 10
1.025000
 20
-1.883127
 30
0.0
 11
0.475000
 21
-1.883127
 31
0.0
  0
LINE
  5
170
100
AcDbEntity
  8
0
 62
7
100
AcDbLine
 10
4.962500
 20
-0.583127
 30
0.0
 11
4.962500
 21
-1.133127
 31
0.0
  0
LINE
  5
171
100
AcDbEntity
  8
0
 62
7
100
AcDbLine
 10
4.412500
 20
-0.583127
 30
0.0
 11
4.962500
 21
-0.583127
 31
0.0
  0
LINE
  5
172
100
AcDbEntity
  8
0
 62
7
100
AcDbLine
 10
4.412500
 20
-1.133127
 30
0.0
 11
4.412500
 21
-0.583127
 31
0.0
  0
LINE
  5
173
100
AcDbEntity
  8
0
 62
7
100
AcDbLine
 10
4.962500
 20
-1.133127
 30
0.0
 11
4.412500
 21
-1.133127
 31
0.0
  0
LINE
  5
174
100
AcDbEntity
  8
0
 62
7
100
AcDbLine
 10
4.212500
 20
-0.583127
 30
0.0
 11
4.212500
 21
-1.133127
 31
0.0
  0
LINE
  5
175
100
AcDbEntity
  8
0
 62
7
100
AcDbLine
 10
3.662500
 20
-0.583127
 30
0.0
 11
4.212500
 21
-0.583127
 31
0.0
  0
LINE
  5
176
100
AcDbEntity
  8
0
 62
7
100
AcDbLine
 10
3.662500
 20
-1.133127
 30
0.0
 11
3.662500
 21
-0.583127
 31
0.0
  0
LINE
  5
177
100
AcDbEntity
  8
0
 62
7
100
AcDbLine
 10
4.212500
 20
-1.133127
 30
0.0
 11
3.662500
 21
-1.133127
 31
0.0
  0
LINE
  5
178
100
AcDbEntity
  8
0
 62
7
100
AcDbLine
 10
3.462500
 20
-0.583127
 30
0.0
 11
3.462500
 21
-1.133127
 31
0.0
  0
LINE
  5
179
100
AcDbEntity
  8
0
 62
7
100
AcDbLine
 10
2.912500
 20
-0.583127
 30
0.0
 11
3.462500
 21
-0.583127
 31
0.0
  0
LINE
  5
17a
100
AcDbEntity
  8
0
 62
7
100
AcDbLine
 10
2.912500
 20
-1.133127
 30
0.0
 11
2.912500
 21
-0.583127
 31
0.0
  0
LINE
  5
17b
100
AcDbEntity
  8
0
 62
7
100
AcDbLine
 10
3.462500
 20
-1.133127
 30
0.0
 11
2.912500
 21
-1.133127
 31
0.0
  0
LINE
  5
17c
100
AcDbEntity
  8
0
 62
7
100
AcDbLine
 10
2.712500
 20
-0.583127
 30
0.0
 11
2.712500
 21
-1.133127
 31
0.0
  0
LINE
  5
17d
100
AcDbEntity
  8
0
 62
7
100
AcDbLine
 10
2.162500
 20
-0.583127
 30
0.0
 11
2.712500
 21
-0.583127
 31
0.0
  0
LINE
  5
17e
100
AcDbEntity
  8
0
 62
7
100
AcDbLine
 10
2.162500
 20
-1.133127
 30
0.0
 11
2.162500
 21
-0.583127
 31
0.0
  0
LINE
  5
17f
100
AcDbEntity
  8
0
 62
7
100
AcDbLine
 10
2.712500
 20
-1.133127
 30
0.0
 11
2.162500
 21
-1.133127
 31
0.0
  0
LINE
  5
180
100
AcDbEntity
  8
0
 62
7
100
AcDbLine
 10
1.962500
 20
-0.583127
 30
0.0
 11
1.962500
 21
-1.133127
 31
0.0
  0
LINE
  5
181
100
AcDbEntity
  8
0
 62
7
100
AcDbLine
 10
1.412500
 20
-0.583127
 30
0.0
 11
1.962500
 21
-0.583127
 31
0.0
  0
LINE
  5
182
100
AcDbEntity
  8
0
 62
7
100
AcDbLine
 10
1.412500
 20
-1.133127
 30
0.0
 11
1.412500
 21
-0.583127
 31
0.0
  0
LINE
  5
183
100
AcDbEntity
  8
0
 62
7
100
AcDbLine
 10
1.962500
 20
-1.133127
 30
0.0
 11
1.412500
 21
-1.133127
 31
0.0
  0
LINE
  5
184
100
AcDbEntity
  8
0
 62
7
100
AcDbLine
 10
1.025000
 20
-0.583127
 30
0.0
 11
1.025000
 21
-1.133127
 31
0.0
  0
LINE
  5
185
100
AcDbEntity
  8
0
 62
7
100
AcDbLine
 10
0.475000
 20
-0.583127
 30
0.0
 11
1.025000
 21
-0.583127
 31
0.0
  0
LINE
  5
186
100
AcDbEntity
  8
0
 62
7
100
AcDbLine
 10
0.475000
 20
-1.133127
 30
0.0
 11
0.475000
 21
-0.583127
 31
0.0
  0
LINE
  5
187
100
AcDbEntity
  8
0
 62
7
100
AcDbLine
 10
1.025000
 20
-1.133127
 30
0.0
 11
0.475000
 21
-1.133127
 31
0.0
  0
LINE
  5
188
100
AcDbEntity
  8
0
 62
7
100
AcDbLine
 10
4.253100
 20
-5.325627
 30
0.0
 11
4.275000
 21
-5.265527
 31
0.0
  0
LINE
  5
189
100
AcDbEntity
  8
0
 62
7
100
AcDbLine
 10
4.105100
 20
-5.507027
 30
0.0
 11
4.166700
 21
-5.337827
 31
0.0
  0
LINE
  5
18a
100
AcDbEntity
  8
0
 62
7
100
AcDbLine
 10
4.463200
 20
-5.680927
 30
0.0
 11
4.451600
 21
-5.712927
 31
0.0
  0
LINE
  5
18b
100
AcDbEntity
  8
0
 62
7
100
AcDbLine
 10
4.589100
 20
-5.726827
 30
0.0
 11
4.463200
 21
-5.680927
 31
0.0
  0
LINE
  5
18c
100
AcDbEntity
  8
0
 62
7
100
AcDbLine
 10
4.782600
 20
-4.481927
 30
0.0
 11
4.886000
 21
-4.519527
 31
0.0
  0
LINE
  5
18d
100
AcDbEntity
  8
0
 62
7
100
AcDbLine
 10
4.148300
 20
-5.522727
 30
0.0
 11
4.105100
 21
-5.507027
 31
0.0
  0
LINE
  5
18e
100
AcDbEntity
  8
0
 62
7
100
AcDbLine
 10
4.488200
 20
-4.454527
 30
0.0
 11
4.531400
 21
-4.470327
 31
0.0
  0
LINE
  5
18f
100
AcDbEntity
  8
0
 62
7
100
AcDbLine
 10
4.419800
 20
-4.732927
 30
0.0
 11
4.463100
 21
-4.748727
 31
0.0
  0
LINE
  5
190
100
AcDbEntity
  8
0
 62
7
100
AcDbLine
 10
5.000200
 20
-4.597327
 30
0.0
 11
4.910600
 21
-4.843527
 31
0.0
  0
LINE
  5
191
100
AcDbEntity
  8
0
 62
7
100
AcDbLine
 10
4.463100
 20
-4.748727
 30
0.0
 11
4.485000
 21
-4.688527
 31
0.0
  0
LINE
  5
192
100
AcDbEntity
  8
0
 62
7
100
AcDbLine
 10
4.531400
 20
-4.470327
 30
0.0
 11
4.545400
 21
-4.431727
 31
0.0
  0
LINE
  5
193
100
AcDbEntity
  8
0
 62
7
100
AcDbLine
 10
4.231700
 20
-5.249827
 30
0.0
 11
4.419800
 21
-4.732927
 31
0.0
  0
LINE
  5
194
100
AcDbEntity
  8
0
 62
7
100
AcDbLine
 10
4.485000
 20
-4.688527
 30
0.0
 11
4.455800
 21
-4.677927
 31
0.0
  0
LINE
  5
195
100
AcDbEntity
  8
0
 62
7
100
AcDbLine
 10
4.936700
 20
-4.921127
 30
0.0
 11
4.748600
 21
-5.437927
 31
0.0
  0
LINE
  5
196
100
AcDbEntity
  8
0
 62
7
100
AcDbLine
 10
4.874300
 20
-4.551427
 30
0.0
 11
5.000200
 21
-4.597327
 31
0.0
  0
LINE
  5
197
100
AcDbEntity
  8
0
 62
7
100
AcDbLine
 10
4.858700
 20
-4.892727
 30
0.0
 11
4.936700
 21
-4.921127
 31
0.0
  0
LINE
  5
198
100
AcDbEntity
  8
0
 62
7
100
AcDbLine
 10
4.451600
 20
-5.712927
 30
0.0
 11
4.348200
 21
-5.675327
 31
0.0
  0
LINE
  5
199
100
AcDbEntity
  8
0
 62
7
100
AcDbLine
 10
4.771000
 20
-4.513827
 30
0.0
 11
4.782600
 21
-4.481927
 31
0.0
  0
LINE
  5
19a
100
AcDbEntity
  8
0
 62
7
100
AcDbLine
 10
4.910600
 20
-4.843527
 30
0.0
 11
4.880600
 21
-4.832527
 31
0.0
  0
LINE
  5
19b
100
AcDbEntity
  8
0
 62
7
100
AcDbLine
 10
4.275000
 20
-5.265527
 30
0.0
 11
4.231700
 21
-5.249827
 31
0.0
  0
LINE
  5
19c
100
AcDbEntity
  8
0
 62
7
100
AcDbLine
 10
4.209900
 20
-5.353627
 30
0.0
 11
4.223900
 21
-5.315027
 31
0.0
  0
LINE
  5
19d
100
AcDbEntity
  8
0
 62
7
100
AcDbLine
 10
4.886000
 20
-4.519527
 30
0.0
 11
4.874300
 21
-4.551427
 31
0.0
  0
LINE
  5
19e
100
AcDbEntity
  8
0
 62
7
100
AcDbLine
 10
4.223900
 20
-5.315027
 30
0.0
 11
4.253100
 21
-5.325627
 31
0.0
  0
LINE
  5
19f
100
AcDbEntity
  8
0
 62
7
100
AcDbLine
 10
4.359900
 20
-5.643327
 30
0.0
 11
4.134300
 21
-5.561227
 31
0.0
  0
LINE
  5
1a0
100
AcDbEntity
  8
0
 62
7
100
AcDbLine
 10
4.134300
 20
-5.561227
 30
0.0
 11
4.148300
 21
-5.522727
 31
0.0
  0
LINE
  5
1a1
100
AcDbEntity
  8
0
 62
7
100
AcDbLine
 10
4.678700
 20
-5.480627
 30
0.0
 11
4.589100
 21
-5.726827
 31
0.0
  0
LINE
  5
1a2
100
AcDbEntity
  8
0
 62
7
100
AcDbLine
 10
4.648700
 20
-5.469627
 30
0.0
 11
4.678700
 21
-5.480627
 31
0.0
  0
LINE
  5
1a3
100
AcDbEntity
  8
0
 62
7
100
AcDbLine
 10
4.670600
 20
-5.409527
 30
0.0
 11
4.648700
 21
-5.469627
 31
0.0
  0
LINE
  5
1a4
100
AcDbEntity
  8
0
 62
7
100
AcDbLine
 10
4.545400
 20
-4.431727
 30
0.0
 11
4.771000
 21
-4.513827
 31
0.0
  0
LINE
  5
1a5
100
AcDbEntity
  8
0
 62
7
100
AcDbLine
 10
4.166700
 20
-5.337827
 30
0.0
 11
4.209900
 21
-5.353627
 31
0.0
  0
LINE
  5
1a6
100
AcDbEntity
  8
0
 62
7
100
AcDbLine
 10
4.748600
 20
-5.437927
 30
0.0
 11
4.670600
 21
-5.409527
 31
0.0
  0
LINE
  5
1a7
100
AcDbEntity
  8
0
 62
7
100
AcDbLine
 10
4.426600
 20
-4.623727
 30
0.0
 11
4.488200
 21
-4.454527
 31
0.0
  0
LINE
  5
1a8
100
AcDbEntity
  8
0
 62
7
100
AcDbLine
 10
4.880600
 20
-4.832527
 30
0.0
 11
4.858700
 21
-4.892727
 31
0.0
  0
LINE
  5
1a9
100
AcDbEntity
  8
0
 62
7
100
AcDbLine
 10
4.348200
 20
-5.675327
 30
0.0
 11
4.359900
 21
-5.643327
 31
0.0
  0
LINE
  5
1aa
100
AcDbEntity
  8
0
 62
7
100
AcDbLine
 10
4.469800
 20
-4.639427
 30
0.0
 11
4.426600
 21
-4.623727
 31
0.0
  0
LINE
  5
1ab
100
AcDbEntity
  8
0
 62
7
100
AcDbLine
 10
4.455800
 20
-4.677927
 30
0.0
 11
4.469800
 21
-4.639427
 31
0.0
  0
LINE
  5
1ac
100
AcDbEntity
  8
0
 62
7
100
AcDbLine
 10
5.620100
 20
-5.101727
 30
0.0
 11
5.598200
 21
-5.161827
 31
0.0
  0
LINE
  5
1ad
100
AcDbEntity
  8
0
 62
7
100
AcDbLine
 10
5.768000
 20
-4.920427
 30
0.0
 11
5.706500
 21
-5.089527
 31
0.0
  0
LINE
  5
1ae
100
AcDbEntity
  8
0
 62
7
100
AcDbLine
 10
5.410000
 20
-4.746427
 30
0.0
 11
5.421600
 21
-4.714427
 31
0.0
  0
LINE
  5
1af
100
AcDbEntity
  8
0
 62
7
100
AcDbLine
 10
5.284000
 20
-4.700627
 30
0.0
 11
5.410000
 21
-4.746427
 31
0.0
  0
LINE
  5
1b0
100
AcDbEntity
  8
0
 62
7
100
AcDbLine
 10
5.090600
 20
-5.945527
 30
0.0
 11
4.987200
 21
-5.907827
 31
0.0
  0
LINE
  5
1b1
100
AcDbEntity
  8
0
 62
7
100
AcDbLine
 10
5.724800
 20
-4.904627
 30
0.0
 11
5.768000
 21
-4.920427
 31
0.0
  0
LINE
  5
1b2
100
AcDbEntity
  8
0
 62
7
100
AcDbLine
 10
5.385000
 20
-5.972827
 30
0.0
 11
5.341800
 21
-5.957127
 31
0.0
  0
LINE
  5
1b3
100
AcDbEntity
  8
0
 62
7
100
AcDbLine
 10
5.453300
 20
-5.694427
 30
0.0
 11
5.410100
 21
-5.678727
 31
0.0
  0
LINE
  5
1b4
100
AcDbEntity
  8
0
 62
7
100
AcDbLine
 10
4.872900
 20
-5.830127
 30
0.0
 11
4.962500
 21
-5.583927
 31
0.0
  0
LINE
  5
1b5
100
AcDbEntity
  8
0
 62
7
100
AcDbLine
 10
5.410100
 20
-5.678727
 30
0.0
 11
5.388200
 21
-5.738827
 31
0.0
  0
LINE
  5
1b6
100
AcDbEntity
  8
0
 62
7
100
AcDbLine
 10
5.341800
 20
-5.957127
 30
0.0
 11
5.327700
 21
-5.995627
 31
0.0
  0
LINE
  5
1b7
100
AcDbEntity
  8
0
 62
7
100
AcDbLine
 10
5.641400
 20
-5.177627
 30
0.0
 11
5.453300
 21
-5.694427
 31
0.0
  0
LINE
  5
1b8
100
AcDbEntity
  8
0
 62
7
100
AcDbLine
 10
5.388200
 20
-5.738827
 30
0.0
 11
5.417300
 21
-5.749427
 31
0.0
  0
LINE
  5
1b9
100
AcDbEntity
  8
0
 62
7
100
AcDbLine
 10
4.936500
 20
-5.506327
 30
0.0
 11
5.124600
 21
-4.989527
 31
0.0
  0
LINE
  5
1ba
100
AcDbEntity
  8
0
 62
7
100
AcDbLine
 10
4.998800
 20
-5.875927
 30
0.0
 11
4.872900
 21
-5.830127
 31
0.0
  0
LINE
  5
1bb
100
AcDbEntity
  8
0
 62
7
100
AcDbLine
 10
5.014500
 20
-5.534727
 30
0.0
 11
4.936500
 21
-5.506327
 31
0.0
  0
LINE
  5
1bc
100
AcDbEntity
  8
0
 62
7
100
AcDbLine
 10
5.421600
 20
-4.714427
 30
0.0
 11
5.524900
 21
-4.752127
 31
0.0
  0
LINE
  5
1bd
100
AcDbEntity
  8
0
 62
7
100
AcDbLine
 10
5.102200
 20
-5.913527
 30
0.0
 11
5.090600
 21
-5.945527
 31
0.0
  0
LINE
  5
1be
100
AcDbEntity
  8
0
 62
7
100
AcDbLine
 10
4.962500
 20
-5.583927
 30
0.0
 11
4.992600
 21
-5.594827
 31
0.0
  0
LINE
  5
1bf
100
AcDbEntity
  8
0
 62
7
100
AcDbLine
 10
5.598200
 20
-5.161827
 30
0.0
 11
5.641400
 21
-5.177627
 31
0.0
  0
LINE
  5
1c0
100
AcDbEntity
  8
0
 62
7
100
AcDbLine
 10
5.663300
 20
-5.073827
 30
0.0
 11
5.649200
 21
-5.112327
 31
0.0
  0
LINE
  5
1c1
100
AcDbEntity
  8
0
 62
7
100
AcDbLine
 10
4.987200
 20
-5.907827
 30
0.0
 11
4.998800
 21
-5.875927
 31
0.0
  0
LINE
  5
1c2
100
AcDbEntity
  8
0
 62
7
100
AcDbLine
 10
5.649200
 20
-5.112327
 30
0.0
 11
5.620100
 21
-5.101727
 31
0.0
  0
LINE
  5
1c3
100
AcDbEntity
  8
0
 62
7
100
AcDbLine
 10
5.513300
 20
-4.784027
 30
0.0
 11
5.738800
 21
-4.866127
 31
0.0
  0
LINE
  5
1c4
100
AcDbEntity
  8
0
 62
7
100
AcDbLine
 10
5.738800
 20
-4.866127
 30
0.0
 11
5.724800
 21
-4.904627
 31
0.0
  0
LINE
  5
1c5
100
AcDbEntity
  8
0
 62
7
100
AcDbLine
 10
5.194400
 20
-4.946827
 30
0.0
 11
5.284000
 21
-4.700627
 31
0.0
  0
LINE
  5
1c6
100
AcDbEntity
  8
0
 62
7
100
AcDbLine
 10
5.224500
 20
-4.957727
 30
0.0
 11
5.194400
 21
-4.946827
 31
0.0
  0
LINE
  5
1c7
100
AcDbEntity
  8
0
 62
7
100
AcDbLine
 10
5.202600
 20
-5.017827
 30
0.0
 11
5.224500
 21
-4.957727
 31
0.0
  0
LINE
  5
1c8
100
AcDbEntity
  8
0
 62
7
100
AcDbLine
 10
5.327700
 20
-5.995627
 30
0.0
 11
5.102200
 21
-5.913527
 31
0.0
  0
LINE
  5
1c9
100
AcDbEntity
  8
0
 62
7
100
AcDbLine
 10
5.706500
 20
-5.089527
 30
0.0
 11
5.663300
 21
-5.073827
 31
0.0
  0
LINE
  5
1ca
100
AcDbEntity
  8
0
 62
7
100
AcDbLine
 10
5.124600
 20
-4.989527
 30
0.0
 11
5.202600
 21
-5.017827
 31
0.0
  0
LINE
  5
1cb
100
AcDbEntity
  8
0
 62
7
100
AcDbLine
 10
5.446500
 20
-5.803727
 30
0.0
 11
5.385000
 21
-5.972827
 31
0.0
  0
LINE
  5
1cc
100
AcDbEntity
  8
0
 62
7
100
AcDbLine
 10
4.992600
 20
-5.594827
 30
0.0
 11
5.014500
 21
-5.534727
 31
0.0
  0
LINE
  5
1cd
100
AcDbEntity
  8
0
 62
7
100
AcDbLine
 10
5.524900
 20
-4.752127
 30
0.0
 11
5.513300
 21
-4.784027
 31
0.0
  0
LINE
  5
1ce
100
AcDbEntity
  8
0
 62
7
100
AcDbLine
 10
5.403300
 20
-5.787927
 30
0.0
 11
5.446500
 21
-5.803727
 31
0.0
  0
LINE
  5
1cf
100
AcDbEntity
  8
0
 62
7
100
AcDbLine
 10
5.417300
 20
-5.749427
 30
0.0
 11
5.403300
 21
-5.787927
 31
0.0
  0
ENDSEC
  0
SECTION
  2
OBJECTS
  0
DICTIONARY
  5
C
330
0
100
AcDbDictionary
  3
ACAD_GROUP
350
D
  3
ACAD_MLINESTYLE
350
17
  0
DICTIONARY
  5
D
330
C
100
AcDbDictionary
  0
DICTIONARY
  5
1A
330
C
100
AcDbDictionary
  0
DICTIONARY
  5
17
330
C
100
AcDbDictionary
  3
STANDARD
350
18
  0
DICTIONARY
  5
19
330
C
100
AcDbDictionary
  0
ENDSEC
  0
EOF
