  0
SECTION
  2
HEADER
  9
$ANGBASE
  50
0.0
  9
$ANGDIR
  70
1
  9
$MEASUREMENT
  70
1
  0
ENDSEC
  0
SECTION
  2
TABLES
  0
TABLE
  2
LTYPE
  70
4
  0
LTYPE
  5
40F
  2
CONTINUOUS
  70
0
  3
Solid line
  72
65
  73
0
  40
0.0
  0
LTYPE
  5
410
  2
DASHDOT
 70
0
  3
Dash Dot ____ _ ____ _
 72
65
 73
4
 40
2.0
 49
1.25
 49
-0.25
 49
0.25
 49
-0.25
  0
LTYPE
  5
411
  2
DASHED
 70
0
  3
Dashed __ __ __ __ __
 72
65
 73
2
 40
0.75
 49
0.5
 49
-0.25
  0
LTYPE
  5
43B
  2
DOTTED
 70
0
  3
Dotted .  .  .  .
 72
65
 73
2
 40
0.2
 49
0.0
 49
-0.2
  0
ENDTAB
  0
TABLE
  2
STYLE
  70
4
  0
STYLE
  2
KICAD
  70
0
  40
0
  41
1
  42
1
  50
0
  71
0
  3
isocp.shx
  0
STYLE
  2
KICADB
  70
0
  40
0
  41
1
  42
1
  50
0
  71
0
  3
isocp.shx
  0
STYLE
  2
KICADI
  70
0
  40
0
  41
1
  42
1
  50
15
  71
0
  3
isocp.shx
  0
STYLE
  2
KICADBI
  70
0
  40
0
  41
1
  42
1
  50
15
  71
0
  3
isocp.shx
  0
ENDTAB
  0
TABLE
  2
LAYER
  70
1
  0
LAYER
  2
BLACK
  70
0
  62
7
  6
CONTINUOUS
  0
ENDTAB
  0
ENDSEC
  0
SECTION
  2
ENTITIES
0
LINE
8
BLACK
6
CONTINUOUS
10
90.5129
20
-49.2506
11
90.5129
21
-55.6006
0
LINE
8
BLACK
6
CONTINUOUS
10
87.3379
20
-52.4256
11
93.6879
21
-52.4256
0
LINE
8
BLACK
6
CONTINUOUS
10
131.839
20
-101.498
11
131.839
21
-107.848
0
LINE
8
BLACK
6
CONTINUOUS
10
128.664
20
-104.673
11
135.014
21
-104.673
0
LINE
8
BLACK
6
CONTINUOUS
10
9.5885
20
-106.185
11
9.5885
21
-112.535
0
LINE
8
BLACK
6
CONTINUOUS
10
6.4135
20
-109.36
11
12.7635
21
-109.36
0
LINE
8
BLACK
6
CONTINUOUS
10
9.6012
20
-68.1863
11
9.6012
21
-74.5363
0
LINE
8
BLACK
6
CONTINUOUS
10
6.4262
20
-71.3613
11
12.7762
21
-71.3613
0
LINE
8
BLACK
6
CONTINUOUS
10
57.1119
20
-112.865
11
57.1119
21
-119.215
0
LINE
8
BLACK
6
CONTINUOUS
10
53.9369
20
-116.04
11
60.2869
21
-116.04
0
LINE
8
BLACK
6
CONTINUOUS
10
80.8736
20
-112.42
11
80.8736
21
-118.77
0
LINE
8
BLACK
6
CONTINUOUS
10
77.6986
20
-115.595
11
84.0486
21
-115.595
0
LINE
8
BLACK
6
CONTINUOUS
10
52.4129
20
-49.2125
11
52.4129
21
-55.5625
0
LINE
8
BLACK
6
CONTINUOUS
10
49.2379
20
-52.3875
11
55.5879
21
-52.3875
0
LINE
8
BLACK
6
CONTINUOUS
10
10.414
20
-30.1879
11
10.414
21
-36.5379
0
LINE
8
BLACK
6
CONTINUOUS
10
7.239
20
-33.3629
11
13.589
21
-33.3629
0
LINE
8
BLACK
6
CONTINUOUS
10
49.8475
20
-16.8275
11
49.8475
21
-30.7975
0
LINE
8
BLACK
6
CONTINUOUS
10
35.8775
20
-16.8275
11
49.8475
21
-16.8275
0
LINE
8
BLACK
6
CONTINUOUS
10
35.8775
20
-30.7975
11
35.8775
21
-16.8275
0
LINE
8
BLACK
6
CONTINUOUS
10
49.8475
20
-30.7975
11
35.8775
21
-30.7975
0
LINE
8
BLACK
6
CONTINUOUS
10
35.3625
20
-26.9875
11
35.3625
21
-30.7975
0
LINE
8
BLACK
6
CONTINUOUS
10
49.8475
20
-24.5125
11
52.3625
21
-24.5125
0
LINE
8
BLACK
6
CONTINUOUS
10
52.3625
20
-24.5125
11
52.3625
21
-29.3125
0
LINE
8
BLACK
6
CONTINUOUS
10
52.3625
20
-29.3125
11
49.8475
21
-29.3125
0
LINE
8
BLACK
6
CONTINUOUS
10
35.8775
20
-30.7975
11
35.3625
21
-30.7975
0
LINE
8
BLACK
6
CONTINUOUS
10
35.8775
20
-26.9875
11
35.3625
21
-26.9875
0
LINE
8
BLACK
6
CONTINUOUS
10
35.8775
20
-22.2885
11
38.5445
21
-22.2885
0
LINE
8
BLACK
6
CONTINUOUS
10
38.5445
20
-22.2885
11
38.5445
21
-16.8275
0
LINE
8
BLACK
6
CONTINUOUS
10
68.8975
20
-16.8275
11
68.8975
21
-30.7975
0
LINE
8
BLACK
6
CONTINUOUS
10
54.9275
20
-16.8275
11
68.8975
21
-16.8275
0
LINE
8
BLACK
6
CONTINUOUS
10
54.9275
20
-30.7975
11
54.9275
21
-16.8275
0
LINE
8
BLACK
6
CONTINUOUS
10
68.8975
20
-30.7975
11
54.9275
21
-30.7975
0
LINE
8
BLACK
6
CONTINUOUS
10
54.4125
20
-26.9875
11
54.4125
21
-30.7975
0
LINE
8
BLACK
6
CONTINUOUS
10
68.8975
20
-24.5125
11
71.4125
21
-24.5125
0
LINE
8
BLACK
6
CONTINUOUS
10
71.4125
20
-24.5125
11
71.4125
21
-29.3125
0
LINE
8
BLACK
6
CONTINUOUS
10
71.4125
20
-29.3125
11
68.8975
21
-29.3125
0
LINE
8
BLACK
6
CONTINUOUS
10
54.9275
20
-30.7975
11
54.4125
21
-30.7975
0
LINE
8
BLACK
6
CONTINUOUS
10
54.9275
20
-26.9875
11
54.4125
21
-26.9875
0
LINE
8
BLACK
6
CONTINUOUS
10
54.9275
20
-22.2885
11
57.5945
21
-22.2885
0
LINE
8
BLACK
6
CONTINUOUS
10
57.5945
20
-22.2885
11
57.5945
21
-16.8275
0
LINE
8
BLACK
6
CONTINUOUS
10
87.9475
20
-16.8275
11
87.9475
21
-30.7975
0
LINE
8
BLACK
6
CONTINUOUS
10
73.9775
20
-16.8275
11
87.9475
21
-16.8275
0
LINE
8
BLACK
6
CONTINUOUS
10
73.9775
20
-30.7975
11
73.9775
21
-16.8275
0
LINE
8
BLACK
6
CONTINUOUS
10
87.9475
20
-30.7975
11
73.9775
21
-30.7975
0
LINE
8
BLACK
6
CONTINUOUS
10
73.4625
20
-26.9875
11
73.4625
21
-30.7975
0
LINE
8
BLACK
6
CONTINUOUS
10
87.9475
20
-24.5125
11
90.4625
21
-24.5125
0
LINE
8
BLACK
6
CONTINUOUS
10
90.4625
20
-24.5125
11
90.4625
21
-29.3125
0
LINE
8
BLACK
6
CONTINUOUS
10
90.4625
20
-29.3125
11
87.9475
21
-29.3125
0
LINE
8
BLACK
6
CONTINUOUS
10
73.9775
20
-30.7975
11
73.4625
21
-30.7975
0
LINE
8
BLACK
6
CONTINUOUS
10
73.9775
20
-26.9875
11
73.4625
21
-26.9875
0
LINE
8
BLACK
6
CONTINUOUS
10
73.9775
20
-22.2885
11
76.6445
21
-22.2885
0
LINE
8
BLACK
6
CONTINUOUS
10
76.6445
20
-22.2885
11
76.6445
21
-16.8275
0
LINE
8
BLACK
6
CONTINUOUS
10
106.997
20
-16.8275
11
106.997
21
-30.7975
0
LINE
8
BLACK
6
CONTINUOUS
10
93.0275
20
-16.8275
11
106.997
21
-16.8275
0
LINE
8
BLACK
6
CONTINUOUS
10
93.0275
20
-30.7975
11
93.0275
21
-16.8275
0
LINE
8
BLACK
6
CONTINUOUS
10
106.997
20
-30.7975
11
93.0275
21
-30.7975
0
LINE
8
BLACK
6
CONTINUOUS
10
92.5125
20
-26.9875
11
92.5125
21
-30.7975
0
LINE
8
BLACK
6
CONTINUOUS
10
106.997
20
-24.5125
11
109.512
21
-24.5125
0
LINE
8
BLACK
6
CONTINUOUS
10
109.512
20
-24.5125
11
109.512
21
-29.3125
0
LINE
8
BLACK
6
CONTINUOUS
10
109.512
20
-29.3125
11
106.997
21
-29.3125
0
LINE
8
BLACK
6
CONTINUOUS
10
93.0275
20
-30.7975
11
92.5125
21
-30.7975
0
LINE
8
BLACK
6
CONTINUOUS
10
93.0275
20
-26.9875
11
92.5125
21
-26.9875
0
LINE
8
BLACK
6
CONTINUOUS
10
93.0275
20
-22.2885
11
95.6945
21
-22.2885
0
LINE
8
BLACK
6
CONTINUOUS
10
95.6945
20
-22.2885
11
95.6945
21
-16.8275
0
LINE
8
BLACK
6
CONTINUOUS
10
126.047
20
-16.8275
11
126.047
21
-30.7975
0
LINE
8
BLACK
6
CONTINUOUS
10
112.078
20
-16.8275
11
126.047
21
-16.8275
0
LINE
8
BLACK
6
CONTINUOUS
10
112.078
20
-30.7975
11
112.078
21
-16.8275
0
LINE
8
BLACK
6
CONTINUOUS
10
126.047
20
-30.7975
11
112.078
21
-30.7975
0
LINE
8
BLACK
6
CONTINUOUS
10
111.562
20
-26.9875
11
111.562
21
-30.7975
0
LINE
8
BLACK
6
CONTINUOUS
10
126.047
20
-24.5125
11
128.562
21
-24.5125
0
LINE
8
BLACK
6
CONTINUOUS
10
128.562
20
-24.5125
11
128.562
21
-29.3125
0
LINE
8
BLACK
6
CONTINUOUS
10
128.562
20
-29.3125
11
126.047
21
-29.3125
0
LINE
8
BLACK
6
CONTINUOUS
10
112.078
20
-30.7975
11
111.562
21
-30.7975
0
LINE
8
BLACK
6
CONTINUOUS
10
112.078
20
-26.9875
11
111.562
21
-26.9875
0
LINE
8
BLACK
6
CONTINUOUS
10
112.078
20
-22.2885
11
114.744
21
-22.2885
0
LINE
8
BLACK
6
CONTINUOUS
10
114.744
20
-22.2885
11
114.744
21
-16.8275
0
LINE
8
BLACK
6
CONTINUOUS
10
49.8475
20
-35.8775
11
49.8475
21
-49.8475
0
LINE
8
BLACK
6
CONTINUOUS
10
35.8775
20
-35.8775
11
49.8475
21
-35.8775
0
LINE
8
BLACK
6
CONTINUOUS
10
35.8775
20
-49.8475
11
35.8775
21
-35.8775
0
LINE
8
BLACK
6
CONTINUOUS
10
49.8475
20
-49.8475
11
35.8775
21
-49.8475
0
LINE
8
BLACK
6
CONTINUOUS
10
35.3625
20
-46.0375
11
35.3625
21
-49.8475
0
LINE
8
BLACK
6
CONTINUOUS
10
49.8475
20
-43.5625
11
52.3625
21
-43.5625
0
LINE
8
BLACK
6
CONTINUOUS
10
52.3625
20
-43.5625
11
52.3625
21
-48.3625
0
LINE
8
BLACK
6
CONTINUOUS
10
52.3625
20
-48.3625
11
49.8475
21
-48.3625
0
LINE
8
BLACK
6
CONTINUOUS
10
35.8775
20
-49.8475
11
35.3625
21
-49.8475
0
LINE
8
BLACK
6
CONTINUOUS
10
35.8775
20
-46.0375
11
35.3625
21
-46.0375
0
LINE
8
BLACK
6
CONTINUOUS
10
35.8775
20
-41.3385
11
38.5445
21
-41.3385
0
LINE
8
BLACK
6
CONTINUOUS
10
38.5445
20
-41.3385
11
38.5445
21
-35.8775
0
LINE
8
BLACK
6
CONTINUOUS
10
68.8975
20
-35.8775
11
68.8975
21
-49.8475
0
LINE
8
BLACK
6
CONTINUOUS
10
54.9275
20
-35.8775
11
68.8975
21
-35.8775
0
LINE
8
BLACK
6
CONTINUOUS
10
54.9275
20
-49.8475
11
54.9275
21
-35.8775
0
LINE
8
BLACK
6
CONTINUOUS
10
68.8975
20
-49.8475
11
54.9275
21
-49.8475
0
LINE
8
BLACK
6
CONTINUOUS
10
54.4125
20
-46.0375
11
54.4125
21
-49.8475
0
LINE
8
BLACK
6
CONTINUOUS
10
68.8975
20
-43.5625
11
71.4125
21
-43.5625
0
LINE
8
BLACK
6
CONTINUOUS
10
71.4125
20
-43.5625
11
71.4125
21
-48.3625
0
LINE
8
BLACK
6
CONTINUOUS
10
71.4125
20
-48.3625
11
68.8975
21
-48.3625
0
LINE
8
BLACK
6
CONTINUOUS
10
54.9275
20
-49.8475
11
54.4125
21
-49.8475
0
LINE
8
BLACK
6
CONTINUOUS
10
54.9275
20
-46.0375
11
54.4125
21
-46.0375
0
LINE
8
BLACK
6
CONTINUOUS
10
54.9275
20
-41.3385
11
57.5945
21
-41.3385
0
LINE
8
BLACK
6
CONTINUOUS
10
57.5945
20
-41.3385
11
57.5945
21
-35.8775
0
LINE
8
BLACK
6
CONTINUOUS
10
87.9475
20
-35.8775
11
87.9475
21
-49.8475
0
LINE
8
BLACK
6
CONTINUOUS
10
73.9775
20
-35.8775
11
87.9475
21
-35.8775
0
LINE
8
BLACK
6
CONTINUOUS
10
73.9775
20
-49.8475
11
73.9775
21
-35.8775
0
LINE
8
BLACK
6
CONTINUOUS
10
87.9475
20
-49.8475
11
73.9775
21
-49.8475
0
LINE
8
BLACK
6
CONTINUOUS
10
73.4625
20
-46.0375
11
73.4625
21
-49.8475
0
LINE
8
BLACK
6
CONTINUOUS
10
87.9475
20
-43.5625
11
90.4625
21
-43.5625
0
LINE
8
BLACK
6
CONTINUOUS
10
90.4625
20
-43.5625
11
90.4625
21
-48.3625
0
LINE
8
BLACK
6
CONTINUOUS
10
90.4625
20
-48.3625
11
87.9475
21
-48.3625
0
LINE
8
BLACK
6
CONTINUOUS
10
73.9775
20
-49.8475
11
73.4625
21
-49.8475
0
LINE
8
BLACK
6
CONTINUOUS
10
73.9775
20
-46.0375
11
73.4625
21
-46.0375
0
LINE
8
BLACK
6
CONTINUOUS
10
73.9775
20
-41.3385
11
76.6445
21
-41.3385
0
LINE
8
BLACK
6
CONTINUOUS
10
76.6445
20
-41.3385
11
76.6445
21
-35.8775
0
LINE
8
BLACK
6
CONTINUOUS
10
106.997
20
-35.8775
11
106.997
21
-49.8475
0
LINE
8
BLACK
6
CONTINUOUS
10
93.0275
20
-35.8775
11
106.997
21
-35.8775
0
LINE
8
BLACK
6
CONTINUOUS
10
93.0275
20
-49.8475
11
93.0275
21
-35.8775
0
LINE
8
BLACK
6
CONTINUOUS
10
106.997
20
-49.8475
11
93.0275
21
-49.8475
0
LINE
8
BLACK
6
CONTINUOUS
10
92.5125
20
-46.0375
11
92.5125
21
-49.8475
0
LINE
8
BLACK
6
CONTINUOUS
10
106.997
20
-43.5625
11
109.512
21
-43.5625
0
LINE
8
BLACK
6
CONTINUOUS
10
109.512
20
-43.5625
11
109.512
21
-48.3625
0
LINE
8
BLACK
6
CONTINUOUS
10
109.512
20
-48.3625
11
106.997
21
-48.3625
0
LINE
8
BLACK
6
CONTINUOUS
10
93.0275
20
-49.8475
11
92.5125
21
-49.8475
0
LINE
8
BLACK
6
CONTINUOUS
10
93.0275
20
-46.0375
11
92.5125
21
-46.0375
0
LINE
8
BLACK
6
CONTINUOUS
10
93.0275
20
-41.3385
11
95.6945
21
-41.3385
0
LINE
8
BLACK
6
CONTINUOUS
10
95.6945
20
-41.3385
11
95.6945
21
-35.8775
0
LINE
8
BLACK
6
CONTINUOUS
10
126.047
20
-35.8775
11
126.047
21
-49.8475
0
LINE
8
BLACK
6
CONTINUOUS
10
112.078
20
-35.8775
11
126.047
21
-35.8775
0
LINE
8
BLACK
6
CONTINUOUS
10
112.078
20
-49.8475
11
112.078
21
-35.8775
0
LINE
8
BLACK
6
CONTINUOUS
10
126.047
20
-49.8475
11
112.078
21
-49.8475
0
LINE
8
BLACK
6
CONTINUOUS
10
111.562
20
-46.0375
11
111.562
21
-49.8475
0
LINE
8
BLACK
6
CONTINUOUS
10
126.047
20
-43.5625
11
128.562
21
-43.5625
0
LINE
8
BLACK
6
CONTINUOUS
10
128.562
20
-43.5625
11
128.562
21
-48.3625
0
LINE
8
BLACK
6
CONTINUOUS
10
128.562
20
-48.3625
11
126.047
21
-48.3625
0
LINE
8
BLACK
6
CONTINUOUS
10
112.078
20
-49.8475
11
111.562
21
-49.8475
0
LINE
8
BLACK
6
CONTINUOUS
10
112.078
20
-46.0375
11
111.562
21
-46.0375
0
LINE
8
BLACK
6
CONTINUOUS
10
112.078
20
-41.3385
11
114.744
21
-41.3385
0
LINE
8
BLACK
6
CONTINUOUS
10
114.744
20
-41.3385
11
114.744
21
-35.8775
0
LINE
8
BLACK
6
CONTINUOUS
10
49.8475
20
-54.9275
11
49.8475
21
-68.8975
0
LINE
8
BLACK
6
CONTINUOUS
10
35.8775
20
-54.9275
11
49.8475
21
-54.9275
0
LINE
8
BLACK
6
CONTINUOUS
10
35.8775
20
-68.8975
11
35.8775
21
-54.9275
0
LINE
8
BLACK
6
CONTINUOUS
10
49.8475
20
-68.8975
11
35.8775
21
-68.8975
0
LINE
8
BLACK
6
CONTINUOUS
10
35.3625
20
-65.0875
11
35.3625
21
-68.8975
0
LINE
8
BLACK
6
CONTINUOUS
10
49.8475
20
-62.6125
11
52.3625
21
-62.6125
0
LINE
8
BLACK
6
CONTINUOUS
10
52.3625
20
-62.6125
11
52.3625
21
-67.4125
0
LINE
8
BLACK
6
CONTINUOUS
10
52.3625
20
-67.4125
11
49.8475
21
-67.4125
0
LINE
8
BLACK
6
CONTINUOUS
10
35.8775
20
-68.8975
11
35.3625
21
-68.8975
0
LINE
8
BLACK
6
CONTINUOUS
10
35.8775
20
-65.0875
11
35.3625
21
-65.0875
0
LINE
8
BLACK
6
CONTINUOUS
10
35.8775
20
-60.3885
11
38.5445
21
-60.3885
0
LINE
8
BLACK
6
CONTINUOUS
10
38.5445
20
-60.3885
11
38.5445
21
-54.9275
0
LINE
8
BLACK
6
CONTINUOUS
10
68.8975
20
-54.9275
11
68.8975
21
-68.8975
0
LINE
8
BLACK
6
CONTINUOUS
10
54.9275
20
-54.9275
11
68.8975
21
-54.9275
0
LINE
8
BLACK
6
CONTINUOUS
10
54.9275
20
-68.8975
11
54.9275
21
-54.9275
0
LINE
8
BLACK
6
CONTINUOUS
10
68.8975
20
-68.8975
11
54.9275
21
-68.8975
0
LINE
8
BLACK
6
CONTINUOUS
10
54.4125
20
-65.0875
11
54.4125
21
-68.8975
0
LINE
8
BLACK
6
CONTINUOUS
10
68.8975
20
-62.6125
11
71.4125
21
-62.6125
0
LINE
8
BLACK
6
CONTINUOUS
10
71.4125
20
-62.6125
11
71.4125
21
-67.4125
0
LINE
8
BLACK
6
CONTINUOUS
10
71.4125
20
-67.4125
11
68.8975
21
-67.4125
0
LINE
8
BLACK
6
CONTINUOUS
10
54.9275
20
-68.8975
11
54.4125
21
-68.8975
0
LINE
8
BLACK
6
CONTINUOUS
10
54.9275
20
-65.0875
11
54.4125
21
-65.0875
0
LINE
8
BLACK
6
CONTINUOUS
10
54.9275
20
-60.3885
11
57.5945
21
-60.3885
0
LINE
8
BLACK
6
CONTINUOUS
10
57.5945
20
-60.3885
11
57.5945
21
-54.9275
0
LINE
8
BLACK
6
CONTINUOUS
10
87.9475
20
-54.9275
11
87.9475
21
-68.8975
0
LINE
8
BLACK
6
CONTINUOUS
10
73.9775
20
-54.9275
11
87.9475
21
-54.9275
0
LINE
8
BLACK
6
CONTINUOUS
10
73.9775
20
-68.8975
11
73.9775
21
-54.9275
0
LINE
8
BLACK
6
CONTINUOUS
10
87.9475
20
-68.8975
11
73.9775
21
-68.8975
0
LINE
8
BLACK
6
CONTINUOUS
10
73.4625
20
-65.0875
11
73.4625
21
-68.8975
0
LINE
8
BLACK
6
CONTINUOUS
10
87.9475
20
-62.6125
11
90.4625
21
-62.6125
0
LINE
8
BLACK
6
CONTINUOUS
10
90.4625
20
-62.6125
11
90.4625
21
-67.4125
0
LINE
8
BLACK
6
CONTINUOUS
10
90.4625
20
-67.4125
11
87.9475
21
-67.4125
0
LINE
8
BLACK
6
CONTINUOUS
10
73.9775
20
-68.8975
11
73.4625
21
-68.8975
0
LINE
8
BLACK
6
CONTINUOUS
10
73.9775
20
-65.0875
11
73.4625
21
-65.0875
0
LINE
8
BLACK
6
CONTINUOUS
10
73.9775
20
-60.3885
11
76.6445
21
-60.3885
0
LINE
8
BLACK
6
CONTINUOUS
10
76.6445
20
-60.3885
11
76.6445
21
-54.9275
0
LINE
8
BLACK
6
CONTINUOUS
10
106.997
20
-54.9275
11
106.997
21
-68.8975
0
LINE
8
BLACK
6
CONTINUOUS
10
93.0275
20
-54.9275
11
106.997
21
-54.9275
0
LINE
8
BLACK
6
CONTINUOUS
10
93.0275
20
-68.8975
11
93.0275
21
-54.9275
0
LINE
8
BLACK
6
CONTINUOUS
10
106.997
20
-68.8975
11
93.0275
21
-68.8975
0
LINE
8
BLACK
6
CONTINUOUS
10
92.5125
20
-65.0875
11
92.5125
21
-68.8975
0
LINE
8
BLACK
6
CONTINUOUS
10
106.997
20
-62.6125
11
109.512
21
-62.6125
0
LINE
8
BLACK
6
CONTINUOUS
10
109.512
20
-62.6125
11
109.512
21
-67.4125
0
LINE
8
BLACK
6
CONTINUOUS
10
109.512
20
-67.4125
11
106.997
21
-67.4125
0
LINE
8
BLACK
6
CONTINUOUS
10
93.0275
20
-68.8975
11
92.5125
21
-68.8975
0
LINE
8
BLACK
6
CONTINUOUS
10
93.0275
20
-65.0875
11
92.5125
21
-65.0875
0
LINE
8
BLACK
6
CONTINUOUS
10
93.0275
20
-60.3885
11
95.6945
21
-60.3885
0
LINE
8
BLACK
6
CONTINUOUS
10
95.6945
20
-60.3885
11
95.6945
21
-54.9275
0
LINE
8
BLACK
6
CONTINUOUS
10
126.047
20
-54.9275
11
126.047
21
-68.8975
0
LINE
8
BLACK
6
CONTINUOUS
10
112.078
20
-54.9275
11
126.047
21
-54.9275
0
LINE
8
BLACK
6
CONTINUOUS
10
112.078
20
-68.8975
11
112.078
21
-54.9275
0
LINE
8
BLACK
6
CONTINUOUS
10
126.047
20
-68.8975
11
112.078
21
-68.8975
0
LINE
8
BLACK
6
CONTINUOUS
10
111.562
20
-65.0875
11
111.562
21
-68.8975
0
LINE
8
BLACK
6
CONTINUOUS
10
126.047
20
-62.6125
11
128.562
21
-62.6125
0
LINE
8
BLACK
6
CONTINUOUS
10
128.562
20
-62.6125
11
128.562
21
-67.4125
0
LINE
8
BLACK
6
CONTINUOUS
10
128.562
20
-67.4125
11
126.047
21
-67.4125
0
LINE
8
BLACK
6
CONTINUOUS
10
112.078
20
-68.8975
11
111.562
21
-68.8975
0
LINE
8
BLACK
6
CONTINUOUS
10
112.078
20
-65.0875
11
111.562
21
-65.0875
0
LINE
8
BLACK
6
CONTINUOUS
10
112.078
20
-60.3885
11
114.744
21
-60.3885
0
LINE
8
BLACK
6
CONTINUOUS
10
114.744
20
-60.3885
11
114.744
21
-54.9275
0
LINE
8
BLACK
6
CONTINUOUS
10
49.8475
20
-73.9775
11
49.8475
21
-87.9475
0
LINE
8
BLACK
6
CONTINUOUS
10
35.8775
20
-73.9775
11
49.8475
21
-73.9775
0
LINE
8
BLACK
6
CONTINUOUS
10
35.8775
20
-87.9475
11
35.8775
21
-73.9775
0
LINE
8
BLACK
6
CONTINUOUS
10
49.8475
20
-87.9475
11
35.8775
21
-87.9475
0
LINE
8
BLACK
6
CONTINUOUS
10
35.3625
20
-84.1375
11
35.3625
21
-87.9475
0
LINE
8
BLACK
6
CONTINUOUS
10
49.8475
20
-81.6625
11
52.3625
21
-81.6625
0
LINE
8
BLACK
6
CONTINUOUS
10
52.3625
20
-81.6625
11
52.3625
21
-86.4625
0
LINE
8
BLACK
6
CONTINUOUS
10
52.3625
20
-86.4625
11
49.8475
21
-86.4625
0
LINE
8
BLACK
6
CONTINUOUS
10
35.8775
20
-87.9475
11
35.3625
21
-87.9475
0
LINE
8
BLACK
6
CONTINUOUS
10
35.8775
20
-84.1375
11
35.3625
21
-84.1375
0
LINE
8
BLACK
6
CONTINUOUS
10
35.8775
20
-79.4385
11
38.5445
21
-79.4385
0
LINE
8
BLACK
6
CONTINUOUS
10
38.5445
20
-79.4385
11
38.5445
21
-73.9775
0
LINE
8
BLACK
6
CONTINUOUS
10
68.8975
20
-73.9775
11
68.8975
21
-87.9475
0
LINE
8
BLACK
6
CONTINUOUS
10
54.9275
20
-73.9775
11
68.8975
21
-73.9775
0
LINE
8
BLACK
6
CONTINUOUS
10
54.9275
20
-87.9475
11
54.9275
21
-73.9775
0
LINE
8
BLACK
6
CONTINUOUS
10
68.8975
20
-87.9475
11
54.9275
21
-87.9475
0
LINE
8
BLACK
6
CONTINUOUS
10
54.4125
20
-84.1375
11
54.4125
21
-87.9475
0
LINE
8
BLACK
6
CONTINUOUS
10
68.8975
20
-81.6625
11
71.4125
21
-81.6625
0
LINE
8
BLACK
6
CONTINUOUS
10
71.4125
20
-81.6625
11
71.4125
21
-86.4625
0
LINE
8
BLACK
6
CONTINUOUS
10
71.4125
20
-86.4625
11
68.8975
21
-86.4625
0
LINE
8
BLACK
6
CONTINUOUS
10
54.9275
20
-87.9475
11
54.4125
21
-87.9475
0
LINE
8
BLACK
6
CONTINUOUS
10
54.9275
20
-84.1375
11
54.4125
21
-84.1375
0
LINE
8
BLACK
6
CONTINUOUS
10
54.9275
20
-79.4385
11
57.5945
21
-79.4385
0
LINE
8
BLACK
6
CONTINUOUS
10
57.5945
20
-79.4385
11
57.5945
21
-73.9775
0
LINE
8
BLACK
6
CONTINUOUS
10
87.9475
20
-73.9775
11
87.9475
21
-87.9475
0
LINE
8
BLACK
6
CONTINUOUS
10
73.9775
20
-73.9775
11
87.9475
21
-73.9775
0
LINE
8
BLACK
6
CONTINUOUS
10
73.9775
20
-87.9475
11
73.9775
21
-73.9775
0
LINE
8
BLACK
6
CONTINUOUS
10
87.9475
20
-87.9475
11
73.9775
21
-87.9475
0
LINE
8
BLACK
6
CONTINUOUS
10
73.4625
20
-84.1375
11
73.4625
21
-87.9475
0
LINE
8
BLACK
6
CONTINUOUS
10
87.9475
20
-81.6625
11
90.4625
21
-81.6625
0
LINE
8
BLACK
6
CONTINUOUS
10
90.4625
20
-81.6625
11
90.4625
21
-86.4625
0
LINE
8
BLACK
6
CONTINUOUS
10
90.4625
20
-86.4625
11
87.9475
21
-86.4625
0
LINE
8
BLACK
6
CONTINUOUS
10
73.9775
20
-87.9475
11
73.4625
21
-87.9475
0
LINE
8
BLACK
6
CONTINUOUS
10
73.9775
20
-84.1375
11
73.4625
21
-84.1375
0
LINE
8
BLACK
6
CONTINUOUS
10
73.9775
20
-79.4385
11
76.6445
21
-79.4385
0
LINE
8
BLACK
6
CONTINUOUS
10
76.6445
20
-79.4385
11
76.6445
21
-73.9775
0
LINE
8
BLACK
6
CONTINUOUS
10
106.997
20
-73.9775
11
106.997
21
-87.9475
0
LINE
8
BLACK
6
CONTINUOUS
10
93.0275
20
-73.9775
11
106.997
21
-73.9775
0
LINE
8
BLACK
6
CONTINUOUS
10
93.0275
20
-87.9475
11
93.0275
21
-73.9775
0
LINE
8
BLACK
6
CONTINUOUS
10
106.997
20
-87.9475
11
93.0275
21
-87.9475
0
LINE
8
BLACK
6
CONTINUOUS
10
92.5125
20
-84.1375
11
92.5125
21
-87.9475
0
LINE
8
BLACK
6
CONTINUOUS
10
106.997
20
-81.6625
11
109.512
21
-81.6625
0
LINE
8
BLACK
6
CONTINUOUS
10
109.512
20
-81.6625
11
109.512
21
-86.4625
0
LINE
8
BLACK
6
CONTINUOUS
10
109.512
20
-86.4625
11
106.997
21
-86.4625
0
LINE
8
BLACK
6
CONTINUOUS
10
93.0275
20
-87.9475
11
92.5125
21
-87.9475
0
LINE
8
BLACK
6
CONTINUOUS
10
93.0275
20
-84.1375
11
92.5125
21
-84.1375
0
LINE
8
BLACK
6
CONTINUOUS
10
93.0275
20
-79.4385
11
95.6945
21
-79.4385
0
LINE
8
BLACK
6
CONTINUOUS
10
95.6945
20
-79.4385
11
95.6945
21
-73.9775
0
LINE
8
BLACK
6
CONTINUOUS
10
126.047
20
-73.9775
11
126.047
21
-87.9475
0
LINE
8
BLACK
6
CONTINUOUS
10
112.078
20
-73.9775
11
126.047
21
-73.9775
0
LINE
8
BLACK
6
CONTINUOUS
10
112.078
20
-87.9475
11
112.078
21
-73.9775
0
LINE
8
BLACK
6
CONTINUOUS
10
126.047
20
-87.9475
11
112.078
21
-87.9475
0
LINE
8
BLACK
6
CONTINUOUS
10
111.562
20
-84.1375
11
111.562
21
-87.9475
0
LINE
8
BLACK
6
CONTINUOUS
10
126.047
20
-81.6625
11
128.562
21
-81.6625
0
LINE
8
BLACK
6
CONTINUOUS
10
128.562
20
-81.6625
11
128.562
21
-86.4625
0
LINE
8
BLACK
6
CONTINUOUS
10
128.562
20
-86.4625
11
126.047
21
-86.4625
0
LINE
8
BLACK
6
CONTINUOUS
10
112.078
20
-87.9475
11
111.562
21
-87.9475
0
LINE
8
BLACK
6
CONTINUOUS
10
112.078
20
-84.1375
11
111.562
21
-84.1375
0
LINE
8
BLACK
6
CONTINUOUS
10
112.078
20
-79.4385
11
114.744
21
-79.4385
0
LINE
8
BLACK
6
CONTINUOUS
10
114.744
20
-79.4385
11
114.744
21
-73.9775
0
LINE
8
BLACK
6
CONTINUOUS
10
49.8475
20
-93.0275
11
49.8475
21
-106.997
0
LINE
8
BLACK
6
CONTINUOUS
10
35.8775
20
-93.0275
11
49.8475
21
-93.0275
0
LINE
8
BLACK
6
CONTINUOUS
10
35.8775
20
-106.997
11
35.8775
21
-93.0275
0
LINE
8
BLACK
6
CONTINUOUS
10
49.8475
20
-106.997
11
35.8775
21
-106.997
0
LINE
8
BLACK
6
CONTINUOUS
10
35.3625
20
-103.188
11
35.3625
21
-106.997
0
LINE
8
BLACK
6
CONTINUOUS
10
49.8475
20
-100.712
11
52.3625
21
-100.712
0
LINE
8
BLACK
6
CONTINUOUS
10
52.3625
20
-100.712
11
52.3625
21
-105.512
0
LINE
8
BLACK
6
CONTINUOUS
10
52.3625
20
-105.512
11
49.8475
21
-105.512
0
LINE
8
BLACK
6
CONTINUOUS
10
35.8775
20
-106.997
11
35.3625
21
-106.997
0
LINE
8
BLACK
6
CONTINUOUS
10
35.8775
20
-103.188
11
35.3625
21
-103.188
0
LINE
8
BLACK
6
CONTINUOUS
10
35.8775
20
-98.4885
11
38.5445
21
-98.4885
0
LINE
8
BLACK
6
CONTINUOUS
10
38.5445
20
-98.4885
11
38.5445
21
-93.0275
0
LINE
8
BLACK
6
CONTINUOUS
10
68.8975
20
-93.0275
11
68.8975
21
-106.997
0
LINE
8
BLACK
6
CONTINUOUS
10
54.9275
20
-93.0275
11
68.8975
21
-93.0275
0
LINE
8
BLACK
6
CONTINUOUS
10
54.9275
20
-106.997
11
54.9275
21
-93.0275
0
LINE
8
BLACK
6
CONTINUOUS
10
68.8975
20
-106.997
11
54.9275
21
-106.997
0
LINE
8
BLACK
6
CONTINUOUS
10
54.4125
20
-103.188
11
54.4125
21
-106.997
0
LINE
8
BLACK
6
CONTINUOUS
10
68.8975
20
-100.712
11
71.4125
21
-100.712
0
LINE
8
BLACK
6
CONTINUOUS
10
71.4125
20
-100.712
11
71.4125
21
-105.512
0
LINE
8
BLACK
6
CONTINUOUS
10
71.4125
20
-105.512
11
68.8975
21
-105.512
0
LINE
8
BLACK
6
CONTINUOUS
10
54.9275
20
-106.997
11
54.4125
21
-106.997
0
LINE
8
BLACK
6
CONTINUOUS
10
54.9275
20
-103.188
11
54.4125
21
-103.188
0
LINE
8
BLACK
6
CONTINUOUS
10
54.9275
20
-98.4885
11
57.5945
21
-98.4885
0
LINE
8
BLACK
6
CONTINUOUS
10
57.5945
20
-98.4885
11
57.5945
21
-93.0275
0
LINE
8
BLACK
6
CONTINUOUS
10
87.9475
20
-93.0275
11
87.9475
21
-106.997
0
LINE
8
BLACK
6
CONTINUOUS
10
73.9775
20
-93.0275
11
87.9475
21
-93.0275
0
LINE
8
BLACK
6
CONTINUOUS
10
73.9775
20
-106.997
11
73.9775
21
-93.0275
0
LINE
8
BLACK
6
CONTINUOUS
10
87.9475
20
-106.997
11
73.9775
21
-106.997
0
LINE
8
BLACK
6
CONTINUOUS
10
73.4625
20
-103.188
11
73.4625
21
-106.997
0
LINE
8
BLACK
6
CONTINUOUS
10
87.9475
20
-100.712
11
90.4625
21
-100.712
0
LINE
8
BLACK
6
CONTINUOUS
10
90.4625
20
-100.712
11
90.4625
21
-105.512
0
LINE
8
BLACK
6
CONTINUOUS
10
90.4625
20
-105.512
11
87.9475
21
-105.512
0
LINE
8
BLACK
6
CONTINUOUS
10
73.9775
20
-106.997
11
73.4625
21
-106.997
0
LINE
8
BLACK
6
CONTINUOUS
10
73.9775
20
-103.188
11
73.4625
21
-103.188
0
LINE
8
BLACK
6
CONTINUOUS
10
73.9775
20
-98.4885
11
76.6445
21
-98.4885
0
LINE
8
BLACK
6
CONTINUOUS
10
76.6445
20
-98.4885
11
76.6445
21
-93.0275
0
LINE
8
BLACK
6
CONTINUOUS
10
106.997
20
-93.0275
11
106.997
21
-106.997
0
LINE
8
BLACK
6
CONTINUOUS
10
93.0275
20
-93.0275
11
106.997
21
-93.0275
0
LINE
8
BLACK
6
CONTINUOUS
10
93.0275
20
-106.997
11
93.0275
21
-93.0275
0
LINE
8
BLACK
6
CONTINUOUS
10
106.997
20
-106.997
11
93.0275
21
-106.997
0
LINE
8
BLACK
6
CONTINUOUS
10
92.5125
20
-103.188
11
92.5125
21
-106.997
0
LINE
8
BLACK
6
CONTINUOUS
10
106.997
20
-100.712
11
109.512
21
-100.712
0
LINE
8
BLACK
6
CONTINUOUS
10
109.512
20
-100.712
11
109.512
21
-105.512
0
LINE
8
BLACK
6
CONTINUOUS
10
109.512
20
-105.512
11
106.997
21
-105.512
0
LINE
8
BLACK
6
CONTINUOUS
10
93.0275
20
-106.997
11
92.5125
21
-106.997
0
LINE
8
BLACK
6
CONTINUOUS
10
93.0275
20
-103.188
11
92.5125
21
-103.188
0
LINE
8
BLACK
6
CONTINUOUS
10
93.0275
20
-98.4885
11
95.6945
21
-98.4885
0
LINE
8
BLACK
6
CONTINUOUS
10
95.6945
20
-98.4885
11
95.6945
21
-93.0275
0
LINE
8
BLACK
6
CONTINUOUS
10
126.047
20
-93.0275
11
126.047
21
-106.997
0
LINE
8
BLACK
6
CONTINUOUS
10
112.078
20
-93.0275
11
126.047
21
-93.0275
0
LINE
8
BLACK
6
CONTINUOUS
10
112.078
20
-106.997
11
112.078
21
-93.0275
0
LINE
8
BLACK
6
CONTINUOUS
10
126.047
20
-106.997
11
112.078
21
-106.997
0
LINE
8
BLACK
6
CONTINUOUS
10
111.562
20
-103.188
11
111.562
21
-106.997
0
LINE
8
BLACK
6
CONTINUOUS
10
126.047
20
-100.712
11
128.562
21
-100.712
0
LINE
8
BLACK
6
CONTINUOUS
10
128.562
20
-100.712
11
128.562
21
-105.512
0
LINE
8
BLACK
6
CONTINUOUS
10
128.562
20
-105.512
11
126.047
21
-105.512
0
LINE
8
BLACK
6
CONTINUOUS
10
112.078
20
-106.997
11
111.562
21
-106.997
0
LINE
8
BLACK
6
CONTINUOUS
10
112.078
20
-103.188
11
111.562
21
-103.188
0
LINE
8
BLACK
6
CONTINUOUS
10
112.078
20
-98.4885
11
114.744
21
-98.4885
0
LINE
8
BLACK
6
CONTINUOUS
10
114.744
20
-98.4885
11
114.744
21
-93.0275
0
LINE
8
BLACK
6
CONTINUOUS
10
138.516
20
-146.656
11
138.158
21
-146.525
0
LINE
8
BLACK
6
CONTINUOUS
10
138.158
20
-146.525
11
137.246
21
-149.032
0
LINE
8
BLACK
6
CONTINUOUS
10
137.246
20
-149.032
11
138.344
21
-149.431
0
LINE
8
BLACK
6
CONTINUOUS
10
140.335
20
-122.72
11
140.108
21
-123.344
0
LINE
8
BLACK
6
CONTINUOUS
10
138.344
20
-149.431
11
136.78
21
-153.727
0
LINE
8
BLACK
6
CONTINUOUS
10
130.166
20
-128.75
11
131.384
21
-129.193
0
LINE
8
BLACK
6
CONTINUOUS
10
144.946
20
-131.291
11
143.848
21
-130.892
0
LINE
8
BLACK
6
CONTINUOUS
10
135.257
20
-154.494
11
129.529
21
-152.409
0
LINE
8
BLACK
6
CONTINUOUS
10
131.384
20
-129.193
11
134.284
21
-121.224
0
LINE
8
BLACK
6
CONTINUOUS
10
145.836
20
-125.429
11
145.412
21
-126.595
0
LINE
8
BLACK
6
CONTINUOUS
10
140.108
20
-123.344
11
145.836
21
-125.429
0
LINE
8
BLACK
6
CONTINUOUS
10
126.677
20
-152.077
11
126.903
21
-151.454
0
LINE
8
BLACK
6
CONTINUOUS
10
143.848
20
-130.892
11
142.936
21
-133.398
0
LINE
8
BLACK
6
CONTINUOUS
10
142.936
20
-133.398
11
143.294
21
-133.528
0
LINE
8
BLACK
6
CONTINUOUS
10
129.529
20
-152.409
11
129.302
21
-153.033
0
LINE
8
BLACK
6
CONTINUOUS
10
137.709
20
-121.765
11
140.335
21
-122.72
0
LINE
8
BLACK
6
CONTINUOUS
10
126.606
20
-142.321
11
125.388
21
-141.878
0
LINE
8
BLACK
6
CONTINUOUS
10
126.903
20
-151.454
11
123.705
21
-150.29
0
LINE
8
BLACK
6
CONTINUOUS
10
125.388
20
-141.878
11
130.166
21
-128.75
0
LINE
8
BLACK
6
CONTINUOUS
10
143.294
20
-133.528
11
138.516
21
-146.656
0
LINE
8
BLACK
6
CONTINUOUS
10
135.682
20
-153.328
11
135.257
21
-154.494
0
LINE
8
BLACK
6
CONTINUOUS
10
123.705
20
-150.29
11
126.606
21
-142.321
0
LINE
8
BLACK
6
CONTINUOUS
10
136.78
20
-153.727
11
135.682
21
-153.328
0
LINE
8
BLACK
6
CONTINUOUS
10
145.412
20
-126.595
11
146.51
21
-126.995
0
LINE
8
BLACK
6
CONTINUOUS
10
129.302
20
-153.033
11
126.677
21
-152.077
0
LINE
8
BLACK
6
CONTINUOUS
10
134.284
20
-121.224
11
137.482
21
-122.388
0
LINE
8
BLACK
6
CONTINUOUS
10
137.482
20
-122.388
11
137.709
21
-121.765
0
LINE
8
BLACK
6
CONTINUOUS
10
146.51
20
-126.995
11
144.946
21
-131.291
0
LINE
8
BLACK
6
CONTINUOUS
10
112.265
20
-122.235
11
112.623
21
-122.365
0
LINE
8
BLACK
6
CONTINUOUS
10
112.623
20
-122.365
11
113.535
21
-119.859
0
LINE
8
BLACK
6
CONTINUOUS
10
113.535
20
-119.859
11
112.437
21
-119.459
0
LINE
8
BLACK
6
CONTINUOUS
10
110.446
20
-146.17
11
110.673
21
-145.546
0
LINE
8
BLACK
6
CONTINUOUS
10
112.437
20
-119.459
11
114.001
21
-115.163
0
LINE
8
BLACK
6
CONTINUOUS
10
120.615
20
-140.14
11
119.397
21
-139.697
0
LINE
8
BLACK
6
CONTINUOUS
10
105.835
20
-137.599
11
106.933
21
-137.999
0
LINE
8
BLACK
6
CONTINUOUS
10
115.524
20
-114.396
11
121.252
21
-116.481
0
LINE
8
BLACK
6
CONTINUOUS
10
119.397
20
-139.697
11
116.497
21
-147.666
0
LINE
8
BLACK
6
CONTINUOUS
10
104.945
20
-143.461
11
105.369
21
-142.295
0
LINE
8
BLACK
6
CONTINUOUS
10
110.673
20
-145.546
11
104.945
21
-143.461
0
LINE
8
BLACK
6
CONTINUOUS
10
124.105
20
-116.813
11
123.878
21
-117.437
0
LINE
8
BLACK
6
CONTINUOUS
10
106.933
20
-137.999
11
107.845
21
-135.493
0
LINE
8
BLACK
6
CONTINUOUS
10
107.845
20
-135.493
11
107.487
21
-135.362
0
LINE
8
BLACK
6
CONTINUOUS
10
121.252
20
-116.481
11
121.479
21
-115.857
0
LINE
8
BLACK
6
CONTINUOUS
10
113.072
20
-147.126
11
110.446
21
-146.17
0
LINE
8
BLACK
6
CONTINUOUS
10
124.175
20
-126.57
11
125.393
21
-127.013
0
LINE
8
BLACK
6
CONTINUOUS
10
123.878
20
-117.437
11
127.076
21
-118.601
0
LINE
8
BLACK
6
CONTINUOUS
10
125.393
20
-127.013
11
120.615
21
-140.14
0
LINE
8
BLACK
6
CONTINUOUS
10
107.487
20
-135.362
11
112.265
21
-122.235
0
LINE
8
BLACK
6
CONTINUOUS
10
115.099
20
-115.563
11
115.524
21
-114.396
0
LINE
8
BLACK
6
CONTINUOUS
10
127.076
20
-118.601
11
124.175
21
-126.57
0
LINE
8
BLACK
6
CONTINUOUS
10
114.001
20
-115.163
11
115.099
21
-115.563
0
LINE
8
BLACK
6
CONTINUOUS
10
105.369
20
-142.295
11
104.271
21
-141.895
0
LINE
8
BLACK
6
CONTINUOUS
10
121.479
20
-115.857
11
124.105
21
-116.813
0
LINE
8
BLACK
6
CONTINUOUS
10
116.497
20
-147.666
11
113.299
21
-146.502
0
LINE
8
BLACK
6
CONTINUOUS
10
113.299
20
-146.502
11
113.072
21
-147.126
0
LINE
8
BLACK
6
CONTINUOUS
10
104.271
20
-141.895
11
105.835
21
-137.599
0
LINE
8
BLACK
6
CONTINUOUS
10
14.7325
20
-22.2885
11
14.7325
21
-16.8275
0
LINE
8
BLACK
6
CONTINUOUS
10
12.0655
20
-22.2885
11
14.7325
21
-22.2885
0
LINE
8
BLACK
6
CONTINUOUS
10
11.5575
20
-26.9875
11
12.0655
21
-26.9875
0
LINE
8
BLACK
6
CONTINUOUS
10
11.5575
20
-30.7975
11
12.0655
21
-30.7975
0
LINE
8
BLACK
6
CONTINUOUS
10
26.0355
20
-16.8275
11
26.0355
21
-30.7975
0
LINE
8
BLACK
6
CONTINUOUS
10
12.0655
20
-16.8275
11
26.0355
21
-16.8275
0
LINE
8
BLACK
6
CONTINUOUS
10
12.0655
20
-30.7975
11
12.0655
21
-16.8275
0
LINE
8
BLACK
6
CONTINUOUS
10
26.0355
20
-30.7975
11
12.0655
21
-30.7975
0
LINE
8
BLACK
6
CONTINUOUS
10
28.5505
20
-24.5125
11
28.5505
21
-29.3125
0
LINE
8
BLACK
6
CONTINUOUS
10
26.0355
20
-24.5125
11
28.5505
21
-24.5125
0
LINE
8
BLACK
6
CONTINUOUS
10
28.5505
20
-29.3125
11
26.0355
21
-29.3125
0
LINE
8
BLACK
6
CONTINUOUS
10
11.5505
20
-30.7975
11
11.5505
21
-26.9875
0
LINE
8
BLACK
6
CONTINUOUS
10
14.7325
20
-41.3385
11
14.7325
21
-35.8775
0
LINE
8
BLACK
6
CONTINUOUS
10
12.0655
20
-41.3385
11
14.7325
21
-41.3385
0
LINE
8
BLACK
6
CONTINUOUS
10
11.5575
20
-46.0375
11
12.0655
21
-46.0375
0
LINE
8
BLACK
6
CONTINUOUS
10
11.5575
20
-49.8475
11
12.0655
21
-49.8475
0
LINE
8
BLACK
6
CONTINUOUS
10
26.0355
20
-35.8775
11
26.0355
21
-49.8475
0
LINE
8
BLACK
6
CONTINUOUS
10
12.0655
20
-35.8775
11
26.0355
21
-35.8775
0
LINE
8
BLACK
6
CONTINUOUS
10
12.0655
20
-49.8475
11
12.0655
21
-35.8775
0
LINE
8
BLACK
6
CONTINUOUS
10
26.0355
20
-49.8475
11
12.0655
21
-49.8475
0
LINE
8
BLACK
6
CONTINUOUS
10
28.5505
20
-43.5625
11
28.5505
21
-48.3625
0
LINE
8
BLACK
6
CONTINUOUS
10
26.0355
20
-43.5625
11
28.5505
21
-43.5625
0
LINE
8
BLACK
6
CONTINUOUS
10
28.5505
20
-48.3625
11
26.0355
21
-48.3625
0
LINE
8
BLACK
6
CONTINUOUS
10
11.5505
20
-49.8475
11
11.5505
21
-46.0375
0
LINE
8
BLACK
6
CONTINUOUS
10
14.7325
20
-60.3885
11
14.7325
21
-54.9275
0
LINE
8
BLACK
6
CONTINUOUS
10
12.0655
20
-60.3885
11
14.7325
21
-60.3885
0
LINE
8
BLACK
6
CONTINUOUS
10
11.5575
20
-65.0875
11
12.0655
21
-65.0875
0
LINE
8
BLACK
6
CONTINUOUS
10
11.5575
20
-68.8975
11
12.0655
21
-68.8975
0
LINE
8
BLACK
6
CONTINUOUS
10
26.0355
20
-54.9275
11
26.0355
21
-68.8975
0
LINE
8
BLACK
6
CONTINUOUS
10
12.0655
20
-54.9275
11
26.0355
21
-54.9275
0
LINE
8
BLACK
6
CONTINUOUS
10
12.0655
20
-68.8975
11
12.0655
21
-54.9275
0
LINE
8
BLACK
6
CONTINUOUS
10
26.0355
20
-68.8975
11
12.0655
21
-68.8975
0
LINE
8
BLACK
6
CONTINUOUS
10
28.5505
20
-62.6125
11
28.5505
21
-67.4125
0
LINE
8
BLACK
6
CONTINUOUS
10
26.0355
20
-62.6125
11
28.5505
21
-62.6125
0
LINE
8
BLACK
6
CONTINUOUS
10
28.5505
20
-67.4125
11
26.0355
21
-67.4125
0
LINE
8
BLACK
6
CONTINUOUS
10
11.5505
20
-68.8975
11
11.5505
21
-65.0875
0
LINE
8
BLACK
6
CONTINUOUS
10
14.7325
20
-79.4385
11
14.7325
21
-73.9775
0
LINE
8
BLACK
6
CONTINUOUS
10
12.0655
20
-79.4385
11
14.7325
21
-79.4385
0
LINE
8
BLACK
6
CONTINUOUS
10
11.5575
20
-84.1375
11
12.0655
21
-84.1375
0
LINE
8
BLACK
6
CONTINUOUS
10
11.5575
20
-87.9475
11
12.0655
21
-87.9475
0
LINE
8
BLACK
6
CONTINUOUS
10
26.0355
20
-73.9775
11
26.0355
21
-87.9475
0
LINE
8
BLACK
6
CONTINUOUS
10
12.0655
20
-73.9775
11
26.0355
21
-73.9775
0
LINE
8
BLACK
6
CONTINUOUS
10
12.0655
20
-87.9475
11
12.0655
21
-73.9775
0
LINE
8
BLACK
6
CONTINUOUS
10
26.0355
20
-87.9475
11
12.0655
21
-87.9475
0
LINE
8
BLACK
6
CONTINUOUS
10
28.5505
20
-81.6625
11
28.5505
21
-86.4625
0
LINE
8
BLACK
6
CONTINUOUS
10
26.0355
20
-81.6625
11
28.5505
21
-81.6625
0
LINE
8
BLACK
6
CONTINUOUS
10
28.5505
20
-86.4625
11
26.0355
21
-86.4625
0
LINE
8
BLACK
6
CONTINUOUS
10
11.5505
20
-87.9475
11
11.5505
21
-84.1375
0
LINE
8
BLACK
6
CONTINUOUS
10
14.7325
20
-98.4885
11
14.7325
21
-93.0275
0
LINE
8
BLACK
6
CONTINUOUS
10
12.0655
20
-98.4885
11
14.7325
21
-98.4885
0
LINE
8
BLACK
6
CONTINUOUS
10
11.5575
20
-103.188
11
12.0655
21
-103.188
0
LINE
8
BLACK
6
CONTINUOUS
10
11.5575
20
-106.997
11
12.0655
21
-106.997
0
LINE
8
BLACK
6
CONTINUOUS
10
26.0355
20
-93.0275
11
26.0355
21
-106.997
0
LINE
8
BLACK
6
CONTINUOUS
10
12.0655
20
-93.0275
11
26.0355
21
-93.0275
0
LINE
8
BLACK
6
CONTINUOUS
10
12.0655
20
-106.997
11
12.0655
21
-93.0275
0
LINE
8
BLACK
6
CONTINUOUS
10
26.0355
20
-106.997
11
12.0655
21
-106.997
0
LINE
8
BLACK
6
CONTINUOUS
10
28.5505
20
-100.712
11
28.5505
21
-105.512
0
LINE
8
BLACK
6
CONTINUOUS
10
26.0355
20
-100.712
11
28.5505
21
-100.712
0
LINE
8
BLACK
6
CONTINUOUS
10
28.5505
20
-105.512
11
26.0355
21
-105.512
0
LINE
8
BLACK
6
CONTINUOUS
10
11.5505
20
-106.997
11
11.5505
21
-103.188
0
LINE
8
BLACK
6
CONTINUOUS
10
17.113
20
-117.538
11
17.113
21
-112.078
0
LINE
8
BLACK
6
CONTINUOUS
10
14.446
20
-117.538
11
17.113
21
-117.538
0
LINE
8
BLACK
6
CONTINUOUS
10
13.931
20
-122.237
11
13.931
21
-126.047
0
LINE
8
BLACK
6
CONTINUOUS
10
28.416
20
-126.047
11
14.446
21
-126.047
0
LINE
8
BLACK
6
CONTINUOUS
10
14.446
20
-126.047
11
14.446
21
-112.078
0
LINE
8
BLACK
6
CONTINUOUS
10
14.446
20
-112.078
11
28.416
21
-112.078
0
LINE
8
BLACK
6
CONTINUOUS
10
28.416
20
-112.078
11
28.416
21
-126.047
0
LINE
8
BLACK
6
CONTINUOUS
10
30.931
20
-119.762
11
30.931
21
-124.562
0
LINE
8
BLACK
6
CONTINUOUS
10
28.416
20
-119.762
11
30.931
21
-119.762
0
LINE
8
BLACK
6
CONTINUOUS
10
30.931
20
-124.562
11
28.416
21
-124.562
0
LINE
8
BLACK
6
CONTINUOUS
10
13.931
20
-126.047
11
14.446
21
-126.047
0
LINE
8
BLACK
6
CONTINUOUS
10
13.931
20
-122.237
11
14.446
21
-122.237
0
LINE
8
BLACK
6
CONTINUOUS
10
40.9255
20
-117.538
11
40.9255
21
-112.078
0
LINE
8
BLACK
6
CONTINUOUS
10
38.2585
20
-117.538
11
40.9255
21
-117.538
0
LINE
8
BLACK
6
CONTINUOUS
10
37.7435
20
-122.237
11
37.7435
21
-126.047
0
LINE
8
BLACK
6
CONTINUOUS
10
52.2285
20
-126.047
11
38.2585
21
-126.047
0
LINE
8
BLACK
6
CONTINUOUS
10
38.2585
20
-126.047
11
38.2585
21
-112.078
0
LINE
8
BLACK
6
CONTINUOUS
10
38.2585
20
-112.078
11
52.2285
21
-112.078
0
LINE
8
BLACK
6
CONTINUOUS
10
52.2285
20
-112.078
11
52.2285
21
-126.047
0
LINE
8
BLACK
6
CONTINUOUS
10
54.7435
20
-119.762
11
54.7435
21
-124.562
0
LINE
8
BLACK
6
CONTINUOUS
10
52.2285
20
-119.762
11
54.7435
21
-119.762
0
LINE
8
BLACK
6
CONTINUOUS
10
54.7435
20
-124.562
11
52.2285
21
-124.562
0
LINE
8
BLACK
6
CONTINUOUS
10
37.7435
20
-126.047
11
38.2585
21
-126.047
0
LINE
8
BLACK
6
CONTINUOUS
10
37.7435
20
-122.237
11
38.2585
21
-122.237
0
LINE
8
BLACK
6
CONTINUOUS
10
64.738
20
-117.538
11
64.738
21
-112.078
0
LINE
8
BLACK
6
CONTINUOUS
10
62.071
20
-117.538
11
64.738
21
-117.538
0
LINE
8
BLACK
6
CONTINUOUS
10
61.556
20
-122.237
11
61.556
21
-126.047
0
LINE
8
BLACK
6
CONTINUOUS
10
76.041
20
-126.047
11
62.071
21
-126.047
0
LINE
8
BLACK
6
CONTINUOUS
10
62.071
20
-126.047
11
62.071
21
-112.078
0
LINE
8
BLACK
6
CONTINUOUS
10
62.071
20
-112.078
11
76.041
21
-112.078
0
LINE
8
BLACK
6
CONTINUOUS
10
76.041
20
-112.078
11
76.041
21
-126.047
0
LINE
8
BLACK
6
CONTINUOUS
10
78.556
20
-119.762
11
78.556
21
-124.562
0
LINE
8
BLACK
6
CONTINUOUS
10
76.041
20
-119.762
11
78.556
21
-119.762
0
LINE
8
BLACK
6
CONTINUOUS
10
78.556
20
-124.562
11
76.041
21
-124.562
0
LINE
8
BLACK
6
CONTINUOUS
10
61.556
20
-126.047
11
62.071
21
-126.047
0
LINE
8
BLACK
6
CONTINUOUS
10
61.556
20
-122.237
11
62.071
21
-122.237
0
LINE
8
BLACK
6
CONTINUOUS
10
88.5505
20
-117.538
11
88.5505
21
-112.078
0
LINE
8
BLACK
6
CONTINUOUS
10
85.8835
20
-117.538
11
88.5505
21
-117.538
0
LINE
8
BLACK
6
CONTINUOUS
10
85.3685
20
-122.237
11
85.3685
21
-126.047
0
LINE
8
BLACK
6
CONTINUOUS
10
99.8535
20
-126.047
11
85.8835
21
-126.047
0
LINE
8
BLACK
6
CONTINUOUS
10
85.8835
20
-126.047
11
85.8835
21
-112.078
0
LINE
8
BLACK
6
CONTINUOUS
10
85.8835
20
-112.078
11
99.8535
21
-112.078
0
LINE
8
BLACK
6
CONTINUOUS
10
99.8535
20
-112.078
11
99.8535
21
-126.047
0
LINE
8
BLACK
6
CONTINUOUS
10
102.368
20
-119.762
11
102.368
21
-124.562
0
LINE
8
BLACK
6
CONTINUOUS
10
99.8535
20
-119.762
11
102.368
21
-119.762
0
LINE
8
BLACK
6
CONTINUOUS
10
102.368
20
-124.562
11
99.8535
21
-124.562
0
LINE
8
BLACK
6
CONTINUOUS
10
85.3685
20
-126.047
11
85.8835
21
-126.047
0
LINE
8
BLACK
6
CONTINUOUS
10
85.3685
20
-122.237
11
85.8835
21
-122.237
0
CIRCLE
8
BLACK
10
133
20
-53.2384
40
1.35
0
CIRCLE
8
BLACK
10
151.155
20
-53.2384
40
1.35
0
CIRCLE
8
BLACK
10
106.642
20
-112.37
40
1.35
0
CIRCLE
8
BLACK
10
30.9372
20
-90.5129
40
1.35
0
CIRCLE
8
BLACK
10
135.903
20
-60.2742
40
1.35
0
CIRCLE
8
BLACK
10
31.0515
20
-33.3756
40
1.35
  0
ENDSEC
  0
EOF
