<?xml version="1.0" standalone="no"?>
 <!DOCTYPE svg PUBLIC "-//W3C//DTD SVG 1.1//EN" 
 "http://www.w3.org/Graphics/SVG/1.1/DTD/svg11.dtd"> 
<svg
  xmlns:svg="http://www.w3.org/2000/svg"
  xmlns="http://www.w3.org/2000/svg"
  xmlns:xlink="http://www.w3.org/1999/xlink"
  version="1.1"
  width="29.700220cm" height="21.000720cm" viewBox="0 0 116930 82680">
<title>SVG Picture created as ortho_half-Eco2_User.svg date 2021/12/07 20:03:28 </title>
  <desc>Picture generated by PCBNEW </desc>
<g style="fill:#000000; fill-opacity:1;stroke:#000000; stroke-opacity:1;
stroke-linecap:round; stroke-linejoin:round;"
 transform="translate(0 0) scale(1 1)">
</g>
<g style="fill:#000000; fill-opacity:0.0; 
stroke:#000000; stroke-width:-0.000393701; stroke-opacity:1; 
stroke-linecap:round; stroke-linejoin:round;">
</g>
<g style="fill:#000000; fill-opacity:0.0; 
stroke:#000000; stroke-width:59.0551; stroke-opacity:1; 
stroke-linecap:round; stroke-linejoin:round;">
<path d="M35635 19390
L35635 21890
" />
<path d="M34385 20640
L36885 20640
" />
<path d="M51905 39960
L51905 42460
" />
<path d="M50655 41210
L53155 41210
" />
<path d="M3775 41805
L3775 44305
" />
<path d="M2525 43055
L5025 43055
" />
<path d="M3780 26845
L3780 29345
" />
<path d="M2530 28095
L5030 28095
" />
<path d="M22485 44435
L22485 46935
" />
<path d="M21235 45685
L23735 45685
" />
<path d="M31840 44260
L31840 46760
" />
<path d="M30590 45510
L33090 45510
" />
<path d="M20635 19375
L20635 21875
" />
<path d="M19385 20625
L21885 20625
" />
<path d="M4100 11885
L4100 14385
" />
<path d="M2850 13135
L5350 13135
" />
</g>
<g style="fill:#000000; fill-opacity:0.0; 
stroke:#000000; stroke-width:60; stroke-opacity:1; 
stroke-linecap:round; stroke-linejoin:round;">
<path d="M19625 6625
L19625 12125
" />
<path d="M14125 6625
L19625 6625
" />
<path d="M14125 12125
L14125 6625
" />
<path d="M19625 12125
L14125 12125
" />
</g>
<g style="fill:#000000; fill-opacity:0.0; 
stroke:#000000; stroke-width:59.0551; stroke-opacity:1; 
stroke-linecap:round; stroke-linejoin:round;">
<path d="M13922 10625
L13922 12125
" />
<path d="M19625 9650
L20615 9650
" />
<path d="M20615 9650
L20615 11540
" />
<path d="M20615 11540
L19625 11540
" />
<path d="M14125 12125
L13922 12125
" />
<path d="M14125 10625
L13922 10625
" />
<path d="M14125 8775
L15175 8775
" />
<path d="M15175 8775
L15175 6625
" />
</g>
<g style="fill:#000000; fill-opacity:0.0; 
stroke:#000000; stroke-width:60; stroke-opacity:1; 
stroke-linecap:round; stroke-linejoin:round;">
<path d="M27125 6625
L27125 12125
" />
<path d="M21625 6625
L27125 6625
" />
<path d="M21625 12125
L21625 6625
" />
<path d="M27125 12125
L21625 12125
" />
</g>
<g style="fill:#000000; fill-opacity:0.0; 
stroke:#000000; stroke-width:59.0551; stroke-opacity:1; 
stroke-linecap:round; stroke-linejoin:round;">
<path d="M21422 10625
L21422 12125
" />
<path d="M27125 9650
L28115 9650
" />
<path d="M28115 9650
L28115 11540
" />
<path d="M28115 11540
L27125 11540
" />
<path d="M21625 12125
L21422 12125
" />
<path d="M21625 10625
L21422 10625
" />
<path d="M21625 8775
L22675 8775
" />
<path d="M22675 8775
L22675 6625
" />
</g>
<g style="fill:#000000; fill-opacity:0.0; 
stroke:#000000; stroke-width:60; stroke-opacity:1; 
stroke-linecap:round; stroke-linejoin:round;">
<path d="M34625 6625
L34625 12125
" />
<path d="M29125 6625
L34625 6625
" />
<path d="M29125 12125
L29125 6625
" />
<path d="M34625 12125
L29125 12125
" />
</g>
<g style="fill:#000000; fill-opacity:0.0; 
stroke:#000000; stroke-width:59.0551; stroke-opacity:1; 
stroke-linecap:round; stroke-linejoin:round;">
<path d="M28922 10625
L28922 12125
" />
<path d="M34625 9650
L35615 9650
" />
<path d="M35615 9650
L35615 11540
" />
<path d="M35615 11540
L34625 11540
" />
<path d="M29125 12125
L28922 12125
" />
<path d="M29125 10625
L28922 10625
" />
<path d="M29125 8775
L30175 8775
" />
<path d="M30175 8775
L30175 6625
" />
</g>
<g style="fill:#000000; fill-opacity:0.0; 
stroke:#000000; stroke-width:60; stroke-opacity:1; 
stroke-linecap:round; stroke-linejoin:round;">
<path d="M42125 6625
L42125 12125
" />
<path d="M36625 6625
L42125 6625
" />
<path d="M36625 12125
L36625 6625
" />
<path d="M42125 12125
L36625 12125
" />
</g>
<g style="fill:#000000; fill-opacity:0.0; 
stroke:#000000; stroke-width:59.0551; stroke-opacity:1; 
stroke-linecap:round; stroke-linejoin:round;">
<path d="M36422 10625
L36422 12125
" />
<path d="M42125 9650
L43115 9650
" />
<path d="M43115 9650
L43115 11540
" />
<path d="M43115 11540
L42125 11540
" />
<path d="M36625 12125
L36422 12125
" />
<path d="M36625 10625
L36422 10625
" />
<path d="M36625 8775
L37675 8775
" />
<path d="M37675 8775
L37675 6625
" />
</g>
<g style="fill:#000000; fill-opacity:0.0; 
stroke:#000000; stroke-width:60; stroke-opacity:1; 
stroke-linecap:round; stroke-linejoin:round;">
<path d="M49625 6625
L49625 12125
" />
<path d="M44125 6625
L49625 6625
" />
<path d="M44125 12125
L44125 6625
" />
<path d="M49625 12125
L44125 12125
" />
</g>
<g style="fill:#000000; fill-opacity:0.0; 
stroke:#000000; stroke-width:59.0551; stroke-opacity:1; 
stroke-linecap:round; stroke-linejoin:round;">
<path d="M43922 10625
L43922 12125
" />
<path d="M49625 9650
L50615 9650
" />
<path d="M50615 9650
L50615 11540
" />
<path d="M50615 11540
L49625 11540
" />
<path d="M44125 12125
L43922 12125
" />
<path d="M44125 10625
L43922 10625
" />
<path d="M44125 8775
L45175 8775
" />
<path d="M45175 8775
L45175 6625
" />
</g>
<g style="fill:#000000; fill-opacity:0.0; 
stroke:#000000; stroke-width:60; stroke-opacity:1; 
stroke-linecap:round; stroke-linejoin:round;">
<path d="M19625 14125
L19625 19625
" />
<path d="M14125 14125
L19625 14125
" />
<path d="M14125 19625
L14125 14125
" />
<path d="M19625 19625
L14125 19625
" />
</g>
<g style="fill:#000000; fill-opacity:0.0; 
stroke:#000000; stroke-width:59.0551; stroke-opacity:1; 
stroke-linecap:round; stroke-linejoin:round;">
<path d="M13922 18125
L13922 19625
" />
<path d="M19625 17150
L20615 17150
" />
<path d="M20615 17150
L20615 19040
" />
<path d="M20615 19040
L19625 19040
" />
<path d="M14125 19625
L13922 19625
" />
<path d="M14125 18125
L13922 18125
" />
<path d="M14125 16275
L15175 16275
" />
<path d="M15175 16275
L15175 14125
" />
</g>
<g style="fill:#000000; fill-opacity:0.0; 
stroke:#000000; stroke-width:60; stroke-opacity:1; 
stroke-linecap:round; stroke-linejoin:round;">
<path d="M27125 14125
L27125 19625
" />
<path d="M21625 14125
L27125 14125
" />
<path d="M21625 19625
L21625 14125
" />
<path d="M27125 19625
L21625 19625
" />
</g>
<g style="fill:#000000; fill-opacity:0.0; 
stroke:#000000; stroke-width:59.0551; stroke-opacity:1; 
stroke-linecap:round; stroke-linejoin:round;">
<path d="M21422 18125
L21422 19625
" />
<path d="M27125 17150
L28115 17150
" />
<path d="M28115 17150
L28115 19040
" />
<path d="M28115 19040
L27125 19040
" />
<path d="M21625 19625
L21422 19625
" />
<path d="M21625 18125
L21422 18125
" />
<path d="M21625 16275
L22675 16275
" />
<path d="M22675 16275
L22675 14125
" />
</g>
<g style="fill:#000000; fill-opacity:0.0; 
stroke:#000000; stroke-width:60; stroke-opacity:1; 
stroke-linecap:round; stroke-linejoin:round;">
<path d="M34625 14125
L34625 19625
" />
<path d="M29125 14125
L34625 14125
" />
<path d="M29125 19625
L29125 14125
" />
<path d="M34625 19625
L29125 19625
" />
</g>
<g style="fill:#000000; fill-opacity:0.0; 
stroke:#000000; stroke-width:59.0551; stroke-opacity:1; 
stroke-linecap:round; stroke-linejoin:round;">
<path d="M28922 18125
L28922 19625
" />
<path d="M34625 17150
L35615 17150
" />
<path d="M35615 17150
L35615 19040
" />
<path d="M35615 19040
L34625 19040
" />
<path d="M29125 19625
L28922 19625
" />
<path d="M29125 18125
L28922 18125
" />
<path d="M29125 16275
L30175 16275
" />
<path d="M30175 16275
L30175 14125
" />
</g>
<g style="fill:#000000; fill-opacity:0.0; 
stroke:#000000; stroke-width:60; stroke-opacity:1; 
stroke-linecap:round; stroke-linejoin:round;">
<path d="M42125 14125
L42125 19625
" />
<path d="M36625 14125
L42125 14125
" />
<path d="M36625 19625
L36625 14125
" />
<path d="M42125 19625
L36625 19625
" />
</g>
<g style="fill:#000000; fill-opacity:0.0; 
stroke:#000000; stroke-width:59.0551; stroke-opacity:1; 
stroke-linecap:round; stroke-linejoin:round;">
<path d="M36422 18125
L36422 19625
" />
<path d="M42125 17150
L43115 17150
" />
<path d="M43115 17150
L43115 19040
" />
<path d="M43115 19040
L42125 19040
" />
<path d="M36625 19625
L36422 19625
" />
<path d="M36625 18125
L36422 18125
" />
<path d="M36625 16275
L37675 16275
" />
<path d="M37675 16275
L37675 14125
" />
</g>
<g style="fill:#000000; fill-opacity:0.0; 
stroke:#000000; stroke-width:60; stroke-opacity:1; 
stroke-linecap:round; stroke-linejoin:round;">
<path d="M49625 14125
L49625 19625
" />
<path d="M44125 14125
L49625 14125
" />
<path d="M44125 19625
L44125 14125
" />
<path d="M49625 19625
L44125 19625
" />
</g>
<g style="fill:#000000; fill-opacity:0.0; 
stroke:#000000; stroke-width:59.0551; stroke-opacity:1; 
stroke-linecap:round; stroke-linejoin:round;">
<path d="M43922 18125
L43922 19625
" />
<path d="M49625 17150
L50615 17150
" />
<path d="M50615 17150
L50615 19040
" />
<path d="M50615 19040
L49625 19040
" />
<path d="M44125 19625
L43922 19625
" />
<path d="M44125 18125
L43922 18125
" />
<path d="M44125 16275
L45175 16275
" />
<path d="M45175 16275
L45175 14125
" />
</g>
<g style="fill:#000000; fill-opacity:0.0; 
stroke:#000000; stroke-width:60; stroke-opacity:1; 
stroke-linecap:round; stroke-linejoin:round;">
<path d="M19625 21625
L19625 27125
" />
<path d="M14125 21625
L19625 21625
" />
<path d="M14125 27125
L14125 21625
" />
<path d="M19625 27125
L14125 27125
" />
</g>
<g style="fill:#000000; fill-opacity:0.0; 
stroke:#000000; stroke-width:59.0551; stroke-opacity:1; 
stroke-linecap:round; stroke-linejoin:round;">
<path d="M13922 25625
L13922 27125
" />
<path d="M19625 24650
L20615 24650
" />
<path d="M20615 24650
L20615 26540
" />
<path d="M20615 26540
L19625 26540
" />
<path d="M14125 27125
L13922 27125
" />
<path d="M14125 25625
L13922 25625
" />
<path d="M14125 23775
L15175 23775
" />
<path d="M15175 23775
L15175 21625
" />
</g>
<g style="fill:#000000; fill-opacity:0.0; 
stroke:#000000; stroke-width:60; stroke-opacity:1; 
stroke-linecap:round; stroke-linejoin:round;">
<path d="M27125 21625
L27125 27125
" />
<path d="M21625 21625
L27125 21625
" />
<path d="M21625 27125
L21625 21625
" />
<path d="M27125 27125
L21625 27125
" />
</g>
<g style="fill:#000000; fill-opacity:0.0; 
stroke:#000000; stroke-width:59.0551; stroke-opacity:1; 
stroke-linecap:round; stroke-linejoin:round;">
<path d="M21422 25625
L21422 27125
" />
<path d="M27125 24650
L28115 24650
" />
<path d="M28115 24650
L28115 26540
" />
<path d="M28115 26540
L27125 26540
" />
<path d="M21625 27125
L21422 27125
" />
<path d="M21625 25625
L21422 25625
" />
<path d="M21625 23775
L22675 23775
" />
<path d="M22675 23775
L22675 21625
" />
</g>
<g style="fill:#000000; fill-opacity:0.0; 
stroke:#000000; stroke-width:60; stroke-opacity:1; 
stroke-linecap:round; stroke-linejoin:round;">
<path d="M34625 21625
L34625 27125
" />
<path d="M29125 21625
L34625 21625
" />
<path d="M29125 27125
L29125 21625
" />
<path d="M34625 27125
L29125 27125
" />
</g>
<g style="fill:#000000; fill-opacity:0.0; 
stroke:#000000; stroke-width:59.0551; stroke-opacity:1; 
stroke-linecap:round; stroke-linejoin:round;">
<path d="M28922 25625
L28922 27125
" />
<path d="M34625 24650
L35615 24650
" />
<path d="M35615 24650
L35615 26540
" />
<path d="M35615 26540
L34625 26540
" />
<path d="M29125 27125
L28922 27125
" />
<path d="M29125 25625
L28922 25625
" />
<path d="M29125 23775
L30175 23775
" />
<path d="M30175 23775
L30175 21625
" />
</g>
<g style="fill:#000000; fill-opacity:0.0; 
stroke:#000000; stroke-width:60; stroke-opacity:1; 
stroke-linecap:round; stroke-linejoin:round;">
<path d="M42125 21625
L42125 27125
" />
<path d="M36625 21625
L42125 21625
" />
<path d="M36625 27125
L36625 21625
" />
<path d="M42125 27125
L36625 27125
" />
</g>
<g style="fill:#000000; fill-opacity:0.0; 
stroke:#000000; stroke-width:59.0551; stroke-opacity:1; 
stroke-linecap:round; stroke-linejoin:round;">
<path d="M36422 25625
L36422 27125
" />
<path d="M42125 24650
L43115 24650
" />
<path d="M43115 24650
L43115 26540
" />
<path d="M43115 26540
L42125 26540
" />
<path d="M36625 27125
L36422 27125
" />
<path d="M36625 25625
L36422 25625
" />
<path d="M36625 23775
L37675 23775
" />
<path d="M37675 23775
L37675 21625
" />
</g>
<g style="fill:#000000; fill-opacity:0.0; 
stroke:#000000; stroke-width:60; stroke-opacity:1; 
stroke-linecap:round; stroke-linejoin:round;">
<path d="M49625 21625
L49625 27125
" />
<path d="M44125 21625
L49625 21625
" />
<path d="M44125 27125
L44125 21625
" />
<path d="M49625 27125
L44125 27125
" />
</g>
<g style="fill:#000000; fill-opacity:0.0; 
stroke:#000000; stroke-width:59.0551; stroke-opacity:1; 
stroke-linecap:round; stroke-linejoin:round;">
<path d="M43922 25625
L43922 27125
" />
<path d="M49625 24650
L50615 24650
" />
<path d="M50615 24650
L50615 26540
" />
<path d="M50615 26540
L49625 26540
" />
<path d="M44125 27125
L43922 27125
" />
<path d="M44125 25625
L43922 25625
" />
<path d="M44125 23775
L45175 23775
" />
<path d="M45175 23775
L45175 21625
" />
</g>
<g style="fill:#000000; fill-opacity:0.0; 
stroke:#000000; stroke-width:60; stroke-opacity:1; 
stroke-linecap:round; stroke-linejoin:round;">
<path d="M19625 29125
L19625 34625
" />
<path d="M14125 29125
L19625 29125
" />
<path d="M14125 34625
L14125 29125
" />
<path d="M19625 34625
L14125 34625
" />
</g>
<g style="fill:#000000; fill-opacity:0.0; 
stroke:#000000; stroke-width:59.0551; stroke-opacity:1; 
stroke-linecap:round; stroke-linejoin:round;">
<path d="M13922 33125
L13922 34625
" />
<path d="M19625 32150
L20615 32150
" />
<path d="M20615 32150
L20615 34040
" />
<path d="M20615 34040
L19625 34040
" />
<path d="M14125 34625
L13922 34625
" />
<path d="M14125 33125
L13922 33125
" />
<path d="M14125 31275
L15175 31275
" />
<path d="M15175 31275
L15175 29125
" />
</g>
<g style="fill:#000000; fill-opacity:0.0; 
stroke:#000000; stroke-width:60; stroke-opacity:1; 
stroke-linecap:round; stroke-linejoin:round;">
<path d="M27125 29125
L27125 34625
" />
<path d="M21625 29125
L27125 29125
" />
<path d="M21625 34625
L21625 29125
" />
<path d="M27125 34625
L21625 34625
" />
</g>
<g style="fill:#000000; fill-opacity:0.0; 
stroke:#000000; stroke-width:59.0551; stroke-opacity:1; 
stroke-linecap:round; stroke-linejoin:round;">
<path d="M21422 33125
L21422 34625
" />
<path d="M27125 32150
L28115 32150
" />
<path d="M28115 32150
L28115 34040
" />
<path d="M28115 34040
L27125 34040
" />
<path d="M21625 34625
L21422 34625
" />
<path d="M21625 33125
L21422 33125
" />
<path d="M21625 31275
L22675 31275
" />
<path d="M22675 31275
L22675 29125
" />
</g>
<g style="fill:#000000; fill-opacity:0.0; 
stroke:#000000; stroke-width:60; stroke-opacity:1; 
stroke-linecap:round; stroke-linejoin:round;">
<path d="M34625 29125
L34625 34625
" />
<path d="M29125 29125
L34625 29125
" />
<path d="M29125 34625
L29125 29125
" />
<path d="M34625 34625
L29125 34625
" />
</g>
<g style="fill:#000000; fill-opacity:0.0; 
stroke:#000000; stroke-width:59.0551; stroke-opacity:1; 
stroke-linecap:round; stroke-linejoin:round;">
<path d="M28922 33125
L28922 34625
" />
<path d="M34625 32150
L35615 32150
" />
<path d="M35615 32150
L35615 34040
" />
<path d="M35615 34040
L34625 34040
" />
<path d="M29125 34625
L28922 34625
" />
<path d="M29125 33125
L28922 33125
" />
<path d="M29125 31275
L30175 31275
" />
<path d="M30175 31275
L30175 29125
" />
</g>
<g style="fill:#000000; fill-opacity:0.0; 
stroke:#000000; stroke-width:60; stroke-opacity:1; 
stroke-linecap:round; stroke-linejoin:round;">
<path d="M42125 29125
L42125 34625
" />
<path d="M36625 29125
L42125 29125
" />
<path d="M36625 34625
L36625 29125
" />
<path d="M42125 34625
L36625 34625
" />
</g>
<g style="fill:#000000; fill-opacity:0.0; 
stroke:#000000; stroke-width:59.0551; stroke-opacity:1; 
stroke-linecap:round; stroke-linejoin:round;">
<path d="M36422 33125
L36422 34625
" />
<path d="M42125 32150
L43115 32150
" />
<path d="M43115 32150
L43115 34040
" />
<path d="M43115 34040
L42125 34040
" />
<path d="M36625 34625
L36422 34625
" />
<path d="M36625 33125
L36422 33125
" />
<path d="M36625 31275
L37675 31275
" />
<path d="M37675 31275
L37675 29125
" />
</g>
<g style="fill:#000000; fill-opacity:0.0; 
stroke:#000000; stroke-width:60; stroke-opacity:1; 
stroke-linecap:round; stroke-linejoin:round;">
<path d="M49625 29125
L49625 34625
" />
<path d="M44125 29125
L49625 29125
" />
<path d="M44125 34625
L44125 29125
" />
<path d="M49625 34625
L44125 34625
" />
</g>
<g style="fill:#000000; fill-opacity:0.0; 
stroke:#000000; stroke-width:59.0551; stroke-opacity:1; 
stroke-linecap:round; stroke-linejoin:round;">
<path d="M43922 33125
L43922 34625
" />
<path d="M49625 32150
L50615 32150
" />
<path d="M50615 32150
L50615 34040
" />
<path d="M50615 34040
L49625 34040
" />
<path d="M44125 34625
L43922 34625
" />
<path d="M44125 33125
L43922 33125
" />
<path d="M44125 31275
L45175 31275
" />
<path d="M45175 31275
L45175 29125
" />
</g>
<g style="fill:#000000; fill-opacity:0.0; 
stroke:#000000; stroke-width:60; stroke-opacity:1; 
stroke-linecap:round; stroke-linejoin:round;">
<path d="M19625 36625
L19625 42125
" />
<path d="M14125 36625
L19625 36625
" />
<path d="M14125 42125
L14125 36625
" />
<path d="M19625 42125
L14125 42125
" />
</g>
<g style="fill:#000000; fill-opacity:0.0; 
stroke:#000000; stroke-width:59.0551; stroke-opacity:1; 
stroke-linecap:round; stroke-linejoin:round;">
<path d="M13922 40625
L13922 42125
" />
<path d="M19625 39650
L20615 39650
" />
<path d="M20615 39650
L20615 41540
" />
<path d="M20615 41540
L19625 41540
" />
<path d="M14125 42125
L13922 42125
" />
<path d="M14125 40625
L13922 40625
" />
<path d="M14125 38775
L15175 38775
" />
<path d="M15175 38775
L15175 36625
" />
</g>
<g style="fill:#000000; fill-opacity:0.0; 
stroke:#000000; stroke-width:60; stroke-opacity:1; 
stroke-linecap:round; stroke-linejoin:round;">
<path d="M27125 36625
L27125 42125
" />
<path d="M21625 36625
L27125 36625
" />
<path d="M21625 42125
L21625 36625
" />
<path d="M27125 42125
L21625 42125
" />
</g>
<g style="fill:#000000; fill-opacity:0.0; 
stroke:#000000; stroke-width:59.0551; stroke-opacity:1; 
stroke-linecap:round; stroke-linejoin:round;">
<path d="M21422 40625
L21422 42125
" />
<path d="M27125 39650
L28115 39650
" />
<path d="M28115 39650
L28115 41540
" />
<path d="M28115 41540
L27125 41540
" />
<path d="M21625 42125
L21422 42125
" />
<path d="M21625 40625
L21422 40625
" />
<path d="M21625 38775
L22675 38775
" />
<path d="M22675 38775
L22675 36625
" />
</g>
<g style="fill:#000000; fill-opacity:0.0; 
stroke:#000000; stroke-width:60; stroke-opacity:1; 
stroke-linecap:round; stroke-linejoin:round;">
<path d="M34625 36625
L34625 42125
" />
<path d="M29125 36625
L34625 36625
" />
<path d="M29125 42125
L29125 36625
" />
<path d="M34625 42125
L29125 42125
" />
</g>
<g style="fill:#000000; fill-opacity:0.0; 
stroke:#000000; stroke-width:59.0551; stroke-opacity:1; 
stroke-linecap:round; stroke-linejoin:round;">
<path d="M28922 40625
L28922 42125
" />
<path d="M34625 39650
L35615 39650
" />
<path d="M35615 39650
L35615 41540
" />
<path d="M35615 41540
L34625 41540
" />
<path d="M29125 42125
L28922 42125
" />
<path d="M29125 40625
L28922 40625
" />
<path d="M29125 38775
L30175 38775
" />
<path d="M30175 38775
L30175 36625
" />
</g>
<g style="fill:#000000; fill-opacity:0.0; 
stroke:#000000; stroke-width:60; stroke-opacity:1; 
stroke-linecap:round; stroke-linejoin:round;">
<path d="M42125 36625
L42125 42125
" />
<path d="M36625 36625
L42125 36625
" />
<path d="M36625 42125
L36625 36625
" />
<path d="M42125 42125
L36625 42125
" />
</g>
<g style="fill:#000000; fill-opacity:0.0; 
stroke:#000000; stroke-width:59.0551; stroke-opacity:1; 
stroke-linecap:round; stroke-linejoin:round;">
<path d="M36422 40625
L36422 42125
" />
<path d="M42125 39650
L43115 39650
" />
<path d="M43115 39650
L43115 41540
" />
<path d="M43115 41540
L42125 41540
" />
<path d="M36625 42125
L36422 42125
" />
<path d="M36625 40625
L36422 40625
" />
<path d="M36625 38775
L37675 38775
" />
<path d="M37675 38775
L37675 36625
" />
</g>
<g style="fill:#000000; fill-opacity:0.0; 
stroke:#000000; stroke-width:60; stroke-opacity:1; 
stroke-linecap:round; stroke-linejoin:round;">
<path d="M49625 36625
L49625 42125
" />
<path d="M44125 36625
L49625 36625
" />
<path d="M44125 42125
L44125 36625
" />
<path d="M49625 42125
L44125 42125
" />
</g>
<g style="fill:#000000; fill-opacity:0.0; 
stroke:#000000; stroke-width:59.0551; stroke-opacity:1; 
stroke-linecap:round; stroke-linejoin:round;">
<path d="M43922 40625
L43922 42125
" />
<path d="M49625 39650
L50615 39650
" />
<path d="M50615 39650
L50615 41540
" />
<path d="M50615 41540
L49625 41540
" />
<path d="M44125 42125
L43922 42125
" />
<path d="M44125 40625
L43922 40625
" />
<path d="M44125 38775
L45175 38775
" />
<path d="M45175 38775
L45175 36625
" />
</g>
<g style="fill:#000000; fill-opacity:0.0; 
stroke:#000000; stroke-width:60; stroke-opacity:1; 
stroke-linecap:round; stroke-linejoin:round;">
<path d="M54533 57738
L54392 57687
" />
<path d="M54392 57687
L54033 58673
" />
<path d="M54033 58673
L54465 58831
" />
<path d="M55249 48315
L55160 48560
" />
<path d="M54465 58831
L53850 60522
" />
<path d="M51246 50689
L51725 50863
" />
<path d="M57065 51689
L56633 51532
" />
<path d="M53250 60824
L50995 60003
" />
<path d="M51725 50863
L52867 47726
" />
<path d="M57415 49381
L57248 49840
" />
<path d="M55160 48560
L57415 49381
" />
<path d="M49872 59872
L49962 59627
" />
<path d="M56633 51532
L56273 52518
" />
<path d="M56273 52518
L56414 52570
" />
<path d="M50995 60003
L50906 60249
" />
<path d="M54216 47938
L55249 48315
" />
<path d="M49844 56031
L49365 55857
" />
<path d="M49962 59627
L48702 59169
" />
<path d="M49365 55857
L51246 50689
" />
<path d="M56414 52570
L54533 57738
" />
<path d="M53418 60365
L53250 60824
" />
<path d="M48702 59169
L49844 56031
" />
<path d="M53850 60522
L53418 60365
" />
<path d="M57248 49840
L57680 49998
" />
<path d="M50906 60249
L49872 59872
" />
<path d="M52867 47726
L54126 48184
" />
<path d="M54126 48184
L54216 47938
" />
<path d="M57680 49998
L57065 51689
" />
<path d="M44198 48123
L44339 48175
" />
<path d="M44339 48175
L44698 47188
" />
<path d="M44698 47188
L44266 47031
" />
<path d="M43482 57547
L43572 57301
" />
<path d="M44266 47031
L44882 45339
" />
<path d="M47486 55173
L47006 54998
" />
<path d="M41667 54172
L42099 54330
" />
<path d="M45481 45037
L47737 45858
" />
<path d="M47006 54998
L45864 58136
" />
<path d="M41316 56480
L41483 56021
" />
<path d="M43572 57301
L41316 56480
" />
<path d="M48860 45989
L48770 46234
" />
<path d="M42099 54330
L42458 53343
" />
<path d="M42458 53343
L42317 53292
" />
<path d="M47737 45858
L47826 45613
" />
<path d="M44516 57923
L43482 57547
" />
<path d="M48887 49830
L49367 50005
" />
<path d="M48770 46234
L50029 46693
" />
<path d="M49367 50005
L47486 55173
" />
<path d="M42317 53292
L44198 48123
" />
<path d="M45314 45497
L45481 45037
" />
<path d="M50029 46693
L48887 49830
" />
<path d="M44882 45339
L45314 45497
" />
<path d="M41483 56021
L41051 55864
" />
<path d="M47826 45613
L48860 45989
" />
<path d="M45864 58136
L44605 57677
" />
<path d="M44605 57677
L44516 57923
" />
<path d="M41051 55864
L41667 54172
" />
</g>
<g style="fill:#000000; fill-opacity:0.0; 
stroke:#000000; stroke-width:59.0551; stroke-opacity:1; 
stroke-linecap:round; stroke-linejoin:round;">
<path d="M5800 8775
L5800 6625
" />
<path d="M4750 8775
L5800 8775
" />
<path d="M4550 10625
L4750 10625
" />
<path d="M4550 12125
L4750 12125
" />
</g>
<g style="fill:#000000; fill-opacity:0.0; 
stroke:#000000; stroke-width:60; stroke-opacity:1; 
stroke-linecap:round; stroke-linejoin:round;">
<path d="M10250 6625
L10250 12125
" />
<path d="M4750 6625
L10250 6625
" />
<path d="M4750 12125
L4750 6625
" />
<path d="M10250 12125
L4750 12125
" />
</g>
<g style="fill:#000000; fill-opacity:0.0; 
stroke:#000000; stroke-width:59.0551; stroke-opacity:1; 
stroke-linecap:round; stroke-linejoin:round;">
<path d="M11240 9650
L11240 11540
" />
<path d="M10250 9650
L11240 9650
" />
<path d="M11240 11540
L10250 11540
" />
<path d="M4547 12125
L4547 10625
" />
<path d="M5800 16275
L5800 14125
" />
<path d="M4750 16275
L5800 16275
" />
<path d="M4550 18125
L4750 18125
" />
<path d="M4550 19625
L4750 19625
" />
</g>
<g style="fill:#000000; fill-opacity:0.0; 
stroke:#000000; stroke-width:60; stroke-opacity:1; 
stroke-linecap:round; stroke-linejoin:round;">
<path d="M10250 14125
L10250 19625
" />
<path d="M4750 14125
L10250 14125
" />
<path d="M4750 19625
L4750 14125
" />
<path d="M10250 19625
L4750 19625
" />
</g>
<g style="fill:#000000; fill-opacity:0.0; 
stroke:#000000; stroke-width:59.0551; stroke-opacity:1; 
stroke-linecap:round; stroke-linejoin:round;">
<path d="M11240 17150
L11240 19040
" />
<path d="M10250 17150
L11240 17150
" />
<path d="M11240 19040
L10250 19040
" />
<path d="M4547 19625
L4547 18125
" />
<path d="M5800 23775
L5800 21625
" />
<path d="M4750 23775
L5800 23775
" />
<path d="M4550 25625
L4750 25625
" />
<path d="M4550 27125
L4750 27125
" />
</g>
<g style="fill:#000000; fill-opacity:0.0; 
stroke:#000000; stroke-width:60; stroke-opacity:1; 
stroke-linecap:round; stroke-linejoin:round;">
<path d="M10250 21625
L10250 27125
" />
<path d="M4750 21625
L10250 21625
" />
<path d="M4750 27125
L4750 21625
" />
<path d="M10250 27125
L4750 27125
" />
</g>
<g style="fill:#000000; fill-opacity:0.0; 
stroke:#000000; stroke-width:59.0551; stroke-opacity:1; 
stroke-linecap:round; stroke-linejoin:round;">
<path d="M11240 24650
L11240 26540
" />
<path d="M10250 24650
L11240 24650
" />
<path d="M11240 26540
L10250 26540
" />
<path d="M4547 27125
L4547 25625
" />
<path d="M5800 31275
L5800 29125
" />
<path d="M4750 31275
L5800 31275
" />
<path d="M4550 33125
L4750 33125
" />
<path d="M4550 34625
L4750 34625
" />
</g>
<g style="fill:#000000; fill-opacity:0.0; 
stroke:#000000; stroke-width:60; stroke-opacity:1; 
stroke-linecap:round; stroke-linejoin:round;">
<path d="M10250 29125
L10250 34625
" />
<path d="M4750 29125
L10250 29125
" />
<path d="M4750 34625
L4750 29125
" />
<path d="M10250 34625
L4750 34625
" />
</g>
<g style="fill:#000000; fill-opacity:0.0; 
stroke:#000000; stroke-width:59.0551; stroke-opacity:1; 
stroke-linecap:round; stroke-linejoin:round;">
<path d="M11240 32150
L11240 34040
" />
<path d="M10250 32150
L11240 32150
" />
<path d="M11240 34040
L10250 34040
" />
<path d="M4547 34625
L4547 33125
" />
<path d="M5800 38775
L5800 36625
" />
<path d="M4750 38775
L5800 38775
" />
<path d="M4550 40625
L4750 40625
" />
<path d="M4550 42125
L4750 42125
" />
</g>
<g style="fill:#000000; fill-opacity:0.0; 
stroke:#000000; stroke-width:60; stroke-opacity:1; 
stroke-linecap:round; stroke-linejoin:round;">
<path d="M10250 36625
L10250 42125
" />
<path d="M4750 36625
L10250 36625
" />
<path d="M4750 42125
L4750 36625
" />
<path d="M10250 42125
L4750 42125
" />
</g>
<g style="fill:#000000; fill-opacity:0.0; 
stroke:#000000; stroke-width:59.0551; stroke-opacity:1; 
stroke-linecap:round; stroke-linejoin:round;">
<path d="M11240 39650
L11240 41540
" />
<path d="M10250 39650
L11240 39650
" />
<path d="M11240 41540
L10250 41540
" />
<path d="M4547 42125
L4547 40625
" />
<path d="M6737 46275
L6737 44125
" />
<path d="M5687 46275
L6737 46275
" />
<path d="M5484 48125
L5484 49625
" />
</g>
<g style="fill:#000000; fill-opacity:0.0; 
stroke:#000000; stroke-width:60; stroke-opacity:1; 
stroke-linecap:round; stroke-linejoin:round;">
<path d="M11187 49625
L5687 49625
" />
<path d="M5687 49625
L5687 44125
" />
<path d="M5687 44125
L11187 44125
" />
<path d="M11187 44125
L11187 49625
" />
</g>
<g style="fill:#000000; fill-opacity:0.0; 
stroke:#000000; stroke-width:59.0551; stroke-opacity:1; 
stroke-linecap:round; stroke-linejoin:round;">
<path d="M12177 47150
L12177 49040
" />
<path d="M11187 47150
L12177 47150
" />
<path d="M12177 49040
L11187 49040
" />
<path d="M5484 49625
L5687 49625
" />
<path d="M5484 48125
L5687 48125
" />
<path d="M16112 46275
L16112 44125
" />
<path d="M15062 46275
L16112 46275
" />
<path d="M14859 48125
L14859 49625
" />
</g>
<g style="fill:#000000; fill-opacity:0.0; 
stroke:#000000; stroke-width:60; stroke-opacity:1; 
stroke-linecap:round; stroke-linejoin:round;">
<path d="M20562 49625
L15062 49625
" />
<path d="M15062 49625
L15062 44125
" />
<path d="M15062 44125
L20562 44125
" />
<path d="M20562 44125
L20562 49625
" />
</g>
<g style="fill:#000000; fill-opacity:0.0; 
stroke:#000000; stroke-width:59.0551; stroke-opacity:1; 
stroke-linecap:round; stroke-linejoin:round;">
<path d="M21552 47150
L21552 49040
" />
<path d="M20562 47150
L21552 47150
" />
<path d="M21552 49040
L20562 49040
" />
<path d="M14859 49625
L15062 49625
" />
<path d="M14859 48125
L15062 48125
" />
<path d="M25487 46275
L25487 44125
" />
<path d="M24437 46275
L25487 46275
" />
<path d="M24234 48125
L24234 49625
" />
</g>
<g style="fill:#000000; fill-opacity:0.0; 
stroke:#000000; stroke-width:60; stroke-opacity:1; 
stroke-linecap:round; stroke-linejoin:round;">
<path d="M29937 49625
L24437 49625
" />
<path d="M24437 49625
L24437 44125
" />
<path d="M24437 44125
L29937 44125
" />
<path d="M29937 44125
L29937 49625
" />
</g>
<g style="fill:#000000; fill-opacity:0.0; 
stroke:#000000; stroke-width:59.0551; stroke-opacity:1; 
stroke-linecap:round; stroke-linejoin:round;">
<path d="M30927 47150
L30927 49040
" />
<path d="M29937 47150
L30927 47150
" />
<path d="M30927 49040
L29937 49040
" />
<path d="M24234 49625
L24437 49625
" />
<path d="M24234 48125
L24437 48125
" />
<path d="M34862 46275
L34862 44125
" />
<path d="M33812 46275
L34862 46275
" />
<path d="M33609 48125
L33609 49625
" />
</g>
<g style="fill:#000000; fill-opacity:0.0; 
stroke:#000000; stroke-width:60; stroke-opacity:1; 
stroke-linecap:round; stroke-linejoin:round;">
<path d="M39312 49625
L33812 49625
" />
<path d="M33812 49625
L33812 44125
" />
<path d="M33812 44125
L39312 44125
" />
<path d="M39312 44125
L39312 49625
" />
</g>
<g style="fill:#000000; fill-opacity:0.0; 
stroke:#000000; stroke-width:59.0551; stroke-opacity:1; 
stroke-linecap:round; stroke-linejoin:round;">
<path d="M40302 47150
L40302 49040
" />
<path d="M39312 47150
L40302 47150
" />
<path d="M40302 49040
L39312 49040
" />
<path d="M33609 49625
L33812 49625
" />
<path d="M33609 48125
L33812 48125
" />
<g >
</g>
<g >
</g>
<g >
</g>
<g >
</g>
<g >
</g>
<g >
</g>
<g >
</g>
<g >
</g>
<g >
</g>
<g >
</g>
<g >
</g>
<g >
</g>
<g >
</g>
<g >
</g>
<g >
</g>
<g >
</g>
<g >
</g>
<g >
</g>
<g >
</g>
<g >
</g>
<g >
</g>
<g >
</g>
<g >
</g>
<g >
</g>
<g >
</g>
<g >
</g>
<g >
</g>
<g >
</g>
<g >
</g>
<g >
</g>
<g >
</g>
<g >
</g>
<g >
</g>
<g >
</g>
<g >
</g>
<g >
</g>
<g >
</g>
<g >
</g>
<g >
</g>
<g >
</g>
<g >
</g>
<g >
</g>
<g >
</g>
<g >
</g>
<g >
</g>
<g >
</g>
<g style="fill:#000000; fill-opacity:0.0; 
stroke:#000000; stroke-width:59.0551; stroke-opacity:1; 
stroke-linecap:round; stroke-linejoin:round;">
</g>
<g style="fill:#000000; fill-opacity:0.0; 
stroke:#000000; stroke-width:39.3701; stroke-opacity:1; 
stroke-linecap:round; stroke-linejoin:round;">
<circle cx="52362.2" cy="20960" r="511.811" /> 
</g>
<g >
</g>
<g style="fill:#000000; fill-opacity:0.0; 
stroke:#000000; stroke-width:39.3701; stroke-opacity:1; 
stroke-linecap:round; stroke-linejoin:round;">
<circle cx="59510" cy="20960" r="511.811" /> 
</g>
<g >
</g>
<g style="fill:#000000; fill-opacity:0.0; 
stroke:#000000; stroke-width:39.3701; stroke-opacity:1; 
stroke-linecap:round; stroke-linejoin:round;">
<circle cx="41985" cy="44240" r="511.811" /> 
</g>
<g >
</g>
<g style="fill:#000000; fill-opacity:0.0; 
stroke:#000000; stroke-width:39.3701; stroke-opacity:1; 
stroke-linecap:round; stroke-linejoin:round;">
<circle cx="12180" cy="35635" r="511.811" /> 
</g>
<g >
</g>
<g style="fill:#000000; fill-opacity:0.0; 
stroke:#000000; stroke-width:39.3701; stroke-opacity:1; 
stroke-linecap:round; stroke-linejoin:round;">
<circle cx="53505" cy="23730" r="511.811" /> 
</g>
<g >
</g>
<g style="fill:#000000; fill-opacity:0.0; 
stroke:#000000; stroke-width:39.3701; stroke-opacity:1; 
stroke-linecap:round; stroke-linejoin:round;">
<circle cx="12225" cy="13140" r="511.811" /> 
</g>
<g >
</g>
<g >
</g>
<g >
</g>
<g >
</g>
<g >
</g>
<g >
</g>
<g >
</g>
<g >
</g>
<g >
</g>
<g >
</g>
<g >
</g>
<g >
</g>
<g >
</g>
<g >
</g>
<g >
</g>
<g >
</g>
<g >
</g>
<g >
</g>
<g >
</g>
<g >
</g>
<g >
</g>
<g >
</g>
<g >
</g>
<g >
</g>
<g >
</g>
<g >
</g>
<g >
</g>
</g> 
</svg>
