<?xml version="1.0" standalone="no"?>
 <!DOCTYPE svg PUBLIC "-//W3C//DTD SVG 1.1//EN" 
 "http://www.w3.org/Graphics/SVG/1.1/DTD/svg11.dtd"> 
<svg
  xmlns:svg="http://www.w3.org/2000/svg"
  xmlns="http://www.w3.org/2000/svg"
  xmlns:xlink="http://www.w3.org/1999/xlink"
  version="1.1"
  width="29.700220cm" height="21.000720cm" viewBox="0 0 116930 82680">
<title>SVG Picture created as ortho_half-Eco2_User.svg date 2020/11/08 21:35:38 </title>
  <desc>Picture generated by PCBNEW </desc>
<g style="fill:#000000; fill-opacity:1;stroke:#000000; stroke-opacity:1;
stroke-linecap:round; stroke-linejoin:round;"
 transform="translate(0 0) scale(1 1)">
</g>
<g style="fill:#000000; fill-opacity:0.0; 
stroke:#000000; stroke-width:-0.000393701; stroke-opacity:1; 
stroke-linecap:round; stroke-linejoin:round;">
</g>
<g style="fill:#000000; fill-opacity:0.0; 
stroke:#000000; stroke-width:60; stroke-opacity:1; 
stroke-linecap:round; stroke-linejoin:round;">
<path d="M39312 49625
L33812 49625
" />
<path d="M33812 49625
L33812 44125
" />
<path d="M33812 44125
L39312 44125
" />
<path d="M39312 44125
L39312 49625
" />
<path d="M29937 49625
L24437 49625
" />
<path d="M24437 49625
L24437 44125
" />
<path d="M24437 44125
L29937 44125
" />
<path d="M29937 44125
L29937 49625
" />
<path d="M20562 49625
L15062 49625
" />
<path d="M15062 49625
L15062 44125
" />
<path d="M15062 44125
L20562 44125
" />
<path d="M20562 44125
L20562 49625
" />
<path d="M11187 49625
L5687 49625
" />
<path d="M5687 49625
L5687 44125
" />
<path d="M5687 44125
L11187 44125
" />
<path d="M11187 44125
L11187 49625
" />
<path d="M49625 36625
L49625 42125
" />
<path d="M44125 36625
L49625 36625
" />
<path d="M44125 42125
L44125 36625
" />
<path d="M49625 42125
L44125 42125
" />
<path d="M42125 36625
L42125 42125
" />
<path d="M36625 36625
L42125 36625
" />
<path d="M36625 42125
L36625 36625
" />
<path d="M42125 42125
L36625 42125
" />
<path d="M34625 36625
L34625 42125
" />
<path d="M29125 36625
L34625 36625
" />
<path d="M29125 42125
L29125 36625
" />
<path d="M34625 42125
L29125 42125
" />
<path d="M27125 36625
L27125 42125
" />
<path d="M21625 36625
L27125 36625
" />
<path d="M21625 42125
L21625 36625
" />
<path d="M27125 42125
L21625 42125
" />
<path d="M19625 36625
L19625 42125
" />
<path d="M14125 36625
L19625 36625
" />
<path d="M14125 42125
L14125 36625
" />
<path d="M19625 42125
L14125 42125
" />
<path d="M10250 36625
L10250 42125
" />
<path d="M4750 36625
L10250 36625
" />
<path d="M4750 42125
L4750 36625
" />
<path d="M10250 42125
L4750 42125
" />
<path d="M49625 29125
L49625 34625
" />
<path d="M44125 29125
L49625 29125
" />
<path d="M44125 34625
L44125 29125
" />
<path d="M49625 34625
L44125 34625
" />
<path d="M42125 29125
L42125 34625
" />
<path d="M36625 29125
L42125 29125
" />
<path d="M36625 34625
L36625 29125
" />
<path d="M42125 34625
L36625 34625
" />
<path d="M34625 29125
L34625 34625
" />
<path d="M29125 29125
L34625 29125
" />
<path d="M29125 34625
L29125 29125
" />
<path d="M34625 34625
L29125 34625
" />
<path d="M27125 29125
L27125 34625
" />
<path d="M21625 29125
L27125 29125
" />
<path d="M21625 34625
L21625 29125
" />
<path d="M27125 34625
L21625 34625
" />
<path d="M19625 29125
L19625 34625
" />
<path d="M14125 29125
L19625 29125
" />
<path d="M14125 34625
L14125 29125
" />
<path d="M19625 34625
L14125 34625
" />
<path d="M10250 29125
L10250 34625
" />
<path d="M4750 29125
L10250 29125
" />
<path d="M4750 34625
L4750 29125
" />
<path d="M10250 34625
L4750 34625
" />
<path d="M49625 21625
L49625 27125
" />
<path d="M44125 21625
L49625 21625
" />
<path d="M44125 27125
L44125 21625
" />
<path d="M49625 27125
L44125 27125
" />
<path d="M42125 21625
L42125 27125
" />
<path d="M36625 21625
L42125 21625
" />
<path d="M36625 27125
L36625 21625
" />
<path d="M42125 27125
L36625 27125
" />
<path d="M34625 21625
L34625 27125
" />
<path d="M29125 21625
L34625 21625
" />
<path d="M29125 27125
L29125 21625
" />
<path d="M34625 27125
L29125 27125
" />
<path d="M27125 21625
L27125 27125
" />
<path d="M21625 21625
L27125 21625
" />
<path d="M21625 27125
L21625 21625
" />
<path d="M27125 27125
L21625 27125
" />
<path d="M19625 21625
L19625 27125
" />
<path d="M14125 21625
L19625 21625
" />
<path d="M14125 27125
L14125 21625
" />
<path d="M19625 27125
L14125 27125
" />
<path d="M10250 21625
L10250 27125
" />
<path d="M4750 21625
L10250 21625
" />
<path d="M4750 27125
L4750 21625
" />
<path d="M10250 27125
L4750 27125
" />
<path d="M49625 14125
L49625 19625
" />
<path d="M44125 14125
L49625 14125
" />
<path d="M44125 19625
L44125 14125
" />
<path d="M49625 19625
L44125 19625
" />
<path d="M42125 14125
L42125 19625
" />
<path d="M36625 14125
L42125 14125
" />
<path d="M36625 19625
L36625 14125
" />
<path d="M42125 19625
L36625 19625
" />
<path d="M34625 14125
L34625 19625
" />
<path d="M29125 14125
L34625 14125
" />
<path d="M29125 19625
L29125 14125
" />
<path d="M34625 19625
L29125 19625
" />
<path d="M27125 14125
L27125 19625
" />
<path d="M21625 14125
L27125 14125
" />
<path d="M21625 19625
L21625 14125
" />
<path d="M27125 19625
L21625 19625
" />
<path d="M19625 14125
L19625 19625
" />
<path d="M14125 14125
L19625 14125
" />
<path d="M14125 19625
L14125 14125
" />
<path d="M19625 19625
L14125 19625
" />
<path d="M10250 14125
L10250 19625
" />
<path d="M4750 14125
L10250 14125
" />
<path d="M4750 19625
L4750 14125
" />
<path d="M10250 19625
L4750 19625
" />
<path d="M49625 6625
L49625 12125
" />
<path d="M44125 6625
L49625 6625
" />
<path d="M44125 12125
L44125 6625
" />
<path d="M49625 12125
L44125 12125
" />
<path d="M42125 6625
L42125 12125
" />
<path d="M36625 6625
L42125 6625
" />
<path d="M36625 12125
L36625 6625
" />
<path d="M42125 12125
L36625 12125
" />
<path d="M34625 6625
L34625 12125
" />
<path d="M29125 6625
L34625 6625
" />
<path d="M29125 12125
L29125 6625
" />
<path d="M34625 12125
L29125 12125
" />
<path d="M27125 6625
L27125 12125
" />
<path d="M21625 6625
L27125 6625
" />
<path d="M21625 12125
L21625 6625
" />
<path d="M27125 12125
L21625 12125
" />
<path d="M19625 6625
L19625 12125
" />
<path d="M14125 6625
L19625 6625
" />
<path d="M14125 12125
L14125 6625
" />
<path d="M19625 12125
L14125 12125
" />
<path d="M10250 6625
L10250 12125
" />
<path d="M4750 6625
L10250 6625
" />
<path d="M4750 12125
L4750 6625
" />
<path d="M10250 12125
L4750 12125
" />
<path d="M42531 54050
L42750 53449
" />
<path d="M41051 55864
L41667 54172
" />
<path d="M44632 57603
L44516 57923
" />
<path d="M45891 58062
L44632 57603
" />
<path d="M47826 45613
L48860 45989
" />
<path d="M41483 56021
L41051 55864
" />
<path d="M44882 45339
L45314 45497
" />
<path d="M44198 48123
L44631 48281
" />
<path d="M50002 46767
L49106 49229
" />
<path d="M44631 48281
L44850 47679
" />
<path d="M45314 45497
L45454 45111
" />
<path d="M42317 53292
L44198 48123
" />
<path d="M44850 47679
L44558 47573
" />
<path d="M49367 50005
L47486 55173
" />
<path d="M48743 46308
L50002 46767
" />
<path d="M48587 49721
L49367 50005
" />
<path d="M44516 57923
L43482 57547
" />
<path d="M47710 45932
L47826 45613
" />
<path d="M49106 49229
L48806 49119
" />
<path d="M42750 53449
L42317 53292
" />
<path d="M42099 54330
L42239 53944
" />
<path d="M48860 45989
L48743 46308
" />
<path d="M42239 53944
L42531 54050
" />
<path d="M43599 57227
L41343 56406
" />
<path d="M41343 56406
L41483 56021
" />
<path d="M46787 55600
L45891 58062
" />
<path d="M46487 55490
L46787 55600
" />
<path d="M46706 54889
L46487 55490
" />
<path d="M45454 45111
L47710 45932
" />
<path d="M41667 54172
L42099 54330
" />
<path d="M47486 55173
L46706 54889
" />
<path d="M44266 47031
L44882 45339
" />
<path d="M48806 49119
L48587 49721
" />
<path d="M43482 57547
L43599 57227
" />
<path d="M44698 47188
L44266 47031
" />
<path d="M44558 47573
L44698 47188
" />
<path d="M56201 51811
L55982 52412
" />
<path d="M57680 49998
L57065 51689
" />
<path d="M54100 48258
L54216 47938
" />
<path d="M52840 47800
L54100 48258
" />
<path d="M50906 60249
L49872 59872
" />
<path d="M57248 49840
L57680 49998
" />
<path d="M53850 60522
L53418 60365
" />
<path d="M54533 57738
L54101 57581
" />
<path d="M48729 59095
L49625 56633
" />
<path d="M54101 57581
L53882 58182
" />
<path d="M53418 60365
L53277 60750
" />
<path d="M56414 52570
L54533 57738
" />
<path d="M53882 58182
L54173 58288
" />
<path d="M49365 55857
L51246 50689
" />
<path d="M49988 59553
L48729 59095
" />
<path d="M50145 56141
L49365 55857
" />
<path d="M54216 47938
L55249 48315
" />
<path d="M51022 59929
L50906 60249
" />
<path d="M49625 56633
L49926 56742
" />
<path d="M55982 52412
L56414 52570
" />
<path d="M56633 51532
L56492 51917
" />
<path d="M49872 59872
L49988 59553
" />
<path d="M56492 51917
L56201 51811
" />
<path d="M55133 48634
L57388 49455
" />
<path d="M57388 49455
L57248 49840
" />
<path d="M51944 50262
L52840 47800
" />
<path d="M52245 50371
L51944 50262
" />
<path d="M52026 50972
L52245 50371
" />
<path d="M53277 60750
L51022 59929
" />
<path d="M57065 51689
L56633 51532
" />
<path d="M51246 50689
L52026 50972
" />
<path d="M54465 58831
L53850 60522
" />
<path d="M49926 56742
L50145 56141
" />
<path d="M55249 48315
L55133 48634
" />
<path d="M54033 58673
L54465 58831
" />
<path d="M54173 58288
L54033 58673
" />
<g >
</g>
<g >
</g>
<g >
</g>
<g >
</g>
<g >
</g>
<g >
</g>
<g >
</g>
<g >
</g>
<g >
</g>
<g >
</g>
<g >
</g>
<g >
</g>
<g >
</g>
<g >
</g>
<g >
</g>
<g >
</g>
<g >
</g>
<g >
</g>
<g >
</g>
<g >
</g>
<g >
</g>
<g >
</g>
<g >
</g>
<g >
</g>
<g >
</g>
<g >
</g>
<g >
</g>
<g >
</g>
<g >
</g>
<g >
</g>
<g >
</g>
<g >
</g>
<g >
</g>
<g >
</g>
<g >
</g>
<g >
</g>
<g >
</g>
<g >
</g>
<g >
</g>
<g >
</g>
<g >
</g>
<g >
</g>
<g >
</g>
<g >
</g>
<g >
</g>
<g >
</g>
<g >
</g>
<g >
</g>
<g >
</g>
<g >
</g>
<g >
</g>
<g >
</g>
<g >
</g>
<g >
</g>
<g >
</g>
<g >
</g>
<g >
</g>
<g >
</g>
<g >
</g>
<g >
</g>
<g >
</g>
</g> 
</svg>
