<?xml version="1.0" standalone="no"?>
 <!DOCTYPE svg PUBLIC "-//W3C//DTD SVG 1.1//EN" 
 "http://www.w3.org/Graphics/SVG/1.1/DTD/svg11.dtd"> 
<svg
  xmlns:svg="http://www.w3.org/2000/svg"
  xmlns="http://www.w3.org/2000/svg"
  xmlns:xlink="http://www.w3.org/1999/xlink"
  version="1.1"
  width="29.700220cm" height="21.000720cm" viewBox="0 0 116930 82680">
<title>SVG Picture created as ortho_half-Edge_Cuts.svg date 2020/11/08 21:35:38 </title>
  <desc>Picture generated by PCBNEW </desc>
<g style="fill:#000000; fill-opacity:1;stroke:#000000; stroke-opacity:1;
stroke-linecap:round; stroke-linejoin:round;"
 transform="translate(0 0) scale(1 1)">
</g>
<g style="fill:#000000; fill-opacity:0.0; 
stroke:#000000; stroke-width:-0.000393701; stroke-opacity:1; 
stroke-linecap:round; stroke-linejoin:round;">
</g>
<g style="fill:#000000; fill-opacity:0.0; 
stroke:#000000; stroke-width:19.685; stroke-opacity:1; 
stroke-linecap:round; stroke-linejoin:round;">
<path d="M55108 63206
L61343 46078
" />
<path d="M38442 57184
L40829 50625
" />
<path d="M40829 50625
L1920 50625
" />
<path d="M55108 63206
L38442 57184
" />
<path d="M61343 5669
L61343 46078
" />
<path d="M1920 5669
L61343 5669
" />
<path d="M1920 50625
L1920 5669
" />
</g>
<g style="fill:#000000; fill-opacity:0.0; 
stroke:#000000; stroke-width:47.2441; stroke-opacity:1; 
stroke-linecap:round; stroke-linejoin:round;">
<path d="M37192 45615
L35932 45615
" />
<path d="M35853 45536
L35853 44434
" />
<path d="M37192 44355
L35932 44355
" />
<path d="M37271 45536
L37271 44434
" />
<path d="M35932.5 44355.3 A78.7402 78.7402 0.0 0 0 35853.7 44434.1" />
<path d="M37271.1 44434.1 A78.7402 78.7402 0.0 0 0 37192.3 44355.3" />
<path d="M35853.7 45536.4 A78.7402 78.7402 0.0 0 0 35932.5 45615.2" />
<path d="M37192.3 45615.2 A78.7402 78.7402 0.0 0 0 37271.1 45536.4" />
<path d="M27817 45615
L26557 45615
" />
<path d="M26478 45536
L26478 44434
" />
<path d="M27817 44355
L26557 44355
" />
<path d="M27896 45536
L27896 44434
" />
<path d="M26557.5 44355.3 A78.7402 78.7402 0.0 0 0 26478.7 44434.1" />
<path d="M27896.1 44434.1 A78.7402 78.7402 0.0 0 0 27817.3 44355.3" />
<path d="M26478.7 45536.4 A78.7402 78.7402 0.0 0 0 26557.5 45615.2" />
<path d="M27817.3 45615.2 A78.7402 78.7402 0.0 0 0 27896.1 45536.4" />
<path d="M18442 45615
L17182 45615
" />
<path d="M17103 45536
L17103 44434
" />
<path d="M18442 44355
L17182 44355
" />
<path d="M18521 45536
L18521 44434
" />
<path d="M17182.5 44355.3 A78.7402 78.7402 0.0 0 0 17103.7 44434.1" />
<path d="M18521.1 44434.1 A78.7402 78.7402 0.0 0 0 18442.3 44355.3" />
<path d="M17103.7 45536.4 A78.7402 78.7402 0.0 0 0 17182.5 45615.2" />
<path d="M18442.3 45615.2 A78.7402 78.7402 0.0 0 0 18521.1 45536.4" />
<path d="M9067 45615
L7807 45615
" />
<path d="M7728 45536
L7728 44434
" />
<path d="M9067 44355
L7807 44355
" />
<path d="M9146 45536
L9146 44434
" />
<path d="M7807.48 44355.3 A78.7402 78.7402 0.0 0 0 7728.74 44434.1" />
<path d="M9146.06 44434.1 A78.7402 78.7402 0.0 0 0 9067.32 44355.3" />
<path d="M7728.74 45536.4 A78.7402 78.7402 0.0 0 0 7807.48 45615.2" />
<path d="M9067.32 45615.2 A78.7402 78.7402 0.0 0 0 9146.06 45536.4" />
<path d="M47583 38036
L47583 36934
" />
<path d="M47504 36855
L46245 36855
" />
<path d="M46166 38036
L46166 36934
" />
<path d="M47504 38115
L46245 38115
" />
<path d="M46245.1 36855.3 A78.7402 78.7402 0.0 0 0 46166.3 36934.1" />
<path d="M47583.7 36934.1 A78.7402 78.7402 0.0 0 0 47504.9 36855.3" />
<path d="M46166.3 38036.4 A78.7402 78.7402 0.0 0 0 46245.1 38115.2" />
<path d="M47504.9 38115.2 A78.7402 78.7402 0.0 0 0 47583.7 38036.4" />
<path d="M40083 38036
L40083 36934
" />
<path d="M40004 36855
L38745 36855
" />
<path d="M38666 38036
L38666 36934
" />
<path d="M40004 38115
L38745 38115
" />
<path d="M38745.1 36855.3 A78.7402 78.7402 0.0 0 0 38666.3 36934.1" />
<path d="M40083.7 36934.1 A78.7402 78.7402 0.0 0 0 40004.9 36855.3" />
<path d="M38666.3 38036.4 A78.7402 78.7402 0.0 0 0 38745.1 38115.2" />
<path d="M40004.9 38115.2 A78.7402 78.7402 0.0 0 0 40083.7 38036.4" />
<path d="M32583 38036
L32583 36934
" />
<path d="M32504 36855
L31245 36855
" />
<path d="M31166 38036
L31166 36934
" />
<path d="M32504 38115
L31245 38115
" />
<path d="M31245.1 36855.3 A78.7402 78.7402 0.0 0 0 31166.3 36934.1" />
<path d="M32583.7 36934.1 A78.7402 78.7402 0.0 0 0 32504.9 36855.3" />
<path d="M31166.3 38036.4 A78.7402 78.7402 0.0 0 0 31245.1 38115.2" />
<path d="M32504.9 38115.2 A78.7402 78.7402 0.0 0 0 32583.7 38036.4" />
<path d="M25083 38036
L25083 36934
" />
<path d="M25004 36855
L23745 36855
" />
<path d="M23666 38036
L23666 36934
" />
<path d="M25004 38115
L23745 38115
" />
<path d="M23745.1 36855.3 A78.7402 78.7402 0.0 0 0 23666.3 36934.1" />
<path d="M25083.7 36934.1 A78.7402 78.7402 0.0 0 0 25004.9 36855.3" />
<path d="M23666.3 38036.4 A78.7402 78.7402 0.0 0 0 23745.1 38115.2" />
<path d="M25004.9 38115.2 A78.7402 78.7402 0.0 0 0 25083.7 38036.4" />
<path d="M17583 38036
L17583 36934
" />
<path d="M17504 36855
L16245 36855
" />
<path d="M16166 38036
L16166 36934
" />
<path d="M17504 38115
L16245 38115
" />
<path d="M16245.1 36855.3 A78.7402 78.7402 0.0 0 0 16166.3 36934.1" />
<path d="M17583.7 36934.1 A78.7402 78.7402 0.0 0 0 17504.9 36855.3" />
<path d="M16166.3 38036.4 A78.7402 78.7402 0.0 0 0 16245.1 38115.2" />
<path d="M17504.9 38115.2 A78.7402 78.7402 0.0 0 0 17583.7 38036.4" />
<path d="M8208 38036
L8208 36934
" />
<path d="M8130 36855
L6870 36855
" />
<path d="M6791 38036
L6791 36934
" />
<path d="M8130 38115
L6870 38115
" />
<path d="M8130.12 38115.2 A78.7402 78.7402 0.0 0 0 8208.86 38036.4" />
<path d="M6791.54 38036.4 A78.7402 78.7402 0.0 0 0 6870.28 38115.2" />
<path d="M8208.86 36934.1 A78.7402 78.7402 0.0 0 0 8130.12 36855.3" />
<path d="M6870.28 36855.3 A78.7402 78.7402 0.0 0 0 6791.54 36934.1" />
<path d="M47583 30536
L47583 29434
" />
<path d="M47504 29355
L46245 29355
" />
<path d="M46166 30536
L46166 29434
" />
<path d="M47504 30615
L46245 30615
" />
<path d="M46245.1 29355.3 A78.7402 78.7402 0.0 0 0 46166.3 29434.1" />
<path d="M47583.7 29434.1 A78.7402 78.7402 0.0 0 0 47504.9 29355.3" />
<path d="M46166.3 30536.4 A78.7402 78.7402 0.0 0 0 46245.1 30615.2" />
<path d="M47504.9 30615.2 A78.7402 78.7402 0.0 0 0 47583.7 30536.4" />
<path d="M40083 30536
L40083 29434
" />
<path d="M40004 29355
L38745 29355
" />
<path d="M38666 30536
L38666 29434
" />
<path d="M40004 30615
L38745 30615
" />
<path d="M38745.1 29355.3 A78.7402 78.7402 0.0 0 0 38666.3 29434.1" />
<path d="M40083.7 29434.1 A78.7402 78.7402 0.0 0 0 40004.9 29355.3" />
<path d="M38666.3 30536.4 A78.7402 78.7402 0.0 0 0 38745.1 30615.2" />
<path d="M40004.9 30615.2 A78.7402 78.7402 0.0 0 0 40083.7 30536.4" />
<path d="M32583 30536
L32583 29434
" />
<path d="M32504 29355
L31245 29355
" />
<path d="M31166 30536
L31166 29434
" />
<path d="M32504 30615
L31245 30615
" />
<path d="M31245.1 29355.3 A78.7402 78.7402 0.0 0 0 31166.3 29434.1" />
<path d="M32583.7 29434.1 A78.7402 78.7402 0.0 0 0 32504.9 29355.3" />
<path d="M31166.3 30536.4 A78.7402 78.7402 0.0 0 0 31245.1 30615.2" />
<path d="M32504.9 30615.2 A78.7402 78.7402 0.0 0 0 32583.7 30536.4" />
<path d="M25083 30536
L25083 29434
" />
<path d="M25004 29355
L23745 29355
" />
<path d="M23666 30536
L23666 29434
" />
<path d="M25004 30615
L23745 30615
" />
<path d="M23745.1 29355.3 A78.7402 78.7402 0.0 0 0 23666.3 29434.1" />
<path d="M25083.7 29434.1 A78.7402 78.7402 0.0 0 0 25004.9 29355.3" />
<path d="M23666.3 30536.4 A78.7402 78.7402 0.0 0 0 23745.1 30615.2" />
<path d="M25004.9 30615.2 A78.7402 78.7402 0.0 0 0 25083.7 30536.4" />
<path d="M17583 30536
L17583 29434
" />
<path d="M17504 29355
L16245 29355
" />
<path d="M16166 30536
L16166 29434
" />
<path d="M17504 30615
L16245 30615
" />
<path d="M16245.1 29355.3 A78.7402 78.7402 0.0 0 0 16166.3 29434.1" />
<path d="M17583.7 29434.1 A78.7402 78.7402 0.0 0 0 17504.9 29355.3" />
<path d="M16166.3 30536.4 A78.7402 78.7402 0.0 0 0 16245.1 30615.2" />
<path d="M17504.9 30615.2 A78.7402 78.7402 0.0 0 0 17583.7 30536.4" />
<path d="M8208 30536
L8208 29434
" />
<path d="M8130 29355
L6870 29355
" />
<path d="M6791 30536
L6791 29434
" />
<path d="M8130 30615
L6870 30615
" />
<path d="M8130.12 30615.2 A78.7402 78.7402 0.0 0 0 8208.86 30536.4" />
<path d="M6791.54 30536.4 A78.7402 78.7402 0.0 0 0 6870.28 30615.2" />
<path d="M8208.86 29434.1 A78.7402 78.7402 0.0 0 0 8130.12 29355.3" />
<path d="M6870.28 29355.3 A78.7402 78.7402 0.0 0 0 6791.54 29434.1" />
<path d="M47583 23036
L47583 21934
" />
<path d="M47504 21855
L46245 21855
" />
<path d="M46166 23036
L46166 21934
" />
<path d="M47504 23115
L46245 23115
" />
<path d="M46245.1 21855.3 A78.7402 78.7402 0.0 0 0 46166.3 21934.1" />
<path d="M47583.7 21934.1 A78.7402 78.7402 0.0 0 0 47504.9 21855.3" />
<path d="M46166.3 23036.4 A78.7402 78.7402 0.0 0 0 46245.1 23115.2" />
<path d="M47504.9 23115.2 A78.7402 78.7402 0.0 0 0 47583.7 23036.4" />
<path d="M40083 23036
L40083 21934
" />
<path d="M40004 21855
L38745 21855
" />
<path d="M38666 23036
L38666 21934
" />
<path d="M40004 23115
L38745 23115
" />
<path d="M38745.1 21855.3 A78.7402 78.7402 0.0 0 0 38666.3 21934.1" />
<path d="M40083.7 21934.1 A78.7402 78.7402 0.0 0 0 40004.9 21855.3" />
<path d="M38666.3 23036.4 A78.7402 78.7402 0.0 0 0 38745.1 23115.2" />
<path d="M40004.9 23115.2 A78.7402 78.7402 0.0 0 0 40083.7 23036.4" />
<path d="M32583 23036
L32583 21934
" />
<path d="M32504 21855
L31245 21855
" />
<path d="M31166 23036
L31166 21934
" />
<path d="M32504 23115
L31245 23115
" />
<path d="M31245.1 21855.3 A78.7402 78.7402 0.0 0 0 31166.3 21934.1" />
<path d="M32583.7 21934.1 A78.7402 78.7402 0.0 0 0 32504.9 21855.3" />
<path d="M31166.3 23036.4 A78.7402 78.7402 0.0 0 0 31245.1 23115.2" />
<path d="M32504.9 23115.2 A78.7402 78.7402 0.0 0 0 32583.7 23036.4" />
<path d="M25083 23036
L25083 21934
" />
<path d="M25004 21855
L23745 21855
" />
<path d="M23666 23036
L23666 21934
" />
<path d="M25004 23115
L23745 23115
" />
<path d="M23745.1 21855.3 A78.7402 78.7402 0.0 0 0 23666.3 21934.1" />
<path d="M25083.7 21934.1 A78.7402 78.7402 0.0 0 0 25004.9 21855.3" />
<path d="M23666.3 23036.4 A78.7402 78.7402 0.0 0 0 23745.1 23115.2" />
<path d="M25004.9 23115.2 A78.7402 78.7402 0.0 0 0 25083.7 23036.4" />
<path d="M17583 23036
L17583 21934
" />
<path d="M17504 21855
L16245 21855
" />
<path d="M16166 23036
L16166 21934
" />
<path d="M17504 23115
L16245 23115
" />
<path d="M16245.1 21855.3 A78.7402 78.7402 0.0 0 0 16166.3 21934.1" />
<path d="M17583.7 21934.1 A78.7402 78.7402 0.0 0 0 17504.9 21855.3" />
<path d="M16166.3 23036.4 A78.7402 78.7402 0.0 0 0 16245.1 23115.2" />
<path d="M17504.9 23115.2 A78.7402 78.7402 0.0 0 0 17583.7 23036.4" />
<path d="M8208 23036
L8208 21934
" />
<path d="M8130 21855
L6870 21855
" />
<path d="M6791 23036
L6791 21934
" />
<path d="M8130 23115
L6870 23115
" />
<path d="M8130.12 23115.2 A78.7402 78.7402 0.0 0 0 8208.86 23036.4" />
<path d="M6791.54 23036.4 A78.7402 78.7402 0.0 0 0 6870.28 23115.2" />
<path d="M8208.86 21934.1 A78.7402 78.7402 0.0 0 0 8130.12 21855.3" />
<path d="M6870.28 21855.3 A78.7402 78.7402 0.0 0 0 6791.54 21934.1" />
<path d="M47583 15536
L47583 14434
" />
<path d="M47504 14355
L46245 14355
" />
<path d="M46166 15536
L46166 14434
" />
<path d="M47504 15615
L46245 15615
" />
<path d="M46245.1 14355.3 A78.7402 78.7402 0.0 0 0 46166.3 14434.1" />
<path d="M47583.7 14434.1 A78.7402 78.7402 0.0 0 0 47504.9 14355.3" />
<path d="M46166.3 15536.4 A78.7402 78.7402 0.0 0 0 46245.1 15615.2" />
<path d="M47504.9 15615.2 A78.7402 78.7402 0.0 0 0 47583.7 15536.4" />
<path d="M40083 15536
L40083 14434
" />
<path d="M40004 14355
L38745 14355
" />
<path d="M38666 15536
L38666 14434
" />
<path d="M40004 15615
L38745 15615
" />
<path d="M38745.1 14355.3 A78.7402 78.7402 0.0 0 0 38666.3 14434.1" />
<path d="M40083.7 14434.1 A78.7402 78.7402 0.0 0 0 40004.9 14355.3" />
<path d="M38666.3 15536.4 A78.7402 78.7402 0.0 0 0 38745.1 15615.2" />
<path d="M40004.9 15615.2 A78.7402 78.7402 0.0 0 0 40083.7 15536.4" />
<path d="M32583 15536
L32583 14434
" />
<path d="M32504 14355
L31245 14355
" />
<path d="M31166 15536
L31166 14434
" />
<path d="M32504 15615
L31245 15615
" />
<path d="M31245.1 14355.3 A78.7402 78.7402 0.0 0 0 31166.3 14434.1" />
<path d="M32583.7 14434.1 A78.7402 78.7402 0.0 0 0 32504.9 14355.3" />
<path d="M31166.3 15536.4 A78.7402 78.7402 0.0 0 0 31245.1 15615.2" />
<path d="M32504.9 15615.2 A78.7402 78.7402 0.0 0 0 32583.7 15536.4" />
<path d="M25083 15536
L25083 14434
" />
<path d="M25004 14355
L23745 14355
" />
<path d="M23666 15536
L23666 14434
" />
<path d="M25004 15615
L23745 15615
" />
<path d="M23745.1 14355.3 A78.7402 78.7402 0.0 0 0 23666.3 14434.1" />
<path d="M25083.7 14434.1 A78.7402 78.7402 0.0 0 0 25004.9 14355.3" />
<path d="M23666.3 15536.4 A78.7402 78.7402 0.0 0 0 23745.1 15615.2" />
<path d="M25004.9 15615.2 A78.7402 78.7402 0.0 0 0 25083.7 15536.4" />
<path d="M17583 15536
L17583 14434
" />
<path d="M17504 14355
L16245 14355
" />
<path d="M16166 15536
L16166 14434
" />
<path d="M17504 15615
L16245 15615
" />
<path d="M16245.1 14355.3 A78.7402 78.7402 0.0 0 0 16166.3 14434.1" />
<path d="M17583.7 14434.1 A78.7402 78.7402 0.0 0 0 17504.9 14355.3" />
<path d="M16166.3 15536.4 A78.7402 78.7402 0.0 0 0 16245.1 15615.2" />
<path d="M17504.9 15615.2 A78.7402 78.7402 0.0 0 0 17583.7 15536.4" />
<path d="M8208 15536
L8208 14434
" />
<path d="M8130 14355
L6870 14355
" />
<path d="M6791 15536
L6791 14434
" />
<path d="M8130 15615
L6870 15615
" />
<path d="M8130.12 15615.2 A78.7402 78.7402 0.0 0 0 8208.86 15536.4" />
<path d="M6791.54 15536.4 A78.7402 78.7402 0.0 0 0 6870.28 15615.2" />
<path d="M8208.86 14434.1 A78.7402 78.7402 0.0 0 0 8130.12 14355.3" />
<path d="M6870.28 14355.3 A78.7402 78.7402 0.0 0 0 6791.54 14434.1" />
<path d="M47583 8036
L47583 6934
" />
<path d="M47504 6855
L46245 6855
" />
<path d="M46166 8036
L46166 6934
" />
<path d="M47504 8115
L46245 8115
" />
<path d="M46245.1 6855.31 A78.7402 78.7402 0.0 0 0 46166.3 6934.06" />
<path d="M47583.7 6934.06 A78.7402 78.7402 0.0 0 0 47504.9 6855.31" />
<path d="M46166.3 8036.42 A78.7402 78.7402 0.0 0 0 46245.1 8115.16" />
<path d="M47504.9 8115.16 A78.7402 78.7402 0.0 0 0 47583.7 8036.42" />
<path d="M40083 8036
L40083 6934
" />
<path d="M40004 6855
L38745 6855
" />
<path d="M38666 8036
L38666 6934
" />
<path d="M40004 8115
L38745 8115
" />
<path d="M38745.1 6855.31 A78.7402 78.7402 0.0 0 0 38666.3 6934.06" />
<path d="M40083.7 6934.06 A78.7402 78.7402 0.0 0 0 40004.9 6855.31" />
<path d="M38666.3 8036.42 A78.7402 78.7402 0.0 0 0 38745.1 8115.16" />
<path d="M40004.9 8115.16 A78.7402 78.7402 0.0 0 0 40083.7 8036.42" />
<path d="M32583 8036
L32583 6934
" />
<path d="M32504 6855
L31245 6855
" />
<path d="M31166 8036
L31166 6934
" />
<path d="M32504 8115
L31245 8115
" />
<path d="M31245.1 6855.31 A78.7402 78.7402 0.0 0 0 31166.3 6934.06" />
<path d="M32583.7 6934.06 A78.7402 78.7402 0.0 0 0 32504.9 6855.31" />
<path d="M31166.3 8036.42 A78.7402 78.7402 0.0 0 0 31245.1 8115.16" />
<path d="M32504.9 8115.16 A78.7402 78.7402 0.0 0 0 32583.7 8036.42" />
<path d="M25083 8036
L25083 6934
" />
<path d="M25004 6855
L23745 6855
" />
<path d="M23666 8036
L23666 6934
" />
<path d="M25004 8115
L23745 8115
" />
<path d="M23745.1 6855.31 A78.7402 78.7402 0.0 0 0 23666.3 6934.06" />
<path d="M25083.7 6934.06 A78.7402 78.7402 0.0 0 0 25004.9 6855.31" />
<path d="M23666.3 8036.42 A78.7402 78.7402 0.0 0 0 23745.1 8115.16" />
<path d="M25004.9 8115.16 A78.7402 78.7402 0.0 0 0 25083.7 8036.42" />
<path d="M17583 8036
L17583 6934
" />
<path d="M17504 6855
L16245 6855
" />
<path d="M16166 8036
L16166 6934
" />
<path d="M17504 8115
L16245 8115
" />
<path d="M16245.1 6855.31 A78.7402 78.7402 0.0 0 0 16166.3 6934.06" />
<path d="M17583.7 6934.06 A78.7402 78.7402 0.0 0 0 17504.9 6855.31" />
<path d="M16166.3 8036.42 A78.7402 78.7402 0.0 0 0 16245.1 8115.16" />
<path d="M17504.9 8115.16 A78.7402 78.7402 0.0 0 0 17583.7 8036.42" />
<path d="M8208 8036
L8208 6934
" />
<path d="M8130 6855
L6870 6855
" />
<path d="M6791 8036
L6791 6934
" />
<path d="M8130 8115
L6870 8115
" />
<path d="M8130.12 8115.16 A78.7402 78.7402 0.0 0 0 8208.86 8036.42" />
<path d="M6791.54 8036.42 A78.7402 78.7402 0.0 0 0 6870.28 8115.16" />
<path d="M8208.86 6934.06 A78.7402 78.7402 0.0 0 0 8130.12 6855.31" />
<path d="M6870.28 6855.31 A78.7402 78.7402 0.0 0 0 6791.54 6934.06" />
<path d="M44827 50524
L43791 50147
" />
<path d="M43690 50194
L43259 51378
" />
<path d="M44342 51856
L43306 51479
" />
<path d="M44874 50625
L44443 51809
" />
<path d="M44874.1 50625.8 A78.7402 78.7402 0.0 0 0 44827 50524.9" />
<path d="M44342.3 51856.7 A78.7398 78.7398 0.0 0 0 44443.2 51809.7" />
<path d="M43791.1 50147.8 A78.7402 78.7402 0.0 0 0 43690.2 50194.9" />
<path d="M43259.3 51378.8 A78.7402 78.7402 0.0 0 0 43306.4 51479.7" />
<path d="M53905 55337
L54941 55714
" />
<path d="M55042 55667
L55473 54483
" />
<path d="M54390 54005
L55426 54382
" />
<path d="M53858 55236
L54289 54052
" />
<path d="M53858.6 55236.6 A78.7402 78.7402 0.0 0 0 53905.7 55337.5" />
<path d="M54390.4 54005.7 A78.7398 78.7398 0.0 0 0 54289.5 54052.7" />
<path d="M54941.6 55714.5 A78.7402 78.7402 0.0 0 0 55042.5 55667.5" />
<path d="M55473.4 54483.6 A78.7402 78.7402 0.0 0 0 55426.3 54382.7" />
<g >
</g>
<g >
</g>
<g >
</g>
<g >
</g>
<g >
</g>
<g >
</g>
<g >
</g>
<g >
</g>
<g >
</g>
<g >
</g>
<g >
</g>
<g >
</g>
<g >
</g>
<g >
</g>
<g >
</g>
<g >
</g>
<g >
</g>
<g >
</g>
<g >
</g>
<g >
</g>
<g >
</g>
<g >
</g>
<g >
</g>
<g >
</g>
<g >
</g>
<g >
</g>
<g >
</g>
<g >
</g>
<g >
</g>
<g >
</g>
<g >
</g>
<g >
</g>
<g >
</g>
<g >
</g>
<g >
</g>
<g >
</g>
<g >
</g>
<g >
</g>
<g >
</g>
<g >
</g>
<g >
</g>
<g >
</g>
<g >
</g>
<g >
</g>
<g >
</g>
<g >
</g>
<g >
</g>
<g >
</g>
<g >
</g>
<g >
</g>
<g >
</g>
<g >
</g>
<g >
</g>
<g >
</g>
<g >
</g>
<g >
</g>
<g >
</g>
<g >
</g>
<g >
</g>
<g >
</g>
<g >
</g>
</g> 
</svg>
