  0
SECTION
  2
HEADER
  9
$ANGBASE
  50
0.0
  9
$ANGDIR
  70
1
  9
$MEASUREMENT
  70
1
  0
ENDSEC
  0
SECTION
  2
TABLES
  0
TABLE
  2
LTYPE
  70
4
  0
LTYPE
  5
40F
  2
CONTINUOUS
  70
0
  3
Solid line
  72
65
  73
0
  40
0.0
  0
LTYPE
  5
410
  2
DASHDOT
 70
0
  3
Dash Dot ____ _ ____ _
 72
65
 73
4
 40
2.0
 49
1.25
 49
-0.25
 49
0.25
 49
-0.25
  0
LTYPE
  5
411
  2
DASHED
 70
0
  3
Dashed __ __ __ __ __
 72
65
 73
2
 40
0.75
 49
0.5
 49
-0.25
  0
LTYPE
  5
43B
  2
DOTTED
 70
0
  3
Dotted .  .  .  .
 72
65
 73
2
 40
0.2
 49
0.0
 49
-0.2
  0
ENDTAB
  0
TABLE
  2
STYLE
  70
4
  0
STYLE
  2
KICAD
  70
0
  40
0
  41
1
  42
1
  50
0
  71
0
  3
isocp.shx
  0
STYLE
  2
KICADB
  70
0
  40
0
  41
1
  42
1
  50
0
  71
0
  3
isocp.shx
  0
STYLE
  2
KICADI
  70
0
  40
0
  41
1
  42
1
  50
15
  71
0
  3
isocp.shx
  0
STYLE
  2
KICADBI
  70
0
  40
0
  41
1
  42
1
  50
15
  71
0
  3
isocp.shx
  0
ENDTAB
  0
TABLE
  2
LAYER
  70
1
  0
LAYER
  2
BLACK
  70
0
  62
7
  6
CONTINUOUS
  0
ENDTAB
  0
ENDSEC
  0
SECTION
  2
ENTITIES
0
ARC
8
BLACK
10
139.078
20
-158.622
40
1.5
50
-110
51
-20
0
ARC
8
BLACK
10
99.5646
20
-144.351
40
1.5
50
-200
51
-110
0
ARC
8
BLACK
10
6.3768
20
-127.087
40
1.5
50
180
51
270
0
ARC
8
BLACK
10
6.3768
20
-15.9
40
1.5
50
90
51
180
0
ARC
8
BLACK
10
152.812
20
-17.4
40
1.5
50
-0
51
90
0
LINE
8
BLACK
6
CONTINUOUS
10
143.091
20
-36.6014
11
138.532
21
-36.6014
0
LINE
8
BLACK
6
CONTINUOUS
10
143.091
20
-38.9001
11
143.091
21
-36.6014
0
LINE
8
BLACK
6
CONTINUOUS
10
138.532
20
-38.9001
11
143.091
21
-38.9001
0
LINE
8
BLACK
6
CONTINUOUS
10
138.532
20
-36.6014
11
138.532
21
-38.9001
0
LINE
8
BLACK
6
CONTINUOUS
10
154.312
20
-57
11
155.812
21
-57
0
LINE
8
BLACK
6
CONTINUOUS
10
154.312
20
-17.4
11
154.312
21
-57
0
LINE
8
BLACK
6
CONTINUOUS
10
128.6
20
-15.9
11
152.812
21
-15.9
0
LINE
8
BLACK
6
CONTINUOUS
10
128.6
20
-14.4
11
128.6
21
-15.9
0
LINE
8
BLACK
6
CONTINUOUS
10
140.488
20
-159.135
11
155.812
21
-117.04
0
LINE
8
BLACK
6
CONTINUOUS
10
98.155
20
-143.838
11
103.708
21
-128.588
0
LINE
8
BLACK
6
CONTINUOUS
10
103.708
20
-128.588
11
6.3768
21
-128.588
0
LINE
8
BLACK
6
CONTINUOUS
10
138.565
20
-160.032
11
99.0515
21
-145.761
0
LINE
8
BLACK
6
CONTINUOUS
10
155.812
20
-57
11
155.812
21
-117.04
0
LINE
8
BLACK
6
CONTINUOUS
10
6.3768
20
-14.4
11
128.6
21
-14.4
0
LINE
8
BLACK
6
CONTINUOUS
10
4.8768
20
-127.087
11
4.8768
21
-15.9
0
ARC
8
BLACK
10
41.2625
20
-17.6125
40
0.2
50
90
51
180
0
ARC
8
BLACK
10
44.4625
20
-17.6125
40
0.2
50
-0
51
90
0
ARC
8
BLACK
10
41.2625
20
-20.4125
40
0.2
50
180
51
270
0
ARC
8
BLACK
10
44.4625
20
-20.4125
40
0.2
50
-90
51
-0
0
LINE
8
BLACK
6
CONTINUOUS
10
44.6625
20
-20.4125
11
44.6625
21
-17.6125
0
LINE
8
BLACK
6
CONTINUOUS
10
44.4625
20
-17.4125
11
41.2625
21
-17.4125
0
LINE
8
BLACK
6
CONTINUOUS
10
41.0625
20
-20.4125
11
41.0625
21
-17.6125
0
LINE
8
BLACK
6
CONTINUOUS
10
44.4625
20
-20.6125
11
41.2625
21
-20.6125
0
ARC
8
BLACK
10
60.3125
20
-17.6125
40
0.2
50
90
51
180
0
ARC
8
BLACK
10
63.5125
20
-17.6125
40
0.2
50
-0
51
90
0
ARC
8
BLACK
10
60.3125
20
-20.4125
40
0.2
50
180
51
270
0
ARC
8
BLACK
10
63.5125
20
-20.4125
40
0.2
50
-90
51
-0
0
LINE
8
BLACK
6
CONTINUOUS
10
63.7125
20
-20.4125
11
63.7125
21
-17.6125
0
LINE
8
BLACK
6
CONTINUOUS
10
63.5125
20
-17.4125
11
60.3125
21
-17.4125
0
LINE
8
BLACK
6
CONTINUOUS
10
60.1125
20
-20.4125
11
60.1125
21
-17.6125
0
LINE
8
BLACK
6
CONTINUOUS
10
63.5125
20
-20.6125
11
60.3125
21
-20.6125
0
ARC
8
BLACK
10
79.3625
20
-17.6125
40
0.2
50
90
51
180
0
ARC
8
BLACK
10
82.5625
20
-17.6125
40
0.2
50
-0
51
90
0
ARC
8
BLACK
10
79.3625
20
-20.4125
40
0.2
50
180
51
270
0
ARC
8
BLACK
10
82.5625
20
-20.4125
40
0.2
50
-90
51
-0
0
LINE
8
BLACK
6
CONTINUOUS
10
82.7625
20
-20.4125
11
82.7625
21
-17.6125
0
LINE
8
BLACK
6
CONTINUOUS
10
82.5625
20
-17.4125
11
79.3625
21
-17.4125
0
LINE
8
BLACK
6
CONTINUOUS
10
79.1625
20
-20.4125
11
79.1625
21
-17.6125
0
LINE
8
BLACK
6
CONTINUOUS
10
82.5625
20
-20.6125
11
79.3625
21
-20.6125
0
ARC
8
BLACK
10
98.4125
20
-17.6125
40
0.2
50
90
51
180
0
ARC
8
BLACK
10
101.612
20
-17.6125
40
0.2
50
-0
51
90
0
ARC
8
BLACK
10
98.4125
20
-20.4125
40
0.2
50
180
51
270
0
ARC
8
BLACK
10
101.612
20
-20.4125
40
0.2
50
-90
51
-0
0
LINE
8
BLACK
6
CONTINUOUS
10
101.812
20
-20.4125
11
101.812
21
-17.6125
0
LINE
8
BLACK
6
CONTINUOUS
10
101.612
20
-17.4125
11
98.4125
21
-17.4125
0
LINE
8
BLACK
6
CONTINUOUS
10
98.2125
20
-20.4125
11
98.2125
21
-17.6125
0
LINE
8
BLACK
6
CONTINUOUS
10
101.612
20
-20.6125
11
98.4125
21
-20.6125
0
ARC
8
BLACK
10
117.462
20
-17.6125
40
0.2
50
90
51
180
0
ARC
8
BLACK
10
120.662
20
-17.6125
40
0.2
50
-0
51
90
0
ARC
8
BLACK
10
117.462
20
-20.4125
40
0.2
50
180
51
270
0
ARC
8
BLACK
10
120.662
20
-20.4125
40
0.2
50
-90
51
-0
0
LINE
8
BLACK
6
CONTINUOUS
10
120.862
20
-20.4125
11
120.862
21
-17.6125
0
LINE
8
BLACK
6
CONTINUOUS
10
120.662
20
-17.4125
11
117.462
21
-17.4125
0
LINE
8
BLACK
6
CONTINUOUS
10
117.262
20
-20.4125
11
117.262
21
-17.6125
0
LINE
8
BLACK
6
CONTINUOUS
10
120.662
20
-20.6125
11
117.462
21
-20.6125
0
ARC
8
BLACK
10
41.2625
20
-36.6625
40
0.2
50
90
51
180
0
ARC
8
BLACK
10
44.4625
20
-36.6625
40
0.2
50
-0
51
90
0
ARC
8
BLACK
10
41.2625
20
-39.4625
40
0.2
50
180
51
270
0
ARC
8
BLACK
10
44.4625
20
-39.4625
40
0.2
50
-90
51
-0
0
LINE
8
BLACK
6
CONTINUOUS
10
44.6625
20
-39.4625
11
44.6625
21
-36.6625
0
LINE
8
BLACK
6
CONTINUOUS
10
44.4625
20
-36.4625
11
41.2625
21
-36.4625
0
LINE
8
BLACK
6
CONTINUOUS
10
41.0625
20
-39.4625
11
41.0625
21
-36.6625
0
LINE
8
BLACK
6
CONTINUOUS
10
44.4625
20
-39.6625
11
41.2625
21
-39.6625
0
ARC
8
BLACK
10
60.3125
20
-36.6625
40
0.2
50
90
51
180
0
ARC
8
BLACK
10
63.5125
20
-36.6625
40
0.2
50
-0
51
90
0
ARC
8
BLACK
10
60.3125
20
-39.4625
40
0.2
50
180
51
270
0
ARC
8
BLACK
10
63.5125
20
-39.4625
40
0.2
50
-90
51
-0
0
LINE
8
BLACK
6
CONTINUOUS
10
63.7125
20
-39.4625
11
63.7125
21
-36.6625
0
LINE
8
BLACK
6
CONTINUOUS
10
63.5125
20
-36.4625
11
60.3125
21
-36.4625
0
LINE
8
BLACK
6
CONTINUOUS
10
60.1125
20
-39.4625
11
60.1125
21
-36.6625
0
LINE
8
BLACK
6
CONTINUOUS
10
63.5125
20
-39.6625
11
60.3125
21
-39.6625
0
ARC
8
BLACK
10
79.3625
20
-36.6625
40
0.2
50
90
51
180
0
ARC
8
BLACK
10
82.5625
20
-36.6625
40
0.2
50
-0
51
90
0
ARC
8
BLACK
10
79.3625
20
-39.4625
40
0.2
50
180
51
270
0
ARC
8
BLACK
10
82.5625
20
-39.4625
40
0.2
50
-90
51
-0
0
LINE
8
BLACK
6
CONTINUOUS
10
82.7625
20
-39.4625
11
82.7625
21
-36.6625
0
LINE
8
BLACK
6
CONTINUOUS
10
82.5625
20
-36.4625
11
79.3625
21
-36.4625
0
LINE
8
BLACK
6
CONTINUOUS
10
79.1625
20
-39.4625
11
79.1625
21
-36.6625
0
LINE
8
BLACK
6
CONTINUOUS
10
82.5625
20
-39.6625
11
79.3625
21
-39.6625
0
ARC
8
BLACK
10
98.4125
20
-36.6625
40
0.2
50
90
51
180
0
ARC
8
BLACK
10
101.612
20
-36.6625
40
0.2
50
-0
51
90
0
ARC
8
BLACK
10
98.4125
20
-39.4625
40
0.2
50
180
51
270
0
ARC
8
BLACK
10
101.612
20
-39.4625
40
0.2
50
-90
51
-0
0
LINE
8
BLACK
6
CONTINUOUS
10
101.812
20
-39.4625
11
101.812
21
-36.6625
0
LINE
8
BLACK
6
CONTINUOUS
10
101.612
20
-36.4625
11
98.4125
21
-36.4625
0
LINE
8
BLACK
6
CONTINUOUS
10
98.2125
20
-39.4625
11
98.2125
21
-36.6625
0
LINE
8
BLACK
6
CONTINUOUS
10
101.612
20
-39.6625
11
98.4125
21
-39.6625
0
ARC
8
BLACK
10
117.462
20
-36.6625
40
0.2
50
90
51
180
0
ARC
8
BLACK
10
120.662
20
-36.6625
40
0.2
50
-0
51
90
0
ARC
8
BLACK
10
117.462
20
-39.4625
40
0.2
50
180
51
270
0
ARC
8
BLACK
10
120.662
20
-39.4625
40
0.2
50
-90
51
-0
0
LINE
8
BLACK
6
CONTINUOUS
10
120.862
20
-39.4625
11
120.862
21
-36.6625
0
LINE
8
BLACK
6
CONTINUOUS
10
120.662
20
-36.4625
11
117.462
21
-36.4625
0
LINE
8
BLACK
6
CONTINUOUS
10
117.262
20
-39.4625
11
117.262
21
-36.6625
0
LINE
8
BLACK
6
CONTINUOUS
10
120.662
20
-39.6625
11
117.462
21
-39.6625
0
ARC
8
BLACK
10
41.2625
20
-55.7125
40
0.2
50
90
51
180
0
ARC
8
BLACK
10
44.4625
20
-55.7125
40
0.2
50
-0
51
90
0
ARC
8
BLACK
10
41.2625
20
-58.5125
40
0.2
50
180
51
270
0
ARC
8
BLACK
10
44.4625
20
-58.5125
40
0.2
50
-90
51
-0
0
LINE
8
BLACK
6
CONTINUOUS
10
44.6625
20
-58.5125
11
44.6625
21
-55.7125
0
LINE
8
BLACK
6
CONTINUOUS
10
44.4625
20
-55.5125
11
41.2625
21
-55.5125
0
LINE
8
BLACK
6
CONTINUOUS
10
41.0625
20
-58.5125
11
41.0625
21
-55.7125
0
LINE
8
BLACK
6
CONTINUOUS
10
44.4625
20
-58.7125
11
41.2625
21
-58.7125
0
ARC
8
BLACK
10
60.3125
20
-55.7125
40
0.2
50
90
51
180
0
ARC
8
BLACK
10
63.5125
20
-55.7125
40
0.2
50
-0
51
90
0
ARC
8
BLACK
10
60.3125
20
-58.5125
40
0.2
50
180
51
270
0
ARC
8
BLACK
10
63.5125
20
-58.5125
40
0.2
50
-90
51
-0
0
LINE
8
BLACK
6
CONTINUOUS
10
63.7125
20
-58.5125
11
63.7125
21
-55.7125
0
LINE
8
BLACK
6
CONTINUOUS
10
63.5125
20
-55.5125
11
60.3125
21
-55.5125
0
LINE
8
BLACK
6
CONTINUOUS
10
60.1125
20
-58.5125
11
60.1125
21
-55.7125
0
LINE
8
BLACK
6
CONTINUOUS
10
63.5125
20
-58.7125
11
60.3125
21
-58.7125
0
ARC
8
BLACK
10
79.3625
20
-55.7125
40
0.2
50
90
51
180
0
ARC
8
BLACK
10
82.5625
20
-55.7125
40
0.2
50
-0
51
90
0
ARC
8
BLACK
10
79.3625
20
-58.5125
40
0.2
50
180
51
270
0
ARC
8
BLACK
10
82.5625
20
-58.5125
40
0.2
50
-90
51
-0
0
LINE
8
BLACK
6
CONTINUOUS
10
82.7625
20
-58.5125
11
82.7625
21
-55.7125
0
LINE
8
BLACK
6
CONTINUOUS
10
82.5625
20
-55.5125
11
79.3625
21
-55.5125
0
LINE
8
BLACK
6
CONTINUOUS
10
79.1625
20
-58.5125
11
79.1625
21
-55.7125
0
LINE
8
BLACK
6
CONTINUOUS
10
82.5625
20
-58.7125
11
79.3625
21
-58.7125
0
ARC
8
BLACK
10
98.4125
20
-55.7125
40
0.2
50
90
51
180
0
ARC
8
BLACK
10
101.612
20
-55.7125
40
0.2
50
-0
51
90
0
ARC
8
BLACK
10
98.4125
20
-58.5125
40
0.2
50
180
51
270
0
ARC
8
BLACK
10
101.612
20
-58.5125
40
0.2
50
-90
51
-0
0
LINE
8
BLACK
6
CONTINUOUS
10
101.812
20
-58.5125
11
101.812
21
-55.7125
0
LINE
8
BLACK
6
CONTINUOUS
10
101.612
20
-55.5125
11
98.4125
21
-55.5125
0
LINE
8
BLACK
6
CONTINUOUS
10
98.2125
20
-58.5125
11
98.2125
21
-55.7125
0
LINE
8
BLACK
6
CONTINUOUS
10
101.612
20
-58.7125
11
98.4125
21
-58.7125
0
ARC
8
BLACK
10
117.462
20
-55.7125
40
0.2
50
90
51
180
0
ARC
8
BLACK
10
120.662
20
-55.7125
40
0.2
50
-0
51
90
0
ARC
8
BLACK
10
117.462
20
-58.5125
40
0.2
50
180
51
270
0
ARC
8
BLACK
10
120.662
20
-58.5125
40
0.2
50
-90
51
-0
0
LINE
8
BLACK
6
CONTINUOUS
10
120.862
20
-58.5125
11
120.862
21
-55.7125
0
LINE
8
BLACK
6
CONTINUOUS
10
120.662
20
-55.5125
11
117.462
21
-55.5125
0
LINE
8
BLACK
6
CONTINUOUS
10
117.262
20
-58.5125
11
117.262
21
-55.7125
0
LINE
8
BLACK
6
CONTINUOUS
10
120.662
20
-58.7125
11
117.462
21
-58.7125
0
ARC
8
BLACK
10
41.2625
20
-74.7625
40
0.2
50
90
51
180
0
ARC
8
BLACK
10
44.4625
20
-74.7625
40
0.2
50
-0
51
90
0
ARC
8
BLACK
10
41.2625
20
-77.5625
40
0.2
50
180
51
270
0
ARC
8
BLACK
10
44.4625
20
-77.5625
40
0.2
50
-90
51
-0
0
LINE
8
BLACK
6
CONTINUOUS
10
44.6625
20
-77.5625
11
44.6625
21
-74.7625
0
LINE
8
BLACK
6
CONTINUOUS
10
44.4625
20
-74.5625
11
41.2625
21
-74.5625
0
LINE
8
BLACK
6
CONTINUOUS
10
41.0625
20
-77.5625
11
41.0625
21
-74.7625
0
LINE
8
BLACK
6
CONTINUOUS
10
44.4625
20
-77.7625
11
41.2625
21
-77.7625
0
ARC
8
BLACK
10
60.3125
20
-74.7625
40
0.2
50
90
51
180
0
ARC
8
BLACK
10
63.5125
20
-74.7625
40
0.2
50
-0
51
90
0
ARC
8
BLACK
10
60.3125
20
-77.5625
40
0.2
50
180
51
270
0
ARC
8
BLACK
10
63.5125
20
-77.5625
40
0.2
50
-90
51
-0
0
LINE
8
BLACK
6
CONTINUOUS
10
63.7125
20
-77.5625
11
63.7125
21
-74.7625
0
LINE
8
BLACK
6
CONTINUOUS
10
63.5125
20
-74.5625
11
60.3125
21
-74.5625
0
LINE
8
BLACK
6
CONTINUOUS
10
60.1125
20
-77.5625
11
60.1125
21
-74.7625
0
LINE
8
BLACK
6
CONTINUOUS
10
63.5125
20
-77.7625
11
60.3125
21
-77.7625
0
ARC
8
BLACK
10
79.3625
20
-74.7625
40
0.2
50
90
51
180
0
ARC
8
BLACK
10
82.5625
20
-74.7625
40
0.2
50
-0
51
90
0
ARC
8
BLACK
10
79.3625
20
-77.5625
40
0.2
50
180
51
270
0
ARC
8
BLACK
10
82.5625
20
-77.5625
40
0.2
50
-90
51
-0
0
LINE
8
BLACK
6
CONTINUOUS
10
82.7625
20
-77.5625
11
82.7625
21
-74.7625
0
LINE
8
BLACK
6
CONTINUOUS
10
82.5625
20
-74.5625
11
79.3625
21
-74.5625
0
LINE
8
BLACK
6
CONTINUOUS
10
79.1625
20
-77.5625
11
79.1625
21
-74.7625
0
LINE
8
BLACK
6
CONTINUOUS
10
82.5625
20
-77.7625
11
79.3625
21
-77.7625
0
ARC
8
BLACK
10
98.4125
20
-74.7625
40
0.2
50
90
51
180
0
ARC
8
BLACK
10
101.612
20
-74.7625
40
0.2
50
-0
51
90
0
ARC
8
BLACK
10
98.4125
20
-77.5625
40
0.2
50
180
51
270
0
ARC
8
BLACK
10
101.612
20
-77.5625
40
0.2
50
-90
51
-0
0
LINE
8
BLACK
6
CONTINUOUS
10
101.812
20
-77.5625
11
101.812
21
-74.7625
0
LINE
8
BLACK
6
CONTINUOUS
10
101.612
20
-74.5625
11
98.4125
21
-74.5625
0
LINE
8
BLACK
6
CONTINUOUS
10
98.2125
20
-77.5625
11
98.2125
21
-74.7625
0
LINE
8
BLACK
6
CONTINUOUS
10
101.612
20
-77.7625
11
98.4125
21
-77.7625
0
ARC
8
BLACK
10
117.462
20
-74.7625
40
0.2
50
90
51
180
0
ARC
8
BLACK
10
120.662
20
-74.7625
40
0.2
50
-0
51
90
0
ARC
8
BLACK
10
117.462
20
-77.5625
40
0.2
50
180
51
270
0
ARC
8
BLACK
10
120.662
20
-77.5625
40
0.2
50
-90
51
-0
0
LINE
8
BLACK
6
CONTINUOUS
10
120.862
20
-77.5625
11
120.862
21
-74.7625
0
LINE
8
BLACK
6
CONTINUOUS
10
120.662
20
-74.5625
11
117.462
21
-74.5625
0
LINE
8
BLACK
6
CONTINUOUS
10
117.262
20
-77.5625
11
117.262
21
-74.7625
0
LINE
8
BLACK
6
CONTINUOUS
10
120.662
20
-77.7625
11
117.462
21
-77.7625
0
ARC
8
BLACK
10
41.2625
20
-93.8125
40
0.2
50
90
51
180
0
ARC
8
BLACK
10
44.4625
20
-93.8125
40
0.2
50
-0
51
90
0
ARC
8
BLACK
10
41.2625
20
-96.6125
40
0.2
50
180
51
270
0
ARC
8
BLACK
10
44.4625
20
-96.6125
40
0.2
50
-90
51
-0
0
LINE
8
BLACK
6
CONTINUOUS
10
44.6625
20
-96.6125
11
44.6625
21
-93.8125
0
LINE
8
BLACK
6
CONTINUOUS
10
44.4625
20
-93.6125
11
41.2625
21
-93.6125
0
LINE
8
BLACK
6
CONTINUOUS
10
41.0625
20
-96.6125
11
41.0625
21
-93.8125
0
LINE
8
BLACK
6
CONTINUOUS
10
44.4625
20
-96.8125
11
41.2625
21
-96.8125
0
ARC
8
BLACK
10
60.3125
20
-93.8125
40
0.2
50
90
51
180
0
ARC
8
BLACK
10
63.5125
20
-93.8125
40
0.2
50
-0
51
90
0
ARC
8
BLACK
10
60.3125
20
-96.6125
40
0.2
50
180
51
270
0
ARC
8
BLACK
10
63.5125
20
-96.6125
40
0.2
50
-90
51
-0
0
LINE
8
BLACK
6
CONTINUOUS
10
63.7125
20
-96.6125
11
63.7125
21
-93.8125
0
LINE
8
BLACK
6
CONTINUOUS
10
63.5125
20
-93.6125
11
60.3125
21
-93.6125
0
LINE
8
BLACK
6
CONTINUOUS
10
60.1125
20
-96.6125
11
60.1125
21
-93.8125
0
LINE
8
BLACK
6
CONTINUOUS
10
63.5125
20
-96.8125
11
60.3125
21
-96.8125
0
ARC
8
BLACK
10
79.3625
20
-93.8125
40
0.2
50
90
51
180
0
ARC
8
BLACK
10
82.5625
20
-93.8125
40
0.2
50
-0
51
90
0
ARC
8
BLACK
10
79.3625
20
-96.6125
40
0.2
50
180
51
270
0
ARC
8
BLACK
10
82.5625
20
-96.6125
40
0.2
50
-90
51
-0
0
LINE
8
BLACK
6
CONTINUOUS
10
82.7625
20
-96.6125
11
82.7625
21
-93.8125
0
LINE
8
BLACK
6
CONTINUOUS
10
82.5625
20
-93.6125
11
79.3625
21
-93.6125
0
LINE
8
BLACK
6
CONTINUOUS
10
79.1625
20
-96.6125
11
79.1625
21
-93.8125
0
LINE
8
BLACK
6
CONTINUOUS
10
82.5625
20
-96.8125
11
79.3625
21
-96.8125
0
ARC
8
BLACK
10
98.4125
20
-93.8125
40
0.2
50
90
51
180
0
ARC
8
BLACK
10
101.612
20
-93.8125
40
0.2
50
-0
51
90
0
ARC
8
BLACK
10
98.4125
20
-96.6125
40
0.2
50
180
51
270
0
ARC
8
BLACK
10
101.612
20
-96.6125
40
0.2
50
-90
51
-0
0
LINE
8
BLACK
6
CONTINUOUS
10
101.812
20
-96.6125
11
101.812
21
-93.8125
0
LINE
8
BLACK
6
CONTINUOUS
10
101.612
20
-93.6125
11
98.4125
21
-93.6125
0
LINE
8
BLACK
6
CONTINUOUS
10
98.2125
20
-96.6125
11
98.2125
21
-93.8125
0
LINE
8
BLACK
6
CONTINUOUS
10
101.612
20
-96.8125
11
98.4125
21
-96.8125
0
ARC
8
BLACK
10
117.462
20
-93.8125
40
0.2
50
90
51
180
0
ARC
8
BLACK
10
120.662
20
-93.8125
40
0.2
50
-0
51
90
0
ARC
8
BLACK
10
117.462
20
-96.6125
40
0.2
50
180
51
270
0
ARC
8
BLACK
10
120.662
20
-96.6125
40
0.2
50
-90
51
-0
0
LINE
8
BLACK
6
CONTINUOUS
10
120.862
20
-96.6125
11
120.862
21
-93.8125
0
LINE
8
BLACK
6
CONTINUOUS
10
120.662
20
-93.6125
11
117.462
21
-93.6125
0
LINE
8
BLACK
6
CONTINUOUS
10
117.262
20
-96.6125
11
117.262
21
-93.8125
0
LINE
8
BLACK
6
CONTINUOUS
10
120.662
20
-96.8125
11
117.462
21
-96.8125
0
ARC
8
BLACK
10
136.989
20
-140.369
40
0.2
50
160
51
250
0
ARC
8
BLACK
10
138.083
20
-137.362
40
0.199999
50
70
51
160
0
ARC
8
BLACK
10
139.62
20
-141.327
40
0.2
50
-110
51
-19.9999
0
ARC
8
BLACK
10
140.714
20
-138.32
40
0.2
50
-19.9999
51
70.0001
0
LINE
8
BLACK
6
CONTINUOUS
10
136.801
20
-140.301
11
137.895
21
-137.294
0
LINE
8
BLACK
6
CONTINUOUS
10
138.152
20
-137.174
11
140.783
21
-138.132
0
LINE
8
BLACK
6
CONTINUOUS
10
139.808
20
-141.395
11
140.902
21
-138.388
0
LINE
8
BLACK
6
CONTINUOUS
10
136.92
20
-140.557
11
139.552
21
-141.515
0
ARC
8
BLACK
10
113.792
20
-128.521
40
0.2
50
-19.9999
51
70.0001
0
ARC
8
BLACK
10
112.698
20
-131.528
40
0.199999
50
-110
51
-20
0
ARC
8
BLACK
10
111.161
20
-127.563
40
0.2
50
70.0001
51
160
0
ARC
8
BLACK
10
110.067
20
-130.57
40
0.2
50
160
51
250
0
LINE
8
BLACK
6
CONTINUOUS
10
113.98
20
-128.59
11
112.886
21
-131.597
0
LINE
8
BLACK
6
CONTINUOUS
10
112.629
20
-131.716
11
109.998
21
-130.758
0
LINE
8
BLACK
6
CONTINUOUS
10
110.973
20
-127.495
11
109.879
21
-130.502
0
LINE
8
BLACK
6
CONTINUOUS
10
113.861
20
-128.333
11
111.23
21
-127.376
0
ARC
8
BLACK
10
20.6505
20
-20.4125
40
0.2
50
-90
51
-0
0
ARC
8
BLACK
10
17.4505
20
-20.4125
40
0.2
50
180
51
270
0
ARC
8
BLACK
10
20.6505
20
-17.6125
40
0.2
50
-0
51
90
0
ARC
8
BLACK
10
17.4505
20
-17.6125
40
0.2
50
90
51
180
0
LINE
8
BLACK
6
CONTINUOUS
10
20.8505
20
-20.4125
11
20.8505
21
-17.6125
0
LINE
8
BLACK
6
CONTINUOUS
10
20.6505
20
-17.4125
11
17.4505
21
-17.4125
0
LINE
8
BLACK
6
CONTINUOUS
10
17.2505
20
-20.4125
11
17.2505
21
-17.6125
0
LINE
8
BLACK
6
CONTINUOUS
10
20.6505
20
-20.6125
11
17.4505
21
-20.6125
0
ARC
8
BLACK
10
20.6505
20
-39.4625
40
0.2
50
-90
51
-0
0
ARC
8
BLACK
10
17.4505
20
-39.4625
40
0.2
50
180
51
270
0
ARC
8
BLACK
10
20.6505
20
-36.6625
40
0.2
50
-0
51
90
0
ARC
8
BLACK
10
17.4505
20
-36.6625
40
0.2
50
90
51
180
0
LINE
8
BLACK
6
CONTINUOUS
10
20.8505
20
-39.4625
11
20.8505
21
-36.6625
0
LINE
8
BLACK
6
CONTINUOUS
10
20.6505
20
-36.4625
11
17.4505
21
-36.4625
0
LINE
8
BLACK
6
CONTINUOUS
10
17.2505
20
-39.4625
11
17.2505
21
-36.6625
0
LINE
8
BLACK
6
CONTINUOUS
10
20.6505
20
-39.6625
11
17.4505
21
-39.6625
0
ARC
8
BLACK
10
20.6505
20
-58.5125
40
0.2
50
-90
51
-0
0
ARC
8
BLACK
10
17.4505
20
-58.5125
40
0.2
50
180
51
270
0
ARC
8
BLACK
10
20.6505
20
-55.7125
40
0.2
50
-0
51
90
0
ARC
8
BLACK
10
17.4505
20
-55.7125
40
0.2
50
90
51
180
0
LINE
8
BLACK
6
CONTINUOUS
10
20.8505
20
-58.5125
11
20.8505
21
-55.7125
0
LINE
8
BLACK
6
CONTINUOUS
10
20.6505
20
-55.5125
11
17.4505
21
-55.5125
0
LINE
8
BLACK
6
CONTINUOUS
10
17.2505
20
-58.5125
11
17.2505
21
-55.7125
0
LINE
8
BLACK
6
CONTINUOUS
10
20.6505
20
-58.7125
11
17.4505
21
-58.7125
0
ARC
8
BLACK
10
20.6505
20
-77.5625
40
0.2
50
-90
51
-0
0
ARC
8
BLACK
10
17.4505
20
-77.5625
40
0.2
50
180
51
270
0
ARC
8
BLACK
10
20.6505
20
-74.7625
40
0.2
50
-0
51
90
0
ARC
8
BLACK
10
17.4505
20
-74.7625
40
0.2
50
90
51
180
0
LINE
8
BLACK
6
CONTINUOUS
10
20.8505
20
-77.5625
11
20.8505
21
-74.7625
0
LINE
8
BLACK
6
CONTINUOUS
10
20.6505
20
-74.5625
11
17.4505
21
-74.5625
0
LINE
8
BLACK
6
CONTINUOUS
10
17.2505
20
-77.5625
11
17.2505
21
-74.7625
0
LINE
8
BLACK
6
CONTINUOUS
10
20.6505
20
-77.7625
11
17.4505
21
-77.7625
0
ARC
8
BLACK
10
20.6505
20
-96.6125
40
0.2
50
-90
51
-0
0
ARC
8
BLACK
10
17.4505
20
-96.6125
40
0.2
50
180
51
270
0
ARC
8
BLACK
10
20.6505
20
-93.8125
40
0.2
50
-0
51
90
0
ARC
8
BLACK
10
17.4505
20
-93.8125
40
0.2
50
90
51
180
0
LINE
8
BLACK
6
CONTINUOUS
10
20.8505
20
-96.6125
11
20.8505
21
-93.8125
0
LINE
8
BLACK
6
CONTINUOUS
10
20.6505
20
-93.6125
11
17.4505
21
-93.6125
0
LINE
8
BLACK
6
CONTINUOUS
10
17.2505
20
-96.6125
11
17.2505
21
-93.8125
0
LINE
8
BLACK
6
CONTINUOUS
10
20.6505
20
-96.8125
11
17.4505
21
-96.8125
0
ARC
8
BLACK
10
19.831
20
-112.862
40
0.2
50
90
51
180
0
ARC
8
BLACK
10
23.031
20
-112.862
40
0.2
50
-0
51
90
0
ARC
8
BLACK
10
19.831
20
-115.662
40
0.2
50
180
51
270
0
ARC
8
BLACK
10
23.031
20
-115.662
40
0.2
50
-90
51
-0
0
LINE
8
BLACK
6
CONTINUOUS
10
23.031
20
-115.862
11
19.831
21
-115.862
0
LINE
8
BLACK
6
CONTINUOUS
10
19.631
20
-115.662
11
19.631
21
-112.862
0
LINE
8
BLACK
6
CONTINUOUS
10
23.031
20
-112.662
11
19.831
21
-112.662
0
LINE
8
BLACK
6
CONTINUOUS
10
23.231
20
-115.662
11
23.231
21
-112.862
0
ARC
8
BLACK
10
43.6435
20
-112.862
40
0.2
50
90
51
180
0
ARC
8
BLACK
10
46.8435
20
-112.862
40
0.2
50
-0
51
90
0
ARC
8
BLACK
10
43.6435
20
-115.662
40
0.2
50
180
51
270
0
ARC
8
BLACK
10
46.8435
20
-115.662
40
0.2
50
-90
51
-0
0
LINE
8
BLACK
6
CONTINUOUS
10
46.8435
20
-115.862
11
43.6435
21
-115.862
0
LINE
8
BLACK
6
CONTINUOUS
10
43.4435
20
-115.662
11
43.4435
21
-112.862
0
LINE
8
BLACK
6
CONTINUOUS
10
46.8435
20
-112.662
11
43.6435
21
-112.662
0
LINE
8
BLACK
6
CONTINUOUS
10
47.0435
20
-115.662
11
47.0435
21
-112.862
0
ARC
8
BLACK
10
67.456
20
-112.862
40
0.2
50
90
51
180
0
ARC
8
BLACK
10
70.656
20
-112.862
40
0.2
50
-0
51
90
0
ARC
8
BLACK
10
67.456
20
-115.662
40
0.2
50
180
51
270
0
ARC
8
BLACK
10
70.656
20
-115.662
40
0.2
50
-90
51
-0
0
LINE
8
BLACK
6
CONTINUOUS
10
70.656
20
-115.862
11
67.456
21
-115.862
0
LINE
8
BLACK
6
CONTINUOUS
10
67.256
20
-115.662
11
67.256
21
-112.862
0
LINE
8
BLACK
6
CONTINUOUS
10
70.656
20
-112.662
11
67.456
21
-112.662
0
LINE
8
BLACK
6
CONTINUOUS
10
70.856
20
-115.662
11
70.856
21
-112.862
0
ARC
8
BLACK
10
91.2685
20
-112.862
40
0.2
50
90
51
180
0
ARC
8
BLACK
10
94.4685
20
-112.862
40
0.2
50
-0
51
90
0
ARC
8
BLACK
10
91.2685
20
-115.662
40
0.2
50
180
51
270
0
ARC
8
BLACK
10
94.4685
20
-115.662
40
0.2
50
-90
51
-0
0
LINE
8
BLACK
6
CONTINUOUS
10
94.4685
20
-115.862
11
91.2685
21
-115.862
0
LINE
8
BLACK
6
CONTINUOUS
10
91.0685
20
-115.662
11
91.0685
21
-112.862
0
LINE
8
BLACK
6
CONTINUOUS
10
94.4685
20
-112.662
11
91.2685
21
-112.662
0
LINE
8
BLACK
6
CONTINUOUS
10
94.6685
20
-115.662
11
94.6685
21
-112.862
  0
ENDSEC
  0
EOF
