<?xml version="1.0" standalone="no"?>
 <!DOCTYPE svg PUBLIC "-//W3C//DTD SVG 1.1//EN" 
 "http://www.w3.org/Graphics/SVG/1.1/DTD/svg11.dtd"> 
<svg
  xmlns:svg="http://www.w3.org/2000/svg"
  xmlns="http://www.w3.org/2000/svg"
  xmlns:xlink="http://www.w3.org/1999/xlink"
  version="1.1"
  width="59.400440cm" height="41.998900cm" viewBox="0 0 233860 165350">
<title>SVG Picture created as ortho_right-Eco2_User.svg date 2020/11/08 13:10:07 </title>
  <desc>Picture generated by PCBNEW </desc>
<g style="fill:#000000; fill-opacity:1;stroke:#000000; stroke-opacity:1;
stroke-linecap:round; stroke-linejoin:round;"
 transform="translate(0 0) scale(1 1)">
</g>
<g style="fill:#000000; fill-opacity:0.0; 
stroke:#000000; stroke-width:-0.000393701; stroke-opacity:1; 
stroke-linecap:round; stroke-linejoin:round;">
</g>
<g style="fill:#000000; fill-opacity:0.0; 
stroke:#000000; stroke-width:60; stroke-opacity:1; 
stroke-linecap:round; stroke-linejoin:round;">
<path d="M97524 53530
L97664 53915
" />
<path d="M97664 53915
L98097 53758
" />
<path d="M91938 45198
L92054 45517
" />
<path d="M93277 55076
L93058 54474
" />
<path d="M98097 53758
L98712 55449
" />
<path d="M90397 49590
L91177 49306
" />
<path d="M95497 46616
L95065 46773
" />
<path d="M98420 55992
L96165 56813
" />
<path d="M91177 49306
L90958 48704
" />
<path d="M90958 48704
L90657 48814
" />
<path d="M90657 48814
L89761 46352
" />
<path d="M94309 44697
L94449 45082
" />
<path d="M92054 45517
L94309 44697
" />
<path d="M95205 47159
L94914 47265
" />
<path d="M95248 57508
L95131 57189
" />
<path d="M95065 46773
L95205 47159
" />
<path d="M95133 47866
L95565 47709
" />
<path d="M92976 55185
L93277 55076
" />
<path d="M96165 56813
L96281 57132
" />
<path d="M90904 45574
L91938 45198
" />
<path d="M93058 54474
L92278 54758
" />
<path d="M95131 57189
L93872 57647
" />
<path d="M92278 54758
L90397 49590
" />
<path d="M97233 53636
L97524 53530
" />
<path d="M95565 47709
L97446 52877
" />
<path d="M98280 55606
L98420 55992
" />
<path d="M97014 53034
L97233 53636
" />
<path d="M93872 57647
L92976 55185
" />
<path d="M97446 52877
L97014 53034
" />
<path d="M98712 55449
L98280 55606
" />
<path d="M94449 45082
L94882 44925
" />
<path d="M96281 57132
L95248 57508
" />
<path d="M89761 46352
L91020 45894
" />
<path d="M91020 45894
L90904 45574
" />
<path d="M94882 44925
L95497 46616
" />
<path d="M94914 47265
L95133 47866
" />
<path d="M83271 51502
L83131 51117
" />
<path d="M83131 51117
L82699 51274
" />
<path d="M88858 59834
L88741 59514
" />
<path d="M87519 49956
L87737 50558
" />
<path d="M82699 51274
L82083 49583
" />
<path d="M90398 55442
L89619 55726
" />
<path d="M85298 58416
L85730 58259
" />
<path d="M82375 49040
L84630 48219
" />
<path d="M89619 55726
L89837 56327
" />
<path d="M89837 56327
L90138 56218
" />
<path d="M90138 56218
L91034 58680
" />
<path d="M86486 60335
L86346 59950
" />
<path d="M88741 59514
L86486 60335
" />
<path d="M85590 57873
L85881 57767
" />
<path d="M85548 47524
L85664 47843
" />
<path d="M85730 58259
L85590 57873
" />
<path d="M85662 57166
L85230 57323
" />
<path d="M87819 49847
L87519 49956
" />
<path d="M84630 48219
L84514 47900
" />
<path d="M89891 59458
L88858 59834
" />
<path d="M87737 50558
L88517 50274
" />
<path d="M85664 47843
L86923 47385
" />
<path d="M88517 50274
L90398 55442
" />
<path d="M83562 51396
L83271 51502
" />
<path d="M85230 57323
L83349 52155
" />
<path d="M82515 49425
L82375 49040
" />
<path d="M83781 51998
L83562 51396
" />
<path d="M86923 47385
L87819 49847
" />
<path d="M83349 52155
L83781 51998
" />
<path d="M82083 49583
L82515 49425
" />
<path d="M86346 59950
L85914 60107
" />
<path d="M84514 47900
L85548 47524
" />
<path d="M91034 58680
L89775 59138
" />
<path d="M89775 59138
L89891 59458
" />
<path d="M85914 60107
L85298 58416
" />
<path d="M85881 57767
L85662 57166
" />
<path d="M152750 42125
L147250 42125
" />
<path d="M147250 42125
L147250 36625
" />
<path d="M147250 36625
L152750 36625
" />
<path d="M152750 36625
L152750 42125
" />
<path d="M145250 42125
L139750 42125
" />
<path d="M139750 42125
L139750 36625
" />
<path d="M139750 36625
L145250 36625
" />
<path d="M145250 36625
L145250 42125
" />
<path d="M135875 42125
L130375 42125
" />
<path d="M130375 42125
L130375 36625
" />
<path d="M130375 36625
L135875 36625
" />
<path d="M135875 36625
L135875 42125
" />
<path d="M146216 34625
L140716 34625
" />
<path d="M140716 34625
L140716 29125
" />
<path d="M140716 29125
L146216 29125
" />
<path d="M146216 29125
L146216 34625
" />
<path d="M141500 12125
L136000 12125
" />
<path d="M136000 12125
L136000 6625
" />
<path d="M136000 6625
L141500 6625
" />
<path d="M141500 6625
L141500 12125
" />
<path d="M152750 49625
L147250 49625
" />
<path d="M147250 49625
L147250 44125
" />
<path d="M147250 44125
L152750 44125
" />
<path d="M152750 44125
L152750 49625
" />
<path d="M145250 49625
L139750 49625
" />
<path d="M139750 49625
L139750 44125
" />
<path d="M139750 44125
L145250 44125
" />
<path d="M145250 44125
L145250 49625
" />
<path d="M137750 49625
L132250 49625
" />
<path d="M132250 49625
L132250 44125
" />
<path d="M132250 44125
L137750 44125
" />
<path d="M137750 44125
L137750 49625
" />
<path d="M129312 44125
L129312 49625
" />
<path d="M123812 44125
L129312 44125
" />
<path d="M123812 49625
L123812 44125
" />
<path d="M129312 49625
L123812 49625
" />
<path d="M96500 42125
L91000 42125
" />
<path d="M91000 42125
L91000 36625
" />
<path d="M91000 36625
L96500 36625
" />
<path d="M96500 36625
L96500 42125
" />
<path d="M129996 64753
L124496 64753
" />
<path d="M124496 64753
L124496 59253
" />
<path d="M124496 59253
L129996 59253
" />
<path d="M129996 59253
L129996 64753
" />
<path d="M96500 34625
L91000 34625
" />
<path d="M91000 34625
L91000 29125
" />
<path d="M91000 29125
L96500 29125
" />
<path d="M96500 29125
L96500 34625
" />
<path d="M150875 27125
L145375 27125
" />
<path d="M145375 27125
L145375 21625
" />
<path d="M145375 21625
L150875 21625
" />
<path d="M150875 21625
L150875 27125
" />
<path d="M96500 27125
L91000 27125
" />
<path d="M91000 27125
L91000 21625
" />
<path d="M91000 21625
L96500 21625
" />
<path d="M96500 21625
L96500 27125
" />
<path d="M150875 19625
L145375 19625
" />
<path d="M145375 19625
L145375 14125
" />
<path d="M145375 14125
L150875 14125
" />
<path d="M150875 14125
L150875 19625
" />
<path d="M96500 19625
L91000 19625
" />
<path d="M91000 19625
L91000 14125
" />
<path d="M91000 14125
L96500 14125
" />
<path d="M96500 14125
L96500 19625
" />
<path d="M96500 12125
L91000 12125
" />
<path d="M91000 12125
L91000 6625
" />
<path d="M91000 6625
L96500 6625
" />
<path d="M96500 6625
L96500 12125
" />
<path d="M119937 44125
L119937 49625
" />
<path d="M114437 44125
L119937 44125
" />
<path d="M114437 49625
L114437 44125
" />
<path d="M119937 49625
L114437 49625
" />
<path d="M110562 44125
L110562 49625
" />
<path d="M105062 44125
L110562 44125
" />
<path d="M105062 49625
L105062 44125
" />
<path d="M110562 49625
L105062 49625
" />
<path d="M126500 42125
L121000 42125
" />
<path d="M121000 42125
L121000 36625
" />
<path d="M121000 36625
L126500 36625
" />
<path d="M126500 36625
L126500 42125
" />
<path d="M119000 42125
L113500 42125
" />
<path d="M113500 42125
L113500 36625
" />
<path d="M113500 36625
L119000 36625
" />
<path d="M119000 36625
L119000 42125
" />
<path d="M111500 42125
L106000 42125
" />
<path d="M106000 42125
L106000 36625
" />
<path d="M106000 36625
L111500 36625
" />
<path d="M111500 36625
L111500 42125
" />
<path d="M104000 42125
L98500 42125
" />
<path d="M98500 42125
L98500 36625
" />
<path d="M98500 36625
L104000 36625
" />
<path d="M104000 36625
L104000 42125
" />
<path d="M134000 34625
L128500 34625
" />
<path d="M128500 34625
L128500 29125
" />
<path d="M128500 29125
L134000 29125
" />
<path d="M134000 29125
L134000 34625
" />
<path d="M126500 34625
L121000 34625
" />
<path d="M121000 34625
L121000 29125
" />
<path d="M121000 29125
L126500 29125
" />
<path d="M126500 29125
L126500 34625
" />
<path d="M119000 34625
L113500 34625
" />
<path d="M113500 34625
L113500 29125
" />
<path d="M113500 29125
L119000 29125
" />
<path d="M119000 29125
L119000 34625
" />
<path d="M111500 34625
L106000 34625
" />
<path d="M106000 34625
L106000 29125
" />
<path d="M106000 29125
L111500 29125
" />
<path d="M111500 29125
L111500 34625
" />
<path d="M104000 34625
L98500 34625
" />
<path d="M98500 34625
L98500 29125
" />
<path d="M98500 29125
L104000 29125
" />
<path d="M104000 29125
L104000 34625
" />
<path d="M141500 27125
L136000 27125
" />
<path d="M136000 27125
L136000 21625
" />
<path d="M136000 21625
L141500 21625
" />
<path d="M141500 21625
L141500 27125
" />
<path d="M134000 27125
L128500 27125
" />
<path d="M128500 27125
L128500 21625
" />
<path d="M128500 21625
L134000 21625
" />
<path d="M134000 21625
L134000 27125
" />
<path d="M126500 27125
L121000 27125
" />
<path d="M121000 27125
L121000 21625
" />
<path d="M121000 21625
L126500 21625
" />
<path d="M126500 21625
L126500 27125
" />
<path d="M119000 27125
L113500 27125
" />
<path d="M113500 27125
L113500 21625
" />
<path d="M113500 21625
L119000 21625
" />
<path d="M119000 21625
L119000 27125
" />
<path d="M111500 27125
L106000 27125
" />
<path d="M106000 27125
L106000 21625
" />
<path d="M106000 21625
L111500 21625
" />
<path d="M111500 21625
L111500 27125
" />
<path d="M104000 27125
L98500 27125
" />
<path d="M98500 27125
L98500 21625
" />
<path d="M98500 21625
L104000 21625
" />
<path d="M104000 21625
L104000 27125
" />
<path d="M141500 19625
L136000 19625
" />
<path d="M136000 19625
L136000 14125
" />
<path d="M136000 14125
L141500 14125
" />
<path d="M141500 14125
L141500 19625
" />
<path d="M134000 19625
L128500 19625
" />
<path d="M128500 19625
L128500 14125
" />
<path d="M128500 14125
L134000 14125
" />
<path d="M134000 14125
L134000 19625
" />
<path d="M126500 19625
L121000 19625
" />
<path d="M121000 19625
L121000 14125
" />
<path d="M121000 14125
L126500 14125
" />
<path d="M126500 14125
L126500 19625
" />
<path d="M119000 19625
L113500 19625
" />
<path d="M113500 19625
L113500 14125
" />
<path d="M113500 14125
L119000 14125
" />
<path d="M119000 14125
L119000 19625
" />
<path d="M111500 19625
L106000 19625
" />
<path d="M106000 19625
L106000 14125
" />
<path d="M106000 14125
L111500 14125
" />
<path d="M111500 14125
L111500 19625
" />
<path d="M104000 19625
L98500 19625
" />
<path d="M98500 19625
L98500 14125
" />
<path d="M98500 14125
L104000 14125
" />
<path d="M104000 14125
L104000 19625
" />
<path d="M122460 64790
L116960 64790
" />
<path d="M116960 64790
L116960 59290
" />
<path d="M116960 59290
L122460 59290
" />
<path d="M122460 59290
L122460 64790
" />
<path d="M134000 12125
L128500 12125
" />
<path d="M128500 12125
L128500 6625
" />
<path d="M128500 6625
L134000 6625
" />
<path d="M134000 6625
L134000 12125
" />
<path d="M126500 12125
L121000 12125
" />
<path d="M121000 12125
L121000 6625
" />
<path d="M121000 6625
L126500 6625
" />
<path d="M126500 6625
L126500 12125
" />
<path d="M119000 12125
L113500 12125
" />
<path d="M113500 12125
L113500 6625
" />
<path d="M113500 6625
L119000 6625
" />
<path d="M119000 6625
L119000 12125
" />
<path d="M111500 12125
L106000 12125
" />
<path d="M106000 12125
L106000 6625
" />
<path d="M106000 6625
L111500 6625
" />
<path d="M111500 6625
L111500 12125
" />
<path d="M104000 12125
L98500 12125
" />
<path d="M98500 12125
L98500 6625
" />
<path d="M98500 6625
L104000 6625
" />
<path d="M104000 6625
L104000 12125
" />
<g >
</g>
<g >
</g>
<g >
</g>
<g >
</g>
<g >
</g>
<g >
</g>
<g >
</g>
<g >
</g>
<g >
</g>
<g >
</g>
<g >
</g>
<g >
</g>
<g >
</g>
<g >
</g>
<g >
</g>
<g >
</g>
<g >
</g>
<g >
</g>
<g >
</g>
<g >
</g>
<g >
</g>
<g >
</g>
<g >
</g>
<g >
</g>
<g >
</g>
<g >
</g>
<g >
</g>
<g >
</g>
<g >
</g>
<g >
</g>
<g >
</g>
<g >
</g>
<g >
</g>
<g >
</g>
<g >
</g>
<g >
</g>
<g >
</g>
<g >
</g>
<g >
</g>
<g >
</g>
<g >
</g>
<g >
</g>
<g >
</g>
<g >
</g>
<g >
</g>
<g >
</g>
<g >
</g>
<g >
</g>
<g >
</g>
<g >
</g>
<g >
</g>
<g >
</g>
<g >
</g>
<g >
</g>
<g >
</g>
<g >
</g>
<g >
</g>
<g >
</g>
<g >
</g>
<g >
</g>
<g >
</g>
<g >
</g>
<g >
</g>
<g >
</g>
<g >
</g>
<g >
</g>
<g >
</g>
<g >
</g>
<g >
</g>
<g >
</g>
<g >
</g>
<g >
</g>
<g >
</g>
<g >
</g>
</g> 
</svg>
