G04 #@! TF.GenerationSoftware,KiCad,Pcbnew,(5.1.6)-1*
G04 #@! TF.CreationDate,2020-09-20T11:30:11-07:00*
G04 #@! TF.ProjectId,ortho_half,6f727468-6f5f-4686-916c-662e6b696361,rev?*
G04 #@! TF.SameCoordinates,Original*
G04 #@! TF.FileFunction,Paste,Top*
G04 #@! TF.FilePolarity,Positive*
%FSLAX46Y46*%
G04 Gerber Fmt 4.6, Leading zero omitted, Abs format (unit mm)*
G04 Created by KiCad (PCBNEW (5.1.6)-1) date 2020-09-20 11:30:11*
%MOMM*%
%LPD*%
G01*
G04 APERTURE LIST*
%ADD10R,3.250000X2.000000*%
%ADD11C,0.100000*%
G04 APERTURE END LIST*
D10*
X151485600Y-19685000D03*
X151485600Y-22225000D03*
X151485600Y-24765000D03*
X151485600Y-27305000D03*
X151485600Y-29845000D03*
X151485600Y-32385000D03*
X151485600Y-34925000D03*
X151485600Y-37465000D03*
X151485600Y-40005000D03*
X151485600Y-42545000D03*
X151485600Y-45085000D03*
X151485600Y-47625000D03*
X132689600Y-47625000D03*
X132689600Y-45085000D03*
X132689600Y-42545000D03*
X132689600Y-40005000D03*
X132689600Y-37465000D03*
X132689600Y-34925000D03*
X132689600Y-32385000D03*
X132689600Y-29845000D03*
X132689600Y-27305000D03*
X132689600Y-24765000D03*
X132689600Y-22225000D03*
X132689600Y-19685000D03*
G36*
G01*
X137771201Y-99909842D02*
X137771201Y-99059840D01*
G75*
G02*
X138021200Y-98809841I249999J0D01*
G01*
X139096202Y-98809841D01*
G75*
G02*
X139346201Y-99059840I0J-249999D01*
G01*
X139346201Y-99909842D01*
G75*
G02*
X139096202Y-100159841I-249999J0D01*
G01*
X138021200Y-100159841D01*
G75*
G02*
X137771201Y-99909842I0J249999D01*
G01*
G37*
G36*
G01*
X134896201Y-99909842D02*
X134896201Y-99059840D01*
G75*
G02*
X135146200Y-98809841I249999J0D01*
G01*
X136221202Y-98809841D01*
G75*
G02*
X136471201Y-99059840I0J-249999D01*
G01*
X136471201Y-99909842D01*
G75*
G02*
X136221202Y-100159841I-249999J0D01*
G01*
X135146200Y-100159841D01*
G75*
G02*
X134896201Y-99909842I0J249999D01*
G01*
G37*
G36*
G01*
X137771201Y-103582522D02*
X137771201Y-102732520D01*
G75*
G02*
X138021200Y-102482521I249999J0D01*
G01*
X139096202Y-102482521D01*
G75*
G02*
X139346201Y-102732520I0J-249999D01*
G01*
X139346201Y-103582522D01*
G75*
G02*
X139096202Y-103832521I-249999J0D01*
G01*
X138021200Y-103832521D01*
G75*
G02*
X137771201Y-103582522I0J249999D01*
G01*
G37*
G36*
G01*
X134896201Y-103582522D02*
X134896201Y-102732520D01*
G75*
G02*
X135146200Y-102482521I249999J0D01*
G01*
X136221202Y-102482521D01*
G75*
G02*
X136471201Y-102732520I0J-249999D01*
G01*
X136471201Y-103582522D01*
G75*
G02*
X136221202Y-103832521I-249999J0D01*
G01*
X135146200Y-103832521D01*
G75*
G02*
X134896201Y-103582522I0J249999D01*
G01*
G37*
G36*
G01*
X137771201Y-88891802D02*
X137771201Y-88041800D01*
G75*
G02*
X138021200Y-87791801I249999J0D01*
G01*
X139096202Y-87791801D01*
G75*
G02*
X139346201Y-88041800I0J-249999D01*
G01*
X139346201Y-88891802D01*
G75*
G02*
X139096202Y-89141801I-249999J0D01*
G01*
X138021200Y-89141801D01*
G75*
G02*
X137771201Y-88891802I0J249999D01*
G01*
G37*
G36*
G01*
X134896201Y-88891802D02*
X134896201Y-88041800D01*
G75*
G02*
X135146200Y-87791801I249999J0D01*
G01*
X136221202Y-87791801D01*
G75*
G02*
X136471201Y-88041800I0J-249999D01*
G01*
X136471201Y-88891802D01*
G75*
G02*
X136221202Y-89141801I-249999J0D01*
G01*
X135146200Y-89141801D01*
G75*
G02*
X134896201Y-88891802I0J249999D01*
G01*
G37*
G36*
G01*
X137771201Y-92564482D02*
X137771201Y-91714480D01*
G75*
G02*
X138021200Y-91464481I249999J0D01*
G01*
X139096202Y-91464481D01*
G75*
G02*
X139346201Y-91714480I0J-249999D01*
G01*
X139346201Y-92564482D01*
G75*
G02*
X139096202Y-92814481I-249999J0D01*
G01*
X138021200Y-92814481D01*
G75*
G02*
X137771201Y-92564482I0J249999D01*
G01*
G37*
G36*
G01*
X134896201Y-92564482D02*
X134896201Y-91714480D01*
G75*
G02*
X135146200Y-91464481I249999J0D01*
G01*
X136221202Y-91464481D01*
G75*
G02*
X136471201Y-91714480I0J-249999D01*
G01*
X136471201Y-92564482D01*
G75*
G02*
X136221202Y-92814481I-249999J0D01*
G01*
X135146200Y-92814481D01*
G75*
G02*
X134896201Y-92564482I0J249999D01*
G01*
G37*
G36*
G01*
X137771201Y-107255202D02*
X137771201Y-106405200D01*
G75*
G02*
X138021200Y-106155201I249999J0D01*
G01*
X139096202Y-106155201D01*
G75*
G02*
X139346201Y-106405200I0J-249999D01*
G01*
X139346201Y-107255202D01*
G75*
G02*
X139096202Y-107505201I-249999J0D01*
G01*
X138021200Y-107505201D01*
G75*
G02*
X137771201Y-107255202I0J249999D01*
G01*
G37*
G36*
G01*
X134896201Y-107255202D02*
X134896201Y-106405200D01*
G75*
G02*
X135146200Y-106155201I249999J0D01*
G01*
X136221202Y-106155201D01*
G75*
G02*
X136471201Y-106405200I0J-249999D01*
G01*
X136471201Y-107255202D01*
G75*
G02*
X136221202Y-107505201I-249999J0D01*
G01*
X135146200Y-107505201D01*
G75*
G02*
X134896201Y-107255202I0J249999D01*
G01*
G37*
G36*
G01*
X137771201Y-96237162D02*
X137771201Y-95387160D01*
G75*
G02*
X138021200Y-95137161I249999J0D01*
G01*
X139096202Y-95137161D01*
G75*
G02*
X139346201Y-95387160I0J-249999D01*
G01*
X139346201Y-96237162D01*
G75*
G02*
X139096202Y-96487161I-249999J0D01*
G01*
X138021200Y-96487161D01*
G75*
G02*
X137771201Y-96237162I0J249999D01*
G01*
G37*
G36*
G01*
X134896201Y-96237162D02*
X134896201Y-95387160D01*
G75*
G02*
X135146200Y-95137161I249999J0D01*
G01*
X136221202Y-95137161D01*
G75*
G02*
X136471201Y-95387160I0J-249999D01*
G01*
X136471201Y-96237162D01*
G75*
G02*
X136221202Y-96487161I-249999J0D01*
G01*
X135146200Y-96487161D01*
G75*
G02*
X134896201Y-96237162I0J249999D01*
G01*
G37*
D11*
G36*
X147463373Y-79445155D02*
G01*
X146614845Y-78596627D01*
X147675505Y-77535967D01*
X148524033Y-78384495D01*
X147463373Y-79445155D01*
G37*
G36*
X149372561Y-77535967D02*
G01*
X148524033Y-76687439D01*
X149584693Y-75626779D01*
X150433221Y-76475307D01*
X149372561Y-77535967D01*
G37*
G36*
X147478540Y-85017988D02*
G01*
X146630012Y-84169460D01*
X147690672Y-83108800D01*
X148539200Y-83957328D01*
X147478540Y-85017988D01*
G37*
G36*
X149387728Y-83108800D02*
G01*
X148539200Y-82260272D01*
X149599860Y-81199612D01*
X150448388Y-82048140D01*
X149387728Y-83108800D01*
G37*
G36*
X147478540Y-96143188D02*
G01*
X146630012Y-95294660D01*
X147690672Y-94234000D01*
X148539200Y-95082528D01*
X147478540Y-96143188D01*
G37*
G36*
X149387728Y-94234000D02*
G01*
X148539200Y-93385472D01*
X149599860Y-92324812D01*
X150448388Y-93173340D01*
X149387728Y-94234000D01*
G37*
G36*
X149599860Y-70049012D02*
G01*
X150448388Y-70897540D01*
X149387728Y-71958200D01*
X148539200Y-71109672D01*
X149599860Y-70049012D01*
G37*
G36*
X147690672Y-71958200D02*
G01*
X148539200Y-72806728D01*
X147478540Y-73867388D01*
X146630012Y-73018860D01*
X147690672Y-71958200D01*
G37*
G36*
X147478540Y-90555188D02*
G01*
X146630012Y-89706660D01*
X147690672Y-88646000D01*
X148539200Y-89494528D01*
X147478540Y-90555188D01*
G37*
G36*
X149387728Y-88646000D02*
G01*
X148539200Y-87797472D01*
X149599860Y-86736812D01*
X150448388Y-87585340D01*
X149387728Y-88646000D01*
G37*
G36*
X149584693Y-97877179D02*
G01*
X150433221Y-98725707D01*
X149372561Y-99786367D01*
X148524033Y-98937839D01*
X149584693Y-97877179D01*
G37*
G36*
X147675505Y-99786367D02*
G01*
X148524033Y-100634895D01*
X147463373Y-101695555D01*
X146614845Y-100847027D01*
X147675505Y-99786367D01*
G37*
G36*
G01*
X139403200Y-74271800D02*
X139553200Y-74271800D01*
G75*
G02*
X139628200Y-74346800I0J-75000D01*
G01*
X139628200Y-75671800D01*
G75*
G02*
X139553200Y-75746800I-75000J0D01*
G01*
X139403200Y-75746800D01*
G75*
G02*
X139328200Y-75671800I0J75000D01*
G01*
X139328200Y-74346800D01*
G75*
G02*
X139403200Y-74271800I75000J0D01*
G01*
G37*
G36*
G01*
X138903200Y-74271800D02*
X139053200Y-74271800D01*
G75*
G02*
X139128200Y-74346800I0J-75000D01*
G01*
X139128200Y-75671800D01*
G75*
G02*
X139053200Y-75746800I-75000J0D01*
G01*
X138903200Y-75746800D01*
G75*
G02*
X138828200Y-75671800I0J75000D01*
G01*
X138828200Y-74346800D01*
G75*
G02*
X138903200Y-74271800I75000J0D01*
G01*
G37*
G36*
G01*
X138403200Y-74271800D02*
X138553200Y-74271800D01*
G75*
G02*
X138628200Y-74346800I0J-75000D01*
G01*
X138628200Y-75671800D01*
G75*
G02*
X138553200Y-75746800I-75000J0D01*
G01*
X138403200Y-75746800D01*
G75*
G02*
X138328200Y-75671800I0J75000D01*
G01*
X138328200Y-74346800D01*
G75*
G02*
X138403200Y-74271800I75000J0D01*
G01*
G37*
G36*
G01*
X137903200Y-74271800D02*
X138053200Y-74271800D01*
G75*
G02*
X138128200Y-74346800I0J-75000D01*
G01*
X138128200Y-75671800D01*
G75*
G02*
X138053200Y-75746800I-75000J0D01*
G01*
X137903200Y-75746800D01*
G75*
G02*
X137828200Y-75671800I0J75000D01*
G01*
X137828200Y-74346800D01*
G75*
G02*
X137903200Y-74271800I75000J0D01*
G01*
G37*
G36*
G01*
X137403200Y-74271800D02*
X137553200Y-74271800D01*
G75*
G02*
X137628200Y-74346800I0J-75000D01*
G01*
X137628200Y-75671800D01*
G75*
G02*
X137553200Y-75746800I-75000J0D01*
G01*
X137403200Y-75746800D01*
G75*
G02*
X137328200Y-75671800I0J75000D01*
G01*
X137328200Y-74346800D01*
G75*
G02*
X137403200Y-74271800I75000J0D01*
G01*
G37*
G36*
G01*
X136903200Y-74271800D02*
X137053200Y-74271800D01*
G75*
G02*
X137128200Y-74346800I0J-75000D01*
G01*
X137128200Y-75671800D01*
G75*
G02*
X137053200Y-75746800I-75000J0D01*
G01*
X136903200Y-75746800D01*
G75*
G02*
X136828200Y-75671800I0J75000D01*
G01*
X136828200Y-74346800D01*
G75*
G02*
X136903200Y-74271800I75000J0D01*
G01*
G37*
G36*
G01*
X136403200Y-74271800D02*
X136553200Y-74271800D01*
G75*
G02*
X136628200Y-74346800I0J-75000D01*
G01*
X136628200Y-75671800D01*
G75*
G02*
X136553200Y-75746800I-75000J0D01*
G01*
X136403200Y-75746800D01*
G75*
G02*
X136328200Y-75671800I0J75000D01*
G01*
X136328200Y-74346800D01*
G75*
G02*
X136403200Y-74271800I75000J0D01*
G01*
G37*
G36*
G01*
X135903200Y-74271800D02*
X136053200Y-74271800D01*
G75*
G02*
X136128200Y-74346800I0J-75000D01*
G01*
X136128200Y-75671800D01*
G75*
G02*
X136053200Y-75746800I-75000J0D01*
G01*
X135903200Y-75746800D01*
G75*
G02*
X135828200Y-75671800I0J75000D01*
G01*
X135828200Y-74346800D01*
G75*
G02*
X135903200Y-74271800I75000J0D01*
G01*
G37*
G36*
G01*
X135403200Y-74271800D02*
X135553200Y-74271800D01*
G75*
G02*
X135628200Y-74346800I0J-75000D01*
G01*
X135628200Y-75671800D01*
G75*
G02*
X135553200Y-75746800I-75000J0D01*
G01*
X135403200Y-75746800D01*
G75*
G02*
X135328200Y-75671800I0J75000D01*
G01*
X135328200Y-74346800D01*
G75*
G02*
X135403200Y-74271800I75000J0D01*
G01*
G37*
G36*
G01*
X134903200Y-74271800D02*
X135053200Y-74271800D01*
G75*
G02*
X135128200Y-74346800I0J-75000D01*
G01*
X135128200Y-75671800D01*
G75*
G02*
X135053200Y-75746800I-75000J0D01*
G01*
X134903200Y-75746800D01*
G75*
G02*
X134828200Y-75671800I0J75000D01*
G01*
X134828200Y-74346800D01*
G75*
G02*
X134903200Y-74271800I75000J0D01*
G01*
G37*
G36*
G01*
X134403200Y-74271800D02*
X134553200Y-74271800D01*
G75*
G02*
X134628200Y-74346800I0J-75000D01*
G01*
X134628200Y-75671800D01*
G75*
G02*
X134553200Y-75746800I-75000J0D01*
G01*
X134403200Y-75746800D01*
G75*
G02*
X134328200Y-75671800I0J75000D01*
G01*
X134328200Y-74346800D01*
G75*
G02*
X134403200Y-74271800I75000J0D01*
G01*
G37*
G36*
G01*
X133903200Y-74271800D02*
X134053200Y-74271800D01*
G75*
G02*
X134128200Y-74346800I0J-75000D01*
G01*
X134128200Y-75671800D01*
G75*
G02*
X134053200Y-75746800I-75000J0D01*
G01*
X133903200Y-75746800D01*
G75*
G02*
X133828200Y-75671800I0J75000D01*
G01*
X133828200Y-74346800D01*
G75*
G02*
X133903200Y-74271800I75000J0D01*
G01*
G37*
G36*
G01*
X131903200Y-76271800D02*
X133228200Y-76271800D01*
G75*
G02*
X133303200Y-76346800I0J-75000D01*
G01*
X133303200Y-76496800D01*
G75*
G02*
X133228200Y-76571800I-75000J0D01*
G01*
X131903200Y-76571800D01*
G75*
G02*
X131828200Y-76496800I0J75000D01*
G01*
X131828200Y-76346800D01*
G75*
G02*
X131903200Y-76271800I75000J0D01*
G01*
G37*
G36*
G01*
X131903200Y-76771800D02*
X133228200Y-76771800D01*
G75*
G02*
X133303200Y-76846800I0J-75000D01*
G01*
X133303200Y-76996800D01*
G75*
G02*
X133228200Y-77071800I-75000J0D01*
G01*
X131903200Y-77071800D01*
G75*
G02*
X131828200Y-76996800I0J75000D01*
G01*
X131828200Y-76846800D01*
G75*
G02*
X131903200Y-76771800I75000J0D01*
G01*
G37*
G36*
G01*
X131903200Y-77271800D02*
X133228200Y-77271800D01*
G75*
G02*
X133303200Y-77346800I0J-75000D01*
G01*
X133303200Y-77496800D01*
G75*
G02*
X133228200Y-77571800I-75000J0D01*
G01*
X131903200Y-77571800D01*
G75*
G02*
X131828200Y-77496800I0J75000D01*
G01*
X131828200Y-77346800D01*
G75*
G02*
X131903200Y-77271800I75000J0D01*
G01*
G37*
G36*
G01*
X131903200Y-77771800D02*
X133228200Y-77771800D01*
G75*
G02*
X133303200Y-77846800I0J-75000D01*
G01*
X133303200Y-77996800D01*
G75*
G02*
X133228200Y-78071800I-75000J0D01*
G01*
X131903200Y-78071800D01*
G75*
G02*
X131828200Y-77996800I0J75000D01*
G01*
X131828200Y-77846800D01*
G75*
G02*
X131903200Y-77771800I75000J0D01*
G01*
G37*
G36*
G01*
X131903200Y-78271800D02*
X133228200Y-78271800D01*
G75*
G02*
X133303200Y-78346800I0J-75000D01*
G01*
X133303200Y-78496800D01*
G75*
G02*
X133228200Y-78571800I-75000J0D01*
G01*
X131903200Y-78571800D01*
G75*
G02*
X131828200Y-78496800I0J75000D01*
G01*
X131828200Y-78346800D01*
G75*
G02*
X131903200Y-78271800I75000J0D01*
G01*
G37*
G36*
G01*
X131903200Y-78771800D02*
X133228200Y-78771800D01*
G75*
G02*
X133303200Y-78846800I0J-75000D01*
G01*
X133303200Y-78996800D01*
G75*
G02*
X133228200Y-79071800I-75000J0D01*
G01*
X131903200Y-79071800D01*
G75*
G02*
X131828200Y-78996800I0J75000D01*
G01*
X131828200Y-78846800D01*
G75*
G02*
X131903200Y-78771800I75000J0D01*
G01*
G37*
G36*
G01*
X131903200Y-79271800D02*
X133228200Y-79271800D01*
G75*
G02*
X133303200Y-79346800I0J-75000D01*
G01*
X133303200Y-79496800D01*
G75*
G02*
X133228200Y-79571800I-75000J0D01*
G01*
X131903200Y-79571800D01*
G75*
G02*
X131828200Y-79496800I0J75000D01*
G01*
X131828200Y-79346800D01*
G75*
G02*
X131903200Y-79271800I75000J0D01*
G01*
G37*
G36*
G01*
X131903200Y-79771800D02*
X133228200Y-79771800D01*
G75*
G02*
X133303200Y-79846800I0J-75000D01*
G01*
X133303200Y-79996800D01*
G75*
G02*
X133228200Y-80071800I-75000J0D01*
G01*
X131903200Y-80071800D01*
G75*
G02*
X131828200Y-79996800I0J75000D01*
G01*
X131828200Y-79846800D01*
G75*
G02*
X131903200Y-79771800I75000J0D01*
G01*
G37*
G36*
G01*
X131903200Y-80271800D02*
X133228200Y-80271800D01*
G75*
G02*
X133303200Y-80346800I0J-75000D01*
G01*
X133303200Y-80496800D01*
G75*
G02*
X133228200Y-80571800I-75000J0D01*
G01*
X131903200Y-80571800D01*
G75*
G02*
X131828200Y-80496800I0J75000D01*
G01*
X131828200Y-80346800D01*
G75*
G02*
X131903200Y-80271800I75000J0D01*
G01*
G37*
G36*
G01*
X131903200Y-80771800D02*
X133228200Y-80771800D01*
G75*
G02*
X133303200Y-80846800I0J-75000D01*
G01*
X133303200Y-80996800D01*
G75*
G02*
X133228200Y-81071800I-75000J0D01*
G01*
X131903200Y-81071800D01*
G75*
G02*
X131828200Y-80996800I0J75000D01*
G01*
X131828200Y-80846800D01*
G75*
G02*
X131903200Y-80771800I75000J0D01*
G01*
G37*
G36*
G01*
X131903200Y-81271800D02*
X133228200Y-81271800D01*
G75*
G02*
X133303200Y-81346800I0J-75000D01*
G01*
X133303200Y-81496800D01*
G75*
G02*
X133228200Y-81571800I-75000J0D01*
G01*
X131903200Y-81571800D01*
G75*
G02*
X131828200Y-81496800I0J75000D01*
G01*
X131828200Y-81346800D01*
G75*
G02*
X131903200Y-81271800I75000J0D01*
G01*
G37*
G36*
G01*
X131903200Y-81771800D02*
X133228200Y-81771800D01*
G75*
G02*
X133303200Y-81846800I0J-75000D01*
G01*
X133303200Y-81996800D01*
G75*
G02*
X133228200Y-82071800I-75000J0D01*
G01*
X131903200Y-82071800D01*
G75*
G02*
X131828200Y-81996800I0J75000D01*
G01*
X131828200Y-81846800D01*
G75*
G02*
X131903200Y-81771800I75000J0D01*
G01*
G37*
G36*
G01*
X133903200Y-82596800D02*
X134053200Y-82596800D01*
G75*
G02*
X134128200Y-82671800I0J-75000D01*
G01*
X134128200Y-83996800D01*
G75*
G02*
X134053200Y-84071800I-75000J0D01*
G01*
X133903200Y-84071800D01*
G75*
G02*
X133828200Y-83996800I0J75000D01*
G01*
X133828200Y-82671800D01*
G75*
G02*
X133903200Y-82596800I75000J0D01*
G01*
G37*
G36*
G01*
X134403200Y-82596800D02*
X134553200Y-82596800D01*
G75*
G02*
X134628200Y-82671800I0J-75000D01*
G01*
X134628200Y-83996800D01*
G75*
G02*
X134553200Y-84071800I-75000J0D01*
G01*
X134403200Y-84071800D01*
G75*
G02*
X134328200Y-83996800I0J75000D01*
G01*
X134328200Y-82671800D01*
G75*
G02*
X134403200Y-82596800I75000J0D01*
G01*
G37*
G36*
G01*
X134903200Y-82596800D02*
X135053200Y-82596800D01*
G75*
G02*
X135128200Y-82671800I0J-75000D01*
G01*
X135128200Y-83996800D01*
G75*
G02*
X135053200Y-84071800I-75000J0D01*
G01*
X134903200Y-84071800D01*
G75*
G02*
X134828200Y-83996800I0J75000D01*
G01*
X134828200Y-82671800D01*
G75*
G02*
X134903200Y-82596800I75000J0D01*
G01*
G37*
G36*
G01*
X135403200Y-82596800D02*
X135553200Y-82596800D01*
G75*
G02*
X135628200Y-82671800I0J-75000D01*
G01*
X135628200Y-83996800D01*
G75*
G02*
X135553200Y-84071800I-75000J0D01*
G01*
X135403200Y-84071800D01*
G75*
G02*
X135328200Y-83996800I0J75000D01*
G01*
X135328200Y-82671800D01*
G75*
G02*
X135403200Y-82596800I75000J0D01*
G01*
G37*
G36*
G01*
X135903200Y-82596800D02*
X136053200Y-82596800D01*
G75*
G02*
X136128200Y-82671800I0J-75000D01*
G01*
X136128200Y-83996800D01*
G75*
G02*
X136053200Y-84071800I-75000J0D01*
G01*
X135903200Y-84071800D01*
G75*
G02*
X135828200Y-83996800I0J75000D01*
G01*
X135828200Y-82671800D01*
G75*
G02*
X135903200Y-82596800I75000J0D01*
G01*
G37*
G36*
G01*
X136403200Y-82596800D02*
X136553200Y-82596800D01*
G75*
G02*
X136628200Y-82671800I0J-75000D01*
G01*
X136628200Y-83996800D01*
G75*
G02*
X136553200Y-84071800I-75000J0D01*
G01*
X136403200Y-84071800D01*
G75*
G02*
X136328200Y-83996800I0J75000D01*
G01*
X136328200Y-82671800D01*
G75*
G02*
X136403200Y-82596800I75000J0D01*
G01*
G37*
G36*
G01*
X136903200Y-82596800D02*
X137053200Y-82596800D01*
G75*
G02*
X137128200Y-82671800I0J-75000D01*
G01*
X137128200Y-83996800D01*
G75*
G02*
X137053200Y-84071800I-75000J0D01*
G01*
X136903200Y-84071800D01*
G75*
G02*
X136828200Y-83996800I0J75000D01*
G01*
X136828200Y-82671800D01*
G75*
G02*
X136903200Y-82596800I75000J0D01*
G01*
G37*
G36*
G01*
X137403200Y-82596800D02*
X137553200Y-82596800D01*
G75*
G02*
X137628200Y-82671800I0J-75000D01*
G01*
X137628200Y-83996800D01*
G75*
G02*
X137553200Y-84071800I-75000J0D01*
G01*
X137403200Y-84071800D01*
G75*
G02*
X137328200Y-83996800I0J75000D01*
G01*
X137328200Y-82671800D01*
G75*
G02*
X137403200Y-82596800I75000J0D01*
G01*
G37*
G36*
G01*
X137903200Y-82596800D02*
X138053200Y-82596800D01*
G75*
G02*
X138128200Y-82671800I0J-75000D01*
G01*
X138128200Y-83996800D01*
G75*
G02*
X138053200Y-84071800I-75000J0D01*
G01*
X137903200Y-84071800D01*
G75*
G02*
X137828200Y-83996800I0J75000D01*
G01*
X137828200Y-82671800D01*
G75*
G02*
X137903200Y-82596800I75000J0D01*
G01*
G37*
G36*
G01*
X138403200Y-82596800D02*
X138553200Y-82596800D01*
G75*
G02*
X138628200Y-82671800I0J-75000D01*
G01*
X138628200Y-83996800D01*
G75*
G02*
X138553200Y-84071800I-75000J0D01*
G01*
X138403200Y-84071800D01*
G75*
G02*
X138328200Y-83996800I0J75000D01*
G01*
X138328200Y-82671800D01*
G75*
G02*
X138403200Y-82596800I75000J0D01*
G01*
G37*
G36*
G01*
X138903200Y-82596800D02*
X139053200Y-82596800D01*
G75*
G02*
X139128200Y-82671800I0J-75000D01*
G01*
X139128200Y-83996800D01*
G75*
G02*
X139053200Y-84071800I-75000J0D01*
G01*
X138903200Y-84071800D01*
G75*
G02*
X138828200Y-83996800I0J75000D01*
G01*
X138828200Y-82671800D01*
G75*
G02*
X138903200Y-82596800I75000J0D01*
G01*
G37*
G36*
G01*
X139403200Y-82596800D02*
X139553200Y-82596800D01*
G75*
G02*
X139628200Y-82671800I0J-75000D01*
G01*
X139628200Y-83996800D01*
G75*
G02*
X139553200Y-84071800I-75000J0D01*
G01*
X139403200Y-84071800D01*
G75*
G02*
X139328200Y-83996800I0J75000D01*
G01*
X139328200Y-82671800D01*
G75*
G02*
X139403200Y-82596800I75000J0D01*
G01*
G37*
G36*
G01*
X140228200Y-81771800D02*
X141553200Y-81771800D01*
G75*
G02*
X141628200Y-81846800I0J-75000D01*
G01*
X141628200Y-81996800D01*
G75*
G02*
X141553200Y-82071800I-75000J0D01*
G01*
X140228200Y-82071800D01*
G75*
G02*
X140153200Y-81996800I0J75000D01*
G01*
X140153200Y-81846800D01*
G75*
G02*
X140228200Y-81771800I75000J0D01*
G01*
G37*
G36*
G01*
X140228200Y-81271800D02*
X141553200Y-81271800D01*
G75*
G02*
X141628200Y-81346800I0J-75000D01*
G01*
X141628200Y-81496800D01*
G75*
G02*
X141553200Y-81571800I-75000J0D01*
G01*
X140228200Y-81571800D01*
G75*
G02*
X140153200Y-81496800I0J75000D01*
G01*
X140153200Y-81346800D01*
G75*
G02*
X140228200Y-81271800I75000J0D01*
G01*
G37*
G36*
G01*
X140228200Y-80771800D02*
X141553200Y-80771800D01*
G75*
G02*
X141628200Y-80846800I0J-75000D01*
G01*
X141628200Y-80996800D01*
G75*
G02*
X141553200Y-81071800I-75000J0D01*
G01*
X140228200Y-81071800D01*
G75*
G02*
X140153200Y-80996800I0J75000D01*
G01*
X140153200Y-80846800D01*
G75*
G02*
X140228200Y-80771800I75000J0D01*
G01*
G37*
G36*
G01*
X140228200Y-80271800D02*
X141553200Y-80271800D01*
G75*
G02*
X141628200Y-80346800I0J-75000D01*
G01*
X141628200Y-80496800D01*
G75*
G02*
X141553200Y-80571800I-75000J0D01*
G01*
X140228200Y-80571800D01*
G75*
G02*
X140153200Y-80496800I0J75000D01*
G01*
X140153200Y-80346800D01*
G75*
G02*
X140228200Y-80271800I75000J0D01*
G01*
G37*
G36*
G01*
X140228200Y-79771800D02*
X141553200Y-79771800D01*
G75*
G02*
X141628200Y-79846800I0J-75000D01*
G01*
X141628200Y-79996800D01*
G75*
G02*
X141553200Y-80071800I-75000J0D01*
G01*
X140228200Y-80071800D01*
G75*
G02*
X140153200Y-79996800I0J75000D01*
G01*
X140153200Y-79846800D01*
G75*
G02*
X140228200Y-79771800I75000J0D01*
G01*
G37*
G36*
G01*
X140228200Y-79271800D02*
X141553200Y-79271800D01*
G75*
G02*
X141628200Y-79346800I0J-75000D01*
G01*
X141628200Y-79496800D01*
G75*
G02*
X141553200Y-79571800I-75000J0D01*
G01*
X140228200Y-79571800D01*
G75*
G02*
X140153200Y-79496800I0J75000D01*
G01*
X140153200Y-79346800D01*
G75*
G02*
X140228200Y-79271800I75000J0D01*
G01*
G37*
G36*
G01*
X140228200Y-78771800D02*
X141553200Y-78771800D01*
G75*
G02*
X141628200Y-78846800I0J-75000D01*
G01*
X141628200Y-78996800D01*
G75*
G02*
X141553200Y-79071800I-75000J0D01*
G01*
X140228200Y-79071800D01*
G75*
G02*
X140153200Y-78996800I0J75000D01*
G01*
X140153200Y-78846800D01*
G75*
G02*
X140228200Y-78771800I75000J0D01*
G01*
G37*
G36*
G01*
X140228200Y-78271800D02*
X141553200Y-78271800D01*
G75*
G02*
X141628200Y-78346800I0J-75000D01*
G01*
X141628200Y-78496800D01*
G75*
G02*
X141553200Y-78571800I-75000J0D01*
G01*
X140228200Y-78571800D01*
G75*
G02*
X140153200Y-78496800I0J75000D01*
G01*
X140153200Y-78346800D01*
G75*
G02*
X140228200Y-78271800I75000J0D01*
G01*
G37*
G36*
G01*
X140228200Y-77771800D02*
X141553200Y-77771800D01*
G75*
G02*
X141628200Y-77846800I0J-75000D01*
G01*
X141628200Y-77996800D01*
G75*
G02*
X141553200Y-78071800I-75000J0D01*
G01*
X140228200Y-78071800D01*
G75*
G02*
X140153200Y-77996800I0J75000D01*
G01*
X140153200Y-77846800D01*
G75*
G02*
X140228200Y-77771800I75000J0D01*
G01*
G37*
G36*
G01*
X140228200Y-77271800D02*
X141553200Y-77271800D01*
G75*
G02*
X141628200Y-77346800I0J-75000D01*
G01*
X141628200Y-77496800D01*
G75*
G02*
X141553200Y-77571800I-75000J0D01*
G01*
X140228200Y-77571800D01*
G75*
G02*
X140153200Y-77496800I0J75000D01*
G01*
X140153200Y-77346800D01*
G75*
G02*
X140228200Y-77271800I75000J0D01*
G01*
G37*
G36*
G01*
X140228200Y-76771800D02*
X141553200Y-76771800D01*
G75*
G02*
X141628200Y-76846800I0J-75000D01*
G01*
X141628200Y-76996800D01*
G75*
G02*
X141553200Y-77071800I-75000J0D01*
G01*
X140228200Y-77071800D01*
G75*
G02*
X140153200Y-76996800I0J75000D01*
G01*
X140153200Y-76846800D01*
G75*
G02*
X140228200Y-76771800I75000J0D01*
G01*
G37*
G36*
G01*
X140228200Y-76271800D02*
X141553200Y-76271800D01*
G75*
G02*
X141628200Y-76346800I0J-75000D01*
G01*
X141628200Y-76496800D01*
G75*
G02*
X141553200Y-76571800I-75000J0D01*
G01*
X140228200Y-76571800D01*
G75*
G02*
X140153200Y-76496800I0J75000D01*
G01*
X140153200Y-76346800D01*
G75*
G02*
X140228200Y-76271800I75000J0D01*
G01*
G37*
G36*
G01*
X138348200Y-76791800D02*
X138858200Y-76791800D01*
G75*
G02*
X139108200Y-77041800I0J-250000D01*
G01*
X139108200Y-77551800D01*
G75*
G02*
X138858200Y-77801800I-250000J0D01*
G01*
X138348200Y-77801800D01*
G75*
G02*
X138098200Y-77551800I0J250000D01*
G01*
X138098200Y-77041800D01*
G75*
G02*
X138348200Y-76791800I250000J0D01*
G01*
G37*
G36*
G01*
X137098200Y-76791800D02*
X137608200Y-76791800D01*
G75*
G02*
X137858200Y-77041800I0J-250000D01*
G01*
X137858200Y-77551800D01*
G75*
G02*
X137608200Y-77801800I-250000J0D01*
G01*
X137098200Y-77801800D01*
G75*
G02*
X136848200Y-77551800I0J250000D01*
G01*
X136848200Y-77041800D01*
G75*
G02*
X137098200Y-76791800I250000J0D01*
G01*
G37*
G36*
G01*
X135848200Y-76791800D02*
X136358200Y-76791800D01*
G75*
G02*
X136608200Y-77041800I0J-250000D01*
G01*
X136608200Y-77551800D01*
G75*
G02*
X136358200Y-77801800I-250000J0D01*
G01*
X135848200Y-77801800D01*
G75*
G02*
X135598200Y-77551800I0J250000D01*
G01*
X135598200Y-77041800D01*
G75*
G02*
X135848200Y-76791800I250000J0D01*
G01*
G37*
G36*
G01*
X134598200Y-76791800D02*
X135108200Y-76791800D01*
G75*
G02*
X135358200Y-77041800I0J-250000D01*
G01*
X135358200Y-77551800D01*
G75*
G02*
X135108200Y-77801800I-250000J0D01*
G01*
X134598200Y-77801800D01*
G75*
G02*
X134348200Y-77551800I0J250000D01*
G01*
X134348200Y-77041800D01*
G75*
G02*
X134598200Y-76791800I250000J0D01*
G01*
G37*
G36*
G01*
X138348200Y-78041800D02*
X138858200Y-78041800D01*
G75*
G02*
X139108200Y-78291800I0J-250000D01*
G01*
X139108200Y-78801800D01*
G75*
G02*
X138858200Y-79051800I-250000J0D01*
G01*
X138348200Y-79051800D01*
G75*
G02*
X138098200Y-78801800I0J250000D01*
G01*
X138098200Y-78291800D01*
G75*
G02*
X138348200Y-78041800I250000J0D01*
G01*
G37*
G36*
G01*
X137098200Y-78041800D02*
X137608200Y-78041800D01*
G75*
G02*
X137858200Y-78291800I0J-250000D01*
G01*
X137858200Y-78801800D01*
G75*
G02*
X137608200Y-79051800I-250000J0D01*
G01*
X137098200Y-79051800D01*
G75*
G02*
X136848200Y-78801800I0J250000D01*
G01*
X136848200Y-78291800D01*
G75*
G02*
X137098200Y-78041800I250000J0D01*
G01*
G37*
G36*
G01*
X135848200Y-78041800D02*
X136358200Y-78041800D01*
G75*
G02*
X136608200Y-78291800I0J-250000D01*
G01*
X136608200Y-78801800D01*
G75*
G02*
X136358200Y-79051800I-250000J0D01*
G01*
X135848200Y-79051800D01*
G75*
G02*
X135598200Y-78801800I0J250000D01*
G01*
X135598200Y-78291800D01*
G75*
G02*
X135848200Y-78041800I250000J0D01*
G01*
G37*
G36*
G01*
X134598200Y-78041800D02*
X135108200Y-78041800D01*
G75*
G02*
X135358200Y-78291800I0J-250000D01*
G01*
X135358200Y-78801800D01*
G75*
G02*
X135108200Y-79051800I-250000J0D01*
G01*
X134598200Y-79051800D01*
G75*
G02*
X134348200Y-78801800I0J250000D01*
G01*
X134348200Y-78291800D01*
G75*
G02*
X134598200Y-78041800I250000J0D01*
G01*
G37*
G36*
G01*
X138348200Y-79291800D02*
X138858200Y-79291800D01*
G75*
G02*
X139108200Y-79541800I0J-250000D01*
G01*
X139108200Y-80051800D01*
G75*
G02*
X138858200Y-80301800I-250000J0D01*
G01*
X138348200Y-80301800D01*
G75*
G02*
X138098200Y-80051800I0J250000D01*
G01*
X138098200Y-79541800D01*
G75*
G02*
X138348200Y-79291800I250000J0D01*
G01*
G37*
G36*
G01*
X137098200Y-79291800D02*
X137608200Y-79291800D01*
G75*
G02*
X137858200Y-79541800I0J-250000D01*
G01*
X137858200Y-80051800D01*
G75*
G02*
X137608200Y-80301800I-250000J0D01*
G01*
X137098200Y-80301800D01*
G75*
G02*
X136848200Y-80051800I0J250000D01*
G01*
X136848200Y-79541800D01*
G75*
G02*
X137098200Y-79291800I250000J0D01*
G01*
G37*
G36*
G01*
X135848200Y-79291800D02*
X136358200Y-79291800D01*
G75*
G02*
X136608200Y-79541800I0J-250000D01*
G01*
X136608200Y-80051800D01*
G75*
G02*
X136358200Y-80301800I-250000J0D01*
G01*
X135848200Y-80301800D01*
G75*
G02*
X135598200Y-80051800I0J250000D01*
G01*
X135598200Y-79541800D01*
G75*
G02*
X135848200Y-79291800I250000J0D01*
G01*
G37*
G36*
G01*
X134598200Y-79291800D02*
X135108200Y-79291800D01*
G75*
G02*
X135358200Y-79541800I0J-250000D01*
G01*
X135358200Y-80051800D01*
G75*
G02*
X135108200Y-80301800I-250000J0D01*
G01*
X134598200Y-80301800D01*
G75*
G02*
X134348200Y-80051800I0J250000D01*
G01*
X134348200Y-79541800D01*
G75*
G02*
X134598200Y-79291800I250000J0D01*
G01*
G37*
G36*
G01*
X138348200Y-80541800D02*
X138858200Y-80541800D01*
G75*
G02*
X139108200Y-80791800I0J-250000D01*
G01*
X139108200Y-81301800D01*
G75*
G02*
X138858200Y-81551800I-250000J0D01*
G01*
X138348200Y-81551800D01*
G75*
G02*
X138098200Y-81301800I0J250000D01*
G01*
X138098200Y-80791800D01*
G75*
G02*
X138348200Y-80541800I250000J0D01*
G01*
G37*
G36*
G01*
X137098200Y-80541800D02*
X137608200Y-80541800D01*
G75*
G02*
X137858200Y-80791800I0J-250000D01*
G01*
X137858200Y-81301800D01*
G75*
G02*
X137608200Y-81551800I-250000J0D01*
G01*
X137098200Y-81551800D01*
G75*
G02*
X136848200Y-81301800I0J250000D01*
G01*
X136848200Y-80791800D01*
G75*
G02*
X137098200Y-80541800I250000J0D01*
G01*
G37*
G36*
G01*
X135848200Y-80541800D02*
X136358200Y-80541800D01*
G75*
G02*
X136608200Y-80791800I0J-250000D01*
G01*
X136608200Y-81301800D01*
G75*
G02*
X136358200Y-81551800I-250000J0D01*
G01*
X135848200Y-81551800D01*
G75*
G02*
X135598200Y-81301800I0J250000D01*
G01*
X135598200Y-80791800D01*
G75*
G02*
X135848200Y-80541800I250000J0D01*
G01*
G37*
G36*
G01*
X134598200Y-80541800D02*
X135108200Y-80541800D01*
G75*
G02*
X135358200Y-80791800I0J-250000D01*
G01*
X135358200Y-81301800D01*
G75*
G02*
X135108200Y-81551800I-250000J0D01*
G01*
X134598200Y-81551800D01*
G75*
G02*
X134348200Y-81301800I0J250000D01*
G01*
X134348200Y-80791800D01*
G75*
G02*
X134598200Y-80541800I250000J0D01*
G01*
G37*
M02*
