G04 #@! TF.GenerationSoftware,KiCad,Pcbnew,(5.1.6)-1*
G04 #@! TF.CreationDate,2020-09-20T11:30:11-07:00*
G04 #@! TF.ProjectId,ortho_half,6f727468-6f5f-4686-916c-662e6b696361,rev?*
G04 #@! TF.SameCoordinates,Original*
G04 #@! TF.FileFunction,Paste,Bot*
G04 #@! TF.FilePolarity,Positive*
%FSLAX46Y46*%
G04 Gerber Fmt 4.6, Leading zero omitted, Abs format (unit mm)*
G04 Created by KiCad (PCBNEW (5.1.6)-1) date 2020-09-20 11:30:11*
%MOMM*%
%LPD*%
G01*
G04 APERTURE LIST*
%ADD10C,0.100000*%
%ADD11R,0.900000X1.000000*%
%ADD12R,1.200000X1.600000*%
%ADD13R,2.800000X1.700000*%
%ADD14R,1.800000X0.700000*%
G04 APERTURE END LIST*
D10*
G36*
X139033126Y-137530312D02*
G01*
X138375341Y-137290898D01*
X138990978Y-135599452D01*
X139648763Y-135838866D01*
X139033126Y-137530312D01*
G37*
G36*
X137208791Y-142542633D02*
G01*
X136551006Y-142303219D01*
X137166643Y-140611773D01*
X137824428Y-140851187D01*
X137208791Y-142542633D01*
G37*
G36*
X140536634Y-138077545D02*
G01*
X139878849Y-137838131D01*
X140494486Y-136146685D01*
X141152271Y-136386099D01*
X140536634Y-138077545D01*
G37*
G36*
X138712299Y-143089865D02*
G01*
X138054514Y-142850451D01*
X138670151Y-141159005D01*
X139327936Y-141398419D01*
X138712299Y-143089865D01*
G37*
G36*
X131816380Y-132271920D02*
G01*
X130218902Y-131690486D01*
X131176558Y-129059346D01*
X132774036Y-129640780D01*
X131816380Y-132271920D01*
G37*
G36*
X129910847Y-144933794D02*
G01*
X128313369Y-144352360D01*
X129271025Y-141721220D01*
X130868503Y-142302654D01*
X129910847Y-144933794D01*
G37*
G36*
X136228421Y-144666504D02*
G01*
X136638845Y-143538873D01*
X138142353Y-144086106D01*
X137731929Y-145213737D01*
X136228421Y-144666504D01*
G37*
G36*
X133597281Y-143708848D02*
G01*
X134007705Y-142581217D01*
X135511213Y-143128450D01*
X135100789Y-144256081D01*
X133597281Y-143708848D01*
G37*
G36*
X111747958Y-131360128D02*
G01*
X112405743Y-131599542D01*
X111790106Y-133290988D01*
X111132321Y-133051574D01*
X111747958Y-131360128D01*
G37*
G36*
X113572293Y-126347807D02*
G01*
X114230078Y-126587221D01*
X113614441Y-128278667D01*
X112956656Y-128039253D01*
X113572293Y-126347807D01*
G37*
G36*
X110244450Y-130812895D02*
G01*
X110902235Y-131052309D01*
X110286598Y-132743755D01*
X109628813Y-132504341D01*
X110244450Y-130812895D01*
G37*
G36*
X112068785Y-125800575D02*
G01*
X112726570Y-126039989D01*
X112110933Y-127731435D01*
X111453148Y-127492021D01*
X112068785Y-125800575D01*
G37*
G36*
X118964704Y-136618520D02*
G01*
X120562182Y-137199954D01*
X119604526Y-139831094D01*
X118007048Y-139249660D01*
X118964704Y-136618520D01*
G37*
G36*
X120870237Y-123956646D02*
G01*
X122467715Y-124538080D01*
X121510059Y-127169220D01*
X119912581Y-126587786D01*
X120870237Y-123956646D01*
G37*
G36*
X114552663Y-124223936D02*
G01*
X114142239Y-125351567D01*
X112638731Y-124804334D01*
X113049155Y-123676703D01*
X114552663Y-124223936D01*
G37*
G36*
X117183803Y-125181592D02*
G01*
X116773379Y-126309223D01*
X115269871Y-125761990D01*
X115680295Y-124634359D01*
X117183803Y-125181592D01*
G37*
D11*
X144061400Y-27165400D03*
X144061400Y-28765400D03*
X139961400Y-27165400D03*
X139961400Y-28765400D03*
D12*
X98166593Y-116907340D03*
X98166593Y-114107340D03*
D13*
X99778500Y-121602500D03*
X87228500Y-124142500D03*
D14*
X95535500Y-113462500D03*
X90201500Y-113462500D03*
X95535500Y-115062500D03*
X90201500Y-115062500D03*
D12*
X74354093Y-116907340D03*
X74354093Y-114107340D03*
D13*
X75966000Y-121602500D03*
X63416000Y-124142500D03*
D14*
X71723000Y-113462500D03*
X66389000Y-113462500D03*
X71723000Y-115062500D03*
X66389000Y-115062500D03*
D12*
X50541593Y-116907340D03*
X50541593Y-114107340D03*
D13*
X52153500Y-121602500D03*
X39603500Y-124142500D03*
D14*
X47910500Y-113462500D03*
X42576500Y-113462500D03*
X47910500Y-115062500D03*
X42576500Y-115062500D03*
D12*
X26729093Y-116907340D03*
X26729093Y-114107340D03*
D13*
X28341000Y-121602500D03*
X15791000Y-124142500D03*
D14*
X24098000Y-113462500D03*
X18764000Y-113462500D03*
X24098000Y-115062500D03*
X18764000Y-115062500D03*
D12*
X124360593Y-97857340D03*
X124360593Y-95057340D03*
D13*
X125972500Y-102552500D03*
X113422500Y-105092500D03*
D14*
X121729500Y-94412500D03*
X116395500Y-94412500D03*
X121729500Y-96012500D03*
X116395500Y-96012500D03*
D12*
X105310593Y-97857340D03*
X105310593Y-95057340D03*
D13*
X106922500Y-102552500D03*
X94372500Y-105092500D03*
D14*
X102679500Y-94412500D03*
X97345500Y-94412500D03*
X102679500Y-96012500D03*
X97345500Y-96012500D03*
D12*
X86260593Y-97857340D03*
X86260593Y-95057340D03*
D13*
X87872500Y-102552500D03*
X75322500Y-105092500D03*
D14*
X83629500Y-94412500D03*
X78295500Y-94412500D03*
X83629500Y-96012500D03*
X78295500Y-96012500D03*
D12*
X67210593Y-97857340D03*
X67210593Y-95057340D03*
D13*
X68822500Y-102552500D03*
X56272500Y-105092500D03*
D14*
X64579500Y-94412500D03*
X59245500Y-94412500D03*
X64579500Y-96012500D03*
X59245500Y-96012500D03*
D12*
X48160593Y-97857340D03*
X48160593Y-95057340D03*
D13*
X49772500Y-102552500D03*
X37222500Y-105092500D03*
D14*
X45529500Y-94412500D03*
X40195500Y-94412500D03*
X45529500Y-96012500D03*
X40195500Y-96012500D03*
X16383500Y-96012500D03*
X21717500Y-96012500D03*
X16383500Y-94412500D03*
X21717500Y-94412500D03*
D13*
X13410500Y-105092500D03*
X25960500Y-102552500D03*
D12*
X24348593Y-95057340D03*
X24348593Y-97857340D03*
X124360593Y-78807340D03*
X124360593Y-76007340D03*
D13*
X125972500Y-83502500D03*
X113422500Y-86042500D03*
D14*
X121729500Y-75362500D03*
X116395500Y-75362500D03*
X121729500Y-76962500D03*
X116395500Y-76962500D03*
D12*
X105310593Y-78807340D03*
X105310593Y-76007340D03*
D13*
X106922500Y-83502500D03*
X94372500Y-86042500D03*
D14*
X102679500Y-75362500D03*
X97345500Y-75362500D03*
X102679500Y-76962500D03*
X97345500Y-76962500D03*
D12*
X86260593Y-78807340D03*
X86260593Y-76007340D03*
D13*
X87872500Y-83502500D03*
X75322500Y-86042500D03*
D14*
X83629500Y-75362500D03*
X78295500Y-75362500D03*
X83629500Y-76962500D03*
X78295500Y-76962500D03*
D12*
X67210593Y-78807340D03*
X67210593Y-76007340D03*
D13*
X68822500Y-83502500D03*
X56272500Y-86042500D03*
D14*
X64579500Y-75362500D03*
X59245500Y-75362500D03*
X64579500Y-76962500D03*
X59245500Y-76962500D03*
D12*
X48160593Y-78807340D03*
X48160593Y-76007340D03*
D13*
X49772500Y-83502500D03*
X37222500Y-86042500D03*
D14*
X45529500Y-75362500D03*
X40195500Y-75362500D03*
X45529500Y-76962500D03*
X40195500Y-76962500D03*
X16383500Y-76962500D03*
X21717500Y-76962500D03*
X16383500Y-75362500D03*
X21717500Y-75362500D03*
D13*
X13410500Y-86042500D03*
X25960500Y-83502500D03*
D12*
X24348593Y-76007340D03*
X24348593Y-78807340D03*
X124360593Y-59757340D03*
X124360593Y-56957340D03*
D13*
X125972500Y-64452500D03*
X113422500Y-66992500D03*
D14*
X121729500Y-56312500D03*
X116395500Y-56312500D03*
X121729500Y-57912500D03*
X116395500Y-57912500D03*
D12*
X105310593Y-59757340D03*
X105310593Y-56957340D03*
D13*
X106922500Y-64452500D03*
X94372500Y-66992500D03*
D14*
X102679500Y-56312500D03*
X97345500Y-56312500D03*
X102679500Y-57912500D03*
X97345500Y-57912500D03*
D12*
X86260593Y-59757340D03*
X86260593Y-56957340D03*
D13*
X87872500Y-64452500D03*
X75322500Y-66992500D03*
D14*
X83629500Y-56312500D03*
X78295500Y-56312500D03*
X83629500Y-57912500D03*
X78295500Y-57912500D03*
D12*
X67210593Y-59757340D03*
X67210593Y-56957340D03*
D13*
X68822500Y-64452500D03*
X56272500Y-66992500D03*
D14*
X64579500Y-56312500D03*
X59245500Y-56312500D03*
X64579500Y-57912500D03*
X59245500Y-57912500D03*
D12*
X48160593Y-59757340D03*
X48160593Y-56957340D03*
D13*
X49772500Y-64452500D03*
X37222500Y-66992500D03*
D14*
X45529500Y-56312500D03*
X40195500Y-56312500D03*
X45529500Y-57912500D03*
X40195500Y-57912500D03*
X16383500Y-57912500D03*
X21717500Y-57912500D03*
X16383500Y-56312500D03*
X21717500Y-56312500D03*
D13*
X13410500Y-66992500D03*
X25960500Y-64452500D03*
D12*
X24348593Y-56957340D03*
X24348593Y-59757340D03*
X124360593Y-40707340D03*
X124360593Y-37907340D03*
D13*
X125972500Y-45402500D03*
X113422500Y-47942500D03*
D14*
X121729500Y-37262500D03*
X116395500Y-37262500D03*
X121729500Y-38862500D03*
X116395500Y-38862500D03*
D12*
X105310593Y-40707340D03*
X105310593Y-37907340D03*
D13*
X106922500Y-45402500D03*
X94372500Y-47942500D03*
D14*
X102679500Y-37262500D03*
X97345500Y-37262500D03*
X102679500Y-38862500D03*
X97345500Y-38862500D03*
D12*
X86260593Y-40707340D03*
X86260593Y-37907340D03*
D13*
X87872500Y-45402500D03*
X75322500Y-47942500D03*
D14*
X83629500Y-37262500D03*
X78295500Y-37262500D03*
X83629500Y-38862500D03*
X78295500Y-38862500D03*
D12*
X67210593Y-40707340D03*
X67210593Y-37907340D03*
D13*
X68822500Y-45402500D03*
X56272500Y-47942500D03*
D14*
X64579500Y-37262500D03*
X59245500Y-37262500D03*
X64579500Y-38862500D03*
X59245500Y-38862500D03*
D12*
X48160593Y-40707340D03*
X48160593Y-37907340D03*
D13*
X49772500Y-45402500D03*
X37222500Y-47942500D03*
D14*
X45529500Y-37262500D03*
X40195500Y-37262500D03*
X45529500Y-38862500D03*
X40195500Y-38862500D03*
X16383500Y-38862500D03*
X21717500Y-38862500D03*
X16383500Y-37262500D03*
X21717500Y-37262500D03*
D13*
X13410500Y-47942500D03*
X25960500Y-45402500D03*
D12*
X24348593Y-37907340D03*
X24348593Y-40707340D03*
X124360593Y-21657340D03*
X124360593Y-18857340D03*
D13*
X125972500Y-26352500D03*
X113422500Y-28892500D03*
D14*
X121729500Y-18212500D03*
X116395500Y-18212500D03*
X121729500Y-19812500D03*
X116395500Y-19812500D03*
D12*
X105310593Y-21657340D03*
X105310593Y-18857340D03*
D13*
X106922500Y-26352500D03*
X94372500Y-28892500D03*
D14*
X102679500Y-18212500D03*
X97345500Y-18212500D03*
X102679500Y-19812500D03*
X97345500Y-19812500D03*
D12*
X86260593Y-21657340D03*
X86260593Y-18857340D03*
D13*
X87872500Y-26352500D03*
X75322500Y-28892500D03*
D14*
X83629500Y-18212500D03*
X78295500Y-18212500D03*
X83629500Y-19812500D03*
X78295500Y-19812500D03*
D12*
X67210593Y-21657340D03*
X67210593Y-18857340D03*
D13*
X68822500Y-26352500D03*
X56272500Y-28892500D03*
D14*
X64579500Y-18212500D03*
X59245500Y-18212500D03*
X64579500Y-19812500D03*
X59245500Y-19812500D03*
D12*
X48160593Y-21657340D03*
X48160593Y-18857340D03*
D13*
X49772500Y-26352500D03*
X37222500Y-28892500D03*
D14*
X45529500Y-18212500D03*
X40195500Y-18212500D03*
X45529500Y-19812500D03*
X40195500Y-19812500D03*
X16383500Y-19812500D03*
X21717500Y-19812500D03*
X16383500Y-18212500D03*
X21717500Y-18212500D03*
D13*
X13410500Y-28892500D03*
X25960500Y-26352500D03*
D12*
X24348593Y-18857340D03*
X24348593Y-21657340D03*
D10*
G36*
X149372561Y-77535967D02*
G01*
X148524033Y-76687439D01*
X149584693Y-75626779D01*
X150433221Y-76475307D01*
X149372561Y-77535967D01*
G37*
G36*
X147463373Y-79445155D02*
G01*
X146614845Y-78596627D01*
X147675505Y-77535967D01*
X148524033Y-78384495D01*
X147463373Y-79445155D01*
G37*
G36*
X149387728Y-83108800D02*
G01*
X148539200Y-82260272D01*
X149599860Y-81199612D01*
X150448388Y-82048140D01*
X149387728Y-83108800D01*
G37*
G36*
X147478540Y-85017988D02*
G01*
X146630012Y-84169460D01*
X147690672Y-83108800D01*
X148539200Y-83957328D01*
X147478540Y-85017988D01*
G37*
G36*
X149387728Y-94234000D02*
G01*
X148539200Y-93385472D01*
X149599860Y-92324812D01*
X150448388Y-93173340D01*
X149387728Y-94234000D01*
G37*
G36*
X147478540Y-96143188D02*
G01*
X146630012Y-95294660D01*
X147690672Y-94234000D01*
X148539200Y-95082528D01*
X147478540Y-96143188D01*
G37*
G36*
X147690672Y-71958200D02*
G01*
X148539200Y-72806728D01*
X147478540Y-73867388D01*
X146630012Y-73018860D01*
X147690672Y-71958200D01*
G37*
G36*
X149599860Y-70049012D02*
G01*
X150448388Y-70897540D01*
X149387728Y-71958200D01*
X148539200Y-71109672D01*
X149599860Y-70049012D01*
G37*
G36*
X149387728Y-88646000D02*
G01*
X148539200Y-87797472D01*
X149599860Y-86736812D01*
X150448388Y-87585340D01*
X149387728Y-88646000D01*
G37*
G36*
X147478540Y-90555188D02*
G01*
X146630012Y-89706660D01*
X147690672Y-88646000D01*
X148539200Y-89494528D01*
X147478540Y-90555188D01*
G37*
G36*
X147675505Y-99786367D02*
G01*
X148524033Y-100634895D01*
X147463373Y-101695555D01*
X146614845Y-100847027D01*
X147675505Y-99786367D01*
G37*
G36*
X149584693Y-97877179D02*
G01*
X150433221Y-98725707D01*
X149372561Y-99786367D01*
X148524033Y-98937839D01*
X149584693Y-97877179D01*
G37*
M02*
