M48
METRIC,TZ
T1C0.400
T2C0.900
T3C1.000
T4C1.092
T5C2.500
%
G90
G05
T1
X11761Y-50876
X13691Y-39014
X15634Y-89751
X16383Y-15062
X16383Y-34112
X16383Y-53162
X16383Y-72212
X16383Y-91262
X18745Y-110439
X19990Y-69571
X20879Y-48260
X21666Y-15914
X21666Y-53450
X21666Y-72500
X21666Y-91550
X21996Y-34341
X22403Y-30836
X23139Y-16549
X23139Y-35255
X23139Y-53950
X23139Y-73225
X23139Y-92444
X24155Y-110820
X24333Y-35966
X24333Y-55016
X24359Y-74066
X24359Y-93486
X24511Y-17274
X25160Y-90639
X25502Y-111277
X26549Y-91392
X26848Y-112116
X26975Y-92354
X27324Y-15062
X27696Y-71510
X28234Y-72353
X28709Y-109594
X28724Y-73225
X28748Y-15482
X29730Y-16549
X30062Y-33489
X31006Y-110319
X31445Y-34315
X32563Y-52592
X32690Y-35230
X33553Y-111277
X33731Y-53042
X34874Y-54000
X36557Y-30930
X37922Y-39395
X40107Y-33909
X40132Y-15164
X40132Y-52592
X40132Y-71926
X40132Y-90639
X40424Y-89116
X42570Y-109594
X43840Y-69342
X45288Y-34112
X45390Y-15508
X45390Y-53225
X45390Y-72376
X45390Y-91534
X46482Y-73304
X47066Y-92100
X47193Y-15958
X47193Y-34976
X47193Y-54051
X47930Y-110044
X48200Y-93294
X48209Y-16764
X48209Y-35890
X48235Y-74106
X48336Y-54966
X49454Y-110820
X50597Y-112090
X55578Y-30687
X56388Y-39472
X59334Y-15189
X59360Y-91186
X59385Y-52775
X59385Y-71926
X59538Y-33909
X59957Y-88583
X62357Y-69266
X64567Y-34366
X64646Y-72303
X64719Y-15482
X64719Y-53225
X64719Y-91567
X65507Y-73000
X65862Y-15951
X65862Y-34997
X65862Y-54051
X65862Y-92151
X66370Y-109848
X67208Y-55042
X67234Y-35865
X67259Y-16866
X67310Y-74106
X67386Y-93015
X71603Y-110298
X73177Y-111049
X74346Y-112039
X74657Y-30658
X76149Y-39751
X78334Y-71698
X78359Y-15291
X78359Y-91161
X78384Y-33884
X78410Y-52775
X78778Y-88532
X81382Y-69234
X83261Y-34239
X83363Y-15559
X83363Y-53225
X83363Y-72455
X83363Y-91618
X85039Y-16009
X85039Y-34874
X85039Y-53950
X85141Y-91999
X85471Y-72905
X86208Y-35814
X86233Y-92964
X86284Y-55042
X86360Y-16866
X86665Y-73990
X90195Y-109747
X93707Y-30981
X95250Y-97485
X95301Y-39624
X95301Y-58471
X95910Y-110197
X96799Y-110998
X97384Y-15215
X97460Y-52775
X97485Y-71698
X97536Y-33807
X97638Y-90602
X98222Y-112141
X98613Y-87806
X99670Y-68784
X102184Y-53225
X102591Y-34163
X102743Y-15533
X102743Y-91052
X102972Y-72531
X103938Y-72981
X104165Y-15983
X104165Y-53975
X104242Y-91502
X104318Y-34900
X105283Y-74016
X105308Y-16866
X105359Y-35941
X105410Y-92227
X105461Y-54991
X109499Y-60325
X109499Y-97663
X109525Y-40335
X109626Y-22098
X109677Y-79172
X109982Y-109169
X110885Y-110197
X112446Y-110998
X112573Y-113563
X112665Y-30750
X113563Y-112141
X113767Y-39675
X114173Y-96799
X114224Y-77953
X114275Y-64237
X116256Y-15138
X116408Y-33985
X116408Y-71806
X116408Y-90393
X116713Y-52775
X118008Y-107823
X118504Y-87363
X119456Y-68334
X120701Y-48209
X120802Y-85954
X120828Y-71806
X121742Y-53188
X121808Y-15296
X121808Y-34321
X121808Y-90788
X121844Y-72542
X123215Y-73254
X123266Y-15621
X123266Y-34646
X123266Y-53696
X123377Y-91325
X124358Y-16840
X124409Y-35890
X124409Y-54940
X124435Y-73990
X124485Y-105334
X124816Y-91643
X124993Y-108153
X126467Y-57785
X126771Y-69266
X126848Y-70333
X126898Y-67945
X127381Y-79223
X127660Y-109181
X128803Y-109906
X129108Y-29566
X129819Y-51511
X131369Y-72695
X132965Y-70141
X133274Y-71476
X133604Y-69367
X133858Y-49860
X135484Y-85674
X135839Y-127000
X136054Y-50724
X137008Y-37541
X137617Y-34188
X137753Y-71552
X138049Y-54153
X138176Y-70561
X138315Y-52324
X138478Y-86464
X138478Y-94054
X139217Y-71425
X140132Y-86157
X140284Y-33020
X141630Y-73050
X142443Y-80874
X142850Y-99466
X143437Y-80566
X143662Y-70688
X143866Y-72187
X143891Y-47574
X143891Y-78943
X145136Y-78816
X146406Y-41453
X146431Y-38735
X146431Y-43739
X146634Y-36220
X146736Y-52527
X146749Y-25184
X148539Y-74803
X148539Y-80349
X148539Y-85894
X148539Y-91440
T3
X145766Y-102544
X151282Y-97029
X145781Y-96992
X151297Y-91476
X145781Y-74716
X151297Y-69200
X145766Y-80294
X151282Y-74778
X145781Y-85867
X151297Y-80351
X145781Y-91404
X151297Y-85888
T4
X134468Y-19685
X134468Y-22225
X134468Y-24765
X134468Y-27305
X134468Y-29845
X134468Y-32385
X134468Y-34925
X134468Y-37465
X134468Y-40005
X134468Y-42545
X134468Y-45085
X134468Y-47625
X149708Y-19685
X149708Y-22225
X149708Y-24765
X149708Y-27305
X149708Y-29845
X149708Y-32385
X149708Y-34925
X149708Y-37465
X149708Y-40005
X149708Y-42545
X149708Y-45085
X149708Y-47625
T5
X152366Y-64100
X131975Y-109012
X80962Y-119063
X152366Y-116434
X131975Y-64100
X8636Y-99974
X8463Y-23901
X123850Y-111582
T2
G00X142646Y-54250
M15
G01X142246Y-54250
M16
G05
G00X143746Y-58850
M15
G01X143346Y-58850
M16
G05
G00X147746Y-58850
M15
G01X147346Y-58850
M16
G05
G00X150746Y-58850
M15
G01X150346Y-58850
M16
G05
T0
M30
