M48
METRIC,TZ
T1C1.500
T2C1.800
T3C3.000
T4C3.048
T5C3.988
%
G90
G05
T1
X145146Y-56550
X152146Y-56550
T2
X37783Y-80962
X47943Y-80962
X63976Y-119063
X74136Y-119063
X13970Y-100012
X24130Y-100012
X13970Y-42863
X24130Y-42863
X75882Y-61913
X86043Y-61913
X56832Y-80962
X66993Y-80962
X40164Y-119063
X50323Y-119063
X37783Y-23813
X47943Y-23813
X94933Y-61913
X105093Y-61913
X13970Y-23813
X24130Y-23813
X56832Y-100012
X66993Y-100012
X113983Y-100012
X124143Y-100012
X13970Y-61913
X24130Y-61913
X94933Y-42863
X105093Y-42863
X75882Y-23813
X86043Y-23813
X13970Y-80962
X24130Y-80962
X56832Y-23813
X66993Y-23813
X56832Y-61913
X66993Y-61913
X94933Y-100012
X105093Y-100012
X87789Y-119063
X97948Y-119063
X75882Y-80962
X86043Y-80962
X113983Y-23813
X124143Y-23813
X37783Y-61913
X47943Y-61913
X132604Y-142477
X136079Y-132929
X16351Y-119063
X26511Y-119063
X113983Y-61913
X124143Y-61913
X113983Y-80962
X124143Y-80962
X37783Y-42863
X47943Y-42863
X94933Y-23813
X105093Y-23813
X114703Y-135961
X118177Y-126414
X37783Y-100012
X47943Y-100012
X75882Y-100012
X86043Y-100012
X94933Y-80962
X105093Y-80962
X113983Y-42863
X124143Y-42863
X56832Y-42863
X66993Y-42863
X75882Y-42863
X86043Y-42863
T3
X18891Y-124143
X25241Y-121602
X116523Y-66993
X122873Y-64453
X116523Y-86043
X122873Y-83503
X40322Y-47943
X46673Y-45403
X97473Y-28892
X103823Y-26353
X120130Y-128476
X120345Y-135312
X40322Y-105093
X46673Y-102552
X78423Y-105093
X84773Y-102552
X97473Y-86043
X103823Y-83503
X116523Y-47943
X122873Y-45403
X59372Y-47943
X65722Y-45403
X78423Y-47943
X84773Y-45403
X40322Y-86043
X46673Y-83503
X66516Y-124143
X72866Y-121602
X16511Y-105093
X22860Y-102552
X16511Y-47943
X22860Y-45403
X78423Y-66993
X84773Y-64453
X59372Y-86043
X65722Y-83503
X42703Y-124143
X49053Y-121602
X40322Y-28892
X46673Y-26353
X97473Y-66993
X103823Y-64453
X16511Y-28892
X22860Y-26353
X59372Y-105093
X65722Y-102552
X116523Y-105093
X122873Y-102552
X16511Y-66993
X22860Y-64453
X97473Y-47943
X103823Y-45403
X78423Y-28892
X84773Y-26353
X16511Y-86043
X22860Y-83503
X59372Y-28892
X65722Y-26353
X59372Y-66993
X65722Y-64453
X97473Y-105093
X103823Y-102552
X90328Y-124143
X96679Y-121602
X78423Y-86043
X84773Y-83503
X116523Y-28892
X122873Y-26353
X40322Y-66993
X46673Y-64453
X130436Y-133579
X130651Y-140414
T4
X123694Y-146532
X131860Y-124096
X118921Y-144795
X127087Y-122358
T5
X19051Y-80962
X61913Y-23813
X61913Y-61913
X100012Y-100012
X92868Y-119063
X80962Y-80962
X119063Y-23813
X42863Y-61913
X134341Y-137703
X138015Y-151744
X146181Y-129308
X21431Y-119063
X119063Y-61913
X119063Y-80962
X42863Y-42863
X100012Y-23813
X104600Y-139582
X112766Y-117146
X116440Y-131187
X42863Y-100012
X80962Y-100012
X100012Y-80962
X119063Y-42863
X61913Y-42863
X80962Y-42863
X42863Y-80962
X69056Y-119063
X19051Y-100012
X19051Y-42863
X80962Y-61913
X61913Y-80962
X45243Y-119063
X42863Y-23813
X100012Y-61913
X19051Y-23813
X61913Y-100012
X119063Y-100012
X19051Y-61913
X100012Y-42863
X80962Y-23813
T0
M30
